/* XPM */
static char *daf6105e55604c68fb44e14fdd9bb794OpSv7XmQZjIiNo6F[] = {
/* columns rows colors chars-per-pixel */
"64 64 219 2 ",
"   c None",
".  c #292723",
"X  c #292824",
"o  c #2A2824",
"O  c #2A2925",
"+  c #2A2926",
"@  c #2B2926",
"#  c #2B2927",
"$  c #2B2A26",
"%  c #2D2A26",
"&  c #2D2A27",
"*  c #2D2B27",
"=  c #2E2B26",
"-  c #2E2B27",
";  c #2B2929",
":  c #2B2A28",
">  c #2A292A",
",  c #2A292B",
"<  c #2A2A2A",
"1  c #2B2A2A",
"2  c #2B2A2B",
"3  c gray17",
"4  c #2C2928",
"5  c #2C2A28",
"6  c #2D2A28",
"7  c #2C2B28",
"8  c #2D2B28",
"9  c #2E2B28",
"0  c #2C2B2A",
"q  c #2C2B2B",
"w  c #2D2C28",
"e  c #2C2C29",
"r  c #2D2C29",
"t  c #2E2C28",
"y  c #2E2C29",
"u  c #2C2C2B",
"i  c #2D2C2B",
"p  c #2D2D2B",
"a  c #2E2C2A",
"s  c #2E2D2B",
"d  c #292A2C",
"f  c #282B2C",
"g  c #292B2C",
"h  c #2A2A2C",
"j  c #2B2B2C",
"k  c #2B2B2D",
"l  c #2A2C2D",
"z  c #2B2C2D",
"x  c #2A2D2D",
"c  c #2B2D2D",
"v  c #2C2C2C",
"b  c #2D2C2C",
"n  c #2D2D2C",
"m  c #2C2C2D",
"M  c #2C2D2D",
"N  c #2D2D2D",
"B  c #2E2D2C",
"V  c #2E2D2D",
"C  c #2C2E2D",
"Z  c #2D2E2D",
"A  c #2E2E2D",
"S  c #2D2D2E",
"D  c #2D2E2E",
"F  c #2C2F2F",
"G  c #2D2F2F",
"H  c gray18",
"J  c #302A26",
"K  c #312B27",
"L  c #362825",
"P  c #372926",
"I  c #382825",
"U  c #382926",
"Y  c #362B2B",
"T  c #372B2B",
"R  c #312C2A",
"E  c #302D2A",
"W  c #312C2B",
"Q  c #302D2D",
"!  c #302F2E",
"~  c #3B2929",
"^  c #382A29",
"/  c #382A2A",
"(  c #30302F",
")  c #34312C",
"_  c #34312D",
"`  c #37312D",
"'  c #34322E",
"]  c #38332E",
"[  c #362E30",
"{  c #353130",
"}  c #343230",
"|  c #353230",
" . c #343331",
".. c #353331",
"X. c #363230",
"o. c #343332",
"O. c #353730",
"+. c #393131",
"@. c #393730",
"#. c #383731",
"$. c #3A3730",
"%. c #383432",
"&. c #383732",
"*. c #3A3934",
"=. c #3A3935",
"-. c #571F1F",
";. c #5A1D1C",
":. c #5B1D1C",
">. c #5A1E1E",
",. c #611B1B",
"<. c #452421",
"1. c #452626",
"2. c #4B2220",
"3. c #4B2323",
"4. c #4C2220",
"5. c #4C2221",
"6. c #4C2222",
"7. c #413D37",
"8. c #4E3538",
"9. c #4F3538",
"0. c #413D38",
"q. c #413E39",
"w. c #463C39",
"e. c #473D3A",
"r. c #483E3A",
"t. c #4A3E3A",
"y. c #4A3F3B",
"u. c #4B3F3B",
"i. c #503639",
"p. c #48413C",
"a. c #4B403C",
"s. c #4B433E",
"d. c #4C403D",
"f. c #4C413D",
"g. c #4C433D",
"h. c #4C413E",
"j. c #4D413E",
"k. c #4E423E",
"l. c #4D443E",
"z. c #4A4A38",
"x. c #4C4A39",
"c. c #4C4B39",
"v. c #4D4B39",
"b. c #514F3F",
"n. c #544E3F",
"m. c #52503F",
"M. c #4F4640",
"N. c #514741",
"B. c #514742",
"V. c #544742",
"C. c #534843",
"Z. c #554843",
"A. c #544943",
"S. c #564843",
"D. c #544F42",
"F. c #554844",
"G. c #554944",
"H. c #564844",
"J. c #574944",
"K. c #554A44",
"L. c #554B45",
"P. c #574C46",
"I. c #515040",
"U. c #525140",
"Y. c #525141",
"T. c #545044",
"R. c #5A5840",
"E. c #5E5C45",
"W. c #725C58",
"Q. c #745D59",
"!. c #755F5A",
"~. c #75615B",
"^. c #96474E",
"/. c #97474E",
"(. c #856864",
"). c #876965",
"_. c #8A6B68",
"`. c #8B6D69",
"'. c #8D6F69",
"]. c #8F706A",
"[. c #88746C",
"{. c #89746C",
"}. c #8B766D",
"|. c #8C766E",
" X c #8E786F",
".X c #8E7970",
"XX c #8B8850",
"oX c #8C8850",
"OX c #9C9866",
"+X c #9D9966",
"@X c #A2966F",
"#X c #A6827D",
"$X c #A3867F",
"%X c #A4877F",
"&X c #A9857F",
"*X c #A29771",
"=X c #B5AF64",
"-X c #C0BA73",
";X c #A38780",
":X c #A88580",
">X c #A98580",
",X c #AC8781",
"<X c #A78980",
"1X c #A98B82",
"2X c #AE8981",
"3X c #AB8C83",
"4X c #B18A85",
"5X c #B48E89",
"6X c #B68E88",
"7X c #B68F89",
"8X c #B88F89",
"9X c #AB9085",
"0X c #AD9187",
"qX c #BA918A",
"wX c #B9998F",
"eX c #C79F98",
"rX c #CAA29A",
"tX c #CEA59C",
"yX c #CEA89E",
/* pixels */
"                                                                                                                                ",
"                                                                                                                                ",
"                                                                                                                                ",
"                                                                                                                                ",
"                                                                                                                                ",
"                                                                                                                                ",
"                                                                                                                                ",
"                                                                                                                                ",
"                                                                                                                                ",
"                                                                                                                                ",
"                                                                                                                                ",
"                                                                                                                                ",
"                                                                                                                                ",
"                                                                                                                                ",
"                                                                                                                                ",
"                                                                                                                                ",
"                                                                                                                                ",
"                                                                                                                                ",
"                                                                                                                                ",
"                                                                                                                                ",
"                                                                . . . . . .                 . . . . . .                         ",
"                                                                M.C.L.S.C.M.                B.L.S.S.L.B.                        ",
"                                                            . M.}.;X>X>X%X}.M..         . B..X1X&X&X1X XB..                     ",
"                                                            . C.$XeX7X7XrX<XS..         . L.3XtX7X7XyX9XL..                     ",
"                                                            X V.#X4XW.Q.qX2XL..         . L.,X8XQ.~.wX0XP..                     ",
"                                                            X u.(.(.e.u.'.].g.X         X g.`._.e.p.}.|.l.X                     ",
"                                                            % ` u.u.o.o.g.g.#.a 8 % % 8 a #.g.p.o.o.p.g.] %                     ",
"                                                            % % X 1 A A 1 1 A A a a a a A A 1 1 A A 1 X % %                     ",
"            % %                                             % 8 8 A A A a a A A A A A A A A a a A A A 8 8 %                     ",
"            a a                                             a a A A A A A A A A A A A A A A A A A A A 8 8 %                     ",
"        % a a a a %                                     % a a A A A A A A A A A h h A A A A A A A A h 1 8 %                     ",
"        a a A A a a                                     % a A A A A A A A A A =.U.U.=.A A A A A A =.U.b.#.8                     ",
"    % a a A A A A a a %                                 % a A A A A A A A A h U.+X+XU.h A A A A h U.+X+Xm.1 X %                 ",
"    a a A A A A A A a a                                 % a A A A A A A A h h E.-X-XE.h h A A h h E.-X-XE.1 X %                 ",
"% a a A A A a a A A A a a %                             % a A A A A A A A z h R.=X=XR.h A A z h h R.=X=XR.1 8 %                 ",
"% a A A A a a a a A A A a a                             % a a A A A A A A A h v.oXoXv.h z +.i.8.[ v.XXoXv.1 8 %                 ",
"% a A A a a     a a A A A a a %                         % % a a a a a a A A A #.v.v.#.z z i././.8.O.z.v.#.A 8 %                 ",
"% a a a a %     % a A A A A a a                         % % % % a a a a A A A A h h A A z i././.i.z h h A A a %                 ",
"    a a         % a A A A A A a a % % % % % % % % % % % % % % a a A A A A A A A A A A A A +.i.i.+.A A A A A a %                 ",
"    % %         % a A A A A A A a a a a a a a a a a a a a K I P E A A A A A A A A A A A A A z z A A A A A a a %                 ",
"                % a A A A A A A A A A A A A A A A A A A A ~ 4.4.P a a a a a A A A A A A A A A A A A A A a a                     ",
"                % a a A A A A A A A A A A A A A A A A A A ~ -.>.<.P K % a a A A A A A A A A A A A A A a a %                     ",
"                    a a A A A A A A A A A A A A A A A A A ~ -.,.>.3.P a a A A A A A A A A A A A A A a a                         ",
"                    % a A A A A A A A A A A A A A A A A A Y 3.>.,.>.<.P E A A A 8 8 A A A A A A A a a %                         ",
"                    % a A A A A A A A A A A A A A A A A A ! Y 1.>.,.>.4.P a a 8 X X 8 a a a a a a a                             ",
"                    % a a A A A A A A A A A A A A A A A A A A Y 3.-.-.4.I 8 8 #.n.n.#.8 8 8 % % % %                             ",
"                        a a a a A A A A A A A A A A A A A A A ! Y ~ ~ ~ E 8 1 D.@X@XD.1 8 a 8 %                                 ",
"                        % % % a A A A A A A A A A A A A A A A A A A A A A A h T.*X*XT.h A A a %                                 ",
"                            % a A A A A A A A A A A A A A A A A A A A A A A A =.T.T.=.A A A a %                                 ",
"                            % a A A A A A A A A A A A A A A A A A A A A A A A A h h A A A A a %                                 ",
"                            % a A A A A A A A A A A A A A A A A A A A A A A A A A A A A A A a %                                 ",
"                            % a A A A A A A A A A A A A A A A A A A A A A A A A A A A A A a a %                                 ",
"                            % a A A A A A A A A A A A A A A A A A A A A A A A A A A A A a a                                     ",
"                            % a A A A A A ( o.o.( A A A A ( o.o.( A A ( o.o.( A A A A A a %                                     ",
"                            % a A A A A A o.q.q.o.A A A A o.q.q.o.A A o.q.q.o.A A A A A a %                                     ",
"                            % a A A A A A o.7.q.o.A A A A o.7.q.o.A A o.q.7.o.A A A A A a %                                     ",
"                            % a A A A A a E ` ` ! A A A a E ` ` ! A A ! ` ` E a A A A A a %                                     ",
"                            % a a A A a 8 % % 8 a A A a 8 % % 8 a A A a 8 % % a a A A a a %                                     ",
"                                a a a a % %     a a a a % %     a a a 8 % %     a a a a                                         ",
"                                % % % % % %     % % % % % %     % % % % % %     % % % %                                         ",
"                                                                                                                                ",
"                                                                                                                                ",
"                                                                                                                                ",
"                                                                                                                                "
};
