/* XPM */
static char *d1cc1d0e6d08472ab1291308a5a48d82wjwa7BCdBL1GxG2g[] = {
/* columns rows colors chars-per-pixel */
"64 64 235 2 ",
"   c None",
".  c #292723",
"X  c #292824",
"o  c #2A2824",
"O  c #2A2925",
"+  c #2A2926",
"@  c #2B2926",
"#  c #2B2927",
"$  c #2B2A26",
"%  c #2D2A26",
"&  c #2D2A27",
"*  c #2D2B27",
"=  c #2E2B26",
"-  c #2E2B27",
";  c #2B2929",
":  c #2B2A28",
">  c #2A292A",
",  c #2A292B",
"<  c #2B2A2B",
"1  c gray17",
"2  c #2C2928",
"3  c #2C2A28",
"4  c #2D2A28",
"5  c #2D2B28",
"6  c #2E2B28",
"7  c #2C2B2A",
"8  c #2C2B2B",
"9  c #2D2C28",
"0  c #2C2C29",
"q  c #2D2C29",
"w  c #2E2C28",
"e  c #2E2C29",
"r  c #2C2C2B",
"t  c #2D2C2B",
"y  c #2D2D2B",
"u  c #2E2C2A",
"i  c #2E2D2B",
"p  c #292A2C",
"a  c #282B2C",
"s  c #292B2C",
"d  c #292B2D",
"f  c #2A2A2C",
"g  c #2B2B2C",
"h  c #2B2B2D",
"j  c #2A2C2D",
"k  c #2B2C2D",
"l  c #2A2D2D",
"z  c #2B2D2D",
"x  c #2C2C2C",
"c  c #2D2C2C",
"v  c #2D2D2C",
"b  c #2C2C2D",
"n  c #2C2D2D",
"m  c #2D2D2D",
"M  c #2E2D2C",
"N  c #2E2D2D",
"B  c #2D2E2C",
"V  c #2C2E2D",
"C  c #2D2E2D",
"Z  c #2E2E2D",
"A  c #2C2D2E",
"S  c #2D2D2E",
"D  c #2D2E2E",
"F  c #2D2E2F",
"G  c #2C2F2F",
"H  c gray18",
"J  c #392522",
"K  c #3A2623",
"L  c #3A2724",
"P  c #3B2724",
"I  c #3B2725",
"U  c #382627",
"Y  c #302A26",
"T  c #322A26",
"R  c #362825",
"E  c #362926",
"W  c #372926",
"Q  c #382824",
"!  c #392728",
"~  c #362B2B",
"^  c #372B2B",
"/  c #302D2A",
"(  c #302C2B",
")  c #312C2B",
"_  c #302D2D",
"`  c #302F2E",
"'  c #3B2928",
"]  c #3B2929",
"[  c #30302F",
"{  c #34312C",
"}  c #34312D",
"|  c #37312D",
" . c #34322E",
".. c #38332E",
"X. c #362E30",
"o. c #353130",
"O. c #343230",
"+. c #353230",
"@. c #343331",
"#. c #353331",
"$. c #363230",
"%. c #343332",
"&. c #353730",
"*. c #393131",
"=. c #393730",
"-. c #383731",
";. c #383432",
":. c #383732",
">. c #3A3934",
",. c #3A3935",
"<. c #521B1B",
"1. c #531F1E",
"2. c #551D1D",
"3. c #561E1D",
"4. c #561F1D",
"5. c #551E1F",
"6. c #551F1F",
"7. c #571E1E",
"8. c #561F1E",
"9. c #561F1F",
"0. c #5A1D1C",
"q. c #5B1D1C",
"w. c #5A1D1D",
"e. c #5A1E1E",
"r. c #611B1B",
"t. c #4E211F",
"y. c #452421",
"u. c #452626",
"i. c #4B2220",
"p. c #4B2221",
"a. c #4B2323",
"s. c #4C2220",
"d. c #413D37",
"f. c #4E3538",
"g. c #4F3538",
"h. c #413D38",
"j. c #413E39",
"k. c #463C39",
"l. c #473D3A",
"z. c #483E3A",
"x. c #4A3E3A",
"c. c #4A3F3B",
"v. c #4B3F3B",
"b. c #503639",
"n. c #622A27",
"m. c #48413C",
"M. c #4B403C",
"N. c #4B433E",
"B. c #4C403D",
"V. c #4C413D",
"C. c #4C433D",
"Z. c #4C413E",
"A. c #4D413E",
"S. c #4E423E",
"D. c #4D443E",
"F. c #4A4A38",
"G. c #4C4A39",
"H. c #4C4B39",
"J. c #4D4B39",
"K. c #514F3F",
"L. c #52503F",
"P. c #614B3F",
"I. c #7C4135",
"U. c #4F4640",
"Y. c #514741",
"T. c #514742",
"R. c #544742",
"E. c #534843",
"W. c #554843",
"Q. c #544943",
"!. c #564843",
"~. c #554844",
"^. c #554944",
"/. c #564844",
"(. c #574944",
"). c #554A44",
"_. c #554B45",
"`. c #574C46",
"'. c #515040",
"]. c #525140",
"[. c #525141",
"{. c #535144",
"}. c #5A5840",
"|. c #5E5C45",
" X c #725C58",
".X c #745D59",
"XX c #755F5A",
"oX c #75615B",
"OX c #96474E",
"+X c #97474E",
"@X c #856864",
"#X c #876965",
"$X c #8A6B68",
"%X c #8B6D69",
"&X c #8D6F69",
"*X c #8F706A",
"=X c #88746C",
"-X c #89746C",
";X c #8B766D",
":X c #8C766E",
">X c #8E786F",
",X c #8E7970",
"<X c #8B8850",
"1X c #8C8850",
"2X c #9C9866",
"3X c #9D9966",
"4X c #AF926D",
"5X c #A6827D",
"6X c #A3867F",
"7X c #A4877F",
"8X c #A9857F",
"9X c #A19772",
"0X c #B5AF64",
"qX c #C0BA73",
"wX c #A38780",
"eX c #A88580",
"rX c #A98580",
"tX c #AC8781",
"yX c #A78980",
"uX c #A98B82",
"iX c #AE8981",
"pX c #AB8C83",
"aX c #B18A85",
"sX c #B48E89",
"dX c #B68E88",
"fX c #B68F89",
"gX c #B88F89",
"hX c #AB9085",
"jX c #AD9187",
"kX c #BA918A",
"lX c #B9998F",
"zX c #C79F98",
"xX c #CAA29A",
"cX c #CEA59C",
"vX c #CEA89E",
/* pixels */
"                                                                                                                                ",
"                                                                                                                                ",
"                                                                                                                                ",
"                                                                                                                                ",
"                                                                                                                                ",
"                                                                                                                                ",
"                                                                                                                                ",
"                                                                                                                                ",
"                                                                                                                                ",
"                                                                                                                                ",
"                                                                                                                                ",
"                                                                                                                                ",
"                                                                                                                                ",
"                                                                                                                                ",
"                                                                                                                                ",
"                                                                                                                                ",
"                                                                                                                                ",
"                                                                                                                                ",
"                                                                . . . . . .                 . . . . . .                         ",
"                                                                U.E._.!.E.U.                T._.!.!._.T.                        ",
"                                                            . U.;XwXeXeX7X;XU..         . T.,XuX8X8XuX>XT..                     ",
"                                                            . E.6XzXdXdXxXyX!..         . _.pXcXdXdXvXhX_..                     ",
"                                                            X R.5XaX X.XkXiX_..         . _.tXgX.XoXlXjX`..                     ",
"                                                            X v.@X@Xl.v.&X*XC.X         X C.%X$Xl.m.;X:XD.X                     ",
"                                                            % | v.v.%.%.C.C.-.u 5 % % 5 u -.C.m.%.%.m.C...%                     ",
"                                                            % % X , Z Z , , Z Z u u u u Z Z , , Z Z , X % %                     ",
"                                                            % 5 5 Z Z Z u u Z Z Z Z Z Z Z Z u u Z Z Z 5 5 %                     ",
"                                                            u u Z Z Z Z Z Z Z Z Z Z Z Z Z Z Z Z Z Z Z 5 5 %                     ",
"            % %                                         % u u Z Z Z Z Z Z Z Z Z f f Z Z Z Z Z Z Z Z f , 5 %                     ",
"            u u                                         % u Z Z Z Z Z Z Z Z Z ,.'.'.,.Z Z Z Z Z Z ,.'.K.-.5                     ",
"        % u u u u %                                     % u Z Z Z Z Z Z Z Z f '.3X3X'.f Z Z Z Z f '.3X3XL., X %                 ",
"        u u Z Z u u                                     % u Z Z Z Z Z Z Z f f |.qXqX|.f f Z Z f f |.qXqX|., X %                 ",
"    % u u Z Z Z Z u u %                                 % u Z Z Z Z Z Z Z k f }.0X0X}.f Z Z k f f }.0X0X}., 5 %                 ",
"    u u Z Z Z Z Z Z u u                                 % u u Z Z Z Z Z Z Z f J.1X1XJ.f k *.b.f.X.J.<X1XJ., 5 %                 ",
"% u u Z Z Z u u Z Z Z u u %                             % % u u u u u u Z Z Z -.J.J.-.k k b.+X+Xf.&.F.J.-.Z 5 %                 ",
"% u Z Z Z u u u u Z Z Z u u                             % % % % u u u u Z Z Z Z f f Z Z k b.+X+Xb.k f f Z Z u %                 ",
"% u Z Z u u     u u Z Z Z u u %                             % u u Z Z Z Z Z Z Z Z Z Z Z Z *.b.b.*.Z Z Z Z Z u %                 ",
"% u u u u %     % u Z Z Z Z u u                             I W / Z Z Z Z Z Z Z Z Z Z Z Z Z k k Z Z Z Z Z u u %                 ",
"    u u         % u Z Z Z Z Z u u % % % % % % % % % % % % I t.s.W u u u u u Z Z Z Z Z Z Z Z Z Z Z Z Z Z u u                     ",
"    % %         % u Z Z Z Z Z Z u u u u u u u u u u u u u I 9.e.y.W Y % u u Z Z Z Z Z Z Z Z Z Z Z Z Z u u %                     ",
"                % u Z Z Z Z Z Z Z Z Z Z Z Z Z Z Z Z Z Z Z ' 9.r.e.a.W u u Z Z Z Z Z Z Z Z Z Z Z Z Z u u                         ",
"                % u u Z Z Z Z Z Z Z Z Z Z Z Z Z Z Z Z Z Z ^ a.e.r.e.y.W / Z Z Z Z Z Z Z Z Z Z Z Z u u %                         ",
"                    u u Z Z Z Z Z Z Z Z Z Z Z Z Z Z Z Z Z ` ~ u.e.r.e.a.W u u u u u u u u u u u u u                             ",
"                    % u Z Z Z Z Z Z Z Z Z Z Z Z Z Z Z Z Z Z G ~ a.e.r.e.y.I I J J J J I I I I Q Y %                             ",
"                    % u Z Z Z Z Z Z Z Z Z Z Z Z Z Z Z Z Z Z Z ` ^ u.e.r.e.9.9.9.<.<.9.9.9.9.9.1.                                ",
"                    % u u Z Z Z Z Z Z Z Z Z Z Z Z Z Z Z Z Z Z Z Z ^ a.9.9.9.9.n.I.I.n.9.9.9.9.9.                                ",
"                        u u u u Z Z Z Z Z Z Z Z Z Z Z Z Z Z Z Z Z ` ^ ' ' ! I P.4X4XP.I ! ' I I                                 ",
"                        % % % u Z Z Z Z Z Z Z Z Z Z Z Z Z Z Z Z Z Z Z Z Z k f {.9X9X{.f k Z u %                                 ",
"                            % u Z Z Z Z Z Z Z Z Z Z Z Z Z Z Z Z Z Z Z Z Z Z Z ,.{.{.,.Z Z Z u %                                 ",
"                            % u Z Z Z Z Z Z Z Z Z Z Z Z Z Z Z Z Z Z Z Z Z Z Z Z f f Z Z Z Z u %                                 ",
"                            % u Z Z Z Z Z Z Z Z Z Z Z Z Z Z Z Z Z Z Z Z Z Z Z Z Z Z Z Z Z Z u %                                 ",
"                            % u Z Z Z Z Z Z Z Z Z Z Z Z Z Z Z Z Z Z Z Z Z Z Z Z Z Z Z Z Z u u %                                 ",
"                            % u Z Z Z Z Z Z Z Z Z Z Z Z Z Z Z Z Z Z Z Z Z Z Z Z Z Z Z Z u u                                     ",
"                            % u Z Z Z Z Z [ %.%.[ Z Z Z Z [ %.%.[ Z Z [ %.%.[ Z Z Z Z Z u %                                     ",
"                            % u Z Z Z Z Z %.j.j.%.Z Z Z Z %.j.j.%.Z Z %.j.j.%.Z Z Z Z Z u %                                     ",
"                            % u Z Z Z Z Z %.d.j.%.Z Z Z Z %.d.j.%.Z Z %.j.d.%.Z Z Z Z Z u %                                     ",
"                            % u Z Z Z Z u / | | ` Z Z Z u / | | ` Z Z ` | | / u Z Z Z Z u %                                     ",
"                            % u u Z Z u 5 % % 5 u Z Z u 5 % % 5 u Z Z u 5 % % u u Z Z u u %                                     ",
"                                u u u u % %     u u u u % %     u u u 5 % %     u u u u                                         ",
"                                % % % % % %     % % % % % %     % % % % % %     % % % %                                         ",
"                                                                                                                                ",
"                                                                                                                                ",
"                                                                                                                                ",
"                                                                                                                                "
};
