/* XPM */
static char *_5dea39e30d9477de8c6feb7ea55715212bR9Oymd5E4OSqY[] = {
/* columns rows colors chars-per-pixel */
"64 64 240 2 ",
"   c None",
".  c #292723",
"X  c #292824",
"o  c #2A2824",
"O  c #2A2925",
"+  c #2A2926",
"@  c #2B2926",
"#  c #2B2927",
"$  c #2B2A26",
"%  c #2D2A26",
"&  c #2D2A27",
"*  c #2D2B27",
"=  c #2E2A26",
"-  c #2E2B26",
";  c #2E2B27",
":  c #2B2929",
">  c #2B2A28",
",  c #2A292A",
"<  c #2A292B",
"1  c #2B2A2B",
"2  c gray17",
"3  c #2C2928",
"4  c #2C2A28",
"5  c #2D2A28",
"6  c #2D2B28",
"7  c #2E2B28",
"8  c #2C2B2A",
"9  c #2C2B2B",
"0  c #2D2C28",
"q  c #2C2C29",
"w  c #2D2C29",
"e  c #2E2C28",
"r  c #2E2C29",
"t  c #2F2C29",
"y  c #2F2D29",
"u  c #2C2C2B",
"i  c #2D2C2B",
"p  c #2D2D2B",
"a  c #2E2C2A",
"s  c #2E2D2B",
"d  c #292A2C",
"f  c #282B2C",
"g  c #292B2C",
"h  c #292B2D",
"j  c #2A2A2C",
"k  c #2B2B2C",
"l  c #2B2B2D",
"z  c #2A2C2D",
"x  c #2B2C2D",
"c  c #2A2D2D",
"v  c #2B2D2D",
"b  c #2C2C2C",
"n  c #2D2C2C",
"m  c #2D2D2C",
"M  c #2C2C2D",
"N  c #2C2D2D",
"B  c #2D2D2D",
"V  c #2E2D2C",
"C  c #2E2D2D",
"Z  c #2D2E2C",
"A  c #2C2E2D",
"S  c #2D2E2D",
"D  c #2E2E2D",
"F  c #2F2E2D",
"G  c #2C2D2E",
"H  c #2D2D2E",
"J  c #2D2E2E",
"K  c #2D2E2F",
"L  c #2C2F2F",
"P  c gray18",
"I  c #392522",
"U  c #3A2623",
"Y  c #3A2724",
"T  c #3B2724",
"R  c #3B2725",
"E  c #382627",
"W  c #302A26",
"Q  c #322A26",
"!  c #362825",
"~  c #362926",
"^  c #372926",
"/  c #382824",
"(  c #392728",
")  c #362B2B",
"_  c #372B2B",
"`  c #302C2B",
"'  c #312C2B",
"]  c #322E2A",
"[  c #302D2D",
"{  c #322F2C",
"}  c #3B2928",
"|  c #3B2929",
" . c #30302F",
".. c #32302E",
"X. c #37312D",
"o. c #38332E",
"O. c #362E30",
"+. c #323130",
"@. c #353130",
"#. c #353230",
"$. c #343331",
"%. c #353331",
"&. c #363230",
"*. c #343332",
"=. c #353730",
"-. c #363432",
";. c #393131",
":. c #393730",
">. c #383731",
",. c #383432",
"<. c #383732",
"1. c #3A3632",
"2. c #3A3633",
"3. c #3A3934",
"4. c #3A3935",
"5. c #521B1B",
"6. c #531F1E",
"7. c #551D1D",
"8. c #561E1D",
"9. c #561F1D",
"0. c #551E1F",
"q. c #551F1F",
"w. c #571E1E",
"e. c #561F1E",
"r. c #561F1F",
"t. c #5A1D1C",
"y. c #5B1D1C",
"u. c #5A1D1D",
"i. c #5A1E1E",
"p. c #611B1B",
"a. c #4E211F",
"s. c #452421",
"d. c #452626",
"f. c #4B2220",
"g. c #4B2221",
"h. c #4B2323",
"j. c #4C2220",
"k. c #4E3538",
"l. c #4F3538",
"z. c #403C38",
"x. c #413E39",
"c. c #463C39",
"v. c #473D3A",
"b. c #483E3A",
"n. c #4A3E3A",
"m. c #4A3F3B",
"M. c #4B3F3B",
"N. c #503639",
"B. c #622A27",
"V. c #45413B",
"C. c #48413C",
"Z. c #4B403C",
"A. c #4B433E",
"S. c #4C403D",
"D. c #4C413D",
"F. c #4C433D",
"G. c #4C413E",
"H. c #4D413E",
"J. c #4E423E",
"K. c #4D443E",
"L. c #4A4A38",
"P. c #4C4A39",
"I. c #4C4B39",
"U. c #4D4B39",
"Y. c #514F3F",
"T. c #52503F",
"R. c #614B3F",
"E. c #7C4135",
"W. c #4F4640",
"Q. c #514741",
"!. c #514742",
"~. c #544742",
"^. c #534843",
"/. c #554843",
"(. c #544943",
"). c #564843",
"_. c #554844",
"`. c #554944",
"'. c #564844",
"]. c #574944",
"[. c #554A44",
"{. c #554B45",
"}. c #574C46",
"|. c #515040",
" X c #525140",
".X c #525141",
"XX c #535144",
"oX c #5A5840",
"OX c #5E5C45",
"+X c #725C58",
"@X c #745D59",
"#X c #755F5A",
"$X c #75615B",
"%X c #96474E",
"&X c #97474E",
"*X c #856864",
"=X c #876965",
"-X c #8A6B68",
";X c #8B6D69",
":X c #8D6F69",
">X c #8F706A",
",X c #88746C",
"<X c #89746C",
"1X c #8B766D",
"2X c #8C766E",
"3X c #8E786F",
"4X c #8E7970",
"5X c #8B8850",
"6X c #8C8850",
"7X c #9C9866",
"8X c #9D9966",
"9X c #AF926D",
"0X c #A6827D",
"qX c #A3867F",
"wX c #A4877F",
"eX c #A9857F",
"rX c #A19772",
"tX c #B5AF64",
"yX c #C0BA73",
"uX c #A38780",
"iX c #A88580",
"pX c #A98580",
"aX c #AC8781",
"sX c #A78980",
"dX c #A98B82",
"fX c #AE8981",
"gX c #AB8C83",
"hX c #B18A85",
"jX c #B48E89",
"kX c #B68E88",
"lX c #B68F89",
"zX c #B88F89",
"xX c #AB9085",
"cX c #AD9187",
"vX c #BA918A",
"bX c #B9998F",
"nX c #C79F98",
"mX c #CAA29A",
"MX c #CEA59C",
"NX c #CEA89E",
/* pixels */
"                                                                                                                                ",
"                                                                                                                                ",
"                                                                                                                                ",
"                                                                                                                                ",
"                                                                                                                                ",
"                                                                                                                                ",
"                                                                                                                                ",
"                                                                                                                                ",
"                                                                                                                                ",
"                                                                                                                                ",
"                                                                                                                                ",
"                                                                                                                                ",
"                                                                                                                                ",
"                                                                                                                                ",
"                                                                                                                                ",
"                                                                                                                                ",
"                                                                . . . . . .                 . . . . . .                         ",
"                                                                W.^.{.).^.W.                !.{.).).{.!.                        ",
"                                                            . W.1XuXpXpXwX1XW..         . !.4XdXeXeXdX3X!..                     ",
"                                                            . ^.qXnXlXlXmXsX)..         . {.gXMXlXlXNXxX{..                     ",
"                    % %                                     X ~.0XhX+X@XvXfX{..         . {.aXzX@X$XbXcX}..                     ",
"                    a a                                     X M.*X*Xv.M.:X>XF.X         X F.;X-Xv.C.1X2XK.X                     ",
"                % a a a a %                                 % X.M.M.$.$.F.F.1.a 6 % % 6 a 1.F.C.$.$.C.F.o.%                     ",
"                % a D D a %                                 % % X > D D > > D D a a a a D D > > D D > X % %                     ",
"                % a D D a %                                 % 6 6 D D D a a D D D D D D D D a a D D D 6 6 %                     ",
"                % a D D a %                                 a a D D D D D D D D D D D D D D D D D D D 6 6 %                     ",
"                % a D D a %                             % a a D D D D D D D D D l l D D D D D D D D l > 6 %                     ",
"                % a D D a %                             % a D D D D D D D D D 4.|.|.4.D D D D D D 4.|.Y.1.6                     ",
"                % a D D a %                             % a D D D D D D D D l |.7X7X|.l D D D D l |.7X7XT.> X %                 ",
"                % a D D a %                             % a D D D D D D D l l OXyXyXOXl l D D l l OXyXyXOX> X %                 ",
"                % a D D a %                             % a D D D D D D D v l oXtXtXoXl D D v l l oXtXtXoX> 6 %                 ",
"                % a D D a %                             % a a D D D D D D D l P.6X6XP.l v ;.N.l.O.P.5X6XP.> 6 %                 ",
"                % a D D a %                             % % a a a a a a D D D 1.P.P.1.v v N.&X&Xl.-.L.P.1.D 6 %                 ",
"                % a D D a a                             % % % % a a a a D D D D l l D D v N.&X&XN.v l l D D a %                 ",
"                % a D D D a a %                             % a a D D D D D D D D D D D D ;.N.N.;.D D D D D a %                 ",
"                % a D D D D a a                             Y ^ ] D D D D D D D D D D D D D v v D D D D D a a %                 ",
"                % a D D D D D a a % % % % % % % % % % % % Y a.j.^ a a a a a D D D D D D D D D D D D D D a a                     ",
"                % a D D D D D D a a a a a a a a a a a a a Y r.i.s.^ W % a a D D D D D D D D D D D D D a a %                     ",
"                % a D D D D D D D D D D D D D D D D D D D } r.p.i.h.^ a a D D D D D D D D D D D D D a a                         ",
"                % a a D D D D D D D D D D D D D D D D D D _ h.i.p.i.s.^ ] D D D D D D D D D D D D a a %                         ",
"                    a a D D D D D D D D D D D D D D D D D { ) d.i.p.i.h.^ a a a a a a a a a a a a a                             ",
"                    % a D D D D D D D D D D D D D D D D D D L ) h.i.p.i.s.Y Y I I I I Y Y Y Y / W %                             ",
"                    % a D D D D D D D D D D D D D D D D D D D { _ d.i.p.i.r.r.r.5.5.r.r.r.r.r.6.                                ",
"                    % a a D D D D D D D D D D D D D D D D D D D D _ h.r.r.r.r.B.E.E.B.r.r.r.r.r.                                ",
"                        a a a a D D D D D D D D D D D D D D D D D { _ } } ( Y R.9X9XR.Y ( } Y Y                                 ",
"                        % % % a D D D D D D D D D D D D D D D D D D D D D v l XXrXrXXXl v D a %                                 ",
"                            % a D D D D D D D D D D D D D D D D D D D D D D D 4.XXXX4.D D D a %                                 ",
"                            % a D D D D D D D D D D D D D D D D D D D D D D D D l l D D D D a %                                 ",
"                            % a D D D D D D D D D D D D D D D D D D D D D D D D D D D D D D a %                                 ",
"                            % a D D D D D D D D D D D D D D D D D D D D D D D D D D D D D a a %                                 ",
"                            % a D D D D D D D D D D D D D D D D D D D D D D D D D D D D a a                                     ",
"                            % a D D D D D  .$.$. .D D D D  .$.$. .D D  .$.$.+.D D D D D a %                                     ",
"                            % a D D D D D $.x.x.$.D D D D $.x.x.$.D D $.x.x.$.D D D D D a %                                     ",
"                            % a D D D D D -.V.V.-.D D D D -.V.V.-.D D -.V.V.-.D D D D D a %                                     ",
"                            % a D D D D D $.x.x.$.D D D D $.x.x.$.D D $.x.x.$.D D D D D a %                                     ",
"                            % a D D D D D  .1.1.+.D D D D  .1.1.+.D D +.1.1. .D D D D D a %                                     ",
"                            % a D D D D a a ] { D D D D a a ] { D D D D { ] a a D D D D a %                                     ",
"                            % a a D D a 6 % % 6 a D D a 6 % % 6 a D D a 6 % % a a D D a a %                                     ",
"                                a a a a % %     a a a a % %     a a a 6 % %     a a a a                                         ",
"                                % % % % % %     % % % % % %     % % % % % %     % % % %                                         ",
"                                                                                                                                ",
"                                                                                                                                ",
"                                                                                                                                ",
"                                                                                                                                "
};
