/* XPM */
static char *result[] = {
/* columns rows colors chars-per-pixel */
"64 64 212 2 ",
"   c #502639",
".  c #54243A",
"X  c #55243B",
"o  c #603A4F",
"O  c #7B3756",
"+  c #7B3757",
"@  c #753956",
"#  c #723E5B",
"$  c #614C59",
"%  c #6A485D",
"&  c #574D73",
"*  c #7D4461",
"=  c #7F4764",
"-  c #7D697E",
";  c #8E5576",
":  c #656082",
">  c #766891",
",  c #76739A",
"<  c #A66C93",
"1  c #CB6594",
"2  c #D56FA0",
"3  c #D37EAD",
"4  c #D978A8",
"5  c #DA7CAC",
"6  c #DA7CAD",
"7  c #DA7DAE",
"8  c #EF6FAA",
"9  c #F36DA6",
"0  c #F16FA7",
"q  c #F46CA6",
"w  c #F46DA6",
"e  c #F56DA6",
"r  c #F46DA7",
"t  c #F56DA7",
"y  c #F16EA9",
"u  c #F16FA9",
"i  c #F26EA8",
"p  c #F16EAB",
"a  c #F46DA8",
"s  c #F46DA9",
"d  c #F46DAA",
"f  c #F46DAB",
"g  c #EE70A7",
"h  c #E777AB",
"j  c #E873A8",
"k  c #E973A8",
"l  c #E972A9",
"z  c #E973A9",
"x  c #EC71A9",
"c  c #EF70A8",
"v  c #ED71AA",
"b  c #E378AC",
"n  c #E478AC",
"m  c #E678AC",
"M  c #E57AAC",
"N  c #E67CAE",
"B  c #F171AB",
"V  c #F270AB",
"C  c #EA7DB2",
"Z  c #F677B3",
"A  c #7E80A2",
"S  c #8486AD",
"D  c #8F8FA9",
"F  c #9B92AB",
"G  c #B983AD",
"H  c #CB84AE",
"J  c #C989B3",
"K  c #DF8DBA",
"L  c #D98DBC",
"P  c #C190BD",
"I  c #DB93BF",
"U  c #E585B3",
"Y  c #E785B7",
"T  c #EA80B3",
"R  c #E883B3",
"E  c #ED83B7",
"W  c #E78AB9",
"Q  c #E28EB8",
"!  c #F183B8",
"~  c #F289BD",
"^  c #F788BF",
"/  c #B09AC8",
"(  c #A8B0C6",
")  c #A1B1CB",
"_  c #BDA4D4",
"`  c #BDA5D5",
"'  c #BCA9D8",
"]  c #BCACDA",
"[  c #AFB6DE",
"{  c #AFB8E0",
"}  c #BCBAE5",
"|  c #BCBDE7",
" . c #D58FC2",
".. c #C79FCE",
"X. c #C69FCF",
"o. c #CE9BCA",
"O. c #D696C2",
"+. c #D793C7",
"@. c #D597C5",
"#. c #D996C2",
"$. c #D896C3",
"%. c #D199C7",
"&. c #DD98C6",
"*. c #D199C8",
"=. c #FA8FC6",
"-. c #E499C9",
";. c #FA91C7",
":. c #FC97CD",
">. c #FD97CD",
",. c #F39BCD",
"<. c #F59BCE",
"1. c #FA98CB",
"2. c #FB98CC",
"3. c #FB98CD",
"4. c #F999CE",
"5. c #F99ACE",
"6. c #FA9ACE",
"7. c #FB9ACE",
"8. c #FB9ACF",
"9. c #FA9BCF",
"0. c #FB9BCF",
"q. c #FC98CD",
"w. c #FC98CE",
"e. c #FC99CE",
"r. c #FC9ACF",
"t. c #F89FCE",
"y. c #FA9BD0",
"u. c #F99CD0",
"i. c #F99DD1",
"p. c #FA9CD0",
"a. c #FB9CD0",
"s. c #FA9DD0",
"d. c #F99ED1",
"f. c #F99FD2",
"g. c #C5A0CF",
"h. c #C3A0D0",
"j. c #F6A1D2",
"k. c #F6A2D3",
"l. c #F7A2D3",
"z. c #F7A3D4",
"x. c #F7A4D5",
"c. c #F7A5D5",
"v. c #F9A0D2",
"b. c #F8A1D3",
"n. c #FBA0D3",
"m. c #FAA3D5",
"M. c #F8A4D5",
"N. c #FBA5D7",
"B. c #F8A7D6",
"V. c #F8A7D7",
"C. c #F9A8D7",
"Z. c #FAA6D8",
"A. c #F7A8D8",
"S. c #F8A8D8",
"D. c #F9A8D9",
"F. c #F9A9D9",
"G. c #FAAAD9",
"H. c #FAABDB",
"J. c #FAACDB",
"K. c #FBACDC",
"L. c #FCACDD",
"P. c #FCADDD",
"I. c #FCAEDD",
"U. c #FCAFDE",
"Y. c #FBB0DE",
"T. c #FDB0E0",
"R. c #FCB1E0",
"E. c #FDB2E0",
"W. c #FCB3E1",
"Q. c #FBB5E2",
"!. c #FBB5E3",
"~. c #FAB6E3",
"^. c #FBB6E3",
"/. c #FAB7E3",
"(. c #FCB4E2",
"). c #FDB4E2",
"_. c #FCB5E2",
"`. c #FCB6E3",
"'. c #FAB6E4",
"]. c #FBB6E4",
"[. c #FAB7E4",
"{. c #FBB7E4",
"}. c #FCB7E4",
"|. c #F9B9E4",
" X c #FAB8E4",
".X c #FBB8E4",
"XX c #FAB9E4",
"oX c #F8BAE5",
"OX c #F9BAE5",
"+X c #F9BBE5",
"@X c #FCB8E5",
"#X c #FCB9E5",
"$X c #F8BDE6",
"%X c #B8CBE0",
"&X c #BCC7EF",
"*X c #BCC8F0",
"=X c #C4DFF4",
"-X c #FBC2E9",
";X c #FAC7EB",
":X c #F9CDED",
">X c #FBCFEE",
",X c #FBD3F1",
"<X c #FCD0F0",
"1X c #FBD5F1",
"2X c #FBD6F1",
"3X c #FBD6F2",
"4X c #FCD5F1",
"5X c #FBD8F3",
"6X c #FBD9F3",
"7X c #FCE2F9",
"8X c #FCE3F9",
"9X c #FEEBFE",
/* pixels */
"=X=X=X=X=X=X=X=X=X=X=X=X=X=X=X=X=X=X=X=X=X=X=X=X=X=X=X=X=X=X=X=X=X=X=X=X=X=X=X=X=X=X=X=X=X=X=X=X=X=X=X=X=X=X=X=X=X=X=X=X=X=X=X=X",
"=X=X=X=X=X=X=X=X=X=X=X=X=X=X=X=X=X=X=X=X=X=X=X=X=X=X=X=X=X=X=X=X=X=X=X=X=X=X=X=X=X=X=X=X=X=X=X=X=X=X=X=X=X=X=X=X=X=X=X=X=X=X=X=X",
"=X=X=X=X=X=X=X=X=X=X=X=X=X=X=X=X=X=X=X=X=X=X=X=X=X=X=X=X=X=X=X=X=X=X=X=X=X=X=X=X=X=X=X=X=X=X=X=X=X=X=X=X=X=X=X=X=X=X=X=X=X=X=X=X",
"=X=X=X=X=X=X=X=X=X=X=X=X=X=X=X=X=X=X=X=X=X=X=X=X=X=X=X=X=X=X=X=X=X=X=X=X=X=X=X=X=X=X=X=X=X=X=X=X=X=X=X=X=X=X=X=X=X=X=X=X=X=X=X=X",
"=X=X=X=X=X=X=X=X=X=X=X=X=X=X=X=X=X=X=X=X=X=X=X=X=X=X=X=X=X=X=X=X=X=X=X=X=X=X=X=X=X=X=X=X=X=X=X=X=X=X=X=X=X=X=X=X=X=X=X=X=X=X=X=X",
"=X=X=X=X=X=X=X=X=X=X=X=X=X=X=X=X=X=X=X=X=X=X=X=X=X=X=X=X=X=X=X=X=X=X=X=X=X=X=X=X=X=X=X=X=X=X=X=X=X=X=X=X=X=X=X=X=X=X=X=X=X=X=X=X",
"=X=X=X=X=X=X=X=X=X=X=X=X=X=X=X=X=X=X=X=X=X=X=X=X=X=X=X=X=X=X=X=X=X=X=X=X=X=X=X=X=X=X=X=X=X=X=X=X=X=X=X=X=X=X=X=X=X=X=X=X=X=X=X=X",
"=X=X=X=X=X=X=X=X=X=X=X=X=X=X=X=X=X=X=X=X=X=X=X=X=X=X=X=X=X=X=X=X=X=X=X=X=X=X=X=X=X=X=X=X=X=X=X=X=X=X=X=X=X=X=X=X=X=X=X=X=X=X=X=X",
"=X=X=X=X=X=X=X=X=X=X=X=X=X=X=X=X=X=X=X=X=X=X=X=X=X=X=X=X=X=X=X=X=X=X=X=X=X=X=X=X=X=X=X=X=X=X=X=X=X=X=X=X=X=X=X=X=X=X=X=X=X=X=X=X",
"=X=X=X=X=X=X=X=X=X=X=X=X=X=X=X=X=X=X=X=X=X=X=X=X=X=X=X=X=X=X=X=X=X=X=X=X=X=X=X=X=X=X=X=X=X=X=X=X=X=X=X=X=X=X=X=X=X=X=X=X=X=X=X=X",
"=X=X=X=X=X=X=X=X=X=X=X=X=X=X=X=X=X=X=X=X=X=X=X=X=X=X=X=X=X=X=X=X=X=X=X=X=X=X=X=X=X=X=X=X=X=X=X=X=X=X=X=X=X=X=X=X=X=X=X=X=X=X=X=X",
"=X=X=X=X=X=X=X=X=X=X=X=X=X=X=X=X=X=X=X=X=X=X=X=X=X=X=X=X=X=X=X=X=X=X=X=X=X=X=X=X=X=X=X=X=X=X=X=X=X=X=X=X=X=X=X=X=X=X=X=X=X=X=X=X",
"=X=X=X=X=X=X=X=X=X=X=X=X=X=X=X=X=X=X=X=X=X=X=X=X=X=X=X=X=X=X=X=X=X=X=X=X=X=X=X=X=X=X=X=X=X=X=X=X=X=X=X=X=X=X=X=X=X=X=X=X=X=X=X=X",
"=X=X=X=X=X=X=X=X=X=X=X=X=X=X=X=X=X=X=X=X=X=X=X=X=X=X=X=X=X=X=X=X=X=X=X=X=X=X=X=X=X=X=X=X=X=X=X=X=X=X=X=X=X=X=X=X=X=X=X=X=X=X=X=X",
"=X=X=X=X=X=X=X=X=X=X=X=X=X=X=X=X=X=X=X=X=X=X=X=X=X=X=X=X=X=X=X=X=X=X=X=X=X=X=X=X=X=X=X=X=X=X=X=X=X=X=X=X=X=X=X=X=X=X=X=X=X=X=X=X",
"=X=X=X=X=X=X=X=X=X=X=X=X=X=X=X=X=X=X=X=X=X=X=X=X=X=X=X=X=X=X=X=X=X=X=X=X=X=X=X=X=X=X=X=X=X=X=X=X=X=X=X=X=X=X=X=X=X=X=X=X=X=X=X=X",
"=X=X=X=X=X=X=X=X=X=X=X=X=X=X=X=X=X=X=X=X=X=X=X=X=X=X=X=X=X=X=X=X=X=X=X=X=X=X=X=X=X=X=X=X=X=X=X=X=X=X=X=X=X=X=X=X=X=X=X=X=X=X=X=X",
"=X=X=X=X=X=X=X=X=X=X=X=X=X=X=X=X=X=X=X=X=X=X=X=X=X=X=X=X=X=X=X=X=X=X=X=X=X=X=X=X=X=X=X=X=X=X=X=X=X=X=X=X=X=X=X=X=X=X=X=X=X=X=X=X",
"=X=X=X=X=X=X=X=X=X=X=X=X=X=X=X=X=X=X=X=X=X=X=X=X=X=X=X=X=X=X=X=X=X=X=X=X=X=X=X=X=X=X=X=X=X=X=X=X=X=X=X=X=X=X=X=X=X=X=X=X=X=X=X=X",
"=X=X=X=X=X=X=X=X=X=X=X=X=X=X=X=X=X=X=X=X=X=X=X=XX X X X - =X=X=X=X=X=X=XX X X & =X=X=X=X=X=X=X=X=X=X=X=X=X=X=X=X=X=X=X=X=X=X=X=X",
"=X=X=X=X=X=X=X=X=X=X=X=X=X=X=X=X=X=X=X=X=X=X% X 0 i 0 M < X =X=X=X=X=XX h 0 8 @.& : =X=X=X=X=X=X=X=X=X=X=X=X=X=X=X=X=X=X=X=X=X=X",
"=X=X=X=X=X=X=X=X=X=X=X=X=X=X=X=X=X=X=X=X=XF 2 b.S.n.j.3.W Q # ( =X( O Z :.:.8.d u P ) =X=X=X=X=X=X=X=X=X=X=X=X=X=X=X=X=X=X=X=X=X",
"=X=X=X=X=X=X=X=X=X=X=X=X=X=X=X=X=X=X=X=X=X* K.). X/.Q.L.m.d N G % 1 ;.w.P.I.i.=.w 3 A =X=X=X=X=X=X=X=X=X=X=X=X=X=X=X=X=X=X=X=X=X",
"=X=X=X=X=X=X=X=X=X=X=X=X=X=X=X=X=X=X=X=XX C U.,X2X5X~.}.H.r.f o.X 2.B.(.Q.[.R.a.V 6 > =X=X=X=X=X=X=X=X=X=X=X=X=X=X=X=X=X=X=X=X=X",
"=X=X=X=X=X=X=X=X=X=X=X=X=X=X=X=X=X=X=X=XX t.>X9X9X9X4XQ.Q.,.s.f z X E.;X4XXX.X8.>.5 | & =X=X=X=X=X=X=X=X=X=X=X=X=X=X=X=X=X=X=X=X",
"=X=X=X=X=X=X=X=X=X=X=X=X=X=X=X=X=X=X=X=XX x.8X9X9X9X1XQ.^.`.p.u.l X oX7X6X$X^.9.>.b | & =X=X=X=X=X=X=X=X=X=X=X=X=X=X=X=X=X=X=X=X",
"=X=X=X=X=X=X=X=X=X=X=X=X=X=X=X=X=X=X=X=XX V.8X9X9X9X3XW.Q. X[.y.v.W.$X5X[.@X!.0.>.n | & =X=X=X=X=X=X=X=X=X=X=X=X=X=X=X=X=X=X=X=X",
"=X=X=X=X=X=X=X=X=X=X=X=X=X=X=X=X=X=X=X=XX A.8X9X9X X[.[.[.[.[.~.[.[.[.[.'.#XQ.3.3.m | & =X=X=X=X=X=X=X=X=X=X=X=X=X=X=X=X=X=X=X=X",
"=X=X=X=X=X=X=X=X=X=X=X=X=X=X=X=X=X=X=X=XX c.-X:X+X X[.[.[.[.[.[.[.[.[.[.'.@XJ.q.^ b | & =X=X=X=X=X=X=X=X=X=X=X=X=X=X=X=X=X=X=X=X",
"=X=X=X=X=X=X=X=X=X=X=X=X=X=X=X=X=X=X=X=XX ,.Y.<X9X X[.[.[.[.[.[.[.[.[.'.'.[.5.q.s 5 | & =X=X=X=X=X=X=X=X=X=X=X=X=X=X=X=X=X=X=X=X",
"=X=X=X=X=X=X=X=X=X=X=X=X=X=X=X=X=X=X=X=XX Y ^.OX|.[.[.[.[.[.[.[.[.[.[.'. Xz.q.y e K , =X=X=X=X=X=X=X=X=X=X=X=X=X=X=X=X=X=X=X=X=X",
"=X=X=X=X=X=X=X=X=X=X=X=X=X=X=X=X=X=X=X=XX E '.].#X[.[.[.[.[.[.[.[.[.[.[.~.f.:.e e J , =X=X=X=X=X=X=X=X=X=X=X=X=X=X=X=X=X=X=X=X=X",
"=X=X=X=X=X=X=X=X=X=X=X=X=X=X=X=X=X=X=X=X=X= ~.[.~.[.[.[.~.[.[.[.[.[.[.{.l.d.>.q g ' , =X=X=X=X=X=X=X=X=X=X=X=X=X=X=X=X=X=X=X=X=X",
"=X=X=X=X=X=X=X=X=X=X=X=X=X=X=X=X=X=X=X=X=X+ M.Q.Q.[.[.[.[.[.[.[.[.[.[.G.p.e.B e R / ) =X=X=X=X=X=X=X=X=X=X=X=X=X=X=X=X=X=X=X=X=X",
"=X=X=X=X=X=X=X=X=X=X=X=X=X=X=X=X=X=X=X=X=X@ c >.C.!.~.^..X[.[.'. X_.T.0.p.9 d U X.[ ) =X=X=X=X=X=X=X=X=X=X=X=X=X=X=X=X=X=X=X=X=X",
"=X=X=X=X=X=X=X=X=X=X=X=X=X=X=X=X=X=X=X=X=X%X; p ~ Z.D.F. X~.~.[.[.N.5.6.! w d ..] S =X=X=X=X=X=X=X=X=X=X=X=X=X=X=X=X=X=X=X=X=X=X",
"=X=X=X=X=X=X=X=X=X=X=X=X=X=X=X=X=X=X=X=X=X=X$ #.f j p.5.c.^.{.k.<.5.:.c v e -.` *X: =X=X=X=X=X=X=X=X=X=X=X=X=X=X=X=X=X=X=X=X=X=X",
"=X=X=X=X=X=X=X=X=X=X=X=X=X=X=X=X=X=X=X=X=X=X=XX I x r :.6.7.8.8.f.s.r t e O.h.*X& =X=X=X=X=X=X=X=X=X=X=X=X=X=X=X=X=X=X=X=X=X=X=X",
"=X=X=X=X=X=X=X=X=X=X=X=X=X=X=X=X=X=X=X=X=X=X=X=X. %.e f w.r.r.7.4.a q q q *.` & =X=X=X=X=X=X=X=X=X=X=X=X=X=X=X=X=X=X=X=X=X=X=X=X",
"=X=X=X=X=X=X=X=X=X=X=X=X=X=X=X=X=X=X=X=X=X=X=X=X=XX k q s >.1.f w e e d $.` *X& =X=X=X=X=X=X=X=X=X=X=X=X=X=X=X=X=X=X=X=X=X=X=X=X",
"=X=X=X=X=X=X=X=X=X=X=X=X=X=X=X=X=X=X=X=X=X=X=X=X=X=X  &.0 e e a e q 4 g.` *X& =X=X=X=X=X=X=X=X=X=X=X=X=X=X=X=X=X=X=X=X=X=X=X=X=X",
"=X=X=X=X=X=X=X=X=X=X=X=X=X=X=X=X=X=X=X=X=X=X=X=X=X=X=Xo H 7 0 e f T _ } { : =X=X=X=X=X=X=X=X=X=X=X=X=X=X=X=X=X=X=X=X=X=X=X=X=X=X",
"=X=X=X=X=X=X=X=X=X=X=X=X=X=X=X=X=X=X=X=X=X=X=X=X=X=X=X=XD |  .L +.| &X, ) =X=X=X=X=X=X=X=X=X=X=X=X=X=X=X=X=X=X=X=X=X=X=X=X=X=X=X",
"=X=X=X=X=X=X=X=X=X=X=X=X=X=X=X=X=X=X=X=X=X=X=X=X=X=X=X=X=X& & *X*X& & =X=X=X=X=X=X=X=X=X=X=X=X=X=X=X=X=X=X=X=X=X=X=X=X=X=X=X=X=X",
"=X=X=X=X=X=X=X=X=X=X=X=X=X=X=X=X=X=X=X=X=X=X=X=X=X=X=X=X=X=X=X& & =X=X=X=X=X=X=X=X=X=X=X=X=X=X=X=X=X=X=X=X=X=X=X=X=X=X=X=X=X=X=X",
"=X=X=X=X=X=X=X=X=X=X=X=X=X=X=X=X=X=X=X=X=X=X=X=X=X=X=X=X=X=X=X=X=X=X=X=X=X=X=X=X=X=X=X=X=X=X=X=X=X=X=X=X=X=X=X=X=X=X=X=X=X=X=X=X",
"=X=X=X=X=X=X=X=X=X=X=X=X=X=X=X=X=X=X=X=X=X=X=X=X=X=X=X=X=X=X=X=X=X=X=X=X=X=X=X=X=X=X=X=X=X=X=X=X=X=X=X=X=X=X=X=X=X=X=X=X=X=X=X=X",
"=X=X=X=X=X=X=X=X=X=X=X=X=X=X=X=X=X=X=X=X=X=X=X=X=X=X=X=X=X=X=X=X=X=X=X=X=X=X=X=X=X=X=X=X=X=X=X=X=X=X=X=X=X=X=X=X=X=X=X=X=X=X=X=X",
"=X=X=X=X=X=X=X=X=X=X=X=X=X=X=X=X=X=X=X=X=X=X=X=X=X=X=X=X=X=X=X=X=X=X=X=X=X=X=X=X=X=X=X=X=X=X=X=X=X=X=X=X=X=X=X=X=X=X=X=X=X=X=X=X",
"=X=X=X=X=X=X=X=X=X=X=X=X=X=X=X=X=X=X=X=X=X=X=X=X=X=X=X=X=X=X=X=X=X=X=X=X=X=X=X=X=X=X=X=X=X=X=X=X=X=X=X=X=X=X=X=X=X=X=X=X=X=X=X=X",
"=X=X=X=X=X=X=X=X=X=X=X=X=X=X=X=X=X=X=X=X=X=X=X=X=X=X=X=X=X=X=X=X=X=X=X=X=X=X=X=X=X=X=X=X=X=X=X=X=X=X=X=X=X=X=X=X=X=X=X=X=X=X=X=X",
"=X=X=X=X=X=X=X=X=X=X=X=X=X=X=X=X=X=X=X=X=X=X=X=X=X=X=X=X=X=X=X=X=X=X=X=X=X=X=X=X=X=X=X=X=X=X=X=X=X=X=X=X=X=X=X=X=X=X=X=X=X=X=X=X",
"=X=X=X=X=X=X=X=X=X=X=X=X=X=X=X=X=X=X=X=X=X=X=X=X=X=X=X=X=X=X=X=X=X=X=X=X=X=X=X=X=X=X=X=X=X=X=X=X=X=X=X=X=X=X=X=X=X=X=X=X=X=X=X=X",
"=X=X=X=X=X=X=X=X=X=X=X=X=X=X=X=X=X=X=X=X=X=X=X=X=X=X=X=X=X=X=X=X=X=X=X=X=X=X=X=X=X=X=X=X=X=X=X=X=X=X=X=X=X=X=X=X=X=X=X=X=X=X=X=X",
"=X=X=X=X=X=X=X=X=X=X=X=X=X=X=X=X=X=X=X=X=X=X=X=X=X=X=X=X=X=X=X=X=X=X=X=X=X=X=X=X=X=X=X=X=X=X=X=X=X=X=X=X=X=X=X=X=X=X=X=X=X=X=X=X",
"=X=X=X=X=X=X=X=X=X=X=X=X=X=X=X=X=X=X=X=X=X=X=X=X=X=X=X=X=X=X=X=X=X=X=X=X=X=X=X=X=X=X=X=X=X=X=X=X=X=X=X=X=X=X=X=X=X=X=X=X=X=X=X=X",
"=X=X=X=X=X=X=X=X=X=X=X=X=X=X=X=X=X=X=X=X=X=X=X=X=X=X=X=X=X=X=X=X=X=X=X=X=X=X=X=X=X=X=X=X=X=X=X=X=X=X=X=X=X=X=X=X=X=X=X=X=X=X=X=X",
"=X=X=X=X=X=X=X=X=X=X=X=X=X=X=X=X=X=X=X=X=X=X=X=X=X=X=X=X=X=X=X=X=X=X=X=X=X=X=X=X=X=X=X=X=X=X=X=X=X=X=X=X=X=X=X=X=X=X=X=X=X=X=X=X",
"=X=X=X=X=X=X=X=X=X=X=X=X=X=X=X=X=X=X=X=X=X=X=X=X=X=X=X=X=X=X=X=X=X=X=X=X=X=X=X=X=X=X=X=X=X=X=X=X=X=X=X=X=X=X=X=X=X=X=X=X=X=X=X=X",
"=X=X=X=X=X=X=X=X=X=X=X=X=X=X=X=X=X=X=X=X=X=X=X=X=X=X=X=X=X=X=X=X=X=X=X=X=X=X=X=X=X=X=X=X=X=X=X=X=X=X=X=X=X=X=X=X=X=X=X=X=X=X=X=X",
"=X=X=X=X=X=X=X=X=X=X=X=X=X=X=X=X=X=X=X=X=X=X=X=X=X=X=X=X=X=X=X=X=X=X=X=X=X=X=X=X=X=X=X=X=X=X=X=X=X=X=X=X=X=X=X=X=X=X=X=X=X=X=X=X",
"=X=X=X=X=X=X=X=X=X=X=X=X=X=X=X=X=X=X=X=X=X=X=X=X=X=X=X=X=X=X=X=X=X=X=X=X=X=X=X=X=X=X=X=X=X=X=X=X=X=X=X=X=X=X=X=X=X=X=X=X=X=X=X=X",
"=X=X=X=X=X=X=X=X=X=X=X=X=X=X=X=X=X=X=X=X=X=X=X=X=X=X=X=X=X=X=X=X=X=X=X=X=X=X=X=X=X=X=X=X=X=X=X=X=X=X=X=X=X=X=X=X=X=X=X=X=X=X=X=X",
"=X=X=X=X=X=X=X=X=X=X=X=X=X=X=X=X=X=X=X=X=X=X=X=X=X=X=X=X=X=X=X=X=X=X=X=X=X=X=X=X=X=X=X=X=X=X=X=X=X=X=X=X=X=X=X=X=X=X=X=X=X=X=X=X"
};
