/* XPM */
static char *result[] = {
/* columns rows colors chars-per-pixel */
"64 64 169 2 ",
"   c #24221E",
".  c #392E1D",
"X  c #342B1E",
"o  c #3E311E",
"O  c #272422",
"+  c #292622",
"@  c #2D2A27",
"#  c #2B2A28",
"$  c #322C24",
"%  c #382F23",
"&  c #322E28",
"*  c #3D3323",
"=  c #36312A",
"-  c #3A332A",
";  c #373431",
":  c #423117",
">  c #433219",
",  c #49361B",
"<  c #593D13",
"1  c #543D1A",
"2  c #573A11",
"3  c #413423",
"4  c #4E3B21",
"5  c #41392D",
"6  c #483B28",
"7  c #453D33",
"8  c #59411E",
"9  c #6A450E",
"0  c #7B4B05",
"q  c #774B09",
"w  c #64461A",
"e  c #66481C",
"r  c #6B4A1A",
"t  c #765017",
"y  c #76511C",
"u  c #584221",
"i  c #5F4929",
"p  c #4A4134",
"a  c #4B443C",
"s  c #614720",
"d  c #664B23",
"f  c #6A4E23",
"g  c #604929",
"h  c #745323",
"j  c #6B5637",
"k  c #62533F",
"l  c #6A5639",
"z  c #745E3E",
"x  c #4A4641",
"c  c #4E4943",
"v  c #514C46",
"b  c #544F49",
"n  c #56524C",
"m  c #58534D",
"M  c #5F584F",
"N  c #5A5651",
"B  c #5B5650",
"V  c #625440",
"C  c #61574A",
"Z  c #645B4D",
"A  c #6C5E4A",
"S  c #6C5C45",
"D  c #695E51",
"F  c #756043",
"G  c #7B674A",
"H  c #7A6649",
"J  c #666058",
"K  c #736C62",
"L  c #777067",
"P  c #777068",
"I  c #7A736B",
"U  c #834E02",
"Y  c #855003",
"T  c #805009",
"R  c #8F5300",
"E  c #925500",
"W  c #8B5912",
"Q  c #9F6108",
"!  c #8E672D",
"~  c #8E682F",
"^  c #9F6D24",
"/  c #8A6939",
"(  c #9B7133",
")  c #A46F23",
"_  c #AA772E",
"`  c #AC6F3E",
"'  c #A27636",
"]  c #AE7B32",
"[  c #A67438",
"{  c #AD703F",
"}  c #A67C3E",
"|  c #876D47",
" . c #97774A",
".. c #AD7040",
"X. c #847B6F",
"o. c #817569",
"O. c #927E64",
"+. c #847B70",
"@. c #C36251",
"#. c #9F8053",
"$. c #AD874F",
"%. c #AF8850",
"&. c #A88553",
"*. c #B18E5A",
"=. c #B78F56",
"-. c #B89057",
";. c #B4905C",
":. c #9A866A",
">. c #9B8668",
",. c #8C847B",
"<. c #918677",
"1. c #988B7B",
"2. c #AF9777",
"3. c #A6947A",
"4. c #B09776",
"5. c #BFA176",
"6. c #C2A070",
"7. c #C3A479",
"8. c #8E8880",
"9. c #958D84",
"0. c #988F84",
"q. c #9B9084",
"w. c #9C9389",
"e. c #A19687",
"r. c #A39689",
"t. c #A69B8C",
"y. c #AC9E8E",
"u. c #AA9880",
"i. c #B39E82",
"p. c #ADA194",
"a. c #AEA499",
"s. c #B2A596",
"d. c #B4AA9E",
"f. c #BDAE9C",
"g. c #B4ABA0",
"h. c #B9AEA2",
"j. c #BDB2A5",
"k. c #BEB4A9",
"l. c #C7AD88",
"z. c #C1B29E",
"x. c #CFB695",
"c. c #D5BB99",
"v. c #D2B896",
"b. c #C4B5A3",
"n. c #CAB9A4",
"m. c #C2B6A9",
"M. c #C4B9AC",
"N. c #CBBDAB",
"B. c #C8B7A5",
"V. c #D2BEA3",
"C. c #CBBEB0",
"Z. c #CFC0AF",
"A. c #D5C1A5",
"S. c #D4C3AD",
"D. c #D9C6AF",
"F. c #CDC1B2",
"G. c #D3C4B5",
"H. c #DCC9B2",
"J. c #D7CABD",
"K. c #DACDBE",
"L. c #DED0BE",
"P. c #E0D0BE",
"I. c #DCCFC1",
"U. c #DED1C2",
"Y. c #E2D5C5",
"T. c #E3D7C8",
"R. c #E6D9CA",
"E. c #E9DCCD",
"W. c None",
/* pixels */
"W.W.W.W.W.W.W.W.W.W.W.W.W.W.W.W.W.W.W.W.W.W.W.W.W.W.W.W.W.W.W.W.W.W.W.W.W.W.W.W.W.W.W.W.W.W.W.W.W.W.W.W.W.W.W.W.W.W.W.W.W.W.W.W.",
"W.W.W.W.W.W.W.W.W.W.W.W.W.W.W.W.W.W.W.W.W.W.W.W.W.W.W.W.W.W.W.W.W.W.W.W.W.W.W.W.W.W.W.W.W.W.W.W.W.W.W.W.W.W.W.W.W.W.W.W.W.W.W.W.",
"W.W.W.W.W.W.W.W.W.W.W.W.W.W.W.W.W.W.W.W.W.W.W.W.W.W.W.W.W.W.W.W.W.W.W.W.W.W.W.W.W.W.W.W.W.W.W.W.W.W.W.W.W.W.W.W.W.W.W.W.W.W.W.W.",
"W.W.W.W.W.W.W.W.W.W.W.W.W.W.W.W.W.W.W.W.W.W.W.W.W.W.W.W.W.W.W.W.W.W.W.W.W.W.W.W.W.W.W.W.W.W.W.W.W.W.W.W.W.W.W.W.W.W.W.W.W.W.W.W.",
"W.W.W.W.W.W.W.W.W.W.W.W.W.W.W.W.W.W.W.W.W.W.W.W.W.W.W.W.W.W.W.W.W.W.W.W.W.W.W.W.W.W.W.W.W.W.W.W.W.W.W.W.W.W.W.W.W.W.W.W.W.W.W.W.",
"W.W.W.W.W.W.W.W.W.W.W.W.W.W.W.W.W.W.W.W.W.W.W.W.W.W.W.W.W.W.W.W.W.W.W.W.W.W.W.W.W.W.W.W.W.W.W.W.W.W.W.W.W.W.W.W.W.W.W.W.W.W.W.W.",
"W.W.W.W.W.W.W.W.W.W.W.W.W.W.W.W.W.W.W.W.W.W.W.W.W.W.W.W.W.W.W.W.W.W.W.W.W.W.W.W.W.W.W.W.W.W.W.W.W.W.W.W.W.W.W.W.W.W.W.W.W.W.W.W.",
"W.W.W.W.W.W.W.W.W.W.W.W.W.W.W.W.W.W.W.W.W.W.W.W.W.W.W.W.W.W.W.W.W.W.W.W.W.W.W.W.W.W.W.W.W.W.W.W.W.W.W.W.W.W.W.W.W.W.W.W.W.W.W.W.",
"W.W.W.W.W.W.W.W.W.W.W.W.W.W.W.W.W.W.W.W.W.W.W.W.W.W.W.W.W.W.W.W.W.W.W.W.W.W.W.W.W.W.W.W.W.W.W.W.W.W.W.W.W.W.W.W.W.W.W.W.W.W.W.W.",
"W.W.W.W.W.W.W.W.W.W.W.W.W.W.W.W.W.W.W.W.W.W.W.W.W.W.W.W.W.W.W.W.W.W.W.W.W.W.W.W.W.W.W.W.W.W.W.W.W.W.W.W.W.W.W.W.W.W.W.W.W.W.W.W.",
"W.W.W.W.W.W.W.W.W.W.W.W.W.W.W.W.W.W.W.W.W.W.W.W.W.W.W.W.W.W.W.W.W.W.W.W.W.W.W.W.W.W.W.W.W.W.W.W.W.W.W.W.W.W.W.W.W.W.W.W.W.W.W.W.",
"W.W.W.W.W.W.W.W.W.W.W.W.W.W.W.W.W.W.W.W.W.W.W.W.W.W.W.W.W.W.W.W.W.W.W.W.W.W.W.W.W.W.W.W.W.W.W.W.W.W.W.W.W.W.W.W.W.W.W.W.W.W.W.W.",
"W.W.W.W.W.W.W.W.W.W.W.W.W.W.W.W.W.W.W.W.W.W.W.W.W.W.W.W.W.W.W.W.W.W.W.W.W.W.W.W.W.W.W.W.W.W.W.W.W.W.W.W.W.W.W.W.W.W.W.W.W.W.W.W.",
"W.W.W.W.W.W.W.W.W.W.W.W.W.W.W.W.W.W.W.W.W.W.W.W.W.W.W.W.W.W.W.W.W.W.W.W.W.W.W.W.W.W.W.W.W.W.W.W.W.W.W.W.W.W.W.W.W.W.W.W.W.W.W.W.",
"W.W.W.W.W.W.W.W.W.W.W.W.W.W.W.W.W.W.W.W.W.W.W.W.W.W.W.W.W.W.W.W.W.W.W.W.W.W.W.W.W.W.W.W.W.W.W.W.W.W.W.W.W.W.W.W.W.W.W.W.W.W.W.W.",
"W.W.W.W.W.W.W.W.W.W.W.W.W.W.W.W.W.W.W.W.W.W.W.W.W.W.W.W.W.W.W.W.W.W.W.W.W.W.W.W.W.W.W.W.W.W.W.W.W.W.W.W.W.W.W.W.W.W.W.W.W.W.W.W.",
"W.W.W.W.W.W.W.W.W.W.W.W.W.W.W.W.W.W.W.W.W.W.W.W.W.W.W.W.W.W.W.W.W.W.W.W.W.W.W.W.W.W.W.W.W.W.W.W.W.W.W.W.W.W.W.W.W.W.W.W.W.W.W.W.",
"W.W.W.W.W.W.W.W.W.W.W.W.W.W.W.W.W.W.W.W.W.W.W.W.W.W.W.W.W.W.W.W.W.W.W.W.W.W.W.W.W.W.W.W.W.W.W.W.W.W.W.W.W.W.W.W.W.W.W.W.W.W.W.W.",
"W.W.W.W.W.W.W.W.W.W.W.W.W.W.W.W.W.W.W.W.W.W.W.W.W.W.W.W.W.W.W.W.@ @ @ @ @ @ W.W.W.W.W.W.W.W.@ @ # # @ @ W.W.W.W.W.W.W.W.W.W.W.W.",
"W.W.W.W.W.W.W.W.W.W.W.W.W.W.W.W.W.W.W.W.W.W.W.W.W.W.W.W.W.W.W.W.& = & @ & = W.W.W.W.W.W.W.W.3 - - * * % W.W.W.W.W.W.W.W.W.W.W.W.",
"W.W.W.W.@ @ W.W.W.W.W.W.W.W.W.W.W.W.W.W.W.W.W.W.W.W.W.W.W.W.@ & = = - * - = $ @ W.W.W.W.@ * u d d s 1 , % @ W.W.W.W.W.W.W.W.W.W.",
"W.W.W.W.* * W.W.W.W.W.W.W.W.W.W.W.W.W.W.W.W.W.W.W.W.W.W.W.W.@ & = - - = - - $ # W.W.W.W.@ - f h f e w 1 * # W.W.W.W.W.W.W.W.W.W.",
"W.W.# * 8 8 * @ W.W.W.W.W.W.W.W.W.W.W.W.W.W.W.W.W.W.W.W.W.W.@ & - = = = = = & @ W.W.W.W.@ 3 e f 4 3 1 1 % # W.W.W.W.W.W.W.W.W.W.",
"W.W.@ 3 r e * # W.W.W.W.W.W.W.W.W.W.W.W.W.W.W.W.W.W.W.W.W.W.@ & = = & $ = = = & W.W.W.W.X 3 u 8 3 * , , % @ W.W.W.W.W.W.W.W.W.W.",
"W.W.@ 3 e e 3 # W.W.W.W.W.W.W.W.W.W.W.W.W.W.W.W.W.W.W.W.W.W.@ & @ $ = = $ & = = @ O O X , , o o , , * % & $ W.W.W.W.W.W.W.W.W.W.",
"W.W.@ * w r 4 * W.W.W.W.W.W.W.W.W.W.W.W.W.W.W.W.W.W.W.W.W.W.@ @ $ = - - = $ - 7 v m m C F z C M F j 6 X @ @ W.W.W.W.W.W.W.W.W.W.",
"W.W.@ * w t r 8 * # W.W.W.W.W.W.W.W.W.W.W.W.W.W.W.W.W.W.W.W.@ $ = - - - = = 5 Z q.d.d.d.f.f.f.j.z.3.j : $ @ W.W.W.W.W.W.W.W.W.W.",
"W.W.@ * 8 r t r 4 * W.W.W.W.W.W.W.W.W.W.W.W.W.W.W.W.W.W.W.W.& = = - - - 5 p Z <.S.E.R.R.R.R.Y.R.R.N.>.j - + W.W.W.W.W.W.W.W.W.W.",
"W.W.W.W.* 4 r t e 8 * # W.W.W.W.W.W.W.W.W.W.W.W.W.W.W.W.@ & = - - - - - 5 Z e.N.U.R.R.T.T.T.Y.T.T.P.S.1.a O W.W.W.W.W.W.W.W.W.W.",
"W.W.W.W.# * 8 r t w * # W.W.W.W.W.W.W.W.W.W.W.W.W.W.W.W.@ & - - 5 - - p Z <.C.P.N.N.K.T.T.Y.T.T.T.K.S.y.K b W.W.W.W.W.W.W.W.W.W.",
"W.W.W.W.W.W.* 4 r w * O W.W.W.W.W.W.W.W.W.W.W.W.W.W.W.W.@ & = - - - 5 Z r.N.U.N.:.:.N.R.T.T.T.R.R.N.:.O.y.w.n O W.W.W.W.W.W.W.W.",
"W.W.W.W.W.W.# * w h V n W.W.W.W.W.W.W.W.W.W.W.W.W.W.W.W.@ & - 5 5 a D <.N.E.R.z.F F i.A.V.V.V.A.A.i.F G b.h.N # W.W.W.W.W.W.W.W.",
"W.W.W.W.W.W.# o w / u.w.n + W.W.W.W.W.W.W.W.W.W.W.W.W.W.@ = 7 p p D t.F.U.R.R.f.S i  .;.;.*.*.;.;. .i A j.h.m + W.W.W.W.W.W.W.W.",
"W.W.W.W.W.W.@ * 1 | n.h.n O W.W.W.W.W.W.W.W.W.W.W.W.W.W.@ = 5 7 5 Z q.m.J.T.R.f.H d ! ' ' [ { { [ ! f G b.h.m + W.W.W.W.W.W.W.W.",
"W.W.W.W.W.W.W.W.. A j.d.m   W.W.W.W.W.W.W.W.W.W.W.W.W.W.@ & & = = - x I b.R.R.n.&.! ( ' ' ..@.@...( ! &.V.h.m O W.W.W.W.W.W.W.W.",
"W.W.W.W.W.W.W.W.O m h.M.I v W.W.W.W.W.W.W.W.W.W.W.W.W.W.@ @ # ; v m n I m.R.R.D.7.%.} ' ' ..@.@.{ } %.7.H.h.m + W.W.W.W.W.W.W.W.",
"W.W.W.W.W.W.W.W.+ n d.U.M.q.v   W.W.W.W.W.W.W.W.W.W.W.W.W.W.# c 9.j.j.k.L.T.T.L.D.l.$.( ' ' { { ' $.l.H.R.d.m + W.W.W.W.W.W.W.W.",
"W.W.W.W.W.W.W.W.+ m d.R.E.b.I v W.W.W.W.W.W.W.W.W.W.W.W.W.W.> k 1.j.j.j.d.j.J.T.R.S.5.*.*.*.*.*.*.5.H.U.m.q.v # W.W.W.W.W.W.W.W.",
"W.W.W.W.W.W.W.W.+ m d.R.R.K.m.0.v   O + + O + + + + + O # > 9 y k N N m n L j.R.R.L.S.V.V.V.A.n.n.S.R.m.I v W.W.W.W.W.W.W.W.W.W.",
"W.W.W.W.W.W.W.W.+ m d.R.R.T.R.m.I b n m m m n m n m m n m l W U < o + & a I m.R.R.T.R.R.R.R.R.T.R.U.b.0.c   W.W.W.W.W.W.W.W.W.W.",
"W.W.W.W.W.W.W.W.+ n d.E.R.Y.R.K.j.d.d.d.d.d.d.d.d.d.d.d.g.4.) E Y 9 X x 9.M.I.R.R.R.R.R.R.R.R.E.E.m.I v W.W.W.W.W.W.W.W.W.W.W.W.",
"W.W.W.W.W.W.W.W.+ n q.m.J.Y.Y.Y.T.R.R.R.Y.R.R.Y.T.R.T.R.E.A.-.) Q U 2 k q.j.h.d.d.g.d.d.g.g.g.h.h.0.v   W.W.W.W.W.W.W.W.W.W.W.W.",
"W.W.W.W.W.W.W.W.W.W.v L m.R.T.Y.Y.R.Y.Y.T.Y.Y.T.Y.T.T.T.T.P.A.6.) R T y k m N n n n n N n n n m n v W.W.W.W.W.W.W.W.W.W.W.W.W.W.",
"W.W.W.W.W.W.W.W.W.W.  b d.R.R.Y.Y.Y.Y.Y.Y.Y.Y.Y.Y.Y.Y.Y.Y.Y.R.A.-.) Q Y 2 : . > > > : > > > , 3 $ O W.W.W.W.W.W.W.W.W.W.W.W.W.W.",
"W.W.W.W.W.W.W.W.W.W.O n d.E.R.R.Y.Y.Y.Y.Y.P.Y.Y.Y.Y.Y.U.Y.Y.T.L.A.6.) R U 0 q 0 0 0 q 0 0 0 0 q W.W.W.W.W.W.W.W.W.W.W.W.W.W.W.W.",
"W.W.W.W.W.W.W.W.W.W.+ n q.f.d.b.J.Y.Y.Y.Y.Y.Y.Y.U.Y.Y.Y.Y.Y.Y.Y.R.A.=._ _ _ ] ) W W ) ] ] ) W T W.W.W.W.W.W.W.W.W.W.W.W.W.W.W.W.",
"W.W.W.W.W.W.W.W.W.W.W.W.n n n I m.Y.Y.Y.Y.Y.Y.Y.Y.Y.Y.Y.Y.U.U.Y.Y.L.V.x.x.c.c.4.l j 4.c.c.2.k > W.W.W.W.W.W.W.W.W.W.W.W.W.W.W.W.",
"W.W.W.W.W.W.W.W.W.W.W.W.O     b d.R.Y.Y.Y.Y.Y.Y.Y.Y.U.Y.Y.Y.Y.Y.Y.Y.Y.R.T.R.R.k.I X.m.E.E.g.N + W.W.W.W.W.W.W.W.W.W.W.W.W.W.W.W.",
"W.W.W.W.W.W.W.W.W.W.W.W.W.W.O n d.T.Y.Y.Y.Y.Y.Y.Y.Y.Y.Y.Y.Y.Y.Y.U.Y.Y.T.T.T.T.J.m.m.J.R.R.d.n O W.W.W.W.W.W.W.W.W.W.W.W.W.W.W.W.",
"W.W.W.W.W.W.W.W.W.W.W.W.W.W.+ n d.T.T.Y.Y.Y.Y.Y.Y.U.Y.Y.Y.Y.P.Y.Y.Y.Y.Y.Y.Y.Y.Y.Y.R.Y.T.E.g.m + W.W.W.W.W.W.W.W.W.W.W.W.W.W.W.W.",
"W.W.W.W.W.W.W.W.W.W.W.W.W.W.+ n d.T.Y.Y.Y.Y.Y.Y.U.Y.U.Y.Y.Y.Y.Y.Y.Y.Y.Y.Y.Y.Y.Y.T.Y.Y.R.E.h.m + W.W.W.W.W.W.W.W.W.W.W.W.W.W.W.W.",
"W.W.W.W.W.W.W.W.W.W.W.W.W.W.+ n d.R.R.Y.Y.P.T.T.Y.Y.Y.Y.Y.Y.T.Y.Y.Y.Y.Y.Y.Y.Y.Y.Y.Y.Y.K.m.0.b + W.W.W.W.W.W.W.W.W.W.W.W.W.W.W.W.",
"W.W.W.W.W.W.W.W.W.W.W.W.W.W.+ m d.R.R.Y.Y.Y.T.T.Y.Y.Y.Y.Y.Y.T.T.Y.Y.Y.Y.T.T.T.Y.Y.T.R.m.I v W.W.W.W.W.W.W.W.W.W.W.W.W.W.W.W.W.W.",
"W.W.W.W.W.W.W.W.W.W.W.W.W.W.+ n p.Y.Y.Y.R.K.M.m.G.K.Y.U.L.G.M.M.J.Y.K.G.m.M.K.Y.L.K.K.p.v   W.W.W.W.W.W.W.W.W.W.W.W.W.W.W.W.W.W.",
"W.W.W.W.W.W.W.W.W.W.W.W.W.W.+ v r.G.U.T.R.N.,.+.s.G.L.U.G.s.+.,.M.K.N.s.+.,.N.Y.N.B.B.0.c O W.W.W.W.W.W.W.W.W.W.W.W.W.W.W.W.W.W.",
"W.W.W.W.W.W.W.W.W.W.W.W.W.W.+ v r.G.U.I.m.9.m M t.G.Y.G.y.o.v J j.Y.G.r.C m 0.h.b.B.B.e.v # W.W.W.W.W.W.W.W.W.W.W.W.W.W.W.W.W.W.",
"W.W.W.W.W.W.W.W.W.W.W.W.W.W.+ n p.U.R.k.I x = N p.U.T.k.K 7 % N g.T.U.a.N = x P h.I.I.p.b O W.W.W.W.W.W.W.W.W.W.W.W.W.W.W.W.W.W.",
"W.W.W.W.W.W.W.W.W.W.W.W.W.W.+ b 9.g.g.8.x   O n 9.g.g.8.x O O n 9.g.g.,.c O O v 9.g.g.8.n O W.W.W.W.W.W.W.W.W.W.W.W.W.W.W.W.W.W.",
"W.W.W.W.W.W.W.W.W.W.W.W.W.W.W.W.v m n c ; O W.W.b b n x ; # W.W.v n n x = # W.W.v m n n W.W.W.W.W.W.W.W.W.W.W.W.W.W.W.W.W.W.W.W.",
"W.W.W.W.W.W.W.W.W.W.W.W.W.W.W.W.O # O # # # W.W.O # + + # # W.W.# + + # @ @ W.W.+ + + + W.W.W.W.W.W.W.W.W.W.W.W.W.W.W.W.W.W.W.W.",
"W.W.W.W.W.W.W.W.W.W.W.W.W.W.W.W.W.W.W.W.W.W.W.W.W.W.W.W.W.W.W.W.W.W.W.W.W.W.W.W.W.W.W.W.W.W.W.W.W.W.W.W.W.W.W.W.W.W.W.W.W.W.W.W.",
"W.W.W.W.W.W.W.W.W.W.W.W.W.W.W.W.W.W.W.W.W.W.W.W.W.W.W.W.W.W.W.W.W.W.W.W.W.W.W.W.W.W.W.W.W.W.W.W.W.W.W.W.W.W.W.W.W.W.W.W.W.W.W.W.",
"W.W.W.W.W.W.W.W.W.W.W.W.W.W.W.W.W.W.W.W.W.W.W.W.W.W.W.W.W.W.W.W.W.W.W.W.W.W.W.W.W.W.W.W.W.W.W.W.W.W.W.W.W.W.W.W.W.W.W.W.W.W.W.W.",
"W.W.W.W.W.W.W.W.W.W.W.W.W.W.W.W.W.W.W.W.W.W.W.W.W.W.W.W.W.W.W.W.W.W.W.W.W.W.W.W.W.W.W.W.W.W.W.W.W.W.W.W.W.W.W.W.W.W.W.W.W.W.W.W."
};
