/* XPM */
static char *result[] = {
/* columns rows colors chars-per-pixel */
"64 64 165 2 ",
"   c #24211E",
".  c #3A2E1C",
"X  c #342B1E",
"o  c #3D311E",
"O  c #262421",
"+  c #292622",
"@  c #2D2A27",
"#  c #2B2A28",
"$  c #322D25",
"%  c #392F22",
"&  c #322E28",
"*  c #3D3324",
"=  c #35312A",
"-  c #3A332A",
";  c #373431",
":  c #44341C",
">  c #49361B",
",  c #47351B",
"<  c #593C11",
"1  c #543D1A",
"2  c #423522",
"3  c #4D3B21",
"4  c #41392D",
"5  c #483B28",
"6  c #453D33",
"7  c #59411D",
"8  c #57401D",
"9  c #67430E",
"0  c #684817",
"q  c #66481C",
"w  c #6B4A1A",
"e  c #614418",
"r  c #744F17",
"t  c #765017",
"y  c #77521B",
"u  c #584221",
"i  c #5F4929",
"p  c #4A4134",
"a  c #4C453E",
"s  c #614720",
"d  c #664B23",
"f  c #6A4E23",
"g  c #604929",
"h  c #745323",
"j  c #62533D",
"k  c #6B5638",
"l  c #695437",
"z  c #745E3E",
"x  c #4A4641",
"c  c #4D4943",
"v  c #514C46",
"b  c #544F49",
"n  c #56514B",
"m  c #59534D",
"M  c #5F584F",
"N  c #5A5651",
"B  c #5F5950",
"V  c #6B5B44",
"C  c #61574A",
"Z  c #655B4D",
"A  c #6F5F48",
"S  c #605340",
"D  c #695E51",
"F  c #756043",
"G  c #7B674A",
"H  c #7A6649",
"J  c #666058",
"K  c #736C62",
"L  c #777067",
"P  c #777068",
"I  c #7A736B",
"U  c #834F02",
"Y  c #895509",
"T  c #925500",
"R  c #9E6108",
"E  c #8E672D",
"W  c #8E682F",
"Q  c #9F6C23",
"!  c #8A6939",
"~  c #976F36",
"^  c #9B7133",
"/  c #A66F21",
"(  c #AC782E",
")  c #AC6F3E",
"_  c #A27636",
"`  c #A67438",
"'  c #AD703F",
"]  c #A67C3E",
"[  c #876C46",
"{  c #97774A",
"}  c #AD7040",
"|  c #80766A",
" . c #847B6F",
".. c #927E64",
"X. c #847B70",
"o. c #C36251",
"O. c #9F8053",
"+. c #AD874F",
"@. c #AD8750",
"#. c #AF8850",
"$. c #A28255",
"%. c #B78F56",
"&. c #B18E5A",
"*. c #B89057",
"=. c #B4905C",
"-. c #9A866A",
";. c #9B8668",
":. c #8C847B",
">. c #918677",
",. c #92897E",
"<. c #988B7B",
"1. c #AE9777",
"2. c #A9977F",
"3. c #A6947A",
"4. c #BFA176",
"5. c #C3A275",
"6. c #8E8880",
"7. c #958D84",
"8. c #998F83",
"9. c #9B9184",
"0. c #9A9288",
"q. c #A19687",
"w. c #A39689",
"e. c #A69B8C",
"r. c #AC9E8E",
"t. c #B39E82",
"y. c #ADA194",
"u. c #AEA499",
"i. c #B2A596",
"p. c #B5AA9E",
"a. c #BCAE9C",
"s. c #B4ABA0",
"d. c #B9AEA2",
"f. c #BDB2A6",
"g. c #BEB4A9",
"h. c #C7AD88",
"j. c #C1B29E",
"k. c #CAB497",
"l. c #D1B795",
"z. c #C4B5A3",
"x. c #CAB8A4",
"c. c #C2B6A9",
"v. c #C4B9AC",
"b. c #CBBDAB",
"n. c #C8B7A5",
"m. c #D2BEA3",
"M. c #CBBEB0",
"N. c #CFC0AF",
"B. c #D5C1A5",
"V. c #D4C3AD",
"C. c #D9C6AF",
"Z. c #CDC1B2",
"A. c #D3C4B5",
"S. c #DCC9B2",
"D. c #D7CABC",
"F. c #DACDBE",
"G. c #DED0BE",
"H. c #E0D0BE",
"J. c #DBCEC1",
"K. c #DED1C2",
"L. c #E2D5C5",
"P. c #E3D7C8",
"I. c #E6D9CA",
"U. c #E9DCCC",
"Y. c None",
/* pixels */
"Y.Y.Y.Y.Y.Y.Y.Y.Y.Y.Y.Y.Y.Y.Y.Y.Y.Y.Y.Y.Y.Y.Y.Y.Y.Y.Y.Y.Y.Y.Y.Y.Y.Y.Y.Y.Y.Y.Y.Y.Y.Y.Y.Y.Y.Y.Y.Y.Y.Y.Y.Y.Y.Y.Y.Y.Y.Y.Y.Y.Y.Y.Y.Y.",
"Y.Y.Y.Y.Y.Y.Y.Y.Y.Y.Y.Y.Y.Y.Y.Y.Y.Y.Y.Y.Y.Y.Y.Y.Y.Y.Y.Y.Y.Y.Y.Y.Y.Y.Y.Y.Y.Y.Y.Y.Y.Y.Y.Y.Y.Y.Y.Y.Y.Y.Y.Y.Y.Y.Y.Y.Y.Y.Y.Y.Y.Y.Y.Y.",
"Y.Y.Y.Y.Y.Y.Y.Y.Y.Y.Y.Y.Y.Y.Y.Y.Y.Y.Y.Y.Y.Y.Y.Y.Y.Y.Y.Y.Y.Y.Y.Y.Y.Y.Y.Y.Y.Y.Y.Y.Y.Y.Y.Y.Y.Y.Y.Y.Y.Y.Y.Y.Y.Y.Y.Y.Y.Y.Y.Y.Y.Y.Y.Y.",
"Y.Y.Y.Y.Y.Y.Y.Y.Y.Y.Y.Y.Y.Y.Y.Y.Y.Y.Y.Y.Y.Y.Y.Y.Y.Y.Y.Y.Y.Y.Y.Y.Y.Y.Y.Y.Y.Y.Y.Y.Y.Y.Y.Y.Y.Y.Y.Y.Y.Y.Y.Y.Y.Y.Y.Y.Y.Y.Y.Y.Y.Y.Y.Y.",
"Y.Y.Y.Y.Y.Y.Y.Y.Y.Y.Y.Y.Y.Y.Y.Y.Y.Y.Y.Y.Y.Y.Y.Y.Y.Y.Y.Y.Y.Y.Y.Y.Y.Y.Y.Y.Y.Y.Y.Y.Y.Y.Y.Y.Y.Y.Y.Y.Y.Y.Y.Y.Y.Y.Y.Y.Y.Y.Y.Y.Y.Y.Y.Y.",
"Y.Y.Y.Y.Y.Y.Y.Y.Y.Y.Y.Y.Y.Y.Y.Y.Y.Y.Y.Y.Y.Y.Y.Y.Y.Y.Y.Y.Y.Y.Y.Y.Y.Y.Y.Y.Y.Y.Y.Y.Y.Y.Y.Y.Y.Y.Y.Y.Y.Y.Y.Y.Y.Y.Y.Y.Y.Y.Y.Y.Y.Y.Y.Y.",
"Y.Y.Y.Y.Y.Y.Y.Y.Y.Y.Y.Y.Y.Y.Y.Y.Y.Y.Y.Y.Y.Y.Y.Y.Y.Y.Y.Y.Y.Y.Y.Y.Y.Y.Y.Y.Y.Y.Y.Y.Y.Y.Y.Y.Y.Y.Y.Y.Y.Y.Y.Y.Y.Y.Y.Y.Y.Y.Y.Y.Y.Y.Y.Y.",
"Y.Y.Y.Y.Y.Y.Y.Y.Y.Y.Y.Y.Y.Y.Y.Y.Y.Y.Y.Y.Y.Y.Y.Y.Y.Y.Y.Y.Y.Y.Y.Y.Y.Y.Y.Y.Y.Y.Y.Y.Y.Y.Y.Y.Y.Y.Y.Y.Y.Y.Y.Y.Y.Y.Y.Y.Y.Y.Y.Y.Y.Y.Y.Y.",
"Y.Y.Y.Y.Y.Y.Y.Y.Y.Y.Y.Y.Y.Y.Y.Y.Y.Y.Y.Y.Y.Y.Y.Y.Y.Y.Y.Y.Y.Y.Y.Y.Y.Y.Y.Y.Y.Y.Y.Y.Y.Y.Y.Y.Y.Y.Y.Y.Y.Y.Y.Y.Y.Y.Y.Y.Y.Y.Y.Y.Y.Y.Y.Y.",
"Y.Y.Y.Y.Y.Y.Y.Y.Y.Y.Y.Y.Y.Y.Y.Y.Y.Y.Y.Y.Y.Y.Y.Y.Y.Y.Y.Y.Y.Y.Y.Y.Y.Y.Y.Y.Y.Y.Y.Y.Y.Y.Y.Y.Y.Y.Y.Y.Y.Y.Y.Y.Y.Y.Y.Y.Y.Y.Y.Y.Y.Y.Y.Y.",
"Y.Y.Y.Y.Y.Y.Y.Y.Y.Y.Y.Y.Y.Y.Y.Y.Y.Y.Y.Y.Y.Y.Y.Y.Y.Y.Y.Y.Y.Y.Y.Y.Y.Y.Y.Y.Y.Y.Y.Y.Y.Y.Y.Y.Y.Y.Y.Y.Y.Y.Y.Y.Y.Y.Y.Y.Y.Y.Y.Y.Y.Y.Y.Y.",
"Y.Y.Y.Y.Y.Y.Y.Y.Y.Y.Y.Y.Y.Y.Y.Y.Y.Y.Y.Y.Y.Y.Y.Y.Y.Y.Y.Y.Y.Y.Y.Y.Y.Y.Y.Y.Y.Y.Y.Y.Y.Y.Y.Y.Y.Y.Y.Y.Y.Y.Y.Y.Y.Y.Y.Y.Y.Y.Y.Y.Y.Y.Y.Y.",
"Y.Y.Y.Y.Y.Y.Y.Y.Y.Y.Y.Y.Y.Y.Y.Y.Y.Y.Y.Y.Y.Y.Y.Y.Y.Y.Y.Y.Y.Y.Y.Y.Y.Y.Y.Y.Y.Y.Y.Y.Y.Y.Y.Y.Y.Y.Y.Y.Y.Y.Y.Y.Y.Y.Y.Y.Y.Y.Y.Y.Y.Y.Y.Y.",
"Y.Y.Y.Y.Y.Y.Y.Y.Y.Y.Y.Y.Y.Y.Y.Y.Y.Y.Y.Y.Y.Y.Y.Y.Y.Y.Y.Y.Y.Y.Y.Y.Y.Y.Y.Y.Y.Y.Y.Y.Y.Y.Y.Y.Y.Y.Y.Y.Y.Y.Y.Y.Y.Y.Y.Y.Y.Y.Y.Y.Y.Y.Y.Y.",
"Y.Y.Y.Y.Y.Y.Y.Y.Y.Y.Y.Y.Y.Y.Y.Y.Y.Y.Y.Y.Y.Y.Y.Y.Y.Y.Y.Y.Y.Y.Y.Y.Y.Y.Y.Y.Y.Y.Y.Y.Y.Y.Y.Y.Y.Y.Y.Y.Y.Y.Y.Y.Y.Y.Y.Y.Y.Y.Y.Y.Y.Y.Y.Y.",
"Y.Y.Y.Y.Y.Y.Y.Y.Y.Y.Y.Y.Y.Y.Y.Y.Y.Y.Y.Y.Y.Y.Y.Y.Y.Y.Y.Y.Y.Y.Y.Y.Y.Y.Y.Y.Y.Y.Y.Y.Y.Y.Y.Y.Y.Y.Y.Y.Y.Y.Y.Y.Y.Y.Y.Y.Y.Y.Y.Y.Y.Y.Y.Y.",
"Y.Y.Y.Y.Y.Y.Y.Y.Y.Y.Y.Y.Y.Y.Y.Y.Y.Y.Y.Y.Y.Y.Y.Y.Y.Y.Y.Y.Y.Y.Y.Y.Y.Y.Y.Y.Y.Y.Y.Y.Y.Y.Y.Y.Y.Y.Y.Y.Y.Y.Y.Y.Y.Y.Y.Y.Y.Y.Y.Y.Y.Y.Y.Y.",
"Y.Y.Y.Y.Y.Y.Y.Y.Y.Y.Y.Y.Y.Y.Y.Y.Y.Y.Y.Y.Y.Y.Y.Y.Y.Y.Y.Y.Y.Y.Y.Y.Y.Y.Y.Y.Y.Y.Y.Y.Y.Y.Y.Y.Y.Y.Y.Y.Y.Y.Y.Y.Y.Y.Y.Y.Y.Y.Y.Y.Y.Y.Y.Y.",
"Y.Y.Y.Y.Y.Y.Y.Y.Y.Y.Y.Y.Y.Y.Y.Y.Y.Y.Y.Y.Y.Y.Y.Y.Y.Y.Y.Y.Y.Y.Y.Y.Y.Y.Y.Y.Y.Y.Y.Y.Y.Y.Y.Y.Y.Y.Y.Y.Y.Y.Y.Y.Y.Y.Y.Y.Y.Y.Y.Y.Y.Y.Y.Y.",
"Y.Y.Y.Y.Y.Y.Y.Y.Y.Y.Y.Y.Y.Y.Y.Y.Y.Y.Y.Y.Y.Y.Y.Y.Y.Y.Y.Y.Y.Y.Y.Y.Y.Y.Y.Y.Y.Y.Y.Y.Y.Y.Y.Y.Y.Y.Y.Y.Y.Y.Y.Y.Y.Y.Y.Y.Y.Y.Y.Y.Y.Y.Y.Y.",
"Y.Y.Y.Y.Y.Y.Y.Y.Y.Y.Y.Y.Y.Y.Y.Y.Y.Y.Y.Y.Y.Y.Y.Y.Y.Y.Y.Y.Y.Y.Y.Y.@ @ @ # @ @ Y.Y.Y.Y.Y.Y.Y.Y.# @ @ # # # Y.Y.Y.Y.Y.Y.Y.Y.Y.Y.Y.Y.",
"Y.Y.Y.Y.Y.Y.Y.Y.Y.Y.Y.Y.Y.Y.Y.Y.Y.Y.Y.Y.Y.Y.Y.Y.Y.Y.Y.Y.Y.Y.Y.Y.& & & & & & Y.Y.Y.Y.Y.Y.Y.Y.* 4 2 * * % Y.Y.Y.Y.Y.Y.Y.Y.Y.Y.Y.Y.",
"Y.Y.Y.Y.Y.Y.Y.Y.Y.Y.Y.Y.Y.Y.Y.Y.Y.Y.Y.Y.Y.Y.Y.Y.Y.Y.Y.Y.Y.Y.@ & = = - - = = & @ Y.Y.Y.Y.@ * u d d s 1 , % # Y.Y.Y.Y.Y.Y.Y.Y.Y.Y.",
"Y.Y.Y.Y.Y.Y.Y.Y.Y.Y.Y.Y.Y.Y.Y.Y.Y.Y.Y.Y.Y.Y.Y.Y.Y.Y.Y.Y.Y.Y.@ & * - - - - - & @ Y.Y.Y.Y.@ * f h f d e 1 * # Y.Y.Y.Y.Y.Y.Y.Y.Y.Y.",
"Y.Y.Y.Y.Y.Y.Y.Y.Y.Y.Y.Y.Y.Y.Y.Y.Y.Y.Y.Y.Y.Y.Y.Y.Y.Y.Y.Y.Y.Y.@ & = - & % = - & @ Y.Y.Y.Y.# 2 f f 3 2 1 1 % & Y.Y.Y.Y.Y.Y.Y.Y.Y.Y.",
"Y.Y.Y.Y.Y.Y.Y.Y.Y.Y.Y.Y.Y.Y.Y.Y.Y.Y.Y.Y.Y.Y.Y.Y.Y.Y.Y.Y.Y.Y.& & & = & & = = & @ Y.Y.Y.Y.% 2 u 8 2 * > , % # Y.Y.Y.Y.Y.Y.Y.Y.Y.Y.",
"Y.Y.Y.Y.Y.Y.Y.Y.Y.Y.Y.Y.Y.Y.Y.Y.Y.Y.Y.Y.Y.Y.Y.Y.Y.Y.Y.Y.Y.Y.@ @ & & = = & & = = @   + X , > o o > > o % & # Y.Y.Y.Y.Y.Y.Y.Y.Y.Y.",
"Y.Y.Y.Y.Y.Y.Y.Y.Y.Y.Y.Y.Y.Y.Y.Y.Y.Y.Y.Y.Y.Y.Y.Y.Y.Y.Y.Y.Y.Y.@ @ & & * - & % - 6 v m m C F F C C F k 5 $ $ # Y.Y.Y.Y.Y.Y.Y.Y.Y.Y.",
"Y.Y.Y.Y.Y.Y.@ @ Y.Y.Y.Y.Y.Y.Y.Y.Y.Y.Y.Y.Y.Y.Y.Y.Y.Y.Y.Y.Y.Y.@ & - - - - = - 4 Z 9.p.p.p.j.j.p.p.j.3.k : % # Y.Y.Y.Y.Y.Y.Y.Y.Y.Y.",
"Y.Y.Y.Y.Y.Y.* 2 Y.Y.Y.Y.Y.Y.Y.Y.Y.Y.Y.Y.Y.Y.Y.Y.Y.Y.Y.Y.Y.Y.& & - - - - - p Z >.N.U.U.I.P.I.I.I.U.b.O.l - + Y.Y.Y.Y.Y.Y.Y.Y.Y.Y.",
"Y.Y.Y.Y.# * 8 8 * # Y.Y.Y.Y.Y.Y.Y.Y.Y.Y.Y.Y.Y.Y.Y.Y.Y.Y.@ & = - - - - - 4 Z q.M.L.I.P.L.P.P.P.P.P.G.M.9.c   Y.Y.Y.Y.Y.Y.Y.Y.Y.Y.",
"Y.Y.Y.Y.* 3 w w 3 * Y.Y.Y.Y.Y.Y.Y.Y.Y.Y.Y.Y.Y.Y.Y.Y.Y.Y.@ & - - - - - p Z >.b.L.b.x.F.P.P.L.P.P.P.J.V.r.K b Y.Y.Y.Y.Y.Y.Y.Y.Y.Y.",
"Y.Y.# * u w r r w 1 % O Y.Y.Y.Y.Y.Y.Y.Y.Y.Y.Y.Y.Y.Y.Y.Y.# & - - - - 4 Z q.Z.K.b.-.-.b.I.I.K.P.I.I.b.-.;.r.0.n + Y.Y.Y.Y.Y.Y.Y.Y.",
"Y.Y.* 3 w r w w r h j n Y.Y.Y.Y.Y.Y.Y.Y.Y.Y.Y.Y.Y.Y.Y.Y.@ & - 4 4 a D >.b.U.I.j.H z t.B.B.B.x.B.B.t.z H z.d.m + Y.Y.Y.Y.Y.Y.Y.Y.",
"@ * 8 w r w 3 > q ! 2.0.b   Y.Y.Y.Y.Y.Y.Y.Y.Y.Y.Y.Y.Y.Y.# - 6 p p D e.Z.K.I.I.a.V g { =.&.&.=.=.=.{ i A z.d.m + Y.Y.Y.Y.Y.Y.Y.Y.",
"@ * q y w 1 * % 1 [ x.v.I c Y.Y.Y.Y.Y.Y.Y.Y.Y.Y.Y.Y.Y.Y.# & 6 6 5 Z 0.c.F.P.P.j.H f W _ _ ` } ' ` W d G z.d.m + Y.Y.Y.Y.Y.Y.Y.Y.",
"@ 2 q w 3 * Y.Y.. Z f.G.v.8.v   Y.Y.Y.Y.Y.Y.Y.Y.Y.Y.Y.Y.# & & = = - a I c.I.I.x.$.E ^ _ ^ ' o.o.} ^ W $.b.d.m + Y.Y.Y.Y.Y.Y.Y.Y.",
"# * 7 8 * # Y.Y.+ n p.I.U.c.I v Y.Y.Y.Y.Y.Y.Y.Y.Y.Y.Y.Y.$ # @ ; c m n I c.I.I.V.4.+.] _ _ ' o.o.' ] @.5.S.p.m + Y.Y.Y.Y.Y.Y.Y.Y.",
"Y.Y.2 * Y.Y.Y.Y.+ n p.I.I.F.c.8.v   O + + + + + + + + @ # @ + v 0.f.d.c.F.I.P.H.C.h.+._ _ _ ' ) _ +.h.S.I.p.m + Y.Y.Y.Y.Y.Y.Y.Y.",
"Y.Y.@ @ Y.Y.Y.Y.+ m p.I.P.I.I.z.I n n n n m n m n m m c = $ . j 9.f.f.p.p.f.D.P.I.V.4.&.&.=.=.=.&.4.S.J.v.8.n + Y.Y.Y.Y.Y.Y.Y.Y.",
"Y.Y.Y.Y.Y.Y.Y.Y.+ m p.U.I.P.P.F.c.i.p.p.p.p.p.p.p.p.p.7.x . 0 y j N N m b L c.P.P.H.V.l.m.m.m.b.m.C.P.c.I v Y.Y.Y.Y.Y.Y.Y.Y.Y.Y.",
"Y.Y.Y.Y.Y.Y.Y.Y.+ b 9.c.D.P.L.L.P.I.I.P.P.P.P.P.I.I.U.v.I l Y U < . + = a I c.I.I.I.U.U.P.P.U.P.U.F.c.7.v   Y.Y.Y.Y.Y.Y.Y.Y.Y.Y.",
"Y.Y.Y.Y.Y.Y.Y.Y.Y.Y.v I c.P.P.L.P.P.P.L.L.L.L.I.L.P.P.F.c.1./ T U 9 . x 7.v.J.I.I.P.U.I.I.I.I.U.U.v.I v Y.Y.Y.Y.Y.Y.Y.Y.Y.Y.Y.Y.",
"Y.Y.Y.Y.Y.Y.Y.Y.Y.Y.  n p.I.I.P.P.L.L.L.L.L.L.L.L.L.L.L.P.B.*./ R U < j 8.d.s.p.p.p.p.p.p.p.p.d.d.8.v   Y.Y.Y.Y.Y.Y.Y.Y.Y.Y.Y.Y.",
"Y.Y.Y.Y.Y.Y.Y.Y.Y.Y.O n p.U.I.P.L.L.L.L.L.L.L.L.L.L.K.L.P.H.m.5./ T U r j n b n n m n b n n n m n b Y.Y.Y.Y.Y.Y.Y.Y.Y.Y.Y.Y.Y.Y.",
"Y.Y.Y.Y.Y.Y.Y.Y.Y.Y.+ b 9.p.p.c.A.L.L.L.L.L.L.L.L.L.L.L.L.P.I.m.&.( ( ~ V b n a = = a n n a = + + + Y.Y.Y.Y.Y.Y.Y.Y.Y.Y.Y.Y.Y.Y.",
"Y.Y.Y.Y.Y.Y.Y.Y.Y.Y.Y.Y.n m n I c.P.P.L.L.L.H.L.K.L.L.L.L.L.L.F.m.l.l.k.p.p.p.,.a a <.f.d.7.a + Y.Y.Y.Y.Y.Y.Y.Y.Y.Y.Y.Y.Y.Y.Y.Y.",
"Y.Y.Y.Y.Y.Y.Y.Y.Y.Y.Y.Y.@     n p.P.L.L.L.L.L.L.L.L.L.L.L.L.L.L.P.P.P.P.P.I.U.v.| I v.U.U.p.m + Y.Y.Y.Y.Y.Y.Y.Y.Y.Y.Y.Y.Y.Y.Y.Y.",
"Y.Y.Y.Y.Y.Y.Y.Y.Y.Y.Y.Y.Y.Y.+ n p.I.L.L.L.L.L.L.L.L.L.L.L.L.L.L.L.P.L.L.L.P.P.F.c.z.D.I.I.d.m + Y.Y.Y.Y.Y.Y.Y.Y.Y.Y.Y.Y.Y.Y.Y.Y.",
"Y.Y.Y.Y.Y.Y.Y.Y.Y.Y.Y.Y.Y.Y.+ n p.P.P.L.L.L.L.L.L.H.K.L.L.L.L.L.L.L.L.L.L.L.L.L.P.P.P.P.U.p.n + Y.Y.Y.Y.Y.Y.Y.Y.Y.Y.Y.Y.Y.Y.Y.Y.",
"Y.Y.Y.Y.Y.Y.Y.Y.Y.Y.Y.Y.Y.Y.+ n p.P.P.L.L.L.L.L.L.K.L.L.L.L.L.L.L.L.L.L.L.L.L.L.P.P.P.P.U.p.m + Y.Y.Y.Y.Y.Y.Y.Y.Y.Y.Y.Y.Y.Y.Y.Y.",
"Y.Y.Y.Y.Y.Y.Y.Y.Y.Y.Y.Y.Y.Y.+ m p.I.L.L.H.L.P.P.L.L.L.L.L.L.P.P.L.L.L.L.P.L.L.L.L.L.P.F.c.0.b + Y.Y.Y.Y.Y.Y.Y.Y.Y.Y.Y.Y.Y.Y.Y.Y.",
"Y.Y.Y.Y.Y.Y.Y.Y.Y.Y.Y.Y.Y.Y.+ m p.I.P.L.P.P.P.P.L.L.L.L.L.P.P.P.L.L.L.P.P.P.P.L.L.P.I.c.I b Y.Y.Y.Y.Y.Y.Y.Y.Y.Y.Y.Y.Y.Y.Y.Y.Y.Y.",
"Y.Y.Y.Y.Y.Y.Y.Y.Y.Y.Y.Y.Y.Y.+ n y.L.P.L.P.F.v.c.A.F.K.L.F.A.c.v.F.J.F.A.c.v.F.L.F.F.F.r.v O Y.Y.Y.Y.Y.Y.Y.Y.Y.Y.Y.Y.Y.Y.Y.Y.Y.Y.",
"Y.Y.Y.Y.Y.Y.Y.Y.Y.Y.Y.Y.Y.Y.+ v w.A.K.P.I.b.:. .i.A.K.J.A.i. .>.v.F.M.i.X.:.b.L.M.n.x.8.c + Y.Y.Y.Y.Y.Y.Y.Y.Y.Y.Y.Y.Y.Y.Y.Y.Y.Y.",
"Y.Y.Y.Y.Y.Y.Y.Y.Y.Y.Y.Y.Y.Y.+ v q.A.K.J.c.7.m B e.A.L.A.r.| v J d.L.A.w.C m 7.d.z.x.x.q.v + Y.Y.Y.Y.Y.Y.Y.Y.Y.Y.Y.Y.Y.Y.Y.Y.Y.Y.",
"Y.Y.Y.Y.Y.Y.Y.Y.Y.Y.Y.Y.Y.Y.+ n u.K.P.g.I x ; N u.K.P.g.K 6 = N d.P.K.u.N ; x P s.J.J.y.b + Y.Y.Y.Y.Y.Y.Y.Y.Y.Y.Y.Y.Y.Y.Y.Y.Y.Y.",
"Y.Y.Y.Y.Y.Y.Y.Y.Y.Y.Y.Y.Y.Y.+ n 7.s.s.6.x   O b 7.s.s.:.x   + b 7.p.s.6.x O   v 7.s.s.7.b + Y.Y.Y.Y.Y.Y.Y.Y.Y.Y.Y.Y.Y.Y.Y.Y.Y.Y.",
"Y.Y.Y.Y.Y.Y.Y.Y.Y.Y.Y.Y.Y.Y.Y.Y.b m m c ; + Y.Y.b m n c ; + Y.Y.b m n c ; @ Y.Y.b m n b Y.Y.Y.Y.Y.Y.Y.Y.Y.Y.Y.Y.Y.Y.Y.Y.Y.Y.Y.Y.",
"Y.Y.Y.Y.Y.Y.Y.Y.Y.Y.Y.Y.Y.Y.Y.Y.+ + + + # # Y.Y.+ + + @ # # Y.Y.+ + + + @ # Y.Y.+ + + + Y.Y.Y.Y.Y.Y.Y.Y.Y.Y.Y.Y.Y.Y.Y.Y.Y.Y.Y.Y.",
"Y.Y.Y.Y.Y.Y.Y.Y.Y.Y.Y.Y.Y.Y.Y.Y.Y.Y.Y.Y.Y.Y.Y.Y.Y.Y.Y.Y.Y.Y.Y.Y.Y.Y.Y.Y.Y.Y.Y.Y.Y.Y.Y.Y.Y.Y.Y.Y.Y.Y.Y.Y.Y.Y.Y.Y.Y.Y.Y.Y.Y.Y.Y.Y.",
"Y.Y.Y.Y.Y.Y.Y.Y.Y.Y.Y.Y.Y.Y.Y.Y.Y.Y.Y.Y.Y.Y.Y.Y.Y.Y.Y.Y.Y.Y.Y.Y.Y.Y.Y.Y.Y.Y.Y.Y.Y.Y.Y.Y.Y.Y.Y.Y.Y.Y.Y.Y.Y.Y.Y.Y.Y.Y.Y.Y.Y.Y.Y.Y.",
"Y.Y.Y.Y.Y.Y.Y.Y.Y.Y.Y.Y.Y.Y.Y.Y.Y.Y.Y.Y.Y.Y.Y.Y.Y.Y.Y.Y.Y.Y.Y.Y.Y.Y.Y.Y.Y.Y.Y.Y.Y.Y.Y.Y.Y.Y.Y.Y.Y.Y.Y.Y.Y.Y.Y.Y.Y.Y.Y.Y.Y.Y.Y.Y.",
"Y.Y.Y.Y.Y.Y.Y.Y.Y.Y.Y.Y.Y.Y.Y.Y.Y.Y.Y.Y.Y.Y.Y.Y.Y.Y.Y.Y.Y.Y.Y.Y.Y.Y.Y.Y.Y.Y.Y.Y.Y.Y.Y.Y.Y.Y.Y.Y.Y.Y.Y.Y.Y.Y.Y.Y.Y.Y.Y.Y.Y.Y.Y.Y."
};
