/* XPM */
static char *result[] = {
/* columns rows colors chars-per-pixel */
"64 64 165 2 ",
"   c #24221E",
".  c #3A2E1D",
"X  c #342B1E",
"o  c #3E311E",
"O  c #262421",
"+  c #292622",
"@  c #2D2A27",
"#  c #2C2A28",
"$  c #322C24",
"%  c #382F23",
"&  c #322E28",
"*  c #3E3324",
"=  c #36312A",
"-  c #3A332A",
";  c #373431",
":  c #423117",
">  c #433219",
",  c #49361B",
"<  c #593D13",
"1  c #543D1A",
"2  c #573A11",
"3  c #403423",
"4  c #433A2D",
"5  c #483B28",
"6  c #4E3D25",
"7  c #453D33",
"8  c #5A421D",
"9  c #6A450E",
"0  c #7B4B05",
"q  c #774B09",
"w  c #634518",
"e  c #65481B",
"r  c #76511C",
"t  c #584221",
"y  c #5F4929",
"u  c #4A4134",
"i  c #4B443C",
"p  c #614720",
"a  c #664B23",
"s  c #6A4E23",
"d  c #604929",
"f  c #765421",
"g  c #6B5637",
"h  c #62533F",
"j  c #6A5639",
"k  c #745E3E",
"l  c #79603B",
"z  c #4A4641",
"x  c #4E4943",
"c  c #524C45",
"v  c #544F49",
"b  c #56524C",
"n  c #59544D",
"m  c #5F584F",
"M  c #5A5651",
"N  c #5F5950",
"B  c #575350",
"V  c #61574A",
"C  c #645B4D",
"Z  c #6F5F48",
"A  c #675843",
"S  c #695E51",
"D  c #756043",
"F  c #7B674A",
"G  c #7A6649",
"H  c #666058",
"J  c #736C62",
"K  c #777067",
"L  c #777068",
"P  c #7A736B",
"I  c #834E02",
"U  c #855003",
"Y  c #805009",
"T  c #8F5300",
"R  c #925500",
"E  c #8B5912",
"W  c #9F6108",
"Q  c #8E672D",
"!  c #8E682F",
"~  c #9F6D24",
"^  c #9B7133",
"/  c #A46F23",
"(  c #AA772E",
")  c #AC6F3E",
"_  c #A27636",
"`  c #AE7B32",
"'  c #A67438",
"]  c #AD703F",
"[  c #A67C3E",
"{  c #97774A",
"}  c #AD7040",
"|  c #847B6F",
" . c #817569",
".. c #927E64",
"X. c #847B70",
"o. c #C36251",
"O. c #9F8053",
"+. c #AD874F",
"@. c #AF8850",
"#. c #A88553",
"$. c #B78F56",
"%. c #B18E5A",
"&. c #B89057",
"*. c #B4905C",
"=. c #9A866A",
"-. c #9B8668",
";. c #8C847B",
":. c #918677",
">. c #988B7B",
",. c #AF9777",
"<. c #A6947A",
"1. c #B09776",
"2. c #BFA176",
"3. c #C2A070",
"4. c #C3A479",
"5. c #8E8880",
"6. c #958D84",
"7. c #988F84",
"8. c #9B9084",
"9. c #9B9388",
"0. c #A39684",
"q. c #A39689",
"w. c #A69B8C",
"e. c #AC9E8E",
"r. c #B39E82",
"t. c #ADA194",
"y. c #AEA499",
"u. c #B2A596",
"i. c #B4AA9E",
"p. c #BDAE9C",
"a. c #B4ABA0",
"s. c #B9AEA2",
"d. c #BCB2A5",
"f. c #BEB4A9",
"g. c #C7AD88",
"h. c #C1B29E",
"j. c #CFB695",
"k. c #D5BB99",
"l. c #D2B896",
"z. c #C4B5A3",
"x. c #CAB8A5",
"c. c #C2B6A9",
"v. c #C4B9AC",
"b. c #CBBDAB",
"n. c #C8B7A5",
"m. c #D2BEA3",
"M. c #CBBEB0",
"N. c #CFC0AF",
"B. c #D5C1A5",
"V. c #D4C3AD",
"C. c #D9C6AF",
"Z. c #CDC1B2",
"A. c #D3C4B5",
"S. c #DCC9B2",
"D. c #D7CABD",
"F. c #DACDBE",
"G. c #DED0BE",
"H. c #E0D0BE",
"J. c #DCCFC1",
"K. c #DED1C2",
"L. c #E2D5C5",
"P. c #E3D7C8",
"I. c #E6D9CA",
"U. c #E9DCCD",
"Y. c None",
/* pixels */
"Y.Y.Y.Y.Y.Y.Y.Y.Y.Y.Y.Y.Y.Y.Y.Y.Y.Y.Y.Y.Y.Y.Y.Y.Y.Y.Y.Y.Y.Y.Y.Y.Y.Y.Y.Y.Y.Y.Y.Y.Y.Y.Y.Y.Y.Y.Y.Y.Y.Y.Y.Y.Y.Y.Y.Y.Y.Y.Y.Y.Y.Y.Y.Y.",
"Y.Y.Y.Y.Y.Y.Y.Y.Y.Y.Y.Y.Y.Y.Y.Y.Y.Y.Y.Y.Y.Y.Y.Y.Y.Y.Y.Y.Y.Y.Y.Y.Y.Y.Y.Y.Y.Y.Y.Y.Y.Y.Y.Y.Y.Y.Y.Y.Y.Y.Y.Y.Y.Y.Y.Y.Y.Y.Y.Y.Y.Y.Y.Y.",
"Y.Y.Y.Y.Y.Y.Y.Y.Y.Y.Y.Y.Y.Y.Y.Y.Y.Y.Y.Y.Y.Y.Y.Y.Y.Y.Y.Y.Y.Y.Y.Y.Y.Y.Y.Y.Y.Y.Y.Y.Y.Y.Y.Y.Y.Y.Y.Y.Y.Y.Y.Y.Y.Y.Y.Y.Y.Y.Y.Y.Y.Y.Y.Y.",
"Y.Y.Y.Y.Y.Y.Y.Y.Y.Y.Y.Y.Y.Y.Y.Y.Y.Y.Y.Y.Y.Y.Y.Y.Y.Y.Y.Y.Y.Y.Y.Y.Y.Y.Y.Y.Y.Y.Y.Y.Y.Y.Y.Y.Y.Y.Y.Y.Y.Y.Y.Y.Y.Y.Y.Y.Y.Y.Y.Y.Y.Y.Y.Y.",
"Y.Y.Y.Y.Y.Y.Y.Y.Y.Y.Y.Y.Y.Y.Y.Y.Y.Y.Y.Y.Y.Y.Y.Y.Y.Y.Y.Y.Y.Y.Y.Y.Y.Y.Y.Y.Y.Y.Y.Y.Y.Y.Y.Y.Y.Y.Y.Y.Y.Y.Y.Y.Y.Y.Y.Y.Y.Y.Y.Y.Y.Y.Y.Y.",
"Y.Y.Y.Y.Y.Y.Y.Y.Y.Y.Y.Y.Y.Y.Y.Y.Y.Y.Y.Y.Y.Y.Y.Y.Y.Y.Y.Y.Y.Y.Y.Y.Y.Y.Y.Y.Y.Y.Y.Y.Y.Y.Y.Y.Y.Y.Y.Y.Y.Y.Y.Y.Y.Y.Y.Y.Y.Y.Y.Y.Y.Y.Y.Y.",
"Y.Y.Y.Y.Y.Y.Y.Y.Y.Y.Y.Y.Y.Y.Y.Y.Y.Y.Y.Y.Y.Y.Y.Y.Y.Y.Y.Y.Y.Y.Y.Y.Y.Y.Y.Y.Y.Y.Y.Y.Y.Y.Y.Y.Y.Y.Y.Y.Y.Y.Y.Y.Y.Y.Y.Y.Y.Y.Y.Y.Y.Y.Y.Y.",
"Y.Y.Y.Y.Y.Y.Y.Y.Y.Y.Y.Y.Y.Y.Y.Y.Y.Y.Y.Y.Y.Y.Y.Y.Y.Y.Y.Y.Y.Y.Y.Y.Y.Y.Y.Y.Y.Y.Y.Y.Y.Y.Y.Y.Y.Y.Y.Y.Y.Y.Y.Y.Y.Y.Y.Y.Y.Y.Y.Y.Y.Y.Y.Y.",
"Y.Y.Y.Y.Y.Y.Y.Y.Y.Y.Y.Y.Y.Y.Y.Y.Y.Y.Y.Y.Y.Y.Y.Y.Y.Y.Y.Y.Y.Y.Y.Y.Y.Y.Y.Y.Y.Y.Y.Y.Y.Y.Y.Y.Y.Y.Y.Y.Y.Y.Y.Y.Y.Y.Y.Y.Y.Y.Y.Y.Y.Y.Y.Y.",
"Y.Y.Y.Y.Y.Y.Y.Y.Y.Y.Y.Y.Y.Y.Y.Y.Y.Y.Y.Y.Y.Y.Y.Y.Y.Y.Y.Y.Y.Y.Y.Y.Y.Y.Y.Y.Y.Y.Y.Y.Y.Y.Y.Y.Y.Y.Y.Y.Y.Y.Y.Y.Y.Y.Y.Y.Y.Y.Y.Y.Y.Y.Y.Y.",
"Y.Y.Y.Y.Y.Y.Y.Y.Y.Y.Y.Y.Y.Y.Y.Y.Y.Y.Y.Y.Y.Y.Y.Y.Y.Y.Y.Y.Y.Y.Y.Y.Y.Y.Y.Y.Y.Y.Y.Y.Y.Y.Y.Y.Y.Y.Y.Y.Y.Y.Y.Y.Y.Y.Y.Y.Y.Y.Y.Y.Y.Y.Y.Y.",
"Y.Y.Y.Y.Y.Y.Y.Y.Y.Y.Y.Y.Y.Y.Y.Y.Y.Y.Y.Y.Y.Y.Y.Y.Y.Y.Y.Y.Y.Y.Y.Y.Y.Y.Y.Y.Y.Y.Y.Y.Y.Y.Y.Y.Y.Y.Y.Y.Y.Y.Y.Y.Y.Y.Y.Y.Y.Y.Y.Y.Y.Y.Y.Y.",
"Y.Y.Y.Y.Y.Y.Y.Y.Y.Y.Y.Y.Y.Y.Y.Y.Y.Y.Y.Y.Y.Y.Y.Y.Y.Y.Y.Y.Y.Y.Y.Y.Y.Y.Y.Y.Y.Y.Y.Y.Y.Y.Y.Y.Y.Y.Y.Y.Y.Y.Y.Y.Y.Y.Y.Y.Y.Y.Y.Y.Y.Y.Y.Y.",
"Y.Y.Y.Y.Y.Y.Y.Y.Y.Y.Y.Y.Y.Y.Y.Y.Y.Y.Y.Y.Y.Y.Y.Y.Y.Y.Y.Y.Y.Y.Y.Y.Y.Y.Y.Y.Y.Y.Y.Y.Y.Y.Y.Y.Y.Y.Y.Y.Y.Y.Y.Y.Y.Y.Y.Y.Y.Y.Y.Y.Y.Y.Y.Y.",
"Y.Y.Y.Y.Y.Y.Y.Y.Y.Y.Y.Y.Y.Y.Y.Y.Y.Y.Y.Y.Y.Y.Y.Y.Y.Y.Y.Y.Y.Y.Y.Y.Y.Y.Y.Y.Y.Y.Y.Y.Y.Y.Y.Y.Y.Y.Y.Y.Y.Y.Y.Y.Y.Y.Y.Y.Y.Y.Y.Y.Y.Y.Y.Y.",
"Y.Y.Y.Y.Y.Y.Y.Y.Y.Y.Y.Y.Y.Y.Y.Y.Y.Y.Y.Y.Y.Y.Y.Y.Y.Y.Y.Y.Y.Y.Y.Y.Y.Y.Y.Y.Y.Y.Y.Y.Y.Y.Y.Y.Y.Y.Y.Y.Y.Y.Y.Y.Y.Y.Y.Y.Y.Y.Y.Y.Y.Y.Y.Y.",
"Y.Y.Y.Y.Y.Y.Y.Y.Y.Y.Y.Y.Y.Y.Y.Y.Y.Y.Y.Y.Y.Y.Y.Y.Y.Y.Y.Y.Y.Y.Y.Y.Y.Y.Y.Y.Y.Y.Y.Y.Y.Y.Y.Y.Y.Y.Y.Y.Y.Y.Y.Y.Y.Y.Y.Y.Y.Y.Y.Y.Y.Y.Y.Y.",
"Y.Y.Y.Y.Y.Y.Y.Y.Y.Y.Y.Y.Y.Y.Y.Y.Y.Y.Y.Y.Y.Y.Y.Y.Y.Y.Y.Y.Y.Y.Y.Y.Y.Y.Y.Y.Y.Y.Y.Y.Y.Y.Y.Y.Y.Y.Y.Y.Y.Y.Y.Y.Y.Y.Y.Y.Y.Y.Y.Y.Y.Y.Y.Y.",
"Y.Y.Y.Y.Y.Y.Y.Y.Y.Y.Y.Y.Y.Y.Y.Y.Y.Y.Y.Y.Y.Y.Y.Y.Y.Y.Y.Y.Y.Y.Y.Y.@ # @ @ @ @ Y.Y.Y.Y.Y.Y.Y.Y.# # # # @ # Y.Y.Y.Y.Y.Y.Y.Y.Y.Y.Y.Y.",
"Y.Y.Y.Y.Y.Y.Y.Y.Y.Y.Y.Y.Y.Y.Y.Y.Y.Y.Y.Y.Y.Y.Y.Y.Y.Y.Y.Y.Y.Y.Y.Y.& & & & & & Y.Y.Y.Y.Y.Y.Y.Y.* - * * * % Y.Y.Y.Y.Y.Y.Y.Y.Y.Y.Y.Y.",
"Y.Y.Y.Y.Y.Y.Y.Y.Y.Y.@ @ Y.Y.Y.Y.Y.Y.Y.Y.Y.Y.Y.Y.Y.Y.Y.Y.Y.Y.@ & = - - = - = $ @ Y.Y.Y.Y.# * t a a p 1 , % @ Y.Y.Y.Y.Y.Y.Y.Y.Y.Y.",
"Y.Y.Y.Y.Y.Y.Y.Y.Y.Y.* * Y.Y.Y.Y.Y.Y.Y.Y.Y.Y.Y.Y.Y.Y.Y.Y.Y.Y.@ & - - - - - = & @ Y.Y.Y.Y.# * a f s p 8 1 * # Y.Y.Y.Y.Y.Y.Y.Y.Y.Y.",
"Y.Y.Y.Y.Y.Y.Y.Y.@ * 8 8 * @ Y.Y.Y.Y.Y.Y.Y.Y.Y.Y.Y.Y.Y.Y.Y.Y.@ & - - & & - = & @ Y.Y.Y.Y.# * a s 6 3 < 1 % # Y.Y.Y.Y.Y.Y.Y.Y.Y.Y.",
"Y.Y.Y.Y.Y.Y.Y.Y.@ 3 e e 3 @ Y.Y.Y.Y.Y.Y.Y.Y.Y.Y.Y.Y.Y.Y.Y.Y.@ & = = & & = = = & Y.Y.Y.Y.% 3 t t 3 o , 6 % @ Y.Y.Y.Y.Y.Y.Y.Y.Y.Y.",
"Y.Y.Y.Y.Y.Y.Y.Y.@ 3 e e * @ Y.Y.Y.Y.Y.Y.Y.Y.Y.Y.Y.Y.Y.Y.Y.Y.@ @ $ & = % & & = & @ + + X > , o > , , o $ & @ Y.Y.Y.Y.Y.Y.Y.Y.Y.Y.",
"Y.Y.Y.Y.Y.Y.Y.Y.@ * e e 3 @ Y.Y.Y.Y.Y.Y.Y.Y.Y.Y.Y.Y.Y.Y.Y.Y.@ & & & - - & & * 7 c n n V D l V V D g 5 X & @ Y.Y.Y.Y.Y.Y.Y.Y.Y.Y.",
"Y.Y.Y.Y.Y.Y.Y.Y.@ 3 e e * @ Y.Y.Y.Y.Y.Y.Y.Y.Y.Y.Y.Y.Y.Y.Y.Y.@ & = - - - = - 4 C 8.i.i.i.p.p.p.s.h.<.g : X @ Y.Y.Y.Y.Y.Y.Y.Y.Y.Y.",
"Y.Y.Y.Y.Y.Y.Y.Y.# 3 e e 3 @ Y.Y.Y.Y.Y.Y.Y.Y.Y.Y.Y.Y.Y.Y.Y.Y.& & - - - - - u C :.Z.U.I.I.I.I.P.I.I.b.-.g - # Y.Y.Y.Y.Y.Y.Y.Y.Y.Y.",
"Y.Y.Y.Y.Y.Y.Y.Y.# * e e 3 @ Y.Y.Y.Y.Y.Y.Y.Y.Y.Y.Y.Y.Y.Y.@ & = - - - - - 4 C 0.Z.K.I.I.P.P.P.P.P.P.G.b.<.i O Y.Y.Y.Y.Y.Y.Y.Y.Y.Y.",
"Y.Y.Y.Y.Y.Y.Y.Y.@ 3 w w 3 @ Y.Y.Y.Y.Y.Y.Y.Y.Y.Y.Y.Y.Y.Y.@ & - - - - - u C :.b.K.b.x.F.P.L.P.P.P.P.G.Z.e.J v Y.Y.Y.Y.Y.Y.Y.Y.Y.Y.",
"Y.Y.Y.Y.Y.Y.Y.Y.# * w w * # Y.Y.Y.Y.Y.Y.Y.Y.Y.Y.Y.Y.Y.Y.@ & = - - 4 4 C q.b.K.b.=.=.b.I.P.P.P.P.I.b.=...e.9.b + Y.Y.Y.Y.Y.Y.Y.Y.",
"Y.Y.Y.Y.Y.Y.Y.Y.# 4 l l 5 # Y.Y.Y.Y.Y.Y.Y.Y.Y.Y.Y.Y.Y.Y.@ & - 4 4 u S :.M.U.I.h.G k r.B.m.m.m.B.B.r.D F n.s.n + Y.Y.Y.Y.Y.Y.Y.Y.",
"Y.Y.Y.Y.Y.Y.Y.Y.+ v 0.<.v + Y.Y.Y.Y.Y.Y.Y.Y.Y.Y.Y.Y.Y.Y.@ = 7 i u H w.Z.K.I.I.p.A d { *.*.*.*.*.*.{ d D z.d.n + Y.Y.Y.Y.Y.Y.Y.Y.",
"Y.Y.Y.Y.Y.Y.Y.Y.+ M s.d.n O Y.Y.Y.Y.Y.Y.Y.Y.Y.Y.Y.Y.Y.Y.@ & 7 7 4 V 8.c.D.P.I.p.G s ! _ _ ' ] ] _ ! s F h.d.n + Y.Y.Y.Y.Y.Y.Y.Y.",
"Y.Y.Y.Y.Y.Y.Y.Y.+ n s.s.n   Y.Y.Y.Y.Y.Y.Y.Y.Y.Y.Y.Y.Y.Y.@ & & = = - z P z.P.I.x.O.Q ^ _ _ } o.o.} ^ ! #.x.i.n + Y.Y.Y.Y.Y.Y.Y.Y.",
"Y.Y.Y.Y.Y.Y.Y.Y.+ n i.v.P c Y.Y.Y.Y.Y.Y.Y.Y.Y.Y.Y.Y.Y.Y.@ @ # ; c n b P c.U.P.C.4.@.[ _ _ ] o.o.} } @.2.S.s.n + Y.Y.Y.Y.Y.Y.Y.Y.",
"Y.Y.Y.Y.Y.Y.Y.Y.+ n i.K.v.8.c   Y.Y.Y.Y.Y.Y.Y.Y.Y.Y.Y.Y.Y.Y.O z 6.d.s.c.G.I.P.G.C.g.+.^ ^ _ ] ] ^ @.g.S.I.i.n + Y.Y.Y.Y.Y.Y.Y.Y.",
"Y.Y.Y.Y.Y.Y.Y.Y.+ n i.I.U.n.P c Y.Y.Y.Y.Y.Y.Y.Y.Y.Y.Y.Y.Y.Y.> A 8.d.d.s.i.d.D.P.I.C.2.%.*.%.%.%.*.2.S.K.v.7.b + Y.Y.Y.Y.Y.Y.Y.Y.",
"Y.Y.Y.Y.Y.Y.Y.Y.  n i.I.I.F.c.6.c   O + O + O O + O + O O > q r h n M n v K d.P.P.H.V.m.m.B.B.x.B.A.I.f.P c Y.Y.Y.Y.Y.Y.Y.Y.Y.Y.",
"Y.Y.Y.Y.Y.Y.Y.Y.+ n i.I.P.P.I.n.P v b n n n n n n n n n B j E U < o + = i P v.I.P.P.I.I.I.I.I.I.K.K.v.7.c   Y.Y.Y.Y.Y.Y.Y.Y.Y.Y.",
"Y.Y.Y.Y.Y.Y.Y.Y.+ n i.U.I.P.I.F.d.i.i.i.i.i.i.i.i.i.i.i.i.1./ R U 9 X z 6.v.F.I.I.I.I.I.I.I.I.U.U.c.P x Y.Y.Y.Y.Y.Y.Y.Y.Y.Y.Y.Y.",
"Y.Y.Y.Y.Y.Y.Y.Y.+ v 8.c.D.P.L.L.P.P.I.P.P.I.I.L.P.P.P.I.I.B.&./ W I < h 8.d.s.i.i.i.i.a.a.a.a.a.s.8.c   Y.Y.Y.Y.Y.Y.Y.Y.Y.Y.Y.Y.",
"Y.Y.Y.Y.Y.Y.Y.Y.Y.Y.c P d.P.P.L.P.P.P.L.L.I.L.P.L.P.P.P.I.H.B.3./ R U r h M n n B B n n n n B M n b Y.Y.Y.Y.Y.Y.Y.Y.Y.Y.Y.Y.Y.Y.",
"Y.Y.Y.Y.Y.Y.Y.Y.Y.Y.  v i.I.I.P.L.L.L.L.L.L.L.H.L.L.L.K.L.P.P.B.&./ W 0 2 . : : , : : : : : , 3 + O Y.Y.Y.Y.Y.Y.Y.Y.Y.Y.Y.Y.Y.Y.",
"Y.Y.Y.Y.Y.Y.Y.Y.Y.Y.+ b i.U.U.P.L.L.L.L.L.L.L.L.K.L.L.L.L.L.P.F.B.3./ T 0 0 q q 0 0 0 0 0 0 0 q Y.Y.Y.Y.Y.Y.Y.Y.Y.Y.Y.Y.Y.Y.Y.Y.",
"Y.Y.Y.Y.Y.Y.Y.Y.Y.Y.+ b 8.i.i.z.D.L.L.L.L.L.L.L.L.L.L.L.L.L.L.P.I.B.$.( ( ( ` / E E / ` ` ~ E 0 Y.Y.Y.Y.Y.Y.Y.Y.Y.Y.Y.Y.Y.Y.Y.Y.",
"Y.Y.Y.Y.Y.Y.Y.Y.Y.Y.Y.Y.b n b P c.L.P.L.L.L.L.H.L.L.L.L.L.L.L.L.P.F.k.j.l.l.l.1.j g 1.k.k.,.A > Y.Y.Y.Y.Y.Y.Y.Y.Y.Y.Y.Y.Y.Y.Y.Y.",
"Y.Y.Y.Y.Y.Y.Y.Y.Y.Y.Y.Y.      b i.P.L.L.L.L.L.L.L.K.L.L.L.K.L.K.P.L.I.I.I.I.I.v.P P v.U.U.s.n O Y.Y.Y.Y.Y.Y.Y.Y.Y.Y.Y.Y.Y.Y.Y.Y.",
"Y.Y.Y.Y.Y.Y.Y.Y.Y.Y.Y.Y.Y.Y.+ n i.P.L.L.L.L.L.L.L.L.L.L.K.L.L.L.K.L.L.L.P.P.P.D.c.c.D.I.I.s.n O Y.Y.Y.Y.Y.Y.Y.Y.Y.Y.Y.Y.Y.Y.Y.Y.",
"Y.Y.Y.Y.Y.Y.Y.Y.Y.Y.Y.Y.Y.Y.  n i.I.P.L.L.L.L.L.L.H.L.L.L.L.L.L.L.L.L.L.L.L.L.L.P.P.P.P.I.a.n O Y.Y.Y.Y.Y.Y.Y.Y.Y.Y.Y.Y.Y.Y.Y.Y.",
"Y.Y.Y.Y.Y.Y.Y.Y.Y.Y.Y.Y.Y.Y.+ n i.P.P.K.L.L.L.L.L.L.L.L.L.L.L.P.L.L.L.L.L.K.L.L.P.P.P.P.U.i.n + Y.Y.Y.Y.Y.Y.Y.Y.Y.Y.Y.Y.Y.Y.Y.Y.",
"Y.Y.Y.Y.Y.Y.Y.Y.Y.Y.Y.Y.Y.Y.+ n i.P.P.L.H.L.P.P.L.L.K.L.L.L.P.P.L.L.L.L.P.P.L.L.L.L.P.D.v.8.v + Y.Y.Y.Y.Y.Y.Y.Y.Y.Y.Y.Y.Y.Y.Y.Y.",
"Y.Y.Y.Y.Y.Y.Y.Y.Y.Y.Y.Y.Y.Y.+ n i.I.I.L.K.P.P.P.L.L.P.L.L.P.P.P.L.L.L.P.P.P.P.L.L.P.P.c.P c Y.Y.Y.Y.Y.Y.Y.Y.Y.Y.Y.Y.Y.Y.Y.Y.Y.Y.",
"Y.Y.Y.Y.Y.Y.Y.Y.Y.Y.Y.Y.Y.Y.+ b t.K.P.L.I.F.b.c.A.F.K.L.F.A.c.v.D.L.F.Z.c.v.F.P.F.F.F.e.c O Y.Y.Y.Y.Y.Y.Y.Y.Y.Y.Y.Y.Y.Y.Y.Y.Y.Y.",
"Y.Y.Y.Y.Y.Y.Y.Y.Y.Y.Y.Y.Y.Y.+ c q.A.K.I.I.M.;.| u.A.K.K.V.u.| ;.v.F.V.t.X.;.v.L.b.n.x.7.x + Y.Y.Y.Y.Y.Y.Y.Y.Y.Y.Y.Y.Y.Y.Y.Y.Y.Y.",
"Y.Y.Y.Y.Y.Y.Y.Y.Y.Y.Y.Y.Y.Y.+ v q.A.K.F.c.6.n M w.A.K.A.t. .c S s.L.A.q.V n 7.s.n.x.x.0.x # Y.Y.Y.Y.Y.Y.Y.Y.Y.Y.Y.Y.Y.Y.Y.Y.Y.Y.",
"Y.Y.Y.Y.Y.Y.Y.Y.Y.Y.Y.Y.Y.Y.+ b t.K.K.f.P z ; n y.K.I.f.J 7 = M a.P.K.y.B = z L a.J.J.t.c O Y.Y.Y.Y.Y.Y.Y.Y.Y.Y.Y.Y.Y.Y.Y.Y.Y.Y.",
"Y.Y.Y.Y.Y.Y.Y.Y.Y.Y.Y.Y.Y.Y.+ v 6.a.a.5.z O O n 6.a.a.;.z O O v 6.a.a.5.x O O c 6.i.a.6.v O Y.Y.Y.Y.Y.Y.Y.Y.Y.Y.Y.Y.Y.Y.Y.Y.Y.Y.",
"Y.Y.Y.Y.Y.Y.Y.Y.Y.Y.Y.Y.Y.Y.Y.Y.b n n z ; O Y.Y.v B n z ; + Y.Y.v n n x ; @ Y.Y.v n n b Y.Y.Y.Y.Y.Y.Y.Y.Y.Y.Y.Y.Y.Y.Y.Y.Y.Y.Y.Y.",
"Y.Y.Y.Y.Y.Y.Y.Y.Y.Y.Y.Y.Y.Y.Y.Y.+ + O # # # Y.Y.O O + + @ # Y.Y.+ + + + @ # Y.Y.+ + + + Y.Y.Y.Y.Y.Y.Y.Y.Y.Y.Y.Y.Y.Y.Y.Y.Y.Y.Y.Y.",
"Y.Y.Y.Y.Y.Y.Y.Y.Y.Y.Y.Y.Y.Y.Y.Y.Y.Y.Y.Y.Y.Y.Y.Y.Y.Y.Y.Y.Y.Y.Y.Y.Y.Y.Y.Y.Y.Y.Y.Y.Y.Y.Y.Y.Y.Y.Y.Y.Y.Y.Y.Y.Y.Y.Y.Y.Y.Y.Y.Y.Y.Y.Y.Y.",
"Y.Y.Y.Y.Y.Y.Y.Y.Y.Y.Y.Y.Y.Y.Y.Y.Y.Y.Y.Y.Y.Y.Y.Y.Y.Y.Y.Y.Y.Y.Y.Y.Y.Y.Y.Y.Y.Y.Y.Y.Y.Y.Y.Y.Y.Y.Y.Y.Y.Y.Y.Y.Y.Y.Y.Y.Y.Y.Y.Y.Y.Y.Y.Y.",
"Y.Y.Y.Y.Y.Y.Y.Y.Y.Y.Y.Y.Y.Y.Y.Y.Y.Y.Y.Y.Y.Y.Y.Y.Y.Y.Y.Y.Y.Y.Y.Y.Y.Y.Y.Y.Y.Y.Y.Y.Y.Y.Y.Y.Y.Y.Y.Y.Y.Y.Y.Y.Y.Y.Y.Y.Y.Y.Y.Y.Y.Y.Y.Y.",
"Y.Y.Y.Y.Y.Y.Y.Y.Y.Y.Y.Y.Y.Y.Y.Y.Y.Y.Y.Y.Y.Y.Y.Y.Y.Y.Y.Y.Y.Y.Y.Y.Y.Y.Y.Y.Y.Y.Y.Y.Y.Y.Y.Y.Y.Y.Y.Y.Y.Y.Y.Y.Y.Y.Y.Y.Y.Y.Y.Y.Y.Y.Y.Y."
};
