/* XPM */
static char *result[] = {
/* columns rows colors chars-per-pixel */
"64 64 163 2 ",
"   c #24221E",
".  c #3A2E1C",
"X  c #342B1E",
"o  c #3D311E",
"O  c #272421",
"+  c #292622",
"@  c #2D2A27",
"#  c #2B2A28",
"$  c #322D25",
"%  c #382F23",
"&  c #322E28",
"*  c #3D3323",
"=  c #35312A",
"-  c #3A332A",
";  c #373431",
":  c #44341C",
">  c #49361B",
",  c #433117",
"<  c #593C11",
"1  c #543D1A",
"2  c #413423",
"3  c #4E3B21",
"4  c #41392D",
"5  c #483B28",
"6  c #453D33",
"7  c #59411E",
"8  c #67430E",
"9  c #64461A",
"0  c #66481C",
"q  c #6B4A1A",
"w  c #734E17",
"e  c #765017",
"r  c #77521B",
"t  c #584221",
"y  c #5F4929",
"u  c #4A4134",
"i  c #4C453E",
"p  c #614720",
"a  c #664B23",
"s  c #6A4E23",
"d  c #604929",
"f  c #745323",
"g  c #62533D",
"h  c #6B5638",
"j  c #695437",
"k  c #745E3E",
"l  c #4A4641",
"z  c #4D4943",
"x  c #514C46",
"c  c #544F49",
"v  c #56514B",
"b  c #59534D",
"n  c #5F584F",
"m  c #5A5651",
"M  c #5F5950",
"N  c #6B5B44",
"B  c #61574A",
"V  c #645B4D",
"C  c #6C5E4A",
"Z  c #625440",
"A  c #695E51",
"S  c #756043",
"D  c #7B674A",
"F  c #7A6649",
"G  c #666058",
"H  c #736C62",
"J  c #777067",
"K  c #777068",
"L  c #7A736B",
"P  c #834F02",
"I  c #895509",
"U  c #925500",
"Y  c #9E6108",
"T  c #8E672D",
"R  c #8E682F",
"E  c #9F6C23",
"W  c #8A6939",
"Q  c #976F36",
"!  c #9B7133",
"~  c #A66F21",
"^  c #AC782E",
"/  c #AC6F3E",
"(  c #A27636",
")  c #A67438",
"_  c #AD703F",
"`  c #A67C3E",
"'  c #876D47",
"]  c #97774A",
"[  c #AD7040",
"{  c #80766A",
"}  c #847B6F",
"|  c #927E64",
" . c #847B70",
".. c #C36251",
"X. c #9F8053",
"o. c #AD874F",
"O. c #AD8750",
"+. c #AF8850",
"@. c #A28255",
"#. c #B78F56",
"$. c #B18E5A",
"%. c #B89057",
"&. c #B4905C",
"*. c #9A866A",
"=. c #9B8668",
"-. c #8C847B",
";. c #918677",
":. c #92897E",
">. c #988B7B",
",. c #AE9777",
"<. c #A6947A",
"1. c #BFA176",
"2. c #C3A275",
"3. c #8E8880",
"4. c #958D84",
"5. c #998F83",
"6. c #9B9184",
"7. c #9C9389",
"8. c #A19687",
"9. c #A39689",
"0. c #A69B8C",
"q. c #AC9E8E",
"w. c #AA9880",
"e. c #B39E82",
"r. c #ADA194",
"t. c #AEA499",
"y. c #B2A596",
"u. c #B5AA9E",
"i. c #BCAE9C",
"p. c #B5ABA0",
"a. c #B9AEA2",
"s. c #BDB2A5",
"d. c #BEB4A9",
"f. c #C7AD88",
"g. c #C1B29E",
"h. c #CAB497",
"j. c #D1B795",
"k. c #C4B5A3",
"l. c #CAB9A4",
"z. c #C2B6A9",
"x. c #C4B9AC",
"c. c #CBBDAB",
"v. c #C8B7A5",
"b. c #D2BEA3",
"n. c #CBBEB0",
"m. c #CFC0AF",
"M. c #D5C1A5",
"N. c #D4C3AD",
"B. c #D9C6AF",
"V. c #CDC1B2",
"C. c #D3C4B5",
"Z. c #DCC9B2",
"A. c #D7CABC",
"S. c #DACDBE",
"D. c #DED0BE",
"F. c #E0D0BE",
"G. c #DBCEC1",
"H. c #DED1C2",
"J. c #E2D5C5",
"K. c #E3D7C8",
"L. c #E6D9CA",
"P. c #E9DCCC",
"I. c None",
/* pixels */
"I.I.I.I.I.I.I.I.I.I.I.I.I.I.I.I.I.I.I.I.I.I.I.I.I.I.I.I.I.I.I.I.I.I.I.I.I.I.I.I.I.I.I.I.I.I.I.I.I.I.I.I.I.I.I.I.I.I.I.I.I.I.I.I.",
"I.I.I.I.I.I.I.I.I.I.I.I.I.I.I.I.I.I.I.I.I.I.I.I.I.I.I.I.I.I.I.I.I.I.I.I.I.I.I.I.I.I.I.I.I.I.I.I.I.I.I.I.I.I.I.I.I.I.I.I.I.I.I.I.",
"I.I.I.I.I.I.I.I.I.I.I.I.I.I.I.I.I.I.I.I.I.I.I.I.I.I.I.I.I.I.I.I.I.I.I.I.I.I.I.I.I.I.I.I.I.I.I.I.I.I.I.I.I.I.I.I.I.I.I.I.I.I.I.I.",
"I.I.I.I.I.I.I.I.I.I.I.I.I.I.I.I.I.I.I.I.I.I.I.I.I.I.I.I.I.I.I.I.I.I.I.I.I.I.I.I.I.I.I.I.I.I.I.I.I.I.I.I.I.I.I.I.I.I.I.I.I.I.I.I.",
"I.I.I.I.I.I.I.I.I.I.I.I.I.I.I.I.I.I.I.I.I.I.I.I.I.I.I.I.I.I.I.I.I.I.I.I.I.I.I.I.I.I.I.I.I.I.I.I.I.I.I.I.I.I.I.I.I.I.I.I.I.I.I.I.",
"I.I.I.I.I.I.I.I.I.I.I.I.I.I.I.I.I.I.I.I.I.I.I.I.I.I.I.I.I.I.I.I.I.I.I.I.I.I.I.I.I.I.I.I.I.I.I.I.I.I.I.I.I.I.I.I.I.I.I.I.I.I.I.I.",
"I.I.I.I.I.I.I.I.I.I.I.I.I.I.I.I.I.I.I.I.I.I.I.I.I.I.I.I.I.I.I.I.I.I.I.I.I.I.I.I.I.I.I.I.I.I.I.I.I.I.I.I.I.I.I.I.I.I.I.I.I.I.I.I.",
"I.I.I.I.I.I.I.I.I.I.I.I.I.I.I.I.I.I.I.I.I.I.I.I.I.I.I.I.I.I.I.I.I.I.I.I.I.I.I.I.I.I.I.I.I.I.I.I.I.I.I.I.I.I.I.I.I.I.I.I.I.I.I.I.",
"I.I.I.I.I.I.I.I.I.I.I.I.I.I.I.I.I.I.I.I.I.I.I.I.I.I.I.I.I.I.I.I.I.I.I.I.I.I.I.I.I.I.I.I.I.I.I.I.I.I.I.I.I.I.I.I.I.I.I.I.I.I.I.I.",
"I.I.I.I.I.I.I.I.I.I.I.I.I.I.I.I.I.I.I.I.I.I.I.I.I.I.I.I.I.I.I.I.I.I.I.I.I.I.I.I.I.I.I.I.I.I.I.I.I.I.I.I.I.I.I.I.I.I.I.I.I.I.I.I.",
"I.I.I.I.I.I.I.I.I.I.I.I.I.I.I.I.I.I.I.I.I.I.I.I.I.I.I.I.I.I.I.I.I.I.I.I.I.I.I.I.I.I.I.I.I.I.I.I.I.I.I.I.I.I.I.I.I.I.I.I.I.I.I.I.",
"I.I.I.I.I.I.I.I.I.I.I.I.I.I.I.I.I.I.I.I.I.I.I.I.I.I.I.I.I.I.I.I.I.I.I.I.I.I.I.I.I.I.I.I.I.I.I.I.I.I.I.I.I.I.I.I.I.I.I.I.I.I.I.I.",
"I.I.I.I.I.I.I.I.I.I.I.I.I.I.I.I.I.I.I.I.I.I.I.I.I.I.I.I.I.I.I.I.I.I.I.I.I.I.I.I.I.I.I.I.I.I.I.I.I.I.I.I.I.I.I.I.I.I.I.I.I.I.I.I.",
"I.I.I.I.I.I.I.I.I.I.I.I.I.I.I.I.I.I.I.I.I.I.I.I.I.I.I.I.I.I.I.I.I.I.I.I.I.I.I.I.I.I.I.I.I.I.I.I.I.I.I.I.I.I.I.I.I.I.I.I.I.I.I.I.",
"I.I.I.I.I.I.I.I.I.I.I.I.I.I.I.I.I.I.I.I.I.I.I.I.I.I.I.I.I.I.I.I.I.I.I.I.I.I.I.I.I.I.I.I.I.I.I.I.I.I.I.I.I.I.I.I.I.I.I.I.I.I.I.I.",
"I.I.I.I.I.I.I.I.I.I.I.I.I.I.I.I.I.I.I.I.I.I.I.I.I.I.I.I.I.I.I.I.I.I.I.I.I.I.I.I.I.I.I.I.I.I.I.I.I.I.I.I.I.I.I.I.I.I.I.I.I.I.I.I.",
"I.I.I.I.I.I.I.I.I.I.I.I.I.I.I.I.I.I.I.I.I.I.I.I.I.I.I.I.I.I.I.I.I.I.I.I.I.I.I.I.I.I.I.I.I.I.I.I.I.I.I.I.I.I.I.I.I.I.I.I.I.I.I.I.",
"I.I.I.I.I.I.I.I.I.I.I.I.I.I.I.I.I.I.I.I.I.I.I.I.I.I.I.I.I.I.I.I.I.I.I.I.I.I.I.I.I.I.I.I.I.I.I.I.I.I.I.I.I.I.I.I.I.I.I.I.I.I.I.I.",
"I.I.I.I.I.I.I.I.I.I.I.I.I.I.I.I.I.I.I.I.I.I.I.I.I.I.I.I.I.I.I.I.I.I.I.I.I.I.I.I.I.I.I.I.I.I.I.I.I.I.I.I.I.I.I.I.I.I.I.I.I.I.I.I.",
"I.I.I.I.I.I.I.I.I.I.I.I.I.I.I.I.I.I.I.I.I.I.I.I.I.I.I.I.I.I.I.I.I.I.I.I.I.I.I.I.I.I.I.I.I.I.I.I.I.I.I.I.I.I.I.I.I.I.I.I.I.I.I.I.",
"I.I.I.I.@ @ I.I.I.I.I.I.I.I.I.I.I.I.I.I.I.I.I.I.I.I.I.I.I.I.I.I.@ @ @ @ @ # I.I.I.I.I.I.I.I.@ @ @ # # # I.I.I.I.I.I.I.I.I.I.I.I.",
"I.I.I.I.* * I.I.I.I.I.I.I.I.I.I.I.I.I.I.I.I.I.I.I.I.I.I.I.I.I.I.& & & & & & I.I.I.I.I.I.I.I.- 2 2 * * % I.I.I.I.I.I.I.I.I.I.I.I.",
"I.I.# * 7 7 * @ I.I.I.I.I.I.I.I.I.I.I.I.I.I.I.I.I.I.I.I.I.I.@ & = - - = - = = @ I.I.I.I.@ * t a a p 1 : % # I.I.I.I.I.I.I.I.I.I.",
"I.I.@ 2 q 0 * # I.I.I.I.I.I.I.I.I.I.I.I.I.I.I.I.I.I.I.I.I.I.@ & = - - - - - @ @ I.I.I.I.@ * s f s a 9 1 * # I.I.I.I.I.I.I.I.I.I.",
"I.I.@ 2 9 0 * # I.I.I.I.I.I.I.I.I.I.I.I.I.I.I.I.I.I.I.I.I.I.& & * = & & - - & @ I.I.I.I.# 2 a s 3 2 1 1 * # I.I.I.I.I.I.I.I.I.I.",
"I.I.@ * 0 q 3 * I.I.I.I.I.I.I.I.I.I.I.I.I.I.I.I.I.I.I.I.I.I.@ & = = & & = & % & I.I.I.I.% 2 t 7 2 o > > % @ I.I.I.I.I.I.I.I.I.I.",
"I.I.@ * 0 e q 7 * # I.I.I.I.I.I.I.I.I.I.I.I.I.I.I.I.I.I.I.I.@ @ & & = = & & = & @   + X , > : o > > o % @ @ I.I.I.I.I.I.I.I.I.I.",
"I.I.@ * 7 q e q 3 * I.I.I.I.I.I.I.I.I.I.I.I.I.I.I.I.I.I.I.I.@ @ @ % - - & = - 6 x b b B S S n B S h 5 $ & # I.I.I.I.I.I.I.I.I.I.",
"I.I.I.I.* 3 q e q 7 * # I.I.I.I.I.I.I.I.I.I.I.I.I.I.I.I.I.I.@ & = - - - - - 4 B 6.u.u.u.g.i.u.a.g.<.h , % @ I.I.I.I.I.I.I.I.I.I.",
"I.I.I.I.# * 7 q w 9 * # I.I.I.I.I.I.I.I.I.I.I.I.I.I.I.I.I.I.& & - 4 - - - u V ;.m.P.P.L.K.L.L.L.P.c.=.j - + I.I.I.I.I.I.I.I.I.I.",
"I.I.I.I.I.I.* 3 q 9 * O I.I.I.I.I.I.I.I.I.I.I.I.I.I.I.I.@ & = - - - - - 4 V 8.m.J.K.L.J.J.J.K.K.K.D.b.>.z   I.I.I.I.I.I.I.I.I.I.",
"I.I.I.I.I.I.# * 9 f Z v I.I.I.I.I.I.I.I.I.I.I.I.I.I.I.I.@ & - - - - - u V ;.c.H.c.c.S.K.L.J.J.K.K.D.N.r.H c I.I.I.I.I.I.I.I.I.I.",
"I.I.I.I.I.I.# o 9 W w.7.v + I.I.I.I.I.I.I.I.I.I.I.I.I.I.# & * - - - 4 V 9.V.H.c.=.*.c.L.K.K.K.K.L.m.=.=.q.6.b + I.I.I.I.I.I.I.I.",
"I.I.I.I.I.I.# * 1 ' l.a.b O I.I.I.I.I.I.I.I.I.I.I.I.I.I.@ & - 4 4 i V ;.m.P.L.i.F k e.M.M.M.l.M.M.e.k F k.a.b + I.I.I.I.I.I.I.I.",
"I.I.I.I.I.I.I.I.. C s.u.b   I.I.I.I.I.I.I.I.I.I.I.I.I.I.# = 6 u u A 0.V.H.L.L.i.N d ] &.&.&.&.&.&.] y C k.a.b + I.I.I.I.I.I.I.I.",
"I.I.I.I.I.I.I.I.O b a.x.L x I.I.I.I.I.I.I.I.I.I.I.I.I.I.@ = 6 6 5 V 6.x.S.K.K.g.D s R ( ! ) _ _ ( R a D k.a.m + I.I.I.I.I.I.I.I.",
"I.I.I.I.I.I.I.I.O b u.H.x.6.x   I.I.I.I.I.I.I.I.I.I.I.I.@ & = = = - i L z.L.L.l.X.T ! ( ( _ ....[ ! R @.c.u.b + I.I.I.I.I.I.I.I.",
"I.I.I.I.I.I.I.I.# v u.L.P.z.L x I.I.I.I.I.I.I.I.I.I.I.I.@ @ # ; z b v L z.L.K.N.1.+.` ( ! _ ...._ ` +.2.Z.i.b + I.I.I.I.I.I.I.I.",
"I.I.I.I.I.I.I.I.+ b u.L.L.S.z.5.x   O + + + + O + O + # @ + O c 4.d.a.d.D.K.K.F.B.f.o.( ( ) _ / ) o.f.Z.K.a.b O I.I.I.I.I.I.I.I.",
"I.I.I.I.I.I.I.I.+ b u.L.L.K.L.z.L v v v v b b b b b b z = @ * h 6.s.s.i.u.s.A.K.K.N.1.$.$.&.&.$.$.1.B.H.x.6.c O I.I.I.I.I.I.I.I.",
"I.I.I.I.I.I.I.I.+ b u.P.L.J.L.S.s.u.u.u.u.u.u.u.u.u.a.4.l . 8 f Z b n v c J z.K.K.F.B.b.b.b.b.c.b.B.J.x.L x I.I.I.I.I.I.I.I.I.I.",
"I.I.I.I.I.I.I.I.+ c 6.z.S.J.J.J.K.K.L.K.K.L.L.J.L.L.L.x.L j I P 7 . + = i L z.L.L.J.K.L.L.L.L.L.L.G.x.5.z   I.I.I.I.I.I.I.I.I.I.",
"I.I.I.I.I.I.I.I.I.I.x L s.L.J.J.K.K.K.J.J.J.J.K.J.K.K.S.z.,.E U P 8 . l 4.x.G.L.L.L.L.L.K.L.L.L.P.x.L x I.I.I.I.I.I.I.I.I.I.I.I.",
"I.I.I.I.I.I.I.I.I.I.  v u.L.L.L.J.J.J.J.J.J.J.J.J.J.J.J.L.M.%.~ Y e < g 6.a.u.u.u.u.u.u.u.u.a.a.a.4.x   I.I.I.I.I.I.I.I.I.I.I.I.",
"I.I.I.I.I.I.I.I.I.I.O v u.P.P.J.J.J.J.J.J.J.J.J.H.J.J.J.L.F.M.2.~ U P w g c c v b b v c v v b b b c I.I.I.I.I.I.I.I.I.I.I.I.I.I.",
"I.I.I.I.I.I.I.I.I.I.+ v 6.i.u.z.A.J.J.J.J.J.J.J.J.J.J.J.J.J.K.M.#.^ ^ Q N c c i & = i v v i = + O + I.I.I.I.I.I.I.I.I.I.I.I.I.I.",
"I.I.I.I.I.I.I.I.I.I.I.I.v v v L z.J.J.J.J.J.J.J.J.J.J.J.J.J.J.S.j.j.j.h.u.u.p.:.i i >.s.a.:.z O I.I.I.I.I.I.I.I.I.I.I.I.I.I.I.I.",
"I.I.I.I.I.I.I.I.I.I.I.I.O     b u.L.J.J.J.J.J.F.J.H.J.J.J.J.J.J.L.L.L.L.K.P.P.x.{ { x.P.P.u.b + I.I.I.I.I.I.I.I.I.I.I.I.I.I.I.I.",
"I.I.I.I.I.I.I.I.I.I.I.I.I.I.O v u.K.K.J.J.J.J.J.J.J.J.F.J.J.J.J.J.K.K.J.J.K.J.S.z.z.S.L.P.u.b + I.I.I.I.I.I.I.I.I.I.I.I.I.I.I.I.",
"I.I.I.I.I.I.I.I.I.I.I.I.I.I.O b u.L.J.J.J.J.J.J.J.J.J.J.J.J.J.J.J.J.J.J.J.J.J.J.J.L.J.K.L.u.b O I.I.I.I.I.I.I.I.I.I.I.I.I.I.I.I.",
"I.I.I.I.I.I.I.I.I.I.I.I.I.I.+ b u.K.J.J.J.J.J.J.H.J.J.H.J.J.J.J.J.J.J.J.J.J.J.J.J.K.J.L.P.a.b + I.I.I.I.I.I.I.I.I.I.I.I.I.I.I.I.",
"I.I.I.I.I.I.I.I.I.I.I.I.I.I.O b u.L.K.J.J.J.J.J.J.J.J.J.J.J.J.J.J.J.J.J.K.J.J.J.J.J.J.S.z.6.c + I.I.I.I.I.I.I.I.I.I.I.I.I.I.I.I.",
"I.I.I.I.I.I.I.I.I.I.I.I.I.I.+ b u.L.J.J.J.J.K.J.J.J.J.J.J.K.L.J.J.J.J.K.K.J.J.J.J.J.L.z.L c I.I.I.I.I.I.I.I.I.I.I.I.I.I.I.I.I.I.",
"I.I.I.I.I.I.I.I.I.I.I.I.I.I.+ v t.H.J.J.K.S.c.x.C.D.J.H.G.C.x.x.A.H.S.C.x.x.G.J.D.S.S.r.x   I.I.I.I.I.I.I.I.I.I.I.I.I.I.I.I.I.I.",
"I.I.I.I.I.I.I.I.I.I.I.I.I.I.+ x 9.C.H.K.L.n.-. .y.C.H.H.C.y.} ;.x.S.c.y.} -.c.J.c.v.v.6.z O I.I.I.I.I.I.I.I.I.I.I.I.I.I.I.I.I.I.",
"I.I.I.I.I.I.I.I.I.I.I.I.I.I.+ x 9.C.H.S.x.4.b m 0.C.H.C.r.{ i G s.J.C.9.V b 4.a.k.v.v.8.x # I.I.I.I.I.I.I.I.I.I.I.I.I.I.I.I.I.I.",
"I.I.I.I.I.I.I.I.I.I.I.I.I.I.+ v r.H.H.d.L l ; b t.H.K.d.H 6 = m p.K.H.t.b ; l K p.G.G.r.c O I.I.I.I.I.I.I.I.I.I.I.I.I.I.I.I.I.I.",
"I.I.I.I.I.I.I.I.I.I.I.I.I.I.+ v 4.p.p.3.l O O b 4.p.p.-.l O O v 4.p.p.3.l O   x 4.p.p.4.c O I.I.I.I.I.I.I.I.I.I.I.I.I.I.I.I.I.I.",
"I.I.I.I.I.I.I.I.I.I.I.I.I.I.I.I.c b b l ; O I.I.c b v z ; # I.I.c b b l = @ I.I.c b b c I.I.I.I.I.I.I.I.I.I.I.I.I.I.I.I.I.I.I.I.",
"I.I.I.I.I.I.I.I.I.I.I.I.I.I.I.I.+ O # # # # I.I.O O + + # @ I.I.+ + O # # # I.I.+ + + + I.I.I.I.I.I.I.I.I.I.I.I.I.I.I.I.I.I.I.I.",
"I.I.I.I.I.I.I.I.I.I.I.I.I.I.I.I.I.I.I.I.I.I.I.I.I.I.I.I.I.I.I.I.I.I.I.I.I.I.I.I.I.I.I.I.I.I.I.I.I.I.I.I.I.I.I.I.I.I.I.I.I.I.I.I.",
"I.I.I.I.I.I.I.I.I.I.I.I.I.I.I.I.I.I.I.I.I.I.I.I.I.I.I.I.I.I.I.I.I.I.I.I.I.I.I.I.I.I.I.I.I.I.I.I.I.I.I.I.I.I.I.I.I.I.I.I.I.I.I.I.",
"I.I.I.I.I.I.I.I.I.I.I.I.I.I.I.I.I.I.I.I.I.I.I.I.I.I.I.I.I.I.I.I.I.I.I.I.I.I.I.I.I.I.I.I.I.I.I.I.I.I.I.I.I.I.I.I.I.I.I.I.I.I.I.I.",
"I.I.I.I.I.I.I.I.I.I.I.I.I.I.I.I.I.I.I.I.I.I.I.I.I.I.I.I.I.I.I.I.I.I.I.I.I.I.I.I.I.I.I.I.I.I.I.I.I.I.I.I.I.I.I.I.I.I.I.I.I.I.I.I."
};
