/* XPM */
static char *result[] = {
/* columns rows colors chars-per-pixel */
"64 64 174 2 ",
"   c #24221E",
".  c #3A2E1D",
"X  c #342B1E",
"o  c #3E311E",
"O  c #262421",
"+  c #292622",
"@  c #2D2A27",
"#  c #2C2A28",
"$  c #322C24",
"%  c #392F22",
"&  c #322E28",
"*  c #3D3324",
"=  c #36312A",
"-  c #3A332A",
";  c #373431",
":  c #423117",
">  c #433219",
",  c #49361B",
"<  c #4C391E",
"1  c #593D13",
"2  c #543D1A",
"3  c #573A11",
"4  c #413423",
"5  c #4E3C22",
"6  c #423A2D",
"7  c #483B28",
"8  c #453D32",
"9  c #59411D",
"0  c #6A450E",
"q  c #7B4B05",
"w  c #774B09",
"e  c #64461A",
"r  c #66481B",
"t  c #6B4A19",
"y  c #694816",
"u  c #754F16",
"i  c #765017",
"p  c #76511C",
"a  c #584221",
"s  c #5F4929",
"d  c #4A4134",
"f  c #4A443D",
"g  c #614720",
"h  c #664B23",
"j  c #6A4E23",
"k  c #604929",
"l  c #745423",
"z  c #6B5637",
"x  c #62533F",
"c  c #6A5639",
"v  c #745E3E",
"b  c #79603B",
"n  c #4A4641",
"m  c #4E4943",
"M  c #514C46",
"N  c #544F49",
"B  c #56524C",
"V  c #59544D",
"C  c #5A5651",
"Z  c #5B5752",
"A  c #625541",
"S  c #61574A",
"D  c #645B4D",
"F  c #6F5F48",
"G  c #6C5C45",
"H  c #625B54",
"J  c #675F55",
"K  c #756043",
"L  c #7B674A",
"P  c #7A6649",
"I  c #676058",
"U  c #6A635A",
"Y  c #736B61",
"T  c #777067",
"R  c #7A736B",
"E  c #77716A",
"W  c #834E02",
"Q  c #855003",
"!  c #805009",
"~  c #8F5300",
"^  c #925500",
"/  c #8B5912",
"(  c #9F6108",
")  c #8E672D",
"_  c #8E682F",
"`  c #9F6D24",
"'  c #8A6938",
"]  c #9B7133",
"[  c #A46F23",
"{  c #AA772E",
"}  c #AC6F3E",
"|  c #A27636",
" . c #AE7B32",
".. c #A67438",
"X. c #AD703F",
"o. c #A67C3E",
"O. c #97774A",
"+. c #AD7040",
"@. c #827A6E",
"#. c #927E64",
"$. c #C36251",
"%. c #9F8053",
"&. c #AD874F",
"*. c #AF8850",
"=. c #A88553",
"-. c #B18E5A",
";. c #B78F56",
":. c #B89057",
">. c #B4905C",
",. c #9A866A",
"<. c #9B8668",
"1. c #8A8277",
"2. c #8D867E",
"3. c #918677",
"4. c #988B7B",
"5. c #AF9777",
"6. c #A6947A",
"7. c #B09776",
"8. c #BFA176",
"9. c #C2A070",
"0. c #C3A479",
"q. c #8F8880",
"w. c #958D84",
"e. c #988F84",
"r. c #9B9084",
"t. c #9B9388",
"y. c #A29685",
"u. c #A29688",
"i. c #A69A8B",
"p. c #AC9E8E",
"a. c #AA9880",
"s. c #B39E82",
"d. c #A89E93",
"f. c #ADA194",
"g. c #AEA69C",
"h. c #B0A79E",
"j. c #B4AA9E",
"k. c #BDAE9C",
"l. c #B2A596",
"z. c #B4ABA1",
"x. c #B9AEA2",
"c. c #BCB2A5",
"v. c #BCB3A9",
"b. c #C7AD88",
"n. c #C1B29E",
"m. c #CFB695",
"M. c #D5BB99",
"N. c #D2B896",
"B. c #C5B5A3",
"V. c #C2B6AA",
"C. c #C4B9AC",
"Z. c #CDBDAB",
"A. c #CAB8A3",
"S. c #D2BEA3",
"D. c #CBBEB0",
"F. c #D5C1A5",
"G. c #D4C3AD",
"H. c #D9C6AF",
"J. c #CDC0B1",
"K. c #D1C4B4",
"L. c #DCC9B2",
"P. c #D5CABD",
"I. c #DACDBE",
"U. c #D3C7BA",
"Y. c #DED0BE",
"T. c #E0D0BE",
"R. c #DBCEC0",
"E. c #DED1C3",
"W. c #DFD5CA",
"Q. c #E2D5C5",
"!. c #E3D7C8",
"~. c #E5D9CA",
"^. c #E9DCCD",
"/. c None",
/* pixels */
"/./././././././././././././././././././././././././././././././././././././././././././././././././././././././././././././././.",
"/./././././././././././././././././././././././././././././././././././././././././././././././././././././././././././././././.",
"/./././././././././././././././././././././././././././././././././././././././././././././././././././././././././././././././.",
"/./././././././././././././././././././././././././././././././././././././././././././././././././././././././././././././././.",
"/./././././././././././././././././././././././././././././././././././././././././././././././././././././././././././././././.",
"/./././././././././././././././././././././././././././././././././././././././././././././././././././././././././././././././.",
"/./././././././././././././././././././././././././././././././././././././././././././././././././././././././././././././././.",
"/./././././././././././././././././././././././././././././././././././././././././././././././././././././././././././././././.",
"/./././././././././././././././././././././././././././././././././././././././././././././././././././././././././././././././.",
"/./././././././././././././././././././././././././././././././././././././././././././././././././././././././././././././././.",
"/./././././././././././././././././././././././././././././././././././././././././././././././././././././././././././././././.",
"/./././././././././././././././././././././././././././././././././././././././././././././././././././././././././././././././.",
"/./././././././././././././././././././././././././././././././././././././././././././././././././././././././././././././././.",
"/./././././././././././././././././././././././././././././././././././././././././././././././././././././././././././././././.",
"/./././././././././././././././././././././././././././././././././././././././././././././././././././././././././././././././.",
"/./././././././././././././././././././././././././././././././././././././././././././././././././././././././././././././././.",
"/./././././././././././././././././././././././././././././././.@ @ @ @ @ @ /./././././././.@ @ @ # # # /./././././././././././.",
"/./././././././././././././././././././././././././././././././.& & & @ = & /./././././././.- * 4 * * * /./././././././././././.",
"/./././././././././././././.@ @ /./././././././././././././.@ & = - = * = = @ @ /./././.@ * a h h a 2 4 % # /./././././././././.",
"/./././././././././././././.* * /./././././././././././././.@ & - - - - - - & @ /./././.@ 6 h l j r e 2 * # /./././././././././.",
"/./././././././././././.@ 4 9 9 * # /./././././././././././.@ & = - $ = - * @ @ /./././.# * h j 5 7 2 2 * # /./././././././././.",
"/./././././././././././.@ * t r 4 @ /./././././././././././.@ & = = & & = = & & /./././.% > a 9 4 o , , $ @ /./././././././././.",
"/./././././././././././.# * r r 4 @ /./././././././././././.@ & @ & = = & & = $ @ + + X , , > o , , > $ & @ /./././././././././.",
"/./././././././././././.# 4 e r 4 # /./././././././././././.@ @ @ = - * = & - 8 M V V S K K Z S K z 7 $ $ @ /./././././././././.",
"/./././././././././././.# * r r * @ /./././././././././././.@ & = * - - - - 7 H r.j.j.j.n.n.j.k.n.6.z : % @ /./././././././././.",
"/./././././././././././.* 5 t r 4 @ /./././././././././././.& & - - - - - d D 3.J.^.^.~.~.Q.~.^.~.Z.<.c - # /./././././././././.",
"/./././././././././.# * 9 t i r * # /./././././././././.@ & - - - - - - 6 D u.J.E.^.!.Q.Q.~.Q.~.!.T.Z.4.f   /./././././././././.",
"/./././././././././.% < t i r 2 * @ /./././././././././.@ & - - - - - d D 3.D.T.Z.C.Y.!.Q.Q.Q.Q.!.Y.G.p.Y B /./././././././././.",
"/./././././././.# * 9 y u t 5 * /./././././././././././.@ & = - - - 6 D u.J.E.Z.,.,.Z.!.~.Q.!.!.~.Z.,.<.p.t.B + /./././././././.",
"/./././././././.# 7 b ' l 9 * # /./././././././././././.@ & - 6 6 f D 3.J.^.~.k.P b s.F.F.S.Z.F.F.s.v P B.x.V + /./././././././.",
"/./././././././.+ M y.6.A . /./././././././././././././.@ = 8 d d F i.J.Y.~.~.k.G k O.>.>.-.-.>.>.O.s G B.z.V + /./././././././.",
"/./././././././.+ C c.x.V O /./././././././././././././.# = 8 8 8 D r.V.I.~.~.k.L h _ | | ..X.X..._ j L B.x.C + /./././././././.",
"/./././././././.+ Z x.x.V   /./././././././././././././.# & & = = = f R v.^.Q.A.%.) ] | | X.$.$.} ] ) =.S.z.V + /./././././././.",
"/./././././././.+ V k.V.R N /./././././././././././././.$ # # ; m V B R V.^.~.H.8.*.o.| | X.$.$.} o.&.0.L.x.V + /./././././././.",
"/./././././././.+ V j.E.C.e.M   /./././././././././././././.+ M e.c.x.V.Y.~.Q.Y.H.b.*.] ] ..X.....&.b.L.!.j.V + /./././././././.",
"/./././././././.+ V j.~.^.V.R M /./././././././././././././.> A t.c.c.z.j.c.I.Q.~.H.8.-.>.>.>.-.-.8.L.R.C.e.N + /./././././././.",
"/./././././././.+ V j.!.^.I.B.e.N     +     $   + + + + O : 0 p x C Z V M T c.~.Q.Y.H.S.Z.F.F.S.A.H.!.V.R M /./././././././././.",
"/./././././././.+ V j.~.!.!.~.V.R N V V V V V V V V B B B z / Q 1 . @ & f R V.^.^.Q.~.~.~.~.!.~.~.R.V.e.M   /./././././././././.",
"/./././././././.+ V k.^.!.Q.!.I.B.j.j.j.j.j.j.j.j.j.h.z.x.5.[ ^ Q 0 . n w.C.E.~.^.~.~.~.~.~.~.^.^.C.R m /./././././././././././.",
"/./././././././.+ N e.V.I.Q.Q.Q.!.~.!.!.!.~.!.!.~.~.~.~.~.F.:.[ ( q 1 x r.c.z.j.j.j.j.j.j.j.z.z.z.r.M   /./././././././././././.",
"/./././././././././.N R B.!.!.Q.Q.!.Q.Q.!.Q.Q.!.Q.!.Q.!.!.T.F.9.[ ^ Q i x V C B V C V V B C B V V N /./././././././././././././.",
"/./././././././././.  V j.~.^.!.Q.Q.Q.Q.Q.Q.Q.Q.E.Q.Q.Q.Q.!.~.F.;.[ ( Q 3 . : : : > : o : : : o $ + /./././././././././././././.",
"/./././././././././.  V j.^.^.!.Q.Q.Q.Q.T.Q.Q.Q.Q.Q.Q.Q.Q.Q.Q.I.F.9.[ ^ W q q w w q q q w q q w /./././././././././././././././.",
"/./././././././././.+ V e.j.j.V.P.Q.Q.Q.Q.Q.Q.Q.Q.Q.E.Q.Q.Q.Q.!.~.F.;.{ {  . .[ / / [  . .{ / q /./././././././././././././././.",
"/./././././././././././.N V N R V.!.Q.Q.Q.Q.Q.Q.Q.Q.E.Q.Q.E.Q.Q.!.I.S.m.m.N.N.7.z z 7.M.M.7.c > /./././././././././././././././.",
"/./././././././././././.      V j.!.Q.Q.Q.Q.Q.Q.Q.Q.Q.Q.Q.Q.Q.Q.Q.Q.!.!.~.~.~.C.@.R V.^.^.z.B + /./././././././././././././././.",
"/./././././././././././././.  V j.!.!.Q.Q.T.Q.Q.E.Q.Q.Q.Q.Q.Q.Q.Q.E.!.Q.!.!.!.P.V.V.P.~.^.z.V + /./././././././././././././././.",
"/./././././././././././././.  V j.!.!.Q.Q.Q.Q.Q.Q.Q.Q.E.Q.Q.Q.Q.Q.Q.Q.Q.Q.Q.E.!.!.!.!.!.^.j.V + /./././././././././././././././.",
"/./././././././././././././.+ V j.!.Q.Q.Q.Q.Q.Q.Q.Q.Q.Q.Q.Q.Q.Q.Q.Q.Q.Q.Q.Q.Q.Q.!.Q.!.~.^.z.C + /./././././././././././././././.",
"/./././././././././././././.+ B j.!.~.Q.T.Q.!.Q.Q.Q.E.Q.Q.!.Q.Q.Q.Q.Q.Q.!.Q.Q.Q.Q.Q.!.P.V.e.N + /./././././././././././././././.",
"/./././././././././././././.+ V j.~.!.Q.Q.Q.Q.!.Q.Q.Q.Q.Q.!.!.Q.Q.Q.Q.!.!.Q.Q.Q.Q.!.~.V.R M /./././././././././././././././././.",
"/./././././././././././././.+ B f.Q.!.Q.!.I.Z.V.K.I.Q.E.I.K.V.Z.P.E.I.K.V.C.R.Q.T.I.I.d.M O /./././././././././././././././././.",
"/./././././././././././././.+ M i.K.E.!.!.C.1.@.l.K.E.I.Z.f.@.1.Z.E.Z.l.@.2.C.R.Z.B.A.y.m O /./././././././././././././././././.",
"/./././././././././././././.@ M t.J.R.!.~.c.U H i.K.R.R.K.i.H I x.R.D.y.H U c.R.Z.B.B.e.M + /./././././././././././././././././.",
"/./././././././././././././.+ N d.R.R.W.~.B.I H g.R.R.E.Q.j.H J z.W.R.f.H J z.W.R.U.U.p.N + /./././././././././././././././././.",
"/./././././././././././././.+ B g.W.W.P.V.w.N Z h.!.W.P.V.w.N H z.!.~.z.Z N q.x.U.W.!.z.V + /./././././././././././././././././.",
"/./././././././././././././.+ B h.W.W.v.R n ; C z.W.!.v.R n ; Z z.!.W.z.Z ; n E v.!.~.h.B + /./././././././././././././././././.",
"/./././././././././././././.+ N w.z.z.q.n O + N w.h.z.q.n   O N w.h.z.q.m O   m e.h.h.w.N + /./././././././././././././././././.",
"/./././././././././././././././.N B V n ; + /./.B V V n = + /./.N B B m ; # /./.N B B N /./././././././././././././././././././.",
"/./././././././././././././././.+ + + # + # /./.+ + + + & # /./.O + + + # # /./.+ + + + /./././././././././././././././././././.",
"/./././././././././././././././././././././././././././././././././././././././././././././././././././././././././././././././.",
"/./././././././././././././././././././././././././././././././././././././././././././././././././././././././././././././././.",
"/./././././././././././././././././././././././././././././././././././././././././././././././././././././././././././././././.",
"/./././././././././././././././././././././././././././././././././././././././././././././././././././././././././././././././."
};
