/* XPM */
static char *result[] = {
/* columns rows colors chars-per-pixel */
"64 64 171 2 ",
"   c #24211E",
".  c #392E1D",
"X  c #342B1E",
"o  c #3E311E",
"O  c #272422",
"+  c #292622",
"@  c #2D2A27",
"#  c #2B2A28",
"$  c #322C24",
"%  c #392F22",
"&  c #322E28",
"*  c #3D3324",
"=  c #36312A",
"-  c #3A332A",
";  c #373431",
":  c #423117",
">  c #433219",
",  c #49361B",
"<  c #4A391F",
"1  c #593D13",
"2  c #543D1A",
"3  c #573A11",
"4  c #423522",
"5  c #4D3B21",
"6  c #41392D",
"7  c #483B28",
"8  c #453D33",
"9  c #59411D",
"0  c #57401D",
"q  c #6A450E",
"w  c #7B4B05",
"e  c #774B09",
"r  c #684817",
"t  c #66481C",
"y  c #6B4A1A",
"u  c #614418",
"i  c #754F17",
"p  c #765017",
"a  c #76511C",
"s  c #584221",
"d  c #5F4929",
"f  c #4A4134",
"g  c #4B443C",
"h  c #664B23",
"j  c #6A4E23",
"k  c #614825",
"l  c #745323",
"z  c #6B5637",
"x  c #62533F",
"c  c #6A5639",
"v  c #745E3E",
"b  c #4A4641",
"n  c #4E4943",
"m  c #514C46",
"M  c #544F49",
"N  c #56524C",
"B  c #59534D",
"V  c #5F584F",
"C  c #5A5651",
"Z  c #5B5650",
"A  c #615440",
"S  c #61574A",
"D  c #655B4D",
"F  c #6F5F48",
"G  c #6C5C45",
"H  c #695E51",
"J  c #756043",
"K  c #7B674A",
"L  c #7A6649",
"P  c #666058",
"I  c #736C62",
"U  c #777067",
"Y  c #777068",
"T  c #7A736B",
"R  c #834E02",
"E  c #855003",
"W  c #805009",
"Q  c #8F5300",
"!  c #925500",
"~  c #8B5912",
"^  c #9F6108",
"/  c #8E672D",
"(  c #8E682F",
")  c #9F6D24",
"_  c #8A6939",
"`  c #9B7133",
"'  c #A46F23",
"]  c #AA772E",
"[  c #AC6F3E",
"{  c #A27636",
"}  c #AE7B32",
"|  c #A67438",
" . c #AD703F",
".. c #A67C3E",
"X. c #876C46",
"o. c #97774A",
"O. c #AD7040",
"+. c #847B6F",
"@. c #817569",
"#. c #927E64",
"$. c #847B70",
"%. c #C36251",
"&. c #9F8053",
"*. c #AD874F",
"=. c #AF8850",
"-. c #A88553",
";. c #B18E5A",
":. c #B78F56",
">. c #B89057",
",. c #B4905C",
"<. c #9A866A",
"1. c #9B8668",
"2. c #8C847B",
"3. c #918677",
"4. c #988B7B",
"5. c #AF9777",
"6. c #A8967D",
"7. c #B09776",
"8. c #BFA176",
"9. c #C2A070",
"0. c #C3A479",
"q. c #8E8880",
"w. c #958D84",
"e. c #988F84",
"r. c #9B9084",
"t. c #9A9288",
"y. c #A19687",
"u. c #A39689",
"i. c #A69B8C",
"p. c #AC9E8E",
"a. c #B39E82",
"s. c #ADA194",
"d. c #AEA499",
"f. c #B2A596",
"g. c #B4AA9E",
"h. c #BDAE9D",
"j. c #B4ABA0",
"k. c #B9AEA2",
"l. c #BDB2A6",
"z. c #BEB4A9",
"x. c #C7AD88",
"c. c #C1B29E",
"v. c #CFB695",
"b. c #D5BB99",
"n. c #D2B896",
"m. c #C4B5A3",
"M. c #CAB8A4",
"N. c #C2B6A9",
"B. c #C4B9AC",
"V. c #CBBDAB",
"C. c #C8B7A5",
"Z. c #D2BEA3",
"A. c #CBBEB0",
"S. c #CFC0AF",
"D. c #D5C1A5",
"F. c #D4C3AD",
"G. c #D9C6AF",
"H. c #CDC1B2",
"J. c #D3C4B5",
"K. c #DCC9B2",
"L. c #D7CABD",
"P. c #DACDBE",
"I. c #DED0BE",
"U. c #E0D0BE",
"Y. c #DBCEC1",
"T. c #DED1C2",
"R. c #E2D5C5",
"E. c #E3D7C8",
"W. c #E6D9CA",
"Q. c #E9DCCD",
"!. c None",
/* pixels */
"!.!.!.!.!.!.!.!.!.!.!.!.!.!.!.!.!.!.!.!.!.!.!.!.!.!.!.!.!.!.!.!.!.!.!.!.!.!.!.!.!.!.!.!.!.!.!.!.!.!.!.!.!.!.!.!.!.!.!.!.!.!.!.!.",
"!.!.!.!.!.!.!.!.!.!.!.!.!.!.!.!.!.!.!.!.!.!.!.!.!.!.!.!.!.!.!.!.!.!.!.!.!.!.!.!.!.!.!.!.!.!.!.!.!.!.!.!.!.!.!.!.!.!.!.!.!.!.!.!.",
"!.!.!.!.!.!.!.!.!.!.!.!.!.!.!.!.!.!.!.!.!.!.!.!.!.!.!.!.!.!.!.!.!.!.!.!.!.!.!.!.!.!.!.!.!.!.!.!.!.!.!.!.!.!.!.!.!.!.!.!.!.!.!.!.",
"!.!.!.!.!.!.!.!.!.!.!.!.!.!.!.!.!.!.!.!.!.!.!.!.!.!.!.!.!.!.!.!.!.!.!.!.!.!.!.!.!.!.!.!.!.!.!.!.!.!.!.!.!.!.!.!.!.!.!.!.!.!.!.!.",
"!.!.!.!.!.!.!.!.!.!.!.!.!.!.!.!.!.!.!.!.!.!.!.!.!.!.!.!.!.!.!.!.!.!.!.!.!.!.!.!.!.!.!.!.!.!.!.!.!.!.!.!.!.!.!.!.!.!.!.!.!.!.!.!.",
"!.!.!.!.!.!.!.!.!.!.!.!.!.!.!.!.!.!.!.!.!.!.!.!.!.!.!.!.!.!.!.!.!.!.!.!.!.!.!.!.!.!.!.!.!.!.!.!.!.!.!.!.!.!.!.!.!.!.!.!.!.!.!.!.",
"!.!.!.!.!.!.!.!.!.!.!.!.!.!.!.!.!.!.!.!.!.!.!.!.!.!.!.!.!.!.!.!.!.!.!.!.!.!.!.!.!.!.!.!.!.!.!.!.!.!.!.!.!.!.!.!.!.!.!.!.!.!.!.!.",
"!.!.!.!.!.!.!.!.!.!.!.!.!.!.!.!.!.!.!.!.!.!.!.!.!.!.!.!.!.!.!.!.!.!.!.!.!.!.!.!.!.!.!.!.!.!.!.!.!.!.!.!.!.!.!.!.!.!.!.!.!.!.!.!.",
"!.!.!.!.!.!.!.!.!.!.!.!.!.!.!.!.!.!.!.!.!.!.!.!.!.!.!.!.!.!.!.!.!.!.!.!.!.!.!.!.!.!.!.!.!.!.!.!.!.!.!.!.!.!.!.!.!.!.!.!.!.!.!.!.",
"!.!.!.!.!.!.!.!.!.!.!.!.!.!.!.!.!.!.!.!.!.!.!.!.!.!.!.!.!.!.!.!.!.!.!.!.!.!.!.!.!.!.!.!.!.!.!.!.!.!.!.!.!.!.!.!.!.!.!.!.!.!.!.!.",
"!.!.!.!.!.!.!.!.!.!.!.!.!.!.!.!.!.!.!.!.!.!.!.!.!.!.!.!.!.!.!.!.!.!.!.!.!.!.!.!.!.!.!.!.!.!.!.!.!.!.!.!.!.!.!.!.!.!.!.!.!.!.!.!.",
"!.!.!.!.!.!.!.!.!.!.!.!.!.!.!.!.!.!.!.!.!.!.!.!.!.!.!.!.!.!.!.!.!.!.!.!.!.!.!.!.!.!.!.!.!.!.!.!.!.!.!.!.!.!.!.!.!.!.!.!.!.!.!.!.",
"!.!.!.!.!.!.!.!.!.!.!.!.!.!.!.!.!.!.!.!.!.!.!.!.!.!.!.!.!.!.!.!.!.!.!.!.!.!.!.!.!.!.!.!.!.!.!.!.!.!.!.!.!.!.!.!.!.!.!.!.!.!.!.!.",
"!.!.!.!.!.!.!.!.!.!.!.!.!.!.!.!.!.!.!.!.!.!.!.!.!.!.!.!.!.!.!.!.!.!.!.!.!.!.!.!.!.!.!.!.!.!.!.!.!.!.!.!.!.!.!.!.!.!.!.!.!.!.!.!.",
"!.!.!.!.!.!.!.!.!.!.!.!.!.!.!.!.!.!.!.!.!.!.!.!.!.!.!.!.!.!.!.!.!.!.!.!.!.!.!.!.!.!.!.!.!.!.!.!.!.!.!.!.!.!.!.!.!.!.!.!.!.!.!.!.",
"!.!.!.!.!.!.!.!.!.!.!.!.!.!.!.!.!.!.!.!.!.!.!.!.!.!.!.!.!.!.!.!.!.!.!.!.!.!.!.!.!.!.!.!.!.!.!.!.!.!.!.!.!.!.!.!.!.!.!.!.!.!.!.!.",
"!.!.!.!.!.!.!.!.!.!.!.!.!.!.!.!.!.!.!.!.!.!.!.!.!.!.!.!.!.!.!.!.!.!.!.!.!.!.!.!.!.!.!.!.!.!.!.!.!.!.!.!.!.!.!.!.!.!.!.!.!.!.!.!.",
"!.!.!.!.!.!.!.!.!.!.!.!.!.!.!.!.!.!.!.!.!.!.!.!.!.!.!.!.!.!.!.!.!.!.!.!.!.!.!.!.!.!.!.!.!.!.!.!.!.!.!.!.!.!.!.!.!.!.!.!.!.!.!.!.",
"!.!.!.!.!.!.!.!.!.!.!.!.!.!.!.!.!.!.!.!.!.!.!.!.!.!.!.!.!.!.!.!.@ @ @ @ @ @ !.!.!.!.!.!.!.!.@ @ # # # # !.!.!.!.!.!.!.!.!.!.!.!.",
"!.!.!.!.!.!.!.!.!.!.!.!.!.!.!.!.!.!.!.!.!.!.!.!.!.!.!.!.!.!.!.!.& & & & & & !.!.!.!.!.!.!.!.* 6 4 * * % !.!.!.!.!.!.!.!.!.!.!.!.",
"!.!.!.!.!.!.!.!.!.!.!.!.!.!.!.!.!.!.!.!.!.!.!.!.!.!.!.!.!.!.@ & = - = - - = $ @ !.!.!.!.@ * s h h k 2 , % # !.!.!.!.!.!.!.!.!.!.",
"!.!.!.!.!.!.!.!.!.!.!.!.!.!.!.!.!.!.!.!.!.!.!.!.!.!.!.!.!.!.@ & - - - - - = & @ !.!.!.!.@ - h l j t u 2 * # !.!.!.!.!.!.!.!.!.!.",
"!.!.!.!.!.!.!.!.!.!.!.!.!.!.!.!.!.!.!.!.!.!.!.!.!.!.!.!.!.!.@ & - - $ & - - & # !.!.!.!.# 4 j j 5 4 2 2 % # !.!.!.!.!.!.!.!.!.!.",
"!.!.!.!.!.!.!.!.!.!.!.!.!.!.!.!.!.!.!.!.!.!.!.!.!.!.!.!.!.!.@ & = = & & = = & $ !.!.!.!.X 4 0 s 4 * , < % # !.!.!.!.!.!.!.!.!.!.",
"!.!.!.!.!.!.!.!.!.!.!.!.!.!.!.!.!.!.!.!.!.!.!.!.!.!.!.!.!.!.@ & @ $ = = $ & = % @   + X , , o o , , o $ $ @ !.!.!.!.!.!.!.!.!.!.",
"!.!.!.!.!.!.!.!.!.!.!.!.!.!.!.!.!.!.!.!.!.!.!.!.!.!.!.!.!.!.@ @ $ = - - & & - 8 m B B S J v V S J z 7 X $ @ !.!.!.!.!.!.!.!.!.!.",
"!.!.!.!.!.!.!.!.!.!.!.!.!.!.!.!.!.!.!.!.!.!.!.!.!.!.!.!.!.!.# $ = - - - = - 8 S r.k.g.g.h.c.h.h.c.6.z : $ @ !.!.!.!.!.!.!.!.!.!.",
"!.!.!.!.!.!.!.!.!.!.!.!.!.!.!.!.!.!.!.!.!.!.!.!.!.!.!.!.!.!.& = - - - - - f D 3.H.Q.W.W.E.E.E.W.W.V.1.z - # !.!.!.!.!.!.!.!.!.!.",
"!.!.!.!.!.!.@ @ !.!.!.!.!.!.!.!.!.!.!.!.!.!.!.!.!.!.!.!.@ & = - - - - - 6 D u.A.T.W.W.E.R.E.E.E.E.I.V.6.g O !.!.!.!.!.!.!.!.!.!.",
"!.!.!.!.!.!.* 4 !.!.!.!.!.!.!.!.!.!.!.!.!.!.!.!.!.!.!.!.@ & - - - - - f D 3.V.R.V.V.P.E.E.E.R.E.E.I.V.p.I M !.!.!.!.!.!.!.!.!.!.",
"!.!.!.!.# * 0 0 * # !.!.!.!.!.!.!.!.!.!.!.!.!.!.!.!.!.!.@ & = - - 6 7 D u.V.T.V.<.<.V.W.E.E.E.W.W.V.<.#.p.t.N + !.!.!.!.!.!.!.!.",
"!.!.!.!.* 5 y y 5 * !.!.!.!.!.!.!.!.!.!.!.!.!.!.!.!.!.!.@ & - 6 6 g P 3.V.Q.W.h.J v a.D.D.Z.Z.D.D.a.J K C.k.C + !.!.!.!.!.!.!.!.",
"!.!.# * s y i i y 2 % O !.!.!.!.!.!.!.!.!.!.!.!.!.!.!.!.@ - 8 f f D i.H.T.W.W.h.G d o.,.;.;.,.,.,.o.d F l.k.B + !.!.!.!.!.!.!.!.",
"!.!.* 5 y i r y i l x N !.!.!.!.!.!.!.!.!.!.!.!.!.!.!.!.# & 8 8 8 D t.B.P.R.E.c.L j ( { { |  .O.| ( j K m.k.B + !.!.!.!.!.!.!.!.",
"# * 0 y i y 5 , r _ 6.t.M   !.!.!.!.!.!.!.!.!.!.!.!.!.!.@ & = = % ; n Y m.W.W.M.&./ ` { { O.%.%.O.` ( -.Z.k.B O !.!.!.!.!.!.!.!.",
"@ * t a y 2 * % 2 X.M.B.Y m !.!.!.!.!.!.!.!.!.!.!.!.!.!.@ @ + - n B N Y N.W.E.G.0.=...{ { O.%.%...O.=.8.K.k.B + !.!.!.!.!.!.!.!.",
"# * y y 5 * !.!.% D h.T.V.w.m   !.!.!.!.!.!.!.!.!.!.!.!.!.!.# n w.l.k.N.I.W.R.I.G.x.*.` ` {  . .{ *.x.K.E.h.B O !.!.!.!.!.!.!.!.",
"@ 4 0 0 * # !.!.O N g.Q.Q.N.Y m !.!.!.!.!.!.!.!.!.!.!.!.!.!.> B r.l.l.k.g.l.L.E.E.G.8.;.,.;.,.=.;.8.K.T.N.w.N + !.!.!.!.!.!.!.!.",
"!.!.4 * !.!.!.!.+ N g.W.W.P.N.w.m   O + + O + + + + + O O > e a x C C B N U l.W.W.I.G.Z.Z.Z.D.V.M.G.E.N.Y m !.!.!.!.!.!.!.!.!.!.",
"!.!.# @ !.!.!.!.+ B g.W.E.E.W.C.Y M N B B B N B N B B N N c ~ E 1 X + = g T N.W.W.E.W.W.W.W.W.W.Q.Y.N.e.m   !.!.!.!.!.!.!.!.!.!.",
"!.!.!.!.!.!.!.!.+ N g.W.W.E.E.P.m.g.g.g.g.g.g.g.g.g.g.g.g.7.' ! E q X g w.B.Y.E.W.W.W.W.W.W.W.W.Q.N.Y m !.!.!.!.!.!.!.!.!.!.!.!.",
"!.!.!.!.!.!.!.!.+ N t.N.L.R.R.R.E.E.W.W.E.E.E.E.E.E.E.W.W.D.>.' ^ E 1 x t.k.k.g.j.g.g.j.j.j.j.k.k.e.m   !.!.!.!.!.!.!.!.!.!.!.!.",
"!.!.!.!.!.!.!.!.!.!.m U m.E.E.E.R.W.E.R.E.R.E.R.E.E.E.R.W.U.D.9.' Q E a A C N N N C N B C N C C B M !.!.!.!.!.!.!.!.!.!.!.!.!.!.",
"!.!.!.!.!.!.!.!.!.!.  N g.W.W.E.R.R.R.R.R.R.R.R.R.R.R.R.R.E.E.D.>.' ^ E 3 : o : : > : : : : : > $ O !.!.!.!.!.!.!.!.!.!.!.!.!.!.",
"!.!.!.!.!.!.!.!.!.!.O M g.Q.Q.E.R.R.R.R.R.R.R.R.R.R.R.R.R.R.R.P.D.9.' ! w w w w w w e w w w w e !.!.!.!.!.!.!.!.!.!.!.!.!.!.!.!.",
"!.!.!.!.!.!.!.!.!.!.+ N t.g.k.m.L.R.R.R.R.R.U.R.R.T.R.T.R.R.R.R.W.D.:.] ] ] } ' ~ ~ ' } } ' ~ W !.!.!.!.!.!.!.!.!.!.!.!.!.!.!.!.",
"!.!.!.!.!.!.!.!.!.!.!.!.M N N Y m.R.E.R.R.R.R.R.R.R.T.R.R.R.R.R.E.P.D.v.n.b.b.7.c c 7.b.b.5.x > !.!.!.!.!.!.!.!.!.!.!.!.!.!.!.!.",
"!.!.!.!.!.!.!.!.!.!.!.!.+     N g.E.R.R.R.R.R.R.R.R.R.R.R.R.R.R.T.R.R.W.E.W.W.N.T +.B.Q.Q.j.C O !.!.!.!.!.!.!.!.!.!.!.!.!.!.!.!.",
"!.!.!.!.!.!.!.!.!.!.!.!.!.!.O N g.W.R.R.R.R.R.R.R.R.R.R.R.R.R.R.R.R.R.R.R.R.E.L.N.N.P.W.W.k.N O !.!.!.!.!.!.!.!.!.!.!.!.!.!.!.!.",
"!.!.!.!.!.!.!.!.!.!.!.!.!.!.+ N g.E.R.R.R.R.R.R.R.U.R.R.R.R.R.T.R.R.R.R.R.R.R.R.E.E.R.R.W.g.B + !.!.!.!.!.!.!.!.!.!.!.!.!.!.!.!.",
"!.!.!.!.!.!.!.!.!.!.!.!.!.!.+ B g.E.E.R.R.R.R.R.R.R.R.R.R.R.R.R.R.T.R.R.R.R.R.R.E.R.R.W.Q.k.B + !.!.!.!.!.!.!.!.!.!.!.!.!.!.!.!.",
"!.!.!.!.!.!.!.!.!.!.!.!.!.!.+ N g.W.E.R.R.U.E.E.R.T.R.R.R.R.E.E.R.R.R.R.E.R.R.R.R.R.E.L.N.e.M + !.!.!.!.!.!.!.!.!.!.!.!.!.!.!.!.",
"!.!.!.!.!.!.!.!.!.!.!.!.!.!.+ B g.W.E.R.R.R.E.W.R.R.R.R.R.R.E.E.R.R.R.E.E.E.E.R.R.W.W.m.Y M !.!.!.!.!.!.!.!.!.!.!.!.!.!.!.!.!.!.",
"!.!.!.!.!.!.!.!.!.!.!.!.!.!.+ N d.T.R.R.W.P.B.N.J.P.T.R.T.J.N.B.P.T.P.J.N.B.P.R.P.P.P.s.m O !.!.!.!.!.!.!.!.!.!.!.!.!.!.!.!.!.!.",
"!.!.!.!.!.!.!.!.!.!.!.!.!.!.+ m u.J.T.E.W.V.2.$.f.J.T.T.J.f.+.3.V.P.S.s.+.2.A.R.V.C.C.e.n + !.!.!.!.!.!.!.!.!.!.!.!.!.!.!.!.!.!.",
"!.!.!.!.!.!.!.!.!.!.!.!.!.!.+ m u.J.T.L.B.e.B V i.J.T.J.p.@.m P k.R.J.u.V B w.k.C.C.C.y.m + !.!.!.!.!.!.!.!.!.!.!.!.!.!.!.!.!.!.",
"!.!.!.!.!.!.!.!.!.!.!.!.!.!.+ N d.T.T.z.T b ; N d.T.E.z.I 8 & C j.E.T.d.N ; b Y j.Y.Y.s.M O !.!.!.!.!.!.!.!.!.!.!.!.!.!.!.!.!.!.",
"!.!.!.!.!.!.!.!.!.!.!.!.!.!.+ M w.j.j.q.b O O N w.j.j.2.b O O N w.j.j.q.n O O n w.j.j.w.M O !.!.!.!.!.!.!.!.!.!.!.!.!.!.!.!.!.!.",
"!.!.!.!.!.!.!.!.!.!.!.!.!.!.!.!.M N B b ; O !.!.M N N n ; + !.!.M N N n = # !.!.M B N M !.!.!.!.!.!.!.!.!.!.!.!.!.!.!.!.!.!.!.!.",
"!.!.!.!.!.!.!.!.!.!.!.!.!.!.!.!.+ + + # # # !.!.O O + @ @ # !.!.O + + # @ @ !.!.+ + + + !.!.!.!.!.!.!.!.!.!.!.!.!.!.!.!.!.!.!.!.",
"!.!.!.!.!.!.!.!.!.!.!.!.!.!.!.!.!.!.!.!.!.!.!.!.!.!.!.!.!.!.!.!.!.!.!.!.!.!.!.!.!.!.!.!.!.!.!.!.!.!.!.!.!.!.!.!.!.!.!.!.!.!.!.!.",
"!.!.!.!.!.!.!.!.!.!.!.!.!.!.!.!.!.!.!.!.!.!.!.!.!.!.!.!.!.!.!.!.!.!.!.!.!.!.!.!.!.!.!.!.!.!.!.!.!.!.!.!.!.!.!.!.!.!.!.!.!.!.!.!.",
"!.!.!.!.!.!.!.!.!.!.!.!.!.!.!.!.!.!.!.!.!.!.!.!.!.!.!.!.!.!.!.!.!.!.!.!.!.!.!.!.!.!.!.!.!.!.!.!.!.!.!.!.!.!.!.!.!.!.!.!.!.!.!.!.",
"!.!.!.!.!.!.!.!.!.!.!.!.!.!.!.!.!.!.!.!.!.!.!.!.!.!.!.!.!.!.!.!.!.!.!.!.!.!.!.!.!.!.!.!.!.!.!.!.!.!.!.!.!.!.!.!.!.!.!.!.!.!.!.!."
};
