/* XPM */
static char *result[] = {
/* columns rows colors chars-per-pixel */
"64 64 168 2 ",
"   c #24221E",
".  c #3A2E1D",
"X  c #342B1E",
"o  c #3E311E",
"O  c #262421",
"+  c #292622",
"@  c #2D2A27",
"#  c #2C2A28",
"$  c #322C24",
"%  c #382F23",
"&  c #322E28",
"*  c #3E3324",
"=  c #36312A",
"-  c #3A332A",
";  c #373431",
":  c #423117",
">  c #433219",
",  c #49361B",
"<  c #593D13",
"1  c #543D1A",
"2  c #573A11",
"3  c #403423",
"4  c #423A2D",
"5  c #483B28",
"6  c #4E3D25",
"7  c #453D32",
"8  c #5A421D",
"9  c #6A450E",
"0  c #7B4B05",
"q  c #774B09",
"w  c #634518",
"e  c #65481B",
"r  c #76511C",
"t  c #584221",
"y  c #5F4929",
"u  c #4A4134",
"i  c #4A443D",
"p  c #614720",
"a  c #664B23",
"s  c #6A4E23",
"d  c #604929",
"f  c #765421",
"g  c #6B5637",
"h  c #62533F",
"j  c #6A5639",
"k  c #745E3E",
"l  c #795F3A",
"z  c #79603B",
"x  c #4A4641",
"c  c #4E4943",
"v  c #514C45",
"b  c #544F49",
"n  c #56524C",
"m  c #59534D",
"M  c #5A5651",
"N  c #5B5752",
"B  c #61574A",
"V  c #645B4D",
"C  c #6F5F48",
"Z  c #675843",
"A  c #625B54",
"S  c #675F55",
"D  c #756043",
"F  c #7B674A",
"G  c #7A6649",
"H  c #676058",
"J  c #6A635A",
"K  c #736B61",
"L  c #777067",
"P  c #7A736B",
"I  c #77716A",
"U  c #834E02",
"Y  c #855003",
"T  c #8F5300",
"R  c #805009",
"E  c #925500",
"W  c #8B5912",
"Q  c #9F6108",
"!  c #8E672D",
"~  c #8E682F",
"^  c #9F6D24",
"/  c #9B7133",
"(  c #A46F23",
")  c #AA772E",
"_  c #AC6F3E",
"`  c #A27636",
"'  c #AE7B32",
"]  c #A67438",
"[  c #AD703F",
"{  c #A67C3E",
"}  c #97774A",
"|  c #AD7040",
" . c #827A6E",
".. c #927E64",
"X. c #C36251",
"o. c #9F8053",
"O. c #AD874F",
"+. c #AD8750",
"@. c #AF8850",
"#. c #A28255",
"$. c #B78F56",
"%. c #B18E5A",
"&. c #B89057",
"*. c #B4905C",
"=. c #9A866A",
"-. c #9B8668",
";. c #8A8277",
":. c #8D867E",
">. c #918677",
",. c #988B7B",
"<. c #AF9777",
"1. c #A5947D",
"2. c #B09776",
"3. c #BFA176",
"4. c #C2A070",
"5. c #C3A479",
"6. c #8F8880",
"7. c #958D84",
"8. c #988F84",
"9. c #9B9084",
"0. c #9B9388",
"q. c #A29685",
"w. c #A29688",
"e. c #A69A8B",
"r. c #AC9E8E",
"t. c #B39E82",
"y. c #A89E93",
"u. c #ADA194",
"i. c #AEA69C",
"p. c #B0A79E",
"a. c #B4AA9E",
"s. c #BDAE9C",
"d. c #B2A596",
"f. c #B4ABA1",
"g. c #B9AEA2",
"h. c #BDB2A5",
"j. c #BCB3A9",
"k. c #C7AD88",
"l. c #C1B29E",
"z. c #CFB695",
"x. c #D5BB99",
"c. c #D2B896",
"v. c #C5B5A3",
"b. c #C2B6AA",
"n. c #C5B9AC",
"m. c #CDBDAB",
"M. c #CAB8A3",
"N. c #D2BEA3",
"B. c #CBBEB0",
"V. c #D5C1A5",
"C. c #D4C3AD",
"Z. c #D9C6AF",
"A. c #CDC0B1",
"S. c #D1C4B4",
"D. c #DCC9B2",
"F. c #D5CABD",
"G. c #DACDBE",
"H. c #D3C7BA",
"J. c #DED0BE",
"K. c #E0D0BE",
"L. c #DACEC0",
"P. c #DED1C3",
"I. c #DFD5CA",
"U. c #E2D5C5",
"Y. c #E3D7C8",
"T. c #E5D9CA",
"R. c #E9DCCD",
"E. c None",
/* pixels */
"E.E.E.E.E.E.E.E.E.E.E.E.E.E.E.E.E.E.E.E.E.E.E.E.E.E.E.E.E.E.E.E.E.E.E.E.E.E.E.E.E.E.E.E.E.E.E.E.E.E.E.E.E.E.E.E.E.E.E.E.E.E.E.E.",
"E.E.E.E.E.E.E.E.E.E.E.E.E.E.E.E.E.E.E.E.E.E.E.E.E.E.E.E.E.E.E.E.E.E.E.E.E.E.E.E.E.E.E.E.E.E.E.E.E.E.E.E.E.E.E.E.E.E.E.E.E.E.E.E.",
"E.E.E.E.E.E.E.E.E.E.E.E.E.E.E.E.E.E.E.E.E.E.E.E.E.E.E.E.E.E.E.E.E.E.E.E.E.E.E.E.E.E.E.E.E.E.E.E.E.E.E.E.E.E.E.E.E.E.E.E.E.E.E.E.",
"E.E.E.E.E.E.E.E.E.E.E.E.E.E.E.E.E.E.E.E.E.E.E.E.E.E.E.E.E.E.E.E.E.E.E.E.E.E.E.E.E.E.E.E.E.E.E.E.E.E.E.E.E.E.E.E.E.E.E.E.E.E.E.E.",
"E.E.E.E.E.E.E.E.E.E.E.E.E.E.E.E.E.E.E.E.E.E.E.E.E.E.E.E.E.E.E.E.E.E.E.E.E.E.E.E.E.E.E.E.E.E.E.E.E.E.E.E.E.E.E.E.E.E.E.E.E.E.E.E.",
"E.E.E.E.E.E.E.E.E.E.E.E.E.E.E.E.E.E.E.E.E.E.E.E.E.E.E.E.E.E.E.E.E.E.E.E.E.E.E.E.E.E.E.E.E.E.E.E.E.E.E.E.E.E.E.E.E.E.E.E.E.E.E.E.",
"E.E.E.E.E.E.E.E.E.E.E.E.E.E.E.E.E.E.E.E.E.E.E.E.E.E.E.E.E.E.E.E.E.E.E.E.E.E.E.E.E.E.E.E.E.E.E.E.E.E.E.E.E.E.E.E.E.E.E.E.E.E.E.E.",
"E.E.E.E.E.E.E.E.E.E.E.E.E.E.E.E.E.E.E.E.E.E.E.E.E.E.E.E.E.E.E.E.E.E.E.E.E.E.E.E.E.E.E.E.E.E.E.E.E.E.E.E.E.E.E.E.E.E.E.E.E.E.E.E.",
"E.E.E.E.E.E.E.E.E.E.E.E.E.E.E.E.E.E.E.E.E.E.E.E.E.E.E.E.E.E.E.E.E.E.E.E.E.E.E.E.E.E.E.E.E.E.E.E.E.E.E.E.E.E.E.E.E.E.E.E.E.E.E.E.",
"E.E.E.E.E.E.E.E.E.E.E.E.E.E.E.E.E.E.E.E.E.E.E.E.E.E.E.E.E.E.E.E.E.E.E.E.E.E.E.E.E.E.E.E.E.E.E.E.E.E.E.E.E.E.E.E.E.E.E.E.E.E.E.E.",
"E.E.E.E.E.E.E.E.E.E.E.E.E.E.E.E.E.E.E.E.E.E.E.E.E.E.E.E.E.E.E.E.E.E.E.E.E.E.E.E.E.E.E.E.E.E.E.E.E.E.E.E.E.E.E.E.E.E.E.E.E.E.E.E.",
"E.E.E.E.E.E.E.E.E.E.E.E.E.E.E.E.E.E.E.E.E.E.E.E.E.E.E.E.E.E.E.E.E.E.E.E.E.E.E.E.E.E.E.E.E.E.E.E.E.E.E.E.E.E.E.E.E.E.E.E.E.E.E.E.",
"E.E.E.E.E.E.E.E.E.E.E.E.E.E.E.E.E.E.E.E.E.E.E.E.E.E.E.E.E.E.E.E.E.E.E.E.E.E.E.E.E.E.E.E.E.E.E.E.E.E.E.E.E.E.E.E.E.E.E.E.E.E.E.E.",
"E.E.E.E.E.E.E.E.E.E.E.E.E.E.E.E.E.E.E.E.E.E.E.E.E.E.E.E.E.E.E.E.E.E.E.E.E.E.E.E.E.E.E.E.E.E.E.E.E.E.E.E.E.E.E.E.E.E.E.E.E.E.E.E.",
"E.E.E.E.E.E.E.E.E.E.E.E.E.E.E.E.E.E.E.E.E.E.E.E.E.E.E.E.E.E.E.E.E.E.E.E.E.E.E.E.E.E.E.E.E.E.E.E.E.E.E.E.E.E.E.E.E.E.E.E.E.E.E.E.",
"E.E.E.E.E.E.E.E.E.E.E.E.E.E.E.E.E.E.E.E.E.E.E.E.E.E.E.E.E.E.E.E.E.E.E.E.E.E.E.E.E.E.E.E.E.E.E.E.E.E.E.E.E.E.E.E.E.E.E.E.E.E.E.E.",
"E.E.E.E.E.E.E.E.E.E.E.E.E.E.E.E.E.E.E.E.E.E.E.E.E.E.E.E.E.E.E.E.@ @ @ @ @ @ E.E.E.E.E.E.E.E.# # @ @ @ @ E.E.E.E.E.E.E.E.E.E.E.E.",
"E.E.E.E.E.E.E.E.E.E.E.E.E.E.E.E.E.E.E.E.E.E.E.E.E.E.E.E.E.E.E.E.& & & & & & E.E.E.E.E.E.E.E.- * 3 * - % E.E.E.E.E.E.E.E.E.E.E.E.",
"E.E.E.E.E.E.E.E.E.E.E.E.E.E.E.E.E.E.E.E.E.E.E.E.E.E.E.E.E.E.@ & = * - = - & & @ E.E.E.E.@ * t a a p 1 , % @ E.E.E.E.E.E.E.E.E.E.",
"E.E.E.E.E.E.E.E.E.E.E.E.E.E.E.E.E.E.E.E.E.E.E.E.E.E.E.E.E.E.@ & = - - - - - & @ E.E.E.E.# 4 a f s p w 1 * @ E.E.E.E.E.E.E.E.E.E.",
"E.E.E.E.E.E.E.E.E.E.@ @ E.E.E.E.E.E.E.E.E.E.E.E.E.E.E.E.E.E.@ & - - & = - - & @ E.E.E.E.# * a s 6 5 1 1 % @ E.E.E.E.E.E.E.E.E.E.",
"E.E.E.E.E.E.E.E.E.E.* * E.E.E.E.E.E.E.E.E.E.E.E.E.E.E.E.E.E.@ & & = & & = = & & E.E.E.E.$ > t 8 3 . , , % @ E.E.E.E.E.E.E.E.E.E.",
"E.E.E.E.E.E.E.E.@ * 8 8 * @ E.E.E.E.E.E.E.E.E.E.E.E.E.E.E.E.& @ @ & % = & & = % @ + + X , , > o , , o % & @ E.E.E.E.E.E.E.E.E.E.",
"E.E.E.E.E.E.E.E.@ 3 e e 3 @ E.E.E.E.E.E.E.E.E.E.E.E.E.E.E.E.@ @ & = - - & & = 7 v m m B D D B N D g 5 $ @ @ E.E.E.E.E.E.E.E.E.E.",
"E.E.E.E.E.E.E.E.@ 3 e e * @ E.E.E.E.E.E.E.E.E.E.E.E.E.E.E.E.# @ = * - - - - 4 B 9.a.a.a.l.l.s.s.l.1.g > $ @ E.E.E.E.E.E.E.E.E.E.",
"E.E.E.E.E.E.E.E.@ * e e 3 @ E.E.E.E.E.E.E.E.E.E.E.E.E.E.E.E.& = - = - - 4 u V >.A.R.R.T.Y.Y.Y.R.T.N.-.j * # E.E.E.E.E.E.E.E.E.E.",
"E.E.E.E.E.E.E.E.@ 3 e e * @ E.E.E.E.E.E.E.E.E.E.E.E.E.E.# & - - - - - - 4 V w.B.U.T.Y.Y.U.Y.Y.Y.Y.J.m.,.c   E.E.E.E.E.E.E.E.E.E.",
"E.E.E.E.E.E.E.E.# 3 e e 3 @ E.E.E.E.E.E.E.E.E.E.E.E.E.E.@ & - - - - - u V >.m.U.m.M.G.Y.Y.U.U.U.Y.J.C.r.K b E.E.E.E.E.E.E.E.E.E.",
"E.E.E.E.E.E.E.E.# * e e 3 @ E.E.E.E.E.E.E.E.E.E.E.E.E.E.@ & - - - - 4 V w.B.P.m.=.=.n.T.T.I.Y.T.T.m.=.-.r.0.n + E.E.E.E.E.E.E.E.",
"E.E.E.E.E.E.E.E.@ 3 w w 3 @ E.E.E.E.E.E.E.E.E.E.E.E.E.E.@ & - - 4 i V >.m.R.T.s.G k t.V.V.N.N.V.V.t.k G v.g.m + E.E.E.E.E.E.E.E.",
"E.E.E.E.E.E.E.E.# 3 w w * @ E.E.E.E.E.E.E.E.E.E.E.E.E.E.@ = 7 u u C e.A.P.T.T.s.C y } *.%.%.%.*.*.} y C v.f.M + E.E.E.E.E.E.E.E.",
"E.E.E.E.E.E.E.E.# 4 z l 4 + E.E.E.E.E.E.E.E.E.E.E.E.E.E.@ = 7 7 7 V 9.n.G.Y.T.s.F s ~ ` ` ] _ | ] ~ a F v.g.m + E.E.E.E.E.E.E.E.",
"E.E.E.E.E.E.E.E.+ v q.1.v O E.E.E.E.E.E.E.E.E.E.E.E.E.E.@ & & = = = i P j.T.T.x.o.! / ` ` [ X.X.| / ! o.N.g.m + E.E.E.E.E.E.E.E.",
"E.E.E.E.E.E.E.E.+ m h.n.P v E.E.E.E.E.E.E.E.E.E.E.E.E.E.@ @ @ ; c m n P n.T.T.C.3.O.{ ` ` [ X.X.[ { @.5.D.f.m + E.E.E.E.E.E.E.E.",
"E.E.E.E.E.E.E.E.+ m a.P.n.8.v   E.E.E.E.E.E.E.E.E.E.E.E.E.E.+ v 8.h.f.n.J.Y.I.J.Z.k.O.` ` ] [ [ ` +.k.D.Y.g.m + E.E.E.E.E.E.E.E.",
"E.E.E.E.E.E.E.E.+ m a.R.R.b.P v E.E.E.E.E.E.E.E.E.E.E.E.E.E.: h 0.h.h.f.a.j.F.U.Y.Z.3.%.%.%.*.@.%.3.D.P.b.8.b + E.E.E.E.E.E.E.E.",
"E.E.E.E.E.E.E.E.  m s.T.T.G.v.8.v   O +   + + X + + + + + > 9 r h M M n b L j.Y.T.J.Z.N.N.N.N.N.N.Z.Y.b.P v E.E.E.E.E.E.E.E.E.E.",
"E.E.E.E.E.E.E.E.+ m a.T.Y.Y.T.n.P b n n m m m m m n n m m j W Y < . @ = i P b.R.Y.Y.Y.T.T.T.T.T.T.L.b.8.v   E.E.E.E.E.E.E.E.E.E.",
"E.E.E.E.E.E.E.E.+ n a.R.Y.U.Y.F.v.a.a.a.a.a.a.a.a.a.f.f.f.2.( E Y 9 . x 7.n.J.T.T.T.T.R.R.T.R.R.R.b.P c E.E.E.E.E.E.E.E.E.E.E.E.",
"E.E.E.E.E.E.E.E.+ n 9.n.G.U.U.Y.Y.Y.Y.Y.Y.T.Y.Y.Y.T.Y.T.T.V.&.( Q 0 < h 9.h.f.a.f.a.p.p.f.f.f.f.f.8.v   E.E.E.E.E.E.E.E.E.E.E.E.",
"E.E.E.E.E.E.E.E.E.E.v P h.Y.Y.Y.Y.Y.Y.U.Y.U.Y.U.Y.Y.U.Y.Y.K.V.4.( E Y r h m m m m M m m M n m m m v E.E.E.E.E.E.E.E.E.E.E.E.E.E.",
"E.E.E.E.E.E.E.E.E.E.  n a.T.T.Y.U.U.U.U.U.U.U.U.P.U.U.U.U.Y.T.V.&.( Q Y 2 . : : : : : > > > > o $ + E.E.E.E.E.E.E.E.E.E.E.E.E.E.",
"E.E.E.E.E.E.E.E.E.E.  n a.R.R.T.U.U.U.P.U.U.U.U.U.U.P.U.U.U.U.G.V.4.( E U 0 q q 0 0 q q q 0 0 q E.E.E.E.E.E.E.E.E.E.E.E.E.E.E.E.",
"E.E.E.E.E.E.E.E.E.E.+ n 9.g.a.v.G.U.U.U.K.U.U.U.U.U.U.U.U.U.U.Y.R.N.$.) ) ' ' ( W W ( ' ' ( W R E.E.E.E.E.E.E.E.E.E.E.E.E.E.E.E.",
"E.E.E.E.E.E.E.E.E.E.E.E.n n n P v.Y.U.U.U.U.U.U.U.U.P.U.U.J.U.U.Y.G.N.z.z.c.c.2.g g 2.x.x.2.j > E.E.E.E.E.E.E.E.E.E.E.E.E.E.E.E.",
"E.E.E.E.E.E.E.E.E.E.E.E.X     n a.Y.Y.U.U.U.U.U.U.U.U.U.U.U.U.U.U.Y.Y.Y.Y.T.R.b.P  .b.R.R.f.n O E.E.E.E.E.E.E.E.E.E.E.E.E.E.E.E.",
"E.E.E.E.E.E.E.E.E.E.E.E.E.E.  n a.Y.U.U.U.U.U.U.P.U.U.U.U.U.U.U.U.U.U.Y.Y.Y.Y.F.b.b.F.T.R.f.m + E.E.E.E.E.E.E.E.E.E.E.E.E.E.E.E.",
"E.E.E.E.E.E.E.E.E.E.E.E.E.E.+ n a.Y.U.U.U.U.U.P.U.U.U.U.P.U.U.U.U.P.U.U.U.U.U.U.Y.Y.Y.Y.R.a.m + E.E.E.E.E.E.E.E.E.E.E.E.E.E.E.E.",
"E.E.E.E.E.E.E.E.E.E.E.E.E.E.+ m a.Y.Y.U.U.U.P.U.U.P.U.U.U.U.U.U.U.U.U.U.U.U.U.U.U.Y.Y.T.R.a.n + E.E.E.E.E.E.E.E.E.E.E.E.E.E.E.E.",
"E.E.E.E.E.E.E.E.E.E.E.E.E.E.+ n a.T.Y.U.U.U.Y.Y.Y.U.U.U.U.U.U.Y.U.U.U.U.U.U.U.U.U.U.Y.F.b.0.b + E.E.E.E.E.E.E.E.E.E.E.E.E.E.E.E.",
"E.E.E.E.E.E.E.E.E.E.E.E.E.E.+ n a.T.Y.U.U.U.U.T.Y.Y.U.U.Y.U.Y.Y.U.U.U.Y.Y.Y.Y.U.U.Y.Y.b.P v E.E.E.E.E.E.E.E.E.E.E.E.E.E.E.E.E.E.",
"E.E.E.E.E.E.E.E.E.E.E.E.E.E.+ n u.K.U.Y.U.G.n.M.S.J.P.J.G.S.b.n.G.P.G.S.b.m.F.U.G.G.G.u.v O E.E.E.E.E.E.E.E.E.E.E.E.E.E.E.E.E.E.",
"E.E.E.E.E.E.E.E.E.E.E.E.E.E.+ v w.H.P.Y.Y.m.;. .d.S.L.L.A.u. .;.b.K.B.d. .;.n.L.m.M.M.8.v O E.E.E.E.E.E.E.E.E.E.E.E.E.E.E.E.E.E.",
"E.E.E.E.E.E.E.E.E.E.E.E.E.E.# v 0.A.G.Y.T.h.H A e.A.P.L.C.e.S H g.P.B.q.A J j.L.m.M.v.9.v + E.E.E.E.E.E.E.E.E.E.E.E.E.E.E.E.E.E.",
"E.E.E.E.E.E.E.E.E.E.E.E.E.E.+ n u.L.L.I.T.h.H A i.L.P.P.P.a.S A f.I.G.d.A S f.I.L.H.F.r.b + E.E.E.E.E.E.E.E.E.E.E.E.E.E.E.E.E.E.",
"E.E.E.E.E.E.E.E.E.E.E.E.E.E.  n i.I.I.F.b.7.n N p.Y.I.H.b.7.b A p.Y.T.f.N b 6.j.H.I.Y.p.n + E.E.E.E.E.E.E.E.E.E.E.E.E.E.E.E.E.E.",
"E.E.E.E.E.E.E.E.E.E.E.E.E.E.+ m p.I.I.j.P x = M p.T.T.j.P x ; M f.Y.I.f.N ; x I j.T.I.p.n + E.E.E.E.E.E.E.E.E.E.E.E.E.E.E.E.E.E.",
"E.E.E.E.E.E.E.E.E.E.E.E.E.E.+ b 7.p.f.6.x O + b 7.p.f.6.x   O b 7.p.f.6.c O   c 8.p.f.7.b + E.E.E.E.E.E.E.E.E.E.E.E.E.E.E.E.E.E.",
"E.E.E.E.E.E.E.E.E.E.E.E.E.E.E.E.b m m x ; + E.E.n n M x = + E.E.b M n c ; @ E.E.v n n v E.E.E.E.E.E.E.E.E.E.E.E.E.E.E.E.E.E.E.E.",
"E.E.E.E.E.E.E.E.E.E.E.E.E.E.E.E.+ + + # # # E.E.+ + + + @ @ E.E.O + O + @ # E.E.+ + # + E.E.E.E.E.E.E.E.E.E.E.E.E.E.E.E.E.E.E.E.",
"E.E.E.E.E.E.E.E.E.E.E.E.E.E.E.E.E.E.E.E.E.E.E.E.E.E.E.E.E.E.E.E.E.E.E.E.E.E.E.E.E.E.E.E.E.E.E.E.E.E.E.E.E.E.E.E.E.E.E.E.E.E.E.E.",
"E.E.E.E.E.E.E.E.E.E.E.E.E.E.E.E.E.E.E.E.E.E.E.E.E.E.E.E.E.E.E.E.E.E.E.E.E.E.E.E.E.E.E.E.E.E.E.E.E.E.E.E.E.E.E.E.E.E.E.E.E.E.E.E.",
"E.E.E.E.E.E.E.E.E.E.E.E.E.E.E.E.E.E.E.E.E.E.E.E.E.E.E.E.E.E.E.E.E.E.E.E.E.E.E.E.E.E.E.E.E.E.E.E.E.E.E.E.E.E.E.E.E.E.E.E.E.E.E.E.",
"E.E.E.E.E.E.E.E.E.E.E.E.E.E.E.E.E.E.E.E.E.E.E.E.E.E.E.E.E.E.E.E.E.E.E.E.E.E.E.E.E.E.E.E.E.E.E.E.E.E.E.E.E.E.E.E.E.E.E.E.E.E.E.E."
};
