/* XPM */
static char *result[] = {
/* columns rows colors chars-per-pixel */
"64 64 235 2 ",
"   c #02040B",
".  c #000210",
"X  c #01061B",
"o  c #05131C",
"O  c #000324",
"+  c #02062B",
"@  c #000B2C",
"#  c #001421",
"$  c #03172A",
"%  c #001B2B",
"&  c #111428",
"*  c #020835",
"=  c #02043A",
"-  c #001433",
";  c #041E37",
":  c #001C3A",
">  c #181837",
",  c #00233B",
"<  c #002738",
"1  c #122732",
"2  c #2A2F37",
"3  c #35393B",
"4  c #41392F",
"5  c #544739",
"6  c #030A44",
"7  c #050C4C",
"8  c #03144F",
"9  c #050E55",
"0  c #002240",
"q  c #002A41",
"w  c #01374B",
"e  c #1C3846",
"r  c #003A51",
"t  c #2A2D4D",
"y  c #3A3F43",
"u  c #041264",
"i  c #1B1F66",
"p  c #051670",
"a  c #0F2D6E",
"s  c #162579",
"d  c #333176",
"f  c #00475D",
"g  c #06495D",
"h  c #114C5F",
"j  c #3E4244",
"k  c #2A4653",
"l  c #014D62",
"z  c #035468",
"x  c #13576D",
"c  c #045A73",
"v  c #385967",
"b  c #34546E",
"n  c #06637B",
"m  c #1A6479",
"M  c #28677A",
"N  c #44494B",
"B  c #444C55",
"V  c #4B555C",
"C  c #57595A",
"Z  c #615447",
"A  c #444A67",
"S  c #4B5867",
"D  c #575E63",
"F  c #4A5575",
"G  c #565673",
"H  c #5B6467",
"J  c #5B6477",
"K  c #65696C",
"L  c #626C76",
"P  c #6B7379",
"I  c #747879",
"U  c #8F7057",
"Y  c #937D67",
"T  c #69817C",
"R  c #938871",
"E  c #A28166",
"W  c #AC8F73",
"Q  c #1C2882",
"!  c #2D3785",
"~  c #066882",
"^  c #167689",
"/  c #097894",
"(  c #0A7A96",
")  c #2C6D82",
"_  c #327687",
"`  c #484592",
"'  c #4D7287",
"]  c #6A7887",
"[  c #67758D",
"{  c #757D83",
"}  c #787D95",
"|  c #4852A7",
" . c #2B8596",
".. c #3F8799",
"X. c #0682A2",
"o. c #3497B5",
"O. c #5A8B9C",
"+. c #798289",
"@. c #798794",
"#. c #5492A7",
"$. c #7A8BA4",
"%. c #758AAE",
"&. c #6497AA",
"*. c #7192AA",
"=. c #7E98B4",
"-. c #49A2B9",
";. c #71A6B5",
":. c #6395C6",
">. c #74B2C6",
",. c #72C6E6",
"<. c #878A8A",
"1. c #848A95",
"2. c #899498",
"3. c #929598",
"4. c #969A9B",
"5. c #A59887",
"6. c #A79C93",
"7. c #BEA48E",
"8. c #8E8EAC",
"9. c #8896A7",
"0. c #969EA5",
"q. c #8597B6",
"w. c #8B9CB9",
"e. c #8CA0AD",
"r. c #99A3AA",
"t. c #99AAB6",
"y. c #93A3BD",
"u. c #99B6BD",
"i. c #A7AAAB",
"p. c #B3AFA8",
"a. c #A4ACB6",
"s. c #ADB4B8",
"d. c #B3B6B8",
"f. c #B4BABC",
"g. c #C6A784",
"h. c #C5AC93",
"j. c #B4C3AF",
"k. c #BDC0BE",
"l. c #D2C3B2",
"z. c #EAD1A9",
"x. c #ECD3AC",
"c. c #EAD6B9",
"v. c #F0D9B3",
"b. c #91A2C1",
"n. c #94A8C5",
"m. c #99AAC7",
"M. c #9CADCA",
"N. c #8CB2C7",
"B. c #9DB6C2",
"V. c #A3B4CC",
"C. c #A9B6CB",
"Z. c #A6B8C9",
"A. c #B3BDC2",
"S. c #B9BFC7",
"D. c #A4B5D2",
"F. c #ABBCD5",
"G. c #A9BCD6",
"H. c #ADBDE1",
"J. c #8DC7D2",
"K. c #BCC2C3",
"L. c #B5C2CC",
"P. c #B9C4CC",
"I. c #BDD6CB",
"U. c #ACC1D3",
"Y. c #ADC2DA",
"T. c #B7C4D6",
"R. c #BBCAD5",
"E. c #B4C9DF",
"W. c #BCCBDB",
"Q. c #BDD1DB",
"!. c #B6CAE2",
"~. c #BCCDE5",
"^. c #A8D2E7",
"/. c #BCD3E4",
"(. c #BBD4E8",
"). c #B9D6EA",
"_. c #8FE6FE",
"`. c #ABE8FC",
"'. c #C5C8C7",
"]. c #C5CBCB",
"[. c #CFCDC9",
"{. c #C5CDD5",
"}. c #C9D5DB",
"|. c #D7DADA",
" X c #E2D4C4",
".X c #DDE1DF",
"XX c #F4E1C6",
"oX c #EBE5D7",
"OX c #F7EBD9",
"+X c #C1CEE5",
"@X c #C4D3E2",
"#X c #C9D8E7",
"$X c #C4D4ED",
"%X c #C3DAED",
"&X c #CBDBED",
"*X c #D4DDE4",
"=X c #D3DEEB",
"-X c #C5D6F0",
";X c #C4DFF4",
":X c #CBDDF2",
">X c #D0DCF1",
",X c #D1E0E6",
"<X c #DAE3E6",
"1X c #D3E3EE",
"2X c #DDE4EB",
"3X c #C7E0F4",
"4X c #CDE3F5",
"5X c #CBE6F4",
"6X c #D2E5F5",
"7X c #D8E5F2",
"8X c #D6E9F7",
"9X c #DAEAF5",
"0X c #D2E6F9",
"qX c #D5EAFC",
"wX c #DBEEFD",
"eX c #DDF0FE",
"rX c #E3E5E4",
"tX c #E3EAED",
"yX c #E5EAEC",
"uX c #F5EDE4",
"iX c #E9F0ED",
"pX c #FBF1E5",
"aX c #F0F2EF",
"sX c #E4EDF5",
"dX c #ECEFF2",
"fX c #E1EFF9",
"gX c #E3F0F7",
"hX c #EDF2F4",
"jX c #E4F2FA",
"kX c #EAF5FA",
"lX c #EFF8FA",
"zX c #F2F5F4",
"xX c #F4F7F8",
"cX c #F5FAFA",
"vX c #FBFDFC",
/* pixels */
";X;X;X;X;X;X;X;X;X3X;X;X;X;X;X;X3X3X3X:X4X;X;X;X;X;X;X;X;X;X;X;X;X;X;X;X;X;X;X;X;X;X;X;X;X;X;X;X;X;X;X;X;X;X;X;X;X;X;X;X;X;X;X;X",
";X;X;X;X;X;X;X;X;X;X;X;X;X;X;X;X).3X3X`.;X;X;X;X;X;X;X;X;X;X;X;X;X;X;X;X;X;X;X;X;X;X;X;X;X;X;X;X;X;X;X;X;X;X;X;X;X;X;X;X;X;X3X;X",
";X;X;X;X;X;X;X;X;X;X;X;X;X;X;X;X3XvXcXeX;X;X;X;X;X;X;X;X;X;X;X;X;X;X;X;X;X;X;X;X;X;X;X;X;X;X;X;X;X;X;X;X;X;X;X;X;X;X;X;X;X;X;X;X",
";X;X;X;X;X;X;X;X;X;X;X;X;X;X;X;XeXeXB.z ;X;X;X;X;X;X;X;X;X;X;X;X;X;X;X;X;X;X;X;X;X;X;X;X;X;X;X;X;X;X;X;X;X;X;X;X;X;X;X;X;X;X;X;X",
";X;X;X;X;X;X;X;X;X;X;X;X;X;X;X4XwX!.b &.&.;X4X`.;X;X;X;X;X;X;X;X;X;X;X;X;X;X;X;X;X;X;X;X;X;X;X;X;X;X;X;X;X;X;X;X;X;X;X;X;X;X;X;X",
";X;X;X;X;X;X;X;X;X;X;X:X;X;X;XqX%Xq.$.z &.;X;X3X;X;X;X;X;X;X;X;X;X;X;X;X;X;X;X;X;X;X;X;X;X;X;X;X;X;X;X;X;X;X;X;X;X;X;X;X;X;X;X;X",
";X;X;X;X;X;X;X;X;X;X3X`.).3X;XqX$XV.@.z ..#.3X3X;X;X;X;X;X;X;X;X;X;X;X;X;X;X;X;X;X;X;X;X;X;X;X;X;X;X;X;X;X;X;X;X;X;X;X;X;X;X;X;X",
";X;X;X;X;X;X;X;X;X;X3X3X3X3X3XjXy.$Xq.w ,.c ).).;X8X4X;X;X;X;X;X;X;X;X;X;X;X;X;X;X;X;X;X;X;X;X;X;X;X;X;X;X;X;X;X;X;X;X;X;X;X;X;X",
";X;X;X;X;X;X;X;X;X;X;X;X;X;X0XjXb.$XG.$ l J.>.3X;X8X4X;X;X;X`.3X;X;X;X;X;X;X;X;X;X;X;X;X;X;X;X;X;X;X;X;X;X;X;X;X;X;X;X;X;X;X;X;X",
";X;X;X;X;X;X;X;X;X;X;X;X;X;X4X>XV.-XG.& z o._ 3X;X8XvX;X;XkX:X3X;X;X;X;X;X;X;X;X;X;X;X;X;X;X;X;X;X;X;X;X;X;X;X;X;X;X;X;X;X;X;X;X",
";X;X;X;X;X;X;X;X;X;X;X;X;X;X4XV.-X-XG.& %.=.).wXD.eXwX;X;XfX3X3X;X;X;X;X;X;X;X;X;X;X;X;X;X;X;X;X;X;X;X;X;X;X;X;X;X;X;X;X;X;X;X;X",
";X;X;X;X;X;X;X;X;X;X;X;X;X;X0XW.-XG.n.%.0Xb.lXjXjXY.!.wXwXfX).3X;X;X;X;X;X;X;X;X;X;X;X;X;X;X;X;X;X;X;X;X;X;X;X;X;X;X;X;X;X;X;X;X",
";X;X;X;X;X;X;X;X;X;X;X;X;X;XwX7X-Xq.%.%.sXqX~.cXcXwXwXY.wXwX%.Y.;X;X;X;X;X;X;X;X;X;X;X;X;X;X;X;X;X;X;X;X;X;X;X;X;X;X;X;X;X;X;X;X",
";X;X;X;X;X;X;X;X;X;X;X;X;X;XvX7X!.~.%.%.cXjX(.kXeXlXwX9XY.cX9X%.D.;X;X;X;X;X;X;X;X;X;X;X;X;X;X;X;X;X;X;X;X;X;X;X;X;X;X;X;X;X;X;X",
";X;X;X;X;X;X;X;X;X;X;X;X;X;XvXcX=X%.%.%.vXvXG.wXvXvXvXvXm.0X4X%.b.3X`.;X;X;X;X;X;X;X;X;X;X;X;X;X;X;X;X;X;X;X;X;X;X;X;X;X;X3X;X;X",
";X;X;X;X;X;X;X;X;X;X;X;X;X;XvX:Xm.*X%.%.kXvX6XY.vXjXlXjXeX!.eXm.b.3X:X;XwX;X;X;X;X;X;X;X;X;X;X;X;X;X;X;X;X;X;X;X;X;X;X;X;X;X;X;X",
";X;X;X;X;X;X;X;X;X;X;X;X;XqXlXM.7XcX%.%.F.vXfX:X%XkXlXwXwXE.2Xy.%.!.;X;XvX;X;X;X;X;X;X;X;X;X;X;X;X;X3X;X;X;X;X;X;X;X;X;X;X;X;X;X",
";X;X;X;X;X;X;X;X;X;X;X;X;XjXqXM.vXvXF.%.q.M.m.m.B.eXeXwXb.oXpXpX=.%X;XlXkX;X;X;X;X;X;X;X;X;X;X;X;X;X;X;X;X;X;X;X;X;X;X;X;X;X;X;X",
";X;X;X;X;X;X;X;X;X;X;X;X;XfXwXM.vXvXG.i.l.5.5.XXXX X9XU.pXl.] j.0.3X4Xd.fX;X;X;X;X;X;X;X;X;X;X;X;X;X;X;X;X;X;X;X;X;X;X;X;X;X;X;X",
";X;X;X;X;X;X;X;X;X;X;X;X;XsXqXM.xXcXs.v.@. .s.K pXpXpXpXpXk  .n U Y.9Xj fX;X;X;X;X;X;X;X;X;X;X;X;X;X;X;X;X;X;X;X;X;X;X;X;X;X;X3X",
";X;X;X;X;X;X;X;X;X;X;X;X;XfXqXM.1XzXv.v.f ^ h 2.<.pXpXl.3.w ^ v T P.l.6XfX;X;X;X;X;X;X;X;X;X;X;X;X;X;X;X;X;X;X;X;X;X;X;X;X;X;X;X",
";X;X;X;X;X;X;X;X;X;X;X;X;XkXqXM.Q.iXR 4   D h f j.C pXpX< r L B V E +.rXfX;X;X;X;X;X;X;X;X;X;X;X;X;X;X;X;X;X;X;X;X;X;X;X;X;X;X;X",
";X;X;X;X;X;X;X;X;X;X;X;X;XkX+Xb.5.,XoX  j.@.k k v pXpXpX3.M 1 h  .U +.N fX;X;X;X;X;X;X;X;X;X;X;X;X;X;X;X;X;X;X;X;X;X;X;X;X;X;X;X",
";X;X;X;X;X;X;X;X;X;X;X;X;XjX+XY.W z.,XX.o.o % v $.uXpXuXOXu.-.>.;.E 3.j fX;X;X;X;X;X;X;X;X;X;X;X;X;X;X;X;X;X;X;X;X;X;X;X;X;X;X;X",
";X;X;X;X;X;X;X;X;X;X;X;X:XwX~.H.Q.W 5Xj.( X.X.Q.oXpXpXpXpXpXpXpX XZ jXj gX;X;X;X;X;X;X;X;X;X;X;X;X;X;X;X;X;X;X;X;X;X;X;X;X;X;X;X",
";X;X;X;X;X;X;X;X;X;X;X;X-XwXw.8XkXG.kXv.v.v.uXpXpX Xl.l.pXpXOX7.5.3XjXj wX3X;X;X;X;X;X;X;X;X;X;X;X;X;X;X;X;X;X;X;X;X;X;X;X;X;X;X",
";X;X;X;X;X;X;X;X;X;X;X;XcX>Xw.T.V.&X/.Y U x.v.v.OXpXoXXXpXh.Y s.1XxX3X3 jX0X;X;X;X;X;X;X;X;X;X;X;X;X;X;X;X;X;X;X;X;X;X;X;X;X;X;X",
";X;X;X;X;X;X;X;X;X;X;X;XvXF.vX7X-X$XF.#XD.h.6.Y I g.g.g.6.8.H.{.(.lX3Xj jX>.>.-.n n ~ ~ c ^.;X;X;X;X;X;X;X;X;X;X;X;X;X;X;X;X;X;X",
";X;X;X;X;X;X;X;X;X;X;X-XvXG.vX7XC.>X4X-XD.p s ! ,.J.l `.`.Q :.OX|.-XpXpXpXf f q q # # # o h _.3X;X;X;X;X;X;X;X;X;X;X;X;X;X;X;X;X",
";X;X;X;X;X;X;X;X;X;X;X0XkXT.cX8X+X:X@X-X{.1.c.8.1.! } I.oX| T ].|.p.7.7.J w < *.2.w.;X;Xi.R &.).;X;X;X;X;X;X;X;X;X;X;X;X;X;X;X;X",
";X;X;X;X;X;X;X;X;X;X;X9XwX{.wX7XlX&X*XhX>Xv.pXOXv.< a s ^.a ( 5 3X;XwXj 7X1 $.3XzX;X;X;X;Xg. X3X;X;X;X;X;X;X;X;X;X;X;X;X;X;X;X;X",
";X;X;X;X;X;X;X;X;X;X;XsXwX9XsXC.dXyXS.T.kXOXpXz.c.% / f r #./ # iXd.;Xy ] ~.2 v S ;X;X;X;XR.aX;X;X;X;X;X;X;X;X;X;X;X3X;X;X;X;X;X",
";X;X;X;X;X;X;X;X;X;X:XfXq.kX&XvXI rX@.xXoXpXXXg.2 w ( l ^ N...+ lXvX<XvX^.0 $ - + A ;X;X;X;X;X;X;X;X;X;X;X;X;X;X;X;X;X;X;X;X;X;X",
";X;X;X;X;X;X;X;X;X;XkX>XtXwX&XvXI #XT.xX5.OXg.> @ q ( q h ;. .+ ;XxXaXvX^ z : . : 0 !.;X;X;X;X;X;X;X;X;X;X;X;X;X;X;X;X;X;X;X;X;X",
";X;X;X;X;X;X;X;X;X;XvX+XkX0X&XvXN #X8.d.oXXXU 6 $ : q c , O.( - B.dXO.f f f f   O - } ;X;X;X;X;X;X;X;X;X;X;X;X;X;X;X;X;X;X;X;X;X",
";X;X;X;X;X;X;X;X;X;XcXkXwX:X*X'.H wXO.x.XXz.2 = 7 % q c ^.4X@Xf -.M l f f f q   O @ + 3X;X;X;X;X;X;X;X;X;X;X;X;X;X;X;X;X;X;X;X;X",
";X;X;X;X;X;X;X;X;X;X:XD.wX:XvXK cXv -.$.z.p.F 7 7 - , / f &.z n #.M f r q q o   O O : t ).3X3X).;X;X;X;X;X;X;X;X;X;X;X;X;X;X;X;X",
";X;X;X;X;X;X;X;X;X;X0XF.wX:XxX6XzXD ~ f < =X> 9 9 % / n g &.l f -.f r q q q 2 V.o   O - ).3X3X3X;X;X;X;X;X;X;X;X;X;X;X;X;X;X;X;X",
";X;X;X;X;X;X;X;X;X4Xw.wX:X+XcX1Xk ^ < % H 2 [ 9 - r X.f f M B.u._ w q , % 2 *X5X6X$.& X : b.3X3X;X[ $.;X;X;X;X;X;X;X;X;X;X;X;X;X",
";X;X;X;X;X;X;X;X;XF.0XwXzXvX[.J.c e Z.cXxX|.d b J.}.}.;.m M ) _ r % % # 0.kX;X4X9X6X4X9.X - D.D.$.O V ).;X;X;X;X;X;X;X;X;X;X;X;X",
";X;X;X;X;X;X;X;X;XH.yXsX$X7Xk.iX6.S.yX:Xa.3 ' e , c / x ) ) m g l f < + S D M.6XfX6X6X6XV X : ; $   D lX;X;X;X;X;X;X;X;X;X;X;X;X",
";X;X;X;X;X;X;X3X7XyX&X0.3 L wXsXdX!.D.$Xs.0.=.@ w z ~ c c c c l f f < , ; + +.P F.3X8Xk.t.o O t b y wX;X;X;X;X;X;X;X;X;X;X;X;X;X",
";X;X;X;X;X;X;X;XM.zX-XsXrXvXcXcXxXzXcXcXi.vXG 6 , q f ~ l X.X.( / / z , 0 : ` 7XvX0XvXrXrX.X  > $X(.jX;X;X;X;X;X;X;X;X;X;X;X;X;X",
";X;X;X;X;X;X;X;Xy.vX&XM.i.{.3.&X{.@.{.-X3.1Xt 8 # < , , q r r r w < o - 0 X d s @X4./.8X9X3XE.e.W.xX0X3X;X;X;X;X;X;X;X;X;X;X;X;X",
";X;X;X;X;X;X;X;Xb.cXcX1.3 lXvX*X#Xb.cX$X4.vXdX= p o # , q q q q , O . O 0 O ! u n.J 3X3X3X9Xf.3X6X4X3X;X;X;X;X;X;X;X;X;X;X;X;X;X",
";X;X;X;X;X;X;X!.2XfXw.sXjXH 2.{ }.0.8X$X4.vXsX* 7 7 = * + - * 7 8 X O O 0 O p ` H I 4.t.vX+.<.+.lX;X;X;X;X;X;X;X;X;X;X;X;X;X;X;X",
";X;X;X;X;X;X;Xb.cX0Xw.$XvX1.<.wXP zX>X$X4.vXsXC.t 6 7 7 s = u u Q & O O - + p ` n.3XH <.s.H K vX;X;X;X;X;X;X;X;X;X;X;X;X;X;X;X;X",
";X;X;X;X;X;X-Xb.vXwXw.7XfXrX'.T.8.C.7XP.4.vXcX4.|.w.} = Q Q 9 6 Q s . O - O p ` n.).] K.Q.9.kX3X;X;X;X;X;X;X;X;X;X;X;X;X;X;X;X;X",
";X;X;X;X;X;Xm.eXjX~.tXcXwX<.wX3.J C.yXS.0.vXzX{ <.*X6XA + ! 7 = s s . @ - + 7 6 n.).zXW.Z.f.I 6X6X6X0X6X6X8X5X3X3X3X3X3X).3X3X).",
";X;X;X;X;X-Xm.cXjXG.~.qXcX@.6XdX] }.P.I +XvX1.q.F.W.dX1.= i = = i | . 0 O 9.V.B %X#X'.9.U.gX5X5X4X4X0XvXk.k.K.cXcXxXcXxX3X3X3X3X",
";X;X;X;X;X+XY.cXqXD.-XwX|.9.0X+XvX7XF.0Xr.vX3.S.2X=Xd.J > t./.F } qXB 0 O }.V.1.6XtXr.3 gXP P ] 8XgXr.e.V 3 ] t.].}.3X3X3XkXwXwX",
";X;X;X;X-Xq.0XfXvXxXvXlXy 3 $XW.|.{ P { d.zXH C yXy y (./.tX;XjX[.F.@.: O lXhXcXvXL ;Xu.vXs.d.rXZ.j y j 4.aXaXiX3X3X3XvXvXvXcX3X",
"fXvXvX4.'.S.fXcXsXL *X2.y.}.{ { *Xi.tX=XdX@.].i.i.4.(.{.fX].gXT.D I D ; O 3.3.I I #XgXeXgXjX3X5X|.|.wX|.<XR.2X9X3XL 3X6XeXA.cX3X",
";X;Xd.dXhX$X{.a.} vXcXcXcXcXcXvXcX&X$XqXwXyXj j y L A.P.d.@.j j ;X;X@.0 O i.s.s.C 3 U./.(.(.aXaXzX5X;X3X3X3XR.K.vXvXvXxX;X+.cX;X",
";X;Xf.(.fXi.dXT.y.*X@XC.P J sX>XV.W.{.sX7Xq.9X$X#X{.A.].i.r.i.i.kXjX. @ @ + F F B.Q.1.<.e.e.e.1.3.%X6XkXkXvX9X6X;XkX3X1.).+.vX;X",
";X;X9X:XfXH zXcXvX6X4Xt.C sXA.A.;X4X4X;X9XlXkX8X].f.A.T.4X3XB.Z.Z.V   sX@ : O O y.3X5X}.K.k.].xXxXxXgX5XxX3X3X3X;XkX3XeX3X3XcX;X",
";X;X9X;X4XkX3X4XfX'.4Xr.vXaXlXlXlXvXvXlXlX;X5X5X%X%XL.L.].2.Z.3XA.A.<.f.1.1.'.S.yXlXvX6X6X6X5X3X3XjXK.:X;X;X;X;X;X9X3XwX;X;XcX3X",
";X3X6X3X;XvX;X4X6XkX[.a./.%Xs.Q.cX3X@XL.s.rXrXhXkX<Xk.s.P ].].].vXkX<Xk.f.tXK 8XkX|.].S.3X/.L.&X].3XR.-X;X;X;X;X;X;X;X;X;X;XvX;X",
";X;X;X;X;XvX;X0X6X;X3X7XzXd.N N lXkXjX3X1.(..XL.3X).E.9XvXkXvXr.{ N ] E.E.3XcXA.f.d.f.|.f.%XcX8X<X3X9X3X;X;X;X;X;X;X3X;X;X;X4X;X",
";X;X;X;X;X;X;X4X6X3X3XwX3X8XgXgXlX;X4XgX<.9.r.P.1XeXgX8X;X;X3XgX=Xa.Z.Q.9XgX;XjXgX*X|.}.eXtX8X3Xt.3X4X;X;X;X;X;X;X;X;X;X;X;X;X;X",
";X3X;X;X;X;X;X6X0X;X;XwX3X3X3X3X'.4X;X;X;XvX;X6X8X3X).3X;X;X;X;X3XcXK cXR.3X;X;X;Xi.r.gX;XjX;X;XlX).3X3X;X;X;X;X;X;X;X;X;X;X;X;X",
";X;X;X;X;X;X;X;X;X;X;X;X3X).).3XK.;X;X;X;X;X{ +X3X3X3X3X;X;X;X;X3X9XjX3X3X3X;X;X;X8X4X;X;X@X;X;X.X3X3X3X;X;X;X;X;X;X;X;X;X;X;X;X",
";X;X;X;X;X;X;X;X;X;X;X;X4X:X3X3XlX;X;X;X;X;XjX;X;X:X3X).;X;X;X;X;X;XjX3X;X;X;X;X;X;XcX;X;XW.;X;XkX5X).5X;X;X;X;X;X;X;X;X;X;X;X;X",
";X;X;X;X;X;X;X;X;X;X;X;X;X`.3X3X6X;X;X;X;X;X;X;X;X`.3X5X;X;X;X;X;X;X4X;X;X;X;X;X;X;X8X;X;X3X:X`.3X).3X3X;X;X;X;X;X;X;X;X;X;X;X;X"
};
