/* XPM */
static char *result[] = {
/* columns rows colors chars-per-pixel */
"64 64 247 2 ",
"   c #00020B",
".  c #0F0D0A",
"X  c #000311",
"o  c #000619",
"O  c #091319",
"+  c #000324",
"@  c #020B26",
"#  c #010529",
"$  c #001523",
"%  c #001B2A",
"&  c #05192A",
"*  c #13152E",
"=  c #010232",
"-  c #050D32",
";  c #02053B",
":  c #001333",
">  c #001B38",
",  c #1D272E",
"<  c #00233B",
"1  c #002739",
"2  c #24282C",
"3  c #2A2D38",
"4  c #323638",
"5  c #3B3A38",
"6  c #604C3A",
"7  c #040C45",
"8  c #060D4D",
"9  c #050E53",
"0  c #031357",
"q  c #002240",
"w  c #002A40",
"e  c #162C45",
"r  c #00344B",
"t  c #05384C",
"y  c #003C53",
"u  c #292946",
"i  c #373D46",
"p  c #3A3F43",
"a  c #303E5A",
"s  c #041568",
"d  c #0E1A6A",
"f  c #023165",
"g  c #17237C",
"h  c #2E3473",
"j  c #00475D",
"k  c #07495B",
"l  c #124B5A",
"z  c #3E4244",
"x  c #2A4D59",
"c  c #004D63",
"v  c #184C6E",
"b  c #02536A",
"n  c #095368",
"m  c #065B72",
"M  c #34546E",
"N  c #11657A",
"B  c #2A6578",
"V  c #366171",
"C  c #444A4D",
"Z  c #454B53",
"A  c #49535A",
"S  c #4D555C",
"D  c #555859",
"F  c #6D5C4C",
"G  c #494F6E",
"H  c #555E65",
"J  c #585C60",
"K  c #5C6268",
"L  c #446379",
"P  c #5B637B",
"I  c #64686A",
"U  c #777A6B",
"Y  c #646B74",
"T  c #6B7378",
"R  c #777A7C",
"E  c #846C57",
"W  c #927861",
"Q  c #938A74",
"!  c #A68567",
"~  c #A38E7C",
"^  c #B2997C",
"/  c #1A2680",
"(  c #273387",
")  c #3B4688",
"_  c #076B85",
"`  c #08728D",
"'  c #1D768D",
"]  c #097793",
"[  c #097996",
"{  c #2A788D",
"}  c #515087",
"|  c #484598",
" . c #4C758E",
".. c #597589",
"X. c #656C86",
"o. c #747A84",
"O. c #737A9B",
"+. c #425AAD",
"@. c #2D8297",
"#. c #0983A2",
"$. c #2294AF",
"%. c #468296",
"&. c #558D99",
"*. c #7D8285",
"=. c #77828B",
"-. c #7B8591",
";. c #788898",
":. c #4E8FA7",
">. c #7B8EA2",
",. c #758AAE",
"<. c #6595A9",
"1. c #7292AC",
"2. c #53A3BA",
"3. c #6DA4B6",
"4. c #39A6C9",
"5. c #6298C8",
"6. c #76B0C5",
"7. c #75CDEC",
"8. c #808486",
"9. c #83898C",
"0. c #8A8D8C",
"q. c #858D93",
"w. c #978F9D",
"e. c #89949C",
"r. c #989796",
"t. c #969B9A",
"y. c #AC9889",
"u. c #B1A38F",
"i. c #8B9AA8",
"p. c #949DA9",
"a. c #8598B6",
"s. c #8C9CBA",
"d. c #9B9FB5",
"f. c #94A5A9",
"g. c #9DA3AA",
"h. c #82AAB7",
"j. c #97A8B7",
"k. c #93A3BE",
"l. c #94B3B8",
"z. c #A7AAA9",
"x. c #A5ACB4",
"c. c #AEB3B4",
"v. c #ADB6BC",
"b. c #B6BAB9",
"n. c #B4B9BB",
"m. c #CBAD8A",
"M. c #D2B48F",
"N. c #C7B599",
"B. c #C8B7A5",
"V. c #BDC0BE",
"C. c #DDCEBD",
"Z. c #E4CBA7",
"A. c #ECD3AB",
"S. c #F0D7AF",
"D. c #E0CFBE",
"F. c #EBD6B6",
"G. c #F1DBB8",
"H. c #92A2C0",
"J. c #94A9C5",
"K. c #99ABC7",
"L. c #9CADCA",
"P. c #91B1CB",
"I. c #A3B6C5",
"U. c #A8B7CB",
"Y. c #B3BDC2",
"T. c #B0BCCF",
"R. c #A4B5D1",
"E. c #AABCD4",
"W. c #ABBCD6",
"Q. c #B2BFD4",
"!. c #8BC2D4",
"~. c #BDC2C3",
"^. c #B5C2CC",
"/. c #B9C4CC",
"(. c #AAC6D7",
"). c #B5C4D4",
"_. c #BAC7D4",
"`. c #B4CDD0",
"'. c #B3C3DC",
"]. c #B3CADE",
"[. c #BCCBD9",
"{. c #B7CAE2",
"}. c #BCCDE5",
"|. c #A7D2E6",
" X c #BCD2E4",
".X c #B9D6E8",
"XX c #96E6FD",
"oX c #B1E3F8",
"OX c #C1C5C5",
"+X c #CEC9C4",
"@X c #C5CACA",
"#X c #CACCCC",
"$X c #CCD0CF",
"%X c #DDD5CB",
"&X c #C3CDD3",
"*X c #C2CDDB",
"=X c #CBD1D3",
"-X c #CAD4DA",
";X c #D5D8D7",
":X c #D6D9D7",
">X c #E5D8C9",
",X c #F6E4CB",
"<X c #E8E5DC",
"1X c #F8EBD8",
"2X c #C2CFE5",
"3X c #C3D5E5",
"4X c #C4D4ED",
"5X c #C2DAEE",
"6X c #CAD8E8",
"7X c #CCDBED",
"8X c #D6DDE6",
"9X c #C5D6F0",
"0X c #C4DFF4",
"qX c #CCDDF2",
"wX c #CEE0EB",
"eX c #DDE3E3",
"rX c #DCE4EB",
"tX c #D8E7EC",
"yX c #C6E0F4",
"uX c #CCE3F5",
"iX c #CFE6F8",
"pX c #D3E5F5",
"aX c #D8E6F5",
"sX c #D6E9F7",
"dX c #D9EBF6",
"fX c #D5EAFC",
"gX c #DBEEFD",
"hX c #DEF0FE",
"jX c #E4E7E8",
"kX c #EAEEED",
"lX c #F7EEE5",
"zX c #EEF0EE",
"xX c #FBF1E5",
"cX c #F0F2EF",
"vX c #E3ECF4",
"bX c #E8EDF1",
"nX c #E1EFF9",
"mX c #E3F1F6",
"MX c #ECF1F4",
"NX c #E4F2FB",
"BX c #EAF5FA",
"VX c #EFF8FD",
"CX c #F2F3F3",
"ZX c #F5F8F7",
"AX c #F1F7FA",
"SX c #F4FAFB",
"DX c #FBFDFC",
/* pixels */
"0X0X0X0X0X0X0X0X0XyX0X0X0X0X0X0XyXSXSXsX0X0X0X0X0X0X0X0X0X0X0X0X0X0X0X0X0X0X0X0X0X0X0X0X0X0X0X0X0X0X0X0X0X0X0X0X0X0X0X0X0X0X0X0X",
"0X0X0X0X0X0X0X0X0X0X0X0X0X0X0X0XgXhX(.B 0X0X0X0X0XyX0X0X0X0X0X0X0X0X0X0X0X0X0X0X0X0X0X0X0X0X0X0X0X0X0X0X0X0X0X0X0X0X0X0X0X0X0X0X",
"0X0X0X0X0X0X0X0X0X0X0X0X0X0X0XuXgX}.V &.<.0X0X0X0X0X0X0X0X0X0X0X0X0X0X0X0X0X0X0X0X0X0X0X0X0X0X0X0X0X0X0X0X0X0X0X0X0X0X0X0X0X0X0X",
"0X0X0X0X0X0X0X0X0X0X0X0X0X0X0XfX5Xs.;.m <.yX0X0X0X0X0X0X0X0X0X0X0X0X0X0X0X0X0X0X0X0X0X0X0X0X0X0X0X0X0X0X0X0X0X0X0X0X0X0X0X0X0X0X",
"0X0X0X0X0X0X0X0X0X0X0X0X0X0X0XfX5XL.>.b { 3.yXqX0X0X0X0X0X0X0X0X0X0X0X0X0X0X0X0X0X0X0X0X0X0X0X0X0X0X0X0X0X0X0X0X0X0X0X0X0X0X0X0X",
"0X0X0X0X0X0X0X0X0X0X0X0X0X0XuXhXH.4X>.y 7.N .XoX0XsXuX0X0X0X0X0X0X0X0X0X0X0XoXyX0X0X0X0X0X0X0X0X0X0X0X0X0X0X0X0X0X0X0X0X0X0X0X0X",
"0X0X0X0X0X0X0X0X0X0X0X0X0X0XuXNXH.9X(., c 3.J.yX0XsXyXyX0X0X0X0X0X0X0X0X0X0XqX0X0X0X0X0X0X0X0X0X0X0X0X0X0X0X0X0X0X0X0X0X0X0X0XyX",
"0X0X0X0X0X0X0X0X0X0X0X0X0X0XuXsXK.5XE.& b 4.@.oX0XsXDXyX0XmX0X0X0X0X0X0X0X0X0X0X0X0X0X0X0X0X0X0X0X0X0X0X0X0X0X0X0X0X0X0X0X0X0X0X",
"0X0X0X0X0X0X0X0X0X0X0X0X0X0XuXI.9X9XW.& ,.,.(.fXW.fXNX0XyXhXyXyX0X0X0X0X0X0X0X0X0X0X0X0X0X0X0X0X0X0X0X0X0X0X0X0X0X0X0X0X0X0X0X0X",
"0X0X0X0X0X0X0X0X0X0X0X0X0X0XpX'.9X'.K.,.yXs.VXNXhXR. XgXgXhXyXyX0X0X0X0X0X0X0X0X0X0X0X0X0X0X0X0X0X0X0X0X0X0X0X0X0X0X0X0X0X0X0X0X",
"0X0X0X0X0X0X0X0X0X0X0X0X0X0XgXaX9Xa.,.,.dXuX3XSXSXgXiX].gXgX,.{.0X0X0X0X0X0X0X0X0X0X0X0X0X0X0X0X0X0X0X0X0X0X0X0X0X0X0X0X0X0X0X0X",
"0X0X0X0X0X0X0X0X0X0X0X0X0X0XDXaX{. X,.,.SXvX}.VXgXVXgXtX{.VXsX,.'.0X0X0X0X0X0X0X0X0X0X0X0X0X0X0X0X0X0X0X0X0X0X0X0X0X0X0X0X0X0X0X",
"0X0X0X0X0X0X0X0X0X0X0X0X0X0XDXDXjX,.,.,.DXDXE.hXDXDXDXDXk.fXuX,.H.yX0X0X0X0X0X0X0X0X0X0X0X0X0X0X0X0X0X0X0X0X0X0XyX0X0X0X0X0X0X0X",
"0X0X0X0X0X0X0X0X0X0X0X0X0X0XDXqXK.*X,.,.VXDX7X{.SXBXVXBXgX{.gXJ.H.yX0X0XfX0X0X0X0X0X0X0X0X0X0X0X0X0X0X0X0X0X0X0X0X0X0X0X0X0X0X0X",
"0X0X0X0X0X0X0X0X0X0X0X0X0XfXAXL.pXZX,.,.).SXNXuX0XVXSXhXhX].wXa.,.}.0X0XDX0X0X0X0X0X0X0X0X0X0X0X0X0X0X0X0X0X0X0X0X0X0X0X0X0X0X0X",
"0X0X0X0X0X0X0X0X0X0X0X0X0XnXfXL.DXDXE.,.a.R.R.L.L.gXgXgXL.<XxX1X3.9X0XBXNXuX0X0X0X0X0X0X0X0X0X0X0X0X0X0X0X0X0X0X0X0X0X0X0X0X0X0X",
"0X0X0X0X0X0X0X0X0X0X0X0X0XnXfXL.DXDXE.i.B.u.N.,XG.>XrXQ.xX>XK V.p.0XuX$XnX0X0X0X0X0X0X0X0X0X0X0X0X0X0X0X0X0X0X0X0X0X0X0X0X0X0X0X",
"0X0X0X0X0X0X0X0X0X0X0X0XqXnXfXL.AXSXv.A.i.B l.U 1XxXxXjXlXx :.O.E ].sXz nX0X0X0X0X0X0X0X0X0X0X0X0X0X0X0X0X0X0X0X0X0X0X0X0X0X0X0X",
"0X0X0X0X0X0X0X0X0X0X0X0X0XNXfXL.qXAXu.! O x x f.r.xXxX%XW t ;. .5 _.OXwXnX0X0X0X0X0X0X0X0X0X0X0X0X0X0X0X0X0X0X0X0X0X0X0X0X0X0X0X",
"0X0X0X0X0X0X0X0X0X0X0X0X0XNXfXL.}.kXS.. (.P.6.z +XD xX1Xy p.R.:.5 ! 9.cXnX0X0X0X0X0X0X0X0X0X0X0X0X0X0XyX0X0X0X0X0X0X0X0X0X0XyX0X",
"0X0X0X0X0X0X0X0X0X0X0X0X9XBX4XH.r.eX<Xl MXwXV |.l.z.xXxXQ dXi.Y $.W R z mX0X0X0X0X0X0X0X0X0X0X0X0X0X0X0X0X0X0X0X0X0X0X0X0X0X0X0X",
"0X0X0X0X0X0X0X0X0X0X0X0X0XNX}.'.! A.eX#.4.8XkXrXBXxXxXxXzX6.2 { 2.! *.z gX0X0X0X0X0X0X0X0X0X0X0X0X0X0X0X0X0X0X0X0X0X0X0X0X0X0X0X",
"0X0X0X0X0X0X0X0X0X0X0X0X0XgX}.W.*X^ yXl.#.b N c.<XxXxXxXxXxXlXlX>XF BXz mX0X0X0X0X0X0X0X0X0XoXyX0X0X0X0X0X0X0X0X0X0X0X0X0X0X0X0X",
"0X0X0X0X0X0X0X0X0X0X0X0X9XgXs.pXVXU.NXS.A.S.lXxXxXD.C.>XxXxXlXy.~ yXNXz nX0X0X0X0X0X0X0X0XyX7XyX0X0X0X0X0X0X0X0X0X0X0X0X0X0X0X0X",
"0X0X0X0X0X0X0X0X0X0X0X0XMXpXs.*X(.wX4X! W S.G.G.1XxX>XD.xXN.~ b.6XAXuXp vX0X0X0XyXoXqX0X0X0XyXyX0X0X0X0X0X0X0X0X0X0X0X0X0X0X0X0X",
"0X0X0X0X0X0X0X0X0X0X0X0XDXE.DXaX4X4X).4XL.^ y.W U M.M.M.~ p.2X'.5XCX0Xp nX!.!.6.m m ` ` N .XyXuX0X0X0X0X0X0X0X0X0X0X0X0X0X0X0X0X",
"0X0X0X0X0X0X0X0X0X0X0X0XDXE.DXaXT.qX5X4XR.( ( ) 7.l.l |.oX( 5.<X;XyXlX<XlXc b r r < & & $ v XXwX0X0X0X0X0X0X0X0X0X0X0X0X0X0X0X0X",
"0X0X0X0X0X0X0X0X0X0X0XuXVX).AXfX}.qX3X4XQ.o.,XO.X.) w.`.,X+.0.;X:Xb.B.N.T y < ..T >.0X0Xr.U h.oX0X0X0X0X0X0X0X0X0X0X0X0X0X0X0X0X",
"0X0X0X0X0X0X0X0X0X0X0XgXgX*XnXNXBXwX6XCX7XS.xX1XA.1 s g oXf ` 6 0X0XdXz nX$ 1.0XCXqX0X0X0Xm.F.0X0X0X0X0X0X0X0X0X0X0X0X0X0X0X0X0X",
"0X0X0X0X0X0X0X0X0X0X0XvXgXrXjXI.MXjX^.&XAX,XlXZ.A.< [ j f &.] % kXn.0Xp o..Xa P X.9X0X0X0X/.cX0X0X0X0X0X0X0X0X0X0X0X0X0X0X0X0X0X",
"0X0X0X0X0X0X0X0X0X0X0XvXa.nX4XDXR jX=.ZX<XxX,XM.2 r [ j N 3.@.@ SXDXdXDX.X: & > + M 0X0X0X0X0X0X0X0X0X0X0X0X0X0X0X0X0X0X0XqX0X0X",
"0X0X0X0X0X0X0X0X0X0XNXaX8XgX7XDXo.6XT.ZXu.lXm.3 & w [ r M P.:.@ 0XSXjXDX@.b > X > e ].0X0X0X0X0X0X0X0X0X0X0X0X0X0X0X0X0X0XoXyX0X",
"0X0X0X0X0X0X0X0X0X0XAX{.SXfX6XDXC 3Xj./.,X1XW ; > 1 w m 1 <.] @ T.BX<.k j j j   + : a.yXyXoX0X0X0X0X0X0X0X0X0X0X0X0X0X0X0X0X0X0X",
"0X0X0X0X0X0X0X0X0X0XDXNXgXuXeX@XJ aX&.Z.,XZ.4 = 8 % w m !..X(.j :.%.c j j j w   + @ + yX0XqX0X0X0X0X0X0X0X0X0X0X0X0X0X0X0X0X0X0X",
"0X0X0X0X0X0X0X0X0X0XqXE.gXqXZXY AXA 2.j.Z.u.} 0 8 : 1 [ j 3.c _ @.B j y r w O   + + > a 0X0X0X0X0X0X0X0X0X0X0X0X0X0X0X0X0X0X0X0X",
"0X0X0X0X0X0X0X0X0X9XfXE.gXuXZXwXDXJ _ c e NX* 0 9 % ` N j <.j k 6.j j 1 1 1 , J.  X # : 0X0X0X0X0X0X0X0X0X0X0X0X0X0X0X0X0X0X0X0X",
"0X0X0X0X0X0X0X0X0XuXs.gXuX4XSXwXx ' w < A 3 P 0 : r [ c k  .h.<.%.t w 1 > 3 *XuXsX..O + : K.0XyX0X;.a.0X0X0X0X0X0X0X0X0X0X0X0X0X",
"0X0X0X0X0X0X0X0X0XW.uXgXDXDX<XP.N & I.DXDXMXG h |.hXtXh.n n B  .t % % $ q.SXyXuXdXyXqX-.o :  X Xs.+ S qX0X0X0X0X0X0X0X0X0X0X0X0X",
"0X0X0X0X0X0X0X0X0XW.vXnX4XrXz.dX0.T.eXqXv.4 L x 1 m ` B  .@.{ j j j w @ T T I.iXhXdXdXdXZ + > : @ X J NX0X0X0X0X0X0X0X0X0X0X0X0X",
"0X0X0X0X0X0X0XqXqXMX7Xp.4 D fXnXAX3XL.4Xf.e.P.$ r b ] c b b c j j j 1 < > - =.D U.yXiX:XE.X + u x , sX0X0X0X0X0X0X0X0X0X0X0X0X0X",
"0X0X0X0X0X0X0XyXE.kX4X8X#XSXSXSXMXjXMXAXc.DXG 7 > r j _ b #.#.] ] ` k < q > } vXAXsXDX#X@XOX  u 3X XmX0X0X0X0X0X0X0X0X0X0X0X0X0X",
"0X0X0X0X0X0X0X0XH.DX7Xj.Y.#Xg.7X_.-.OX4Xr.4Xu 7 $ 1 1 w < y y j t < $ : > # h ( 3Xg. XsXsXyX].e._.SXiX0X0X0X0X0X0X0X0X0X0X0X0X0X",
"0X0X0X0X0X0X0X0Xk.AXAXi.5 VXjX8X6Xk.AX4Xr.DX8X; s $ $ < w w w 1 1 + X + q # ( s J.I 0X0XuXdX~.yXiXsX0X0X0X0X0X0X0X0X0X0X0X0X0X0X",
"0X0X0X0X0X0X0X{.rXnXs.aXAXS o.0.*X8.nX4Xr.DXNX= 8 8 - - @ : - 7 8 o + + > + s | X.8.8.p.DX9.g.e.BX0X0X0X0X0X0X0X0X0X0X0X0X0X0X0X",
"0X0X0X0X0X0X0XH.SXfXs.4XDX-.q.gXI DXqX4Xt.DXvXL.= 8 8 8 d = s s / * + + : + d | J.0XC 0.n.S C DXyX0X0X0X0X0X0X0X0X0X0X0X0X0X0X0X",
"0X0X0X0X0X0X9XH.DXgXs.aXNX;Xb.[.i.E.vX_.t.DXZXx.eXO.X.; ( / 9 7 g g X + : + s | J.0X;.b.[.j.dXuX0X0X0X0X0X0X0X0X0XyX0X0X0X0X0X0X",
"0X0X0X0X0X0XK.gXNX}.vXSXgX0.gX*.X.T.NX/.t.DXZX8.9.8XqXZ # ( 9 ; g g   @ : # 8 8 J..XDX[.].c.J uXuXuXyXuXuXuXuX0X0X0X0X0X0X0X0X0X",
"0X0X0X0X0X5XL.SXNXW.}.gXSX9.pXbXP =X@Xo.*XDXw.>.I.*XAXO.# h ; ; d |   < # ;.a.i  X X@Xf.j.hXdXdXsXsXsXDX#X@X@XBXBXBXBXBX0X0X0X0X",
"0X0X0X0XqX}.W.DXfXR.4XgX8Xp.sX2XDXaXQ.iXd.DX0.).jXaXb.X.- g.{.a ..sXp < + .X(.o.iXmXi.4 NXH K K pXBXe.e.C 4 ;.I.~.&XyXoXqXBXpXsX",
"0X0X0X0X9Xs.uXNXAXbXAXVXZ C 9X_.eX9.o.9.c.CXI I rXS C T.E.rX0XNX-X[.;.> + MXeXAXZXR yXi.VXV.v.rX^.S S S t.:X:X;XiXiXyXSXSXSXDXiX",
"dXSXDXb.=X$XMXAXaXH 8Xo.j.3XY o.8Xp.8X;XbXi.;Xw.t.*. X&XdX~.NXY.Y 8.Y < + x.x.8.*.wXBXBXdXdXyXiX$X=XBXeXrX[.bXdXyXY yXuXdX=XSX0X",
"0X7Xb.jXnX}.*Xx.;.SXDXDXZXDXDXAXDXqX9XfXgXjXi p z T n._.n.-.i z  X}.;.> + z.z.x.C p ].yXyXyXDXDXDXpX0X5X0X0X^.OXSXZXDXDXyXo.DX0X",
"0X0Xb..XBXn.vX[.j.eX3XU.-.o.vXqXR._.6XvXpXa.hX X[._.^.OXV.v.n.b.nXnXX : # # X.X.I.[.*.T ;.-.-.o.9.5XiXhXvXDXgXdX0XBX0X0.yX=.SX0X",
"0X0XfXyXvXC DXDXDXyXyXi.z vXv.v.yXyX0X0XgXSXBXsX~.n.n._.yXyX(.j.U.i X kX: > # + l.yXyX*Xn.n.~.DXDXDXBXyXDXyX0X0X0XBX0XgXoXqXDX0X",
"0X0XdXqXpXmX0XiXnX#XsXx.DXkXNXMXBXDXDXNXMX0XiXsX5X5X`./.$Xf.j.0X/./.T Y.T o.p.g.wXBXDXdXdXdXdXyXyXdX@XsXyX0X0X0X0XdXqXgX0X0XDX0X",
"0X0XdX0X0XDX0XiXpXDX@Xx.3X5Xc.3XSXyX*XY.c.cXzXSXSXkX:Xj.D ~.~.~.DXSXbX;X:XkXD pXBXeXV./.yX4Xn.3XeXiX^..X0X0X0X0XyXqX0X0X0X0XSX0X",
"0X0X0X0X0XDXyXuXpX0XpXwXkXb.D J SXBXvX0Xe. X;X^.0X.XI.mXDXBXSXv.q.H =.I.I.yXBX~.~.n.~.=X^. XBXdX=X0XsXyX0X0X0X0X0X0X0X0X0X0XiX0X",
"0X0X0X0X0X0X0XiXpX0X0XgX0XdXBXBXBX0XsXBXT j.v./.uXsXBXsXyX0XyXBX-Xp.). XsXBXyXBXBX=X=X-XsXkXsXqXf.0XsXyX0X0X0XyX0XyX0X0X0X0X0X0X",
"0X0X0X0X0X0X0XiXpX0X0XgX0X0X0X0X#XuX0X0XuXeX].uXpXyX0X0X0X0X0X0XuXBXT cX&XyXyXyX0Xb.z.mXuXvXuXoXMX0X0X0X0X0X0X0X0X0X0X0X0X0X0X0X",
"0X0X0X0X0X0X0X0XyXyX0X0X0X0X0X0XOXyX0X0XyXyXR _.yXyX0X0X0X0X0X0XyXgXvXyXyXyXyXoX0XsXuX0XyX XyXyX-X0X0X0X0X0X0X0X0X0X0X0X0X0X0X0X",
"0X0X0X0X0X0X0X0X0X0X0X0X0X0X0X0XBXyXyX0X0X0XmX0XyX0X0X0X0X0X0X0X0X0XBX0X0X0X0X0X0X0XDX0X0X_.0X0XAXoXqX0X0X0X0X0X0X0X0X0X0X0X0X0X",
"0X0X0X0X0X0X0X0X0X0X0X0X0X0X0X0XsX0XoXqX0XyXyX0X0XyX0X0X0X0X0X0X0X0XpXyX0X0X0X0X0X0XsX0X0X0X0X0XyXyX0X0X0X0X0X0X0X0X0X0X0X0X0X0X",
"0X0X0X0X0X0X0X0X0X0X0X0X0X0X0X0X0X0X0X0X0X0X0X0X0X0X0X0X0X0X0X0X0X0X0X0X0X0X0X0X0X0X0X0X0X0X0X0X0X0X0X0X0X0X0X0X0X0X0X0X0X0X0X0X",
"0X0X0X0X0X0X0X0X0X0X0X0X0X0X0X0X0X0X0X0X0X0X0X0X0X0X0X0X0X0X0X0X0X0X0X0X0X0X0X0X0X0X0X0X0X0X0X0X0X0X0X0X0X0X0X0X0X0X0X0X0X0X0X0X"
};
