/* XPM */
static char *result[] = {
/* columns rows colors chars-per-pixel */
"64 64 242 2 ",
"   c #02040A",
".  c #000212",
"X  c #030719",
"o  c #0C151B",
"O  c #000224",
"+  c #000529",
"@  c #000A2B",
"#  c #001423",
"$  c #041929",
"%  c #001C2D",
"&  c #15192A",
"*  c #020334",
"=  c #02043A",
"-  c #001233",
";  c #001936",
":  c #021739",
">  c #032434",
",  c #0F2C32",
"<  c #00233C",
"1  c #002B3E",
"2  c #172835",
"3  c #2E2D35",
"4  c #323638",
"5  c #383C3E",
"6  c #514337",
"7  c #040B43",
"8  c #060D4D",
"9  c #0E1645",
"0  c #050E55",
"q  c #07125B",
"w  c #002240",
"e  c #002941",
"r  c #172742",
"t  c #033749",
"y  c #00354C",
"u  c #013C53",
"i  c #262B49",
"p  c #283845",
"a  c #3A3F43",
"s  c #343949",
"d  c #223A58",
"f  c #383C59",
"g  c #051365",
"h  c #141D63",
"j  c #081871",
"k  c #14276F",
"l  c #303178",
"z  c #00475D",
"x  c #02475C",
"c  c #144854",
"v  c #3C4347",
"b  c #294A54",
"n  c #014C62",
"m  c #04546A",
"M  c #17576D",
"N  c #055A73",
"B  c #085F72",
"V  c #354D64",
"C  c #2C5667",
"Z  c #08647C",
"A  c #3E636C",
"S  c #2A677A",
"D  c #474B4C",
"F  c #4A4F50",
"G  c #4A545A",
"H  c #56595A",
"J  c #4B5765",
"K  c #50556E",
"L  c #484C78",
"P  c #596368",
"I  c #4B6678",
"U  c #5E6974",
"Y  c #626668",
"T  c #666D73",
"R  c #69747C",
"E  c #727678",
"W  c #916949",
"Q  c #876D53",
"!  c #9B7A5E",
"~  c #9C8A75",
"^  c #A78667",
"/  c #AF9275",
"(  c #C3A47F",
")  c #1A2680",
"_  c #2C3285",
"`  c #2A579C",
"'  c #086A84",
"]  c #097691",
"[  c #0C7793",
"{  c #097B97",
"}  c #2F7789",
"|  c #474598",
" . c #537387",
".. c #6E7A87",
"X. c #6D7B92",
"o. c #566DAA",
"O. c #138296",
"+. c #0A83A1",
"@. c #3893AB",
"#. c #538896",
"$. c #7A8287",
"%. c #718793",
"&. c #7B8895",
"*. c #5695AA",
"=. c #7A8DA6",
"-. c #758AAE",
";. c #6797AA",
":. c #7D94A4",
">. c #50A2B8",
",. c #73A6B8",
"<. c #6CB1C7",
"1. c #74B8D1",
"2. c #82878A",
"3. c #8A8D8D",
"4. c #938E8B",
"5. c #838C96",
"6. c #88939C",
"7. c #969897",
"8. c #979B9B",
"9. c #AB9A8B",
"0. c #B6A899",
"q. c #8B97A9",
"w. c #959CA8",
"e. c #8699B7",
"r. c #8B9DBB",
"t. c #9AA4AA",
"y. c #91A7B5",
"u. c #97A8B9",
"i. c #A4A9AA",
"p. c #B3AFAB",
"a. c #A5ADB8",
"s. c #AFB4B5",
"d. c #A8B5BC",
"f. c #B1B3B5",
"g. c #B6B8BB",
"h. c #B1BABC",
"j. c #C6A682",
"k. c #CEB696",
"l. c #C8B7A7",
"z. c #BAC0BE",
"x. c #DEC39C",
"c. c #D2C3B2",
"v. c #EDD4AE",
"b. c #F0D7AF",
"n. c #E5D3B3",
"m. c #F1DAB6",
"M. c #8596C5",
"N. c #8CA3C1",
"B. c #92A3C1",
"V. c #94A8C5",
"C. c #9BACC6",
"Z. c #9CADCA",
"A. c #88BACD",
"S. c #97B7C9",
"D. c #A0ABC1",
"F. c #A2B4C3",
"G. c #ACB9C7",
"H. c #A4B2CA",
"J. c #B6BEC6",
"K. c #A6BAD3",
"L. c #A9B9D5",
"P. c #ABBCD5",
"I. c #98C6D2",
"U. c #B8C4C7",
"Y. c #BBC5CD",
"T. c #ABC6D7",
"R. c #B4C5D3",
"E. c #BCC6D4",
"W. c #BBCAD5",
"Q. c #B2C3DB",
"!. c #B8C7DA",
"~. c #BCCADB",
"^. c #BDD1DD",
"/. c #BBCCE5",
"(. c #A5D7E2",
"). c #B6D3E6",
"_. c #BDD3E2",
"`. c #BBD4E8",
"'. c #BED9EB",
"]. c #98E0F2",
"[. c #B5E8F8",
"{. c #C6C9CA",
"}. c #C6CBCB",
"|. c #D4D3CA",
" X c #C5CCD2",
".X c #C4CEDB",
"XX c #CAD5D8",
"oX c #CCD5DC",
"OX c #D4D7D5",
"+X c #D4DADB",
"@X c #DADCDD",
"#X c #E5DACA",
"$X c #E6DDD1",
"%X c #D7E1DB",
"&X c #F5E4CA",
"*X c #EAE3D4",
"=X c #F5EADB",
"-X c #C3D4E5",
";X c #CAD7E6",
":X c #C4D4ED",
">X c #C3D9EC",
",X c #CBDAED",
"<X c #D6DDE2",
"1X c #C7D7F0",
"2X c #C4DFF4",
"3X c #CBDDF3",
"4X c #D2DFF2",
"5X c #CEE2E8",
"6X c #DDE1E3",
"7X c #D8E6EC",
"8X c #DDE5ED",
"9X c #C7E0F4",
"0X c #CCE3F5",
"qX c #CEE7F6",
"wX c #D3E6F5",
"eX c #DBE5F3",
"rX c #D6E9F7",
"tX c #DAEAF5",
"yX c #D3E6F9",
"uX c #D5EAFC",
"iX c #DBEDFD",
"pX c #DEF0FE",
"aX c #E2E5E4",
"sX c #E7EBEA",
"dX c #E4EAEC",
"fX c #F8EFE2",
"gX c #EEF1EF",
"hX c #FBF1E5",
"jX c #F1F2EE",
"kX c #E6ECF2",
"lX c #E4ECF5",
"zX c #E1EFF9",
"xX c #E3F0F6",
"cX c #EAF1F3",
"vX c #E4F2FB",
"bX c #EBF5FA",
"nX c #EFF8FB",
"mX c #F3F5F4",
"MX c #F6F8F7",
"NX c #F6F7F8",
"BX c #F4FAFA",
"VX c #FBFEFC",
/* pixels */
"2X2X2X2X2X2X2X2X2X2X2X2X2X2X2X2X2X2X2X2X2X2X2X2X2X2X2X2X2X2X2X2X2X2X2X2X2X2X2X2X2X2X2X2X2X2X2X2X2X2X2X2X2X2X2X2X2X2X2X2X2X2X2X2X",
"2X2X2X2X2X2X2X2X2X2X2X2X2X2X2X2X2X2X2X2X2X2X2X2X2X2X2X2X2X2X2X2X2X2X2X2X2X2X2X2X2X2X2X2X2X2X2X2X2X2X2X2X2X2X2X2X2X2X2X2X2X2X2X2X",
"2X2X2X2X2X2X2X9X2X2X2X2X2X2X2X2X9XtXrX9X2X2X2X2X2X2X2X2X2X2X2X2X2X2X2X2X2X2X2X2X2X2X2X2X2X2X2X2X2X2X2X2X2X2X2X2X2X2X9X2X2X2X2X2X",
"2X2X2X2X2X2X2X2X2X2X2X2X2X2X2X2XyXVXpXVX2X2X2X2X2X2X2X2X2X2X2X2X2X2X2X2X2X2X2X2X2X2X2X2X2X2X2X2X2X2X2X2X2X2X2X2X2X2X2X2X2X2X2X2X",
"2X2X2X2X2X2X2X2X2X2X2X2X2X2X2X2XiXiX%.n A.2X2X2X2X2X2X2X2X2X9X[.2X2X2X2X2X2X2X2X2X2X2X2X2X2X2X2X2X2X2X2X2X2X2X2X2X2X2X2X2X2X2X2X",
"2X2X2X2X2X2X2X2X2X2X2X2X2X2X2XuXiXB.M [.;.2X2X2X2X2X2X2X2X2X9X'.2X2X2X2X2X2X2X2X2X2X2X2X2X2X2X2X2X2X2X2X2X2X2X2X2X2X2X2X2X2X2X2X",
"2X2X2X2X2X2X2X2X2X2X2X2X2X2X2XuX>XN.=.m } 1X2X2X2X2X2X2X2X2X2X9X2X2X2X2X2X2X2X2X2X2X2X2X2X2X2X2X2X2X2X2X2X2X2X2X2X2X2X2X2X2X2X2X",
"2X2X2X2X2X2X2X2X2X2X2X2X2X[.9XuX/.P.&.n <.B 2X2X2X9X2X2X2X2X2X2X2X2X2X2X2X2X2X2X2X2X2X2X2X2X2X2X2X2X2X2X2X2X2X2X2X2X2X2X2X2X2X2X",
"2X2X2X2X2X2X2X2X2X2X2X2X2X2X3XvXB.:XZ.: } N A.2X9XyX9X2X2X9X2X2X2X2X2X2X2X2X2X2X2X2X2X2X2X2X2X2X2X2X2X2X2X2X2X2X2X2X2X2X2X2X2X2X",
"2X2X2X2X2X2X2X2X2X2X2X2X2X2X0XvXB.:XP.& n ].,.2X9XtXiX2X2X0X2X2X2X2X2X2X2X2X2X2X2X2X2X2X2X2X2X2X2X2X2X2X2X2X2X2X2X2X2X2X2X2X2X2X",
"2X2X2X2X2X2X2X2X2X2X2X2X2X2X0XP.:X:XP.$ n m B 2X'.iXVX9X2XxX2X2X2X2X2X2X2X2X2X2X2X2X2X2X2X2X2X2X2X2X2X2X2X2X2X2X2X2X2X2X2X2X2X2X",
"2X2X2X2X2X2X2X2X2X2X2X2X2X2X3XG.1X1XP.V K.N.vXiX/./.uXqXqXxX2X2X2X2X2X2X2X2X2X2X2X2X2X2X2X2X2X2X2X2X2X2X2X2X2X2X2X9X2X2X2X2X2X2X",
"2X2X2X2X2X2X2X2X2X2X2X2X2X2XiXeX1Xe.-.-.qXB.nXBXnXpXV.iXiXiX[.9X2X2X2X2X2X2X2X2X2X2X2X2X2X2X2X2X2X2X2X2X2X2X2X2X2X2X2X2X2X2X2X2X",
"2X2X2X2X2X2X2X2X2X2X2X2X2X2XnXwX/.H.-.-.vXyX`.VXpXvXiX~.iXvXL.N.2X2X2X2X2X2X2X2X2X2X2X2X2X2X2X2X2X2X2X2X2X2X2X2X2X2X2X2X2X2X2X2X",
"2X2X2X2X2X2X2X2X2X2X2X2X2X2XVXeX/.Q.-.-.VXVX).pXvXBXpXnXr.VXxX-.N.2X2X2X2X2X2X2X2X2X2X2X2X2X2X2X2X2X2X2X2X2X2X2X2X2X2X2X2X2X2X2X",
"2X2X2X2X2X2X2X2X2X2X2X2X2X2XVXeXP.e.-.-.nXVXK.iXVXVXvXVX-X'.uXN.N.2X2X2X2X2X2X2X2X2X2X2X2X2X2X2X2X2X2X2X2X2X9X2X2X2X2X2X2X2X2X2X",
"2X2X2X2X2X2X2X2X2X2X2X2X2X2XVX:XH.nX-.-.eXVXvXL.vXpXVXiXiX/.uXr.r.2X2X2XvX2X2X2X2X2X2X2X2X2X2X2X9X2X2X2X2X2X2X2X2X2X2X2X2X2X2X2X",
"2X2X2X2X2X2X2X2X2X2X2X2X2XzXiXZ.NXVX-.-.L.zXiX0X>XiXpXiXiXE.fXOX-.).2X2XVX2X2X2X2X2X2X2X2X2X2X2X2X2X2X2X2X2X2X9X2X2X2X2X2X2X2X2X",
"2X2X2X2X2X2X2X2X2X2X2X2X2XzXuXZ.VXVX.X-.q.f.f.f.s.6XuX5XG.hXp.$XM.9X2XVXvX2X2X2X2X2X2X2X2X2X2X2X2X2X2X2X2X2X2X2X2X2X2X2X2X2X2X2X",
"2X2X2X2X2X2X2X2X2X2X2X2X2XzXuXZ.VXVXL.n.n.D v hXfXfXfXU.fX4.OXU.~ 2XrXF zX2X2X2X2X2X2X2X2X2X2X2X2X2X2X2X2X2X2X2X2X2X2X2X2X2X2X2X",
"2X2X2X2X2X2X2X2X2X2X2X2X2XlXuXZ.tXmXc.v.A O.#.9.$XhXhXhX7.r O.C 9.T.<X&.zX2X2X2X2X2X2X2X2X2X2X2X2X2X2X2X2X2X2X2X2X2X2X2X2X2X2X2X",
"2X2X2X2X2X2X2X2X2X2X2X2X2XbXuXZ.9XmX~ x.o J c C H *XhXi.=Xt ..J 6 R.s.mXzX2X2X2X2X2X2X2X2X2X2X2X2X2X2X2X2X2X2X2X9X2X2X2X2X2X2X2X",
"2X2X2X2X2X2X2X2X2X2X2X2X2XbX3XZ.S.sX#X  8.&.I b R p.hXhX1 $. .*.& E $.~ zX2X2X2X2X2X2X2X2X2X2X2X2X2X2X2X2X2X2X2X[.2X2X2X2X2X2X2X",
"2X2X2X2X2X2X2X2X2X2X2X2X2XbX/.B.^ OX=X, '.5XI 0X:.=XhXhXmX(.W.G >.^ $.s zX2X2X2X2X2X2X2X2X2X2X2X2X2X2X2X2X2X2X2X2X2X2X2X2X2X2X2X",
"2X2X2X2X2X2X2X2X2X2X2X2X2XiX/.Q.p.x.T.+.+.v P %.XXfXhXhXhX%Xl.Y.|.^ XXv xX9X9X'.2X2X2X2X2X2X2X2X2X2X2X2X2X2X2X2X2X2X2X2X2X2X2X2X",
"2X2X2X2X2X2X2X2X2X2X2X2X2XiXP./.tX4.vXm.*.*.>.hXfX*X=XhXhXhXhX#Xx.E vXa pX9X9X9X2X2X2X2X2X2X2X2X2X2X2X2X2X2X2X2X2X2X2X2X2X2X2X2X",
"2X2X2X2X2X2X2X2X2X2X2X2X1XeXr.bXuX0XvXv.b.b.=XhXhXfX^ ! hXhX#Xc.u.qXvXa lX2X[.2X2X2X2X2X2X2X2X2X2X2X2X2X2X2X2X2X2X2X2X2X2X2X2X2X",
"2X2X2X2X2X2X2X2X2X2X2X2XVX/. X~.P.>X).9.4.( j.j.k.&X&X&Xl.0.0.H.5XBX9Xa zX2X2X).;.,.1.1.1.2X2X2X2X2X2X2X2X2X2X2X2X2X2X2X2X2X2X2X",
"2X2X2X2X2X2X2X2X2X2X2X2XVXL.VXeX1X1XL.1XH.VX1Xw.>.Q W W [.o.-.).).dX2Xa xX+.+.+.+.' z n 1 S.2X1X2X2X2X2X2X2X2X2X2X2X2X2X2X2X2X2X",
"2X2X2X2X2X2X2X2X2X2X2X2XVXL.VXwXP.3X-X:XL.j 7.k ` -.6.(.qX| g.fX|.0XhXhXz.z y < % p %.%.6 C [.[.2X2X2X2X2X2X2X2X2X2X2X2X2X2X2X2X",
"2X2X2X2X2X2X2X2X2X2X2XzXiX.XBXwX3X,X<X,X,Xb.=X=Xm.g _ Y.n.` c i.eX~ ! Q H 1 , 9XbX2X[.9X9Xj.V 2X2X2X2X2X2X2X2X2X2X2X2X2X2X2X2X2X",
"2X2X2X2X2X2X2X2X2X2X2XeXiX.XyXG.cX;X;X;XzXb.hXm.b.> ' u o. .[ 2 eXE.0Xv t.q.-.0XVX2X2X9X9X9.fX2X2X2X2X2X2X2X2X2X2X2X2X2X2X2X2X2X",
"2X2X2X2X2X2X2X2X2X2X2XlX:XbXdX;XOXcXu.oXcXhX=Xx.0.< { z x *.] # jX{.0XT :.y.X + O K.2X2X2X2XdX2X2X2X2X2X2X2X2X2X2X2X2X2X2X2X2X2X",
"2X9X2X2X2X2X2X2X2X2X2XnXe.vX,XVXE aX&.MX*X=X&X! 2 y { z <.'.T.+ 0XMXh.VX1.' $ @ : J 2X2X2X2X2X2X2X2X2X2X2X2X2X2X2X2X2X2X2X2X2X2X",
"2X2X2X2X2X2X2X2X2X2XBX/.VXuX,XVXY ;X~.MX0.=X/ * @ 1 N u < ;.] @ 9XMX+Xd.N z e   - : T.9X2X2X2X2X2X2X2X2X2X2X2X2X2X2X2X2X2X2X2X2X",
"2X2X2X2X2X2X2X2X2X2XVXvXiX3X1XVXD >XT F hXb.s = - $ e N 1 #.O.: T 0X] z z z n   O @ - 9X2X2X2X2X2X2X2X2X2X2X2X2X2X2X2X2X2X2X2X2X",
"2X2X2X2X2X2X2X2X2X1XeX>XiX3XgX8.a.w.,.*X&Xj.f 7 8 - e ' *.I.;.Z >.S z z u y %   O + - r.2X2X2X2X2X2X2X2X2X2X2X2X2X2X2X2X2X2X2X2X",
"2X2X2X2X2X2X2X2X2X2XuXL.iX4XNXT MXC +.z / iXL 8 8 % y ' x ;.n x } S z e e e o X X O : + 2X2X2X2X2X2X2X2X2X2X2X2X2X2X2X2X2X2X2X2X",
"2X2X2X2X2X2X2X2X2X3XK.>XiX1XmX;X8.#.m y ; T G 0 7 < ] m z ,.m z <.x t 1 1 $ R ).6.. O - L 9X2X2X2X3X2X2X2X2X2X2X2X2X2X2X2X2X2X2X",
"2X2X2X2X2X2X2X2X2X2XC.iX,X,XNX0Xx n 2 s t.P U q d S @.M z z oX<Xx < > 1 2 P BX0X0X9Xv & :  .2X'.).r K 2X2X2X2X2X2X2X2X2X2X2X2X2X",
"2X2X2X2X2X2X2X2X2XP.yXvX4XMXP ].t =.C.zXiXY i *.C #.} *.A.A.>.M x y 1 # ;XwX2XyXNXbXnX@X  - f f i O J 2X2X2X2X2X2X2X2X2X2X2X2X2X",
"2X2X2X2X2X2X2X2X1XoXlX.Xy.a.sXjX$XW.dX:X7.D ,.@ 1 N +.z z z z z z z 1 @ 2 3 6.u.-X2X9XrXq.. - : ;   2.nX2X2X2X2X2X2X2X2X2X2X2X2X",
"2X2X2X2X2X2X2X0XVXP.,Xi.4 .XiXiXoXu./.:XlX<Xi 7 < x n { { { { N z n 1 < w O w.6X'.wXBXF D o O w.T.t.tX2X2X2X2X2X2X2X2X2X2X2X2X2X",
"2X2X2X2X2X2X2X9XB.VX1X~.VX@XdXdX6X{.+XlX7.eXG 7 ; e y n y ' ' Z ' B t ; w - l M.xXoXeXnXxXxXJ s W.wXiX2X2X2X2X2X2X2X2X2X2X2X2X2X",
"2X2X2X2X2X2X2X'.B.VX,X1X4 nXD iX4Xr.bX:X7.VXL 0 - # 1 e e e e 1 1 # . O w O l g Y.T 9X[.VX,X-X_.9XBX2X2X2X2X2X2X2X2X2X2X2X2X2X2X",
"2X2X2X2X2X2X9X`.E.nXE.J.i.2.3.{.!.U nX:X8.VXlX* q = # $ % % % - : X X O w O h _ N.8.$.u.xX;X%X9XxX0X2X2X2X2X2X2X2X2X2X2X2X2X2X2X",
"2X2X2X2X2X2X2XQ.dXyXe.eXiX&.;XP oXgX3X:X8.VXlX9 8 8 8 7 * 8 8 g j X O O w + j | s D XXz.jXD 4 F bX2X2X2X2X2X2X2X2X2X2X2X2X2X2X2X",
"2X2X2X2X2X2X2XN.BXyXe.3XVX8.5.iXw..XzX.X7.VXcXdXa.= = = | q 7 g ) h . O - + j | V.9XC.3.s.F.d.pX2X2X2X2X2X2X2X2X2X2X2X2X2X2X2X2X",
"2X2X2X2X2X2X/.L.BXeXH.lXuX6XdXw.X.P.4XE.8.VXVXE J.3XU.9 g _ g = ) k . O - + g _ V.9XE +X9X&.}.9X2X2X2X2X2X2X2X2X2X2X9X2X9X9X[.2X",
"2X2X2X2X2X2XV.zXiX/.:XzXiX3.;X<Xv P.|.J.8.VX<XH Y  XbXU * l 8 = k h . : - 8 = * V.S.dXW.G 7X%XBXBXnXBXNXBXmXBX2X2X2X9X9X'.9X2X2X",
"2X2X2X2X2X:XZ.VXiXP./.uXVX5.iX8Xa.<X.X6.~.VX2.D.4X1X@X=.* L L * l M.o : O Y.2XH wXpXi.R tXt.q.y.2XtXG.}.2.2.a.cX6XaXvXvX2XtX2X2X",
"2X2X2X2X2X/./.BX3XV.uXbXe.w.uX!.VX0Xq.yXw.VXi.G.{.OXf.5 4 ;X'.).:XNX%.< O h...1XwXOX^.4 9X_.`.'.VXwX'.'.%.4 5 Y MXcX9X9X2X3XVXVX",
"2XtXxXxXlX.XbXbXlX7.cX7.T 5.&.a.<X..w.w.}.7Xp.G t.3 ..-X2X{.lX}.i.G.5.9 O nXNXOXOXu.xX+XxXW.W.7Xd.E 7.7.U.xXVXtX9Xy.9XxXzXVXVX2X",
"VXVXMXD 5.$.3XVXmXC.:XiXC.E.E.Y OX<XVXVXVX5 q.gXjXNX>XOXNXeX`.`.a a 3 ; O 5 a 5 4 h.[.9XVXVX9X9XVXVX2Xh.@Xf.W.bX9XR 9XxXVX..VX2X",
"2X2Xf.,XbXzX.XJ.q.dXlX.XeX-XeXlX;XE.lX3X0XG.a.q.X.w.R.J.6XU.f.s.9X9Xp ; O J _.~.7.2.R R R R $.$.w.9X9X2X9XvXdX8XtXBXtXf.2X..VX2X",
"2X2X{.'.zXT VX.XD.lX.XD.4 H kX-XH.:XK.nXlXD.iX:XkX Xf.+X5.5.5.2.cX@X  i - + O + y.2XU.h.-X-X>X Xz.,XiXBXVXbX9X9X9XvX9Xw.2Xq.BX2X",
"2X2XtX9XpXG.wXtXVXnXnX8X}.@X^._.9XvXbX9X0XwXvXcX^.R.-X>XbX2XT ).).F.. ;XO @ O O u.9XvXcXsXsXsXwXwXwXtXnXyX2X2X2X9XvX9XiX9X2XBX9X",
"2X9XtX9X9XVX9X0XwX{..X&.bXbXaXcXVXnXcXaXaXtXtXyXtXrXXXt.3.3._.^.}.}.}.}.}.}.z.bXVXNXdX>X9X9X_.'.rXbXs.`.2X2X2X2X9XwX9XqX9X2XBX9X",
"2X2X3X2X[.VX2X0XwX0XmXU.z.W.s._.VX0X>X>Xs.h.z.0X0Xd.F gX6XmXmXmXnX0Xu.F F 0X!.VXtX}.mXg.9XG.>XcXR 9XeX2X2X2X2X2X9X2X9X9X2X2XVX'.",
"2X2X2X2X2XlX9XwXwX2X2XiXxX X3.3.nXtXpXtXP 9XdXh.[.9XtXpXxXtXiX{.6.G y.9X9XtXpXOXOXh.h.XXY.tXxXqX}.2XiX2X2X2X2X2X2X2X'.9X2X[.9X9X",
"2X2X2X2X2X2X2X0XwX2X2XiX9X2X2X2XnX9X2X2XVX4 4 '.sXVX0X2X2X2X2X2XVXyX3.f.VX9X9X9X2XVXVXxXVX~.VX2XJ.'.9X9X2X2X2X2X2X2X2X2X2X2X2X2X",
"2X2X2X2X2X2X2X3X0X2X2XwX9X[.2X2X{.0X2X2X9XpXt..X3X2X2X2X2X2X2X2X9XBXd.lX_.9X9X'.2X.XR.wX2XyX2X2X+X9X2X[.2X2X2X2X2X2X2X2X2X2X2X2X",
"2X2X2X2X2X2X2X2X2X2X2X2X2X2X2X2XY.9X2X2X9X2X$.9X2X2X2X2X2X2X2X2X2X2XvX2X2X2X9X[.2XwXqX2X2XE.2X2XnX2X2X2X2X2X2X2X2X2X2X2X2X2X2X2X",
"2X2X2X2X2X2X2X2X2X2X2X2X2X2X2X2XbX2X2X2X2X2XwX2X2X2X2X2X2X2X2X2X2X2XbX2X2X2X2X2X2X2XVX2X2X-X2X2XwX2X2X2X2X2X2X2X2X2X2X2X2X2X2X2X"
};
