/* XPM */
static char *result[] = {
/* columns rows colors chars-per-pixel */
"64 64 239 2 ",
"   c #05060B",
".  c #000210",
"X  c #01061B",
"o  c #06111B",
"O  c #000324",
"+  c #02062B",
"@  c #000B2C",
"#  c #001421",
"$  c #03172A",
"%  c #001B2B",
"&  c #111428",
"*  c #020835",
"=  c #02043A",
"-  c #001433",
";  c #041E37",
":  c #001C3A",
">  c #181837",
",  c #012737",
"<  c #00233B",
"1  c #172B3B",
"2  c #2A2F37",
"3  c #35393B",
"4  c #544739",
"5  c #030A44",
"6  c #050C4C",
"7  c #03144F",
"8  c #050E55",
"9  c #002240",
"0  c #002A41",
"q  c #01364A",
"w  c #1C3846",
"e  c #003A51",
"r  c #2A2D4D",
"t  c #3A3F43",
"y  c #041264",
"u  c #1B1F66",
"i  c #051670",
"p  c #0F2D6E",
"a  c #162579",
"s  c #333176",
"d  c #00475D",
"f  c #04495E",
"g  c #114C5F",
"h  c #3E4244",
"j  c #2D4F5A",
"k  c #014D62",
"l  c #0E4867",
"z  c #015368",
"x  c #13576D",
"c  c #045A73",
"v  c #38536E",
"b  c #05637B",
"n  c #1A6479",
"m  c #256579",
"M  c #326D7C",
"N  c #424749",
"B  c #485058",
"V  c #57595A",
"C  c #615447",
"Z  c #444A67",
"A  c #4D5565",
"S  c #575E63",
"D  c #4A5575",
"F  c #565673",
"G  c #5B6467",
"H  c #49687A",
"J  c #5A6577",
"K  c #65696C",
"L  c #626C75",
"P  c #6B7379",
"I  c #747879",
"U  c #8F7057",
"Y  c #937D67",
"T  c #69817C",
"R  c #8D8576",
"E  c #AC8F73",
"W  c #1C2882",
"Q  c #2D3785",
"!  c #076983",
"~  c #157489",
"^  c #097894",
"/  c #0A7A96",
"(  c #2C6D82",
")  c #357486",
"_  c #484592",
"`  c #4C7485",
"'  c #6A7887",
"]  c #67758D",
"[  c #757D83",
"{  c #787D95",
"}  c #4852A7",
"|  c #358899",
" . c #0983A2",
".. c #3497B5",
"X. c #468595",
"o. c #5A8B9C",
"O. c #798289",
"+. c #798794",
"@. c #5492A7",
"#. c #7A8BA4",
"$. c #758AAE",
"%. c #6497AA",
"&. c #7192AA",
"*. c #7E98B4",
"=. c #4BA4BD",
"-. c #71A6B5",
";. c #6395C6",
":. c #73B1C7",
">. c #72C6E6",
",. c #878A8B",
"<. c #848996",
"1. c #899398",
"2. c #929598",
"3. c #969A9B",
"4. c #A59887",
"5. c #A79C93",
"6. c #BEA48E",
"7. c #B3A798",
"8. c #8E8EAC",
"9. c #8896A7",
"0. c #969EA5",
"q. c #8597B6",
"w. c #8B9CB9",
"e. c #8CA0AD",
"r. c #99A4AB",
"t. c #8DA1B9",
"y. c #98AAB7",
"u. c #93A3BD",
"i. c #9BB6BE",
"p. c #A3A8AA",
"a. c #ABADAC",
"s. c #B3AFA8",
"d. c #A4ACB6",
"f. c #ADB4B8",
"g. c #B3B6B8",
"h. c #B4BABC",
"j. c #C5A886",
"k. c #C5AC93",
"l. c #B4C3AF",
"z. c #BDC0BE",
"x. c #D2C3B2",
"c. c #E9D0A8",
"v. c #EAD2AB",
"b. c #EBD6B7",
"n. c #F0D9B3",
"m. c #91A2C1",
"M. c #94A8C5",
"N. c #99AAC7",
"B. c #9CADCA",
"V. c #8CB3C8",
"C. c #9CB6C5",
"Z. c #A3B4CC",
"A. c #A9B6CB",
"S. c #A6B8C9",
"D. c #B3BDC2",
"F. c #B9BFC7",
"G. c #A4B5D2",
"H. c #ABBCD5",
"J. c #A9BCD6",
"K. c #ADBDE1",
"L. c #8DC7D2",
"P. c #BCC2C3",
"I. c #B5C2CB",
"U. c #B9C4CC",
"Y. c #B3CCCD",
"T. c #ACC1D3",
"R. c #ADC2DA",
"E. c #B7C4D6",
"W. c #BBCAD5",
"Q. c #B4C9DF",
"!. c #BCCBDB",
"~. c #BDD0DD",
"^. c #A1CBE6",
"/. c #B6CAE2",
"(. c #BCCDE5",
"). c #ABD4E7",
"_. c #BCD3E4",
"`. c #BBD4E8",
"'. c #B9D6EA",
"]. c #8FE6FE",
"[. c #ABE8FC",
"{. c #C5C8C7",
"}. c #C5CBCB",
"|. c #CFCDC9",
" X c #C5CDD5",
".X c #CAD5DA",
"XX c #D7DADA",
"oX c #E2D4C4",
"OX c #DDE1DF",
"+X c #F4E1C6",
"@X c #ECE5D8",
"#X c #F7EBD9",
"$X c #C1CEE5",
"%X c #C4D3E2",
"&X c #C9D8E7",
"*X c #C4D4ED",
"=X c #C3DAED",
"-X c #CBDBED",
";X c #D4DDE4",
":X c #D3DEEB",
">X c #C5D6F0",
",X c #C4DFF4",
"<X c #CBDDF2",
"1X c #D0DCF1",
"2X c #C9E0EA",
"3X c #D1E0E6",
"4X c #DAE3E6",
"5X c #D3E3EE",
"6X c #DDE4EB",
"7X c #C7E0F4",
"8X c #CDE3F5",
"9X c #CBE6F4",
"0X c #D2E5F5",
"qX c #D8E5F2",
"wX c #D6E9F7",
"eX c #DAEAF5",
"rX c #D2E6F9",
"tX c #D5EAFC",
"yX c #DBEEFD",
"uX c #DDF0FE",
"iX c #E3E5E4",
"pX c #E3EAED",
"aX c #E5EAEC",
"sX c #F4ECE3",
"dX c #E8F0EE",
"fX c #FBF1E5",
"gX c #F0F2EF",
"hX c #E4EDF5",
"jX c #ECEFF2",
"kX c #E1EFF9",
"lX c #E3F0F7",
"zX c #EDF2F4",
"xX c #E4F2FA",
"cX c #EAF5FA",
"vX c #EFF8FA",
"bX c #F2F5F4",
"nX c #F4F7F8",
"mX c #F5FAFA",
"MX c #FBFDFC",
/* pixels */
",X,X,X,X,X,X,X,X,X7X,X,X,X,X,X,X7X7X'.7X7X[.,X,X,X,X,X,X,X,X,X,X,X,X,X,X,X,X,X,X,X,X,X,X,X,X,X,X,X,X,X,X,X,X,X,X,X,X,X,X,X,X,X,X",
",X,X,X,X,X,X,X,X,X,X,X,X,X,X,X,X7X7X7X7X<X<X,X,X,X,X,X,X,X,X,X,X,X,X,X,X,X,X,X,X,X,X,X,X,X,X,X,X,X,X,X,X,X,X,X,X,X,X,X,X,X,X,X,X",
",X,X,X,X,X,X,X,X,X,X,X,X,X,X,X,X7XmXvXeX,X,X,X,X,X,X,X,X,X,X,X,X,X,X,X,X,X,X,X,X,X,X,X,X,X,X,X,X,X,X,X,X,X,X,X,X,X,X,X,X,X,X,X,X",
",X,X,X,X,X,X,X,X,X,X,X,X,X,X,X,XuXuXC.l ,X,X,X,X,X,X,X,X,X,X,X,X,X,X,X,X,X,X,X,X,X8X,X,X,X,X,X,X,X,X,X,X,X,X,X,X,X,X,X,X,X,X,X,X",
",X,X,X,X,X,X,X,X,X,X,X,X,X,X,X8XyX/.m -.%.,X[.7X,X,X,X,X,X,X,X,X,X,X,X,X,X,X,X,X,X,X,X,X,X,X,X,X,X,X,X,X,X,X,X,X,X,X,X,X,X,X,X,X",
",X,X,X,X,X,X,X,X,X,X,X<X,X,X,XtX*Xq.+.z %.,X,X7X,X,X,X,X,X,X,X,X,X,X,X,X,X,X,X,X,X,X,X,X,X,X,X,X,X,X,X,X,X,X,X,X,X,X,X,X,X,X,X,X",
",X,X,X,X,X,X,X,X,X,X7X[.'.7X,XtX=XZ.#.z X.@.'.7X,X,X,X,X,X,X,X,X,X,X,X,X,X,X,X,X,X,X,X,X,X,X,X,X,X,X,X,X,X,X,X,X,X,X,X,X,X,X,X,X",
",X,X,X,X,X,X,X,X,X,X7X7X7X7X7XxXm.*X9.q >.c '.7X,XwX8X,X,X,X,X,X,X,X,X,X,X,X,X,X,X,X,X,X,X,X,X,X,X,X,X,X,X,X,X,X,X,X,X,X,X,X,X,X",
",X,X,X,X,X,X,X,X,X,X,X,X,X,XrXxXm.*XJ.$ k L.:.7X,XwX8X,X,X<X7X7X,X,X,X,X,X,X,X,X,X,X,X,X,X,X,X,X,X,X,X,X,X,X,X,X,X,X,X,X,X,X,X,X",
",X,X,X,X,X,X,X,X,X,X,X,X,X,X8X1XG.*XK.& z ..) 7X,XwXMX,X,XcX[.7X,X,X,X,X,X,X,X,X,X,X,X,X,X,X,X,X,X,X,X,X,X,X,X,X,X,X,X,X,X,X,X,X",
",X,X,X,X,X,X,X,X,X,X,X,X,X,X8XZ.*X*XH.$ $.*.'.yXG.uXyX,X,XkX'.7X,X,X7X,X,X,X,X,X,X,X,X,X,X,X,X,X,X,X,X,X,X,X,X,X,X,X,X,X,X,X,X,X",
",X,X,X,X,X,X,X,X,X,X,X,X,X,XrX!.>XJ.M.$.rXm.vXxXxXR./.yXyXyX7X7X,X,X,X,X,X,X,X,X,X,X,X,X,X,X,X,X,X,X,X,X,X,X,X,X,X,X,X,X,X,X,X,X",
",X,X,X,X,X,X,X,X,X,X,X,X,X,XyXqX*Xw.$.$.hXtX`.mXmXyXyXR.yXyX$.R.,X,X,X,X,X,X,X,X,X,X,X,X,X,X,X,X,X,X,X,X,X,X,X,X,X,X,X,X,X,X,X,X",
",X,X,X,X,X,X,X,X,X,X,X,X,X,XMXqX/.(.$.$.mXcX(.cXuXmXyXqXR.mXeX$.J.,X,X,X,X,X,X,X,X,X,X,X,X,X,X,X,X,X,X,X,X,X,X,X,X,X,X,X,X,X,X,X",
",X,X,X,X,X,X,X,X,X,X,X,X,X,XMXmX:X$.$.$.MXMXJ.uXMXMXMXMXM.tX9X$.m.<X,X,X,X,X,X,X,X,X,X,X,X,X,X,X,X,X,X,X,X,X,X,X,X,X,X,X,X,X,X,X",
",X,X,X,X,X,X,X,X,X,X,X,X,X,XMX<XN.;X$.$.cXMX0XR.mXxXvXxXuX/.yXM.m.[.,X,XwX,X,X,X,X,X,X,X,X,X,X,X,X,X,X,X,X,X,X,X,X,X,X,X,X,X,X,X",
",X,X,X,X,X,X,X,X,X,X,X,X,XtXvXB.qXmX$.$.H.mXkX<X=XvXvXtXuXQ.5Xy.$.'.,X,XMX,X,X,X,X,X,X,X,X,X,X,X,X,X,X,X,X,X,X,X,X,X,X,X,X,X,X,X",
",X,X,X,X,X,X,X,X,X,X,X,X,XxXtXB.MXMXE.$.q.B.B.N.M.uXuXuXm.@XfXfX*.>X,XvXxX,X,X,X,X,X,X,X,X,X,X,X,X,X,X,X,X,X,X,X,X,X,X,X,X,X,X,X",
",X,X,X,X,X,X,X,X,X,X,X,X,XkXyXB.MXMXJ.p.x.E 4.+X+XoX6XE.fXx.I g.0.,X9Xg.lX7X,X,X,X,X,X,X,X,X,X,X,X,X,X,X,X,X,X,X,X,X,X,X,X,X,X,X",
",X,X,X,X,X,X,X,X,X,X,X,X,XhXtXB.nXnXf.n.1. .f.K fXfXfXfXfXg | n U R.wXh kX,X,X,X,X,X,X,X,X,X,X,X,X,X,X,X,X,X,X,X,X,X,X,X,X,X,X,X",
",X,X,X,X,X,X,X,X,X,X,X,X,XkXtXB.2XbXj.c., M g 1.,.fXfXx.3.q ` D R W.h.6XkX,X,X,X,X,X,X,X,X,X,X,X,X,X,X,X,X,X,X,X,X,X,X,X,X,X,X,X",
",X,X,X,X,X,X,X,X,X,X,X,X,XcXtXB.~.dXn.o   o N f g.V fXfXq j V.X.3 Y ,.iXkX,X,X,X,X,X,X,X,X,X,X,X,X7X,X,X,X,X,X,X,X,X,X,X,X,X,X,X",
",X,X,X,X,X,X,X,X,X,X,X,X,XcX$Xm.4.3XsX  eX9Xv p.H sXfXfXr.T.d.J H Y T N lX,X,X,X,X,X,X,X,X,X,X,X,X,X,X,X,X,X,X,X,X,X,X,X,X,X7X,X",
",X,X,X,X,X,X,X,X,X,X,X,X,XxX$XR.E c.3X ...l.XX.XdX#XfXfX#XL.N X.-.Y 2.N yX7X,X,X,X,X,X,X,X,X,X,X,X,X,X,X,X,X,X,X,X,X,X,X,X,X,X,X",
",X,X,X,X,X,X,X,X,X,X,X,X<XyX(.K._.E 9Xl./ b ! |.@XfXfXfXfXfXfXfXoXC xXh eX7X,X,X,X,X,X,X,X,X,X,X,X,X,X,X,X,X,X,X,X,X,X,X,X,X,X,X",
",X,X,X,X,X,X,X,X,X,X,X,X>XyXw.wXcXJ.xXn.n.n.fXfXfXoXx.x.fXfX#X6.4.9XlXh lX7X,X,X,X,X,X,X,X,X,X,X,X,X,X,X,X,X,X,X,X,X,X,X,X,X,X,X",
",X,X,X,X,X,X,X,X,X,X,X,XmX1Xw.E.Z.-X_.Y U n.n.n.#XsX#X+XfXk.Y f.5XmX7Xt xXrX,X,X7X7X,X,X,X,X,X,X,X,X,X,X,X,X,X,X,X,X,X,X,X,X,X,X",
",X,X,X,X,X,X,X,X,X,X,X,XMXH.MXqX*X-XH.&XG.7.5.Y I j.j.j.5.8.K.!.'.zX7Xh uX:.:.=.c b ! ! c ).,X,X,X,X,X,X,X,X,X,X,X,X,X,X,X,X,X,X",
",X,X,X,X,X,X,X,X,X,X,X>XMXJ.MXqXA.1X8X>XG.i a Q >.V.f [.[.W ;.#XXX>XfXfXfXf d , 0 # # # o g ].7X,X,X,X,X,X,X,X,X,X,X,X,X,X,X,X,X",
",X,X,X,X,X,X,X,X,X,X,XrXcXE.mXwX$X<X%X>X$X<.+X8.<.Q { Y.+X} T |.OXs.6.6.J q , &.1.t.,X,Xa.R %.'.,X,X,X,X,X,X,X,X,X,X,X,X,X,X,X,X",
",X,X,X,X,X,X,X,X,X,X,XeXyX XyXqXvX-X;XjX:Xn.fX+Xn., p a ^.p ^ 4 =X7XwXh 5X1 #.7XbX,X,X,X,Xj.oX7X,X,X,X,X,X,X,X,X,X,X,X,X,X,X,X,X",
",X,X,X,X,X,X,X,X,X,X,XhXyXeXhXA.jXaXF.E.cX#XfXc.b., ^ d z @.^ # dXf.,Xh ' (.2 v A ,X,X,X,XW.gX,X,X,X,X,X,X,X,X,X7X,X,X,X,X,X,X,X",
",X,X,X,X,X,X,X,X,X,X,XhXq.cX-XMXI iX+.nX@XfX+Xj.2 q / k m :.| + vXMX4XMX).9 $ - @ Z ,X,X,X,X,X,X,X,X,X,X,X,X,X,X,X,X,X,X,X,X,X,X",
",X,X,X,X,X,X,X,X,X,XvXrXpXyX-XMXI &XE.nX4.#Xj.> @ 0 / 0 g :.| + 7XmXgXMX~ z : . ; 9 /.,X,X,X,X,X,X,X,X,X,X,X,X,X,X,X,X,X,X,X,X,X",
",X,X,X,X,X,X,X,X,X,XmX$XcXrX&XMXN -X8.f.#X+XU = - , 0 c 9 o.^ @ i.hXo.d d d d . O - ] 7X,X,X,X,X,X,X,X,X,X,X,X,X,X,X,X,X,X,X,X,X",
",X7X,X,X,X,X,X,X,X,XMXcXyX<X4X{.G yXo.v.+Xc.2 = 6 # 0 c ).rX.Xd =.M d d d d <   O * @ 7X,X,X,X,X,X,X,X,X,X,X,X,X,X,X,X,X,X,X,X,X",
",X,X,X,X,X,X,X,X,X>X<XJ.yX<XmXK mXv =.#.x.s.F 6 6 - < ^ d %.k ! | M d e q 0 o   X O : r '.7X7X'.,X,X,X,X,X,X,X,X,X,X,X,X,X,X,X,X",
",X,X,X,X,X,X,X,X,X>XrXJ.yX1XmX0XbXS b d , 4X> 7 8 % ^ ! k %.k d :.d e 0 0 < 2 C.& . O - '.7X7X7X,X,X,X,X,X,X,X,X,X,X,X,X,X,X,X,X",
",X,X,X,X,X,X,X,X7X8Xw.yX<X*XmX5Xj ~ , % F r ` 8 - d / d d M C.i.( e < 0 % 2 ;X8XrX+.& X : u.7X7X,X] #.,X,X,X,X,X,X,X,X,X,X,X,X,X",
",X,X,X,X,X,X,X,X,XJ.8XyXnXMX{.L.c 1 S.mXnXXXZ v C.~..X-.m m ( ) e % % # 0.cX,XrXeX0X8X9.X - G.G.#.O B ,X,X,X,X,X,X,X,X,X,X,X,X,X",
",X,X,X,X,X,X,X,X>XK.dXhX*XqXz.aX7.I.pX<Xd.3 ` w < c ^ x ( ( n d d d , @ A G C.0XeXrXrXrXA X : ; $ . S vX,X,X,X,X,X,X,X,X,X,X,X,X",
",X,X,X,X,X,X,X7XqXaX-X0.3 L yXhXdXQ.G.*Xf.0.*.@ q z ! c c c c k d d , < - * O.P T.8XwXz.y.o O r v t wX,X,X,X,X,X,X,X,X,X,X,X,X,X",
",X,X,X,X,X,X,X,XZ.bX>XpXiXmXMXMXnXnXmXmXp.MXF 5 , 0 d b k  . ./ / / k < < ; _ 0XmXwXMXiX4X@X. > *X`.xX,X,X,X,X,X,X,X,X,X,X,X,X,X",
",X,X,X,X,X,X,X,Xm.MX>XB.p. X2.-X X+.}.>X3.5Xr 7 $ , < 0 < e e e e , o - < O s a %X3._.0XuX7X/.r.!.mX8X,X,X,X,X,X,X,X,X,X,X,X,X,X",
",X,X,X,X,X,X,X,Xm.mXmX<.3 vXMX;X$Xu.vX*X3.nXjX= i # # < 0 0 0 < , O . O 9 O s y M.J 7X7X7XyXh.'.wX9X,X,X,X,X,X,X,X,X,X,X,X,X,X,X",
",X,X,X,X,X,X,X/.6XyXw.hXcXG 9.I .X0.eX*X3.MXjX= 6 6 = * @ = - 6 8 X O O 9 + y } G I 3.p.MXO.,.O.cX7X,X,X,X,X,X,X,X,X,X,X,X,X,X,X",
",X,X,X,X,X,X'.M.mXrXw.*XMX+.<.yXI bX1X*X3.MXhXA.r 5 6 6 u = y y a & O O * + i _ M.7XG ,.f.G G MX,X,X,X,X,X,X,X,X,X,X,X,X,X,X,X,X",
",X,X,X,X,X,X>Xm.MXkXw.rXkX@X{.E.9.A.qXE.3.MXMX3.XXq.+.5 W W 8 5 W a . O - O i _ M.'.' P.~.9.cX9X,X,X,X,X,X,X,X,X,X,X,X,X,X,X,X,X",
",X,X,X,X,X,XN.yXkX(.pXvXyX,.eX2.J A.aXE.3.MXbX[ O.;XrXZ + Q 8 = a a . @ - + 6 = M._.bX!.C.z.I wXrX0X0X0XwX0XwX7X'.9X7X7X'.7X7X[.",
",X,X,X,X,X>XN.mXxXK.(.yXmX+.rXjX] .XF.I $XMX2.$.H. XzX<.* u = = u } . 9 O 9.G.B =X-XP.9.T.eX8X9X8XrX9XMXP.P.z.mXmXmXnXnX7X7X<X<X",
",X,X,X,X,X(.J.MXrXG.*XyX%X0.tX$XMXqXA.rX0.MX2.F.6X:Xg.J > d./.D { tXB : O ~.Z.<.wX6Xr.3 cXP P ' eXlXr.e.B 3 P y..X.X7X,X,XxXeXwX",
",X,X,X,X>Xw.rXkXMXmXMXvX3 3 *X!.;X[ P [ g.bXK V aXt t `.'.6X7XcX|.H.+.< O mXzXmXMXP ,Xi.MXf.g.iXS.h t h 3.gXzXdX7X7X,XMXMXMXMX7X",
"kXMXMX3.{.F.hXnXhXL ;X1.y.$X[ [ ;Xp.6X6XgX+.}.p.a.2.`. XkX}.lXE.S I S ; O 2.2.I P .XuXlXlXlX7X8XXXXXeXXX4XW.6XuX,XL ,XwXkXF.mX,X",
",X,Xg.zXcX&X Xd.{ MXmXbXMXnXMXMXmX-X>XyXyXaXh h t L h.U.g.+.h h ,X,X+.9 O a.f.f.V t T.'.`.`.zXgXbX8X7X7X7X7XW.P.MXMXMXnX,XO.MX,X",
",X,Xh.`.kXa.hXW.u.6X$XA.P J cX<XG.!. XhXqXq.eX=X&X XD.}.a.r.a.a.cXcX. @ @ + D D i.~.1.O.e.e.e.<.2.=X8XcXcXMXeXyX,XvX,X<.,X[ mX,X",
",X,XwX<XkXS nXmXMX8X0Xy.V hXD.g.,X8X8X,XeXvXcX0X}.D.D.E.8X7XC.C.S.B . hX@ : O O u.7X8X.XP.z.}.nXnXnXlX0XmX7X'.7X,XcX,XyX,X,XMX,X",
",X,XwX8X<XvX,X8XyX{.0Xr.MXgXvXcXvXMXMXvXvX,X9X8X=X,XI.I.}.1.S.7XD.F.,.D.,.<.P.P.pXvXMXrXrX0X9X,X7XlXP.2X,X,X,X,X,XeX8XeX,X,XMX,X",
",X,XrX,X,XMX,X0X0XcX|.d.~.=Xf.~.nX7X%XI.f.iXiXcXcXiXh.f.I }.}.}.MXcX4Xz.h.hXL wXlXOX}.I.7X~.I.2X X8XW.>X,X,X,X,X,X,X,X,X,X,XmX,X",
",X,X,X,X,XMX,X9X0X,X7XeXbXg.N N vXcXlX7X1.`.XXP.7X'.Q.eXMXxXmXr.[ N [ Q.R.8XmXh.h.g.h.XXh.=XMXwX4X7XwX7X,X,X,X,X,X,X,X,X,X,X8X,X",
",X,X,X,X,X,X,X8XrX,X7XeX7XwXlXcXcX,XrXlX,.9.r.U.5XuXkXeX,X,X8XlX3Xy.S.!.yXxX,XxXxXXXXX.XuX6XeX7Xr.7XrX,X,X,X,X,X,X,X,X,X,X,X,X,X",
",X,X,X,X,X,X,XrXrX,X,XkX7X7X7X7X{.9X,X,X,XMX,XrXwX7X'.7X,X,X,X,X,XmXK mXW.,X,X7X'.f.r.lX,XlX,X,XvX7X7X7X,X,X,X,X,X,X,X,X,X,X,X,X",
",X,X,X,X,X,X,X,X,X,X,X,X'.7X'.7XP.7X,X,X,X7X'  X7X7X7X7X,X,X,X,X,XeXxX,X7X7X,X,X7XyX8X,X,X_.,X,X3X7X,X,X,X,X,X,X,X,X,X,X,X,X,X,X",
",X,X,X,X,X,X,X,X,X,X,X,X,X8X7X7XvX,X,X,X,X,XkX,X,X,X7X[.,X,X,X,X,X,XcX,X,X,X,X,X'.7XMX7X,XW.,X,XcX,X,X,X,X,X,X,X,X,X,X,X,X,X,X,X",
",X,X,X,X,X,X,X,X,X,X,X,X,X[.7X7XrX,X,X,X,X,X,X,X,X,X<X<X,X,X,X,X,X,X9X,X,X,X,X,X7X7XtX'.7X7X,X,X,X,X,X,X,X,X,X,X,X,X,X,X,X,X,X,X"
};
