/* XPM */
static char *result[] = {
/* columns rows colors chars-per-pixel */
"64 64 243 2 ",
"   c #01030A",
".  c #000212",
"X  c #030719",
"o  c #02141B",
"O  c #111519",
"+  c #261D15",
"@  c #000224",
"#  c #000529",
"$  c #000A2B",
"%  c #001423",
"&  c #041927",
"*  c #001C2D",
"=  c #15192A",
"-  c #020334",
";  c #02043A",
":  c #001233",
">  c #001936",
",  c #021739",
"<  c #032434",
"1  c #00233C",
"2  c #002B3E",
"3  c #172B30",
"4  c #152834",
"5  c #2B2B32",
"6  c #323638",
"7  c #383C3E",
"8  c #514337",
"9  c #040B43",
"0  c #060D4D",
"q  c #0E1645",
"w  c #050E55",
"e  c #07125B",
"r  c #002240",
"t  c #002941",
"y  c #172742",
"u  c #00354C",
"i  c #023849",
"p  c #013C53",
"a  c #262B49",
"s  c #283845",
"d  c #3A3F43",
"f  c #343949",
"g  c #223A58",
"h  c #383C59",
"j  c #051365",
"k  c #141D63",
"l  c #081871",
"z  c #14276F",
"x  c #303178",
"c  c #19414A",
"v  c #00475D",
"b  c #04495C",
"n  c #3D4347",
"m  c #294A55",
"M  c #014C62",
"N  c #065469",
"B  c #16596E",
"V  c #055A73",
"C  c #085F72",
"Z  c #345265",
"A  c #08647C",
"S  c #3E636C",
"D  c #2A677A",
"F  c #464B4D",
"G  c #4A4F50",
"H  c #4C545A",
"J  c #56595A",
"K  c #4E556C",
"L  c #484C78",
"P  c #576568",
"I  c #5E6974",
"U  c #626668",
"Y  c #666D73",
"T  c #69747C",
"R  c #727678",
"E  c #84694F",
"W  c #916949",
"Q  c #9B7A5E",
"!  c #9C8878",
"~  c #A88768",
"^  c #AF9275",
"/  c #1A2680",
"(  c #2C3285",
")  c #2A579C",
"_  c #086A84",
"`  c #077793",
"'  c #097B97",
"]  c #127A90",
"[  c #337588",
"{  c #007EA0",
"}  c #474598",
"|  c #516F8A",
" . c #6E7B8C",
".. c #566DAA",
"X. c #607DC5",
"o. c #1B828E",
"O. c #0A819E",
"+. c #0782A1",
"@. c #1187A7",
"#. c #3893AB",
"$. c #538896",
"%. c #7A8287",
"&. c #7C8895",
"*. c #748B99",
"=. c #5596A8",
"-. c #7A8DA6",
";. c #758AAE",
":. c #6E96A9",
">. c #4EA1B8",
",. c #73A6B8",
"<. c #6CB1C7",
"1. c #74B8D1",
"2. c #82878A",
"3. c #8A8D8D",
"4. c #978B82",
"5. c #838C96",
"6. c #8E9090",
"7. c #88939C",
"8. c #949696",
"9. c #979B9B",
"0. c #AC9C91",
"q. c #B6A798",
"w. c #8B97A9",
"e. c #959CA8",
"r. c #8699B7",
"t. c #8B9DBB",
"y. c #9AA5AA",
"u. c #91A7B5",
"i. c #97A8B9",
"p. c #A5A9AA",
"a. c #B3AFAB",
"s. c #A5ADB8",
"d. c #AFB4B5",
"f. c #A8B5BC",
"g. c #B1B3B5",
"h. c #B6B8BB",
"j. c #B1BABC",
"k. c #C6A682",
"l. c #CAB194",
"z. c #C7B7A7",
"x. c #BAC0BE",
"c. c #DEC39C",
"v. c #D2C3B3",
"b. c #EDD5AE",
"n. c #F0D7AF",
"m. c #E5D3B3",
"M. c #F1DAB6",
"N. c #8596C5",
"B. c #8CA3C1",
"V. c #92A3C1",
"C. c #94A8C5",
"Z. c #9BACC6",
"A. c #9CADCA",
"S. c #88BACD",
"D. c #92B8CB",
"F. c #A0ABC1",
"G. c #A2B4C3",
"H. c #ACB9C7",
"J. c #A4B2CA",
"K. c #B6BEC6",
"L. c #A6BAD3",
"P. c #A9B9D5",
"I. c #ABBCD5",
"U. c #96C3CD",
"Y. c #B8C4C7",
"T. c #BBC5CD",
"R. c #ABC6D7",
"E. c #B6C6D5",
"W. c #BCC6D4",
"Q. c #BBCAD5",
"!. c #B2C3DB",
"~. c #BCCADB",
"^. c #BDD1DD",
"/. c #BBCCE5",
"(. c #A1DCE1",
"). c #B6D1E6",
"_. c #BDD3E2",
"`. c #BBD4E8",
"'. c #BED9EB",
"]. c #98E0F2",
"[. c #B5E8F8",
"{. c #C5C9CA",
"}. c #C7CBCB",
"|. c #D4D3CA",
" X c #C6CCD2",
".X c #C4CEDB",
"XX c #CCD2D3",
"oX c #C8D7D9",
"OX c #CCD5DC",
"+X c #D4D7D5",
"@X c #D4DADB",
"#X c #DADCDD",
"$X c #E5D8C9",
"%X c #E5DDD2",
"&X c #EEE1CA",
"*X c #F5E4CA",
"=X c #E9E2D6",
"-X c #F6EADB",
";X c #C3D4E5",
":X c #CAD7E6",
">X c #C4D4ED",
",X c #C3D9EC",
"<X c #CBDAED",
"1X c #D6DDE2",
"2X c #C7D7F0",
"3X c #C4DFF4",
"4X c #CBDDF3",
"5X c #D2DFF2",
"6X c #CEE1E7",
"7X c #DDE1E3",
"8X c #D8E6EC",
"9X c #DDE5ED",
"0X c #C7E0F4",
"qX c #CCE3F5",
"wX c #CDE6F9",
"eX c #D3E6F5",
"rX c #DBE5F3",
"tX c #D6E9F7",
"yX c #DAEAF5",
"uX c #D3E6F9",
"iX c #D5EAFC",
"pX c #DBEDFD",
"aX c #DEF0FE",
"sX c #E2E5E4",
"dX c #E7EBEA",
"fX c #E4EAEC",
"gX c #F8EEE2",
"hX c #EEF1EF",
"jX c #FBF1E5",
"kX c #F1F2EE",
"lX c #E6ECF2",
"zX c #E4ECF5",
"xX c #E1EFF9",
"cX c #E3F0F6",
"vX c #EAF1F3",
"bX c #E4F2FB",
"nX c #EBF5FA",
"mX c #EFF8FB",
"MX c #F3F5F4",
"NX c #F5F7F7",
"BX c #F6F8F7",
"VX c #F4FAFA",
"CX c #FBFEFC",
/* pixels */
"3X3X3X3X3X3X3X3X3X3X3X3X3X3X3X3X3X3X3X3X3X3X3X3X3X3X3X3X3X3X3X3X3X3X3X3X3X3X3X3X3X3X3X3X3X3X3X3X3X3X3X3X3X3X3X3X3X3X3X3X3X3X3X3X",
"3X3X3X3X3X3X3X3X3X3X3X3X3X3X3X3X3X3X3X3X3X3X3X3X3X3X3X3X3X3X3X3X3X3X3X3X3X3X3X3X3X3X3X3X3X3X3X3X3X3X3X3X3X3X3X3X3X3X3X3X3X3X3X3X",
"3X3X3X3X3X3X3X0X3X3X3X3X3X3X3X3X0XtXyX0X3X3X3X3X3X3X3X3X3X3X3X3X3X3X3X3X3X3X3X3X3X3X3X3X3X3X3X3X3X3X3X3X3X3X3X3X3X3X3X3X3X3X3X3X",
"3X3X3X3X3X3X3X3X3X3X3X3X3X3X3X3XuXCXaXCX3X3X3X3X3X3X3X3X3X3X3X3X3X3X3X3X3X3X3X3X3X3X3X3X3X3X3X3X3X3X3X3X3X3X3X3X3X3X3X3X3X3X3X3X",
"3X3X3X3X3X3X3X3X3X3X3X3X3X3X3X3XpXpX*.M D.3X3X3X3X3X3X3X3X3X3X3X3X3X3X3X3X3X3X3X3X3X3X3X3X3X3X3X3X3X3X3X3X3X3X0X3X3X3X3X3X3X3X3X",
"3X3X3X3X3X3X3X3X3X3X3X3X3X3X3XiXiXV.B [.:.3X3X3X3X3X3X3X3X3X3X3X3X3X3X3X3X3X0X3X3X3X3X3X3X3X3X3X3X3X3X3X3X3X3X3X3X3X3X3X3X3X3X3X",
"3X3X3X3X3X3X3X3X3X3X3X3X[.0X3XwX2XB.*.N _ 4X3X3X3X3X3X3X3X3X3X3X3X3X3X3X3X3X'.0X3X3X3X3X3X3X3X3X3X3X3X3X3X3X3X3X3X3X3X3X3X0X3X3X",
"3X3X3X3X3X3X3X3X3X3X3X3X3X0X0XiX/.I.7.M <.A 3X3X3X0X3X3X3X3X3X0X3X3X3X3X3X3X[.0X3X3X3X3X3X3X3X3X3X3X3X3X3X3X3X3X3X3X3X3X3X3X3X3X",
"3X3X3X3X3X3X3X3X3X3X3X3X3X3XqXbXV.>XA., [ V S.3X3XtXqX3X3X3X3X3X3X3X3X3X3X3X3X3X3X3X3X3X3X3X3X3X3X3X3X3X3X3X3X3X3X3X3X3X3X3X3X3X",
"3X3X3X3X3X3X3X3X3X3X3X3X3X3XqXbXV.>XP.= M ].,.3X3XiXyX3X3XeX3X3X3X3X3X3X3X3X3X3X3X3X3X3X3X3X3X3X3X[.0X3X3X3X3X3X3X3X3X3X3X3X3X3X",
"3X3X3X3X3X3X3X3X3X3X3X3X3X3XqXI.>X>XI.& M N C 3X3XtXCX3X3XxX3X3X3X3X3X3X3X3X3X3X3X3X3X3X3X3X3X3X3X3X3X3X3X3X3X3X3X3X3X3X3X3X3X3X",
"3X3X3X3X3X3X3X3X3X3X3X3X3X3XeXJ.2X2XP.Z L.B.xXpX~./.iXwXuXxX3X3X3X3X3X3X3X3X3X3X3X3X3X3X3X3X3X3X3X3X3X3X3X3X3X3X3X3X3X3X3X3X3X3X",
"3X3X3X3X3X3X3X3X3X3X3X3X3X3XpXrX2Xr.;.;.wXV.VXVXVXiXC.aXpXpX0X[.3X3X3X3X3X3X3X3X3X3X3X3X3X3X3X3X3X3X3X3X3X3X3X3X3X3X3X3X3X3X3X3X",
"3X3X3X3X3X3X3X3X3X3X3X3X3X3XmX5X/.L.;.;.bXuX`.VXbXbXaX~.pXbXL.B.3X3X3X3X3X3X3X3X3X3X3X3X3X3X3X3X3X3X3X3X3X3X3X3X3X3X3X3X3X3X3X3X",
"3X3X3X3X3X3X3X3X3X3X3X3X3X3XCXrX/.E.;.;.CXCX).aXbXVXaXmXt.VXlX;.B.3X3X3X3X3X3X3X3X3X3X3X3X3X3X3X3X3X3X3X3X3X3X3X3X3X3X3X3X3X3X3X",
"3X3X3X3X3X3X3X3X3X3X3X3X3X3XCXrXI.r.;.;.nXCXI.aXVXCXbXCX,X,XiXB.B.4X3X3X3X3X3X3X3X3X3X3X3X3X3X3X3X3X3X3X3X3X3X3X3X3X3X3X3X3X3X0X",
"3X3X3X3X3X3X3X3X3X3X3X3X3X3XVX>XJ.VX;.;.rXCXnXP.bXaXCXiXpX).iXt.N.3X3X3XnX3X3X3X3X3X3X3X3X3X3X3X3X3X3X3X3X3X3X3X3X3X3X3X3X3X3X3X",
"3X3X3X3X3X3X3X3X3X3X3X3X3XxXxXA.VXCX;.;.P.pXpX4X,XaXaXaXpXT.gX#X;./.3X3XCX3X3X3X3X3X3X3X3X3X3X3X3X3X3X3X3X3X3X3X3X3X3X3X3X3X3X3X",
"3X3X3X3X3X3X3X3X3X3X3X3X3XxXiXA.CXCX.X;.w.d.g.g.d.7XtX0XH.jXa.%Xt.0X3XCXxX3X3X3X3X3X3X3X3X3X3X3X3X3X3X3X3X3X3X3X3X3X3X3X3X3X3X3X",
"3X3X3X3X3X3X3X3X3X3X3X3X3XxXiXA.CXCXP.m.m.F n jXgXgXgXx.jX6.|.Y.! 0XtXG xX3X3X3X3X3X3X3X3X3X3X3X3X3X3X3X3X3X3X3X3X3X3X3X3X3X3X3X",
"3X3X3X3X3X3X3X3X3X3X3X3X3XzXiXA.yXMXv.n.K o.$.6.%XgXjXgX8.2 o.B q.`.1X*.xX3X3X3X3X3X3X3X3X3X3X3X3X3X3X3X3X3X3X3X3X3X3X3X3X3X3X3X",
"3X3X3X3X3X3X3X3X3X3X3X3X3XnXiXA.6XMXn.n.v o.b Z J -XjXp.=Xc o.b + T.d.kXxX3X3X3X3X3X3X3X3X3X3X3X3X3X3X3X3X3X3X3X3X3X3X3X3X3X3X3X",
"3X3X3X3X3X3X3X3X3X3X3X3X3XnX4XA.D.dXa.P o c S c S x.jXjX2 m 3   3 Q %.! xX3X3X3X3X3X3X3X3X3X3X3X3X3X3X3X3X3X3X3X3X3X3X3X3X3X3X3X",
"3X3X3X3X3X3X3X3X3X3X3X3X3XnX/.V.~ @X=X& o & 3 m m jXjXjX! 3 +.@.B J %.n xX3X3X3X3X3X3X3X3X3X3X3X3X3X3X3X3X3X3X3X3X3X3X3X3X3X3X3X",
"3X3X3X3X3X3X3X3X3X3X3X3X3XpX;XI.a.c.U.{ { +.{ { y.gXjXjXz.{.^.6X+X~ oXn yX0X0X[.3X3X3X3X3X3X3X3X3X3X3X3X3X3X3X3X3X3X3X3X3X3X3X3X",
"3X3X3X3X0X3X3X3X3X3X3X3X3XpXI./.eX4.bXM.=.=.>.gXjX=X-XjXjXjXjXm.l.R nXd cX0X3X3X3X3X3X3X3X3X3X3X3X3X3X3X3X3X3X3X3X3X3X3X3X3X3X3X",
"3X3X3X3X3X3X3X3X3X3X3X3X>XrXt.nXiXqXbXb.n.n.*XjXjXgX~ Q jXjX$Xv.s.0XnXd xX3X3X3X0X3X3X3X3X3X3X3X3X3X3X3X3X3X3X3X3X3X3X3X3X3X3X3X",
"3X3X3X3X3X3X3X3X3X3X3X3XCX/..X~.I.3X!.0.4.k.k.k.l.*X*X*Xz.q.q.H.qXVX3Xd xX3X0X).:.,.1.<.1.[.3X3X3X3X3X3X3X3X3X3X3X3X3X3X3X3X3X3X",
"3X3X3X3X3X3X3X3X3X3X3X3XCXP.CXrX2X2XP.>XJ.CX4Xe.>.E W W [...X.^.).dX0X7 cXO.O.O.O.` v v t U.3X2X3X3X3X3X3X3X3X3X3X3X3X3X3X3X3X3X",
"3X3X3X3X3X3X3X3X3X3X3X4XCXL.CXeXI.5X>X>XJ.l 8.z ) ;.3.(.qX} h.gX$X0XjXjXx.v u 2 > s *.*.8 m [.[.3X3X3X3X3X3X3X3X3X3X3X3X3X3X3X3X",
"3X3X3X3X3X3X3X3X3X3X3XpXpX.XVXeX5X<X1X2X4Xn.-X-XM.l ( T.m.) c s.uX! Q E J 2 4 0XmX0X3X3X0Xk.Z 3X3X3X3X3X3X3X3X3X3X3X3X3X3X3X3X3X",
"3X3X3X3X3X3X3X3X3X3X3XrXpX.XuXH.vX;X:X1XxXM.jXM.M.< _ p ..| ' 3 yXT.0Xn s.-.;.wXVX3X3X0X0X0.gX3X3X3X3X3X3X3X3X3X3X3X3X3X3X3X3X3X",
"3X3X3X3X3X3X3X3X3X3X3XzX>XnXfX:XXXhXi.OXhXjX-Xc.q., ] M v $.` % kX{.0XY -.u.X $ X J.3X3X3X3XfX3X3X3X3X3X3X3X3X3X3X3X3X3X3X3X3X3X",
"3X3X3X3X3X3X3X3X3X3X3XmXr.nX<XCXR sX5.NX%XjX*XQ 4 u ' M <.'.R.# qXBXY.VXS._ & $ > L 3X3X3X3X3X3X3X3X3X3X3X3X3X3X3X3X3X3X3X3X3X3X",
"3X3X3X3X3X3X3X3X3X3XVX/.CXiX2XCXU :XE.NXq.-X^ ; $ t C p t =.` $ 0XVX@Xf.V v t   : , R.0X3X3X3X3X3X3X3X3X3X3X3X3X3X3X3X3X3X3X3X3X",
"3X3X3X3X3X3X3X3X3X3XCXbXpX4X2XCXF ,XT G jXn.6 ; : * t C t $.' , Y qX_ b v v v   @ $ : 0X3X3X3X3X3X3X3X3X3X3X3X3X3X3X3X3X3X3X3X3X",
"3X3X3X3X0X3X3X3X3X3XrX:XpX4XhX8.s.e.,.&X*Xk.h 9 0 , 1 _ =.R.:.A >.D v v v u *   # # : t.3X3X3X3X3X3X3X3X3X3X3X3X3X3X3X3X3X3X3X3X",
"3X3X3X3X3X3X3X3X3X3XiXP.pX4XNXY VXZ O.M ^ pXL w 0 * u _ b =.v b [ D v 2 2 2 o X . @ > # 3X3X3X3X3X3X3X3X3X3X3X3X3X3X3X3X3X3X3X3X",
"3X3X3X3X3X3X3X3X3X4XL.,XpX3XCXOX9.$.N u > Y H w 9 1 ` N v ,.B v <.b i 2 t & T _.7.. @ : L 0X3X3X3X3X3X3X3X3X3X3X3X3X3X3X3X3X3X3X",
"3X3X3X3X3X3X3X3X3X3XC.pX<X<XBXwXv v s f e.U I e g D #.B v v oX6Xv 2 1 1 4 U VXqXuX0Xn = > | 3X'.`.y K 3X3X3X3X3X3X3X3X3X3X3X3X3X",
"3X3X3X3X3X3X3X3X3XI.uXbX5XBXK ].t -.Z.xXpXU a =.Z $.[ =.S.S.>.B p p 1 % :XuX3XuXVXnXmX#X  : h h a @ H 3X3X3X3X3X3X3X3X3X3X3X3X3X",
"3X3X3X3X3X3X3X3X2X>XzX.Xu.s.dXgX=XQ.fX>X8.F ,.$ 2 V +.v v b v v v v 2 $ 4 5 5.i.,X3X0XtXw.X : , >   5.nX3X3X3X3X3X3X3X3X3X3X3X3X",
"3X0X3X3X3X3X3XwXVXK.2Xp.6 /.pXpXOXi./.>XzX1Xa 9 1 b M ' ' ' ' N v v 2 1 1 @ e.sX'.tXVXG F O @ e.R.y.iXqX3X3X3X3X3X3X3X3X3X3X3X3X",
"3X3X3X3X3X3X3X3XV.CX2X XCX%XzXfX1X{.@XzX9.zXF 9 > t u M p A _ _ _ C i 1 r , x N.bXOX9XmXbXbXH f Q.eXxX3X3X3X3X3X3X3X3X3X3X3X3X3X",
"3X3X3X3X3X3X3X3XV.CX2X2X6 nXG pX5Xt.mX>X9.CXL w : % 2 t 2 2 1 2 2 % . @ r @ x j Y.Y [.3XCX3X,X^.3XNX3X3X3X3X3X3X3X3X3X3X3X3X3X3X",
"3X3X3X3X3X3X0X/.W.mX~.K.p.2.3.}.~.I mX>X9.VXlX; e ; % & * > * > > X X @ r @ k ( V.e.%.i.bXOX#X0XcXqX3X3X3X3X3X3X3X3X3X3X3X3X3X3X",
"3X3X3X3X3X3X3X!.fXuXr.rXpX&.;XP OXlX4X>X9.CXzXq 0 0 0 9 - 0 0 j l X @ @ , # l } f n XXx.MXF 6 G nX3X3X3X3X3X3X3X3X3X3X3X3X3X3X3X",
"3X3X3X3X3X3X3XB.VXuXr.4XCX9.3.pXe..XzX.X9.CXlXlXs.; ; ; } e 9 j / k . # : # l } C.3XG.3.g.G.f.yX3X3X3X3X3X3X3X3X3X3X3X3X3X3X3X3X",
"3X3X3X3X3X3X/.P.CXtXJ.zXpX1XfXy. .I.rXK.e.CXCXR h.2XY.q j ( j ; / z . @ : # j ( C.0XR @X0X&.}.3X3X0X'.0X0X0X0X[.<X3X3X3X3X3X3X3X",
"3X3X3X3X3X3XC.pXbXI.>XxXpX3.:X:Xn P.XXK.9.CX1XP U XXnXI - x 0 ; z k . > : q ; - C.G.9XQ.H 8X#XVXNXNXVXVXBXMXmX0X3X3X3X0X3X3X3X3X",
"3X3X3X3X3X>XJ.CXbXI./.iXCX5.yXzXs.1X.X7.~.CX%.F.5X<X#X-.- L L - x N.X 1 @ T.3XJ wXaXp.T yXy.w.u.3XtXL.}.%.2.s.cX7XsXnXbX3XiX3X3X",
"3X3X3X3X3X/./.CX4XC.iXnXr.w.iXW.CXeXw.uXe.CXp.H.{.XXg.7 6 ;X'.).2XNX*., @ j. .2XtX+X^.6 0X_.`.'.CXtX'.'.&.6 7 U BXvX0X3X3X0XCXCX",
"3XyXbXcXzX~.nXzXzX9.MX8.T &.&.s.1X .e.e.}.9Xd.H p.5  .;X3X{.xX}.p.H.7., @ mXMXXX+Xu.aXoXbXQ.Q.9Xf.R 9.9.Y.aXCXyX3Xu.0XaXxXCXVX0X",
"CXCXBXG 5.2.<XBXMXZ.>XpXs.W.K.Y @X1XBXCXCXd 7.kXkXnX<X+XBX9X'.'.d d 5 , @ d d d 6 x.3X0XCXCX0X0XCXCX0Xj.@Xg.Q.mX0XT 0XcXCX%.VX3X",
"3X3Xg.<XbXzX.XE.w.fXrX.XrX;XzXzX:XW.zX4XqXH.s.w. .e.I.K.7XT.g.g.0X0Xs , @ H ^.^.9.%.T T T T %.%.e.0X0X0X0XbXfX7XyXBXtXh.3X .CX3X",
"3X3X{.`.xXY CX.XF.zX.XF.6 J fX>XJ.>XL.nXzXF.yX>XlX.Xg.#X5.5.2.%.hX#X. a : $ # $ u.'.Y.x._.'.;X Xx.<XyXNXCXmX0X0X0XnX0X9.3Xw.VX3X",
"0X0XiX0XbXG.uXyXCXnXmX7XXX@X_._.3XcXnX0XwXeXbXvX^.E._.,XnX0XY ).`.G.. ,X$ $ @ @ i.0XbXvXdXdXfXtXtXuXyXnXuX3X3X3X3XnX3XyX3X3XCX3X",
"[.0XyX0X0XCX3XuXeX}..X5.nXnXsXvXCXnXvXsXsXtXtXtXtXtXXXp.2.3._.^.}.}.}.}.{.{.x.mXCXMXsX,X0X0X_.,XtXnXj.`.3X3X3X3X0XqXqXrX3X3XVX3X",
"3X3X0X'.0XVX3XqXuX0XMXY.j.Q.d.^.CXwX,X,Xg.h.x.wX0Xf.G vXsXMXMXMXmX0Xi.G G 0X!.CXtXXXMXd.0Xj.'.vXT <X8X3X3X3X3X3X0X0X[.3X3X3XCX3X",
"3X3X3X3X0XbX3XuXuX3X3XyXbXXX3.3.mXbXyXyXP 3XfXj.0X0XtXcXbXtXcXT.7.H y.0X0XyXnXXX+Xj.j.oXT.aXcXwX}.0XiX3X3X3X3X3X'.0X3X3X3X3X3X3X",
"3X3X3X3X3X3X3XqXeX3X3XyX0X3X3X3XmX3X3X3XCX6 6 `.dXVXwX0X3X3X3X3XCXwX6.g.CX3X3X3X0XCXCXcXCX~.VX3XY.3X3X3X3X3X3X3X3X3X3X3X3X3X3X3X",
"3X3X3X3X3X3X3XqXqX3X3XeX[.3X3X3X{.eX3X3X0XxXi..XqX0X[.0X3X3X3X3X0XVXf.yX'.3X3X3X0X XE.eX0XwX0X3XoX3X3X3X3X3X3X3X3X3X3X3X3X3X3X3X",
"3X3X3X3X3X3X3X3X3X3X3X3X3X3X3X3XY.0X3X3X3X3X%.3X3X3X3X3X3X3X3X3X0X0XnX3X3X3X3X3X3XeXqX3X0XW.3X3XnX3X3X3X3X3X3X3X3X3X3X3X3X3X3X3X",
"3X3X3X3X3X3X3X3X3X3X3X3X3X3X3X3XmX3X3X3X3X3XeX3X3X3X3X3X3X3X3X3X3X3XvX3X3X3X3X3X3X3XCX3X3X'.0X0XwX3X3X3X3X3X3X3X3X3X3X3X3X3X3X3X"
};
