/* XPM */
static char *result[] = {
/* columns rows colors chars-per-pixel */
"64 64 242 2 ",
"   c #030408",
".  c #000212",
"X  c #00041B",
"o  c #070A19",
"O  c #0E1418",
"+  c #271D15",
"@  c #000224",
"#  c #010429",
"$  c #000C2D",
"%  c #001423",
"&  c #051A28",
"*  c #001C2D",
"=  c #010233",
"-  c #02053C",
";  c #001333",
":  c #001D33",
">  c #021939",
",  c #002234",
"<  c #00233C",
"1  c #012A3D",
"2  c #182C38",
"3  c #252A34",
"4  c #293033",
"5  c #323638",
"6  c #383A3A",
"7  c #050A42",
"8  c #060D4E",
"9  c #040D53",
"0  c #0A1450",
"q  c #002340",
"w  c #002A41",
"e  c #02354A",
"r  c #013B51",
"t  c #193E56",
"y  c #242A47",
"u  c #3A3F44",
"i  c #313A59",
"p  c #051366",
"a  c #151C69",
"s  c #061770",
"d  c #152975",
"f  c #2A2D76",
"g  c #473A4B",
"h  c #413F76",
"j  c #014458",
"k  c #00475D",
"l  c #3D4144",
"z  c #2F4956",
"x  c #004D63",
"c  c #064E65",
"v  c #05546A",
"b  c #19586C",
"n  c #055B74",
"m  c #364F64",
"M  c #0D657B",
"N  c #2D6C7C",
"B  c #464B4C",
"V  c #464D53",
"C  c #4B5357",
"Z  c #585959",
"A  c #685F55",
"S  c #565F65",
"D  c #4A5573",
"F  c #505371",
"G  c #5C6569",
"H  c #5A6876",
"J  c #636667",
"K  c #636D76",
"L  c #6C757A",
"P  c #6B747D",
"I  c #737778",
"U  c #916949",
"Y  c #9C7655",
"T  c #8D7860",
"R  c #9A8371",
"E  c #A68567",
"W  c #B09073",
"Q  c #1A2680",
"!  c #2D388D",
"~  c #403E8E",
"^  c #075185",
"/  c #076A85",
"(  c #08728D",
")  c #097894",
"_  c #187993",
"`  c #397286",
"'  c #494698",
"]  c #477485",
"[  c #6D7B85",
"{  c #657588",
"}  c #767A85",
"|  c #6A7A91",
" . c #5267AB",
".. c #4C7EAE",
"X. c #7478C0",
"o. c #308399",
"O. c #0A83A2",
"+. c #188AA7",
"@. c #218DAA",
"#. c #2E92A8",
"$. c #5B8C9E",
"%. c #7E8283",
"&. c #79848D",
"*. c #688398",
"=. c #7B8594",
"-. c #798993",
";. c #719193",
":. c #5294AB",
">. c #7A8DA6",
",. c #758AAE",
"<. c #6C92AD",
"1. c #4AA2B8",
"2. c #6EA5B7",
"3. c #71A1B0",
"4. c #6894CB",
"5. c #6DA9CA",
"6. c #868A8B",
"7. c #9C8B81",
"8. c #848D97",
"9. c #8C9399",
"0. c #95989A",
"q. c #969A9B",
"w. c #A6998E",
"e. c #B6A48F",
"r. c #A6A29B",
"t. c #898BA2",
"y. c #8998A6",
"u. c #939DAA",
"i. c #8598B6",
"p. c #8B9CBA",
"a. c #99A3A9",
"s. c #88A3B5",
"d. c #96A6BB",
"f. c #AAA7A5",
"g. c #A6ACB6",
"h. c #ACB5B8",
"j. c #B1B4B3",
"k. c #B2BABD",
"l. c #B4B9BC",
"z. c #C7A783",
"x. c #D1B38E",
"c. c #CDBCAB",
"v. c #BEC3BD",
"b. c #DFC49D",
"n. c #D3C4B1",
"m. c #ECD4AF",
"M. c #F0D7AF",
"N. c #8C9FC0",
"B. c #8AA6C3",
"V. c #91A3C1",
"C. c #93A9C6",
"Z. c #9BAAC5",
"A. c #9DAECB",
"S. c #9BB2C9",
"D. c #92B7D0",
"F. c #A3B6C4",
"G. c #ABB6C4",
"H. c #A9B7CC",
"J. c #A7B8CA",
"K. c #B3BCC3",
"L. c #B4BDCB",
"P. c #A7B9D4",
"I. c #ABBCD4",
"U. c #C0BFC4",
"Y. c #97C3CD",
"T. c #8AC1D9",
"R. c #BDC2C2",
"E. c #B5C2CC",
"W. c #BAC7CB",
"Q. c #A8C8D9",
"!. c #B2C5D4",
"~. c #BCC5D4",
"^. c #BBCAD4",
"/. c #B3C4DC",
"(. c #B6CBDE",
"). c #BCCBDB",
"_. c #B9D0D2",
"`. c #BCD0DE",
"'. c #98DCE9",
"]. c #A9CBE6",
"[. c #B7CAE2",
"{. c #BCCBE4",
"}. c #B5D4E6",
"|. c #BDD3E3",
" X c #BDD5E9",
".X c #ACE5F4",
"XX c #C4C9C9",
"oX c #D9D8CB",
"OX c #C8CED3",
"+X c #C3CEDB",
"@X c #C8D4DA",
"#X c #D4D8D9",
"$X c #D3DADC",
"%X c #EADDC8",
"&X c #EBDFD3",
"*X c #F4E1C5",
"=X c #EAE3D8",
"-X c #F6EAD9",
";X c #C1D5E5",
":X c #C4D4ED",
">X c #C4DAEE",
",X c #CAD8E8",
"<X c #CCDBED",
"1X c #D3DCE5",
"2X c #D3DEE8",
"3X c #C4DFF4",
"4X c #CCDDF2",
"5X c #CBE2ED",
"6X c #DDE2E2",
"7X c #DAE4EA",
"8X c #C6E0F4",
"9X c #CDE3F5",
"0X c #CAEDF3",
"qX c #D2E6F5",
"wX c #DCE6F4",
"eX c #D6E9F7",
"rX c #D9EBF5",
"tX c #D2E5F9",
"yX c #D5EAFC",
"uX c #DBEEFD",
"iX c #DFF1FE",
"pX c #E2E5E4",
"aX c #E3E8E8",
"sX c #E5EAEC",
"dX c #EAEDEB",
"fX c #F6EEE5",
"gX c #EEF0EE",
"hX c #FBF1E5",
"jX c #F0F2EF",
"kX c #E3ECF4",
"lX c #EAEFF3",
"zX c #E1EFF9",
"xX c #E8EEF9",
"cX c #ECF3F5",
"vX c #E8F4F7",
"bX c #E3F2FB",
"nX c #EAF5FA",
"mX c #F1F5F4",
"MX c #F5F9F7",
"NX c #F7F8F8",
"BX c #F4FAFA",
"VX c #FBFDFC",
/* pixels */
"3X3X3X3X3X3X3X3X3X3X3X3X3X3X3X3X3XtXtX X8X8X8X3X3X3X3X3X3X3X3X3X3X3X3X3X3X3X3X3X3X3X3X3X3X8X3X3X3X3X3X3X3X3X3X3X3X3X3X3X3X3X3X3X",
"3X3X3X3X3X3X3X3X3X3X3X3X3X3X3X3X0XVXiXBX.X8X9X.X3X3X3X3X3X3X3X3X3X3X3X3X3X3X3X3X3X3X3X3X3X3X3X3X3X3X3X3X3X3X3X3X3X3X3X3X3X3X3X3X",
"3X3X3X3X3X3X3X3X3X3X3X3X3X3X3X3XuXyXy.k ].8X X8X3X3X3X3X3X3X3X3X3X3X3X3X3X3X3X3X3X3X3X3X3X3X3X3X3X3X3X3X3X3X3X3X3X3X3X3X3X3X3X3X",
"3X3X3X3X3X3X3X3X3X3X3X3X3X3X3XyXuXd.b .X<.8X8X8X3X3X3X3X3X3X3X3X3X3X3X3X3X3X3X3X3X3X3X3X3X3X3X3X3X3X3X3X3X3X3X3X3X3X3X3X3X3X3X3X",
"3X3X3X3X3X3X3X3X3X3X3X3X3X3X3XyX:Xp.>.v ` 3X8X8X3X3X3X3X3X3X3X3X3X3X3X3X3X3X3X3X3X3X3X3X3X3X3X3X3X3X3X3X3X3X3X3X3X3X3X3X8X3X3X3X",
"3X3X3X3X3X3X3X3X3X3X3X3X3X3X XyX:XI.t.x 2.M 8X8X3X3X3X3X3X3X3X3X3X3X3X3X3X3X3X3X3X3X3X3X3X3X3X3X3X3X3X3X3X3X3X3X3X3X3X3X3X3X3X3X",
"3X3X3X3X3X3X3X8X3X3X3X3X9X.X9XbXV.:XZ.1 o.n D.8X3XyX9X3X3X3X3X3X3X3X3X3X3X3X3X3X3X3X3X3X3X3X3X3X3X3X3X3X3X3X3X3X3X3X3X3X3X3X3X3X",
"3X3X3X3X3X3X3X3X3X3X3X3X3X8X9XbXV.:XI.* v '.2.3X3XyXeX3X3X9X3X3X3X3X3X3X3X3X3X3X3X3X3X3X3X3X3X3X3X3X3X3X3X3X8X3X3X3X3X3X3X3X3X3X",
"3X3X3X3X3X3X3X3X3X3X3X3X3X3X9X~.{.:XI.; x M M 3X8XyXVX8X3XxX3X3X3X3X3X3X3X3X3X3X3X3X3X3X3X3X3X3X3X3X3X3X3X3X3X3X3X3X3X3X3X3X3X3X",
"3X3X3X3X3X3X3X3X3X3X3X3X3X3X4XH.:X:XI.i J.V.zXuX/. XyX8X9XbX3X3X3X3X3X3X3X3X3X3X3X3X3X3X8X3X3X3X3X3X3X3X3X3X3X3X3X3X3X3X3X3X3X3X",
"3X3X3X3X3X3X3X3X3X3X3X3X3X3XuX4X:XN.,.,.9XV.nXBXBX9XA.uXuXuX3X3X3X3X3X3X3X3X3X3X3X3X3X3X3X3X3X3X3X3X3X3X3X3X3X3X3X3X3X3X4X.X8X X",
"3X3X3X3X3X3X3X3X3X3X3X3X3X3XnXwX:XA.,.,.xXyX XBXbXbXuX(.uXiXD.C.3X3X3X3X3X3X3X3X3X3X3X3X3X3X3X3X3X3X3X3X3X3X3X3X3X3X3X3X8X8X8X8X",
"3X3X3X3X3X3X3X3X3X3X3X3X3X3XVXqX[.{.,.,.VXNX}.iXbXBXuXnXp.VXcX,.N.3X3X3X3X3X3X3X3X3X3X3X3X3X3X3X3X8X3X3X3X3X3X3X3X3X3X3X8X3X3X3X",
"3X3X3X3X3X3X3X3X3X3X3X3X3X3XVXkX!.i.,.,.BXVXP.uXVXVXnXVX[.>XyXi.B.8X3X3X3X3X3X3X3X3X3X3X3X3X3X3X3X3X3X3X3X3X3X3X8X3X3X3X3X3X3X3X",
"3X3X3X3X3X3X3X3X3X3X3X3X3X3XVX:XJ.BX,.,.bXVXbXP.nXiXVXuXuX[.iXs.N.3X3X3XbX3X3X3X3X3X3X3X3X3X3X3X3X3X3X3X3X3X3X3X3X3X3X3X3X3X3X3X",
"3X3X3X3X3X3X3X3X3X3X3X3X3XuXzXA.cXVX,.,.I.bXiX8X>XiXiXuXuXW.gXOX,. X3X3XVX3X3X3X3X3X3X3X3X3X3X3X3X3X3X3X3X3X3X3X3X3X3X3X3X3X3X3X",
"3X3X3X3X3X3X3X3X3X3X3X3X3XzXyXA.VXVX).,.y.g.g.g.g.7XyX9Xd.hXn.6Xi.3X4XVXzX3X3X3X3X3X3X3X3X3X3X3X3X3X3X3X3X3X3X3X3X3X3X3X3X3X3X3X",
"3X3X3X3X3X3X3X3X3X3X3X3X3XbXyXA.VXVXP.c.m.C Z -X-X-XgXE.hXr.v.W.7.3XeXJ zX3X3X3X3X3X3X3X3X3X3X3X3X3X3X3X3X3X3X3X3X3X3X3X3X3X3X3X",
"3X3X3X3X3X3X3X3X3X3X3X3X3XkXyXA.kXBXr.m.G N <.6.=XhXhXhXf.e ] H A !.2X[ zX3X3X3X3X3X3X3X3X3X3X3X3X3X3X3X3X3X3X3X3X3X3X3X3X3X3X3X",
"3X3X3X3X3X3X3X3X3X3X3X3X3XbXyXA.9XBXm.+     C m Z hXhXr.-Xz 4.5.+ ~.j.cXzX3X3X3X3X3X3X3X3X3X3X3X3X3X3X3X3X3X3X3X3X3X3X3X3X3X3X3X",
"3X3X3X3X3X3X3X3X3X3X3X3X3XxX4XA.S.vX%XO rXQ.:.;.a.w.hXhX& OX*.:.b T 6.0.zX3X3X3X3X3X3X3X3X3X3X3X3X3X3X3X3X3X3X3X3X3X3X3X3X3X3X3X",
"3X3X3X3X3X3X3X3X3X3X3X3X3XxX:Xp.W $X-XO.0X5Xm 0XvXJ hXhXVX}.7XC 1.E %.l zX3X3X3X3X3X3X3X3X3X3X3X3X3X3X3X3X3X3X3X3X3X3X3X3X8X3X3X",
"3X3X3X3X3X3X3X3X3X3X3X3X3XuX;XI.r.b.].O.+.G } -.1XhXhXhXfX@Xr.h._.E W.l zX3X3X3X3X3X3X3X3X3X3X3X3X3X3X3X3X3X3X3X3X3X3X3X3X3X3X3X",
"3X3X3X3X3X3X3X3X3X3X3X3X4XuX/.[.8XW bXM.#.#.#.hXhX-XfXhXhXhXhX&Xc.A vXu xX3X3X3X3X3X3X3X3X3X3X.X3X3X3X3X3X3X3X8X3X3X3X3X3X3X3X3X",
"3X3X3X3X3X3X3X8X3X3X3X3X:XwXp.bXrX4XbXM.M.M.fXhXhX-XW W hXhX=Xc.a.9XvXu zX3X3X3X8X8X8X8X8X8X8X8X3X3X3X3X3X3X3X3X3X3X3X3X3X3X3X3X",
"3X3X3X3X3X3X3X3X3X3X3X3XVX:XL.).P.>X(.7.T x.x.x.c.-X-X-Xn.z.e.G.qXVX3Xu zX3X8X X5.D.T.T.T.8X8X0X3X3X3X3X3X3X3X3X3X3X3X3X3X3X3X3X",
"3X3X3X3X3X3X3X3X3X3X3X3XVXP.VXwX:X:XI.:XA.dX).0.1.Y Y Y ;X .4.`.}.sX8Xu xX@.+.+.) / x x e Y. X9X3X3X3X3X3X3X3X3X3X3X3X3X3X3X3X3X",
"3X3X3X3X3X3X3X3X3X3X3X4XVXP.VXqXI.4X>X:XP.a | f ..3.[ ].0X! g.fXoX4XhXhXXXk r 1 , y H { 6 z .X.X3X3X3X3X3X3X3X3X3X3X3X3X3X4X.X8X",
"3X3X3X3X3X3X3X3X3X3X3XuXuX+XNXyX<X4X1X4X>XM.-X-XM.s ! #XM. .2 k.yXR U U B 1 * 8XcX3X3X3X3Xz.t 3X3X3X3X3X3X3X3X3X3X3X3X3X3X3X3X3X",
"3X3X3X3X3X3X3X3X3X3X3XwXuX+XyXE.lX,X$X1XrXM.hX*XM., ^ r  .` ) 4 7X^.9Xl h.| >.8XVX3X3X3X3Xe.-X3X3X3X3X3X3X3X3X3X3X3X3X3X3X3X3X3X",
"3X3X3X3X3X3X3X3X3X3X3XkXqXbXdX+XpXmXg.+XnXhXfXx.c., ) k x $.( % dXk.8XZ *.F.X # # [.3X3X3X3XcX3X3X3X3X3X3X3X3X3X3X3X3X3X3X3X3X3X",
"3X3X3X3X3X3X3X3X3X3X3XbXi.xX:XVXI pX=.BX=XhX*XE 2 w O.k 1.}.D.# yXVXXXVXT.n & ; > i 3X3X3X3X3X3X3X3X3X3X3X3X3X3X3X3X3X3X3X3X3X3X",
"3X3X3X3X3X3X3X3X3X3XBX:XVXuX<XVXK :X).MXw.-XW - $ w / e w <.( $ 8XMXpXOXn k w   ; > Q.3X3X3X3X3X3X3X3X3X3X3X3X3X3X3X3X3X3X3X3X3X",
"3X3X3X3X3X3X3X3X3X3XVXwXzXqX:XVXB ;X[ G -XM.g 7 ; * w n w $.) > [ qX_ k k k k   @ $ y 3X3X3X3X3X3X3X3X3X3X3X3X3X3X3X3X3X3X3X3X3X",
"3X3X3X3X3X3X3X3X3X3XkXqXuX4XdXa.q.G.3.*X*Xx.g 7 8 ; 1 / 2.Q.s.n 1.N j k r r :   @ # $ S.3X3X3X3X3X3X3X3X3X3X3X3X3X3X3X3X3X3X3X3X",
"3X3X3X3X3X3X3X3X3X3XyXP.uX4XMXG BXz +.c z.wXD 8 8 * 1 / k 2.k x ` N k w w 1 %   X @ < # 3X3X3X3X3X3X3X3X3X8X3X3X3X3X3X3X3X3X3X3X",
"3X3X3X3X3X3X3X3X3X3X/. XyX:XNX1Xh.] n r , &.i 9 7 : ) v x 3.c k 5.k e w w : H (.[ . @ $ { 3X3X3X3X3X3X3X3X3X3X3X3X3X3X3X3X3X3X3X",
"3X3X3X3X3X3X3X3X3X4Xp.uX:X:XVXyXr x & 2 y.V K 9 < b +.c k k kXsXk w 1 1 & B VXqXtX3X3 o q | 3X3X3Xy D 3X3X3X3X3X3X3X3X3X3X3X3X3X",
"3X3X3X3X3X3X3X3X3XI.9XbXwXNX[ '.r | Z.bXuX%.y $.] $.$.<.2.2.:.b j e < % W.yX3X9XcXnXbXOX. ; D D i @ C 3X3X3X3X3X3X3X3X3X3X3X3X3X",
"3X3X3X3X3X3X3X3X4X{.lX2XH.L.gXhX%X~.lX,X0.u 3.% 1 n O.j k x k x k j 1 # 2 4 y.!.4X3X3X9X=.X > > >   } BX3X3X3X3X3X3X3X3X3X8X3X3X",
"3X3X3X3X3X3X3X9XBXL.4Xa.6 H.uXzX1XZ.{.:X1X#Xm - 1 x v ( ) ( ( v k k 1 < > # y.XX X9XBXJ G O @ =.C.8.yX9X3X3X3X3X3X3X3X3X3X3X3X3X",
"3X3X3X3X3X3X3X3XV.VX4X@XVXpXlXlXaX#XaXmX0.lXV 7 * 1 r c r ( ( ( / / j < q > f P.nX1XkXBXvXvXu 3 ).9XxX3X3X3X3X3X3X3X3X3X3X3X3X3X",
"3X3X3X3X3X3X3X3XV.VX<X;XV lXS wX<Xy.kX:Xu.mXD 9 ; % < w w w w w w *   # q @ f p W.L  X9XVX8X|.!.>XMX8X3X8X3X3X3X3X3X3X3X3X3X3X3X",
"3X3X3X3X3X3X3X XI.BX+XG.6.a.f.OX).{ nX:X0.BXkX- p ; % * : : , : : X X @ > @ f f C.8.y.S.rX5X$X8XuX9X3X3X3X3X3X3X3X3X3X3X3X3X3X3X",
"3X3X3X3X3X3X3X[.7XtXp.wXyX-.4XV 2XsX4X:X0.VXlX= 8 8 8 7 = 8 8 p s X @ @ > # s ' 3 5 pXXXVXl 5 5 mX8X X8X8X8X8X3X3X3X3X3X3X8X3X3X",
"3X3X3X3X3X3X>XN.BXtXp.:XVX0.6.yXu.1XwX+X0.VXlX1Xt.- - 7 ! 9 7 p Q 0 X @ ; # s ' C.8Xa.6.h.a.a.vX8X8X8X8X X8X.X3X3X3X3X3X3X3X3X3X",
"3X3X3X3X3X3X:XA.VXzXZ.kXyXmXpXg.| L.tX~.0.VXVXI U.4XK.0 p ! p - Q d . @ ; @ s ~ C.8XG #X8X&.6X8X4X8X.X8X8X8X3X3X3X3X3X3X3X3X3X3X",
"3X3X3X3X3X3XZ.zXzX/.,XbXuX6.<XXXV I.#XL.0.VXpXG L OXlXF = f 8 - d a . > ; 7 7 = C.J.aX!.H $XXXnXnXnXnXnXnXvXvX3X3X3X3X3X3X3X3X3X",
"3X3X3X3X3X:XA.VXuXI.{.yXVX8.qXsXu.$X~.&.+XVX} Z.4X:X6Xt.= h i - d X.o > @ E.8XZ qXrXg.&.9XE.F.S.8X9X!.$X9.9.g.cXdXgXnXBX3X9X8X8X",
"3X3X3X3X3X X[.BX4XA.tXvXZ.u.yX).VXqXd.eXu.VXf.G.#X#Xj.u 4 ). XP.(.MX[ < @ K.-.^.eX#X!.5 9XP.!.!.BXyX(.`.[ 5 B L dXkX8X8X3X9XBXBX",
"3XrXyXrXwXL.zXbXxXj.mXg.S } y.G.1XP t.9.XXkXq.C l.5 K  X8XOXrX$Xj.K.8.< @ nXmX1X6X9.eX+XvXW.W.7Xh.J %.%.k.nXVXzX8XS.>XnXvXVXVX3X",
"VXVXVXV 8.6.<XVXVXp.:X4Xd.L.H.J #X#XVXVXVXu u.mXjXkX3X#XVXrX8X X6 6 3 > @ B B 6 l W.8X8XVXVX8X8XVXNX8Xk.#Xl.;XBX3XK 8XrXVX-.BX3X",
"3X3Xj.7XnXwX+XL.y.sXkX$XkX1XkXkX2X+XkX4X9X~.9.-.{ 9.W.K.#XG.q.q.8X Xm < @ H ^.^.-.L -.-.;.-.q.q.g.8X8X8X XiXpX1XbXNXkXXX8X[ VX3X",
"3X3XR.:XbXP VX~.p.lX).G.5 g cX3XA. XA.VXwXd.rX:XlX).j.$X%.&.%.%.VXgX. & ; @ @ @ d.8Xk.j. X8X8XW.k.,XrXVXVXVX8X.X3XvX3X9.3X-.BX3X",
"3X3XrX8XkXs.rXzXVXbXbX#Xj.$X`.`.3XkXvX3X9XyXnXkX+XE.).|.nX8X[ [.[.u.. 2X$ $ @ @ d.9XiXsX6X6X6XrXrXrXiXvXrX8X X8X3XnX8XzX3X3XVX3X",
"3X3XyX8X8XVX3XqXqXXX|.-.VXBXgXmXVXBXBXjXdXqX9XqXqXqXW.g.q.6.|. XR.XXK.U.R.R.#XBXVXMXjX X8X8X|.>X9XnXj. X8X8X8X8X3XqX8XyX3X3XBX3X",
"3X3X8X3X8XVX3XyXqXqXdXl.K.).h.|.VX8X>X|.h.XXXX0X9XE.J pXXXdXdXdXMXqXh.G J 9XS.BXrXOXdXk.8XK. XiX6.8X<X3X3X3X3X3X3X3X3X3X3X3XVX3X",
"3X3X8X3X3XbX3X9XqX3X3XuXcXXXI I BXbXbXqXK >X6XK.8X8XqXuXnXeXvXK.&.B y.8X8XrXnXXXXXk.j.#XE.eXbXtX#X8XrX8X3X3X3X3X3X3X3X3X3X3X3X3X",
"3X3X3X3X3X3X3X9XqX3X3XuX8X8X8X9XcX8X8X8XaXB B  XsXVXqX8X3X3X3X9XVX|.u.k.VX8X8X0X9XMXNXzXVX@XBX8Xk. X8X3X3X3X3X3X3X3X3X3X3X3X3X3X",
"3X3X3X3X3X3X8X8X9X8X3XqX8X8X8X>XXX9X8X3X8XzXF.@X8X8X8X3X3X3X3X3X3XMXa.lX|.3X3X3X3X~.K.wX3XeX X8X7X8X3X3X3X3X3X3X3X3X3X3X3X3X3X3X",
"3X3X3X3X3X3X3X3X3X3X3X3X X8X X8XE.3X3X3X3X3X{ 3X8X8X8X8X3X3X3X3X3X3XbX3X3X3X3X3X XuX9X3X8X~.3X3XnX8X8X8X3X3X3X3X3X3X3X3X3X3X3X3X",
"3X3X3X3X3X3X3X3X3X3X3X3X8X8X8X8XcX3X3X3X3X3XeX3X8X X8X X3X3X3X3X3X3XnX3X3X3X3X3X8X3XVX.X3X:X3X3XrX X9X.X3X3X3X3X3X3X3X3X3X3X3X3X",
"3X3X3X3X3X3X3X3X3X3X8X3X3X3X.X9X3X3X3X3X3X3X3X3X8X8X8X8X3X3X3X3X3X3X3X3X3X3X3X3X3X3X3X3X3X3X3X3X3X3X8X8X3X3X3X3X3X3X3X3X3X3X3X3X",
"3X3X3X3X3X3X3X3X3X3X3X3X3X8X8X8X3X3X3X3X3X3X3X3X8X8X9X.X3X3X3X3X3X3X3X3X3X3X3X3X3X3X3X3X3X3X3X3X3X3X3X3X3X3X3X3X3X3X3X3X3X3X3X3X"
};
