/* XPM */
static char *result[] = {
/* columns rows colors chars-per-pixel */
"64 64 244 2 ",
"   c #05060A",
".  c #000212",
"X  c #040818",
"o  c #06131A",
"O  c #251C14",
"+  c #000224",
"@  c #000529",
"#  c #000A2B",
"$  c #001423",
"%  c #041929",
"&  c #001C2D",
"*  c #15192A",
"=  c #020334",
"-  c #02043A",
";  c #001233",
":  c #001936",
">  c #021739",
",  c #032434",
"<  c #00233C",
"1  c #002B3E",
"2  c #162736",
"3  c #1E3033",
"4  c #2E2D35",
"5  c #323638",
"6  c #383C3E",
"7  c #514337",
"8  c #040B43",
"9  c #060D4D",
"0  c #0E1645",
"q  c #050E55",
"w  c #07125B",
"e  c #002240",
"r  c #002941",
"t  c #172742",
"y  c #033648",
"u  c #00354C",
"i  c #013C53",
"p  c #262B49",
"a  c #283845",
"s  c #3A3F43",
"d  c #343949",
"f  c #223A58",
"g  c #383C59",
"h  c #051365",
"j  c #141D63",
"k  c #081871",
"l  c #14276F",
"z  c #303178",
"x  c #1B4049",
"c  c #00475D",
"v  c #02475C",
"b  c #3C4347",
"n  c #2F4F59",
"m  c #014C62",
"M  c #04546A",
"N  c #17576D",
"B  c #055A73",
"V  c #085F72",
"C  c #335065",
"Z  c #08647C",
"A  c #2A677A",
"S  c #36707A",
"D  c #464B4D",
"F  c #4A4F50",
"G  c #4B555A",
"H  c #57595A",
"J  c #68574B",
"K  c #4B5666",
"L  c #50556E",
"P  c #484C78",
"I  c #59636A",
"U  c #4D6978",
"Y  c #5E6974",
"T  c #626668",
"R  c #666D73",
"E  c #69747C",
"W  c #747778",
"Q  c #916949",
"!  c #9B7A5E",
"~  c #9C8878",
"^  c #A78667",
"/  c #AF9275",
"(  c #1A2680",
")  c #2C3285",
"_  c #2A579C",
"`  c #086A84",
"'  c #097691",
"]  c #0C7793",
"[  c #097B97",
"{  c #337588",
"}  c #474598",
"|  c #4F7389",
" . c #6E7B8C",
".. c #566DAA",
"X. c #607DC5",
"o. c #0381A3",
"O. c #0C83A1",
"+. c #2D8FA8",
"@. c #538896",
"#. c #7A8287",
"$. c #728896",
"%. c #7C8895",
"&. c #578CA8",
"*. c #5697AA",
"=. c #7A8DA6",
"-. c #758AAE",
";. c #6896A9",
":. c #7395A8",
">. c #47A3B7",
",. c #5AA1BA",
"<. c #73A6B8",
"1. c #69ABCA",
"2. c #74B8D1",
"3. c #82878A",
"4. c #8A8D8D",
"5. c #938E8B",
"6. c #838C96",
"7. c #88939C",
"8. c #949696",
"9. c #979B9B",
"0. c #A99C91",
"q. c #B6A899",
"w. c #8B97A8",
"e. c #959CA8",
"r. c #8699B7",
"t. c #8B9DBB",
"y. c #9AA4AA",
"u. c #91A7B5",
"i. c #97A8B9",
"p. c #A4A9AA",
"a. c #B3AFAB",
"s. c #A5ADB8",
"d. c #AFB4B5",
"f. c #A8B5BC",
"g. c #B1B3B5",
"h. c #B6B8BB",
"j. c #B1BABC",
"k. c #C6A682",
"l. c #CAB194",
"z. c #C8B7A7",
"x. c #BAC0BE",
"c. c #DEC39C",
"v. c #F0D7AF",
"b. c #E5D3B3",
"n. c #F1DAB6",
"m. c #8596C5",
"M. c #8CA3C1",
"N. c #92A3C1",
"B. c #94A8C5",
"V. c #9BACC6",
"C. c #9CADCA",
"Z. c #88BACD",
"A. c #97B7C9",
"S. c #A0ABC1",
"D. c #A2B4C3",
"F. c #ACB9C7",
"G. c #A4B2CA",
"H. c #B6BEC6",
"J. c #A6BAD3",
"K. c #A9B9D5",
"L. c #ABBCD5",
"P. c #98C6D2",
"I. c #B8C4C7",
"U. c #BBC5CD",
"Y. c #ABC6D7",
"T. c #B5C5D2",
"R. c #BCC6D4",
"E. c #BBCAD5",
"W. c #B2C3DB",
"Q. c #B8C7DA",
"!. c #BCCADB",
"~. c #BDD1DD",
"^. c #B9CCE5",
"/. c #BBCCE5",
"(. c #A6D8E3",
"). c #B6D3E6",
"_. c #BDD3E2",
"`. c #BBD4E8",
"'. c #BED9EB",
"]. c #98E0F2",
"[. c #B5E8F8",
"{. c #C6C9CA",
"}. c #C6CBCB",
"|. c #D4D3CA",
" X c #C5CCD2",
".X c #C4CEDB",
"XX c #CCD2D3",
"oX c #CCD5DC",
"OX c #C9D8DB",
"+X c #D4D7D5",
"@X c #D4DADB",
"#X c #DADCDD",
"$X c #E6DACA",
"%X c #E6DDD1",
"&X c #D7E1DB",
"*X c #F5E4CA",
"=X c #EAE3D4",
"-X c #F5EADA",
";X c #C3D4E5",
":X c #CAD7E6",
">X c #C4D4ED",
",X c #C3D9EC",
"<X c #CBDAED",
"1X c #D6DDE2",
"2X c #C7D7F0",
"3X c #C4DFF4",
"4X c #CBDDF3",
"5X c #D2DFF2",
"6X c #CEE2E8",
"7X c #DDE1E3",
"8X c #D8E6EC",
"9X c #DDE5ED",
"0X c #C7E0F4",
"qX c #CCE3F5",
"wX c #CEE7F6",
"eX c #D3E6F5",
"rX c #DBE5F3",
"tX c #D6E9F7",
"yX c #DAEAF5",
"uX c #D3E6F9",
"iX c #D5EAFC",
"pX c #DBEDFD",
"aX c #DEF0FE",
"sX c #E2E5E4",
"dX c #E7EBEA",
"fX c #E4EAEC",
"gX c #F8EFE3",
"hX c #EEF1EF",
"jX c #FBF1E5",
"kX c #F1F2EE",
"lX c #E6ECF2",
"zX c #E4ECF5",
"xX c #E1EFF9",
"cX c #E3F0F6",
"vX c #EAF1F3",
"bX c #E4F2FB",
"nX c #EBF5FA",
"mX c #EFF8FB",
"MX c #F3F5F4",
"NX c #F6F8F7",
"BX c #FAFAF6",
"VX c #F1F4FA",
"CX c #F4FAFA",
"ZX c #FBFEFC",
/* pixels */
"3X3X3X3X3X3X3X3X3X3X3X3X3X3X3X3X3X3X3X3X3X3X3X3X3X3X3X3X3X3X3X3X3X3X3X3X3X3X3X3X3X3X3X3X3X3X3X3X3X3X3X3X3X3X3X3X3X3X3X3X3X3X3X3X",
"3X3X3X3X3X3X3X3X3X3X3X3X3X3X3X3X3X3X3X3X3X3X3X3X3X3X3X3X3X3X3X3X3X3X3X3X3X3X3X3X3X3X3X3X3X3X3X3X3X3X3X3X3X3X3X3X3X3X3X3X3X3X3X3X",
"3X3X3X3X3X3X3X0X3X3X3X3X3X3X3X3X0XtXyX0X3X3X3X3X3X3X3X3X3X3X3X3X3X3X3X3X3X3X3X3X3X3X3X3X3X3X3X3X3X3X3X3X3X3X3X3X3X3X3X3X0X3X3X3X",
"3X3X3X3X3X3X3X3X3X3X3X3X3X3X3X3XuXZXaXZX3X3X3X3X3X3X3X3X3X3X3X3X3X3X3X3X3X3X3X3X3X3X0X3X3X3X3X3X3X3X3X3X3X3X3X3X3X3X3X3X3X3X3X3X",
"3X3X3X3X3X3X3X3X3X3X3X3X3X3X3X3XpXpX$.m A.3X3X3X0X'.3X3X3X3X3X3X3X3X3X3X3X3X3X3X3X3X3X3X3X3X3X3X3X3X3X3X0X3X3X3X3X3X3X3X3X3X3X3X",
"3X3X3X3X3X3X3X3X3X3X3X3X3X3X3XiXpXN.N [.,.3X3X3X0X0X3X3X3X3X3X3X3X3X3X3X3X3X3X3X3X3X3X3X3X3X3X3X3X3X3X3X3X3X3X3X3X3X3X3X3X3X3X3X",
"3X3X3X3X3X3X3X3X3X3X3X3X3X3X3XiX,XN.$.M A 3X3X3X[.3X3X3X3X3X3X3X3X3X3X3X3X3X3X3X3X3X3X3X3X3X3X3X3X3X3X3X3X3X3X3X3X3X3X3X3X3X3X3X",
"3X3X3X3X3X3X3X3X3X3X3X3X3X[.0XiX/.L.=.M <.Z 3X3X4X3X3X3X3X3X3X3X3X3X3X3X3X3X3X3X3X3X3X3X3X3X3X3X3X3X3X3X3X3X3X3X3X3X3X3X3X3X3X3X",
"3X3X3X3X3X3X3X3X3X3X3X3X3X3X4XbXN.>XC.> { B Z.3X3XtXqX3X3X3X3X3X3X3X3X3X3X3X3X3X3X3X3X3X3X3X3X3X3X3X3X3X3X3X3X3X3X3X3X3X3X3X3X3X",
"3X3X3X3X3X3X3X3X3X3X3X3X3X3XqXbXN.>XK.* m ].<.3X3XtXiX3X3XqX3X3X3X3X3X3X3X3X3X3X3X3X3X3X3X3X3X3X3X3X3X3X3X3X3X3X3X3X3X3X3X3X3X3X",
"0X3X3X3X3X3X3X3X3X3X3X3X3X3XqXL.>X>XL.% m M V 3X3XtXZX0X3XxX3X3X3X3X3X3X3X3X3X3X3X3X3X3X3X3X3X3X3X3X3X3X3X3X3X3X3X3X3X3X3X3X3X3X",
"3X3X3X3X3X3X3X3X3X3X3X3X3X3X4XF.2X2XL.C J.M.xXpX!.^.uXwXuXbX3X3X3X3X3X3X3X3X3X3X3X3X3X3X3X3X3X3X3X3X3X3X3X3X3X3X3X3X3X3X3X[.0X3X",
"3X3X3X3X3X3X3X3X3X3X3X3X3X3XpXrX2Xr.-.-.wXN.mXZXCXaXB.pXpXpX0X[.3X3X3X3X3X3X3X3X3X3X3X3X3X3X3X3X3X3X3X3X3X3X3X3X3X3X3X3X3X3X3X3X",
"3X3X3X3X3X3X3X3X3X3X3X3X3X3XVXeX/.J.-.-.bXuX`.CXbXbXpX!.pXbXJ.M.3X3X3X3X3X3X3X3X3X3X3X3X3X3X3X3X3X3X3X3X3X3X3X3X3X3X3X3X3X3X3X3X",
"3X3X3X3X3X3X3X3X3X3X3X3X3X3XZXrX/.Q.-.-.ZXNX).aXbXCXaXmXt.ZXcX-.M.3X3X3X3X3X3X3X3X3X3X3X3X3X3X3X3X3X3X3X3X3X3X3X3X3X3X3X3X3X3X3X",
"3X3X3X3X3X3X3X3X3X3X3X3X3X3XZXrXL.r.-.-.VXZXJ.pXZXZXbXZX'.,XtXM.M.0X3X3X3X3X3X3X3X3X3X3X3X3X3X3X3X3X3X3X3X3X3X3X3X3X3X3X3X3X3X3X",
"3X3X3X3X3X3X3X3X3X3X3X3X3X4XCX>XK.VX-.-.rXZXbXL.nXaXZXpXpX^.iXt.t.3X3X3XbX3X3X3X3X3X3X3X3X3X3X3X3X3X3X3X3X3X3X3X3X3X3X3X3X3X3X3X",
"3X3X3X3X3X3X3X3X3X3X3X3X3XpXxXC.VXZX-.-.L.aXaX<X2XpXaXpXpXR.gX+X-.).3X3XZX3X3X3X3X3X3X3X3X3X3X3X3X3X3X3X3X3X3X3X3X3X3X3X3X3X3X3X",
"3X3X3X3X3X3X3X3X3X3X3X3X3XxXiXC.ZXZX.X-.w.g.d.g.g.1XiX4XF.jXa.%Xm.0X3XZXbX3X3X3X3X3X3X3X3X3X3X3X3X3X3X3X3X3X3X3X3X3X3X3X3X3X3X3X",
"3X3X3X3X3X3X3X3X3X3X3X3X3XxXiXC.ZXZXK.b.n.b b jXgXgXgXH.gX5.+XI.~ 0XtXF xX3X3X3X3X3X3X3X3X3X3X3X3X3X3X3X3X3X3X3X3X3X3X3X3X3X3X3X",
"3X3X3X3X3X3X3X3X3X3X3X3X3XzXiXC.yXCX0.v.G S @.0.%XjXjXgX8.y | Y J T.1X%.xX3X3X3X3X3X3X3X3X3X3X3X3X3X3X3X3X3X3X3X3X3X3X3X3X3X3X3X",
"3X3X3X3X3X3X3X3X3X3X3X3X3XnXiXC.6XBXv.  o   G C H -XjXq.=Xn 1.1.O U.d.vXxX3X3X3X3X3X3X3X3X3X3X3X3X3X3X3X3X3X3X3X3X3X3X3X3X3X3X3X",
"3X3X3X3X3X3X3X3X3X3X3X3X3XnX4XC.C.fX=X  yX).&.:.w.a.jXjXX @X| &.V W #.3.xX3X3X3X3X3X3X3X3X3X3X3X3X3X3X3X3X3X3X3X3X3X3X3X3X3X3X3X",
"3X3X3X3X3X3X3X0X3X3X3X3X3XnX/.N.^ @XgXO.).6XU wXzXW jXjXZX(.E.G >.^ ~ s pX3X3X3X3X3X3X3X3X3X3X3X3X3X3X3X3X3X3X3X3X3X3X3X3X3X3X3X",
"3X3X3X3X3X3X3X3X3X3X3X3X3XpX;XL.a.c.Y.o.O.b I  .OXjXjXjXjX#Xz.U.|.^ OXb cX3X3X3X3X3X3X3X3X3X3X3X3X3X3X3X3X3X3X3X3X3X3X3X3X3X3X3X",
"3X3X3X3X3X3X3X3X3X3X3X3X3XpXL.^.eX5.nXn.*.*.>.jXjX=XgXjXjXjXjX$Xz.W cXs cX3X3X3X3X3X3X3X3X3X3X3X3X3X3X3X3X3X3X3X3X3X3X3X3X3X3X3X",
"3X3X3X3X3X3X3X3X3X3X3X3X>XrXt.nXiXqXbXv.v.v.*XjXjXjX^ ! jXjX*Xz.i.wXnXs pX3X3X3X3X3X3X2X3X3X3X3X3X3X3X3X3X3X3X3X3X3X3X3X3X3X3X3X",
"3X3X3X3X3X3X3X3X3X3X3X3XZX/..X!.L.3XW.0.5.k.k.k.l.*X*X*Xz.q.q.F.6XBX0Xs cX3X3X).;.<.2.2.2.3X3X3X3X3X3X3X3X3X3X3X3X3X3X3X3X3X3X3X",
"3X3X3X3X3X3X3X3X3X3X3X3XZXK.ZXrX2X2XK.2XK.NX3Xe.>.Q Q Q [...X./.).fX3Xs xXO.O.O.O.` m m r A.3X3X3X3X3X3X3X3X3X3X3X3X3X3X3X3X3X3X",
"3X3X3X3X3X3X3X3X3X3X3X2XZXK.ZXeXW.4X;X>XK.k 8.l _ -.4.(.8X_ H.gX$X0XgXgXx.c u < & a $.$.7 n [.[.3X3X3X3X3X3X3X3X3X3X3X3X3X3X3X3X",
"3X3X3X3X3X0X[.3X3X3X3XrXpX.XCXeX<X<X1X4X<Xv.-X-Xn.k ) U.b._ x p.uX~ ! Q H r 2 0XmX[.0X0X0Xk.C 3X3X3X3X3X3X3X3X3X3X3X3X3X3X3X3X3X",
"3X3X3X3X3X3X3X3X3X3X3XzXpX.XuXF.vX:XoX:XzXv.jXn.n., ` i ..| ] 3 rXU.qXb i.w.:.0XZX0X'.0X0X0.gX3X3X3X3X3X3X3X3X3X3X3X3X3X3X3X3X3X",
"3X3X3X3X3X3X3X3X3X3X3XzX>XnXfXoXXXkXi.oXhXjX-Xc.q.< [ c v *.' $ hX{.wXR =.u.X @ + J.3X3X3X3XfX3X3X3X3X3X3X3X3X3X3X3X3X3X3X3X3X3X",
"3X3X3X3X3X3X3X3X3X3X3XnX-.nX<XZXW sX%.NX%XjX*X! 2 u [ c 1._.Y.@ qXNXx.ZX2.` % # > K 3X3X3X3X3X3X3X3X3X3X3X3X3X3X3X3X3X3X3X3X3X3X",
"3X3X3X3X3X3X3X3X3X3XCX`.ZXaX2XZXT <XQ.MXq.-X/ - # 1 B i 1 ;.' # 0XNX@XD.B c r   ; > Y.0X3X3X3X3X3X3X3X3X3X3X3X3X3X3X3X3X3X3X3X3X",
"3X3X3X3X3X3X3X3X3X3XZXbXpXqX2XZXD ,XE F jXv.6 - ; & 1 B 1 @.O.> R wX` c c c c . + # ; 0X3X3X3X3X3X3X3X3X3X3X3X3X3X3X3X3X3X3X3X3X",
"3X3X3X3X3X3X3X3X3X2XrX2XpX4XvX8.p.u.<.$X*Xk.g 8 9 ; < ' *.P.;.Z >.A c c c u &   + @ ; t.3X3X3X3X3X3X3X3X3X3X3X3X3X3X3X3X3X3X3X3X",
"3X3X3X3X3X3X3X3X3X3XtXL.pX4XCXR CXC O.v / pXP 9 9 & r ` v ;.v v { A c 1 < 1 o   X + > @ 3X3X3X3X3X3X3X3X3X3X3X3X3X3X3X3X3X3X3X3X",
"3X3X3X3X3X3X3X3X3X3XK.,XpX2XBXoXe.@.M i : R G w 8 < ' M c <.M c 2.v y 1 1 & E ).7.. X ; P 0X3X3X3X4X3X3X3X3X3X3X3X3X3X3X3X3X3X3X",
"3X3X3X3X3X3X3X3X3X3XV.pX5X<XMXwXv m 3 a e.I Y w f S +.N c c OX6Xv , < < 2 I CXwXuX3Xd * > | 3X'.).t L 3X3X3X3X3X3X3X3X3X3X3X3X3X",
"3X3X3X3X3X3X3X3X3XL.5XbX5XBXL ].1 =.C.xXpXR t &.C @.{ *.Z.Z.,.N v u < $ :XeX3XuXCXnXnX#X  ; g g p X G 0X3X3X3X3X3X3X3X3X3X3X3X3X",
"3X3X3X3X3X3X3X3X3X>XzX.Xu.s.kXkX%X XsX>X8.D <.# 1 B o.c c c c c v v 1 # 2 4 7.i.;X3X0XtXw.X ; > >   6.nX3X3X3X3X3X3X3X3X3X3X3X3X",
"3X3X3X3X3X3X3XqXZXH.>Xp.5 .XiXpX:Xu./.>XzX7Xp 0 < c m [ [ [ [ M c c 1 < e + e.7X'.tXZXF D o + e.Y.y.iX4X3X3X3X3X3X3X3X3X3X3X3X3X",
"3X3X3X3X3X3X3X0Xt.ZX<X XZX#XfXfX7X{.#XzX9.rXD 8 & r i v i ` Z ` ` B y < e ; z m.cXOX9XnXcXcXK d E.eXpX3X3X3X3X3X3X3X3X3X3X3X3X3X",
"3X3X3X3X3X3X3X3XN.ZX<X>X5 nXD pXuXt.nX>X9.ZXP q > $ < 1 r r r < 1 $ . + e + z h H.R 0X0XZX0X,X_.3XVX3X3X3X3X3X3X3X3X3X3X3X3X3X3X",
"3X3X3X3X3X3X3X).Q.VXQ.R.p.3.4.XXQ.Y VX>X9.CXzX- w - $ & & & & ; > X X + e + j ) B.e.#.i.cX;X&X0XxXqX3X3X3X3X3X3X3X3X3X3X3X3X3X3X",
"3X3X3X3X3X3X3XL.sXuXr.rXpX%.;XH XXlX4X>X9.ZXzX0 9 9 9 8 - 9 9 h k X @ + e @ k } d D XXI.MXb 5 F nX3X3X3X3X3X3X3X3X3X3X3X3X3X3X3X",
"3X3X3X3X3X3X3XB.CXuXt.4XZX9.6.pXy..XxX X9.NXVXfXs.- - = } w 8 h ( j . + ; @ k } B.0Xi.4.d.f.f.aX3X3X3X3X3X3X3X3X3X3X3X3X3X3X3X3X",
"3X3X3X3X3X3X^.L.CXiXG.zXiX7XfXy. .L.uXR.9.ZXZXW H.2XU.0 w ) h - ( l   @ ; @ j ) B.0XW @X0X%.}.0X3X3X3X3X0X3X3X'.0X0X3X3X3X3X3X3X",
"3X3X3X3X3X2XB.xXbXW.>XxXpX4.1X:Xb L.XXH.9.ZX1XH T XXVXY = ) 9 - l j . > ; 8 8 = B.A.fXE.G 8X&XCXCXCXCXNXNXMXNX0X3X[.3X4X3X3X3X3X",
"3X3X3X3X3X>XG.ZXpXL.>XpXZX6.uXrXs.1X Xw.Q.ZX#.S.5X<X1X%.@ P P = z m.o > + U.,XH eXyXp.E yXy.u.w.3XeXD.XX3.3.s.cX7XfXbXbX0XtX3X3X",
"3X3X3X3X3X/.^.NX4XB.uXxXr.e.iXQ.ZX4Xw.uXe.ZXp.H.{.XXg.d 4 ;X3X).2XVX$.> + j. .3XtX+X~.5 0X`.`.`.ZXeX'.'.$.5 6 T BXvX3X3X3X4XZXZX",
"3XyXxXxXzX XnXnXzX9.MX7.R %.%.s.7XE e.e.}.9Xa.G y.5  .;X3X{.xX Xp.F.6.> + VXVX+X+Xu.yX&XyXE.E.9Xf.W 9.9.U.yXZXyX0Xi.0XcXxXZXCX3X",
"ZXZXNXF 6.#.<XZXMXV.2XpXs.R.R.R +XsXZXZXZXs w.vXkXvX,X+XNX8X).'.s s 4 e + 6 6 6 5 I.'.0XZXCXwX0XZXZX0Xj.@Xh.!.MX0XE 0XyXZX#.CX3X",
"4X3Xg.<XnXxX.XL.w.sXrXoXrX.XrXzX<XL.zX4XqXF.s.w. .e.T.H.sXU.g.g.3X4Xa > + K ~.~.9.#. .E E  .~ #.e.0X0X0X0XbXdX7XtXCXtXh.0X .ZX3X",
"3X3X{.'.xXR ZX.XS.zX.XS.5 H dX,XG.;XK.nXzXS.yX>XlX.Xg.@X6.6.3.#.vX@X  p ; @ @ @ i.'.I.j.`.'.). Xx.<XyXNXZXmX3X3X0XnX0X9.3Xw.CX3X",
"3X[.tX0XaXG.tXyXZXnXmX7X}.#X_._.3XbXnX0XwXeXbXvX~.E._.,XnX0XR ).).G.. :X@ # + + u.3XnXvXdXdXdXtXtXeXyXmXuX3X3X3X0XbX3XyX3X3XZX3X",
"3X0XtX0X0XZX3XeXuX}..X%.mXnXsXvXZXnXvXsXsXtXtXtXtXtX Xp.4.4.~._.}.}.}.}.}.}.x.nXZXMXsX,X0X0X_.,XtXbXh.`.3X3X3X3X0XwXqXrX3X3XCX3X",
"3X3X0X0X0XZX3XqXeXqXMXI.j.E.d._.ZXqX3X,Xd.h.x.wXwXf.F hXsXMXMXMXCXqXi.F F wXW.ZXtXXXMXj.0Xj.,XcXW 3XeX3X3X3X3X3X0X0X0X3X3X3XZX3X",
"3X3X0X0X0XyX0XqXeX0X3XpXaXXX4.4.CXyXxXyXI 3XfXj.'.0XtXaXcXtXcXI.7.G y.3X3XyXcX+X+Xj.j.XXT.pXcXqX}.3XtX3X3X3X3X3X0X'.[.3X3X3X3X3X",
"3X3X3X3X3X3X3XeXeX3X3XpX0X[.,X3XnX3X3X3XZX5 5 '.dXZX0X0X3X3X3X3XZXqX8.g.ZX0X3X3X0XZXZXcXZX!.ZX3XH.0X0X'.3X3X3X3X3X3X3X3X3X3X3X3X",
"3X3X3X3X3X3X3X0XqX3X3XeX0X0X3X3X{.qX3X3X3XzXi..XwX0X[.0X3X3X3X3X0XCXf.yX`.0X3X3X0X.XT.tX3XeX3X3XOX0X0X0X3X3X3X3X3X3X3X3X3X3X3X3X",
"3X3X3X3X3X3X3X3X3X3X3X3X3X3X3X3X{.3X3X3X3X3X#.3X3X3X3X3X3X3X3X3X3X3XnX3X3X3X3X3X3XeXeX3X3XR.3X3XnX3X[.3X3X3X3X3X3X3X3X3X3X3X3X3X",
"3X3X3X3X3X3X3X3X3X3X3X3X3X3X3X3XnX3X3X3X3X3XuX3X3X3X3X3X3X3X3X3X3X3XbX3X3X3X3X3X3X3XCX3X3X,X3X3XeX3X3X3X3X3X3X3X3X3X3X3X3X3X3X3X"
};
