/* XPM */
static char *result[] = {
/* columns rows colors chars-per-pixel */
"64 64 245 2 ",
"   c #00020A",
".  c #000212",
"X  c #030719",
"o  c #09141B",
"O  c #221E19",
"+  c #000224",
"@  c #000529",
"#  c #000A2B",
"$  c #001423",
"%  c #041929",
"&  c #001C2D",
"*  c #15192A",
"=  c #010233",
"-  c #02043A",
";  c #04083A",
":  c #001233",
">  c #001936",
",  c #021739",
"<  c #18282C",
"1  c #032434",
"2  c #00233C",
"3  c #002B3E",
"4  c #162836",
"5  c #2C2D35",
"6  c #323638",
"7  c #373B3C",
"8  c #514337",
"9  c #040B43",
"0  c #060D4D",
"q  c #0E1645",
"w  c #050E55",
"e  c #07125B",
"r  c #002240",
"t  c #002941",
"y  c #172742",
"u  c #023749",
"i  c #00354C",
"p  c #013C53",
"a  c #262B49",
"s  c #263946",
"d  c #3A3F43",
"f  c #343949",
"g  c #223A58",
"h  c #383C59",
"j  c #051365",
"k  c #141D63",
"l  c #081871",
"z  c #14276F",
"x  c #303178",
"c  c #1D434E",
"v  c #00475D",
"b  c #02475C",
"n  c #3A4346",
"m  c #3D444A",
"M  c #2B4F59",
"N  c #014C62",
"B  c #065469",
"V  c #17576D",
"C  c #055A73",
"Z  c #085F72",
"A  c #345165",
"S  c #05637C",
"D  c #2A677A",
"F  c #396D76",
"G  c #464B4D",
"H  c #4A4F50",
"J  c #4A535B",
"K  c #56595A",
"L  c #4E556C",
"P  c #484C78",
"I  c #576269",
"U  c #5E6974",
"Y  c #487079",
"T  c #626668",
"R  c #666D73",
"E  c #69747C",
"W  c #727678",
"Q  c #916949",
"!  c #876D53",
"~  c #9B7A5E",
"^  c #9C8878",
"/  c #A78667",
"(  c #AF9275",
")  c #1A2680",
"_  c #2C3285",
"`  c #2A579C",
"'  c #086A84",
"]  c #097691",
"[  c #097B97",
"{  c #117590",
"}  c #317688",
"|  c #474598",
" . c #527187",
".. c #6E7B8C",
"X. c #566DAA",
"o. c #607DC5",
"O. c #158293",
"+. c #0A83A1",
"@. c #3893AB",
"#. c #538896",
"$. c #7A8287",
"%. c #7C8895",
"&. c #748B99",
"*. c #5596A8",
"=. c #7A8DA6",
"-. c #758AAE",
";. c #6E96A9",
":. c #47A3B7",
">. c #5AA1BA",
",. c #73A6B8",
"<. c #6CB1C7",
"1. c #74B8D1",
"2. c #82878A",
"3. c #8A8D8D",
"4. c #938E8B",
"5. c #838C96",
"6. c #88939C",
"7. c #949696",
"8. c #979B9B",
"9. c #AC9A8C",
"0. c #B6A899",
"q. c #8B97A9",
"w. c #959CA8",
"e. c #8699B7",
"r. c #8B9DBB",
"t. c #9AA4AA",
"y. c #91A7B5",
"u. c #97A8B9",
"i. c #A4A9AA",
"p. c #B3AFAB",
"a. c #A5ADB8",
"s. c #AFB4B5",
"d. c #A7B6BC",
"f. c #B1B3B5",
"g. c #B6B8BB",
"h. c #B1BABC",
"j. c #C6A682",
"k. c #CAB194",
"l. c #CBB6A1",
"z. c #BAC0BE",
"x. c #DEC39C",
"c. c #CDC2B3",
"v. c #E4CDAB",
"b. c #EDD4AE",
"n. c #F0D7AF",
"m. c #E8D8B7",
"M. c #F1DAB6",
"N. c #8596C5",
"B. c #8CA3C1",
"V. c #92A3C1",
"C. c #94A8C5",
"Z. c #9BACC6",
"A. c #9CADCA",
"S. c #88BACD",
"D. c #97B7C9",
"F. c #A0ABC1",
"G. c #A2B4C3",
"H. c #ACB9C7",
"J. c #A4B2CA",
"K. c #B6BEC6",
"L. c #A6BAD3",
"P. c #A9B9D5",
"I. c #ABBCD5",
"U. c #98C6D2",
"Y. c #B8C4C8",
"T. c #BBC5CD",
"R. c #ABC5D2",
"E. c #B4C5D2",
"W. c #BCC6D4",
"Q. c #BBCAD5",
"!. c #B2C3DB",
"~. c #B8C7DA",
"^. c #BCCADB",
"/. c #BDD1DD",
"(. c #BBCCE5",
"). c #A1DCE1",
"_. c #B6D3E6",
"`. c #BDD3E2",
"'. c #BBD4E8",
"]. c #BED9EB",
"[. c #98E0F2",
"{. c #B5E8F8",
"}. c #C6C9CA",
"|. c #C7CBCB",
" X c #D7D4C9",
".X c #C6CCD2",
"XX c #C4CEDB",
"oX c #CCD2D3",
"OX c #C8D7DA",
"+X c #CCD5DC",
"@X c #D4D7D5",
"#X c #D4DBDB",
"$X c #DADCDD",
"%X c #E5D8C9",
"&X c #E6DDD1",
"*X c #D6E0DA",
"=X c #F5E4CA",
"-X c #EAE3D4",
";X c #F5EADB",
":X c #C3D4E5",
">X c #CAD7E6",
",X c #C4D4ED",
"<X c #C3D9EC",
"1X c #CBDAED",
"2X c #D6DDE2",
"3X c #C7D7F0",
"4X c #C4DFF4",
"5X c #CBDDF3",
"6X c #D2DFF2",
"7X c #CEE1E7",
"8X c #DDE1E3",
"9X c #D8E6EC",
"0X c #DDE5ED",
"qX c #C7E0F4",
"wX c #CCE3F5",
"eX c #CDE6F9",
"rX c #D3E6F5",
"tX c #DBE5F3",
"yX c #D6E9F7",
"uX c #DAEAF5",
"iX c #D3E6F9",
"pX c #D5EAFC",
"aX c #DBEDFD",
"sX c #DEF0FE",
"dX c #E2E5E4",
"fX c #E7EBEA",
"gX c #E4EAEC",
"hX c #F2EEE7",
"jX c #F9EFE2",
"kX c #EEF1EF",
"lX c #FBF1E5",
"zX c #F1F2EE",
"xX c #E6ECF2",
"cX c #E4ECF5",
"vX c #E1EFF9",
"bX c #E3F0F6",
"nX c #EAF1F3",
"mX c #E4F2FB",
"MX c #EBF5FA",
"NX c #EFF8FB",
"BX c #F3F5F4",
"VX c #F5F7F7",
"CX c #F6F8F7",
"ZX c #F4FAFA",
"AX c #FBFEFC",
/* pixels */
"4X4X4X4X4X4X4X4X4X4X4X4X4X4X4X4X4X4X4X4X4X4X4X4X4X4X4X4X4X4X4X4X4X4X4X4X4X4X4X4X4X4X4X4X4X4X4X4X4X4X4X4X4X4X4X4X4X4X4X4X4X4X4X4X",
"4X4X4X4X4X4X4X4X4X4X4X4X4X4X4X4X4X4X4X4X4X4X4X4X4X4X4X4X4X4X4X4X4X4X4X4X4X4X4X4X4X4X4X4X4X4X4X4X4X4X4X4X4X4X4X4X4X4X4X4X4X4X4X4X",
"4X4X4X4X4X4X4XqX4X4X4X4X4X4X4X4XqXyXuXqX4X4X4X4X4X4X4X4X4X4X4X4X4X4X4X4XqX4X4X4X4X4X4X4X4X4X4X4X4X4X4X4X4X4X4X4X4X4X4X4X4X4X4X4X",
"4X4X4X4X4X4X4X4X4X4X4X4X4X4X4X4XeXAXsXAX4X4X4X4X4X4X4X4X4X4X4X4X4X4X4X4X4X4X4X4X4X4X4X4X4X4X4X4X4X4X4X4X4X4X4X4X4X4X4X4X4X4X4X4X",
"4X4X4X4X4X4X4X4X4X4X4X4X4X4X4X4XaXaX&.N S.4X4X4X4X4X4X4X4X4X4X4X4X4X4X4X4X4X4X4X4X4X4X4X4X4X4X4X4X4X4X4X4X4X4X4X4X4X4X4X4X4X4X4X",
"4X4X4X4X4X4X4X4X4X4X4X4X4X4X4XpXaXr.V {.;.4X4X4X4X4X4X4X4X4X4X4X4X4X4X4X4X4X4X4X4X4X4X4X4X4X4X4X4X4X4X4X4X4X4X4X4X4X4X4X4X4X4X4X",
"4X4X4X4X4X4X4X4X4X4X4X4X{.qX4XeX<XV.=.B } ].4X4X4X4X4X4X4X4X4X4X4X4X4X4X4X4X4X4X4X4X4X4X4X4X4X4X4X4X4X4X4X4X4X4X4X4X4X4X4X4X4X4X",
"4X4X4X4X4X4X4X4X4X4X4X4X4XqXqXpX(.P.=.N <.Z 4X4XqXqX4X4X4X4X4X4X4X4X4X4X4X4X4X4X4X4X4X4X4X4X4X4X4X4X4X4X4X4X4X4X4X4X4X4X4X4X4X4X",
"4X4X4X4X4X4X4X4X4X4X4X4X4X4XwXmXV.,XA., } C S.4X4XyXwX4X4X4X4X4X4X4X4X4X4X4X4X4X4X4X4X4X4X4X4X4X4X4X4X4X4X4X4X4X4X4X4X4X4X4X4X4X",
"4X4X4X4X4X4X4X4X4X4X4X4X4X4XwXmXV.,XP.* N [.,.4X4XyXuX4X4XrX4X4X4X4X4X4X4X4X4X4X4X4X4X4X4X4X4X4X4X4X4X4X4X4X4X4X4X4X4X4X4X4X4X4X",
"4X4X4X4X4X4X4X4X4X4X4X4X4X4XwXI.,X,XP.% N B Z 4X4XyXAXqX4XvX4X4X4X4X4X4X4X4X4X4X4X4X4X4X4X4X4X4X4X4X4X4X4X4X4X4X4X4X4X4X4X4X4X4X",
"4X4X4X4X4X4X4X4X4X4X4X4X4X4XrXJ.3X3XP.A L.B.vXaX(.(.iXeXeXmX4X4X4X4X4X4X4X4X4X4X4X4X4X4X4X4X4X4X4X4X4X4X4X4X4X4X4X4X4X4X4X4X4X4X",
"4X4X4X4X4X4X4X4X4X4X4X4X4X4XaXtX3Xe.-.-.wXV.NXZXNXsXC.pXaXaXqX{.4X4X4X4X4X4X4X4X4X4X4X4X4X4XqX{.4X4X4XqX4X4X4X4X4X4X4X4X4X4X4X4X",
"4X4X4X4X4X4X4X4X4X4X4X4X4X4XNX6X:XJ.-.-.mXpX'.ZXmXmXsX^.aXmXL.B.4X4X4X4X4X4X4X4X4X4X4X4X4X4XqX].4X4X4X4X4X4X4X4X4X4X4X4X4X4X4X4X",
"4X4X4X4X4X4X4X4X4X4X4X4X4X4XAXtX(.!.-.-.AXAX_.mXmXZXsXNXr.AXbX-.B.4X4X4X4X4X4X4X4X4X4X4X4X4X4XqX4X4X4X4X4X4X4X4X4X4X4X4X4X4X4X4X",
"4X4X4X4X4X4X4X4X4X4X4X4X4X4XAXtXI.e.-.-.NXAXI.sXZXAXmXAX].<XpXr.B.qX4X4X4X4X4X4X4X4X4X4X4X4X4X4X4X4X4X4X4X4X4X4X4X4X4X4X4X4X4X4X",
"4X4X4X4X4X4X4X4X4X4X4X4X4X4XZX,XJ.ZX-.-.tXAXmXL.mXmXZXsXpX(.pXB.B.3X4X4XmX4X4X4X4X4X4X4X4X4X4X4X4X4X4X4X4X4X4X4X4X4X4X4X4X4X4X4X",
"4X4X4X4X4X4X4X4X4X4X4X4X4XvXvXA.ZXAX-.-.P.mXaXwX<XsXsXaXsXW.hX X-._.4X4XAX4X4X4X4X4X4X4X4X4X4X4X4X4X4X4X4X4X4X4X4X4X4X4X4X4X4X4X",
"4X4X4X4X4X4X4X4X4X4X4X4X4XvXpXA.AXAXXX-.q.f.f.f.s.2XpX4XH.lXp.&Xr.4X4XAXmX4X4X4X4X4X4X4X4X4X4X4X4X4X4X4X4X4X4X4X4X4X4X4X4X4X4X4X",
"4X4X4X4X4X4X4X4X4X4X4X4X4XvXpXA.AXAXP.v.b.m G jXjXjXjXY.lX4.@XY.^ 4XyXH vX4X4X4X4X4X4X4X4X4X4X4X4X4X4X4X4X4XqX4X4X4X4X4X4X4X4X4X",
"4X4X4X4X4X4X4X4X4X4X4X4X4XcXpXA.uXZXc.n.F O.#.7.-XlXlXlX7.3 O.Z 9.E.2X&.vX4X4X4X4X4X4X4X4X4X4X4X4X4X4X4X4X4X4X4X4X4X4X4X4X4X4X4X",
"4X4X4X4X4X4X4X4X4X4X4X4X4XMXpXA.7XCXv.x.i F B A K ;XlX0.;Xu } J n R.s.zXvX4X4X4X4X4X4X4X4X4X4X4X4X4X4X4X4X4X4X4X4X4X4X4X4X4X4X4X",
"4X4X4X4X4X4X4X4X4X4X4X4X4XMX5XA.D.xXz.O 6 < M u Y p.hXjX3 c A 5 c W $.2.mX4X4X4X4X4X4X4X4X4X4X4X4X4X4X4X4X4X4X4X4X4X4X4X4X4X4X4X",
"4X4X4X4X4X4X4X4X4X4X4X4X4XMX(.V./ @X;X< _.d.s G Y jXlXjX X#.< { :.~ ^ d aX4X4X4X4X4X4X4X4X4X4X4X4X4X4X4X4X4X4X4X4X4X4XqX4X4X4X4X",
"4X4X4X4X4X4X4X4X4X4X4X4X4XaX:XI.p.x.R.+.+.S S { H.;XlXlXjX$XOXOXoX/ OXn bXqX{.4X4X4X4X4X4X4X4X4X4X4X4X4X4X4X4X4X4X4X4X4X4X4X4X4X",
"4X4X4X4XqX4X4X4X4X4X4X4X4XaXI.(.tX4.mXm.*.*.:.jXlX-X;XlXlXjXjX%Xk.W nXd mXqX4X4X4X4X4X4X4X4X4X4XqX4X4X4X4X4X4X4X4X4X4X4X4X4X4X4X",
"4X4X4X4X4X4X4X4X4X4X4X4X,XtXr.MXpXwXmXM.b.b.;XlXlXlX/ ~ jXjX%Xc.a.wXMXd cX4X4X4X].4X4X4X4X4X4X4X{.4X4X4X4X4X4X4X4X4X4X4X4X4X4X4X",
"4X4X4X4X4X4X4X4X4X4X4X4XAX(.XX^.I.<X(.9.4.j.j.j.k.=X=X=Xl.0.l.H.wXCX4Xd vX4X4X_.,.,.1.1.1.].4X4X4X4X4X4X4X4X4X4X4X4X4X4X4X4X4X4X",
"4X4X4X4X4X4X4X4X4X4X4X4XAXP.AXtX3X3XP.3XJ.AX5Xw.:.! Q Q qXX.o.`._.gXqXn vX+.+.+.+.] v v 3 U.4X3X4X4X4X4X4X4X4X4X4X4X4X4X4X4X4X4X",
"4X4X4X4X4X4X4X4X4X4X4X5XAXL.AXrX!.5X'.,XP.l 7.z ` -.3.).tX` h.jX XqXjXjXz.v u 2 & s &...8 M {.{.4X4X4X4X4X4X4X4X4X4X4X4X4X4X4X4X",
"4X4X4X4X4X4X4X4X4X4X4XaXaXXXZXrX3X1X2X5X1Xn.;X;XM.l _ T.m.` g i.yX^ ~ Q K 3 4 qXMXqX4X4X4Xj.A 3X4X4X4X4X4X4X4X4X4X4X4X4X4XqX4X4X",
"4X4X4X4X4X4X4X4X4X4X4XtXaXXXiXH.nX:X+X2XvXn.jXM.M.1 ' p X. .] < 0XQ.wXn a.=.-.qXAX4X4XqXqX9.hX4X4X4X4X4X4X4X4X4X4X4X4X4X4X4X4X4X",
"4X4X4X4X4X4X4X4X4X4X4XcX<XMXgX2XoXkXu.+XkXjX;Xx.0., [ b b *.] $ kX}.wXR =.y.X # + L.4X4X4X4XfX4X4X4X4X4X4X4X4X4X4X4X4X4X4X4X4X4X",
"4X4X4X4X4X4X4X4X4X4X4XMXe.mX,XAXW dX5.VX-XjX=X~ 4 i [ N <.].R.@ wXZXz.ZX1.' % # , A 4X4X4X4X4X4X4X4X4X4X4X4X4X4X4X4X4X4X4X4X4X4X",
"4X4X4X4X4X4X4X4X4X4XZX(.AXpX3XAXT ,X~.VX0.;X( - # t Z p 3 *.] # qXCX#Xd.C v t   : , !.4X4X4X4X4X4X4X4X4X4X4X4X4X4X4X4X4XqXqX4X4X",
"4X4X4X4X4X4X4X4X4X4XAXmXaX5X3XAXG >XE H jXb.7 - , % r Z 2 #.+., R wX{ v v v v   + # : qX4X4X4X4X4X4X4X4X4X4X4X4X4X4X4X4X{.].qX4X",
"4X4X4X4X4X4X4X4X4X4XuX3XaX5XkX7.a.y.,.=X=Xj.h 9 0 : 3 ] *.U.;.S :.D v v v i &   @ @ : r.4X4X{.qX4X4XqX4X4X4X4X4X4X4X4X4X4X4X4X4X",
"4X4X4X4X4X4X4X4X4X3XaXP.aX5XVXR ZXM [ N ( aXP 0 0 % t ' v ;.b b } D v t 3 3 o X X + , + 4X4X4XqX4X4X4X4X4X4X4X4X4X4X4X4X4X4X4X4X",
"4X4X4X4X4X4X4X4X4X4XL.<XaX3XCX:X8.#.C i > E J w 9 3 ] B v ,.B v 1.b u 3 3 & E _.6.. + : P qXqX].4X3X4X4X4X4X4X4X4X4X4X4X4X4X4X4X",
"4X4X4X4X4X4X4X4X4X4XZ.aX6X1XCXwXb b y f w.I U e g D @.V v v OX7Xb 1 1 2 4 T CXwXrX4Xm * ,  .qX].'.a L ].4X4X4X4X4X4X4X4X4X4X4X4X",
"4X4X4X4X4X4X4X4X3XI.wXmX6XCXI [.u &.Z.vXaXT a *.A #.} *.S.S.>.V p p 3 $ :XrX5XeXZXMXNX$X  : h h a + J 4X4X4X4X4X4X4X4X4X4X4X4X4X",
"4X4X4X4X4X4X4X4X3X,XcX>Xt.a.zXhX&X^.0X,X7.G ,.# 3 C +.N v v v v v v 3 @ 4 5 6.u.:X4XqXyXq.. : , ,   5.MX4X4X4X4X4X4X4X4X4X4X4X4X",
"4X4X4X4X4X4X4XwXZXK.1Xt.6 ^.aXaX+Xu.(.,XtXdXa 9 2 v N [ [ [ [ C v v 3 2 2 + w.dX].yXZXH G o + q.!.t.aX4X4X4X4X4X4X4X4X4X4X4X4X4X",
"4X4X4X4X4X4X4X4XV.AX1XXXAX2XgXgX8X}.$XcX8.cXh q > t i b i ' ' S ' C u 2 r , x N.mX+XtXNXmXmXJ f Q.yXvX4X4X4X4X4X4X4X4X4X4X4X4X4X",
"4X4X4X4X4X4X4X4XV.AX1X3X6 MXH aX6Xr.NX,X8.AXP 0 : $ 3 t t t t t 3 $ . + r + x j K.R {.4XAX4X<X`.qXCXqXqX4X4X4X4X4X4X4X4X4X4X4X4X",
"4X4X4X4X4X4X4X'.~.NXW.K.i.2.3.|.W.U NX,X8.CXnX- e ; $ & & & & & , X X + r + k _ C.8.$.y.vX>X$X4XuXwX{.qX4X4X4X4X4X4X4X4X4X4X4X4X",
"4X4X4X4X4X4X4XI.gXiXe.tXaX%.:XI +XxX5X3X8.AXnXq 0 0 0 9 - 0 0 j l X + + , @ l | f m oXc.BXG 6 H nX4X4X4X4X4X4X4X4X4X4X4X4X4X4X4X",
"4X4X4X4X4X4X4XV.ZXwXr.5XAX8.3.aXt.XXvX~.8.AXcXgXa.- - - | w 9 j ) k . @ : @ l | C.qXD.3.f.G.d.cX4X4X4X4X4X4X4X4X4X4X4X4X4X4X4X4X",
"4X4X4X4X4X4X(.P.ZXtXJ.xXpX8XgXt...I.rXW.8.AXAXW g.3XY.q e _ j - ) z   + : + j _ C.qXW #XqX2.|.qX4X4X4X4X<XqXqXqX{.4X4X4X4X4XqX4X",
"4X4X4X4X4X4XA.aXmX!.,XaXaX3.2X>Xd I.oXK.8.AX2XI T oXMXU + x 0 - z k . , : 0 ; = C.G.dXQ.J 9X*XZXVXZXZXZXCXCXZXqX4X4X4XqX4X4X4X4X",
"4X4X4X4X4X(.A.AXaXI.(.pXAX5.iXtXa.2XW.q.W.AX2.F.6X1X$X%.@ | P = x N.X 2 + T.4XK eXuXi.E uXt.y.q.4XrXH.|.2.$.a.nX$XgXmXmX4XuX4X4X",
"4X4X4X4X4X:X(.AX5XZ.pXMXe.q.aXW.AXiXq.iXw.AXi.H.}.@Xf.f 5 :X4X_.3XVX%.2 + g...3XyX#X_.6 qX].'.'.AXiX].<X&.6 7 T CXnX5X4X4X4XAXAX",
"4XuXcXmXcX^.nXmXcX8.BX7.R %.%.a.8XW w.w.|.0Xs.H t.6 ..:XqX}.mX.Xi.H.6., + NXNX@X#Xu.bX#XmXQ.Q.9Xd.W 8.8.Y.bXAXuXqXy.qXbXvXAXZXqX",
"AXAXCXH 5.2.1XAXBXZ.,XaXa.W.W.R @X2XAXAXAX7 q.kXBXnX4X@XCX9X'.'.f d 5 , + d d 7 6 h.{.qXAXAXqXqXAXAXqXh.$Xf.^.NXqXE qXuXAX$.AX4X",
"4X4Xf.1XmXnXXXI.q.gXtXXXtX:XtXcX>X~.cX5XwXH.a.q...w.I.g.dXT.f.f.qXqXf > + J `.^.7.2.E E E E $.$.w.qXqXqX4XmXgX8XuXZXuXg.4X$.ZX4X",
"4X4X}.<XvXR AXXXA.gXXXF.6 K fX<XJ.,XL.MXcXF.aX<XxXXXf.$X5.5.2.$.nX$X  a : @ + + u.4XY.h.:X:X<X.Xz.1XuXZXAXNX4X4XqXMXqXw.4X=.AX4X",
"{.qXpXqXmXG.iXuXAXNXMXdX|.$X`.`.qXmXNXqXqXrXmXnX/.Q.`.].MX4XR _._.G.  <X# # + + u.qXmXnXfXfXfXrXpXrXuXNXeX4X4X4XqXnX4XvX4X4XAX4X",
"4XqXyXqXqXAX4XiXrX}./.5.MXMXdXnXAXMXnXdXdXyXyXyXyXrXoXi.3.3.`./.|.|.|.|.|.|.z.MXAXCXgX<XqXqX`.<XrXnXh.'.4X4XqX4XqXwX4XrX4X4XAX4X",
"4X4XqXqXqXZX4XwXiXwXBXY.h.Q.f.`.AXwX<X<Xf.z.g.qXwXG.H kX8XBXBXBXNXwXu.H H wX!.AXyX|.BXh.qXh.].bXW qXrX4X4X4X4X4XqX4X4X4X4X4XZX3X",
"4X4X].qXqXmX4XiXiX4X4XuXmX.X3.3.NXuXsXuXI qXgXz.qXqXyXmXbXyXbXT.6.J t.qXqXsXnXoX@Xh.h.oXT.sXbXwX|.qXyXwX4X4X4X4XqX{.4X4X4X4X4XqX",
"4X4X4X4X4X4X4XwXrX4X4XuXqX{.4X4XMXqXqX4XAX6 6 '.fXAXwXqX4X4X4X4XAXrX3.s.AXqXqX4XqXZXAXmXAXQ.AX4XH.{.4X4X4X4X4X4X4X4X4X4X4X4X4X4X",
"4X4X4X4X4X4X4XwXwX4X4XrXqXqX4X4X}.rX4X4XqXvXu.XXqXqX].qX4X4X4X4XqXZXd.sX_.qX4X4XqX.XE.rXqXiX3X4X#XqX4X4X4X4X4X4X4X4X4X4X4X4X4X4X",
"4X4X4X4X4X4X4X4X4X4X4X4X4X4X4X4XT.qX4X4XqX4X$.4X4X4XqXqX4X4X4X4XqXqXmXqXqX4X4X4X4XiXwX4XqXE.4X4XNX4X4X4X4X4X4X4X4X4X4X4X4X4X4X4X",
"4X4X4X4X4X4X4X4X4X4X4X4X4X4X4X4XMX4X4X4X4X4XrX4X4X4X4X{.4X4X4X4X4X4XmXqX].4X4X4X4X4XAX4X4X<X4X4XrX4X4X4X4X4X4X4X4X4X4X4X4X4X4X4X"
};
