/* XPM */
static char *result[] = {
/* columns rows colors chars-per-pixel */
"64 64 243 2 ",
"   c #02040B",
".  c #000210",
"X  c #01061B",
"o  c #06101A",
"O  c #000324",
"+  c #02062B",
"@  c #000B2C",
"#  c #001421",
"$  c #03172A",
"%  c #001B2B",
"&  c #111428",
"*  c #020835",
"=  c #02043A",
"-  c #001433",
";  c #041E37",
":  c #001C3A",
">  c #181837",
",  c #00233B",
"<  c #002738",
"1  c #0C2E3D",
"2  c #312B31",
"3  c #293339",
"4  c #35393B",
"5  c #3A403F",
"6  c #544739",
"7  c #030A44",
"8  c #050C4C",
"9  c #03144F",
"0  c #050E55",
"q  c #002240",
"w  c #002A41",
"e  c #00354B",
"r  c #1B3A48",
"t  c #003A51",
"y  c #2A2D4D",
"u  c #3A3F43",
"i  c #041264",
"p  c #1B1F66",
"a  c #051670",
"s  c #0F2D6E",
"d  c #162579",
"f  c #333176",
"g  c #00475D",
"h  c #04495E",
"j  c #17475E",
"k  c #3E4244",
"l  c #284E59",
"z  c #014D62",
"x  c #0E4867",
"c  c #045469",
"v  c #13576D",
"b  c #045A73",
"n  c #38536E",
"m  c #05637B",
"M  c #1D657C",
"N  c #28677A",
"B  c #424749",
"V  c #444B52",
"C  c #4B545C",
"Z  c #57595A",
"A  c #6D604F",
"S  c #444A67",
"D  c #4D5567",
"F  c #575E63",
"G  c #4A5575",
"H  c #565673",
"J  c #5B6467",
"K  c #5A6577",
"L  c #65696C",
"P  c #626C75",
"I  c #6B7379",
"U  c #747879",
"Y  c #8F7057",
"T  c #937D67",
"R  c #69817C",
"E  c #8B836E",
"W  c #A28166",
"Q  c #AC8F73",
"!  c #C0A07F",
"~  c #1C2882",
"^  c #2D3785",
"/  c #076983",
"(  c #157489",
")  c #097894",
"_  c #0A7A96",
"`  c #2C6D82",
"'  c #347487",
"]  c #484592",
"[  c #497999",
"{  c #6A7886",
"}  c #67758D",
"|  c #757D83",
" . c #787D95",
".. c #4852A7",
"X. c #2E889E",
"o. c #3A8796",
"O. c #0983A2",
"+. c #3298B4",
"@. c #468595",
"#. c #5B899C",
"$. c #798289",
"%. c #798794",
"&. c #5492A7",
"*. c #6B88A6",
"=. c #7A8BA4",
"-. c #758AAE",
";. c #6497AA",
":. c #7296AC",
">. c #7E98B4",
",. c #4BA4BD",
"<. c #71A6B5",
"1. c #74B0C9",
"2. c #72C6E6",
"3. c #878A8B",
"4. c #99958F",
"5. c #848996",
"6. c #899398",
"7. c #949799",
"8. c #969A9B",
"9. c #A59887",
"0. c #A79C93",
"q. c #BEA48E",
"w. c #B3A798",
"e. c #8E8EAC",
"r. c #8896A7",
"t. c #969EA5",
"y. c #8597B6",
"u. c #8B9CB9",
"i. c #8CA0AD",
"p. c #99A3AA",
"a. c #8DA1B9",
"s. c #99A9B7",
"d. c #93A3BD",
"f. c #9BB6BE",
"g. c #A6AAAB",
"h. c #B3AFA8",
"j. c #A4ACB6",
"k. c #ADB4B8",
"l. c #B3B6B8",
"z. c #B4BABC",
"x. c #C6A886",
"c. c #C5AC93",
"v. c #B4C3AF",
"b. c #BDC0BE",
"n. c #D2C3B2",
"m. c #EAD1A9",
"M. c #EAD2AB",
"N. c #ECD6B7",
"B. c #F0D9B3",
"V. c #91A2C1",
"C. c #94A8C5",
"Z. c #99AAC7",
"A. c #9CADCA",
"S. c #8DB5CC",
"D. c #9CB6C5",
"F. c #A3B4CC",
"G. c #A9B6CB",
"H. c #A6B8C9",
"J. c #B3BDC2",
"K. c #B9BFC7",
"L. c #A4B5D2",
"P. c #ABBCD5",
"I. c #A9BCD6",
"U. c #ADBDE1",
"Y. c #8DC7D2",
"T. c #BCC2C3",
"R. c #B5C2CB",
"E. c #B9C4CC",
"W. c #B5CBCC",
"Q. c #ACC1D3",
"!. c #ADC2DA",
"~. c #B7C4D7",
"^. c #BBCAD5",
"/. c #B4C9DF",
"(. c #BCCBDB",
"). c #BDD0DD",
"_. c #A1CBE6",
"`. c #B6CAE2",
"'. c #BCCDE5",
"]. c #ACD4E7",
"[. c #BCD3E4",
"{. c #BBD4E8",
"}. c #BAD6EA",
"|. c #8FE6FE",
" X c #ABE8FC",
".X c #C6C8C7",
"XX c #C5CBCB",
"oX c #CFCDC9",
"OX c #C5CDD5",
"+X c #CAD5DA",
"@X c #D7DADA",
"#X c #E2D4C4",
"$X c #DDE1DF",
"%X c #F4E1C6",
"&X c #ECE5D8",
"*X c #F7EBD8",
"=X c #C1CEE5",
"-X c #C4D3E2",
";X c #C9D8E7",
":X c #C4D4ED",
">X c #C3DAED",
",X c #CBDBED",
"<X c #D4DDE4",
"1X c #D3DEEB",
"2X c #C5D6F0",
"3X c #C4DFF4",
"4X c #CBDDF2",
"5X c #D0DCF1",
"6X c #C9E0EA",
"7X c #D1E0E6",
"8X c #DAE3E6",
"9X c #D3E3EE",
"0X c #DDE4EB",
"qX c #C7E0F4",
"wX c #CBE6F4",
"eX c #CDE4F5",
"rX c #D2E5F5",
"tX c #D8E5F2",
"yX c #D6E9F7",
"uX c #DAEAF5",
"iX c #D2E6F9",
"pX c #D5EAFC",
"aX c #DBEEFD",
"sX c #DDF0FE",
"dX c #E3E5E4",
"fX c #E3EAED",
"gX c #E5EAEC",
"hX c #F3ECE4",
"jX c #E9F0ED",
"kX c #FBF1E5",
"lX c #F0F2EF",
"zX c #E4EDF5",
"xX c #ECEFF2",
"cX c #E1EFF9",
"vX c #E3F0F7",
"bX c #EDF2F4",
"nX c #E4F2FA",
"mX c #EAF5FA",
"MX c #EFF8FA",
"NX c #F2F5F4",
"BX c #F4F7F8",
"VX c #F5FAFA",
"CX c #FBFDFC",
/* pixels */
"3X3X3X3X3X3X3X3X3XqX3X3X3X3X3X3XqXqXqX4XqX3X3X3X3X3X3X3X3X3X3X3X3X3X3X3X3X3X3X3X3X3X3X3X3X3X3X3X3X3X3X3X3X3X3X3X3X3X3X3XqX3X3X3X",
"3X3X3X3X3X3X3X3X3X3X3X3X3X3X3X3X}.qXqX X3X3X3X3X3X3X3X3X3X3X3X3X3X3X3X3X3X3X3X3X3X3X3X3X3X3X3X3X3X3X3X3X3X3X3X3X3X3X3X3X3X3X3X3X",
"3X3X3X3X3X3X3X3X3X3X3X3X3X3X3X3XqXCXMXsX3X3X3X3X3X3X3X3X3X3X3X3X3X3X3X3X3X3X3X3X3X3X3X3X3X3X3X3X3X3X3X3X3X3X3X3X3X3X3X3X3X3X3X3X",
"3X3X3X3X3X3X3X3X3X3X3X3X3X3X3X3XsXsXD.x 3X3X3X3X3X3X3X3X3X3X3X3X3X3X3X3X3X3X3X3X3X3X3X3X3X3X3XqX3X3X3X3X3X3X3X3X3X3X3X3X3X3X3X3X",
"3X3X3X3X3X3X3X3X3X3X3X3X3X3X3XeXaX`.N ;.;.3X3X3X3X3X3X3X3X3X3X3X3X3X3X3X3X3X3X3X3X3X3X3X3X3X3X3X3X3X3X3X3X3X3X3X3X3X3X3X3X3X3X3X",
"3X3X3X3X3X3X3X3X3X3X3X4X3X3X3XpX:Xu.%.c ;.3X3XeX3X3X3X3X3X3X3X3X3X3X3X3X3X3X3X3X3X3X3X3X3X3X3X3X3X3X3X3X3X3X3X3X3X3X3X3X3X3X3X3X",
"3X3X3X3X3X3X3X3X3X3XqX X}.qX3XpX>XF.=.z o.&.wX X3X3X3X3X3X3X3X3X3X3X3X3X3X3X3X3X3X3X3X3X3X3X3X3X3X3X3X3X3X3X3X3X3X3X3X3X3X3X3X3X",
"3X3X3X3X3X3X3X3X3X3XqXqXqXqXqXnXV.:Xr.e 2.b }.}.3XyXeX3X3X3X3X3X3X3X3X3X3X3X3X3X3X3X3X3X3X3X3X3X3X3X3X3X3X3X3X3X3X3X3X3X3X3X3X3X",
"3X3X3X3X3X3X3X3X3X3X3X3X3X3XeXnXV.:XI.$ z Y.1.qX3XyXeX3X3XqX XqX3X3X3X3X3X3X3X3X3X3X3X3X3X3X3X3X3X3X3X3X3X3X3X3X3X3X3X3X3X3X3X3X",
"3X3X3X3X3X3X3X3X3X3X3X3X3X3XeX5XL.:XU.& z +.' qX3XyXCX3X3XnX4XqX3X3X3X3X3X3X3X3X3X3X3X3X3X3X3X3X3X3X3X3X3X3X3X3X3X3X3X3X3X3X3X3X",
"3X3X3X3X3X3X3X3X3X3X3X3X3X3XeXG.:X:XP.$ -.>.}.pXL.sXsX3X3XnXqXqX3X3X3X3X3X3X3X3X3X3X3X3X3X3X3X3X3X3X3X3X3X3X3X3X3X3X3X3X3X3X3X3X",
"3X3X3X3X3X3X3X3X3X3X3X3X3X3XiX(.2XI.C.-.iXV.MXmXnX!.`.aXaXaX}.qX3X3X3X3X3X3X3X3X3X3X3X3X3X3X3X3X3X3X3X3X3X3X3X3X3X3X3X3X3X3X3X3X",
"3X3X3X3X3X3X3X3X3X3X3X3X3X3XaXtX:Xu.-.-.zXpX{.VXVXaXaX!.aXaX-.!.3X3X3X3X3X3X3X3X3X3X3X3X3X3X3X3X3X3X3X3X3X3X3X3X3X3X3X3X3X3X3X3X",
"3X3X3X3X3X3X3X3X3X3X3X3X3X3XCXtX`.'.-.-.VXmX'.mXsXVXaXtX!.VXuX-.I.3X3X3X3X3X3X3X3X3X3X3X3X3X3X3X3X3X3X3X3X3X3X3X3X3X3X3X3X3XqX3X",
"3X3X3X3X3X3X3X3X3X3X3X3X3X3XCXVX1X-.-.-.CXCXI.aXCXCXCXCXC.pXrX-.V.qX X3X3X3X3X3X3X3X3X3X3X3X3X3X3XqX3X3X3X3X3X3X3X3X3X3X3X3X3X3X",
"3X3X3X3X3X3X3X3X3X3X3X3X3X3XVX4XZ.<X-.-.mXCXeX!.CXnXMXnXsX`.sXC.V.qX4X4XyX3X3X3X3X3X3X3X3X3X3X3X3X3X3X3X3X3X3X3X3X3X3X3X3X3X3X3X",
"3X3X3X3X3X3X3X3X3X3X3X3X3XaXMXA.tXVX-.-.U.VXnX4X>XMXMXaXaX/.rXa.-.[.3X3XCX3X3X3X3X3X3X3X3X3X3X3X3X3X3X3X3X3X3X3X3X3X3X3X3X3XqX}.",
"3X3X3X3X3X3X3X3X3X3X3X3X3XnXaXA.CXCXK.-.y.Z.A.Z.C.aXsXaXV.&XkXkX>.>X3XMXnX3X3X3X3X3X3X3X3X3X3X3X3X3X3X3X3X3X3X3X3X3X3X3X3X3XqXqX",
"3X3X3X3X3X3X3X3X3X3X3X3X3XcXpXA.CXCXI.g.v.Q 9.%X%X#XfXQ.kXoXU b.t.3XqXl.cX3X3X3X3X3X3X3X3X3X3X3X3X3X3X3X3X3X3X3X3X3X3X3X3X3XqXqX",
"3X3X3X3X3X3X3X3X3X3X3X3X3XzXiXA.BXVXk.B.6.X.f.L kXkXkXkXkXr o.I Y !.uXB cX3X3X3X3X3X3X3X3X3X3X3X3X3X3X3X3X3X3X3X3X3X3X3X3X3X3X X",
"3X3X3X3X3X3X3X3X3X3X3X3X3XcXaXA.6XCXc.A o 3 l 6.3.kXkXn.7.r *.#.2 ^.b.9XcX3X3X3X3X3X3X3X3X3X3X3X3X3X3X3X3X3X3X3X3X3X3X3X3X3X3X3X",
"3X3X3X3X3X3X3X3X3X3X3X3X3XmXiXA.(.lXB.  -XY.1.C oXZ kXkXw j.S.[ 4 W 3.dXcX3X3X3X3X3X3X3X3X3X3X3X3X3X3X3X3X3X3X3X4X3X3X3X3X3X3X3X",
"3X3X3X3X3X3X3X3X3X3X3X3X3XmX=Xd.9.7XhXv vX6Xn ].R.4.kXkXt.rXD.K +.T R B cX3X3X3X3X3X3X3X3X3X3X3X3X3X3X3X3X3X3X3X3X3X3X3X3X3X3X3X",
"3X3X3X3X3X3X3X3X3X3X3X3X3XnX=XU.Q m.7XO.+.R.+X;XjXkXkXkX*XY.B @.<.T 4.B cX3X3X3X3X3X3X3X3X3X3X3X3X3X3X3X3X3X3X3X3X3X3X3X3X3X3X3X",
"3X3X3X3X3X3X3X3X3X3X3X3X3XaX'.U.=XQ wXv._ / / .X&XkXkXkXkXkXkXkX#XA nXu cX3X3X3X3X3X3X3X3X3X3X3X3X3X3X3X3X3X3X3X3X3X3X3X3X3X3X3X",
"3X3X3X3X3X3X3X3X3X3X3X3X2XaXu.iXmXI.mXB.B.B.kXkXkX#Xn.n.kXkX&Xq.9.>XnXk cXqX3X3X3X3X3X3X3X3X3X3X3X3X3X3X3X3X3X3X3X3X3X3X3X3X3X3X",
"3X3X3X3X3X3X3X3X3X3X3X3XVX5XV.K.F.4X[.Y Y M.B.B.*XkX*X&XkXc.W k.,XVXqX5 nXwX3X3X3X3X3X3X3X3X3X3X3X3X3X3X3X3X3X3X3X3X3X3X3X3X3X3X",
"3X3X3X3X3X3X3X3X3X3X3X3XCXI.CXtX:X,XP.4XL.c.0.T U ! x.! 0.r.!./.:XjXqXk nX1.1.,.m m / / b ].3X3X3X3X3X3X3X3X3X3X3X3X3X3X3X3X3X3X",
"3X3X3X3X3X3X3X3X3X3X3X2XCXI.CXtXG.5X4X2XL.a d ^ 2.Y.g  X X~ -.kX@X2XkXkXkXh g < < # # # # j |.qX3X3X3X3X3X3X3X3X3X3X3X3X3X3X3X3X",
"3X3X3X3X3X3X3X3X3X3X3XiXmX~.VXpX=X4X-X2X=X5.N.e.3.^ 5.W.&X..R XX@Xh.q.q.K e < :.6.u.qX3Xg.E ;.}.3X3X3X3X3X3X3X3X3X3X3X3X3X3X3X3X",
"3X3X3X3X3X3X3X3X3X3X3XcXaX+XaXtXmX,X+XNX1XB.kX*XB.< a s _.s ) 6 4X3XyXB 1X1 =.qXBX3X3X3X3Xx.%X2X3X3X3X3X3X3X3X3X3X3X3X3X3X3X3X3X",
"3X3X3X3X3X3X3X3X3X3X3XzXpXuXfXG.bXgXK.(.mX*XkXm.N.; _ h x &.) o jXk.3Xu | '.3 n D 3X3X3X3X^.lX3X3X3X3X3X3X3X3X3X3X3X3X3X3X3X3X3X",
"3X3X3X3X3X3X3X3X3X3X3XzXy.mX,XCX| dX%.NX&XkX%Xx.2 e ) g M S.X.+ MXCX8XCX].q $ : + S 3X3X3X3X3X3X3X3X3X3X3X3X3X3X3X3X3X3X3X3X3X3X",
"3X3X3X3X3X3X3X3X3X3XmXiXfXaX,XCX| ,XK.VX9.*Xq.> # w ) e j <.X.+ 3XBXlXCX( c : . : q `.3X3X3X3X3X3X3X3X3X3X3X3X3X3X3X3X3X3X3X3X3X",
"3X3X3X3X3X3X3X3X3X3XVX=XmXpX:XCXB -Xr.k.*X%XY 7 - , w b < ;._ - D.nX#.g g g g   O -  .qX3X3X3X3X3X3X3X3X3X3X3X3X3X3X3X3X3X3X3X3X",
"3X3X3X3X3X3X3X3X3X3XVXmXaX4XdXT.F aX#.m.%Xm.2 = 8 % w b ].6X-Xg &.` z g g g ,   O @ + qX3X3X3X3X3X3X3X3X3X3X3X3X3X3X3X3X3X3X3X3X",
"3X3X3X3X3X3X3X3X3X3X5XI.aX4XVXL VXn ,.=.m.h.G 8 8 - , ) g ;.z m @.N g t e w o   O O : y }.qX}.qX3X3X3X3X3X3X3X3X3X3X3X3X3X3X3X3X",
"3X3X3X3X3X3X3X3X3X2XiXI.aX4XCXrXNXF m h < 7X> 0 0 % ) / h ;.z g 1.g t w , < 3 L.o   O - }.qXqXqX3X3X3X3X3X3X3X3X3X3X3X3X3X3X3X3X",
"3X3X3X3X3X3X3X3X3XeXu.aX4X=XCX0Xl M < % J 3 } 0 - g _ g h N D.f.` t < w % 3 +XiXrX=.& X : d.qXqX3X} =.3X3X3X3X3X3X3X3X3X3X3X3X3X",
"3X3X3X3X3X3X3X3X3XP.eXaXNXCX.XY.b r H.VXCX@Xf n S.).+X<.M M ` ' t % % # t.MXqXwXuXeXeXr.X - L.H.=.O C }.3X3X3X3X3X3X3X3X3X3X3X3X",
"3X3X3X3X3X3X3X3X3XU.gXzX:XtXb.gXw.Q.gX4Xg.4 [ r , b ) v ` ` M g z g w O D J D.9XuXrXrXrXD X : : - . J mXqX3X3X3X3X3X3X3X3X3X3X3X",
"3X3X3X3X3X3X3XqXtXgX,Xt.4 P aXzXjX/.I.:Xj.t.>.@ e c / b b b b z g g < , ; +  .I Q.qXyXb.s.o O y n u yXqX3X3X3X3X3X3X3X3X3X3X3X3X",
"3X3X3X3X3X3X3X3XA.NX,XzXdXCXCXVXBXbXVXBXg.CXH - , w g / z O.O._ ) ) c , q : ] iXVXyXCXdXdX$X  > :X[.nX3X3X3X3X3X3X3X3X3X3X3X3X3X",
"3X3X3X3X3X3X3X3XV.CX,XA.g.OX6.5XOX5.OX:X7.0Xy 8 $ % , w < t t t e < o - ; O f d -Xt.{.rXuXqX/.i.^.BXiXqX3X3X3X3X3X3X3X3X3X3X3X3X",
"3X3X3X3X3X3X3X3XV.MXCX5.4 mXCX1X-Xd.VX:X8.CXzX= a @ # , w w w q , O . O q O f i C.P qXqX}.sXz.qXyXwXqXqX3X3X3X3X3X3X3X3X3X3X3X3X",
"3X3X3X3X3X3X3X`.dXaXu.uXmXJ 6.U +Xt.uX:X8.CXzX= 8 8 * - @ = - 8 9 X O O q O i ..J I 7.g.CX$.3.$.MXqXqX}.3X3X3X3X3X3X3X3X3X3X3X3X",
"3X3X3X3X3X3X3XV.VXiXu.:XCX%.5.aXU NX5X:X7.CXzXG.y 7 8 8 p = i i ~ & O O - O a ] C.3XF 3.k.L J CX3X4XqXqX3X3X3X3X3X3X3X3X3X3X3X3X",
"3X3X3X3X3X3X2XV.CXcXu.tXnXdX.X~.e.G.iXE.8.CXCX8.@Xy. .= ^ ~ 0 7 ~ d . O - + a ] C.3X{ T.).r.mXqX3X4X XqX3X3X3X3X3X3X3X3X3X3X3X3X",
"3X3X3X3X3X3XZ.aXnX'.fXMXaX3.aX7.K G.gXK.t.CXNX| $.<XiXS + ^ 8 = d d . @ - + 8 7 C.[.NX^.H.z.U rXiXrXrXiXyXrXyXqX}.qXqX}.qXqX X4X",
"3X3X3X3X3X2XZ.VXnXP.'.aXVX%.rXxX{ +XE.U =XCX3.e.!.OXbX5.= p = = p ... q + r.F.V >X;X.Xi.Q.nXeXwXrXeXeXCXb.b.T.VXVXVXVXCXqXqX3X3X",
"3X3X3X3X3X'.U.VXiXL.2XaX;Xt.pX=XCXtXP.iXp.CX7.P.1X0Xl.K > s.`.G  .iXV q O OXF.5.eXfXp.3 cXI I { uXnXp.i.C 4 { s.+X+XqX}.3XnXaXuX",
"3X3X3X3X2Xu.rXcXCXVXCXMX4 4 :X~.@X| U | l.xXL Z gXu u {.{.fXqXmXOX!.%.: O MXmXVXCXI 3Xf.CXl.l.dXH.k u k 8.lXlXjX6XqXqXCXCXCXCX4X",
"cXCXCXp..Xz.zXBXzXP <X6.s.=X| | @Xj.fX1XxX%.XXg.g.7.{.OXaXXXcXR.L U Z : O 7.7.U I -XnXnXcXcXqXwX@X@XaX@X8X^.0XuX3XP 3XiXcXK.VX3X",
"3X3Xh.bXmX:XOXj. .CXCXNXCXVXCXCXCX2X:XiXaXjXk k u I J.R.l.%.k B >X3X%., O g.k.k.Z 5 Q.}.}.}.lXlXNXwX3XqXqXqX^.T.CXCXCXBX3X$.VX3X",
"3X3Xz.{.nXg.zX~.a.0X-XG.I K zX4XF.(.OXzXtXy.uX:X;X^.J.oXg.g.g.g.mXvX. @ @ + G G D.).5.3.i.i.i.5.7.>XrXmXmXCXyXrX3XMX3X3.3X$.CX3X",
"3X3XyX4XzXJ BXCXCXeXrXs.Z fXJ.z.3XeXeX3XuXMXnXtXXXz.J.~.wXqXD.D.H.C . zX@ : X O d.qXwXOXb.T.XXBXNXBXnXeXBXqXqXqX3XmX3XaX3X3XVX3X",
"}.qXyXqXqXmXqXeXaX.XrXp.CXlXMXmXMXCXCXmXMXqXwXrX>X>XR.R.XX6.H.qXK.J.3.J.5.5.T.T.dXMXCXyXrXrXrXqX3XnXT.6X3X3X3X3X3XaX4XaX3X3XCX3X",
"qXqXrXqXqXCXqXeXrXmXoXj.[.>Xk.).BXqX+XR.k.dXdXMXmX8Xb.k.I XXXXXXCXmX7Xb.z.fXP yXvX$XXXR.qX[.R.6XOXwX^.>X3X3X3X3X3X3X3X3X3X3XCX3X",
"qXqX3X3XqXCX3XiXrX3XqXtXNXl.B B MXmXcXqX5.}.$XR.qX}./.uXCXmXCXp.| B | /./.qXCXz.z.l.z.@Xz.>XBXyX8XqXyXqX3X3X3X3X3X3X3X3X3X3X4X3X",
" XqX3X3X3X3X3XrXrX3XqXaXqXuXnXnXmXqXrXcX3.r.t.W.9XsXcXyX3XqXqXcX7Xs.R.^.uXcX3XnXvX<X@X+XaXfXuXqXg.3XeXqX3X3X3X3X3X3X3X3X3X3X3X3X",
"4X3X3X3X3X3X3XeXiX3X3XcXqX}.qXqX.XeX3X3X3XCX3XrXrXqXqX}.3X3X3X3XqXBXL CX^.3X3X3XqXg.p.cX3XvX3X3XMX3X3X3X3X3X3X3X3X3X3X3X3X3X3X3X",
"4X3X3X3X3X3X3X3X3X3X3X3XqXqX}.qXE.qX3X3X3X3XU '.qXqXqXqX3X3X3X3XqXyXnX3XqXqX3X3XqXiXqXqX3X[.3X3X<X3X3X3X3X3X3X3X3X3X3X3X3X3X3X3X",
"3X3X3X3X3X3X3X3X3X3X3X3XqX4XqXqXMX3X3X3X3X3XcX3X4X XqXqX3X3X3X3X3X3XmX3X3X3X3X3X3X3XVX3X3X^.3X3XmX3X3X3X3X3X3X3X3X3X3X3X3X3X3X3X",
"3X3X3X3X3X3X3X3X3X3X3X3XqX XqXqXiX3X3X3X3X3X3X3XeXqXwX}.3X3X3X3X3X3XeX3X3X3X3X3XqXqXrXqXqXqX3X3X3X3X3X3X3X3X3X3X3X3X3X3X3X3X3X3X"
};
