/* XPM */
static char *result[] = {
/* columns rows colors chars-per-pixel */
"64 64 253 2 ",
"   c #05060B",
".  c #000211",
"X  c #00031C",
"o  c #090D1F",
"O  c #0B141A",
"+  c #000324",
"@  c #000529",
"#  c #000B2B",
"$  c #080E2A",
"%  c #001322",
"&  c #011C2B",
"*  c #081A29",
"=  c #191C21",
"-  c #010233",
";  c #02053B",
":  c #030F3E",
">  c #001332",
",  c #011B34",
"<  c #03173A",
"1  c #181B39",
"2  c #002232",
"3  c #0C2331",
"4  c #00223C",
"5  c #012A3D",
"6  c #292731",
"7  c #323638",
"8  c #393D3F",
"9  c #050C47",
"0  c #060C4C",
"q  c #0B184E",
"w  c #040E54",
"e  c #050F58",
"r  c #002342",
"t  c #002A41",
"y  c #003144",
"u  c #01364C",
"i  c #003E54",
"p  c #252945",
"a  c #2F314C",
"s  c #3A3F43",
"d  c #2D3757",
"f  c #101A68",
"g  c #061771",
"h  c #1A2663",
"j  c #132379",
"k  c #313473",
"l  c #00465C",
"z  c #00475D",
"x  c #3E4244",
"c  c #304D54",
"v  c #014E64",
"b  c #0B4D62",
"n  c #085369",
"m  c #15596C",
"M  c #045A73",
"N  c #394D62",
"B  c #0D6377",
"V  c #2A667B",
"C  c #306574",
"Z  c #44494C",
"A  c #4F4E4D",
"S  c #4B535A",
"D  c #555958",
"F  c #655249",
"G  c #6C6B5D",
"H  c #4A5863",
"J  c #555D65",
"K  c #475B72",
"L  c #51587B",
"P  c #5B6469",
"I  c #546C75",
"U  c #5E6874",
"Y  c #63676A",
"T  c #636C72",
"R  c #6A757B",
"E  c #717576",
"W  c #74797C",
"Q  c #916949",
"!  c #9B7758",
"~  c #88796D",
"^  c #978971",
"/  c #AD8C6D",
"(  c #1A2680",
")  c #273689",
"_  c #1E4384",
"`  c #3D5197",
"'  c #066882",
"]  c #0E6E88",
"[  c #097893",
"{  c #097A96",
"}  c #31798C",
"|  c #494698",
" . c #517085",
".. c #666E84",
"X. c #687787",
"o. c #737A86",
"O. c #697796",
"+. c #757598",
"@. c #4954AB",
"#. c #727EA1",
"$. c #0A809D",
"%. c #0983A2",
"&. c #218DAA",
"*. c #3193A9",
"=. c #4F8897",
"-. c #7E8182",
";. c #76828A",
":. c #708997",
">. c #7B8A96",
",. c #5A97AB",
"<. c #5193B0",
"1. c #7B8CA1",
"2. c #758AAE",
"3. c #6895A6",
"4. c #6F92AC",
"5. c #7D92B4",
"6. c #42A0B6",
"7. c #5CA3B8",
"8. c #6FA2B2",
"9. c #5D9ACF",
"0. c #7BB2CB",
"q. c #6ACCE6",
"w. c #888C8B",
"e. c #92948F",
"r. c #878E92",
"t. c #899197",
"y. c #939798",
"u. c #969A9B",
"i. c #B19D8A",
"p. c #99A298",
"a. c #AEA59D",
"s. c #8997A5",
"d. c #949BA6",
"f. c #8A98B9",
"g. c #8C9DBA",
"h. c #919EB0",
"j. c #96A3AC",
"k. c #9BA4AB",
"l. c #89A7B4",
"z. c #99A8B8",
"x. c #98B8BE",
"c. c #A5A9AA",
"v. c #B8B2AA",
"b. c #A3ACB9",
"n. c #AAB3B6",
"m. c #B2B6B6",
"M. c #B4B9BA",
"N. c #CCAF8E",
"B. c #C6BBA8",
"V. c #B9C1B6",
"C. c #DEC29B",
"Z. c #CCC6BD",
"A. c #DDCCB1",
"S. c #DED3BD",
"D. c #E3CCA9",
"F. c #EDD4AD",
"G. c #F0D7AF",
"H. c #E6D4B6",
"J. c #F1DAB4",
"K. c #8EA3C2",
"L. c #92A3C1",
"P. c #94A9C6",
"I. c #99AAC5",
"U. c #9CADCA",
"Y. c #8EBAD2",
"T. c #AABAC5",
"R. c #A9B6CC",
"E. c #A8B8CB",
"W. c #B3BDC4",
"Q. c #B6BEC9",
"!. c #A5BAD3",
"~. c #A9B9D5",
"^. c #ABBCD5",
"/. c #93C5CF",
"(. c #94C8D7",
"). c #BDC2C2",
"_. c #B6C2CA",
"`. c #BAC4CC",
"'. c #AAC2D7",
"]. c #ACC9D4",
"[. c #BBCAD4",
"{. c #B2C4DB",
"}. c #B8C6D8",
"|. c #BDCDDA",
" X c #BCD1DB",
".X c #99CDE2",
"XX c #B6CAE3",
"oX c #BACCE4",
"OX c #BCD3E5",
"+X c #BAD5E7",
"@X c #BBD5EA",
"#X c #ADE1F8",
"$X c #B3E6F9",
"%X c #C1C5C6",
"&X c #C5C9CB",
"*X c #D1CECA",
"=X c #C5CDD5",
"-X c #CAD4D7",
";X c #CBD3DC",
":X c #D5D8D8",
">X c #E4D8CB",
",X c #F3E5CF",
"<X c #F6EADA",
"1X c #C1CFE7",
"2X c #C3D5E4",
"3X c #CBD4E2",
"4X c #C4D9E7",
"5X c #CDDAE5",
"6X c #C4D4ED",
"7X c #CAD7ED",
"8X c #C4DAED",
"9X c #CCDCED",
"0X c #D5DCE3",
"qX c #D3DEEC",
"wX c #C5D6F0",
"eX c #C4DFF4",
"rX c #CBDDF3",
"tX c #D2DEF1",
"yX c #DCE1E4",
"uX c #D6E5EE",
"iX c #DDE5EB",
"pX c #C7E0F4",
"aX c #CCE3F5",
"sX c #CCE7FA",
"dX c #D3E5F5",
"fX c #DBE6F4",
"gX c #D6E9F7",
"hX c #DAEBF5",
"jX c #D2E6F9",
"kX c #D6EEFA",
"lX c #D5EBFC",
"zX c #DAEDFD",
"xX c #E4E6E4",
"cX c #E4E7E6",
"vX c #E5EAEC",
"bX c #E9ECEA",
"nX c #F6EEE3",
"mX c #EEF0EE",
"MX c #FBF1E5",
"NX c #F3F3EE",
"BX c #E3ECF5",
"VX c #EBEFF5",
"CX c #E1EFF9",
"ZX c #E3F0F7",
"AX c #ECF2F4",
"SX c #E4F2FB",
"DX c #EBF6FB",
"FX c #EFF8FA",
"GX c #F3F5F3",
"HX c #F5F9F7",
"JX c #F4F7F8",
"KX c #F5FAFA",
"LX c #FBFDFC",
/* pixels */
"eXeXeXeXeXeXeXeXeXeXeXeXeXeXeXeXeXeXeXeXeXeXeXeXeXeXeXeXeXeXeXeXeXeXeXeXeXeXeXeXeXeXeXeXeXeXeXeXeXeXeXeXeXeXeXeXeXeXeXeXeXeXeXeX",
"eXeXeXeXeXeXeXeXeXeXeXeXeXeXeXeXeXDXKXpXeXeXeXeXeXeXeXeXeXeXeXeXeXeXeXeXeXeXeXeXeXeXeXeXeXeXeXeXeXeXeXeXeXeXeXeXeXeXeXeXeXeXeXeX",
"eXeXeXeXeXeXeXpXeXeXeXeXeXeXeXeXzXFX+Xx.eXeXeXeXeXeXeXeXeXeXeXeXeXeXeXeXeXeXeXeXeXeXpXeXeXeXeXeXeXeXeXeXeXeXeXeXeXeXeXeXeXeXeXeX",
"eXeXeXeXeXeXeXeXeXeXeXeXeXeXeXeXkXzXI b 7.eXeXeXeXeXeXeXeXeXeXeXeXeXeXeXeXeXeXeXeXrX$XeXeXeXeXeXeXeXeXeXeXeXeXeXeXeXeXeXeXeXeXeX",
"eXeXeXeXeXeXeXeXeXeXeXeXeXeXeXlXaXg. .7.3.eX$XpXeXeXeXeXeXeXeXeXeXeXeXeXeXeXeXeXeXeXeXeXeXeXeXeXeXeXeXeXeXeXeXeXeXeXeXeXeXeXeXeX",
"eXeXeXeXeXeXeXeXeXeXeXeXeXeXpXsX6XU.1.n n @XeXpXeXeXeXeXeXeXeXeXeXeXeXeXeXeXeXeXeXeXeXeXeXeXeXeXeXeXeXeXeXeXeXeXeXeXeXeXeXeXeXeX",
"eXeXeXeXeXeXeXeXeXeXeXeXeXeXpXzX!.XX>.z q.B @XpXeXjXeXeXeXeXeXeXeXeXeXeXeXeXeXeXeXeXeXeXeXeXeXeXeXeXeXeXeXeXeXeXeXeXeXeXeXeXeXeX",
"eXeXeXeXeXeXeXeXeXeXeXeXeXpXsXSXL.wX^.* z } 0.pXeXhXaXeXeXeXeXeXeXeXeXeXeXeXeXeXeXeXeXeXeXeXeXeXeXeXeXeXeXeXeXeXeXeXeXeXeXeXeXeX",
"eXeXeXeXeXeXeXeXeXeXeXeXeXeXpXSXL.6X~.* v q.<.@XpXgXDXeXeXzXeXeXeXeXeXeXeXeXeXeXeXeXeXeXeXeXeXeXeXeXeXeXeXeXeXeXeXeXeXeXeXeXeXeX",
"eXeXeXeXeXeXeXeXeXeXeXpXeXeXpXE.wX6X^.* V } =.sX+XlXKXeXeXSXeXeXeXeXeXeXeXeXeXeXeXeXeXeXeXeXeXeXeXeXeXeXeXeXeXeXeXeXeXeXeXeXeXeX",
"eXeXeXeXeXeXeXeXeXeXeXeXeXeXaXE.wXwX~.O.6XL.DXzXsXP.aXzXlXZXeXeXeXeXeXeXeXeXeXeXeXeXeXeXeXeXeXeXeXeXeXeXeXeXeXeXeXeXeXeXeXeXeXeX",
"eXeXeXeXeXeXeXeXeXeXeXeXeXeXzXdXwXf.2.2.dX~.fXKXKXzX{.eXzXzX!.@XeXeXeXeXeXeXeXeXeXeXeXeXeXeXeXeXeXeXeXeXeXeXeXeXeXeXeXeXeXeXeXeX",
"eXeXeXeXeXeXeXeXeXeXeXeXeXeXLXfXXXoX2.2.DXjX+XKXzXKXzX3XzXDXpX2.eXeXeXeXeXeXeXeXeXeXeXeXeXeXeXeXeXeXeXeXeXeXeXeXeXeXeXeXeXeXeXeX",
"eXeXeXeXeXeXeXeXeXeXeXeXeXeXLXVX5XP.2.2.LXKX{.SXFXKXDXKXK.DXhX2.L.pXeXeXeXeXeXeXeXeXeXeXeXeXeXeXeXeXeXeXeXeXeXeXeXeXeXeXeXeXeXeX",
"eXeXeXeXeXeXeXeXeXeXeXeXeXeXLXrXU.I.2.2.DXLX{.jXKXKXSXKXzXXXkXP.K.pXpXeXpXeXeXeXeXeXeXeXeXeXeXeXeXeXeXeXeXeXeXeXeXeXeXeXeXeXeXeX",
"eXeXeXeXeXeXeXeXeXeXeXeXeXsXKX^.oXKX2.2.3XLXSXOXgXDXLXkXzX{.sXf.5.@XpXeXKXeXeXpXeXeXeXeXeXpXeXeXeXeXeXeXeXeXeXeXeXeXeXeXeXeXeXeX",
"eXeXeXeXeXeXeXeXeXeXeXeXeXCXlXU.LXLXg.2.U.wXeXoX}.zXzXzX8X-XMXnX5.+XeXjXKXeXeXeXeXeXeXeXeXeXeXeXeXeXeXeXeXeXeXeXeXeXeXeXeXeXeXeX",
"eXeXeXeXeXeXeXeXeXeXeXeXeXCXlXU.LXLX^.2.c.A.A.A.A.*XjXoXxXMXD Z.K.eXeXLXSXeXeXeXeXeXeXeXeXeXeXeXeXeXeXeXeXeXeXeXeXeXeXeXeXeXeXeX",
"eXeXeXeXeXeXeXeXeXeXeXeXeXBXzXU.LXLXR.F.V.c T M.MXMXMX*X<XY x.j.~ 2XhXx CXeXeXeXeXeXeXeXeXeXeXeXeXeXeXeXeXeXeXeXeXeXeXeXeXeXeXeX",
"eXeXeXeXeXeXeXeXeXeXeXeXeXBXlXU.9XKX^ D.6 P m Z.Z.MXMXMXZ y X.J A [.-XXXCXeXeXeXeXeXeXeXeXeXeXeXeXeXeXeXeXeXeXeXeXeXeXeXeXeXeXeX",
"eXeXeXeXeXeXeXeXeXeXeXeXrXSXlXU.+XFXG.  P K :.c e.p.MX*X>...0.9.6 a.p.MXCXeXeXeXeXeXeXeXeXeXeXeXeXeXeXeXeXeXeXeXeXeXeXeXeXeXeXeX",
"eXeXeXeXeXeXeXeXeXeXeXeXeXSX6XU.h.mX<XO HX4X} (.X.<XMXMXO SXN 4.$.G W Z CXpXeXeXeXeXeXeXeXeXeXeXeXeXeXeXeXeXeXeXeXeXeXeXeXeXeXeX",
"eXeXeXeXeXeXeXeXeXeXeXeXeXDXoX!./ S.bX%.0.uXn.CXDXV.MXMXMX/.T C 6.^ w.8 BXpXeXeXeXeXeXeXeXeXeXeXeXeXeXeXeXeXeXeXeXeXeXeXeXeXeXeX",
"eXeXeXeXeXeXeXeXeXeXeXeXeXzX1X^.`.N..X&.%.% c ..-XMXMXMXMXnXMXMX,X! DX8 BXeXeXeXeXeXeXeXeXeXeXeXeXsXeXeXeXeXeXeXeXeXeXeXeXeXeXeX",
"eXeXeXeXeXeXeXeXeXeXeXeXwXzXP.wXZXk.SXJ.v.V.-XMXMXH.<XMXMXMXMXN.i.M.DXs CXeXeXeXpXeXeXeXeXeX$XeXeXeXeXeXeXeXeXeXeXeXeXeXeXeXeXeX",
"eXeXeXeXeXeXeXeXeXeXeXeXfXfXg.iX4XjXhXN.N.F.,X,X<XMXi./ MX>XB.B.^.fXCXs CXeXeXeXrXtXeXeXeXeXpXpXeXeXeXeXeXeXeXeXeXeXeXeXeXeXeXeX",
"eXeXeXeXeXeXeXeXeXeXeXeXLX^.GXqX1XwX}.=XI.! ! ! ! G.J.J.! a.yX].rXJXeXs zXpXeX'.m ] &.&.&.pXpXpXeXeXeXeXeXeXeXeXeXeXeXeXeXeXeXeX",
"eXeXeXeXeXeXeXeXeXeXeXeXLX~.LXdXXXwXXXwX~.f.2.+.9.e.D p.#X| 9.0X;XuXiXw.AX' ' M M l y y , =.#XpXeXeXeXeXeXeXeXeXeXeXeXeXeXeXeXeX",
"eXeXeXeXeXeXeXeXeXeXeXwXLX~.KXjXoXrXXX1X!.j G.g j O.J.].nX@.F.nXH.sXMXMX1.z 5 5 % N pXpXQ c kX#XeXeXeXeXeXeXeXeXeXeXeXeXeXeXeXeX",
"eXeXeXeXeXeXeXeXeXeXeXCXlX;XDXhXfX9X3XBX9XF.<X<XG.r j O.-X_ m ~ pXm.v.F k.2 K pXFXeXpXpX9XN.t.eXeXeXeXeXeXeXeXeXeXeXeXeXeXeXeXeX",
"eXeXeXeXeXeXeXeXeXeXeXfXzX3XdXj.VX;X;X=XDXJ.MXG.F.2 { z _ 3.[ & VXM.eXs ;.oXO.].0XpXpX9XpXa.nXeXeXeXeXeXeXeXeXeXeXeXeXeXeXeXeXeX",
"eXeXeXeXeXeXeXeXeXeXeXBXU.SXqXVXd.bXs.cXxXMX,XC.D y { v z ,.[ % HXcXhX%X'.N % , + X.eX$XpXpXaXeXeXeXeXeXeXeXeXeXeXeXeXeXeXeXeXeX",
"eXeXeXeXeXeXeXeXeXeXjXSXU.SX7XLXW yXd.HXZ.MXD.F 1 t { i 7. X/.@ pXKX`.LX6.[ & X 4 d @XpXpX$XeXeXeXeXeXeXeXeXeXeXeXeXeXeXeXeXeXeX",
"eXeXeXeXeXeXeXeXeXeXKX^.LXzX7XLXS 9XE.HXH.MX/ ; , r i n r 3.[ # pXKXn.C b z i   @ , {.pXeXeXeXeXeXeXeXeXeXeXeXeXeXeXeXeXeXeXeXeX",
"eXeXeXeXeXeXeXeXeXeXLXDXzXrXqXxXS 9XX.E <XF.6 9 : & t M  .8.7.t  ./.M z z z i   + # @ pXeXeXeXeXeXeXeXeXeXeXeXeXeXeXeXeXeXeXeXeX",
"eXeXeXeXeXeXeXeXeXeX7X^.zXaXLXR mXP Y.<X,X! K 0 0 : 5 %.n 8.m $.6.V z z u 5 X   @ @ < ..eXeXeXeXeXeXeXeXeXeXeXeXeXeXeXeXeXeXeXeX",
"eXeXeXeXeXeXeXeXeXeXlX~.zXaXKXk.KXS { z G zXd w w & n ' z 3.v z =.m l t t 5 * J . X > # eXpXeXeXeXeXeXeXeXeXeXeXeXeXeXeXsXeXeXeX",
"eXeXeXeXeXeXeXeXeXpXg.zXzX6XHX=XP *.l t * 3 U w > 5 { z z 8.V n 0.l 5 t 5 * j.aXdX$ X # + 6XeXeXeXOX@XeXeXeXeXeXeXeXeXeXeXeXeXeX",
"eXeXeXeXeXeXeXeXeXoXXXzXZXBXFX].n 5 X.k.:Xm.L h 3.x.(.=.z z 3.l.i , & & H m.zXaXgXpXs.S # d eXeX~.$ H rXeXeXeXeXeXeXeXeXeXeXeXeX",
"eXeXeXeXeXeXeXeXeX^.dXSX6XAXS $Xc !.E.lX4X7 p <.t M M  .(.(.7.z z z y % [.'.+XdXKXKXKXKXO > # @ @ X H jXeXeXeXeXeXeXeXeXeXeXeXeX",
"eXeXeXeXeXeXeXeXwXVXtXn.J P CXmXNX3X}.6Xt.T (.% u M $.z z z z z z l 5 , < 1 o.P ^.eXeXDX'.. # # >   [.lXeXeXeXeXeXeXeXeXeXeXeXeX",
"eXeXeXeXeXeXeXsXyX=X7XW.E zXSXDX0XR.tXtX:XGXa 9 4 i l [ ] %.%.' M M u 4 r $ >.VXfXfXLXE E J X o.eX`.zXeXeXeXeXeXeXeXeXeXeXeXeXeX",
"eXeXeXeXeXeXeXeXK.LX7Xd.LXM.3X3X`.r.m.tXu.1X1 9 % t t t t v v v v y 2 4 r + ) ` pX%XoXZXsXaXz.T Q.DXhXeXeXeXeXeXeXeXeXeXeXeXeXeX",
"eXeXeXeXeXeXeXwXK.LXfXR.7 DXu.fXuXg.DX6Xu.LXs.0 q % , 5 t t t t 4 % . + r @ k e R.T eXpXSXaX|.4XpXBXeXeXeXeXeXeXeXeXeXeXeXeXeXeX",
"eXeXeXeXeXeXeXXXyXKXg.CXLX7 7 ).^.7 JX6Xu.LXVX- 0 0 # % % % % o > X + + r + 0 | P.V.7 ;.LX`.HX8XDXpXpXeXeXeXeXeXeXeXeXeXeXeXeXeX",
"eXeXeXeXeXeXwXR.VXjXf.rXDX>.b.k.d.JXrX7Xu.LXVX .; 0 0 0 0 ; e g j o + + < @ g | ..s.r.c.:XZ Z c.gXpXeXeXeXeXeXeXeXeXeXeXeXeXeXeX",
"eXeXeXeXeXeX@XP.KXlXf.dXLXm.t.jXT.R.DX}.u.LXVXvXNXp q - @.g - e j j . + > @ g | P.eXXXy.M.+XsXfXeXeXeXeXeXeXeXeXeXeXeXeXeXeXeXeX",
"eXeXeXeXeXeX!.6XDX8X:XKXzXc.fXw.+.Q.SXQ.u.LXLX-.k.qX;Xa 9 ) w ; ( j . + > + e h P.eX).;XpXu.-.$XeXeXeXeXeXeXeXeXeXeXeXeXeXeXeXeX",
"eXeXeXeXeXwXU.SXSX^.oXzXCXr.3XDXZ }.%Xc.b.LX`.T o.=XJX..- k 9 ; f k . < % k k 1 !.T.0XT.P CXFXFXDXFXFXLXmXbXbXdXdXdXdXdXeXeXeXeX",
"eXeXeXeXeX@X~.KXzX{.oXzXLXs.fX7XcXtX1XoXb.LX-.Q.BXfX%X#.@ +.g.- k XX= 4 + 4XeXJ gXSXe.Z FXD S S pXSXr.y.Z A j.9XV.-XjXjXeXHXeXeX",
"eXeXeXeXwX~.6XDXfX}.SXDX..o.rX}.GXT.>.E.c.LXr.t.;Xy.-...R uXpXdX9XiX>.4 + *Xk.CXCXn.@XP gX X XaXyXj.h.l.r.-.-.y.DXzXeXhXhXhXLXDX",
"eXFXLXLXLXHXLXGXwXx cXx h.6Xs d.yXo.}.Q.0X7XGXS Y 7 ^.=XpXc.KXc.r.m.d.< + DXVXM.m.9XLXHXpX8XpXgXn.c.mXmXhXaXLXpX$XR eXeXpXLXKXeX",
"CXCX:Xy.Q.b.2X-XQ.3XhXSX-X0XyXm.bX0XBXDXDXe.U u.u.m.|.=X:XT.>.>.>.>.H 4 + E E R x ;.+X@XCXCXCXhXLXSX$X&X5X|.|.0XCXm.CXDXZXo.KXpX",
"eXeXm.+XDXmX2X1Xz.:X7XE.XXU.tXtX{.E.KX7XeXf.DX@XP.).].m.GXfXHXHXpXpX. , @ $ +XoX_.m.A 8 s x x 8 P pXpXpXpXLXLXDXeXDXeXw.pX;.KXpX",
"eXeX5XeXzXD LXcX0XjX4Xj.7 c.=X`.oX8XXXgXhX3XZX9X:XW.m.=XT.E.z.s.;X-.. d.> > + + P.pX X`._.`.[.iXyXZXZXgXLXgXpXeXeXDXeX&XpX!.KXpX",
"eXeXhXpXhXjXeXdXLXbXKXcXLX:XaXdXaXKXLXgXaXpXCXvX@XOXOX2XmX XP pX+X+X6 }.p 6 a a E.sXKXKXHXHXFXpXpXaXyXFXpXpXeXeXeXSXeXCX$XpXKXpX",
"eXeXgXpXeXLXpXaXjXbX`.d.dXgX%X5XHXjX5X%X%XFXFXFXDXDXmXs.D c.M._.bXbXvXbXbXyXY gXKXbX%X XpXpXW.+XDXgXT.@XpXeXeXeXeXrXeXpXpXeXKXpX",
"eXpXpXeXeXLXpXaXjXeXZX-X&X_.r.j.LXhXaXpXk._.%XOXpXT.U KXLXKXLXyX&Xz.t.U U pXkXxX;X).cX).OX_.gXZXr.pXhXpXeXeXeXeXeXeXeXeXeXeXSXeX",
"eXeXeXeXeXpXpXsXjXeXeXzXsXiXxXxXDXsXhXLXx pXSXM.pXpXDXZXpXpXaXmX!.E +X8XaXHXaXNXGX_.M.[.@XKXsXpXk.pXlXpXeXeXeXeXeXeXpXeXpXeXeXeX",
"eXeXeXeXeXpXpXaXjXeXeXBXpXeXeXeXyXpXeXeXZXw.;.8XhXZXpXpXpXpXeXeXZXCX-.-XiX$XpXpXpX:X-XCXZX5XZXpX-XpXeXeXeXeXeXeXeXeXeXeXeXeXeXeX",
"eXeXeXeXeXeXeXeXeXeXeXeXeXeXeXeX&XjXeXeXpXpX-.V.eXeXeXeXeXeXeXeXeXHXgXpXeXeXeXeXpXgXpXpXpXrXeXeX_.pX$XeXeXeXeXeXeXeXeXeXeXeXeXeX",
"eXeXeXeXeXeXeXeXeXeXeXeXeXeXeXeX0XeXeXeX$XpXT.eXeXeXeXeXeXeXeXeXeXeXDXeXeXeXeXeXpXpXZXpXpX`.eXeXFX8XeXeXeXeXeXeXeXeXeXeXeXeXeXeX",
"eXeXeXeXeXeXeXeXeXeXeXeXeXeXeXeXAXeXeXeXeXeXeXeXeXeXeXeXeXeXeXeXeXeXBXpXeXeXeXeXeXeXDXeXeXeXeXeXeXeXeXeXeXeXeXeXeXeXeXeXeXeXeXeX",
"eXeXeXeXeXeXeXeXeXeXeXeXeXeXeXeXeXeXeXeXeXeXeXeXeXeXeXeXeXeXeXeXeXeXeXeXeXeXeXeXeXpXpXeXeXeXeXeXeXeXeXeXeXeXeXeXeXeXeXeXeXeXeXeX"
};
