/* XPM */
static char *result[] = {
/* columns rows colors chars-per-pixel */
"64 64 110 2 ",
"   c #010101",
".  c #0A0906",
"X  c #190E0A",
"o  c #14100E",
"O  c #1F120D",
"+  c #161716",
"@  c #141F18",
"#  c #1A1B1A",
"$  c #221A18",
"%  c #2D1E1A",
"&  c #17251C",
"*  c #1A251D",
"=  c #1A2A1F",
"-  c #31231E",
";  c #1E2D23",
":  c #1F3025",
">  c #272A27",
",  c #213227",
"<  c #25342A",
"1  c #2A372C",
"2  c #2A392D",
"3  c #2D3D31",
"4  c #353535",
"5  c #323D34",
"6  c #46281D",
"7  c #4E2E24",
"8  c #563326",
"9  c #5D3327",
"0  c #593629",
"q  c #613629",
"w  c #653C2D",
"e  c #693E2E",
"r  c #6A3F30",
"t  c #344236",
"y  c #364639",
"u  c #3A473C",
"i  c #39483C",
"p  c #644031",
"a  c #684230",
"s  c #764C33",
"d  c #7F553B",
"f  c #3E4B40",
"g  c #434643",
"h  c #444A45",
"j  c #474B48",
"k  c #4A4E4C",
"l  c #445447",
"z  c #465549",
"x  c #4A534D",
"c  c #49594B",
"v  c #4D5550",
"b  c #525654",
"n  c #525955",
"m  c #565658",
"M  c #58575A",
"N  c #5A595C",
"B  c #5F6D5E",
"V  c #60705F",
"C  c #625E64",
"Z  c #646465",
"A  c #676768",
"S  c #69686A",
"D  c #6E7E6C",
"F  c #716D73",
"G  c #6F7171",
"H  c #737475",
"J  c #797A7B",
"K  c #87573B",
"L  c #87583B",
"P  c #8B5A3C",
"I  c #8E5E40",
"U  c #905F41",
"Y  c #8A614B",
"T  c #916244",
"R  c #96674A",
"E  c #976A4D",
"W  c #996C4F",
"Q  c #8E6850",
"!  c #996E50",
"~  c #9C7153",
"^  c #9C765D",
"/  c #71816F",
"(  c #738372",
")  c #7A837B",
"_  c #A88267",
"`  c #807D82",
"'  c #838985",
"]  c #8D878F",
"[  c #8C898D",
"{  c #8E928F",
"}  c #8F8991",
"|  c #939294",
" . c #949E92",
".. c #99969B",
"X. c #979898",
"o. c #9B999D",
"O. c #9E9CA0",
"+. c #A19FA3",
"@. c #A3A0A4",
"#. c #AAA7AC",
"$. c #B5B1B7",
"%. c #C4DFF4",
"&. c #C9DFF5",
"*. c #C5E0F4",
"=. c #C9E1F4",
"-. c #C5E7FD",
";. c #CBE1F9",
":. c #C5E9FD",
">. c #CCE8FC",
",. c #D2E8FD",
/* pixels */
"*.&.&.;.&.=.%.%.%.%.%.%.%.%.%.%.%.%.%.%.%.%.%.%.%.%.%.%.%.%.%.%.%.%.%.%.%.%.%.%.%.%.%.%.%.%.%.%.%.%.%.%.%.%.%.%.%.%.%.%.%.%.%.%.",
"=.;.;.,.%.=.&.%.&.*.%.%.%.%.%.*.%.%.%.%.%.%.%.%.%.%.%.%.%.%.%.%.%.%.%.%.%.%.%.%.%.%.%.%.%.%.%.%.%.%.%.%.%.%.%.%.%.%.%.%.%.%.%.%.",
":.%.=.%.&.=.=.=.&.&.*.%.%.&.&.=.%.%.%.%.%.%.%.%.%.%.%.%.%.%.%.%.%.%.%.%.%.%.%.%.%.%.%.%.%.%.%.%.%.%.%.%.%.%.%.%.%.%.%.%.%.%.%.%.",
"*.*.>.=.&.=.=.=.:.*.;.&.;.:.=.*.%.%.%.%.%.%.%.%.%.%.%.%.%.%.%.%.%.%.%.%.%.%.%.%.%.%.%.%.%.%.%.%.%.%.%.%.%.%.%.%.%.%.%.%.%.%.%.%.",
"*.*.*.*.=.%.=.*.-.&.>.;.,.>.-.*.=.*.*.*.%.%.%.%.%.%.%.%.%.%.%.%.%.%.%.%.%.%.%.%.%.%.%.%.%.%.%.%.%.%.%.%.%.%.%.%.%.%.%.%.%.%.%.%.",
"*.&.*.%.*.*.*.&.&.&.%.>.&.:.&.*.%.%.*.*.%.%.%.%.%.%.%.%.%.%.%.%.%.%.%.%.%.%.%.%.%.%.%.%.%.%.%.%.%.%.%.%.%.%.%.%.%.%.%.%.%.%.%.%.",
"*.*.%.%.*.*.*.*.=.*.*.*.*.*.%.%.%.%.%.*.%.%.%.%.%.%.%.%.%.%.%.%.%.%.%.%.%.%.%.%.%.%.%.%.%.%.%.%.%.%.%.%.%.%.%.%.%.%.%.%.%.%.%.%.",
"*.*.%.*.*.%.%.*.=.*.*.*.*.%.%.%.%.%.*.%.%.%.%.%.%.%.%.%.%.%.%.%.%.%.%.%.%.%.%.%.%.%.%.%.%.%.%.%.%.%.%.%.%.%.%.%.%.%.%.%.%.%.%.%.",
"*.*.*.*.*.*.*.*.%.*.%.%.*.%.%.%.%.%.%.%.%.%.%.%.%.%.%.%.%.%.%.%.%.*.*.*.*.%.%.%.%.%.%.%.%.%.%.%.%.%.%.%.%.%.%.%.%.%.%.%.%.%.%.%.",
"*.*.*.*.*.*.*.*.%.=.%.*.*.%.%.%.%.%.%.%.%.%.%.%.%.%.X.o o v x x h x v . X.X.*.%.%.%.%.%.%.%.%.%.%.%.%.%.%.%.%.%.%.%.%.%.%.%.%.%.",
"%.*.*.*.*.*.%.*.*.*.*.*.&.*.*.%.%.&.&.%.%.%.%.    < t .... ./ / .. . .X.t y <   %.%.%.%.%.%.%.%.%.%.%.%.%.%.%.%.%.%.%.%.%.%.%.%.",
"*.%.*.*.%.*.*.*.*.%.*.*.*.*.*.*.%.%.%.%.%.%.%.    < t .... ./ ( o. . .| t t <   %.%.%.%.%.%.%.%.%.%.%.%.%.%.%.%.%.%.%.%.%.%.%.%.",
"%.%.*.*.*.*.*.*.%.%.%.%.*.*.*.=.*.*.%.%.%.%.  5 5 }  .{ { @.( ( ( @.@.[ $.$.] i     *.*.%.%.%.%.%.%.%.%.%.%.%.%.%.%.%.%.%.%.%.%.",
"*.%.*.=.*.*.*.*.=.%.%.%.%.*.*.&.%.%.*.%.2 2 @.' ' ) > 6 6 q q q q q q 6 > > ' ) @.#.4 %.%.%.%.%.%.%.%.%.%.%.%.%.%.%.%.%.%.%.%.%.",
"*.*.*.*.%.%.*.*.%.%.%.=.&.*.%.%.%.%.%.%.1 2 @.' ' ) > 6 6 q q q q q q 6 > > ) ) @.@.5 %.%.%.%.%.%.%.%.%.%.%.%.%.%.%.%.%.%.%.%.%.",
"*.*.*.*.%.*.=.*.%.%.%.&.%.*.%.%.%.%.%.  c c ] ` ` 7 q 9 q q q q q q q q 9 9 0 J } } z     %.%.%.%.%.%.%.%.%.%.%.%.%.%.%.%.%.%.%.",
"%.%.%.%.%.%.%.%.%.%.%.%.%.%.%.%.%.+ # f ) ) V X X q e Y Y ~ w w P 9 q P q q q O n n ' f f + %.%.%.%.%.%.%.%.%.%.%.%.%.%.%.%.%.%.",
"%.%.%.%.%.%.%.%.%.%.%.%.%.%.%.%.*.: , [ | | 9 w q ^ ~ Y Y ~ w w T 9 q P q q P w 8 0 O.} } : %.%.%.%.%.%.%.%.%.%.%.%.%.%.%.%.%.%.",
"%.%.%.%.%.%.%.%.%.%.%.%.%.%.%.%.*.; : [ | X.9 q w ^ ~ Y Y ~ w w T 9 9 P q q P w 8 8 o.} } , %.%.%.%.%.%.%.%.%.%.%.%.%.%.%.%.%.%.",
"%.%.%.%.%.%.%.%.%.%.%.%.%.%.%.%.*.t t : t t q P P ^ P Y Y P w w P 9 9 T q q P w q 9 h , , 2 %.%.%.%.%.%.%.%.%.%.%.%.%.%.%.%.%.%.",
"%.%.%.%.%.%.%.%.%.%.%.%.%.%.%.%.*.y t H x k _ P P ^ P Y Y P w p P 9 9 T q q P e P P m H H y *.*.%.%.%.%.%.%.%.%.%.%.%.%.%.%.%.%.",
"%.%.%.%.%.%.%.%.%.%.%.%.%.%.%.%.*.t t H k k _ P P ^ U Y Y P w w P 9 q T q q P e P P m H H t *.*.%.%.%.%.%.%.%.%.%.%.%.%.%.%.%.%.",
"%.%.%.%.%.%.%.%.%.%.%.%.%.%.%.%.*.y u } h h _ P P ^ ~ Y Y P w w P 9 9 T q q K r $ $ k } ] y %.%.%.%.%.%.%.%.%.%.%.%.%.%.%.%.%.%.",
"%.%.%.%.%.%.%.%.%.%.%.%.%.%.%.%.*.2 2 +.M N _ P P ^ ~ Y Y ~ w w ! 9 9 a - - - - $ $ S @.@.: %.%.%.%.%.%.%.%.%.%.%.%.%.%.%.%.%.%.",
"%.%.%.%.%.%.%.%.%.%.%.%.%.%.%.%.*.2 2 @.M N _ P U ^ ~ Y Y ~ p p W 9 9 a - - - - $ $ A @.@., %.%.%.%.%.%.%.%.%.%.%.%.%.%.%.%.%.%.",
"%.%.%.%.%.%.%.%.%.%.%.%.%.%.%.%.*.: : F M M _ P P ^ ~ Y Y ~ w w T 9 9 P q q P w P P A F F < *.*.%.%.%.%.%.%.%.%.%.%.%.%.%.%.%.%.",
"%.%.%.%.%.%.%.%.%.%.%.%.%.%.%.%.%.: : t & & _ P P ^ ~ Y Y ~ w w T 9 9 P q q P e P P & 2 2 = *.*.%.%.%.%.%.%.%.%.%.%.%.%.%.%.%.%.",
"%.%.%.%.%.%.%.%.%.%.%.%.%.%.%.%.%.: : t & & _ P P ^ ~ Y Y ~ w w T 9 9 P q q P e L K @ 2 2 : *.*.%.%.%.%.%.%.%.%.%.%.%.%.%.%.%.%.",
"%.%.%.%.%.%.%.%.%.%.%.%.%.%.%.%.%.y y | x k _ T I ^ ~ Y Y P p w U 9 q P q q P w P P M | | : %.%.%.%.%.%.%.%.%.%.%.%.%.%.%.%.%.%.",
"%.%.%.%.%.%.%.%.%.%.%.%.%.%.%.%.%.: : ] 1 1 _ P P ^ L Y Y P w w P 9 q P q q P w L L t D / & %.%.%.%.%.%.%.%.%.%.%.%.%.%.%.%.%.%.",
"%.%.%.%.%.%.%.%.%.%.%.%.%.%.%.%.%.: : [ 1 1 _ P P ^ P Y Y P p w P 9 q P q q P w L I 3 / D & %.%.%.%.%.%.%.%.%.%.%.%.%.%.%.%.%.%.",
"%.%.%.%.%.%.%.%.%.%.%.%.%.%.%.%.%.t t $.m N _ E E ^ ~ Y Y P w w P 9 q P q q P w L I Z $.$.: %.%.%.%.%.%.%.%.%.%.%.%.%.%.%.%.%.%.",
"%.%.%.%.%.%.%.%.%.%.%.%.%.%.%.%.%.y y G N N _ P L ^ ~ Y Y ~ w w P 9 9 P q q P w P P A G G u %.%.%.%.%.%.%.%.%.%.%.%.%.%.%.%.%.%.",
"%.%.%.%.%.%.%.%.%.%.%.%.%.%.%.%.%.y y G N N _ P P ^ ~ Y Y ~ w w P 9 9 P q q P w P P A G G u %.%.%.%.%.%.%.%.%.%.%.%.%.%.%.%.%.%.",
"%.%.%.%.%.%.%.%.%.%.%.%.%.%.%.%.%.: , u # & _ $ $ $ # Y Y ~ p w E 9 9 P q q P e P P * 3 t , &.%.%.%.%.%.%.%.%.%.%.%.%.%.%.%.%.%.",
"%.%.%.%.%.%.%.%.*.%.%.%.%.%.%.%.*.y y ] j j _ s s Q s Y Y I w w T 9 9 T q q P e P P b [ [ , %.%.%.%.%.%.%.%.%.%.%.%.%.%.%.%.%.%.",
"%.%.%.%.%.%.%.%.%.%.%.%.%.%.%.%.*.3 3 [ j g _ P P ^ T Y Y P r w P 9 9 P q q P e P P t D / & %.%.%.%.%.%.%.%.%.%.%.%.%.%.%.%.%.%.",
"%.%.%.%.%.%.%.%.%.%.%.%.%.%.%.%.*.3 3 ] h h _ P P ^ T Y Y L w w P 9 9 P q q P w L P t D D & %.%.%.%.%.%.%.%.%.%.%.%.%.%.%.%.%.%.",
"%.%.%.%.%.%.%.%.%.%.%.%.%.%.%.%.%.5 3 O.b b _ T P ^ ~ Y Y I r w U 9 q U q q P w P P Z +.O., %.%.%.%.%.%.%.%.%.%.%.%.%.%.%.%.%.%.",
"%.%.%.%.%.%.%.%.%.%.%.%.%.%.%.%.%.3 3 @.N N _ W ~ ^ ~ Y Y ~ w w E 9 q P q q P w P P Z +.O.4 %.%.%.%.%.%.%.%.%.%.%.%.%.%.%.%.%.%.",
"%.%.%.%.%.%.%.%.%.%.%.%.%.%.%.%.%.3 2 @.N N _ ! ! ^ ~ Y Y ~ w w ! 9 9 P q q P w P P C +.+.4 %.%.%.%.%.%.%.%.%.%.%.%.%.%.%.%.%.%.",
"%.%.%.%.%.%.%.%.%.%.%.%.%.%.%.%.%.: : } 2 1 _ L L ^ ~ Y Y ~ w w ! 9 q U q q P w P P 5 } } , %.%.%.%.%.%.%.%.%.%.%.%.%.%.%.%.%.%.",
"%.%.%.%.%.%.%.%.%.%.%.%.%.%.%.%.%.3 2 D N N _ E R ^ T Y Y P w w ! 9 9 U q q P e P P Z D / t %.%.%.%.%.%.%.%.%.%.%.%.%.%.%.%.%.%.",
"%.%.%.%.%.%.%.%.%.%.%.%.%.%.%.%.%.3 3 / N N _ R E ^ T Y Y P w w E 9 9 U q q P e P P Z / D t %.%.%.%.%.%.%.%.%.%.%.%.%.%.%.%.%.%.",
"%.%.%.%.%.%.%.%.%.%.%.%.%.%.%.%.*.5 t @.m b _ P P ^ P Y Y L w p P 9 9 R 9 q K r $ $ C @.@.1 %.%.%.%.%.%.%.%.%.%.%.%.%.%.%.%.%.%.",
"%.%.%.%.%.%.%.%.%.%.%.%.%.%.%.%.%.t 5 5 * * _ P P ^ ~ Y Y ~ w w P 9 9 p % % % % $ $ = u f 5 %.%.%.%.%.%.%.%.%.%.%.%.%.%.%.%.%.%.",
"%.%.%.%.%.%.%.%.%.%.%.%.%.%.%.%.%.3 5 3 * * _ P P ^ ~ Y Y ~ w w P 9 9 r % % % % $ $ * g f 5 *.%.%.%.%.%.%.%.%.%.%.%.%.%.%.%.%.%.",
"%.%.%.%.%.%.%.%.%.%.%.%.%.%.%.%.%.z l +.j h _ P L ^ I Y Y ~ w w P 9 9 T q q d w K P 1 O.+.= %.%.%.%.%.%.%.%.%.%.%.%.%.%.%.%.%.%.",
"%.%.%.%.%.%.%.%.%.%.%.%.%.%.%.%.%.; : [ f g _ ! ! ^ T Y Y ~ r w P 9 9 P q q W w P P 5 [ [ t %.%.%.%.%.%.%.%.%.%.%.%.%.%.%.%.%.%.",
"%.%.%.%.%.%.%.%.%.%.%.%.%.%.%.%.*.; : [ f g _ ! ! ^ T Y Y ~ r w P 9 9 K q q W e P K 5 [ [ t %.%.%.%.%.%.%.%.%.%.%.%.%.%.%.%.%.%.",
"%.%.%.%.%.%.%.%.%.%.%.%.%.%.%.%.%.2 2 #.m m _ ! ! ^ T Y Y L w w P 9 q P q q P e P P g #.#.< %.%.%.%.%.%.%.%.%.%.%.%.%.%.%.%.%.%.",
"%.%.%.%.%.%.%.%.%.%.%.%.%.%.%.%.%.y t B N N _ L P ^ T Y Y L w w ! 9 q P q q P w P P A B B 2 %.%.%.%.%.%.%.%.%.%.%.%.%.%.%.%.%.%.",
"%.%.%.%.%.%.%.%.%.%.%.%.%.%.%.%.%.y y B N N _ L P ^ T Y Y P r r ~ q 9 P q q P w P P A B B < *.%.%.%.%.%.%.%.%.%.%.%.%.%.%.%.%.%.",
"%.%.%.%.%.%.%.%.%.%.%.%.%.%.%.%.*.g g 4 4 4 4 4 4 4 4 4 4 4 4 4 4 4 4 4 4 4 4 4 4 4 4 4 4 g *.%.%.%.%.%.%.%.%.%.%.%.%.%.%.%.%.%.",
"%.%.%.%.%.%.%.%.%.%.%.%.%.%.%.%.%.%.*.*.*.*.%.%.%.%.%.%.%.%.%.%.%.%.%.%.%.%.%.%.%.%.&.%.%.%.%.%.%.%.%.%.%.%.%.%.%.%.%.%.%.%.%.%.",
"%.%.%.%.%.%.%.%.%.%.%.%.%.%.%.%.%.%.%.*.*.*.%.%.%.%.%.%.%.%.%.%.%.%.%.%.%.%.%.%.%.%.%.%.%.%.%.%.%.%.%.%.%.%.%.%.%.%.%.%.%.%.%.%.",
"%.%.%.%.%.%.%.%.%.%.%.%.%.%.%.%.%.%.%.%.%.%.%.%.%.%.%.%.%.%.%.%.%.%.%.%.%.%.%.%.%.%.%.%.%.%.%.%.%.%.%.%.%.%.%.%.%.%.%.%.%.%.%.%.",
"%.%.%.%.%.%.%.%.%.%.%.%.%.%.%.%.%.%.%.%.%.%.%.%.%.%.%.%.%.%.%.%.%.%.%.%.%.%.%.%.%.%.%.%.%.%.%.%.%.%.%.%.%.%.%.%.%.%.%.%.%.%.%.%.",
"%.%.%.%.%.%.%.%.%.%.%.%.%.%.%.%.%.%.%.%.%.%.%.%.%.%.%.%.%.%.%.%.%.%.%.%.%.%.%.%.%.%.%.%.%.%.%.%.%.%.%.%.%.%.%.%.%.%.%.%.%.%.%.%.",
"%.%.%.%.%.%.%.%.%.%.%.%.%.%.%.%.%.%.%.%.%.%.%.%.%.%.%.%.%.%.%.%.%.%.%.%.%.%.%.%.%.%.%.%.%.%.%.%.%.%.%.%.%.%.%.%.%.%.%.%.%.%.%.%.",
"%.%.%.%.%.%.%.%.%.%.%.%.%.%.%.%.%.%.%.%.%.%.%.%.%.%.%.%.%.%.%.%.%.%.%.%.%.%.%.%.%.%.%.%.%.%.%.%.%.%.%.%.%.%.%.%.%.%.%.%.%.%.%.%.",
"%.%.%.%.%.%.%.%.%.%.%.%.%.%.%.%.%.%.%.%.%.%.%.%.%.%.%.%.%.%.%.%.%.%.%.%.%.%.%.%.%.%.%.%.%.%.%.%.%.%.%.%.%.%.%.%.%.%.%.%.%.%.%.%.",
"%.%.%.%.%.%.%.%.%.%.%.%.%.%.%.%.%.%.%.%.%.%.%.%.%.%.%.%.%.%.%.%.%.%.%.%.%.%.%.%.%.%.%.%.%.%.%.%.%.%.%.%.%.%.%.%.%.%.%.%.%.%.%.%.",
"%.%.%.%.%.%.%.%.%.%.%.%.%.%.%.%.%.%.%.%.%.%.%.%.%.%.%.%.%.%.%.%.%.%.%.%.%.%.%.%.%.%.%.%.%.%.%.%.%.%.%.%.%.%.%.%.%.%.%.%.%.%.%.%."
};
