/* XPM */
static char *result[] = {
/* columns rows colors chars-per-pixel */
"64 64 107 2 ",
"   c #010101",
".  c #0A0906",
"X  c #190E0A",
"o  c #14100E",
"O  c #1F120D",
"+  c #161716",
"@  c #141F18",
"#  c #1A1B1A",
"$  c #221A18",
"%  c #2D1E1A",
"&  c #17251C",
"*  c #19251D",
"=  c #1A2A1F",
"-  c #31231E",
";  c #1E2E23",
":  c #1F3025",
">  c #272A27",
",  c #213227",
"<  c #253429",
"1  c #2A372C",
"2  c #2A392E",
"3  c #2D3D31",
"4  c #353535",
"5  c #323E34",
"6  c #46281D",
"7  c #4E2E24",
"8  c #563326",
"9  c #5D3327",
"0  c #593629",
"q  c #613629",
"w  c #653C2D",
"e  c #693D2E",
"r  c #6A3F30",
"t  c #344236",
"y  c #364639",
"u  c #3A473C",
"i  c #39483D",
"p  c #644031",
"a  c #684230",
"s  c #764C33",
"d  c #7F553B",
"f  c #3E4B40",
"g  c #434744",
"h  c #444A45",
"j  c #464B48",
"k  c #4A4E4C",
"l  c #465549",
"z  c #4A534D",
"x  c #4F4D50",
"c  c #4D5550",
"v  c #525654",
"b  c #535955",
"n  c #565658",
"m  c #58575A",
"M  c #5A595C",
"N  c #5F6D5E",
"B  c #60705F",
"V  c #625E64",
"C  c #646365",
"Z  c #676768",
"A  c #69696B",
"S  c #6D716F",
"D  c #6E7E6C",
"F  c #716D73",
"G  c #6F7171",
"H  c #737475",
"J  c #797A7B",
"K  c #87573B",
"L  c #8B5A3C",
"P  c #8E5E40",
"I  c #905F41",
"U  c #8A614B",
"Y  c #916144",
"T  c #96674A",
"R  c #976A4D",
"E  c #996C4F",
"W  c #8E6850",
"Q  c #996E50",
"!  c #9B7053",
"~  c #9D765D",
"^  c #71816F",
"/  c #738372",
"(  c #7A837B",
")  c #A88267",
"_  c #807D82",
"`  c #828984",
"'  c #8D878F",
"]  c #8C898E",
"[  c #8E928F",
"{  c #8F8991",
"}  c #929294",
"|  c #949E92",
" . c #969498",
".. c #99969B",
"X. c #979898",
"o. c #9B999D",
"O. c #9E9CA0",
"+. c #A19FA3",
"@. c #A2A0A4",
"#. c #AAA7AC",
"$. c #B3AFB5",
"%. c #B5B1B7",
"&. c #C4DFF4",
"*. c #C8DFF3",
"=. c #C5E0F4",
"-. c #C9E0F4",
";. c #CAE0F8",
/* pixels */
"&.&.&.&.&.&.&.&.&.&.&.&.&.&.&.&.=.=.=.&.&.&.&.&.&.&.&.&.&.&.&.&.&.&.&.&.&.&.&.&.&.&.&.&.&.&.&.&.&.&.&.&.&.&.&.&.&.&.&.&.&.&.&.&.",
"&.=.=.-.-.&.-.&.=.=.&.&.&.&.&.&.=.=.&.&.&.&.&.&.&.&.&.&.&.&.&.&.&.&.&.&.&.&.&.&.&.&.&.&.&.&.&.&.&.&.&.&.&.&.&.&.&.&.&.&.&.&.&.&.",
"&.=.=.-.-.=.=.=.=.=.=.&.&.&.&.&.=.=.&.&.&.&.&.&.&.&.&.&.&.&.&.&.&.&.&.&.&.&.&.&.&.&.&.&.&.&.&.&.&.&.&.&.&.&.&.&.&.&.&.&.&.&.&.&.",
"&.-.-.-.-.=.=.=.&.=.=.&.&.&.&.&.=.=.&.&.&.&.&.&.&.&.&.&.&.&.&.&.&.&.&.&.&.&.&.&.&.&.&.&.&.&.&.&.&.&.&.&.&.&.&.&.&.&.&.&.&.&.&.&.",
"&.&.-.-.-.=.=.=.=.=.&.&.&.&.&.&.&.&.&.&.&.&.&.&.&.&.&.&.&.&.&.&.&.&.&.&.&.&.&.&.&.&.&.&.&.&.&.&.&.&.&.&.&.&.&.&.&.&.&.&.&.&.&.&.",
"&.&.=.=.=.=.&.&.=.=.&.&.&.&.&.&.=.&.&.&.&.&.&.&.&.&.&.&.&.&.&.&.&.&.&.&.&.&.&.&.&.&.&.&.&.&.&.&.&.&.&.&.&.&.&.&.&.&.&.&.&.&.&.&.",
"&.&.=.=.=.=.&.=.=.=.&.&.&.&.&.&.&.&.&.&.&.&.&.&.&.X.X.+ o c z z z f c c c .  .X.&.&.&.&.&.&.&.&.&.&.&.&.&.&.&.&.&.&.&.&.&.&.&.&.",
"&.=.=.=.=.&.=.=.&.&.=.-.=.-.&.*.&.&.&.&.&.&.    < t t .. .| D / / o.| | |  .t t 1     &.&.&.&.&.&.&.&.&.&.&.&.&.&.&.&.&.&.&.&.&.",
"&.=.=.=.=.=.=.&.*.*.=.=.=.;.&.&.&.&.&.&.&.&.    < t t ....| ^ / ^ o.| | |  .t t <     =.&.&.&.&.&.&.&.&.&.&.&.&.&.&.&.&.&.&.&.&.",
"&.=.*.=.=.&.&.&.=.-.=.=.=.&.&.&.&.&.&.&.&.&.    1 t t ....| ^ / ^ X.| | |  .t t <     =.&.&.&.&.&.&.&.&.&.&.&.&.&.&.&.&.&.&.&.&.",
"-.=.=.=.=.&.&.&.=.=.=.=.-.=.-.-.&.&.&.&.&.  5 5 { | | [ [ +./ / / / @.@.@.] $.$.' f i . . &.&.&.&.&.&.&.&.&.&.&.&.&.&.&.&.&.&.&.",
"-.=.=.=.=.&.&.=.&.*.=.=.-.&.=.=.&.&.2 2 1 O.` ` ( > > 6 6 q q q q q q q q 6 > > ( ( ( @.+.5 &.&.&.&.&.&.&.&.&.&.&.&.&.&.&.&.&.&.",
"=.=.=.=.*.&.&.=.*.&.&.&.-.&.&.&.=.&.3 2 3 @.` ` J > > 6 6 q q q q q q q q 6 > > ( ( ( @.@.4 &.&.&.&.&.&.&.&.&.&.&.&.&.&.&.&.&.&.",
"=.=.=.=.&.&.&.&.*.*.&.&.&.&.&.&.&.&.2 2 2 @.` ` / > > 6 6 q q q q q q q q 6 > > ` ( ( +.#.5 &.&.&.&.&.&.&.&.&.&.&.&.&.&.&.&.&.&.",
"=.*.*.=.&.&.&.*.*.*.=.&.=.=.&.&.&.  b f f  .~ _ 7 q q q q q q q q q q q q q q q 0 J J { { l       &.&.&.&.&.&.&.&.&.&.&.&.&.&.&.",
"=.=.=.=.&.&.&.&.*.*.=.&.=.=.# + & f ( ( ( B X X q e e U U ! w w w L 9 9 9 L q q q O O b v ` f f f + &.&.&.&.&.&.&.&.&.&.&.&.&.&.",
"=.=.&.&.&.&.&.&.&.&.&.&.&.&.: : : [  . . .0 0 w ~ ! ! U U ! w p w Y 9 9 q I q q L q w 8 9 o.{ { { , &.&.&.&.&.&.&.&.&.&.&.&.&.&.",
"=.&.&.&.&.&.&.&.&.&.&.&.&.&.: : : [  . . .8 w q ~ ! ! U U ! w w w I 9 9 q L q q L w w 8 8 O.{ { { < &.&.&.&.&.&.&.&.&.&.&.&.&.&.",
"=.&.&.&.&.&.&.&.&.&.&.&.&.&.: = : ]  . . .8 q q ~ ! ! U U ! w w w Y 9 9 9 L q q L w w 8 8 o.{ { { : &.&.&.&.&.&.&.&.&.&.&.&.&.&.",
"=.&.&.&.&.&.&.&.&.&.&.&.&.&.t t t : t t t w L L ~ L L U U L p w w L 9 9 q Y q q L w w 9 q h , , , 3 &.&.&.&.&.&.&.&.&.&.&.&.&.&.",
"=.&.&.&.&.&.&.&.&.&.&.&.=.=.t t t H k k k ) L L ~ L P U U L w w w L 9 9 9 Y q q L e e L L n H H H f &.&.&.&.&.&.&.&.&.&.&.&.&.&.",
"&.&.&.&.&.&.&.&.&.&.&.&.=.=.t t t H k k k ) L L ~ L L U U L p w w L 9 9 q Y q q L e q L L m H H G t &.&.&.&.&.&.&.&.&.&.&.&.&.&.",
"&.&.&.&.&.&.&.&.&.&.&.&.=.=.t y t H j k k ) L L ~ L L U U L w w p L 9 9 q I q q L e e L L M H H G t &.&.&.&.&.&.&.&.&.&.&.&.&.&.",
"&.&.&.&.&.&.&.&.&.&.&.&.&.&.y y y { j j j ) L L ~ ! ! U U L p w w L 9 9 q Y q q L e a $ $ x ' ' { f &.&.&.&.&.&.&.&.&.&.&.&.&.&.",
"=.&.&.&.&.&.&.&.&.&.&.&.&.&.t < 3 +.m m m ) P P ~ ! ! U U ! p w w E 9 9 9 a - - % - - $ $ A @.+.+.: &.&.&.&.&.&.&.&.&.&.&.&.&.&.",
"&.&.&.&.&.&.&.&.&.&.&.&.&.&.: t 2 +.M m m ) P P ~ ! ! U U ! w w w E 9 9 9 a - - - - - $ $ A @.@.+.: &.&.&.&.&.&.&.&.&.&.&.&.&.&.",
"&.&.&.&.&.&.&.&.&.&.&.&.&.&.< t 2 +.m M M ) P L ~ Q ! U U ! p w w E 9 9 9 a - - - - - $ $ A +.+.+.: &.&.&.&.&.&.&.&.&.&.&.&.&.&.",
"&.&.&.&.&.&.&.&.&.&.&.&.&.&.: : > F M M M ) L L ~ ! ! U U ! w w p Y 9 9 9 L q q L e e L L A F F G < &.&.&.&.&.&.&.&.&.&.&.&.&.&.",
"&.&.&.&.&.&.&.&.&.&.&.&.&.&.: : : t & & & ) L L ~ ! Q U U ! w w w Y 9 9 9 L q q L r r L d @ 3 2 3 ; &.&.&.&.&.&.&.&.&.&.&.&.&.&.",
"&.&.&.&.&.&.&.&.&.&.&.&.&.&.: : : t & & & ) L L ~ ! ! U U ! p w w Y 9 9 9 L q q K r r K P @ 2 2 2 ; &.&.&.&.&.&.&.&.&.&.&.&.&.&.",
"&.&.&.&.&.&.&.&.&.&.&.&.&.&.y y y } l k z ) P Y ~ ! ! U U P w w w Y 9 9 9 L q q L w 0 K P b [ } } , &.&.&.&.&.&.&.&.&.&.&.&.&.&.",
"&.&.&.&.&.&.&.&.&.&.&.&.&.&.y y y } k k k ) Y I ~ Q ! U U Y w w w Y 9 9 9 L q q K w w P P b } } [ , &.&.&.&.&.&.&.&.&.&.&.&.&.&.",
"&.&.&.&.&.&.&.&.&.&.&.&.&.&.: : : { 1 1 < ) L L ~ L L U U L w w w L 9 9 9 I q q L e e L L 5 D D D * *.*.&.&.&.&.&.&.&.&.&.&.&.&.",
"&.&.&.&.&.&.&.&.&.&.&.&.&.&.: : : { 1 1 2 ) L L ~ L L U U L w w w L 9 9 9 L q q L q q L L 5 D D D * &.*.&.&.&.&.&.&.&.=.&.&.&.&.",
"&.&.&.&.&.&.&.&.&.&.&.&.&.&.t t t %.m m m ) R R ~ Q Q U U L w p w L 9 9 9 P q q L e e L L C %.%.%.: &.&.&.&.&.&.&.&.&.&.&.&.&.&.",
"&.&.&.&.&.&.&.&.&.&.&.&.&.&.t t t %.m m m ) R R ~ ! ! U U L w w p L 9 9 9 I q q L w w L L Z %.%.%.: &.&.&.&.&.&.&.&.&.&.&.&.&.&.",
"&.&.&.&.&.&.&.&.&.&.&.&.&.=.y y y S M M M ) L L ~ ! ! U U ! w w a L 9 9 9 L q q L e w L L Z G S S y -.&.&.&.&.&.&.&.&.&.&.&.&.&.",
"&.&.&.&.&.&.&.&.&.&.&.&.&.&.y y y S M M M ) L L ~ ! ! U U ! w p w L 9 9 9 L q q L w w L L C G S S u &.&.&.&.&.&.&.&.&.&.&.&.&.&.",
"&.&.&.&.&.&.&.&.&.&.&.&.=.&.< : , u & @ & ) $ $ $ $ # U U ! w w w R 9 9 9 L q q L e a L L % 5 5 t , -.&.&.&.&.&.&.&.&.&.&.&.&.&.",
"&.&.&.&.&.&.&.&.&.&.&.&.=.=.y y y ' j j j ) s s W s s U U L p w w I 9 9 9 I q q L e a L L c ' ' ] , &.&.&.&.&.&.&.&.&.&.&.&.&.&.",
"&.&.&.&.&.&.&.&.&.&.&.&.&.&.y y y ' j j j ) s s U s s U U L w w a Y 9 9 9 Y q q L a e L L v ' ' ] : &.&.&.&.&.&.&.&.&.&.&.&.&.&.",
"&.&.&.&.&.&.&.&.&.&.&.&.&.&.3 3 3 ' j j g ~ L I ~ Y Y U U L p w w L 9 9 9 L q q L w w L L t D D D & &.&.&.&.&.&.&.&.&.&.&.&.&.&.",
"&.&.&.&.&.&.&.&.&.&.&.&.&.&.3 3 3 ' h j j ) L L ~ Y Y U U L w w w L 9 9 9 L q q L e e K L t D D D & &.&.&.&.&.&.&.&.&.&.&.&.&.&.",
"&.&.&.&.&.&.&.&.&.&.&.&.&.&.3 5 5 +.b v v ) P I ~ ! ! U U Y w w p L 9 9 q Y q q L q e L L V +.+.@.: &.&.&.&.&.&.&.&.&.&.&.&.&.&.",
"&.&.&.&.&.&.&.&.&.&.&.&.=.=.5 5 4 +.n n v ) Y I ~ ! ! U U Y w w w L 9 9 9 Y q q L e q L L V +.+.@., &.&.&.&.&.&.&.&.&.&.&.&.&.&.",
"&.&.&.&.&.&.&.&.&.&.&.&.=.=.2 3 3 +.M M M ~ Q Q ~ ! ! U U ! w p p E 9 9 9 I q q L q w L L C +.+.@.3 &.&.&.&.&.&.&.&.&.&.&.&.&.&.",
"&.&.&.&.&.&.&.&.&.&.&.&.&.&.3 3 3 @.M M M ) Q Q ~ ! ! U U ! w w e E 9 9 9 L q q L w w L L C @.@.O.5 &.&.&.&.&.&.&.&.&.&.&.&.&.&.",
"&.&.&.&.&.&.&.&.&.&.&.&.&.&.: ; , { 1 1 1 ) L I ~ ! ! U U ! w w w E 9 9 9 I q q L e w L L 5 { { { , &.&.&.&.&.&.&.&.&.&.&.&.&.&.",
"&.&.&.&.&.&.&.&.&.&.&.&.&.&.2 t 3 D M M V ~ T T ~ Y Y U U K w w w E 9 9 9 I q q L e e L L C D ^ D t &.&.&.&.&.&.&.&.&.&.&.&.&.&.",
"&.&.&.&.&.&.&.&.&.&.&.&.&.&.2 2 3 D M M V ) T T ~ Y Y U U L w w w E 9 9 9 Y q q L e e L L C D D D t &.&.&.&.&.&.&.&.&.&.&.&.&.&.",
"&.&.&.&.&.&.&.&.&.&.&.&.&.&.t : 3 D M M M ) T T ~ Y Y U U L w w w E 9 9 9 Y q q L e e L L C D D D t &.&.&.&.&.&.&.&.&.&.&.&.&.&.",
"&.&.&.&.&.&.&.&.&.&.&.&.&.&.t y 5 +.b b n ) L L ~ L L U U L w w w L 9 9 9 Y q q L e e $ $ V @.@.@.2 &.&.&.&.&.&.&.&.&.&.&.&.&.&.",
"&.&.&.&.&.&.&.&.&.&.&.&.&.&.t t 5 t * * * ) L L ~ Q ! U U ! w p p L 9 9 9 p % % % % % O $ > f f h 3 &.&.&.&.&.&.&.&.&.&.&.&.&.&.",
"&.&.&.&.&.&.&.&.&.&.&.&.&.&.t 3 5 3 & * * ) L L ~ ! ! U U ! w w w L 9 9 9 w % % % % % $ $ = f f f 5 &.&.&.&.&.&.&.&.&.&.&.&.&.&.",
"&.&.&.&.&.&.&.&.&.&.=.=.=.=.3 t 5 3 * * * ) L L ~ ! ! U U ! e w w L 9 9 9 w % % % % % $ $ = f f f 3 &.&.&.&.&.&.&.&.&.&.&.&.&.&.",
"&.&.&.&.&.&.&.&.&.&.=.=.=.=.f f l +.j j j ) L L ~ L L U U ! e w w L 9 9 q Y q q K q w L K 1 O.o.O.; &.&.&.&.&.&.&.&.&.&.&.&.&.&.",
"&.&.&.&.&.&.&.&.&.&.&.=.&.&.: : ; { f g f ~ Q Q ~ Y Y U U ! p w w L 9 9 9 L q q E e w L L 4 ] ] ' t &.&.&.&.&.&.&.&.&.&.&.&.&.&.",
"&.&.&.&.&.&.&.&.&.&.&.&.&.&.: : ; ' g f j ) Q Q ~ Y Y U U ! w w w L 9 9 9 L q q E e w K L 4 ] ] ' t &.&.&.&.&.&.&.&.&.&.&.&.&.&.",
"&.&.&.&.&.&.&.&.&.&.&.&.&.&.: : ; ' g f j ) ~ Q ~ Y Y U U ! w w p L 8 9 9 L q q E e w K L 4 ] ] { t &.&.&.&.&.&.&.&.&.&.&.&.&.&.",
"&.&.&.&.&.&.&.&.&.&.&.&.&.&.2 < < #.n n m ~ Q Q ~ Y Y U U L w w w L 9 9 9 L q q L w w L L g #.#.#.< &.&.&.&.&.&.&.&.&.&.&.&.&.&.",
"&.&.&.&.&.&.&.&.&.&.&.&.&.&.y y y N M m M ) L L ~ Y Y U U L a e a ! 9 9 9 L q q L e e L K A N N N 2 &.&.&.&.&.&.&.&.&.&.&.&.&.&.",
"&.&.&.&.&.&.&.&.&.&.&.&.&.&.y y y N M N M ) L P ~ Y Y U U L w w w ! 9 9 9 L q q L w w L P A N N N 2 &.&.&.&.&.&.&.&.&.&.&.&.&.&.",
"&.&.&.&.&.&.&.&.&.&.&.&.&.&.f f h 4 4 4 4 4 4 4 4 4 4 4 4 4 4 4 4 4 4 4 4 4 4 4 4 4 4 4 4 4 4 4 4 g &.&.&.&.&.&.&.&.&.&.&.&.&.&.",
"&.&.&.&.&.&.&.&.&.&.&.&.&.&.g j h 4 4 4 4 4 4 4 4 4 4 4 4 4 4 4 4 4 4 4 4 4 4 4 4 4 4 4 4 4 4 4 4 f &.&.&.&.&.&.&.&.&.&.&.&.&.&."
};
