/* XPM */
static char *_c1dcbfa744c4c64981d7249418f8368VHHNsQH3v9ZUxjrz_2[] = {
/* columns rows colors chars-per-pixel */
"50 50 221 2 ",
"   c None",
".  c #000100",
"X  c #3A262A",
"o  c #593B3D",
"O  c #4F4137",
"+  c #734D51",
"@  c #C40000",
"#  c #CD1404",
"$  c #D2280A",
"%  c #D23301",
"&  c #D93907",
"*  c #D03115",
"=  c #D74013",
"-  c #E14407",
";  c #E44B09",
":  c #EC5706",
">  c #E4520C",
",  c #E24913",
"<  c #FB6B05",
"1  c #E97011",
"2  c #EC7818",
"3  c #D64421",
"4  c #E15126",
"5  c #E25235",
"6  c #DC612F",
"7  c #836146",
"8  c #9B7554",
"9  c #B96D5A",
"0  c #A17454",
"q  c #895863",
"w  c #9B6470",
"e  c #A26D74",
"r  c #B17D7A",
"t  c #DB6E46",
"y  c #D46C5E",
"u  c #DA726B",
"i  c #E47166",
"p  c #E1716D",
"a  c #6EB82D",
"s  c #1F8F77",
"d  c #3A9D7E",
"f  c #75AC63",
"g  c #F38F1E",
"h  c #FA952F",
"j  c #9C8E46",
"k  c #B88B53",
"l  c #81B05F",
"z  c #AF8A6D",
"x  c #A49C64",
"c  c #AA8F7F",
"v  c #B29770",
"b  c #B59F71",
"n  c #CE8055",
"m  c #CF895A",
"M  c #CB8F5B",
"N  c #DD8059",
"B  c #CF9D50",
"V  c #E7874A",
"C  c #E88F4E",
"Z  c #FF8A43",
"A  c #E48853",
"S  c #E49E5F",
"D  c #FE9B52",
"F  c #E2B14E",
"G  c #FFA250",
"H  c #F3AF54",
"J  c #CD8260",
"K  c #C68A6D",
"L  c #CE8877",
"P  c #DC8579",
"I  c #DD9D76",
"U  c #EE866E",
"Y  c #E49D78",
"T  c #C2A16A",
"R  c #D6A765",
"E  c #ECA76D",
"W  c #E3A472",
"Q  c #8FC059",
"!  c #ADCC75",
"~  c #BDD974",
"^  c #004482",
"/  c #2E7AA7",
"(  c #397FAD",
")  c #2A6CB4",
"_  c #588894",
"`  c #758496",
"'  c #4884AD",
"]  c #528BB3",
"[  c #5798BA",
"{  c #6C98AB",
"}  c #6691B7",
"|  c #6396BB",
" . c #6E9CBB",
".. c #779ABB",
"X. c #6BA0A5",
"o. c #62B0AE",
"O. c #67A2BF",
"+. c #75C1B0",
"@. c #7DCEB5",
"#. c #1C8DC4",
"$. c #6EACCA",
"%. c #79ADC6",
"&. c #64AFDE",
"*. c #7ABDE8",
"=. c #92908D",
"-. c #BE908A",
";. c #A99C9D",
":. c #9BB587",
">. c #B5A691",
",. c #A4BC9F",
"<. c #899EA9",
"1. c #8F95B6",
"2. c #8596B8",
"3. c #859EBB",
"4. c #9FA4A2",
"5. c #9BA0BF",
"6. c #BAB0B6",
"7. c #B2BAB6",
"8. c #B5BFBA",
"9. c #CE9792",
"0. c #CAAB8F",
"q. c #D5A587",
"w. c #DAA881",
"e. c #D2B487",
"r. c #DEB181",
"t. c #DCB087",
"y. c #D5AA9A",
"u. c #E7BB92",
"i. c #F3B390",
"p. c #DB97A8",
"a. c #D99EAF",
"s. c #DCAEAB",
"d. c #CEB3B1",
"f. c #C6BEB4",
"g. c #C3B2BA",
"h. c #D8BBB9",
"j. c #EEB2A1",
"k. c #E6B8A3",
"l. c #E0B0AA",
"z. c #E8B9B6",
"x. c #B9CB98",
"c. c #B1C5A4",
"v. c #BACBA5",
"b. c #F7C39B",
"n. c #DBE389",
"m. c #E7E49A",
"M. c #EBF397",
"N. c #C2C0A5",
"B. c #DAC3AC",
"V. c #CAD6A3",
"C. c #DCDEA3",
"Z. c #D8DBB5",
"A. c #EFC6A8",
"S. c #FAC7A5",
"D. c #F4C9A5",
"F. c #E0C5B7",
"G. c #EACFB1",
"H. c #FAD0B2",
"J. c #F9D6B6",
"K. c #89A5C1",
"L. c #82ACC7",
"P. c #95A3C0",
"I. c #9DA9C3",
"U. c #90B6CD",
"Y. c #88BAD1",
"T. c #AFAFC6",
"R. c #AAB4CC",
"E. c #BFB3C7",
"W. c #BCB2CB",
"Q. c #A2BCD1",
"!. c #C1ABC7",
"~. c #C9BACF",
"^. c #DBBFD4",
"/. c #EEBFD0",
"(. c #82C0C4",
"). c #98C0CE",
"_. c #9FC0D6",
"`. c #98C4D8",
"'. c #A5CEDC",
"]. c #A9C9D9",
"[. c #B2C5D1",
"{. c #BBC0D3",
"}. c #80C2ED",
"|. c #8DC9EE",
" X c #9FCCE0",
".X c #9DCBEC",
"XX c #92D5EC",
"oX c #9CD4F4",
"OX c #ADCDEB",
"+X c #ACD4E2",
"@X c #A6D8E5",
"#X c #B8DBE5",
"$X c #B1D9E8",
"%X c #A9DBF5",
"&X c #9DE6E8",
"*X c #BEE4ED",
"=X c #B2E8FB",
"-X c #C8C5C5",
";X c #D4C0CE",
":X c #D2DDDB",
">X c #EFCACA",
",X c #E4D4C3",
"<X c #F8D2D3",
"1X c #FED8D9",
"2X c #C4DCE1",
"3X c #D8DCEC",
"4X c #F7D9EB",
"5X c #CCEBEF",
"6X c #DCECE6",
"7X c #C4E8F1",
"8X c #C8F1F3",
"9X c #C8F1FF",
"0X c #D2FEF3",
"qX c #D5F6F9",
"wX c #D8F2F9",
"eX c #DFF8FC",
"rX c #E5FAF9",
"tX c #E8FDFC",
"yX c #F2FEFD",
"uX c #F9FFFF",
"iX c #FEFFFC",
/* pixels */
"tX+X X                                  (.  g g , g g , , g         , g g                     #X'.tX",
"  './ eXrX                            5X8X(.(., g g g g g g g g g , g g g g g g             yX$.$.  ",
"  eX+X X*XtXrX                        5X8X_ &X(.> , , , , % g g g g g % g , , g           rX#X X5X  ",
"  tX$XP.I.L.'.rX                    (.rX8X&X(._ g % , % % g g g , g , % % , % , g       *XL.1._.qX  ",
"    *XI.    T.L.7X                uX8XqX_ _ _ : g - & , g , , , , g , % , % % ,     tX+XK.    ].qX  ",
"    eX|         I.'.rX            uX&X(.8X(.% ; g - g g : ; ; , g , % 2 ; @ - g 8 tX].T.    iX'.    ",
"    tX[ ' ;XiX      Q.7X          & &X8X(._ % % g g : < < < g g , % % : D < @ g : 8 ;X    ;X' `.    ",
"      Y./ ( E.        R.$X        rX_ _ % % ; g : : : ; g g ; % 6 t.W > D @ % g , 8       ' / +X    ",
"      *X] ] ( T.        ~.].eX  j.8X(.&X(.% g ; ; g g g , % % t t.t.t., D @ % g , 8 iX  ] ( %.qX    ",
"      5X..  I.' 3.          Q.qXj.8X8X&X(.g , g g , , , % , I t.J.J., J.@ J.t., , 8   } }   U.      ",
"      tXO.      } ..  iX      Q.j.8X(._ g g g , , % % % , t.J.J.J.J., = = = = = , 8 ..3.iX  Y.      ",
"      tXY.W.      3.}         % % _ % g g , , % % w.t.t.J.= J.J., , i.S.t.t.t.J., 3.3.    W.`.      ",
"        7X..        T.| ^.    % % % % g , % % 9.e e r y.t.J.J.J.J.J.t.t.t.w.q.w.% 3.      K.7X      ",
"        rX]   iX      ;X{ N.~.% 8 8 g , % t.y.e w w w w -.H.J.J.J.J.J.w.r e e r % ,   iX  | tX      ",
"        tX[ ' E.        f.a ~ 8 J.J.g , % w.-.q q q w w e k.J.J.J.J.J.y.w w w w % ,     } [ yX      ",
"        tX`.' / } ^.  ;XV.  x.8 , , g % % t.c . . . X q w y.J.J.J.J.J.w q + o o % 0 ;X' / Y.yX      ",
"        tX XT.;X..] 3.:.iX    v., , g % , t.r.J.A.0.. . . A.J.J.J.J.J.. . . . . c 8 ] P.  '.        ",
"          $XI.      ;Xf Q m.    , , , g t.t.u.J.J.J.J.A.0.J.J.J.J.J.A.O 0.H.J.J.J.8     !.+X        ",
"          5X..        8.  V.v.C.H , g g t.t.D.J.J.J.J.J.J.J.J.J.J.J.J.J.J.J.J.J.t.8     2.#X        ",
"          rX$XK.~.iX  ;XC.    V.T ).8 g t.t.D.J.J.J.J.J.J.J.J.J.J.J.J.J.J.J.J.J.8   iXI.`.qX        ",
"            rXeX`.| I.  7.iX    b 7Xg g t.>X>XJ.J.J.J.J.J.J.J.8 J.J.J.J.J.J.J.t.8 W.| @XtX          ",
"                tXwXY.[ } c.    R `.g g 8 >X1Xs.J.J.J.J.J.7 J.J.J.0.J.J.J.J.t.J.] $.5XtX            ",
"                      rX+X%.X.V.g g g g rX>X1Xs.J.J.J.J.J.J.7 7 7 J.J.J.J.t.8 g *XtX                ",
"                          tX7X`.=.v <.g rX>X1X<Xs.t.t.J.J.J.J.J.J.J.J.t.t.8 #Xg                     ",
"                                F.+X%.g 7Xs.1X<Xs.8 8 t.t.t.t.t.t.t.t.t.8 tX  g g                   ",
"        rXrXrX5X+X+X5XrX        , = E h.g $X>X1X<Xs.#X8 8 8 8 8 8 8 8 8       g g qX+X$XeXrXrX      ",
"        rXrX+X' E.T.K.L.`.#XqXl.N = 1 # 3 g s.1X<Xs.XX=Xt.t.t.9XXXS , $     eX$Xg K.W.2.%.qX        ",
"          eXeXO.} iX      ~.R.6.[.:XG.y = , 2 1X<X>XXX=X4XJ.J.a.XX2 6 l.5X].iX^.g   iX] +XyX        ",
"              eX[ 3.T.L iXE.j x K J e.f.:X,XW s.1X<Xs.4X4Xp.4X/.a.8 8 0.Z.,.l 6.g E...%.yX          ",
"                wX .    U ~.iXF n R m K 4. X*Xs.1X<Xs.XX,XJ.J.G.*Xt.J.8 8 n.g g     K.qX            ",
"                  2X3.    Y k B n R m 4.wXwX8 s.1X<X>Xd.iX^ ` iX@.=XiXJ.8 S ! ;XiX5.#X              ",
"                  tXY...T.W.v M N H A >.7XwX0 >X1X<X>Xh.@.^ B.o.@.d @.d J.s.:.E.P.%.qX              ",
"                    eX .iX  p w.J C V V >.+Xs.<X<X<X>Xd.d iX^ +.d iXd @.1X>X  iXI.$X                ",
"                      $XI.  i iXp r ;.f.f.w.3 s.z.z.s.d d d d d d d d h.1X1Xs.  _.5X                ",
"                      tX'.{.9.g.2X-XP 3 , 2 $ d d.s.@.@.iX@.@.@.d @.@.d z.z.z.s.#X                  ",
"                        tX6XF.u 5 ; $ % iX1 @.d iX@.=Xd d @.=X@.iX=X>X>X1X1Xs.s.M.iX                ",
"                          G & # Z G 4 Z h 1 $ $ =X=XXX=Xd XX=X#.}.}.>X1Xz.<Xs.J.iX                  ",
"                          M.$ # Z ; $ % 1 2 9X=X=XiXXX9X=X=X#.&.iXJ.>Xz.z.s.J.J.z }.iX              ",
"                          h , # % , , 1 iX=X9 $ XXXX=X9X=X}.uXJ.J.J.s.z.z.t.t.J.J.z OX}.            ",
"                          M.  # % , % 1 % % iX$ #.XX=XiX#.}.}.t.t.t.J.s.s.t.t.J.J.z #.h ,           ",
"                          h   $ % 2 % 2 % % , #.#.#.#.}.}.#.J.t.iXJ.J.J.J.8 t.t.J.J.z 2 G 2         ",
"                          )   , % 1 % 2 , % % &.}.&.#.}.}.t.J.8 t.J.J.J.J.J.3Xt.t.J.oX1 , h , G ,   ",
"                          )     % , 2 1 , $ % #.}.&.}.#.iX}.J.t.8 J.J.J.J.b..X8 t.J.oXz % G   G     ",
"                            ,     % 2 , % $ % #.&.}.&.}.#.}.J.t.t.8 J.J.J.J.J.}.8 t.oXJ.oX1 %       ",
"                                  % % 2 % % # # #.}.iX}.#.t.t.t.t.8 *.*.oXoX%XoX  8 }.oXz # & Z     ",
"                                    % , 2 , % % * #.}.#.0.t.t.t.#.3X3X8 J.J.J.0X    8 }.J.0X    %   ",
"                                      % , 2 , % % % iX}.}.iX}.#.iX#.#.}.*.*.|.s 0X    *.J.s 0X  # , ",
"                                                      #.#.}.}.}.}.#.}.    8 8 J.s 0XoXz 8 t.s 0Xz # ",
"                                                            #.iX#.#.          *.|.t.s J.8 J.}.s oXz ",
"                                                                                8 8 8 8   8 *.8 8 8 "
};
