/* XPM */
static char *_c1dcbfa744c4c64981d7249418f8368VHHNsQH3v9ZUxjrz_1[] = {
/* columns rows colors chars-per-pixel */
"50 50 212 2 ",
"   c None",
".  c #000100",
"X  c #1C3738",
"o  c #3A262A",
"O  c #4B3537",
"+  c #593B3D",
"@  c #4F4137",
"#  c #1B4B4C",
"$  c #2B6568",
"%  c #3C7B7F",
"&  c #734D51",
"*  c #755C6C",
"=  c #C40000",
"-  c #CD1404",
";  c #D2280A",
":  c #D23301",
">  c #D93907",
",  c #D03115",
"<  c #D74013",
"1  c #E14407",
"2  c #E44B09",
"3  c #EC5706",
"4  c #E4520C",
"5  c #E24913",
"6  c #FB6B05",
"7  c #E97011",
"8  c #EC7818",
"9  c #D64421",
"0  c #E15126",
"q  c #DC612F",
"w  c #DD6E3D",
"e  c #EB7E2D",
"r  c #836146",
"t  c #9B7554",
"y  c #B96D5A",
"u  c #A17454",
"i  c #B17D7A",
"p  c #DF6A43",
"a  c #DB6E46",
"s  c #CB706A",
"d  c #DA726B",
"f  c #CD7174",
"g  c #E67463",
"h  c #E47166",
"j  c #E1716D",
"k  c #1F8F77",
"l  c #3A9D7E",
"z  c #75AC63",
"x  c #F38F1E",
"c  c #FA952F",
"v  c #AF8A6D",
"b  c #A49C64",
"n  c #AA8F7F",
"m  c #B29770",
"M  c #CC8341",
"N  c #CE8055",
"B  c #CF895A",
"V  c #CB8F5B",
"C  c #DF8E54",
"Z  c #E7874A",
"A  c #FF8A43",
"S  c #FE9B52",
"D  c #E8AA5C",
"F  c #FFA250",
"G  c #F3AF54",
"H  c #FFA95B",
"J  c #CD8260",
"K  c #CE8B66",
"L  c #C68A6D",
"P  c #CE8877",
"I  c #DC8579",
"U  c #DD9D76",
"Y  c #F69F72",
"T  c #C2A16A",
"R  c #ECA76D",
"E  c #E3A472",
"W  c #8FC059",
"Q  c #004482",
"!  c #1A6F9E",
"~  c #2E7AA7",
"^  c #2A6CB4",
"/  c #3B9091",
"(  c #588894",
")  c #758496",
"_  c #4884AD",
"`  c #528BB3",
"'  c #5798BA",
"]  c #6492B1",
"[  c #6691B7",
"{  c #6396BB",
"}  c #6E9CBB",
"|  c #779ABB",
" . c #62B0AE",
".. c #67A2BF",
"X. c #75C1B0",
"o. c #7DCEB5",
"O. c #1C8DC4",
"+. c #57BBC1",
"@. c #6EACCA",
"#. c #79ADC6",
"$. c #64AFDE",
"%. c #7ABDE8",
"&. c #92908D",
"*. c #B48A8D",
"=. c #BE908A",
"-. c #A2BC81",
";. c #B5A691",
":. c #A4BC9F",
">. c #899EA9",
",. c #8F95B6",
"<. c #859EBB",
"1. c #B49DA6",
"2. c #A09CB9",
"3. c #9FA4A2",
"4. c #9BA0BF",
"5. c #B2BAB6",
"6. c #CE9792",
"7. c #CAAB8F",
"8. c #D5A587",
"9. c #DAA881",
"0. c #DEB181",
"q. c #DCB087",
"w. c #D5AA9A",
"e. c #E3A08B",
"r. c #E7BB92",
"t. c #F3B390",
"y. c #DB97A8",
"u. c #D99EAF",
"i. c #DCAEAB",
"p. c #CEB3B1",
"a. c #C6BEB4",
"s. c #CBB7B9",
"d. c #D8BBB9",
"f. c #EEB2A1",
"g. c #E6B8A3",
"h. c #E5BFA6",
"j. c #E8B9B6",
"k. c #F7C39B",
"l. c #EBF397",
"z. c #D1C0AF",
"x. c #DAC3AC",
"c. c #CAD6A3",
"v. c #DCDEA3",
"b. c #D8DBB5",
"n. c #EFC6A8",
"m. c #FAC7A5",
"M. c #F4C9A5",
"N. c #E0C5B7",
"B. c #EACFB1",
"V. c #FAD0B2",
"C. c #F9D6B6",
"Z. c #89A5C1",
"A. c #82ACC7",
"S. c #95A3C0",
"D. c #9DA9C3",
"F. c #90B6CD",
"G. c #88BAD1",
"H. c #AAB4CC",
"J. c #BFB3C7",
"K. c #BCB2CB",
"L. c #A2BCD1",
"P. c #C9BACF",
"I. c #DBBFD4",
"U. c #EEBFD0",
"Y. c #82C0C4",
"T. c #98C4D8",
"R. c #8BDDD1",
"E. c #A5CEDC",
"W. c #A9C9D9",
"Q. c #B2C5D1",
"!. c #BBC0D3",
"~. c #BDD1DD",
"^. c #80C2ED",
"/. c #8DC9EE",
"(. c #9FCCE0",
"). c #9DCBEC",
"_. c #92D5EC",
"`. c #9CD4F4",
"'. c #ADCDEB",
"]. c #ACD4E2",
"[. c #A6D8E5",
"{. c #B8DBE5",
"}. c #B1D9E8",
"|. c #A9DBF5",
" X c #9DE6E8",
".X c #BEE4ED",
"XX c #B9F1E9",
"oX c #B2E8FB",
"OX c #D4C0CE",
"+X c #D2DDDB",
"@X c #EFCACA",
"#X c #E4D4C3",
"$X c #F8D2D3",
"%X c #FED8D9",
"&X c #C4DCE1",
"*X c #D8DCEC",
"=X c #F7D9EB",
"-X c #CCEBEF",
";X c #DCF6ED",
":X c #C4E8F1",
">X c #C8F1F3",
",X c #C8F1FF",
"<X c #D2FEF3",
"1X c #D5F6F9",
"2X c #D8F2F9",
"3X c #DFF8FC",
"4X c #E3E5E2",
"5X c #E5FAF9",
"6X c #E8FDFC",
"7X c #F2FEFD",
"8X c #F9FFFF",
"9X c #FEFFFC",
/* pixels */
"          -XT.                          Y.  x x 5 x x 5 5 x         5 x x         ].{.              ",
"          .X_ }.8X                    -X>XY.Y.5 x x x x x x x x x 5 x x x x x x &X@.G.              ",
"            }.(.-X6X                  -X>X(  XY.4 5 5 5 5 : x x x x x : x 5 5 x }.E.-X              ",
"            :X<.<.T.-X              Y.5X>X XY.( x : 5 : : x x x 5 x 5 : : 5 : 5 x W.                ",
"        9X  :XH.  J.F..X          8X>X1X( ( ( 3 x 1 > 5 x 5 5 5 5 x 5 : 5 : : 5 OX~.      9X        ",
"            3XF.      L..X        8X XY.>XY.: 2 x 1 x x 3 2 2 5 x 5 : 8 2 = 1 x t W.                ",
"              ' _       !.{.      >  X>XY.( : : x x 3 6 6 6 x x 5 : : 3 S 6 = x 3 t                 ",
"              #.! |       !.}.    5X( ( : : 2 x 3 3 3 2 x x 2 : q q.E 4 S = : x 5 t                 ",
"              .X_ 9X|       !.~.f.>XY. XY.: x 2 2 x x x 5 : : a q.q.q.5 S = : x 5 t                 ",
"              :XD.  _ <.      !.f.>X>X XY.x 5 x x 5 5 5 : 5 U q.C.C.5 C.= C.q.5 5 t                 ",
"              9XA.  P.[ D.      f.>XY.( x x x 5 5 : : : 5 q.C.C.C.C.5 < < < < < 5 t                 ",
"              2XF.    P.| D.  : : ( : x x 5 5 : : 9.q.q.C.< C.C.5 5 t.m.q.q.q.C.5   9X              ",
"                ].,.    J.| K.: : : : x 5 : : O + & i w.q.C.C.C.C.C.q.q.q.9.8.9.:                   ",
"                }._       K.>.: t t x 5 : q.@ . . . . . =.V.C.C.C.C.C.9.i O o + : 5                 ",
"                }.~ S.      -.t C.C.x 5 : 9.. 9X$ / % . . g.C.C.C.C.C.. . . . . : 5                 ",
"                :X` ~ |     b.t 5 5 x : : q.h.9XR. .X % 9X. C.C.C.C.. . $ / % 4X: u                 ",
"                -XL.9X[ ` :.l.  5 5 x : 5 q.0.9XXX# X XX9Xn.C.C.C.C.C.9XR.$ +.9X. t 9X              ",
"          9X    :XW.    OXz W   5 5 5 x q.q.r.. XX7X;XXX9XC.C.C.C.C.C.9XXXX XX9XC.t                 ",
"                1XW.      #Xv.c.D 5 x x q.q.M.C.. . . C.C.C.C.C.C.C.C.9XXX7X;X. q.t     9X          ",
"                6X.XA.      v.  G m t x q.q.M.C.C.C.C.C.C.C.C.C.C.C.C.C.. . . C.t                   ",
"                  6X1XG.| I.z.  G 7.x x q.@X@XC.C.C.C.C.C.C.C.t C.C.C.C.C.C.C.q.t                   ",
"                      5X[.' ] c.G 9.x x t @X%Xi.C.C.C.C.C.r C.C.C.7.C.C.C.C.q.C.                    ",
"                          3X(...x x x x 6X@X%Xi.C.C.C.C.C.C.r r r C.C.C.C.q.t x                     ",
"                              2XE.3.&.x 6X@X%X$Xi.q.q.C.C.C.C.C.C.C.C.q.q.t   x                     ",
"                5X              w N.T.x }.i.%X$Xi.t t q.q.q.q.q.q.q.q.q.t     x x                   ",
"                3X5X-X]..X3X    5 > e 6.x ].@X%X$Xi.z.t t t t t t t t t 1X{..Xc x                   ",
"                6X{.{ 2.D.A.T.:X#Xa 7 - 9 x i.%X$Xi._.oXq.q.q.,X_.R 2XT.Z.4.| [.x                   ",
"                  3X#.[ I.    P 1.~.4XI < 5 e %X$X@X_.oX=XC.C.u._.W.=.h   ,.9X-Xx                   ",
"                    :X} S.P.f T b L 0.z.+XN.S i.%X$Xi.=X=Xy.=XU.u.t t f K.| T.  x 9X                ",
"                      {.*.  d E M D N J 3.(.:Xi.%X$Xi._.#XC.C.B..Xq.C.t t L.x x                     ",
"                      2X9XK j K V D N n &X3Xt i.%X$X@Xp.o.Q )  .o.9Xl C.t 5.                        ",
"                        }.} i 9XK D Z 8.&X2Xu @X%X$X@Xd.9XQ x. .o.l o.l C.i.                        ",
"                          W.s Y s B Z Z ;.].i.$X$X$X@Xp.l X.Q X.l o.l 9X%X@X      9X                ",
"                          }.1.g h d *.5.a.E ; i.j.j.i.l l l l l l l l d.%X%Xi.                      ",
"                            Q.*.s.&Xa.p 5 8 ; l p.i.9Xo.l 9Xo.o.l o.9Xl j.j.j.i.                    ",
"                          H w.4Xe.0 ; : 8 7 9Xl o.o.oXl l o.oXo.l oX@X@X%X%Xi.i.                    ",
"                          F > ; A F 0 A c 7 ; ; oXoX_.oXl 9XoXO.^.^.@X%Xj.$Xi.C.O.                  ",
"                          c w C A 2 ; : 7 8 9XoXoX_._.9XoXoX9X$.^.9X@Xj.j.i.C.C.v 9XO.              ",
"                          c 5 ; : 5 5 7 : oXy ; _._.oX,X9X^.^.C.C.C.i.j.j.q.q.C.C.v '.^.            ",
"                          c   C : 5 : 7 : 9X> ; O._.oX^.O.^.^.q.q.q.C.i.i.q.q.C.C.v 9Xc 5           ",
"                          c   ; : 8 : 8 : : 5 O.O.O.O.^.^.9XC.q.C.C.C.C.C.t q.q.C.C.v 8 9X8         ",
"                          c   * : 7 : 8 5 : : $.^.$.O.9X^.q.C.t q.C.C.C.C.C.*Xq.q.C.`.7 5 c 5 F 5   ",
"                          c ^ ^ : 5 8 7 5 ; : O.^.$.^.O.^.^.C.q.t C.C.C.C.k.).t q.C.`.v : F   F     ",
"                            5     : 8 5 : ; : O.$.^.9X^.O.9XC.q.q.t C.C.C.C.C.^.t q.`.C.`.7 :       ",
"                                  : : 8 : : - - O.^.O.^.9Xq.q.q.q.t %.%.`.`.|.`.  t ^.`.v - > A     ",
"                                    : 5 8 5 : : , O.^.O.7.q.q.q.O.*X*Xt C.C.C.<X    t ^.C.<X    :   ",
"                                      : 5 8 5 : : : O.^.^.^.^.O.O.O.O.^.%.%./.k <X    %.C.k <X  - 5 ",
"                                                      O.9X^.^.^.^.O.^.    t t C.k <X`.v t q.k <Xv - ",
"                                                      9X    O.O.9XO.9X        %./.q.k C.t C.^.k `.v ",
"                                                                                t t t t   t %.t t t "
};
