/* XPM */
static char *_c1dcbfa744c4c64981d7249418f8368VHHNsQH3v9ZUxjrz_5[] = {
/* columns rows colors chars-per-pixel */
"50 50 229 2 ",
"   c None",
".  c #000100",
"X  c #1C3738",
"o  c #3A262A",
"O  c #4B3537",
"+  c #593B3D",
"@  c #4F4137",
"#  c #1B4B4C",
"$  c #2B6568",
"%  c #3C7B7F",
"&  c #734D51",
"*  c #C40000",
"=  c #CD1404",
"-  c #D2280A",
";  c #D23301",
":  c #D93907",
">  c #D03115",
",  c #D74013",
"<  c #E14407",
"1  c #E44B09",
"2  c #EC5706",
"3  c #E4520C",
"4  c #E24913",
"5  c #FB6B05",
"6  c #E97011",
"7  c #EC7818",
"8  c #D64421",
"9  c #E15126",
"0  c #E25235",
"q  c #DC612F",
"w  c #836146",
"e  c #9B7554",
"r  c #B96D5A",
"t  c #A17454",
"y  c #B17D7A",
"u  c #DB6E46",
"i  c #D46C5E",
"p  c #DA726B",
"a  c #E47166",
"s  c #E1716D",
"d  c #6EB82D",
"f  c #1F8F77",
"g  c #3A9D7E",
"h  c #75AC63",
"j  c #F38F1E",
"k  c #FA952F",
"l  c #9C8E46",
"z  c #B88B53",
"x  c #81B05F",
"c  c #AF8A6D",
"v  c #A49C64",
"b  c #B29770",
"n  c #B59F71",
"m  c #CE8055",
"M  c #CF895A",
"N  c #CB8F5B",
"B  c #DD8059",
"V  c #CF9D50",
"C  c #E7874A",
"Z  c #E88F4E",
"A  c #FF8A43",
"S  c #E48853",
"D  c #E49E5F",
"F  c #FE9B52",
"G  c #E2B14E",
"H  c #FFA250",
"J  c #F3AF54",
"K  c #CD8260",
"L  c #C68A6D",
"P  c #CE8877",
"I  c #DC8579",
"U  c #DD9D76",
"Y  c #EE866E",
"T  c #E49D78",
"R  c #C2A16A",
"E  c #D6A765",
"W  c #ECA76D",
"Q  c #E3A472",
"!  c #8FC059",
"~  c #ADCC75",
"^  c #BDD974",
"/  c #004482",
"(  c #2E7AA7",
")  c #397FAD",
"_  c #2A6CB4",
"`  c #3B9091",
"'  c #588894",
"]  c #758496",
"[  c #4884AD",
"{  c #528BB3",
"}  c #5798BA",
"|  c #6C98AB",
" . c #6691B7",
".. c #6396BB",
"X. c #6E9CBB",
"o. c #779ABB",
"O. c #6BA0A5",
"+. c #62B0AE",
"@. c #67A2BF",
"#. c #75C1B0",
"$. c #7DCEB5",
"%. c #1C8DC4",
"&. c #57BBC1",
"*. c #6EACCA",
"=. c #79ADC6",
"-. c #64AFDE",
";. c #7ABDE8",
":. c #92908D",
">. c #BE908A",
",. c #A99C9D",
"<. c #9BB587",
"1. c #B5A691",
"2. c #A4BC9F",
"3. c #899EA9",
"4. c #8F95B6",
"5. c #8596B8",
"6. c #859EBB",
"7. c #9FA4A2",
"8. c #9BA0BF",
"9. c #BAB0B6",
"0. c #B2BAB6",
"q. c #B5BFBA",
"w. c #CE9792",
"e. c #CAAB8F",
"r. c #D5A587",
"t. c #DAA881",
"y. c #D2B487",
"u. c #DEB181",
"i. c #DCB087",
"p. c #D5AA9A",
"a. c #E7BB92",
"s. c #F3B390",
"d. c #DB97A8",
"f. c #D99EAF",
"g. c #DCAEAB",
"h. c #CEB3B1",
"j. c #C6BEB4",
"k. c #C3B2BA",
"l. c #D8BBB9",
"z. c #EEB2A1",
"x. c #E6B8A3",
"c. c #E5BFA6",
"v. c #E0B0AA",
"b. c #E8B9B6",
"n. c #B9CB98",
"m. c #B1C5A4",
"M. c #BACBA5",
"N. c #F7C39B",
"B. c #DBE389",
"V. c #E7E49A",
"C. c #EBF397",
"Z. c #C2C0A5",
"A. c #DAC3AC",
"S. c #CAD6A3",
"D. c #DCDEA3",
"F. c #D8DBB5",
"G. c #EFC6A8",
"H. c #FAC7A5",
"J. c #F4C9A5",
"K. c #E0C5B7",
"L. c #EACFB1",
"P. c #FAD0B2",
"I. c #F9D6B6",
"U. c #89A5C1",
"Y. c #82ACC7",
"T. c #95A3C0",
"R. c #9DA9C3",
"E. c #90B6CD",
"W. c #88BAD1",
"Q. c #AFAFC6",
"!. c #AAB4CC",
"~. c #BFB3C7",
"^. c #BCB2CB",
"/. c #A2BCD1",
"(. c #C1ABC7",
"). c #C9BACF",
"_. c #DBBFD4",
"`. c #EEBFD0",
"'. c #82C0C4",
"]. c #98C0CE",
"[. c #9FC0D6",
"{. c #98C4D8",
"}. c #8BDDD1",
"|. c #A5CEDC",
" X c #A9C9D9",
".X c #B2C5D1",
"XX c #BBC0D3",
"oX c #80C2ED",
"OX c #8DC9EE",
"+X c #9FCCE0",
"@X c #9DCBEC",
"#X c #92D5EC",
"$X c #9CD4F4",
"%X c #ADCDEB",
"&X c #ACD4E2",
"*X c #A6D8E5",
"=X c #B8DBE5",
"-X c #B1D9E8",
";X c #A9DBF5",
":X c #9DE6E8",
">X c #BEE4ED",
",X c #B9F1E9",
"<X c #B2E8FB",
"1X c #C8C5C5",
"2X c #D4C0CE",
"3X c #D2DDDB",
"4X c #EFCACA",
"5X c #E4D4C3",
"6X c #F8D2D3",
"7X c #FED8D9",
"8X c #C4DCE1",
"9X c #D8DCEC",
"0X c #F7D9EB",
"qX c #CCEBEF",
"wX c #DCECE6",
"eX c #DCF6ED",
"rX c #C4E8F1",
"tX c #C8F1F3",
"yX c #C8F1FF",
"uX c #D2FEF3",
"iX c #D5F6F9",
"pX c #D8F2F9",
"aX c #DFF8FC",
"sX c #E3E5E2",
"dX c #E5FAF9",
"fX c #E8FDFC",
"gX c #F2FEFD",
"hX c #F9FFFF",
"jX c #FEFFFC",
/* pixels */
"fX&X+X                                  '.  j j 4 j j 4 4 j         4 j j                     =X|.fX",
"  |.( aXdX                            qXtX'.'.4 j j j j j j j j j 4 j j j j j j             gX*.*.  ",
"  aX&X+X>XfXdX                        qXtX' :X'.3 4 4 4 4 ; j j j j j ; j 4 4 j           dX=X+XqX  ",
"  fX-XT.R.Y.|.dX                    '.dXtX:X'.' j ; 4 ; ; j j j 4 j 4 ; ; 4 ; 4 j       >XY.4.[.iX  ",
"    >XR.jX  Q.Y.rX                hXtXiX' ' ' 2 j < : 4 j 4 4 4 4 j 4 ; 4 ; ; 4     fX&XU.jX   XiX  ",
"    aX..        R.|.dX            hX:X'.tX'.; 1 j < j j 2 1 1 4 j 4 ; 7 1 * < j e fX XQ.    ^.|.    ",
"    fX} [ 2X        /.rX          : :XtX'.' ; ; j j 2 5 5 5 j j 4 ; ; 2 F 5 * j 2 e 2X    2X[ {.    ",
"      W.( ) ~.        !.-X        dX' ' ; ; 1 j 2 2 2 1 j j 1 ; q i.Q 3 F * ; j 4 e       [ ( &X    ",
"      >X{ { ) Q.  jX    ). XaX  z.tX'.:X'.; j 1 1 j j j 4 ; ; u i.i.i.4 F * ; j 4 e     { ) =.iX    ",
"      qXo.  R.[ 6.          /.iXz.tXtX:X'.j 4 j j 4 4 4 ; 4 U i.I.I.4 I.* I.i.4 4 e    . .  E.      ",
"      fX@.    jX .o.          /.z.tX'.' j j j 4 4 ; ; ; 4 i.I.I.I.I.4 , , , , , 4 e o.6.    W.      ",
"      fXW.^.      6. .        ; ; ' ; j j 4 4 ; ; t.i.i.I., I.I.4 4 s.H.i.i.i.I.4 6.jX    ^.{.      ",
"        rXo.        Q..._.    ; ; ; ; j 4 ; ; O + & y p.i.I.I.I.I.I.i.i.i.t.r.t.; 6.      U.rX      ",
"        dX{           2X| Z.).; e e j 4 ; i.@ . . . . . >.P.I.I.I.I.I.t.y O o + ; 4       ..fX      ",
"        fX} [ ~.        j.d ^ e I.I.j 4 ; t.. jX$ ` % . . x.I.I.I.I.I.. . . . . ; 4      .} gX      ",
"        fX{.[ (  ._.  2XS.  n.e 4 4 j ; ; i.c.jX}.+.X % jX. I.I.I.I.. . $ ` % sX; t 2X[ ( W.gX      ",
"        fX+XQ.2Xo.{ jX<.      M.4 4 j ; 4 i.u.jX,X# X ,XjXG.I.I.I.I.I.jX}.$ &.jX. e jXT.  |.        ",
"          jXR.      2Xh ! V.    4 4 4 j i.i.a.. ,XgXeX,XjXI.I.I.I.I.I.jX,XX ,XjXI.e     (.&X        ",
"          qXo.        q.  S.M.D.J 4 j j i.i.J.I.. . . I.I.I.I.I.I.I.I.jX,XgXeX. i.e     jX=X        ",
"          dX-XU.).    2XD.    S.R ].e j i.i.J.I.I.I.I.I.I.I.I.I.I.I.I.I.. . . I.e     R.{.iX        ",
"            dXaX{...R.  0.      n rXj j i.4X4XI.I.I.I.I.I.I.I.e I.I.I.I.I.I.I.i.e ^...*XfX          ",
"                fXpXW.}  .m.    E {.j j e 4X7Xg.I.I.I.I.I.w I.I.I.e.I.I.I.I.i.I.{ *.qXfX            ",
"                      dX&X=.O.S.j j j j dX4X7Xg.I.I.I.I.I.I.w w w I.I.I.I.i.e j >XfX                ",
"                          fXrX{.:.b 3.j dX4X7X6Xg.i.i.I.I.I.I.I.I.I.I.i.i.e =Xj                     ",
"                                K.&X=.j rXg.7X6Xg.e e i.i.i.i.i.i.i.i.i.e fX  j j                   ",
"        dXdXdXqX&X&XqXdX        4 , W l.j -X4X7X6Xg.=Xe e e e e e e e e       j j iX&X-XaXdXdX      ",
"        dXdX&X[ ~.Q.U.Y.{.=XiXv.B , 6 = 8 j g.7X6Xg.#X<Xi.i.i.yX#XD 4 -     aX-Xj U.^.5.=.iX        ",
"          aXaX@. .R.      ).!.9..X3XL.i , 4 7 7X6X4X#X<X0XI.I.f.#X7 q v.qX XjX_.j   8.{ &XgX        ",
"              aX} 6.Q.P ^.~.l v L K y.j.3X5XQ g.7X6Xg.0X0Xd.0X`.f.e e e.F.2.x 9.j jXo.=.gX          ",
"                pXX.    Y ).N G m E M L 7.+X>Xg.7X6Xg.#X5XI.I.L.>Xi.I.e e B.j j     U.iX            ",
"                  8X6.  jXT z V m E M 7.pXpXe g.7X6X4Xh.$./ ] +.$.jXg I.e D ~ 2X  8.=X              ",
"                  fXW.o.Q.^.b jXB J S 1.rXpXt 4X7X6X4Xl.jX/ A.+.$.g $.g I.g.<.~.T.=.iX              ",
"                    aXX.    s t.K Z C C 1.&Xg.6X6X6X4Xh.g #./ #.g $.g jX7X4X    R.jX                ",
"                      -XR.  a Y s y ,.j.j.t.8 g.b.b.g.g g g g g g g g l.7X7Xg.  [.qX                ",
"                      fX|.XXw.k.8X1XI 8 4 7 - g h.g.jX$.g jX$.$.g $.jXg b.b.b.g.=X                  ",
"                        fXwXK.p 0 1 - ; 7 6 jXg $.$.<Xg g $.<X$.g <X4X4X7X7Xg.g.C.                  ",
"                          H : = A H 9 A k 6 - - <X<X#X<Xg jX<X%.oXoX4X7Xb.6Xg.I.%.                  ",
"                          C.- = A 1 - ; 6 7 jX<X<X#X#XjX<X<XjX-.oXjX4Xb.b.g.I.I.c jX%.              ",
"                          k 4 = ; 4 4 6 ; <Xr - #X#X<XyXjXoXoXI.I.I.g.b.b.i.i.I.I.c %XoX            ",
"                          C.  = ; 4 ; 6 ; jX: - %.#X<XoX%.oXoXi.i.i.I.g.g.i.i.I.I.c jXk 4           ",
"                          k   - ; 7 ; 7 ; ; 4 %.%.%.%.oXoXjXI.i.I.I.I.I.I.e i.i.I.I.c 7 jX7         ",
"                          _   4 ; 6 ; 7 4 ; ; -.oX-.%.jXoXi.I.e i.I.I.I.I.I.9Xi.i.I.$X6 4 k 4 H 4   ",
"                          _     ; 4 7 6 4 - ; %.oX-.oX%.oXoXI.i.e I.I.I.I.N.@Xe i.I.$Xc ; H   H     ",
"                            4     ; 7 4 ; - ; %.-.oXjXoX%.jXI.i.i.e I.I.I.I.I.oXe i.$XI.$X6 ;       ",
"                                  ; ; 7 ; ; = = %.oX%.oXjXi.i.i.i.e ;.;.$X$X;X$X  e oX$Xc = : A     ",
"                                    ; 4 7 4 ; ; > %.oX%.e.i.i.i.%.9X9Xe I.I.I.uX    e oXI.uX    ;   ",
"                                      ; 4 7 4 ; ; ; %.oXoXoXoX%.%.%.%.oX;.;.OXf uX    ;.I.f uX  = 4 ",
"                                                      %.jXoXoXoXoX%.oX    e e I.f uX$Xc e i.f uXc = ",
"                                                      jX    %.%.jX%.jX        ;.OXi.f I.e I.oXf $Xc ",
"                                                                                e e e e   e ;.e e e "
};
