/* XPM */
static char *result[] = {
/* columns rows colors chars-per-pixel */
"64 64 253 2 ",
"   c #1E1A13",
".  c #18211E",
"X  c #182328",
"o  c #305965",
"O  c #0F6374",
"+  c #71504C",
"@  c #5E605E",
"#  c #747777",
"$  c #9B1D03",
"%  c #9A2909",
"&  c #A92403",
"*  c #AF330C",
"=  c #B43409",
"-  c #BB3C17",
";  c #AC3A20",
":  c #C53104",
">  c #CB3506",
",  c #CB380A",
"<  c #C93A0A",
"1  c #BB4C18",
"2  c #8B5228",
"3  c #B64927",
"4  c #AC502B",
"5  c #9A673B",
"6  c #A1673C",
"7  c #D6440D",
"8  c #CF4B16",
"9  c #D95418",
"0  c #E0470F",
"q  c #E64B12",
"w  c #EA5A1B",
"e  c #F25618",
"r  c #F25B1A",
"t  c #DF651C",
"y  c #E5681D",
"u  c #F3611D",
"i  c #C55923",
"p  c #CA502B",
"a  c #DC5B29",
"s  c #E55D28",
"d  c #D66A24",
"f  c #D57433",
"g  c #E76826",
"h  c #F36924",
"j  c #EA7727",
"k  c #F67A28",
"l  c #EB6832",
"z  c #F57534",
"x  c #926E52",
"c  c #B6794D",
"v  c #A86E58",
"b  c #BB7E53",
"n  c #87736C",
"m  c #A27F63",
"M  c #D5714D",
"N  c #E6764B",
"B  c #EC7C53",
"V  c #DA6F60",
"C  c #75BB2E",
"Z  c #29927F",
"A  c #598D73",
"S  c #F7892E",
"D  c #EB8C38",
"F  c #F98933",
"G  c #E6943E",
"H  c #FC9838",
"J  c #B68C55",
"K  c #9A8370",
"L  c #B58E6B",
"P  c #A88872",
"I  c #D18952",
"U  c #F58344",
"Y  c #F69A49",
"T  c #F08357",
"R  c #FA9855",
"E  c #FAA746",
"W  c #FEB54C",
"Q  c #FFB94E",
"!  c #EAA750",
"~  c #F8A958",
"^  c #FAB454",
"/  c #CE8C6E",
"(  c #C99269",
")  c #D59568",
"_  c #D89A6D",
"`  c #C79976",
"'  c #DA9C76",
"]  c #F69463",
"[  c #EA9072",
"{  c #D3A274",
"}  c #DBA074",
"|  c #FAAC67",
" . c #F0B56F",
".. c #EBAF74",
"X. c #FEB776",
"o. c #F7C672",
"O. c #FEE678",
"+. c #115695",
"@. c #2B5C8A",
"#. c #15709C",
"$. c #296697",
"%. c #1171B2",
"&. c #2979A7",
"*. c #377AA8",
"=. c #5A7790",
"-. c #027FC7",
";. c #379391",
":. c #3DA09C",
">. c #3681AC",
",. c #6F9E8B",
"<. c #4DAF99",
"1. c #518FB4",
"2. c #598EB6",
"3. c #6A9DAF",
"4. c #6999BC",
"5. c #779BBC",
"6. c #48A5A5",
"7. c #56AFAC",
"8. c #58BAA5",
"9. c #6FB4AC",
"0. c #6EAFBC",
"q. c #79A6B9",
"w. c #6EC6AF",
"e. c #67CDB2",
"r. c #75D3B9",
"t. c #058CD5",
"y. c #1391D2",
"u. c #329AD6",
"i. c #33A1DB",
"p. c #4D96C8",
"a. c #749FC1",
"s. c #45A6C6",
"d. c #55B1CE",
"f. c #44A9D0",
"g. c #5CB6D6",
"h. c #69A8CB",
"j. c #79AAC7",
"k. c #67BED8",
"l. c #4EAFE4",
"z. c #4DD0CC",
"x. c #6DC2DD",
"c. c #78C5E8",
"v. c #8E969C",
"b. c #A8988B",
"n. c #A99692",
"m. c #96AC91",
"M. c #AEA998",
"N. c #8C99BB",
"B. c #91B5B5",
"V. c #A9A9A6",
"C. c #B3A9A1",
"Z. c #AAB8AD",
"A. c #B5B9BC",
"S. c #D0948E",
"D. c #D89797",
"F. c #E38D9A",
"G. c #EA9997",
"H. c #DDB48C",
"J. c #D0A894",
"K. c #E2AC86",
"L. c #E5B288",
"P. c #ECB390",
"I. c #E8BB93",
"U. c #EA9DA7",
"Y. c #D7ACA5",
"T. c #C9B9AC",
"R. c #D5BBA4",
"E. c #D0ACB0",
"W. c #EDACB4",
"Q. c #93C28F",
"!. c #85CEBA",
"~. c #BECFA8",
"^. c #ABC7B2",
"/. c #A8C4B8",
"(. c #D5C99E",
"). c #F5D48D",
"_. c #E9C39A",
"`. c #F9F391",
"'. c #C4D2A9",
"]. c #D7C9B4",
"[. c #F3CCA4",
"{. c #F7CFA4",
"}. c #F7D1A9",
"|. c #F8D3AC",
" X c #E9CFB2",
".X c #F6D5B4",
"XX c #D1E0B3",
"oX c #E7E6AD",
"OX c #84ABC9",
"+X c #94AFC6",
"@X c #88B3CB",
"#X c #87B9D3",
"$X c #96BCD7",
"%X c #A6BDD6",
"&X c #ADB9D0",
"*X c #EB98C6",
"=X c #C9BDCC",
"-X c #F4BBC5",
";X c #8AD5C1",
":X c #85C5D3",
">X c #9AC6D8",
",X c #B1C4CD",
"<X c #BED4CA",
"1X c #A7C8D9",
"2X c #BAC6D8",
"3X c #BCD8D5",
"4X c #A3E4D2",
"5X c #8FCFE9",
"6X c #95DBEA",
"7X c #B6CCE3",
"8X c #A9D1E3",
"9X c #A6D4ED",
"0X c #BAD7E8",
"qX c #BDD9F2",
"wX c #BCE1EB",
"eX c #A3E4F4",
"rX c #A7E9FA",
"tX c #B4E9F7",
"yX c #B4F6F0",
"uX c #CFD1CF",
"iX c #D4D5C5",
"pX c #CFCCD3",
"aX c #CBD4DA",
"sX c #EFC9C8",
"dX c #F7CDD6",
"fX c #FCD6DA",
"gX c #D2E5D5",
"hX c #F9F5C8",
"jX c #C5D5E6",
"kX c #C3DBED",
"lX c #D4D3E5",
"zX c #C4DFF4",
"xX c #C9DAF5",
"cX c #FCDDE6",
"vX c #FDCBF0",
"bX c #C5E3EB",
"nX c #D8EDE9",
"mX c #C5E1F4",
"MX c #CCE4F6",
"NX c #CBE9F4",
"BX c #D2E7F6",
"VX c #D2EAF6",
"CX c #DBECF7",
"ZX c #D5EEF8",
"AX c #C4F2FB",
"SX c #D9F3F8",
"DX c #DBF4F9",
"FX c #FCE3E8",
"GX c #E6F0EF",
"HX c #E4F2F8",
"JX c #E5FAFB",
"KX c #EDFDFD",
"LX c #F9FCFA",
/* pixels */
"zXzXzXzXzXzXzXzXzXzXzXzXzXzXzXzXzXzXzXzXzXzXzXzXzXzXzXzXzXzXzXzXzXzXzXzXzXzXzXzXzXzXzXzXzXzXzXzXzXzXzXzXzXzXzXzXzXzXzXzXzXzXzXzX",
"zXzXzXzXzXzXzXzXzXzXzXzXzXzXzXmXzXzXzXzXzXzXzXzXzXzXzXzXzXzXzXzXzXzXzXzXzXzXzXzXzXzXzXzXzXzXzXzXzXzXzXzXzXzXzXzXzXzXzXzXzXzXzXzX",
"zXzXzXzXzXzXzXzXzXzXzXzXzXzXzXzXzXzXzXzXzXzXzXzXzXzXzXzXzXzXzXzXzXzXzXzXzXzXzXzXzXzXzXzXzXzXzXzXzXzXzXzXzXzXzXzXzXzXzXzXzXzXzXzX",
"zXzXzXzXzXzXzXzXzXzXzXzXzXzXzXzXzXzXzXzXzXzXzXzXzXzXzXzXzXzXzXzXzXzXzXzXzXzXzXzXzXzXzXzXzXzXzXzXzXzXzXzXzXzXzXzXzXzXzXzXzXzXzXzX",
"zXzXzXzXzXzXzXzXzXzXzXzXzXzXzXzXzXzXzXzXzXzXxXzXzXzXzXzXzXzXzXzXzXzXzXzXzXzXzXzXzXzXzXzXzXzXzXzXzXzXzXzXzXzXzXzXzXzXzXzXzXzXzXzX",
"zXzXzXzXzXzXzXzXzXzXzXmXzXzXzXzXzXzXzXzXzXzXzXzXzXzXzXzXzXzXzXzXzXzXzXzXzXzXzXzXzXzXzXzXzXzXzXzXzXzXzXzXzXzXzXzXzXzXzXzXzXzXzXzX",
"zXzXzXzXzXzXzXzXzXMXmXmXzXzXzXzXzXzXzXzXzXzXMXzXzXzXzXzXzXzXzXzXzXzXzXzXzXzXzXzXzXzXzXzXzXzXzXzXzXzXzXzXzXzXzXzXzXzXzXzXzXzXzXzX",
"zXzXzXzXzXzXzXzXzXBX2.DXzXzXzXzXzXzXzXzXzXzXKX1XzXzXzXzXzXzXzXzXzXzXzXzXzXzXzXzXzXzXzXzXzXzXzXzXzXzXzXzXzXzXzXzXzXzXzXzXzXzXzXzX",
"zXzXzXzXzXzXzXzXzX;X#XbXJXNXmXmXzXzXzXzXzXzX5XOXHXzXzXzXzXzXzXzXzXzXzXzXzXzXzXzXzXzXzXzXzXzXzXzXzXzXzXzXzXzXzXzXzXzXzXzXzXzXzXzX",
"zXzXzXzXzXzXzXzXzX4XKXa.4.NXZXmXzXzXzXzXzXzXzX>X5.zXzXzXzXzXzXzXzXzXzXzXzXzXzXzXzXzXzXzXzXzXzXzXzXzXzXzXzXzXzXzXzXzXzXzXzXzXzXzX",
"zXzXzXzXzXzXzXzXzX1.ZXOXcXzXh.DXzXzXzXzXzXzX7X>XxX1XzXzXzXzXzXzXzXzXzXzXzXzXzXzXzXzXzXzXzXzXzXzXzXzXzXzXzXzXzXzXzXzXzXzXzXzXzXzX",
"zXzXzXzXzXzXzXzXqX$.NX#XqXzXMX@XSXmXzXzXzXzXmX>XjX0XzXzXzXzXzXzXzXzXzXzXzXzXzXzXzXzXzXzXzXzXzXzXzXzXzXzXzXzXzXzXzXzXzXzXzXzXzXzX",
"zXzXzXzXzXzXzXzXzX%XmX1X&.mXmXzX&XbXMXMXzXzXxXzX&.MX7XzXmXmXmXzXzXzXqXmXN Y.mXmXzXzXzXzXzXzXzXzXzXzXzXzXzXzXzXzXzXzXzXzXzXzXzXzX",
"zXzXzXzXzXzXzXzXzXmXmXSX*.&.qXZXzXzXeXxXzXzXzXzXOXqX7XzXbX2Xw | g : & < r W h zXzXzXzXzXzXzXzXzXzXzXzXzXzXzXzXzXzXzXzXzXzXzXzXzX",
"zXzXzXzXzXzXzXzXzXzXzXHX4.%X*.7XzXzXGX$XMXzXzXzXCX4.zX0XI y F u ! E g E E W e ^ zXzXzXzXzXzXzXzXzXzXzXzXzXzXzXzXzXzXzXzXzXzXzXzX",
"zXzXzXzXzXzXzXzXzXzXzXzXh.zXzX2.7XHXzXzX$XZXzXzX+X>XCX_.: < Q H q U q q D Q H y o.zXzXzXzXzXzXzXzXzXzXzXzXzXzXzXzXzXzXzXzXzXzXzX",
"zXzXzXzXzXzXzXzXzXzXzXzXwXxXcXzX2.0XxXzXzX$XVXzX@XjX@Xv a l Q H e z E W W j D u e oXzXmXzXzXzXzXzXzXzXzXzXzXzXzXzXzXzXzXzXzXzXzX",
"zXzXzXzXzXzXzXzXzXzXzXzXHX1.CXzXxX4.jXzXzXBX1XZXx.mXnX= v 9XQ Q j a F F e g ..W F h iXmXzXzXzXzXzXzXzXzXzXzXzXzXzXzXzXzXzXzXzXzX",
"zXzXzXzXzXzXzXzXzXzXzXzXJX>.&XmXzXMXa.xXBXzX0X1X0X1XS.n aXe H z Y W z h E {.|.{.^ G F qXzXzXzXzXzXzXzXzXzXzXzXzXzXzXzXzXzXmXzXzX",
"zXzXzXzXzXzXzXzXzXzXzXzXBX#X*.@XzXzXpXC 0XzXmX/.wXOX3 1 c.E q S E R ^ } |.|.|.P.{.} _.zXzXzXzXzXzXzXzXzXzXzXzXzXzXzXzXzXzXzXzXzX",
"zXzXzXzXzXzXzXzXzXzXzXzXzXqXxXj.4.0XuXzX^.mXnXzXXXiX% n AX, E F Y L.] |.|.|.R L.N L.zXzXzXzXzXzXzXzXzXzXzXzXzXzXzXzXzXzXzXzXzXzX",
"zXzXzXzXzXzXzXzXzXzXzXzXmXDXpXmX0XB.C bXMX'.hXzXhX'.$ 0 E W ).{.  L } |.|.|.[..   L zXzXzXzXzXzXzXzXzXzXzXzXzXzXzXzXzXzXzXzXzXzX",
"zXzXzXzXzXzXzXzXzXzXzXzXzXJXj.kXzXpXbX^.0XkX'.zXhX~.f 4 H ^ _ @ N.O O |.|.|.o X LXm zXzXzXzXzXzXzXzXzXzXzXzXzXzXzXzXzXzXzXzXzXzX",
"zXzXzXzXzXzXzXzXzXzXzXzXzXZXLX#X$XzX^.bXjX~.q.>X3./.f f ! ) _ .X3XO z.|.|.|.rX6.}.` zXzXzXzXzXzXzXzXzXzXzXzXzXzXzXzXzXzXzXzXzXzX",
"zXzXzXzXzXzXzXzXzXzXzXzXzXzXzXZXmX1.0XoXmXmX>XJXJXuXd c ^ ) } |._.X . |.|.|.I.R.|.H.zXzXzXzXzXzXzXzXzXzXzXzXzXzXzXzXzXzXzXzXzXzX",
"zXzXzXzXzXzXzXzXzXzXzXzXzXzXzXzXzXDX:X2.wXbXq.JXLXJX* % ! ) _.|.|.|.|.|.|.|.|.|.|.n.zXzXzXzXzXzXzXzXzXzXzXzXzXzXzXzXzXzXzXzXzXzX",
"zXzXzXzXzXzXzXzXzXzXzXzXVXSXzXzXzXzXzXBX1X+X1XnXKXDX* 9 1 Q ) I.|.|.|.( L H.|.` V.mXzXzXzXzXzXzXzXzXzXzXzXzXzXzXzXzXzXzXzXzXzXzX",
"zXzXzXzXzXzXzXzXzXzXzXzXmXJXJXKXKXzXzXzXmXJXj.1.KXJXd a 7 W : 5 J }.|.|.}.}.J ^ zXzXzXzXmXzXzXzXzXzXzXzXzXzXzXzXzXzXzXzXzXzXzXzX",
"zXzXzXzXzXzXzXzXzXzXzXzXLXSXwX5.OX5XMXBXxXzXzXSX4.nXS.g , `.O.& 3 # x x 5 ; R | mXzXzXzXzXzXzXzXzXzXzXzXzXzXzXzXzXzXzXzXzXzXzXzX",
"zXzXzXzXzXzXzXzXzXzXzXzXzXzXCXj.a.MX7XLX0XSXzXMXVXNXb.9 ! : > i P N.*XdXvX$ R XXmXmXzXzXzXzXzXzXzXzXzXzXzXzXzXzXzXzXzXzXzXzXzXzX",
"zXzXzXzXzXzXzXzXzXzXzXzXzXzXzXJX5.zX=X+XqX+X1XJXmXNXn : & : 2 J K.0.tX.X5XuXH.xX`.mXzXzXzXzXzXzXzXmXzXzXzXzXzXzXzXzXzXzXzXzXzXzX",
"zXzXzXzXzXzXzXzXzXzXzXzXzXzXzXzXkX%XzXxXQ.Q.GX'.<XSX= 0 $ * |.).|.0.rXgX].eXgXZ.zXzXzXzXzXzXzXzXzXzXzXzXzXzXzXzXzXzXzXzXzXzXzXzX",
"zXzXzXzXzXzXzXzXzXzXzXzXzXzXzXzXBX#X&X&X^.XXmX3XB.v., 0 , c }.}.I.0.8.Q.iX<X5XA R.zXzXzXzXzXzXzXzXzXzXzXzXzXzXzXzXzXzXzXzXzXzXzX",
"zXzXzXzXzXzXzXzXzXzXzXzXzXzXzXzXzXJX5.zX7XnXmXoX#X& e : 9 ) |.J ) 8.Z yXA L.<X4X4XE.zXzXzXzXzXzXzXzXzXzXzXzXzXzXzXzXzXzXzXzXzXzX",
"zXzXzXzXzXzXzXzXzXzXzXzXzXzXzXzXzXzX0XjXmX3XT.mX1 g : s V P.|.v m.8.nXw.0.v.;.<.3XfXjXxXzXzXzXzXzXzXzXzXzXzXzXzXzXzXzXzXzXzXzXzX",
"zXzXzXzXzXzXzXzXzXzXzXzXzXzXzXzXzXzXBXbX1X7X7Xs J.g : 7 D.FXW.,.e.8.;Xe.e.;.r.r.=XW.cXjXzXzXzXzXzXzXzXzXzXzXzXzXzXzXzXzXzXzXzXzX",
"zXzXzXzXzXzXzXzXzXzXzXzXzXzXzXzXzXzXzXzXSXzXzXl , q k : D.fXU.d <.e.e.;.GXJXr.;X0XlXY.fXjXzXzXzXzXzXzXzXzXzXzXzXzXzXzXzXzXzXzXzX",
"zXzXzXzXzXzXzXzXzXzXzXzXzXzXzXzXzXzXmX9.mXqX[ 9 ..g 0 g fXLXM & 9.!.8.:.w.6.:.7.w.q.cXFXcXzXzXzXzXzXzXzXzXzXzXzXzXzXzXzXzXzXzXzX",
"zXzXzXzXzXzXzXzXzXzXzXzXzXzXzXzXzXzXmX5XzXT D.> e ~ p h sXW.g ; <.k.rXrX5X6X9XeX5XR.cXW.W.kXzXzXzXzXzXzXzXzXzXzXzXzXzXzXzXzXzXzX",
"zXzXzXzXzXzXzXzXzXzXzXzXzXzXzXzXzXmXwX#.mXmX .B e V : 7 cXD.j 6.d.eXrXrXd.SXAXeXk.*.dXY.}.2 zXzXzXzXzXzXzXzXzXzXzXzXzXzXzXzXzXzX",
"zXzXzXzXzXzXzXzXzXzXzXzXzXzXzXzXzXzXzXzXzXzX..: X./ > G.sX> d.g.6XtXyXtXk.ZXc.i.i.&XS.K.|.|.mXzXzXzXzXzXzXzXzXzXzXzXzXzXzXzXzXzX",
"zXzXzXzXzXzXzXzXzXzXzXzXzXzXzXzXzXzXzXzXzXzXzXD e S , -XW.B.d.tXd.y.rXrXf.f.g.wXc.( ) I.|.}.x zXzXzXzXzXzXzXzXzXmXzXzXzXzXzXzXzX",
"zXzXzXzXzXzXzXzXzXzXzXzXzXzXzXzXzXzXzXzXzXzXzXY ] k V FXF.H +.s.y.t.f.k.6X+.5 6 u.) c ) }.}.I.qXzXzXzXzXzXzXzXzXzXzXzXzXzXzXzXzX",
"zXzXzXzXzXzXzXzXzXzXzXzXzXzXzXzXzXzXzXzXzXpXzXp H W [ dXU.H y.l.y.u.p.4.I.|.|.|.{.x t.b H..XI.mXzXzXzXzXzXzXzXzXzXzXzXzXzXzXzXzX",
"zXzXzXzXzXzXzXzXzXzXzXzXzXzXzXzXzXzXzXzXzX/ zXi k | W.-X, H %.c.9X*.) P T.P._ |.{.[.=.L ) |.}.K zXzXzXzXzXzXzXzXzXzXzXzXzXzXzXzX",
"zXzXzXzXzXzXzXzXzXzXzXzXzXzXzXzXzXzXzXzXzXzXD &X=XN fXX.7 H l.%.5.@.) ) ) c ) I.|.{.b.MX` [..X%XzXzXzXzXzXzXzXzXzXzXzXzXzXzXzXzX",
"zXzXzXzXzXzXzXzXzXzXzXzXzXzXzXzXzXzXzXzXzXzXzX[ dXdXE.l k r +.p.# %.=.) c n P ) |.|.` MXxXc iXm zXzXzXzXzXzXzXzXzXzXzXzXzXzXzXzX",
"zXzXzXzXzXzXzXzXzXzXzXzXzXzXzXzXzXzXzXzXzXY.F.F.F.F., e H F c.i.-.u.y.@.1.eX$.) ) |.|.L mXmX' V.zXzXzXzXzXzXzXzXzXzXzXzXzXzXzXzX",
"zXzXzXzXzXzXzXzXzXzXzXzXzXzXzXzXzXzXzXzXzXzXzXzXzXtXB H F X.@.9 + $.@.+.@.+ H > ( {.|.|.A.zXx ].zXzXzXzXzXzXzXzXzXzXzXzXzXzXzXzX",
"zXzXzXzXzXzXzXzXzXzXzXzXzXzXzXzXzXzXzXzXzXzXzXzXzXS.zXa Y e E - 3 S y : l k w / Y b _..X{ kXv.R.M.zXzXzXzXzXzXzXzXzXzXzXzXzXzXzX",
"zXzXzXzXzXzXzXzXzXzXzXzXzXzXzXzXzXzXzXzXzXzXzXzXxX(.h J.zXe | d U  .> S 3 y S S u jXi _ .Xm ( ...XqXzXzXzXzXzXzXzXzXzXzXzXzXzXzX",
"zXzXzXzXzXzXzXzXzXzXzXzXzXzXzXzXmXzXzXzXzXzXzXzXzXmXmXxXxX: k h < T : j $ z 9 S mXT.wXM.( ,XV.K.B.9XzXzXzXzXzXzXzXzXzXzXzXzXzXzX",
"zXzXzXzXzXzXzXzXzXzXzXzXzXzXzXzXzXzXzXzXzXzXzXzXzXv E.qXt i ~ n.8 h a t 1 0 d ' mXzXzXzXzXmXC.R.|.2XzXzXzXzXzXzXzXzXzXzXzXzXzXzX",
"zXzXzXzXzXzXzXzXzXzXzXzXzXzXzXzXzXzXzXzXzXzXzXzXzXxXF - u X.pXM.: kX$ O.k ).9 mXmXzXzXzXzXzX1XC.iXh.zXzXzXzXzXzXzXzXzXzXzXzXzXzX",
"zXzXzXzXzXzXzXzXzXzXzXzXzXzXzXzXzXzXzXzXzXzXzXzXzXzXzX~ aXpX0X]./ 2X7 ).j U / zXzXzXzXzXmXmX} |.OXT. XzXzXzXzXzXzXzXzXzXzXzXzXzX",
"zXzXzXzXzXzXzXzXzXzXzXzXzXzXzXzXzXzXzXzXzXzXzXzXzXzXzXzXzXk k k pX5 & o.9 z lX8 zXzXzXzXmXmXb._ &Xh.}.zXzXzXzXzXzXzXzXzXzXzXzXzX",
"zXzXzXzXzXzXzXzXzXzXzXzXzXzXzXzXzXzXzXzXzXzXzXzXzXzXzXzXzXzXzXzXzXM : `.E.p a qXzXzXzXzXzXzXzXC._ 8X_.zXzXzXzXzXzXzXzXzXzXzXzXzX",
"zXzXzXzXzXzXzXzXzXzXzXzXzXzXzXzXzXzXzXzXzXzXzXzXzXzXzXzXzXzXzXzXzXzXN | qXY.mXmXzXzXzXzXzXzXzXzXV.J.sXzXzXzXzXzXzXzXzXzXzXzXzXzX",
"zXzXzXzXzXzXzXzXzXzXzXzXzXzXzXzXzXzXzXzXzXzXzXzXzXzXzXzXzXzXzXzXzXzXzXzXzXzXzXzXzXzXzXzXzXzXzXzXmXmXzXzXzXzXzXzXzXzXzXzXzXzXzXzX",
"zXzXzXzXzXzXzXzXzXzXzXzXzXzXzXzXzXzXzXzXzXzXzXzXzXzXzXzXzXzXzXzXzXzXzXzXzXzXzXzXzXzXzXzXzXzXzXzXzXmXzXzXzXzXzXzXzXzXzXzXzXzXzXzX",
"zXzXzXzXzXzXzXzXzXzXzXzXzXzXzXzXzXzXzXzXzXzXzXzXzXzXzXzXzXzXzXzXzXzXzXzXzXzXzXzXzXzXzXzXzXzXzXzXzXzXzXzXzXzXzXzXzXzXzXzXzXzXzXzX",
"zXzXzXzXzXzXzXzXzXzXzXzXzXzXzXzXzXzXzXzXzXzXzXzXzXzXzXzXzXzXzXzXzXzXzXzXzXzXzXzXzXzXzXzXzXzXzXzXzXzXzXzXzXzXzXzXzXzXzXzXzXzXzXzX",
"zXzXzXzXzXzXzXzXzXzXzXzXzXzXzXzXzXzXzXzXzXzXzXzXzXzXzXzXzXzXzXzXzXzXzXzXzXzXzXzXzXzXzXzXzXzXzXzXzXzXzXzXzXzXzXzXzXzXzXzXzXzXzXzX",
"zXzXzXzXzXzXzXzXzXzXzXzXzXzXzXzXzXzXzXzXzXzXzXzXzXzXzXzXmXzXzXzXzXzXzXzXzXzXzXzXzXzXzXzXzXzXzXzXzXzXzXzXzXzXzXzXzXzXzXzXzXzXzXzX"
};
