/* XPM */
static char *result[] = {
/* columns rows colors chars-per-pixel */
"64 64 251 2 ",
"   c #111F1F",
".  c #18211E",
"X  c #07242D",
"o  c #353633",
"O  c #206379",
"+  c #7B6751",
"@  c #595B63",
"#  c #747777",
"$  c #A21601",
"%  c #9C2202",
"&  c #973616",
"*  c #A72605",
"=  c #B92A04",
"-  c #BA3508",
";  c #A93513",
":  c #C93606",
">  c #D53C09",
",  c #B64A15",
"<  c #8B5228",
"1  c #B45029",
"2  c #9E673C",
"3  c #D7440D",
"4  c #D34E16",
"5  c #DB5916",
"6  c #E7470D",
"7  c #E64C13",
"8  c #EC5A1D",
"9  c #F25718",
"0  c #EB6815",
"q  c #F3611E",
"w  c #CE5529",
"e  c #EF5D21",
"r  c #D76426",
"t  c #D6762D",
"y  c #D46E30",
"u  c #E66528",
"i  c #F46622",
"p  c #EA7727",
"a  c #F5762B",
"s  c #E86736",
"d  c #F27838",
"f  c #B45843",
"g  c #906E52",
"h  c #B6794D",
"j  c #AC6D5A",
"k  c #B97E54",
"l  c #8E736E",
"z  c #A27E6D",
"x  c #D27151",
"c  c #EB7449",
"v  c #E87749",
"b  c #CD7E7E",
"n  c #71B538",
"m  c #248D7A",
"M  c #62A75E",
"N  c #7CC452",
"B  c #F18B32",
"V  c #F78834",
"C  c #F99737",
"Z  c #FFA339",
"A  c #B78656",
"S  c #9D836B",
"D  c #958476",
"F  c #AE8A6B",
"G  c #CC8854",
"H  c #F0864F",
"J  c #F79749",
"K  c #F99957",
"L  c #F9A845",
"P  c #FEB54C",
"I  c #FFB94E",
"U  c #E9A752",
"Y  c #FBAA59",
"T  c #FAB456",
"R  c #C99269",
"E  c #D59568",
"W  c #D89A6D",
"Q  c #CC8F71",
"!  c #D89F74",
"~  c #F59563",
"^  c #D3A274",
"/  c #DBA074",
"(  c #F1AE70",
")  c #AAD467",
"_  c #F8C36D",
"`  c #FEE678",
"'  c #125898",
"]  c #235788",
"[  c #17619C",
"{  c #326695",
"}  c #1572AC",
"|  c #2B78A7",
" . c #347AA8",
".. c #2278B4",
"X. c #368F91",
"o. c #3B83AC",
"O. c #4CA895",
"+. c #7CA999",
"@. c #4B86AB",
"#. c #518EB3",
"$. c #5995B9",
"%. c #6894A7",
"&. c #659BBC",
"*. c #789ABB",
"=. c #4AA7A4",
"-. c #59B6A7",
";. c #70ADAE",
":. c #6CA8B9",
">. c #6AC4AD",
",. c #69CCB3",
"<. c #74CDB7",
"1. c #078BD5",
"2. c #148ED3",
"3. c #2F9AD5",
"4. c #3CA1C3",
"5. c #30A6E2",
"6. c #4B94C6",
"7. c #779CC1",
"8. c #51A9CD",
"9. c #5BB6D7",
"0. c #66A0C2",
"q. c #77AAC6",
"w. c #7CB2CC",
"e. c #68B8D9",
"r. c #53B2E6",
"t. c #60B1E2",
"y. c #4DD0CC",
"u. c #71C8D6",
"i. c #71C9EA",
"p. c #83939F",
"a. c #AA998A",
"s. c #A89F9A",
"d. c #8AB595",
"f. c #B1A490",
"g. c #939ABF",
"h. c #93A8B8",
"j. c #8EB0B4",
"k. c #B3A9A1",
"l. c #A5B4AD",
"z. c #B4B9BD",
"x. c #D1948F",
"c. c #E78F93",
"v. c #DFB68E",
"b. c #D6A594",
"n. c #DAB999",
"m. c #E1AB85",
"M. c #E5B387",
"N. c #E8BB93",
"B. c #FABD91",
"V. c #E89CA5",
"C. c #D0B3AC",
"Z. c #F0A8B2",
"A. c #8BCCAB",
"S. c #B3CEAC",
"D. c #ADC7B6",
"F. c #B6C8B7",
"G. c #EFCE97",
"H. c #E9C499",
"J. c #FDFE94",
"K. c #C6C6BA",
"L. c #CCD5B2",
"P. c #D8D7B9",
"I. c #EAC8A5",
"U. c #F3CCA4",
"Y. c #F7CFA5",
"T. c #F7D1A9",
"R. c #F8D3AC",
"E. c #F1D2B3",
"W. c #DEE2AB",
"Q. c #F8F0AF",
"!. c #86ABC8",
"~. c #95ADC9",
"^. c #86B4C6",
"/. c #83B3CC",
"(. c #86B8D5",
"). c #95BBD5",
"_. c #ABB2CA",
"`. c #A7BDD5",
"'. c #EB98C6",
"]. c #C6BAD2",
"[. c #F7BAC3",
"{. c #9AC1C9",
"}. c #8CD9C2",
"|. c #8AC5D6",
" X c #9BC4D8",
".X c #A8C8C3",
"XX c #B6C5C9",
"oX c #BCD3C8",
"OX c #A6C7D9",
"+X c #B6C8D9",
"@X c #A7D2DE",
"#X c #BBD4D5",
"$X c #99E9D4",
"%X c #A6EBD3",
"&X c #86DAEC",
"*X c #93D9EB",
"=X c #ABCCE2",
"-X c #B9CAE2",
";X c #ACD4E3",
":X c #AAD9E8",
">X c #B6D7E5",
",X c #BDD5EB",
"<X c #BCDBEC",
"1X c #BCDCF2",
"2X c #BDE2EB",
"3X c #A7E8F9",
"4X c #B5EDF5",
"5X c #CAC4CA",
"6X c #D3CCCB",
"7X c #C4D8C7",
"8X c #D2D3C8",
"9X c #C4CAD9",
"0X c #C8D5D9",
"qX c #EDC9C6",
"wX c #F8CDD5",
"eX c #FCD4DC",
"rX c #CCE1CA",
"tX c #CCE1DA",
"yX c #EAEED0",
"uX c #C5D8E6",
"iX c #D8DBEC",
"pX c #C7DCF3",
"aX c #C4DFF4",
"sX c #D3DDF1",
"dX c #EDD5EB",
"fX c #FADCE4",
"gX c #C4E4EC",
"hX c #C9E6EC",
"jX c #D8E7E7",
"kX c #C6E1F4",
"lX c #CBE4F5",
"zX c #CCEAF4",
"xX c #D3EBF5",
"cX c #D7EAF4",
"vX c #D4EDF8",
"bX c #DDEFF9",
"nX c #C9F8FB",
"mX c #D5F0F4",
"MX c #DCF2F6",
"NX c #DCF4F9",
"BX c #DCF8FB",
"VX c #FDE6EB",
"CX c #F1F2E9",
"ZX c #E1ECF7",
"AX c #E3F5FA",
"SX c #E6F4F8",
"DX c #E4FAFA",
"FX c #EBFBFC",
"GX c #FCF2F5",
"HX c #F2FDFC",
"JX c #FBFEFD",
/* pixels */
"aXaXaXaXaXaXaXaXaXaXaXaXaXaXaXaXaXaXaXaXaXaXaXaXaXaXaXaXaXaXaXaXaXaXaXaXaXaXaXaXaXaXaXaXaXaXaXaXaXaXaXaXaXaXaXaXaXaXaXaXaXaXaXaX",
"aXaXaXaXaXaXaXaXaXaXaXaXaXaXaXkXaXaXaXaXaXaXaXaXaXaXaXaXaXaXaXaXaXaXaXaXaXaXaXaXaXaXaXaXaXaXaXaXaXaXaXaXaXaXaXaXaXaXaXaXaXaXaXaX",
"aXaXaXaXaXaXaXaXaXaXaXaXaXaXaXaXaXaXaXaXaXaXaXaXaXaXaXaXaXaXaXaXaXaXaXaXaXaXaXaXaXaXaXaXaXaXaXaXaXaXaXaXaXaXaXaXaXaXaXaXaXaXaXaX",
"aXaXaXaXaXaXaXaXaXaXaXaXaXaXaXaXaXaXaXaXaXaXaXaXaXaXaXaXaXaXaXaXaXaXaXaXaXaXaXaXaXaXaXaXaXaXaXaXaXaXaXaXaXaXaXaXaXaXaXaXaXaXaXaX",
"aXaXaXaXaXaXaXaXaXaXaXaXaXaXaXaXaXaXaXaXaXaXaXaXaXaXaXaXaXaXaXaXaXaXaXaXaXaXaXaXaXaXaXaXaXaXaXaXaXaXaXaXaXaXaXaXaXaXaXaXaXaXaXaX",
"aXaXaXaXaXaXaXaXaXaXaXaXaXaXaXaXaXaXaXaXaXaXaXaXaXaXaXaXaXaXaXaXaXaXaXaXaXaXaXaXaXaXaXaXaXaXaXaXaXaXaXaXaXaXaX1XaXaXaXaXaXaXaXaX",
"aXaXaXaXaXaXaXaXaXaXaXaXaXaXaXaXkXaXaXaXaXaXaXaXaXaXaXaXaXaXaXaXaXaXaXaXaXaXaXaXaXaXaXaXaXaXaXaXaXaXaXaXaXcX XkXaXaXaXaXaXaXaXaX",
"aXaXaXaXaXaXaXaXaXaXaXaXaXaXaXaXaXaXaXaXaXaXaXaXaXaXaXaXaXaXaXaXaXaXaXaXaXaXaXaXaXaXaXaXaXaXaXaXaXaXaXaXzXcX0.1XaXaXaXaXaXaXaXaX",
"DXzXJXaXaXaXaXaXaXaXaXaXaXaXaXaXaXaXaXaXaXaXaXaXaXaXaXaXaXaXaXaXaXaXaXaXaXaXaXaXaXaXaXaXaXaXaXaXaXaXaXDX>X/.HX@XaXaXaXaXaXaXaXaX",
"w.<XDXaXaXaXaXaXaXaXaXaXaXaXaXaXaXaXaXaXaXaXaXaXaXaXaXaXaXaXaXaXaXaXaXaXaXaXaXaXaXaXaXaXaXaXaXaXaXkXNX0.pXOXzX@XaXaXaXaXaXaXaXaX",
"GXaXHX>XDXkXkXaXaXaXaXaXaXaXaXaXaXaXaXaXaXaXaXaXaXaXaXaXaXaXaXaXaXaXaXaXaXaXaXaXaXaXaXaXaXaXaXaXkXgXg.1X<X^.lXX.aXaXaXaXaXaXaXaX",
"aXaXaXlX XxXvXkXaXaXaXaXaXaXaXaXaXaXaXaXaXaXaXaXaXaXaXaXaXaXaXaXaXaXaXaXaXaXaXaXaXaXaXaXaXaXaXlXHX,XfXdX#. XpXaXaXaXaXaXaXaXaXkX",
"@.cXpXlXaXpXxXxXMXaXaXaXaXaXaXaXaXaXaXaXaXaXaXaXaXaXaXaXaXaXaXpXaXaXkXkXv C.aXaXaXaXkX1XkXaXkX;X<XaXaXq.} gXpX} aXaXaXaXaXaXaXaX",
" .| g.pXaXaXaXaX/.zXkXaXaXaXaXaXaXaXaXaXaXaXaXaXaXaXaXaXlXXX8 Y s : % : 9 P a kXaXaXkXkXaXaX=XkXvXaX*.#.=XxXkXO aXaXaXaXaXaXaXaX",
").+X$.@.-XaXaXaXkX9X+XNXaXaXaXaXaXaXaXaXaXaXaXaXkX1XaXaXG u V i U L 0 L L P 9 Y aXkXkXkXaX>XiXkXkX7./.aXq.aXaX=XaXaXaXaXaXaXaXaX",
"*.pXkXZX&.!.aXaXaXaXpX`.2XaXaXaXaXaXaXaXaXaXaXaXaXkXkXI.: : I C 7 H 7 7 B I J q ( kX1XkX:X,XVX1X(.-X1X,X;XaXaXaXaXaXaXaXaXaXaXaX",
"/.lXkXdXgX<X0.,XlXsXGXiXaX/.BXlXaXaXaXaXaXaXaXaXkXaXaXj w s I C 9 a L P I p B i 8 Q.kXgX,XlXkX).~.pXaX~.lXaXaXaXaXaXaXaXaXaXaXaX",
"ZX$.pXpXaXZXsX7.+XpXpXaXaXkX XFXlXaXJXaXbXDXDXHXbXkXaX- j 3XI I d r V V 8 i / P d i L._.+X@XF.~.sXlXpX .AXaXaXaXaXaXaXaXaXaXaXaX",
"HX6.&.lXVXaXiXaXGX$.0XlXpXaXaX0X XSXlXlXFXDXDXDXHXDXx.l 7X8 C d J P d i L Y.R.U.I J B uXkXkXn 0XlXkX| w.aXaXaXaXaXaXaXaXaXaXaXaX",
"mX#X .| ~.1XaXaXpXj.N ) jXaXaX0X.X^.AXzXDXDXlXpX1XlX1 ; |.L 7 V L J T / R.T.R.B.U.W G.yX2Xl.2Xl.).| 1X1XaXaXaXaXaXaXaXaXaXaXaXaX",
"vXJX*.JX/.@.7.1Xl.1XkX>X{.aXpXkXkXyX{.mXDXDXcXkXkX8X% D nX3 L V J m.~ R.R.R.~ M.v v.jXyXS.gX<X) `.aX-XgXpXaXaXaXaXaXaXaXaXaXaXaX",
"kXAX#.aXVXiXuXXXM ) kX1XpXd.kXgXkXQ.pXD.hXDXaXaXkX8X% 3 L P B.Y.T.U.! R.R.R.Y.T.H.S kXF.tXL.S.F.aXaX7.AXaXaXaXaXaXaXaXaXaXaXaXaX",
"AXFX X`.aXkXaXfXl.jXS.oXuXkXCX<X1XkXkXhXCXkXHXaXkXkXy 1 C T k l o   X R.R.R.@ X o + /.;.F.CXuX`.,Xq.JXNXaXaXaXaXaXaXaXaXaXaXaXaX",
"aXxXDXNX X7.-XaX-XL.lXaXoXS.#X:.|.q.;.^.#XF.zXvX1X1Xt y U E E f.#XO y.R.T.T.:X=.R.^ FX:X<XjXP.(.0.DXaXaXaXaXaXaXaXaXaXaXaXaXaXaX",
"aXaXaXkXxXDX=Xo.~._.7XlXyXpX%.HXDXDXDXDXmX X@.MXkXz.5 h I E ^ R.H..   R.R.R.H.n.R.M.DX^.kX2X| <XbXaXaXaXaXaXaXaXaXaXaXaXaXaXaXaX",
"aXaXaXaXaXaXaXMXzX0.%.;XyXlXS.2XDXDXDXDXDXFXDXw.BXlX* & U R G.R.R.T.R.R.R.R.R.R.Y.f.MXOX7Xw.NXkXaXaXaXkXaXaXaXaXaXaXaXaXaXaXaXaX",
"vXvXaXaXkXaXkXpXaXvXmX:X:.^.gXw.xXDXDXJXSXDXDXBX0.NX& w r I E H.R.T.R.R F v.R.R C.DX:.^.1XkXkX1XaXbXvXBXaXaXaXaXaXaXaXaXaXaXaXaX",
"MXFXDXDXFXFXzXpXaXaXaXkXkXMX>X&.%.gXDXFXDXHXHXDXvX@X( s a I : < A T.R.R.R.E.A T FX$.cXkXkXkXlX2X0.0.FXNXaXaXaXaXaXaXaXkXaXaXaXaX",
"aXFXDXw.*.`.0./.;XmXbXbXaXaXkXDXmX|.w.zXDXDXDXBXDX2XXXu 5 J.` = & M + f g & e _ ;XZXaXkXDXhX!.cXAX#.HXaXaXaXaXaXaXaXaXaXaXaXaXaX",
"aXpXlXHX/.$.iXlXaXOXOXOXgXcXxXkXkXkXvXBX>X;XDXDXFXDXOXr U & 3 5 z g.'.wXdX* 8 E.aXaXNX=XpXpX`._.o.SXaXaXaXaXaXaXaXaXaXaXaXaXaXaX",
"aXaXaXaXDX X_.<XaX9X0X-XaX_.!.hXDXkXaXkXkXzXzX(.zXDXjX: = V < A V.q.4XE.&X8X^ uXJ.hX7XP.n K.pX-XOXlXaXaXaXaXaXaXaXaXaXaXaXaXaXaX",
"aXaXaXaXpXAXOXOXaXaX1Xh.0Xd.F.W.L.S.jXDXzXaXaXaXvX>Xz > : r Y.G.R.:.3X0XP.3XtXn.|.#X7XjXlX].AX7.xXaXaXaXaXaXaXaXaXaXaXaXaXaXaXaX",
"aXaXaXaXvXZXAX(.q.OX`.h.rXL.lXkX#XK.A.{.OXvXSXvXpXpX= 6 * h R.R.H.:.-.+.7XoX*XA.a.{.P.S.M ].g.>X1XkXkX1XaXaXaXaXaXaXaXaXaXaXaXaX",
"aXaXaXaXaXaXaXBX/.6XlXSX~.aXaXpXrX+.AXjXzXDXFX=XAX].> > 5 E R.A W $Xm $Xd.N.}.}..XC.kX7XuXpX0.AXkXkXaXkXaXaXaXaXaXaXaXaXaXaXaXaX",
"aXaXaXaXaXaXaXaXHX/.,XpXkXGXXX#XhXpXCX2XmXMXNXP.CX5 c : c.m.E.F d.,.%X}.>.p.X.O.O.wXl.uXdX+XgXkXaXaXaXaXaXaXaXaXaXaXaXaXaXaXaXkX",
"aXaXaXaXaXaXaXaXxXvX XiXOXOX-X-XOX.X#XmX:XgX,XuXe H > 7 Q eX'.M ,.-.}.,.<.X.<.<.].qXfX+X<X>XkXkXaXaXaXaXaXaXaXaXaXaXaXaXaXaXaXaX",
"aXaXaXaXaXaXaXaXaXaXZXAXkXkXlXaXlXaXaXaXaXaXaXaX> d : 4 b eXV.> }.,.,.m %X<.<.}.uXsXZ.VXuX1XaXaXaXaXaXaXaXaXaXaXaXaXaXaXaXaXaXaX",
"aXaXaXaXaXaXaXaXaXaX<.kXaXaXkXaXaXaXaXaXaXaXaXb.> H B : qXfXx 8 -.-.>.=.-.-.=.-.>.*.fXVXeXm aXaXaXaXaXaXaXaXaXaXaXaXaXaXaXaXaXaX",
"aXaXaXaXaXaXaXaXaXaX:XaXaXaXaXaXaXaXaXaXaXaX9 C.: 6 H.4 wXZ.3 t =.u.nX3X3X:X*X3X&XC.fX[.Z.(.aXaXaXaXaXaXaXaXaXaXaXaXaXaXaXaXaXaX",
"aXaXaXaXaXaXaXaXaXaXaXaXaXaXaXaXaXaXaXaXaXaXaXB c i b.3 JXx.: 4.8.3X3X3X9.4XnX3Xe.%.wXC.T.< aXaXaXaXaXaXaXaXaXaXaXaXaXaXaXaXaXaX",
"aXaXaXaXaXaXaXaXaXaX@.kXaXaXaXaXaXaXaXaXaXaXaXM.- Y x c.qXZ &X9.*X3X3X3X&X4Xi.r.5.a.x.T.R.R.aXaXaXaXaXaXaXaXaXaXaXaXaXaXaXaXaXaX",
"aXaXaXaXaXaXaXaXaXaX+X1XaXaXaXaXaXaXaXaXaXaXaXaXC 3 B wXZ.j.u.3X9.2.DX3X8.i.r.i.t.E E N.R.R.g aXaXaXaXaXaXaXaXaXaXaXaXaXaXaXaXaX",
"aXaXaXaXaXaXaXaXaXaXaXaXaXaXaXaXaXaXaXaXaXaXaXaXq / G wXc.3 [ 4.3.1.i.u.hX' 2 k [ E h E R.R.N.aXaXaXaXaXaXaXaXaXaXaXaXaXaXaXaXaX",
"aXaXaXaXaXaXaXaXaXaXaXaXaXaXaXaXaXaXaXaXaXpX6XaXy 8 B.wXZ.r 1.5.2.5.6.o.N.R.R.R.R.g 1.A m.T.N.aXaXaXaXaXaXaXaXaXaXaXaXaXaXaXaXaX",
"aXaXaXaXaXaXaXaXaXaXaXaXaXaXaXaXaXaXaXaXaXaX].H = B fX[.a 5 ..r.i.[ E F C.N.W R.R.Y.@ a.E R.R.D aXaXaXaXaXaXaXaXaXaXaXaXaXaXaXaX",
"aXaXaXaXaXaXaXaXaXaXaXaXaXaXaXaXaXaXaXaXaXaXkX1Xw c eXc H p r.} 5...Q E E h E H.R.T.a.kX^ U.T.OXaXaXaXaXaXaXaXaXaXaXaXaXaXaXaXaX",
"aXaXaXaXaXaXaXaXaXaXaXaXaXaXaXaXaXaXaXaXaXaXkXiXeXwXQ 3 v Z ' 2.# } # Q h S S E R.R.^ kX1Xk 6XD aXaXaXaXaXaXaXaXaXaXaXaXaXaXaXaX",
"aXaXaXaXaXaXaXaXaXaXaXaXaXaXaXaXaXaXaXaXaXaXZ.c.c.Z.9Xx 6 Z t.5.1.1.1. .6...] E W R.R.F aXaX! s.aXaXaXaXaXaXaXaXaXaXaXaXaXaXaXaX",
"aXaXaXaXaXaXaXaXaXaXaXaXaXaXaXaXaXaXaXaXaXaXaXaXaXaXuXaX1X9X] J a.] { ' { l 9 C G Y.R.R._.aXg L.aXaXaXaXaXaXaXaXaXaXaXaXaXaXaXaX",
"aXaXaXaXaXaXkXaXaXaXaXaXaXaXaXaXaXaXaXaXaXaXaXaXaXaXx.Q 4 aX$ K , d ( C 4 = J C C A H.T.^ aXa.C.s.aXaXaXaXaXaXaXaXaXaXaXaXaXaXaX",
"aXaXaXaXaXaXaXaXaXaXaXaXaXaXaXaXaXaXaXaXaXaXaXaXaXkXaX9X5XaX$ i Z = w L a u Y C 9 8Xw ^ R.j G m.E.1XaXaXaXaXaXaXaXaXaXaXaXaXaXaX",
"aXaXaXaXaXaXaXaXaXaXaXaXaXaXaXaXaXaXaXaXaXaXaXaXaXpXpXuX<X9XC.4 b., 6 , 3 = - ~ : 1X1Xs.Q .Xl.v.~.:XaXaXaXaXaXaXaXaXaXaXaXaXaXaX",
"aXaXaXaXaXaXaXaXaXaXaXaXaXaXaXaXaXaXaXaXaXaXaXaXaXaXaX- 9X; s r 1Xy 7 % J y w T u aXaXaXaX,Xk.n.R.+XaXaXaXaXaXaXaXaXaXaXaXaXaXaX",
"aXaXaXaXaXaXaXaXaXaXaXaXaXaXaXaXaXaXaXaXaXaXaXaXaXaXaXuX0 K T ( kX$ 5Xr w 1 4 T s aXaXaXaXaX+Xs.8X0.pXaXaXaXaXaXaXaXaXaXaXaXaXaX",
"aXaXaXaXaXaXaXaXaXaXaXaXaXaXaXaXaXaXaXaXaXaXaXaXaXaXaXaXlXkX9X5X5XU pX% Y U > K.x x.aXaXaXaX! E.(.C.P.aXaXaXaXaXaXaXaXaXaXaXaXaX",
"aXaXaXaXaXaXaXaXaXaXaXaXaXaXaXaXaXaXaXaXaXaXaXaXaXaXaXaXlXkXpXn.N.n.kX$ - G.w ( M.C.aXaXaXaXa.! z.e.U.pXaXaXaXaXaXaXaXaXaXaXaXaX",
"aXaXaXaXaXaXaXaXaXaXaXaXaXaXaXaXaXaXaXaXaXaXaXaXaXaXaXaXaXaXaXaXaXaXaX].C yX9XuX0XaXaXaXaXaXaXk.W =XI.aXaXaXaXaXaXaXaXaXaXaXaXaX",
"aXaXaXaXaXaXaXaXaXaXaXaXaXaXaXaXaXaXaXaXaXaXaXaXaXaXaXaXaXaXaXaXaXaXaXaX1 w p 9XaXaXaXaXaXaXaXaXk.G v.aXaXaXaXaXaXaXaXaXaXaXaXaX",
"aXaXaXaXaXaXaXaXaXaXaXaXaXaXaXaXaXaXaXaXaXaXaXaXaXaXaXaXaXaXaXaXaXaXaXaXaXaXx.lXaXaXaXaXaXaXaXaX1XaXaXaXaXaXaXaXaXaXaXaXaXaXaXaX",
"aXaXaXaXaXaXaXaXaXaXaXaXaXaXaXaXaXaXaXaXaXaXaXaXaXaXaXaXaXaXaXaXaXaXaXaXaXaXaXaXaXaXaXaXaXaXaXaXaXaXaXaXaXaXaXaXaXaXaXaXaXaXaXaX",
"aXaXaXaXaXaXaXaXaXaXaXaXaXaXaXaXaXaXaXaXaXaXaXaXaXaXaXaXaXaXaXkXaXaXaXaXaXaXaXaXaXaXaXaXaXaXaXaXaXaXaXaXaXaXaXaXaXaXaXaXaXaXaXaX",
"aXaXaXaXaXaXaXaXaXaXaXaXaXaXaXaXaXaXaXaXaXaXaXaXaXaXaXaXaXaXaXaXaXaXaXaXaXaXaXaXaXaXaXaXaXaXaXaXaXaXaXaXaXaXaXaXaXaXaXaXaXaXaXaX",
"aXaXaXaXaXaXaXaXaXaXaXaXaXaXaXaXaXaXaXaXaXaXaXaXaXaXaXaXaXaXaXaXaXaXaXaXaXaXaXaXaXaXaXaXaXaXaXaXaXaXaXaXaXaXaXaXaXaXaXaXaXaXaXaX",
"aXaXaXaXaXaXaXaXaXaXaXaXaXaXaXaXaXaXaXaXaXaXaXaXaXaXaXaXaXaXaXaXaXaXaXaXaXaXaXaXaXaXaXaXaXaXaXaXaXaXaXaXaXaXaXaXaXaXaXaXaXaXaXaX"
};
