/* XPM */
static char *result[] = {
/* columns rows colors chars-per-pixel */
"64 64 240 2 ",
"   c #020F0F",
".  c #261B16",
"X  c #202523",
"o  c #295E78",
"O  c #59525F",
"+  c #5E7F68",
"@  c #6F6E77",
"#  c #941904",
"$  c #AA1C02",
"%  c #9C2203",
"&  c #B82904",
"*  c #A8340B",
"=  c #BB3309",
"-  c #AF3212",
";  c #C72E09",
":  c #CA3405",
">  c #C83607",
",  c #D33C0A",
"<  c #B74718",
"1  c #92552B",
"2  c #B04F23",
"3  c #99643A",
"4  c #A66C39",
"5  c #CC430D",
"6  c #DA410B",
"7  c #D44A0F",
"8  c #D85218",
"9  c #E0460F",
"0  c #E84E15",
"q  c #EA5519",
"w  c #F25618",
"e  c #F25A1A",
"r  c #EB661B",
"t  c #D85325",
"y  c #D45834",
"u  c #EB5B24",
"i  c #DA7728",
"p  c #D36539",
"a  c #D97D35",
"s  c #E6672A",
"d  c #F36625",
"f  c #EA7C2D",
"g  c #F7792A",
"h  c #E96738",
"j  c #F07537",
"k  c #8C6C4F",
"l  c #A6704E",
"z  c #B67546",
"x  c #AD675B",
"c  c #B27D53",
"v  c #9A7F65",
"b  c #917C72",
"n  c #C35B4D",
"m  c #D87A47",
"M  c #CF7552",
"N  c #F47645",
"B  c #E47756",
"V  c #218A78",
"C  c #68AF48",
"Z  c #FA872E",
"A  c #EA8E37",
"S  c #F88734",
"D  c #F89B3C",
"F  c #B8835A",
"G  c #918479",
"H  c #AD8A6D",
"J  c #BA8661",
"K  c #89BC65",
"L  c #CC8952",
"P  c #CF965B",
"I  c #F8954A",
"U  c #F08C52",
"Y  c #DEA551",
"T  c #FDAB46",
"R  c #FAA448",
"E  c #FCB34B",
"W  c #FFB94E",
"Q  c #EAA75B",
"!  c #F8B059",
"~  c #C88C62",
"^  c #D89866",
"/  c #D59568",
"(  c #C49774",
")  c #CE9474",
"_  c #F09866",
"`  c #C4A279",
"'  c #DAA378",
"]  c #E8A863",
"[  c #FBA868",
"{  c #FAB664",
"}  c #E9A774",
"|  c #8AC078",
" . c #F7CE72",
".. c #FEDD77",
"X. c #13598A",
"o. c #2A598B",
"O. c #1A7B85",
"+. c #26679F",
"@. c #106FB2",
"#. c #2474A9",
"$. c #367AA8",
"%. c #097DC4",
"&. c #2F9481",
"*. c #349985",
"=. c #3DA48F",
"-. c #5E969F",
";. c #4FAD98",
":. c #488CB7",
">. c #5090B5",
",. c #5897B7",
"<. c #6095A4",
"1. c #6998BA",
"2. c #5AB7A1",
"3. c #56B2B0",
"4. c #75A5A6",
"5. c #6DB0B1",
"6. c #63C7AF",
"7. c #6ACEB3",
"8. c #77CFBA",
"9. c #78D4BB",
"0. c #088BD2",
"q. c #388BC2",
"w. c #3CA1C3",
"e. c #2EA1DE",
"r. c #4B96C9",
"t. c #55ADD2",
"y. c #69A4C4",
"u. c #78A9C8",
"i. c #6BB4CC",
"p. c #7DB1CD",
"a. c #65BDD7",
"s. c #3ACBD1",
"d. c #71C4DD",
"f. c #50C7EF",
"g. c #77C7E5",
"h. c #7CD2F3",
"j. c #8B8B8B",
"k. c #B19C8E",
"l. c #B3A18D",
"z. c #B1A598",
"x. c #91BAB9",
"c. c #A7A7A3",
"v. c #ADB5A8",
"b. c #A6B3B8",
"n. c #C58F8C",
"m. c #D79587",
"M. c #E1919A",
"N. c #DDB58B",
"B. c #D3AD93",
"V. c #E4B489",
"C. c #EBB08A",
"Z. c #E5BA93",
"A. c #DB98A2",
"S. c #CDB1A8",
"D. c #D1B9AA",
"F. c #EEACB2",
"G. c #E8ABB4",
"H. c #84D0BC",
"J. c #AECAB0",
"K. c #BBC9B8",
"L. c #F4CB8E",
"P. c #EAC499",
"I. c #F4C79B",
"U. c #D6C6B3",
"Y. c #CAD0B2",
"T. c #E5CFA9",
"R. c #F4CCA4",
"E. c #F6D1A9",
"W. c #F8D3AC",
"Q. c #F8D8B4",
"!. c #D2E1B4",
"~. c #EAE1A2",
"^. c #84A7C5",
"/. c #86B4CE",
"(. c #8DB3CE",
"). c #98B6CA",
"_. c #96BAD5",
"`. c #A2AFCA",
"'. c #AABBC7",
"]. c #B8BAC7",
"[. c #A3BBD4",
"{. c #EB93C2",
"}. c #D2B7C2",
"|. c #EEBBCD",
" X c #8CCCCB",
".X c #9AC4D8",
"XX c #ADC9C7",
"oX c #B6C9CA",
"OX c #A6C7D9",
"+X c #B7CADA",
"@X c #B6D0DA",
"#X c #9BE3CB",
"$X c #A9E3D9",
"%X c #92D1E9",
"&X c #A9CDE2",
"*X c #ABD3E2",
"=X c #B6D6E6",
"-X c #BBDCEB",
";X c #BCDBF2",
":X c #9DE1F4",
">X c #B7E8EB",
",X c #A7E6F5",
"<X c #ABECFD",
"1X c #B3EBF9",
"2X c #C8C7C9",
"3X c #D5D7CB",
"4X c #C6C9D6",
"5X c #C8D4DA",
"6X c #D4D3D0",
"7X c #F6C4CB",
"8X c #EBD0CA",
"9X c #FACCD4",
"0X c #F3D3D6",
"qX c #FDD3DB",
"wX c #D4E4D5",
"eX c #E2EEC8",
"rX c #C3D3E4",
"tX c #C8D6E7",
"yX c #C3DBED",
"uX c #DADCEE",
"iX c #C4DFF4",
"pX c #CCDFF1",
"aX c #F3DCE5",
"sX c #C6E4EC",
"dX c #D6E3EA",
"fX c #C5E1F4",
"gX c #CAE3F5",
"hX c #CDEAF3",
"jX c #D1E6F5",
"kX c #D3EDF5",
"lX c #D7EEF7",
"zX c #D8F4F7",
"xX c #DDF5F9",
"cX c #E1E8E9",
"vX c #E4EDF6",
"bX c #E2F6FA",
"nX c #EAF7F8",
"mX c #E4FAFA",
"MX c #EBFCFD",
"NX c #FAFDFB",
/* pixels */
"iXiXiXiXiXiXiXiXiXiXiXiXiXiXiXiXiXiXiXiXiXiXiXiXiXiXiXiXiXiXiXiXiXiXiXiXiXiXiXiXiXiXiXiXiXiXiXiXiXiXiXiXiXiXiXiXiXiXiXiXiXiXiXiX",
"iXiXiXiXiXiXiXiXiXiXiXiXiXiXiXiXiXiXiXiXiXiXiXiXiXiXiXiXiXiXiXiXiXiXiXiXiXiXiXiXiXiXiXiXiXiXiXiXiXiXiXiXiXiXiXiXiXiXiXiXiXiXiXiX",
"iXiXiXiXiXiXiXiXiXiXiXiXiXiXiXiXiXiXiXiXiXiXiXiXiXiXiXiXiXiXiXiXiXiXiXiXiXiXiXiXiXiXiXiXiXiXiXiXiXiXiXiXiXiXiXiXiXiXiXiXiXiXiXiX",
"iXiXiXiXiXiXiXiXiXiXiXiXiXiXiXiXiXiXiXiXiXiXiXiXiXiXiXiXiXiXiXiXiXiXiXiXiXiXiXiXiXiXiXiXiXiXiXiXiXiXiXiXiXiXiXiXiXiXiXiXiXiXiXiX",
"iXiXiXiXiXiXiXiXiXiXiXiXiXiXiXiXiXiXiXiXiXiXiXiXiXiXiXiXiXiXiXiXiXiXiXiXiXiXiXiXiXiXiXiXiXiXiXiXiXiXiXiXiXiXiXiXiXiXiXiXiXiXiXiX",
"iXiXiXiXiXiXiXiXiXiXiXiXiXiXiXiXiXiXiXiXiXiXiXiXiXiXiXiXiXiXiXiXiXiXiXiXiXiXiXiXiXiXiXiXiXiXiXiXiXiXiXiXiXiXiXiXiXiXiXiXiXiXiXiX",
"iXiXiXiXiXiXiXiXiXiXgXiXiXiXiXiXiXiXiXiXiXiXiX*XiXiXiXiXiXiXiXiXiXiXiXiXiXiXiXiXiXiXiXiXiXiXiXiXiXiXiXiXiXiXiXiXiXiXiXiXiXiXiXiX",
"iXiXiXiXiXiXiXiXiXiXy.fXfXiXiXiXiXiXiXiXiXiXpX_.vXiXiXiXiXiXiXiXiXiXiXiXiXiXiXiXiXiXiXiXiXiXiXiXiXiXiXiXiXiXiXiXiXiXiXiXiXiXiXiX",
"iXiXiXiXiXiXiXiXiX XsX/.mXxXfXfXiXiXiXiXiXiX;X-X=XiXiXiXiXiXiXiXiXiXiXiXiXiXiXiXiXiXiXiXiXiXiXiXiXiXiXiXiXiXiXiXiXiXiXiXiXiXiXiX",
"iXiXiXiXiXiXiXiXfX$XMXp.^..XxXfXfXfXiXiXiXiXiX=X_.-XiXiXiXiXiXiXiXiXiXiXiXiXiXiXiXiXiXiXiXiXiXiXiXiXiXiXiXiXiXiXiXiXiXiXiXiXiXiX",
"iXiXiXiXiXiXiXiXyX,.fX/.nXiX1.xXfXfXiXiXiXiXiXu.iX&XiXiXiXiXiXiXiXiXiXiXiXiXiXiXiXiXiXiXiXfXiXiXiXiXiXiXiXiXiXiXiXiXiXiXiXiXiXiX",
"iXiXiXiXiXiXiXiXfXX.-XsX[.iX1X.XfXjXiXiXiXiXiXi.u.iXyXiXiXiXiXiXiXiXiXiXiXiXiXiXiXiXiXiXiXiXiXiXiXiXiXiXiXiXiXiXiXiXiXiXiXiXiXiX",
"iXiXiXiXiXiXiXiXiX[.;XMX#._.;XfX=X.XlXiXiXiXiXiX#.pX[.iXiXiXiXyXiXiXfXB.B B sXiXiXiXiXiXiXiXiXiXiXiXiXiXiXiXiXiXiXiXiXiXiXiXiXiX",
"iXiXiXiXiXiXiXiXiXiXiXfX>.$._.iXiXiX_.jXiXiXiXiX)._.iXfXyX=X9 [ [ > & & w E T tXiXiXiXiXiXiXiXiXiXiXiXiXiXiXiXiXiXiXiXiXiXiXiXiX",
"iXiXiXiXiXiXiXiXiXiXiXfX(.=X>._.iXiXjX_.jXiXiXiX=X1.iX].N.i R e  .S g W A T w [ }.fX;XiXiXiXiXiXiXiXiXiXiXiXiXiXiXiXiXiXiXiXiXiX",
"iXiXiXiXiXiXiXiXiXiXiXiX;X+XuXy.`.gXpXiX(.nXiXpX_.;XlXiX< ; A W 0 e 0 0 D E D A I fXfXfXiXiXiXiXiXiXiXiXiXiXiXiXiXiXiXiXiXiXiXiX",
"iXiXiXiXiXiXiXiXiXiXiXiXbX/.vXpX^.`.iXiXiXp.bXiX@XiX,.rX, z.L.W w g g T W T , D q ..iXiXiXiXiXiXiXiXiXiXiXiXiXiXiXiXiXiXiXiXiXiX",
"iXiXiXiXiXiXiXiXiXiXiXiXgXu.dXuXiX).].iXiXiX).bX%X=XuX% < %XQ W S > j D d w ] Q I d P.fXiXiXiXiXiXiXiXiXiXiXiXiXiXiXiXiXiXiXiXiX",
"iXiXiXiXiXiXiXiXiXiXiXiXjX.X^.iXiXnX_.OXpXfXiX[.zX1.mX= >XB.A d U T T U S I.W.E.Q T q fXiXiXiXiXiXiXiXiXiXiXiXiXiXiXiXiXiXiXiXiX",
"iXiXiXiXiXiXiXiXiXiXiXiXnXfX$.,.iXiXtXK J.iXiXK..X_.l > 4.S u r W d { ] I.W.Q.C.I.' E iXiXiXiXiXiXiXiXiXiXiXiXiXiXiXiXiXiXiXiXiX",
"iXiXiXiXiXiXiXiXiXiXiXiXiXlX.X_.:.OXb.fX@XpXsXiXdX=X* = ,Xz D g S ] } C.W.W._ V._ R.+XiXiXiXiXiXiXiXiXiXiXiXiXiXiXiXiXiXiXiXiXiX",
"iXiXiXiXiXiXiXiXiXiXiXiXiXmX_.fXfX@XC wXhXJ.dXsXcXK.* > j S [ L.R.R.Z.Q.W.W.E.W.E.F iXiXiXiXiXiXiXiXiXiXiXiXiXiXiXiXiXiXiXiXiXiX",
"iXiXiXiXiXiXiXiXiXiXiXiXiXbX.XpXfXyXXXoX!.dXJ.iXdX!.{ > s Q ^ M.  . n.W.W.W.F.X   c iXiXiXiXiXiXiXiXiXiXiXiXiXiXiXiXiXiXiXiXiXiX",
"iXiXiXiXiXiXiXiXiXiXiXiXiXgXMX*Xu.fX5XfXgXJ.)._.4.H.! = 4  .^ . NXs.o S.W.W.j.  l.P.+XiXiXiXiXiXiXiXiXiXiXiXiXiXiXiXiXiXiXiXiXiX",
"iXiXiXiXiXiXiXiXiXiXiXiXiXiXiXfXxX:._.yXiXiX1.mXmXmXL 1 ^ ! / W.E.N.N.Q.W.W.W.W.Q.W.5XiXiXiXiXiXiXiXiXiXiXiXiXiXiXiXiXiXiXiXiXiX",
"iXiXiXiXiXiXiXiXiXiXiXiXiXfXiXiXfXxX-X,.=XfX4.mXMXmX3X& P Q V.E.W.W.W.E.W.W.W.W.Q.H fXiXiXiXiXiXiXiXiXiXiXiXiXiXiXiXiXiXiXiXiXiX",
"iXiXiXiXiXiXiXiXiXiXiXiXfXlXiXfXiXiXfXxXOXp.;X.XmXMXmX: 5 A ~ ' W.E.W.N.J ( W.Z.H gXiXiXiXiXiXiXiXiXiXiXiXiXiXiXiXiXiXiXiXiXiXiX",
"iXiXiXiXiXiXiXiXiXiXiXiXiXmXmXMXMXiXiXiXiXMX>X-.sXmXmX< 5 i A 1 3 E.W.W.W.Q.P.{ eXiXiXiXiXiXiXiXiXiXiXiXiXiXiXiXiXiXiXiXiXiXiXiX",
"iXiXiXiXiXiXiXiXiXiXiXiXjXjXxX1.(..X=XlXpXiXiXzXp.=XMXJ f U Y 7 * >.v 4 k v $ [ iXiXiXiXiXiXiXiXiXiXiXiXiXiXiXiXiXiXiXiXiXiXiXiX",
"iXiXiXiXiXiXiXiXiXiXiXiXiXiXjX*X1.xX=XdX*XlXfXfXhXkX*Xz.I i = i 1 y.{.qX|.;X& j T.iXiXiXiXiXiXiXiXiXiXiXiXiXiXiXiXiXiXiXiXiXiXiX",
"iXiXiXiXiXiXiXiXiXiXiXiXiXiXiXbXy.iXrX`.tX].p.MXfXfX4.- > $ 2 1 R.U.1XK. X,Xl j ..iXiXiXiXiXiXiXiXiXiXiXiXiXiXiXiXiXiXiXiXiXiXiX",
"iXiXiXiXiXiXiXiXiXiXiXiXiXiXiXiXvX1.aXiXv.| Y.wXXXzX;X- 6 * N.E.E.U.1X3XW.:X,XM ) fXiXiXiXiXiXiXiXiXiXiXiXiXiXiXiXiXiXiXiXiXiXiX",
"iXiXiXiXiXiXiXiXiXiXiXiXiXiXiXiXiXjX(.[.v.!.eX-XXX_.k.: 6 < R.W.E.Y.d.C gXE.3.B.D.OXfXiXiXiXiXiXiXiXiXiXiXiXiXiXiXiXiXiXiXiXiXiX",
"iXiXiXiXiXiXiXiXiXiXiXiXiXiXiXiXiXgXu.pX>XY.fX5Xx.lXy U > l E.' / H.V #XMX/ &.;.2.G.iXiXiXiXiXiXiXiXiXiXiXiXiXiXiXiXiXiXiXiXiXiX",
"iXiXiXiXiXiXiXiXiXiXiXiXiXiXiXiXiXiXbX_.sX-XK.6XU } 5 : t G.Q./ >XV H.H.d.c.O.8.2.qX4XpXiXiXiXiXiXiXiXiXiXiXiXiXiXiXiXiXiXfXiXiX",
"iXiXiXiXiXiXiXiXiXiXiXiXiXiXiXiXiXiXgXdX'.=X+X+XOXm.[ > h 7XqX+ 7.6.2.9.7.2.9.9.4.F.qX2XiXiXiXiXiXiXiXiXiXiXiXiXiXiXiXiXiXiXiXiX",
"iXiXiXiXiXiXiXiXiXiXiXiXiXiXiXiXiXiXiXiXlXfXfXD.m.n N 8 y qX|.h 6.7.=.;.7.#XV ;.5..X7XNX}.pXiXiXiXiXiXiXiXiXiXiXiXiXiXiXiXiXiXiX",
"iXiXiXiXiXiXiXiXiXiXiXiXiXiXiXiXiXiXyX XiXiXiXS.U 6 7 Z y qXC.0 6.V #X3.6.;.dX2.H.2.9XqXqX}.iXiXiXiXiXiXiXiXiXiXiXiXiXiXiXiXiXiX",
"iXiXiXiXiXiXiXiXiXiXiXiXiXiXiXiXiXiXiX&XiXiXiXfXD.h e a m.7X_ : *.d.zX%X:XNX>Xg.:Xb.9XNXF.}.iXiXiXiXiXiXiXiXiXiXiXiXiXiXiXiXiXiX",
"iXiXiXiXiXiXiXiXiXiXiXiXiXiXiXiXiXiX;XX..XiXiXfXZ.; [ 5XaXG.Z <.a.<Xd.1Xg.,X1XmX%X1.9X|.W.( iXiXiXiXiXiXiXiXiXiXiXiXiXiXiXiXiXiX",
"iXiXiXiXiXiXiXiXiXiXiXiXiXiXiXiXiXiXiXiXiXiXiXiXiXL 0 T 9XB K.a.<Xd.<X1XgX<X,Xt.g.<.m.8XW.W.c.iXiXiXiXiXiXiXiXiXiXiXiXiXiXiXiXiX",
"iXiXiXiXiXiXiXiXiXiXiXiXiXiXiXiXiXiXiXiXiXiXiXiXiX} p 7X9Xu.:X:Xw.f.NX<Xa.1Xt.q.t.G / / W.W.c iXiXiXiXiXiXiXiXiXiXiXiXiXiXiXiXiX",
"iXiXiXiXiXiXiXiXiXiXiXiXiXiXiXiXiXiXiXiXiXiXiXiXpXiX< qXF., @ w.w.f.h.,XkXX.3 c (.b / / W.W.W.oXiXiXiXiXiXiXiXiXiXiXiXiXiXiXiXiX",
"iXiXiXiXiXiXiXiXiXiXiXiXiXiXiXiXiXiXiXiXiXiXiXiXH x s qX7Xs @.e.e.@.r.q.l.W.W.W.W.c 0.3 ^ W.W.oXiXiXiXiXiXiXiXiXiXiXiXiXiXiXiXiX",
"iXiXiXiXiXiXiXiXiXiXiXiXiXiXiXiXiXiXiXiXiXiXiXiX5XM 8XqXB h @.t.d.$.) H 6XW.' W.W.W.v b./ W.W.3 iXiXiXiXiXiXiXiXiXiXiXiXiXiXiXiX",
"iXiXiXiXiXiXiXiXiXiXiXiXiXiXiXiXiXiXiXiXiXiXiXiXiXpX0XM.q G.r.+.0.jX@ / / / / ' W.W.l pX2XC.W.b.iXiXiXiXiXiXiXiXiXiXiXiXiXiXiXiX",
"iXiXiXiXiXiXiXiXiXiXiXiXiXiXiXiXiXiXiXiXiXiXiXuXaX7XA.iXB : o %.O q.@ / F c G / R.W.W.0 iXH U.k iXiXiXiXiXiXiXiXiXiXiXiXiXiXiXiX",
"iXiXiXiXiXiXiXiXiXiXiXiXiXiXiXiXiXiXiXiXiXiXA.7XM.0XtXfXfX2X,.0.%.0.0.+.%X+.+.l / W.W.Z.iXiXJ 4XiXiXiXiXiXiXiXiXiXiXiXiXiXiXiXiX",
"iXiXiXiXiXiXiXiXiXiXiXiXiXiXiXiXiXiXiXiXiXiXiXiXiXiXiXiXp +XO P 0 r.o.1.o.o.: 2 M Z.W.W.H iXj.T.iXiXiXiXiXiXiXiXiXiXiXiXiXiXiXiX",
"iXiXiXiXiXiXiXiXiXiXiXiXiXiXiXiXiXiXiXiXiXiXiXiXiXiXiXiX5XZ.2XpX& j i 8 U 7 D p A 4 V.E.P.m b.z.1 ;XiXiXiXiXiXiXiXiXiXiXiXiXiXiX",
"iXiXiXiXiXiXiXiXiXiXiXiXiXiXiXiXiXiXiXiXiXiXiXiXiXiXiXiXfXfXiXiX, m Z.* N * 6 % , N u / W.( F / Q.=XiXiXiXiXiXiXiXiXiXiXiXiXiXiX",
"iXiXiXiXiXiXiXiXiXiXiXiXiXiXiXiXiXiXiXiXiXiXiXiXiXiXiXiX].= tX$ N q fXi h $ { a < { Q tXv oX'.P E.u.iXiXiXiXiXiXiXiXiXiXiXiXiXiX",
"iXiXiXiXiXiXiXiXiXiXiXiXiXiXiXiXiXiXiXiXiXiXiXiXiXiXiXiXiX6Xr R I iXiX& +X7 g & d T 4Xn.iX=Xz.S.E.'.iXiXiXiXiXiXiXiXiXiXiXiXiXiX",
"iXiXiXiXiXiXiXiXiXiXiXiXiXiXiXiXiXiXiXiXiXiXiXiXiXiXiXiXiXiXiXiX5Xh u g }.#  .S.= I 4X; iXiXc.[.rXU.;XgXiXiXiXiXiXiXiXiXiXiXiXiX",
"iXiXiXiXiXiXiXiXiXiXiXiXiXiXiXiXiXiXiXiXiXiXiXiXiXiXiXiXiXiXiXiXiXiXiXiXfX- = ~.x [ D iXiXiX~ E.t.( 6XiXiXiXiXiXiXiXiXiXiXiXiXiX",
"iXiXiXiXiXiXiXiXiXiXiXiXiXiXiXiXiXiXiXiXiXiXiXiXiXiXiXiXiXiXiXiXiXiXiXiXfXm.I T.pXS.iXiXiXiX].~ b./.` 6XiXiXiXiXiXiXiXiXiXiXiXiX",
"iXiXiXiXiXiXiXiXiXiXiXiXiXiXiXiXiXiXiXiXiXiXiXiXiXiXiXiXiXiXiXiXiXiXiXiXiXiX4Xn.> D.iXiXiXiXiXrX/ OX2XiXiXiXiXiXiXiXiXiXiXiXiXiX",
"iXiXiXiXiXiXiXiXiXiXiXiXiXiXiXiXiXiXiXiXiXiXiXiXiXiXiXiXiXiXiXiXiXiXiXiXiXiXiXfXiXiXiXiXiXiXiXiXiX~ N.dXiXiXiXiXiXiXiXiXiXiXiXiX",
"iXiXiXiXiXiXiXiXiXiXiXiXiXiXiXiXiXiXiXiXiXiXiXiXiXiXiXiXiXiXiXiXiXiXiXiXiXiXiXiXiXiXiXiXiXiXiXiXiXiXiXiXiXiXiXiXiXiXiXiXiXiXiXiX",
"iXiXiXiXiXiXiXiXiXiXiXiXiXiXiXiXiXiXiXiXiXiXiXiXiXiXiXiXiXiXiXiXiXiXiXiXiXiXiXiXiXiXiXiXiXiXiXiXiXiXiXiXiXiXiXiXiXiXiXiXiXiXiXiX",
"iXiXiXiXiXiXiXiXiXiXiXiXiXiXiXiXiXiXiXiXiXiXiXiXiXiXiXiXiXfXiXiXiXiXiXiXiXiXiXiXiXiXiXiXiXiXiXiXiXiXiXiXiXiXiXiXiXiXiXiXiXiXiXiX",
"iXiXiXiXiXiXiXiXiXiXiXiXiXiXiXiXiXiXiXiXiXiXiXiXiXiXiXiXiXiXiXiXiXiXiXiXiXiXiXiXiXiXiXiXiXiXiXiXiXiXiXiXiXiXiXiXiXiXiXiXiXiXiXiX",
"iXiXiXiXiXiXiXiXiXiXiXiXiXiXiXiXiXiXiXiXiXiXiXiXiXiXiXiXiXiXiXiXiXiXiXiXfXiXiXiXiXiXiXiXiXiXiXiXiXiXiXiXiXiXiXiXiXiXiXiXiXiXiXiX",
"iXiXiXiXiXiXiXiXiXiXiXiXiXiXiXiXiXiXiXiXiXiXiXiXiXiXiXiXiXiXiXiXiXiXiXfX;XiXiXiXiXiXiXiXiXiXiXiXiXiXiXiXiXiXiXiXiXiXiXiXiXiXiXiX"
};
