/* XPM */
static char *result[] = {
/* columns rows colors chars-per-pixel */
"64 64 242 2 ",
"   c #1F1C16",
".  c #53423A",
"X  c #6D574B",
"o  c #596266",
"O  c #9C1E04",
"+  c #A71700",
"@  c #982709",
"#  c #A72604",
"$  c #B62B06",
"%  c #AB380D",
"&  c #B73D14",
"*  c #CB3405",
"=  c #C63708",
"-  c #D23807",
";  c #99441A",
":  c #B74614",
">  c #964C25",
",  c #90582E",
"<  c #A84B2F",
"1  c #B36833",
"2  c #D5460D",
"3  c #DB430D",
"4  c #CA4E18",
"5  c #D74D14",
"6  c #D75217",
"7  c #E74C11",
"8  c #EA5114",
"9  c #F3591A",
"0  c #DD631D",
"q  c #E46A1C",
"w  c #F4671B",
"e  c #C35628",
"r  c #D25428",
"t  c #EC5B22",
"y  c #D16F2F",
"u  c #E86525",
"i  c #F46926",
"p  c #E97829",
"a  c #F4772A",
"s  c #E56736",
"d  c #E67836",
"f  c #F47138",
"g  c #8D6248",
"h  c #AC764D",
"j  c #92746A",
"k  c #CA7857",
"l  c #E76F4C",
"z  c #E97644",
"x  c #CB7B6C",
"c  c #6BB53B",
"v  c #29907E",
"b  c #74BA48",
"n  c #6BA070",
"m  c #F5862A",
"M  c #F88A34",
"N  c #E99039",
"B  c #F99838",
"V  c #B88359",
"C  c #978471",
"Z  c #B18D70",
"A  c #85B969",
"S  c #C3865B",
"D  c #D58F56",
"F  c #E59545",
"G  c #F79446",
"H  c #F28E53",
"J  c #FAA947",
"K  c #F7B24E",
"L  c #FCB34C",
"P  c #FFB94E",
"I  c #F1A156",
"U  c #FAB857",
"Y  c #CB8A65",
"T  c #CA966D",
"R  c #D59568",
"E  c #D7996A",
"W  c #DB9973",
"Q  c #D6A06E",
"!  c #DAA47A",
"~  c #EEAB6F",
"^  c #FAAA66",
"/  c #E1CC66",
"(  c #FBD078",
")  c #FBE67B",
"_  c #0F5B9C",
"`  c #176399",
"'  c #337990",
"]  c #146DAB",
"[  c #2C78AC",
"{  c #47779B",
"}  c #127EC4",
"|  c #339787",
" . c #3D81AB",
".. c #3181B2",
"X. c #708C92",
"o. c #45A799",
"O. c #6EA89E",
"+. c #4484AD",
"@. c #458BB3",
"#. c #588CB2",
"$. c #5C98B6",
"%. c #6796B9",
"&. c #709BB0",
"*. c #4EABB5",
"=. c #59A6B8",
"-. c #69AAB3",
";. c #78A9B9",
":. c #5CC3A9",
">. c #6ACBB4",
",. c #74CDB5",
"<. c #068CD5",
"1. c #0E92D7",
"2. c #3394D1",
"3. c #32A5E2",
"4. c #4799CE",
"5. c #679EC2",
"6. c #56B2CE",
"7. c #53AFD3",
"8. c #6DA5C2",
"9. c #76A6C5",
"0. c #7DB3CA",
"q. c #66BDD7",
"w. c #7FB1D0",
"e. c #54B2E4",
"r. c #7DCDD1",
"t. c #74CBEC",
"y. c #A6988C",
"u. c #B89A8E",
"i. c #97A095",
"p. c #ADAA8C",
"a. c #839CBB",
"s. c #93B0A9",
"d. c #89A5BB",
"f. c #B2AEAA",
"g. c #ABB6BA",
"h. c #CB938F",
"j. c #D99887",
"k. c #E89099",
"l. c #D6AA84",
"z. c #D3AC91",
"x. c #E2AB86",
"c. c #E7B58B",
"v. c #E8BB94",
"b. c #EC9FA8",
"n. c #D3B3AD",
"m. c #ECA3AB",
"M. c #EFA8A8",
"N. c #F0AEB3",
"B. c #95C4B5",
"V. c #ACC6AA",
"C. c #B9C9A8",
"Z. c #ADCAB1",
"A. c #B6C8B8",
"S. c #EEC299",
"D. c #F5C890",
"F. c #D0CAAE",
"G. c #C6D5B7",
"H. c #DBD0B5",
"J. c #EDC7A7",
"K. c #F6CBA5",
"L. c #F3D1AC",
"P. c #F8D3AC",
"I. c #EBD4B7",
"U. c #F2F1B5",
"Y. c #86AAC5",
"T. c #99AFC8",
"R. c #86B5CB",
"E. c #8BBBD4",
"W. c #96BCD5",
"Q. c #A0A8C4",
"!. c #A5B5CC",
"~. c #B5B6C8",
"^. c #A7BBD3",
"/. c #BABDD3",
"(. c #C3BBC9",
"). c #EFBACF",
"_. c #95C1CB",
"`. c #88DBC5",
"'. c #93DDC6",
"]. c #99C2D6",
"[. c #BCC5C2",
"{. c #A5CADC",
"}. c #B5C9DA",
"|. c #BAD5DA",
" X c #99E4CB",
".X c #9FEBD3",
"XX c #AFF5DD",
"oX c #8CD7E9",
"OX c #A9C9E1",
"+X c #B8CCE4",
"@X c #AAD3E4",
"#X c #B6D7E6",
"$X c #BCD5EA",
"%X c #BCDBEC",
"&X c #BCD9F2",
"*X c #9CE1F5",
"=X c #A8E9FA",
"-X c #B5E7F5",
";X c #B9EAF2",
":X c #C6C9C9",
">X c #C6D8C8",
",X c #D4D2CF",
"<X c #C5CBDC",
"1X c #C8D9D8",
"2X c #F0CBCF",
"3X c #FBD4DB",
"4X c #CDEACB",
"5X c #EFEED0",
"6X c #CACFE5",
"7X c #C6D7E7",
"8X c #C4DBED",
"9X c #D2DCED",
"0X c #C4DFF4",
"qX c #CCDEF1",
"wX c #F2DBE4",
"eX c #FBDDE3",
"rX c #F4D4EC",
"tX c #C8E4E9",
"yX c #D1E9E7",
"uX c #C6E2F3",
"iX c #CBE3F5",
"pX c #C5E8F6",
"aX c #CDE9F6",
"sX c #D2E7F6",
"dX c #D3EDF5",
"fX c #DAEBF7",
"gX c #C3F9FD",
"hX c #D5F1F5",
"jX c #DAF3F6",
"kX c #D9F6FB",
"lX c #DCF5F9",
"zX c #E5E6E7",
"xX c #FCE4EA",
"cX c #F4F2ED",
"vX c #E3EFF8",
"bX c #E8F4F7",
"nX c #E3F4FA",
"mX c #E5FAFA",
"MX c #ECFCFD",
"NX c #FBF4F3",
"BX c #F3FCFB",
"VX c #FCFEFD",
/* pixels */
"0X0X0X0X0X0X0X0X0X0X0X0X0X0X0X0X0X0X0X0X0X0X0X0X0X0X0X0X0X0X0X0X0X0X0X0X0X0X0X0X0X0X0X0X0X0X0X0X0X0X0X0X0X0X0X0X0X0X0X0X0X0X0X0X",
"0X0X0X0X0X0X0X0X0X0X0X0X0X0X0X0X0X0X0X0X0X0X0X0X0X0X0X0X0X0X0X0X0X0X0X0X0X0X0X0X0X0X0X0X0X0X0X0X0X0X0X0X0X0X0X0X0X0X0X0X0X0X0X0X",
"0X0X0X0X0X0X0X0X0X0X0X0X0X0X0X0X0X0X0X0X0X0X0X0X0X0X0X0X0X0X0X0X0X0X0X0X0X0X0X0X0X0X0X0X0X0X0X0X0X0X0X0X0X0X0X0X0X0X0X0X0X0X0X0X",
"0X0X0X0X0X0X0X0X0X0X0X0X0X0X0X0X0X0X0X0X0X0X0X0X0X0X0X0X0X0X0X0X0X0X0X0X0X0X0X0X0X0X0X0X0X0X0X0X0X0X0X0X0X0X0X0X0X0X0X0X0X0X0X0X",
"0X0X0X0X0X0X0X0X0X0X0X0X0X0X0X0X0X0X0X0X0X0X0X0X0X0X0X0X0X0X0X0X0X0X0X0X0X0X0X0X0X0X0X0X0X0X0X0X0X0X0X0X0X0X0X0X0X0X0X0X0X0X0X0X",
"0X0X0X0X0X0X0X0X0X0X0X0X0X0X0X0X0X0X0X0X0X0X0X0X0X0X0X0X0X0X0X0X0X0X0X0X0X0X0X0X0X0X0X0X0X0X0X0X0X0X0X0X0X0X0X0X0X0X0X0X0X0X0X0X",
"0X0X0X0X0X0X0X0X0X0X0X0X0X0X0X0X0X0X0X0X0X0X0X0X0X0X0X0X0X0X0X0X0X0X0X0X0X0X0X0X0X0X0X0X0X0X0X0X0X0X0X0X0X0X0X0X0X0X0X0X0X0X0X0X",
"0X0X0X0X0X0X0X0X0X0X0X0X0X0X0X0X0X0X0X0X0X0X0X0X0X0X0X0X0X0X0X0X0X0X0X0X0X0X0X0X0X0X0X0X0X0X0X0X0X0X0X0X0X0X0X0X0X0X0X0X0X0X0X0X",
"mXpXVX0X0X0X0X0X0XuX0X0X0X0X0X0X0X0X0X0X0X0X0X0X0X0X0X0X0X0X0X0X0X0X0X0X0X0X0X0X0X0X0X0X0X0X0X0X0X0X0XMX0X0X0X0X0X0X0X0X0X0X0X0X",
"{.aXmX0X0X0X0X0X0X0X0X0X0X0X0X0X0X0X0X0X0X0X0X0X0X0X0X0X0X0X0X0X0X0X0X0X0X0X0X0X0X0X0X0X0X0X0X0X0X0XnX8.0X0X0X0X0X0X0X0X0X0X0X0X",
"NX+XvXpXlX0X0X0X0X0X0X0X0X0X0X0X0X0X0X0X0X0X0X0X0X0X0X0X0X0X0X0X0X0X0X0X0X0X0X0X0X0X0X0X0X0X0X0X0XsXd.0X0X0X0X0X0X0X0X0X0X0X0X0X",
"0XuX0XsXW.hXaX0X0X0X0X0X0X0X0X0X0X0X0X0X0X0X0X0X0X0X0X0X0X0X0X0X0X0X0X0X0X0X0X0X0X0X0X0X0X0X0XqXVX&XxXwX0X0X0X0X0X0X0X0X0X0X0X0X",
"%.fXtXiX0X+XpXdXsX0X0X0X0X0X0X0X0X0X0X0X0X0X0X0X0X0X0X0X;X0X0X8X0X0X7X0Xl :X0X0X0X0X0X0X0X0XaX@X%X0X0XE.0X0X0X0X0X0X0X0X0X0X0X0X",
"[ [ !.0X0X0X0X$XW.hX0X0X0X0X0X0X0X0X0X0X0X0X0X0X0X0X0X0XuX<Xt ^ r e < - 8 J a 0X0X0X0X0X0XiXOX&XsX0X9.@.0X0X0X0X0X0X0X0X0X0X0X0X",
"OX^.{ %.0X0X0X0XuX/.7XdX0X0X0X0X0X0X0X0X0X0X0X0X0X0X0X0XI 6 B 9 J J 6 N J L 9 ^ 0X0X0X0X0X%XqX0X0X9.9.0X0X0X0X0X0X0X0X0X0X0X0X0X",
"9.0XuX}.Y.OX0XuXuX&XqXT.hX0X0X0X0X0X0X0X0X0X0X0X0X0X0XH.* - P p - s 3 3 p P p 9 H.8X0X0X#X<XcX0XT.^.0X@X0X0X0X0X0X0X0X0X0X0X0X0X",
"9.qX0XwX0XOX5.&XqX9XNX9X$X].jX0X0X0X0X0X0X0X0X0X0X0X0X< t s P M i w J J P 0 J w w 5X0X&X&X0X0X^.Q.0XqXQ.0X0X0X0X0X0X0X0X0X0X0X0X",
"9X%.0X0X0XzXqX#.6X0XqX0X0X0XE.MX0X0XVX0XsXmXmXBXiX0X0X# X.-XP P G 2 i B 9 7 Q P a a tX~.$X&X}.Y.0X0X0X@.0X0X0X0X0X0X0X0X0X0X0X0X",
"BX@.R.qXxX0XqX0XbX&.7X-X0X0X0X^.%XhXuXuXMXmXmXmXBXmXY g z.8 M H p P J f M K.P.c.K d M 4X0X|.c 6XvXqX[ 0.0X0X0X0X0X0X0X0X0X0X0X0X",
"fXW.[  .+X0X0X0XqXO.b / 7X%X$X>Xg.W.MXaXbXmXaX0XsXfX< & oXJ 7 a U ^ J E K.P.P.P.S.I F.5X0XV.0XG.^.] +X;X0X0X0X0X0X0X0X0X0X0X0X0X",
"fXVXY.VX%.[ ^.uXZ.0X0X|.}.0X0X;XiXyXE.bXmXmXbX0X0XH.O X.gX8 B m G D.f P.P.P.d S.d ! pX5XC.uX%Xb Y.qX$XuX0X0X0X0X0X0X0X0X0X0X0X0X",
"0XhX$.0XfX9X{.s.A C.0X0X1XV.0XuXuX5XtXB.hXmX0X0X0XH.O 7 K P H D.K.c.c.P.P.P.v.P.L.u.pXC.4X[.V.s.0X0Xa.fX0X0X0X0X0X0X0X0X0X0X0X0X",
"nXMXR./.0X0X0XeXV.>XV.#XuXtXcXuXuX0XqXyXbXdXVX0X0X8X4 < L K E m.b.b.m.P.P.P.m.k.M.o 8.O.A.cX1X}.0X5.BXjX0X0X0X0X0X0X0X0X0X0X0X0X",
"0XhXmXsX9.W.7X0X!.U.fX0XZ.A.|.&.=.%.B.@X8XB.lXsX;XtXy k L R E X   j x P.P.K.. . X V MXOX0X5XG.@X@.BX0X0X0X0X0X0X0X0X0X0X0X0X0X0X",
"0X0X0XaXkXdXR.#.OX~.#X0X5XuX-.BXmXmXmXaX@X_.$.BX0Xg.6 h L R ! P.J.J.C P.P.P.P.P.P.! mX0.tX%X+.{.fX0X0X0X0X0X0X0X0X0X0X0X0X0X0X0X",
"0X0X0X0X0X0X0XnX#X+.&.0XU.tXs.lXmXmXmXmXmXmXjX$.MX0X# > L R P.P.L.L.P.L.P.P.P.P.P.u.lX{.[.8.hX0XuX0X0XuX0X0X0X0X0X0X0X0X0X0X0X0X",
"aXaX0X0X0X0X0X0XuXjXjXE.$.{.iX;.jXmXmXVXMXmXmXlX;.bX# r 1 K R J.L.P.P.V l.z.P.l.u.MX;.;.;X0X0X0X0XaXaXnX0X0X0X0X0X0X0X0X0X0X0X0X",
"nXmXmXmXlXnXuXuX0X0X0XuXdXuX_.;.&.hXmXBXmXBXMXmXuX$XD s p P : 1 W P.P.P.P.L.T U mX-.#XdXuX0XiXtXE.W.MXjX0X0X0X0X0X0X0X0X0X0X0X0X",
"0XVXmX5.Y.!.#.w.dXmXnXdX0X0XuXMXhX-.R.lXmXmXkXlXmX@X[.s p ) ) $ @ g , , , @ z U {.lXuXuXMXkX5.fXbX+.BX0X0X0X0X0X0X0X0X0X0X0X0X0X",
"0X0XfXmX$.Y.zXuX8XR.W.7XdXaXaXyX0XuXkXpX@XaXmXmXBXlXT.s y % 4 2 i.Y.).).rX# w D.uX;XaX%XbX0X+XQ...MX0X0X0X0X0X0X0X0X0X0X0X0X0X0X",
"0X0X0XuXnX9./.OX}.,X6XqX+X!.{.yXjXuX0XuXaXaX#X{.hXMXyX* $ q ; S ! 6.pXI.@XF.~ 0XU.aX1X:Xb (.6X+X{.iX0X0X0X0X0X0X0X0X0X0X0X0X0X0X",
"0X0X0X0X0XmX9.uX0X0X0X&.cXn V.U.C.A.BXlXuX0XuX0XlX].j * * p P.( P.$.=X%X[.=X2X5X_.1XF.sX0X(.bX9.aX0X0X0X0X0X0X0X0X0X0X0X0X0X0X0X",
"0X0X0X0XlXfXmX8.].6X+Xd.1X1XiX0XA.V.G._.@XlXvXaX&X%X= 7 O h P.P.S.=.r.V.H.|.*X4XA.].G.C.i.~.&.%X0X0X0X0X0X0X0X0X0X0X0X0X0X0X0X0X",
"0X0X0X0X0X&XuXMX9.6X9X1Xs.|.|.|.G.O.hXhXlXmXMX#XkXn.- * 6 W P.h E r.v .Xp.D.>.'.s.(.iX>X6XpX9.vX0X0X0X0X0X0X0X0X0X0X0X0X0X0X0X0X",
"0X0X0X0X0X0X0X0XmX9.0X0XpXVX:X&XpXuXNXpXhXlXnXzXzX0 s * k.! L.T p.:.XX.X=.X.` v O.2Xg.6XeX#X%X0X0X0X0X0X0X0X0X0X0X0X0X0X0X0X0X0X",
"0X0X0X0X0X0X0X0XnXdXW.8X+X#X$X6X!.A.G.tX@X%X@X:Xu z 2 7 k.xXm.n >.o.,.:.,.v ,.`.n.3X2X}.}.{.uXuX0X0X0X0X0X0X0X0X0X0X0X0X0X0X0X0X",
"0X0X0X0X0X0X0X0X0X0XvXlXsXsXvXsXaX0X0X0XqX0X0X0Xr d 3 5 h.3Xb.4 `.>.>.|  X,.,. X@X,XN.eXiXiX0X0X0X0X0X0X0X0X0X0X0X0X0X0X0X0X0X0X",
"0X0X0X0X0X0X0X0X0X0X>.uX0X0X0X0XuXuX0X0X0X0X0X7X3 H m * 3XxXx 0 ,..X`.o.:.*.o.v `.X.eXNXeX| 0XuX0X0X0X0X0X0X0X0X0X0X0X0X0X0X0X0X",
"0X0X0X0X0X0X0X0X0X0X#XuX0X0X0X0X0X0X0X0X0X0X9 W - 7 F.r 3Xm.2 1 o.t.kX*XoX*X].=Xq.z.wX).N.9.uXuX0X0X0X0X0X0X0X0X0X0X0X0X0X0X0X0X",
"0X0X0X0X0X0X0X0X0X0X@X0X0X0X0X0X0X0X0X0X0X0X0Xa f w j.- VXj.2 =.6.*X*X*X6.;XgX=XoXa.2Xb.J.X &XuX0X0X0X0X0X0X0X0X0X0X0X0X0X0X0X0X",
"0X0X0X0X0X0X0X0X0X0X' 0X0X0X0X0X0X0X0X0X0X0X0XG * ^ k M.).B t.6.*X=X=X=XoX;Xt.t.3.z.h.5XP.S.uXuX0X0X0X0X0X0X0X0X0X0X0X0X0X0X0X0X",
"0X0X0X0X0X0X0X0X0X0XY.0X0X0X0X0X0X0X0X0X0X0X0X0XN 8 q 3XM.-.q.=X6.1.kX*X6.t.e.t.[ T R v.P.P.j uX0X0X0X0X0X0X0X0X0X0X0X0X0X0X0X0X",
"0X0X0X0X0X0X0X0X0X0X0X0X0X0X0X0X0X0X0X0X0X0X0X0Xq D H eXk.2 ..7.3.<.t.r.@X] h Z [ E h W P.P.c.8X0X0X0X0X0X0X0X0X0X0X0X0X0X0X0X0X",
"0X0X0X0X0X0X0X0X0X0X0X0X0X0X0X0X0X0X0X0X0XuX7X0X= a N.).k.y <.1.<.e.e.` K.L.I.L.L.j 1.S S.L.l.iX0X0X0X0X0X0X0X0X0X0X0X0X0X0X0X0X",
"0X0X0X0X0X0X0X0X0X0X0X0X0X0X0X0X0X0X0X0X0X0Xu.x.= d 3XN.a < 2.e.e.] R X.f.v.W L.L.v.{ h R P.P.y.0X0X0X0X0X0X0X0X0X0X0X0X0X0X0X0X",
"0X0X0X0X0X0X0X0X0X0X0X0X0X0X0X0X0X0X0X0X0X0X0X:X: H eXl G y e.] 3.] Z E ~ h E P.P.P.f.0XW P.P.#X0X0X0X0X0X0X0X0X0X0X0X0X0X0X0X0X",
"0X0X0X0X0X0X0X0X0X0X0X0X0X0X0X0X0X0X0X0X0X0X0X9XrXeXl 2 z N _ } j _ Z E k h V T P.P.T ;X0XY ,Xy.0X0X0X0X0X0X0X0X0X0X0X0X0X0X0X0X",
"0X0X0X0X0X0X0X0X0X0X0X0X0X0X0X0X0X0X0X0X0X0Xm.b.m.N.n.4 7 J 2.3.} <.<.{ { 4.o W ! P.L.u.0X$X! f.0X0X0X0X0X0X0X0X0X0X0X0X0X0X0X0X",
"0X0X0X0X0X0X0X0X0X0X0X0X0X0X0X0X0X0X0X0X0X0X0X0X0X0X0X6X6X:X` F &.` ` _ ] y.6 B R P.P.J.8X0Xj n.0X0X0X0X0X0X0X0X0X0X0X0X0X0X0X0X",
"0X0X0X0X0X0X0X0X0X0X0X0X0X0X0X0X0X0X0X0X0X0X0X0X0X0XY (.= 7X$ ^ & I ( m * % B B N Y K.P.h -XC F.g.qX0X0X0X0X0X0X0X0X0X0X0X0X0X0X",
"0X0X0X0X0X0X0X0X0X0X0X0X0X0X0X0X0X0X0X0X0X0X0X0X0X0X0Xv.j.0XO i B - e N M r H B w z.1 x.P.y.V c.2X&X0X0X0X0X0X0X0X0X0X0X0X0X0X0X",
"0X0X0X0X0X0X0X0X0X0X0X0X0X0X0X0X0X0X0X0X0X0X0X0X0X0X0X0X0X0Xu.2 H % 7 : 2 $ 2 H = pXuXC T }.f.c.;.&X0X0X0X0X0X0X0X0X0X0X0X0X0X0X",
"0X0X0X0X0X0X0X0X0X0X0X0X0X0X0X0X0X0X0X0X0X0X0X0X0X0X0X$ 0X& s 4 uXy 7 # G u $ ( d &XuXuX0X{.g.v.P.|.0X0X0X0X0X0X0X0X0X0X0X0X0X0X",
"0X0X0X0X0X0X0X0X0X0X0X0X0X0X0X0X0X0X0X0X0X0X0X0X0X0XpXn.w H G ~ uX+ h.k d < d U j.uX0X0X0X7Xn.i.J.4.0X0X0X0X0X0X0X0X0X0X0X0X0X0X",
"0X0X0X0X0X0X0X0X0X0X0X0X0X0X0X0X0X0X0X0X0X0X0X0X0X0X0X0X7X7Xn.&XuXG pX% ^ N - qXl u.0X0X0X+X! P.w.[.I.0X0X0X0X0X0X0X0X0X0X0X0X0X",
"0X0X0X0X0X0X0X0X0X0X0X0X0X0X0X0X0X0X0X0X0X0X0X0X0X0X0X0X&XuXuXI I ~ 0X+ : I.6 U n.h.0X0X0XiXV ! Y.oXP.0X0X0X0X0X0X0X0X0X0X0X0X0X",
"0X0X0X0X0X0X0X0X0X0X0X0X0X0X0X0X0X0X0X0X0X0X0X0X0X0X0X0X0X0X0X0XuX0X0Xj.m 4Xf.n.n.0X0X0X0X0X0Xy.! OXl.0X0X0X0X0X0X0X0X0X0X0X0X0X",
"0X0X0X0X0X0X0X0X0X0X0X0X0X0X0X0X0X0X0X0X0X0X0X0X0X0X0X0X0X0X0X0X0X0X0X0X&XuX0XqX0X0X0X0X0X0X0X0X0X0X0X0X0X0X0X0X0X0X0X0X0X0X0X0X",
"0X0X0X0X0X0X0X0X0X0X0X0X0X0X0X0X0X0X0X0X0X0X0X0X0X0X0X0X0X0X0X0X0X0X0X0X0X0X0X0X0X0X0X0X0X0X0X0X0X0X0X0X0X0X0X0X0X0X0X0X0X0X0X0X",
"0X0X0X0X0X0X0X0X0X0X0X0X0X0X0X0X0X0X0X0X0X0X0X0X0X0X0X0X0X0X0X0X0X0X0X0X0X0X0X0X0X0X0X0X0X0X0X0X0X0X0X0X0X0X0X0X0X0X0X0X0X0X0X0X",
"0X0X0X0X0X0X0X0X0X0X0X0X0X0X0X0X0X0X0X0X0X0X0X0X0X0X0X0X0X0X0X0X0X0X0X0X0X0X0X0X0X0X0X0X0X0X0X0X0X0X0X0X0X0X0X0X0X0X0X0X0X0X0X0X",
"0X0X0X0X0X0X0X0X0X0X0X0X0X0X0X0X0X0X0X0X0X0X0X0X0X0X0X0X0X0X0X0X0X0X0X0X0X0X0X0X0X0X0X0X0X0X0X0X0X0X0X0X0X0X0X0X0X0X0X0X0X0X0X0X",
"0X0X0X0X0X0X0X0X0X0X0X0X0X0X0X0X0X0X0X0X0X0X0X0X0X0X0X0X0X0X0X0X0X0X0X0X0X0X0X0X0X0X0X0X0X0X0X0X0X0X0X0X0X0X0X0X0X0X0X0X0X0X0X0X",
"0X0X0X0X0X0X0X0X0X0X0X0X0X0X0X0X0X0X0X0X0X0X0X0X0X0X0X0X0X0X0X0X0X0X0X0X0X0X0X0X0X0X0X0X0X0X0X0X0X0X0X0X0X0X0X0X0X0X0X0X0X0X0X0X"
};
