/* XPM */
static char *result[] = {
/* columns rows colors chars-per-pixel */
"64 64 243 2 ",
"   c #0E0C0A",
".  c #001628",
"X  c #342A24",
"o  c #22576D",
"O  c #4F645E",
"+  c #675F6A",
"@  c #961B03",
"#  c #9B2102",
"$  c #A82706",
"%  c #B3310E",
"&  c #B93409",
"*  c #C63003",
"=  c #C93505",
"-  c #C93A0A",
";  c #D23A08",
":  c #A6421C",
">  c #B84314",
",  c #944B26",
"<  c #90582E",
"1  c #AC4D29",
"2  c #A95528",
"3  c #D0430C",
"4  c #DB420D",
"5  c #D34414",
"6  c #D54D16",
"7  c #C85017",
"8  c #D95718",
"9  c #E54B12",
"0  c #ED5216",
"q  c #E95919",
"w  c #F25618",
"e  c #F35F1D",
"r  c #CA611D",
"t  c #DB641E",
"y  c #E8671D",
"u  c #F5651E",
"i  c #C74B29",
"p  c #C4552A",
"a  c #CF592F",
"s  c #ED5A23",
"d  c #D2682B",
"f  c #EC6327",
"g  c #F56922",
"h  c #E77627",
"j  c #F57827",
"k  c #E66B36",
"l  c #F56E36",
"z  c #E87A36",
"x  c #F47439",
"c  c #BB5F49",
"v  c #91694F",
"b  c #A8744A",
"n  c #B47549",
"m  c #AA7952",
"M  c #91776C",
"N  c #B07E71",
"B  c #D47B52",
"V  c #E87647",
"C  c #EC7649",
"Z  c #F27646",
"A  c #76BA36",
"S  c #288F7D",
"D  c #74A171",
"F  c #F7852C",
"G  c #F88A34",
"H  c #E8933D",
"J  c #FD9637",
"K  c #FD9C3C",
"L  c #B88359",
"P  c #9B826C",
"I  c #998974",
"U  c #B08D71",
"Y  c #B7897A",
"T  c #AC917A",
"R  c #C3865A",
"E  c #C39C50",
"W  c #F28C4E",
"Q  c #E19342",
"!  c #F49A4A",
"~  c #F89557",
"^  c #FBAA46",
"/  c #F7B24E",
"(  c #FCB34C",
")  c #FFB94E",
"_  c #F0AC52",
"`  c #FAA55A",
"'  c #C98766",
"]  c #D59568",
"[  c #D3906E",
"{  c #D89A6B",
"}  c #DB9A74",
"|  c #E3946F",
" . c #DAA47A",
".. c #E0A26F",
"X. c #FBA866",
"o. c #F9B46E",
"O. c #E6AA7A",
"+. c #9FCA66",
"@. c #FFC158",
"#. c #F0C570",
"$. c #FBE67B",
"%. c #0D5A9B",
"&. c #17639A",
"*. c #126DAB",
"=. c #2B77A8",
"-. c #4E7391",
";. c #2E9686",
":. c #3D86B2",
">. c #439F8C",
",. c #718E91",
"<. c #42A799",
"1. c #4889AC",
"2. c #4B8EB4",
"3. c #578CB2",
"4. c #5795B9",
"5. c #6488AB",
"6. c #6997B9",
"7. c #789CB9",
"8. c #52B5A8",
"9. c #59A7BA",
"0. c #77ABAF",
"q. c #66A3BD",
"w. c #5EC4AA",
"e. c #69CEB3",
"r. c #79D1B9",
"t. c #038BD3",
"y. c #0A8CD2",
"u. c #1895DA",
"i. c #258DC8",
"p. c #4A98CD",
"a. c #50AACF",
"s. c #56B2CE",
"d. c #5BB7D6",
"f. c #68A5C3",
"g. c #78AAC7",
"h. c #7CB1CE",
"j. c #68BBD9",
"k. c #52B0E3",
"l. c #5AD7D7",
"z. c #7CC8D6",
"x. c #77C8E6",
"c. c #909586",
"v. c #A5978B",
"b. c #B79889",
"n. c #98B497",
"m. c #879DB6",
"M. c #8FB2B3",
"N. c #B1B0AD",
"B. c #D18C8D",
"V. c #E99280",
"C. c #E28B98",
"Z. c #D5AB83",
"A. c #D3AE92",
"S. c #E3AE83",
"D. c #E8B68A",
"F. c #E7BB94",
"G. c #E79EA7",
"H. c #CEACAF",
"J. c #D3B8B2",
"K. c #EEA5AB",
"L. c #EEB0B5",
"P. c #8CCBBB",
"I. c #B0C6AD",
"U. c #B5CABA",
"Y. c #F2C88F",
"T. c #EEC299",
"R. c #F6E998",
"E. c #C6D3A5",
"W. c #CFCCB2",
"Q. c #D4C6B7",
"!. c #ECC6A6",
"~. c #F4CCA5",
"^. c #F5CFA8",
"/. c #F3D1AC",
"(. c #F8D3AC",
"). c #EBD4B7",
"_. c #EFEEB6",
"`. c #83A9C6",
"'. c #96ABC8",
"]. c #87B8CD",
"[. c #8DBDD3",
"{. c #95B9D3",
"}. c #AAB9D2",
"|. c #D1BBCB",
" X c #F0BACB",
".X c #94CCCA",
"XX c #89DAC2",
"oX c #98C4D8",
"OX c #B3CDCC",
"+X c #A8CBDB",
"@X c #B5C8D8",
"#X c #B9D4DA",
"$X c #9BE3CB",
"%X c #B2E9DA",
"&X c #89D4E7",
"*X c #A8C9E1",
"=X c #B8CDE2",
"-X c #ACD3E6",
";X c #B9D6E7",
":X c #B4D4EA",
">X c #B2DAF2",
",X c #9CE1F5",
"<X c #BDE2EA",
"1X c #A8E8F9",
"2X c #B3EBF8",
"3X c #BFF0F9",
"4X c #C7C5CC",
"5X c #D1CACC",
"6X c #D6D5C7",
"7X c #C3CCDA",
"8X c #CCD6D5",
"9X c #EFCACA",
"0X c #F9CCD3",
"qX c #F6D1D5",
"wX c #FFD5DD",
"eX c #CAE2D8",
"rX c #DBE8D7",
"tX c #EFF3CB",
"yX c #C5D3E5",
"uX c #CCD6EC",
"iX c #C4DBEC",
"pX c #C8DAE8",
"aX c #D6DBEC",
"sX c #C4DFF4",
"dX c #C9DDF1",
"fX c #FEDBE3",
"gX c #FDD1F5",
"hX c #CAE6EE",
"jX c #D7E8E3",
"kX c #C6E2F4",
"lX c #CBE4F5",
"zX c #CAE7F4",
"xX c #D4EAF5",
"cX c #D6EBF7",
"vX c #C8F5FC",
"bX c #D6F3F7",
"nX c #DDF3FA",
"mX c #E5E8E9",
"MX c #F2ECF0",
"NX c #E7F6F9",
"BX c #E4FAF9",
"VX c #ECFCFD",
"CX c #F8F8F9",
/* pixels */
"sXsXsXsXsXsXsXsXsXsXsXsXsXsXsXsXsXsXsXsXsXsXsXsXsXsXsXsXsXsXsXsXsXsXsXsXsXsXsXsXsXsXsXsXsXsXsXsXsXsXsXsXsXsXsXsXsXsXsXsXsXsXsXsX",
"sXsXsXsXsXsXsXsXsXsXsXsXsXsXsXsXsXsXsXsXsXsXsXsXsXsXsXsXsXsXsXsXsXsXsXsXsXsXsXsXsXsXsXsXsXsXsXsXsXsXsXsXsXsXsXsXsXsXsXsXsXsXsXsX",
"sXsXsXsXsXsXsXsXsXsXsXsXsXsXsXsXsXsXsXsXsXsXsXsXsXsXsXsXsXsXsXsXsXsXsXsXsXsXsXsXsXsXsXsXsXsXsXsXsXsXsXsXsXsXsXsXsXsXsXsXsXsXsXsX",
"sXsXsXsXsXsXsXsXsXsXsXsXsXsXsXsXsXsXsXsXsXsXsXsXsXsXsXsXsXsXsXsXsXsXsXsXsXsXsXsXsXsXsXsXsXsXsXsXsXsXsXsXsXsXsXsXsXsXsXsXsXsXsXsX",
"sXsXsXsXsXsXsXsXsXsXsXsXsXsXsXsXsXsXdXsXsXsXsXsXsXsXsXsXsXsXsXsXsXsXsXsXsXsXsXsXsXsXsXsXsXsXsXsXsXsXsXsXsXsXsXsXsXsXsXsXsXsXsXsX",
"sXsXsXsXsXsXsXsXsXsXsXsXsXsXsXsXsXsXsXsXsXsXVXkXsXsXsXsXsXsXsXsXsXsXsXsXsXsXsXsXsXsXsXsXsXsXsXsXsXsXsXsXsXsXsXsXsXsXsXsXsXsXsXsX",
"sXsXsXsXsXsXsXsXsXcXsXsXsXsXsXsXsXsXsXsXsXsXcXcXsXsXsXsXsXsXsXsXsXsXsXsXsXsXsXsXsXsXsXkXsXsXsXsXsXsXsXsXsXsXsXsXsXsXsXsXsXsXsXsX",
"sXsXsXsXsXsXsXsXsXcXg.nXsXsXsXsXsXsXsXsXsXsXsX;XsXsXsXsXsXsXsXsXsXsXsXsXsXsXsXsXsXsXsXsXsXsXsXsXsXsXsXsXsXsXsXsXsXsXsXsXsXsXsXsX",
"sXsXsXsXsXsXsXsXsX$Xf.xXNXsXsXsXsXsXsXsXsXsX:Xf.NXsXsXsXsXsXsXsXsXsXsXsXsXsXsXsXsXsXsXsXsXsXsXsXsXsXsXsXsXsXsXsXsXsXsXsXsXsXsXsX",
"sXsXsXsXsXsXsXsXkX.XVX6.h.bXlXsXcXsXsXsXsXsXsX[.`.sXsXsXsXsXsXsXsXsXsXsXsXsXsXsXsXsXsXsXsXsXsXsXsXsXsXsXsXsXsXsXsXsXsXsXsXsXsXsX",
"sXsXsXsXsXsXsXsXsXq.bXm.sX+XoXzXsXsXsXsXsXsXsX*XMX-XsXsXsXsXsXsXsXsXsXsXsXsXsXsXsXsXsXsXsXsXsXsXsXsXsXsXsXsXsXsXsXsXsXsXsXsXsXsX",
"sXsXsXsXsXsXsXsX:X2.nXg.sXMXkXh.BXsXsXsXsXsXsXoXiX:XsXsXsXsXsXsXsXsXsXsXsXsXsXsXsXsXsXsXsXsXsXsXsXsXsXsXsXsXsXsXsXsXsXsXsXsXsXsX",
"sXsXsXsXsXsXsXsX:X7.xXoX=.kXsXsX}.cXsXsXsXsXlXCX2.sX;XlXsXsXsXsXsXsXyX<XV 4XsXsXsXsXsXsXsXsXsXsXsXsXsXsXsXsXsXsXsXsXsXsXsXsXsXsX",
"sXsXsXsXsXsXsXsXsXsXsXnX2.=.sXsXdX;X<XkXsXsXsXsX3.kX;XkXsX#Xs X.6 i 1 ; 0 ^ j kXsXsXsXsXsXsXsXsXsXsXsXsXsXsXsXsXsXsXsXsXsXsXsXsX",
"sXsXsXsXsXsXsXsXsXsXsXNX6.'.1.dXsXdXiX-XkXsXsXsX=Xg.sXzX! 8 J u / ^ 6 H ^ ( w X.sXkXkXsXsXsXsXsXsXsXsXsXsXsXsXsXsXsXsXsXsXsXsXsX",
"sXsXsXsXsXsXsXsXsXsXsXsX4.sX:X3.;XsXsXiX*XnXsXdX'.`.xXW.* 3 ( j 4 k 4 4 z ) h 0 Q.kXsXsXsXsXsXsXsXsXsXsXsXsXsXsXsXsXsXsXsXsXsXsX",
"sXsXsXsXsXsXsXsXsXsXsXsX;XkXsXaX1.iXsXcXiX*XkXsX{.MX{.1 s f ) G g e ^ ^ ) t K u g tXsXsXsXsXsXsXsXsXsXsXsXsXsXsXsXsXsXsXsXsXsXsX",
"sXsXsXsXsXsXsXsXsXsXsXsXVXg.sXsXxX3.MXsXsXsX;XlX].sXdX$ ,.1X( ( ! 6 g J w 6 ..) l j pXsXsXsXsXsXsXsXsXsXsXsXsXsXsXsXsXsXsXsXsXsX",
"sXsXsXsXsXsXsXsXsXsXsXsXVX:.=XaXsXsX6.dXaXaX=X;XoXiX[ v A.w G W h ( ^ l G ~.(.F.^ z G kXsXsXsXsXsXsXsXsXsXsXsXsXsXsXsXsXsXsXsXsX",
"sXsXsXsXsXsXsXsXsXsXsXsXkXg.:.iXsXsX5XA rXhXCXM.zX`.1 & &X^ 9 x @.` ^ { ^.(.(.(.T._ W.sXsXsXsXsXsXsXsXsXsXsXsXsXsXsXsXsXsXsXsXsX",
"sXsXsXsXsXsXsXsXsXsXsXsXsXiXuX2.7.<X6XkXU.kXkXjXW._.@ ,.vX9 ! G ! T.x (.(.(.x T.z Z.kX3XsXsXsXsXsXsXsXsXsXsXsXkXsXsXsXsXsXsXsXsX",
"sXsXsXsXsXsXsXsXsXsXsXsXsXlXuXsX#Xn.+.kXeXU.kXrXtXE.# 9 ( ( ~ #.~.D.D.(.(.(.F.(.A.b.sXsXsXsXsXsXsXsXsXsXsXsXsXsXsXsXsXsXsXsXsXsX",
"sXsXsXsXsXsXsXsXsXsXsXsXsXBXh.sXkX5XiXN.tXrXE.kX_.E.r : ( / v M       (.(.(.X . X T sXsXsXsXsXsXsXsXsXsXsXsXsXsXsXsXsXsXsXsXsXsX",
"sXsXsXsXsXsXsXsXsXsXsXsXsXnXBXf.mXsXI.mXeXE.0.f.0.U.d B / ] ] v.5.o l.(.(._.x.o /.L sXsXsXsXsXsXsXsXsXsXsXsXsXsXsXsXsXsXsXsXsXsX",
"sXsXsXsXsXsXsXsXsXsXsXsXsXsXkXnX-X6.yXsXiXsX;XBXNXOX7 n ( ]  .(.T O O (.(.(.T P (. .sXsXsXsXsXsXsXsXsXsXsXsXsXsXsXsXsXsXsXsXsXsX",
"sXsXsXsXsXsXsXsXsXsXsXsXsXkXsXsXsXBXf.6.hXkX.XBXBXVX& , ( ] (.(.(.(.(.(.(.^.(.(.^.v.sXsXsXsXsXsXsXsXsXsXsXsXsXsXsXsXsXsXsXsXsXsX",
"sXsXsXsXsXsXsXsXsXsXsXsXCXxXkXkXsXsXsXzXq.+XM.VXBXnX& ; 2 / ] ~.(.(.(.L  .Z.(. .v.sXsXsXsXsXsXsXsXsXsXsXsXsXsXsXsXsXsXsXsXsXsXsX",
"sXsXsXsXsXsXsXsXsXsXsXsXlXBXBXnXnXsXsXkXxXhX.X6.VXBX7 5 = @.& b  .(.(.(._.).{ Y.sXsXsXsXsXsXsXsXsXsXsXsXsXsXsXsXsXsXsXsXsXsXsXsX",
"sXsXsXsXsXsXsXsXsXsXsXsXCXBX*Xm.6.[.NXsXsXsXsXnX3.BXU 5 - $.$.$ ; v < < < > ` ) sXsXsXsXsXsXsXsXsXsXsXsXsXsXsXsXsXsXsXsXsXsXsXsX",
"sXsXsXsXsXsXsXsXsXsXsXsXkXkXBX4.*X<X}.{.cXlXsXsXnX;XN 5 d * 8 % c.'. X5XgX$ ` Y.sXsXsXsXsXsXsXsXsXsXsXsXsXsXsXsXsXsXsXsXsXsXsXsX",
"sXsXsXsXsXsXsXsXsXsXsXsXsXsXkXnX7.=X|.}.;X{.;XNXkXhXv * $ * : E Z.s.<X).-XW.D.kX_.<XsXsXsXsXsXsXsXsXsXsXsXsXsXsXsXsXsXsXsXsXsXsX",
"sXsXsXsXsXsXsXsXsXsXsXsXsXsXsXsX-X>XCXuX+.D _.E.hXxX5 9 @ & /.#./.f.2XhXOX1X9X<XsXsXsXsXsXsXsXsXsXsXsXsXsXsXsXsXsXsXsXsXsXsXsXsX",
"sXsXsXsXsXsXsXsXsXsXsXsXsXsXsXsXcX7.*XyXU.eXzXOXU.M ; 9 - b (.(.F.f.r.I.).%X,Xn.6XsXsXsXsXsXsXsXsXsXsXsXsXsXsXsXsXsXsXsXsXsXsXsX",
"sXsXsXsXsXsXsXsXsXsXsXsXsXsXsXsXsXnX'.mXU.U.#XmX[.& 0 * 6 } (.n ] 8.>.%XI T..X$X.X5XsXsXsXsXsXsXsXsXsXsXsXsXsXsXsXsXsXsXsXsXsXsX",
"sXsXsXsXsXsXsXsXsXsXsXsXsXsXsXsXsXsXoXdX<X+X).kX: d * h C.| (.n I w.BXXX9.,.&.S mXfXsXsXsXsXsXsXsXsXsXsXsXsXsXsXsXsXsXsXsXsXsXsX",
"sXsXsXsXsXsXsXsXsXsXsXsXsXsXsXsXsXsXnX{.=X:XsXw B k * ; 9XMXG.D e.<.r.w.r.o XXXXG. X9XuXsXsXsXsXsXsXsXsXsXsXsXsXsXsXsXsXsXsXsXsX",
"sXsXsXsXsXsXsXsXsXsXsXsXsXsXsXsXsXsXsXcXnXlXlXZ 6 9 g = C.wXL.2 w.e.r.;.%XVXr.$X-X5XL.0XiXsXsXsXsXsXsXsXsXsXsXsXsXsXsXsXsXsXsXsX",
"sXsXsXsXsXsXsXsXsXsXsXsXsXsXsXsXsXsXkXq.sXsXs w X.8 ; W CXMX[ $ OXjXXX;.P.8.;.;.XX,.fXMXwXsXsXsXsXsXsXsXsXsXsXsXsXsXsXsXsXsXsXsX",
"sXsXsXsXsXsXsXsXsXsXsXsXsXsXsXsXsXkXsXh.sXA.} * 9 ~ a s 0XK.t c <.l.1X,Xx.&Xz.1Xj.A.fXL.L.sXsXsXsXsXsXsXsXsXsXsXsXsXsXsXsXsXsXsX",
"sXsXsXsXsXsXsXsXsXsXsXsXsXsXsXsXsXkX;X*.sXdXD.C e | * 8 wX[ h 2.a.1X&X1Xs.vX3X1X&X5.qXG.!.M sXsXsXsXsXsXsXsXsXsXsXsXsXsXsXsXsXsX",
"sXsXsXsXsXsXsXsXsXsXsXsXsXsXdXsXsXsXsXsXsXsX_ * X.B.= L.L.4 a.s.1X1X3X,Xd.vXx.k.u.Q.B.!.(.T.sXsXsXsXsXsXsXsXsXsXsXsXsXsXsXsXsXsX",
"sXsXsXsXsXsXsXsXsXsXsXsXsXsXsXsXsXsXsXsXsXsXsXr e h 4 9XK.0.s.bXd.y.2X,Xd.k.k.-Xp.R ] ~.(.(.M hXsXsXsXsXsXsXsXsXsXsXsXsXsXsXsXsX",
"sXsXsXsXsXsXsXsXsXsXsXsXsXsXsXsXsXsXsXsXsXsXsXJ C h B fXC.J =.s.u.t.p.z.&X&.b v p.] n  .(.(.A.sXsXsXsXsXsXsXsXsXsXsXsXsXsXsXsXsX",
"sXsXsXsXsXsXsXsXsXsXsXsXsXsXsXsXsXsXsXsXsXpXsX* J ! V. XC.Q y.u.y.k.j.&./.(.(.(./.M t.R ~.(. .sXsXsXsXsXsXsXsXsXsXsXsXsXsXsXsXsX",
"sXsXsXsXsXsXsXsXsXsXsXsXsXsXsXsXsXsXsXsXsXB kXQ q `  XL.* Q i.j.x.7.] + N.T.{ (.(.T.0.m ] (.(.v.sXsXsXsXsXsXsXsXsXsXsXsXsXsXsXsX",
"sXsXsXsXsXsXsXsXsXsXsXsXsXsXsXsXsXsXsXsXsX@Xh 7XJ.Z wXo.* Q k.*.p.%.U ] O.n ] (././.N.kX} (.^.-XsXsXsXsXsXsXsXsXsXsXsXsXsXsXsXsX",
"sXsXsXsXsXsXsXsXsXsXsXsXsXsXsXsXsXsXsXsXsXsXsXZ wX0X|.f f a %.i.M *.Y [ R m L ] (.(.L zXsX' 6Xv.sXsXsXsXsXsXsXsXsXsXsXsXsXsXsXsX",
"sXsXsXsXsXsXsXsXsXsXsXsXsXsXsXsXsXsXsXsXsXH.G.G.G.C.i w j x a.u.*.y.t.-.-.2X-.]  .^.(.b.sXyXO.N.sXsXsXsXsXsXsXsXsXsXsXsXsXsXsXsX",
"sXsXsXsXsXsXsXsXsXsXsXsXsXsXsXsXsXsXsXsXsXsXsXsXsXsXj G J X.&.d o &.&.%.%.+ H - ] (.(.Y.yXiXM U.sXsXsXsXsXsXsXsXsXsXsXsXsXsXsXsX",
"sXsXsXsXsXsXsXsXsXsXsXsXsXsXsXsXsXsXsXsXsXsXsXsX4X7XsXa J u K i - g j & x g q p H ' ^.(.m sXP Q.N.sXsXsXsXsXsXsXsXsXsXsXsXsXsXsX",
"sXsXsXsXsXsXsXsXsXsXsXsXsXsXsXsXsXsXsXsXsXsXsXsXsX| q Z.kXw X.> ~ #.= y p j h j y #Xc  .(.v.R D.9XsXsXsXsXsXsXsXsXsXsXsXsXsXsXsX",
"sXsXsXsXsXsXsXsXsXsXsXsXsXsXsXsXsXsXsXsXsXsXsXsXsXsXsXsXkX= u t ; ~ * F $ x 3 J pXB.;XI } @XN.F.g.>XsXsXsXsXsXsXsXsXsXsXsXsXsXsX",
"sXsXsXsXsXsXsXsXsXsXsXsXsXsXsXsXsXsXsXsXsXsXsXsXsXN 7XsXz h O.U - j Z 5 $ 0 p V kXsXsXsXsX+XN.A.(.@XsXsXsXsXsXsXsXsXsXsXsXsXsXsX",
"sXsXsXsXsXsXsXsXsXsXsXsXsXsXsXsXsXsXsXsXsXsXsXsXsX8Xf > w o.J.Y s iX$ #.! _ 6 sXkX<XsXsXsX;XJ.v./.p.sXsXsXsXsXsXsXsXsXsXsXsXsXsX",
"sXsXsXsXsXsXsXsXsXsXsXsXsXsXsXsXsXsXsXsXsXsXsXsXsXsXdXJ jXiXsXF.H.hX* #.j W k sXsXsXsXsXsX#X ./.h.4X).sXsXsXsXsXsXsXsXsXsXsXsXsX",
"sXsXsXsXsXsXsXsXsXsXsXsXsXsXsXsXlXsXsXsXsXsXsXsXsXsXsXsXsXu u u W.: & O.t Z 8X* sXsXsXsXsXiXN S.`.&X^.sXsXsXsXsXsXsXsXsXsXsXsXsX",
"sXsXsXsXsXsXsXsXsXsXsXsXsXsXsXsXsXsXsXsXsXsXsXsXsXsXsXsXsXsXsXsX>Xi * R.b.B f sXsXsXsXsXsXsXsXT  .-XZ.sXsXsXsXsXsXsXsXsXsXsXsXsX",
"sXsXsXsXsXsXsXsXsXsXsXsXsXsXsXsXsXsXsXsXsXsXsXsXsXsXsXsXsXsXsXsXsXkXe ^ sX[ sXsXsXsXsXsXsXsXsXsXT ] (.sXsXsXsXsXsXsXsXsXsXsXsXsX",
"sXsXsXsXsXsXsXsXsXsXsXsXsXsXsXsXsXsXsXsXsXsXsXsXsXsXsXsXsXsXsXsXsXsXsX|.; |.sXsXsXsXsXsXsXsXsXsXsXsXsXsXsXsXsXsXsXsXsXsXsXsXsXsX",
"sXsXsXsXsXsXsXsXsXsXsXsXsXsXsXsXsXsXsXsXsXsXsXsXsXsXsXsXsXsXsXsXsXsXsXsXdXsXsXsXsXsXsXsXsXsXsXsXsXsXsXsXsXsXsXsXsXsXsXsXsXsXsXsX",
"sXsXsXsXsXsXsXsXsXsXsXsXsXsXsXsXsXsXsXsXsXsXsXsXsXsXsXsXsXsXsXsXsXsXsXsXsXsXsXsXsXsXsXsXsXsXsXsXsXsXsXsXsXsXsXsXsXsXsXsXsXsXsXsX",
"sXsXsXsXsXsXsXsXsXsXsXsXsXsXsXsXsXsXsXsXsXsXsXsXsXsXsXsXsXsXsXsXsXsXsXsXsXsXsXsXsXsXsXsXsXsXsXsXsXsXsXsXsXsXsXsXsXsXsXsXsXsXsXsX",
"sXsXsXsXsXsXsXsXsXsXsXsXsXsXsXsXsXsXsXsXsXsXsXsXsXsXsXsXsXsXsXsXsXsXsXsXsXsXsXsXsXsXsXsXsXsXsXsXsXsXsXsXsXsXsXsXsXsXsXsXsXsXsXsX",
"sXsXsXsXsXsXsXsXsXsXsXsXsXsXsXsXsXsXsXsXsXsXsXsXsXsXsXsXsXsXsXsXsXsXsXsXsXsXsXsXsXsXsXsXsXsXsXsXsXsXsXsXsXsXsXsXsXsXsXsXsXsXsXsX"
};
