/* XPM */
static char *result[] = {
/* columns rows colors chars-per-pixel */
"64 64 247 2 ",
"   c #001C31",
".  c #023B54",
"X  c #02465A",
"o  c #155C6A",
"O  c #6F5749",
"+  c #4F645E",
"@  c #6C6254",
"#  c #4D6274",
"$  c #8B1301",
"%  c #991E03",
"&  c #A91601",
"*  c #9A2305",
"=  c #BB2A02",
"-  c #AE350B",
";  c #C32B02",
":  c #C73305",
">  c #D53A08",
",  c #CA3F12",
"<  c #98431D",
"1  c #A84417",
"2  c #B74B1A",
"3  c #94582D",
"4  c #AC4F2E",
"5  c #BD6D34",
"6  c #D4420C",
"7  c #DC430D",
"8  c #C54710",
"9  c #C74616",
"0  c #D74C16",
"q  c #DB5717",
"w  c #E9450A",
"e  c #E64C12",
"r  c #E85517",
"t  c #F25618",
"y  c #F35D1C",
"u  c #DD641D",
"i  c #E6641E",
"p  c #F16F1D",
"a  c #C75826",
"s  c #D75628",
"d  c #C75635",
"f  c #E75724",
"g  c #D4692D",
"h  c #D66636",
"j  c #E66229",
"k  c #F56926",
"l  c #E87728",
"z  c #F47727",
"x  c #EA6832",
"c  c #F36E34",
"v  c #E67935",
"b  c #F3753A",
"n  c #8D6248",
"m  c #AC764D",
"M  c #8F7B6B",
"N  c #A9746F",
"B  c #CD7352",
"V  c #E67845",
"C  c #EF7849",
"Z  c #C67568",
"A  c #6BB53B",
"S  c #29907E",
"D  c #74BA48",
"F  c #6BA070",
"G  c #F48227",
"H  c #EA8D38",
"J  c #F88A37",
"K  c #FB983A",
"L  c #FFA53A",
"P  c #B88359",
"I  c #938271",
"U  c #B08E72",
"Y  c #85B969",
"T  c #C3865B",
"R  c #C39C50",
"E  c #F28B4F",
"W  c #FBAA46",
"Q  c #F7B24E",
"!  c #FCB34C",
"~  c #FFB94E",
"^  c #F1AA53",
"/  c #F9A659",
"(  c #CE8F6C",
")  c #D59568",
"_  c #D6996A",
"`  c #D99A74",
"'  c #ED8A64",
"]  c #DAA479",
"[  c #FCA767",
"{  c #EBAE75",
"}  c #82CA45",
"|  c #FBC470",
" . c #FBE67B",
".. c #0F5B9C",
"X. c #0F6892",
"o. c #1C649E",
"O. c #337990",
"+. c #1769A3",
"@. c #1271AF",
"#. c #2677A8",
"$. c #2F78AE",
"%. c #486F96",
"&. c #339887",
"*. c #3E81AB",
"=. c #3684B1",
"-. c #708B92",
";. c #45A799",
":. c #65AC9C",
">. c #4584AD",
",. c #578FB0",
"<. c #5B98B9",
"1. c #6C9BA9",
"2. c #6599B9",
"3. c #7798BA",
"4. c #56A8B9",
"5. c #79A9B8",
"6. c #5CC3A9",
"7. c #68CBB3",
"8. c #74CDB5",
"9. c #068CD5",
"0. c #0E92D7",
"q. c #3394D1",
"w. c #32A5E2",
"e. c #4799CE",
"r. c #56B2CE",
"t. c #53AFD3",
"y. c #72A7C6",
"u. c #76A8C6",
"i. c #7CB3CC",
"p. c #66BDD7",
"a. c #54B2E4",
"s. c #5AD7D7",
"d. c #7DCDD1",
"f. c #74CBEC",
"g. c #A5988C",
"h. c #B89A91",
"j. c #90A78D",
"k. c #ADAA8C",
"l. c #869CBB",
"z. c #98BAA5",
"x. c #90ABB1",
"c. c #B1B1B0",
"v. c #D4908F",
"b. c #EA9297",
"n. c #D8A884",
"m. c #D2AC93",
"M. c #EDAD88",
"N. c #E6B58B",
"B. c #E8BB94",
"V. c #E79FA8",
"C. c #D0B1AE",
"Z. c #C6BBBB",
"A. c #EBA4AD",
"S. c #F0AEB5",
"D. c #BBCB9D",
"F. c #91C6B9",
"G. c #AAC5A9",
"H. c #B8CAA6",
"J. c #AAC5B9",
"K. c #B6C8B7",
"L. c #B0D4BC",
"P. c #F5CA8F",
"I. c #EEC299",
"U. c #D2CEB1",
"Y. c #DBD0B5",
"T. c #F4CDA6",
"R. c #F3D1AC",
"E. c #F8D3AC",
"W. c #EFCDB2",
"Q. c #F1F1B2",
"!. c #86ABC7",
"~. c #87B3CB",
"^. c #98B0CA",
"/. c #8ABBD3",
"(. c #98BCD5",
"). c #A9B5CA",
"_. c #B4B9CC",
"`. c #A8BCD4",
"'. c #86BDE4",
"]. c #C3BDC5",
"[. c #C7BAD3",
"{. c #EFBACF",
"}. c #97C2C9",
"|. c #88DBC5",
" X c #97C3D8",
".X c #98D7D0",
"XX c #B3CACF",
"oX c #A8C7DC",
"OX c #B7C9D9",
"+X c #BAD5DA",
"@X c #99E4CB",
"#X c #9FEBD3",
"$X c #AFF5DD",
"%X c #8CD7E9",
"&X c #AACBE3",
"*X c #B6CCE3",
"=X c #ACD3E3",
"-X c #A9D6EA",
";X c #B2D3E4",
":X c #B8D8E6",
">X c #BCD5EB",
",X c #BCDBEC",
"<X c #BDDAF1",
"1X c #9CE1F5",
"2X c #BEE2EB",
"3X c #A8E9FA",
"4X c #B4EAF7",
"5X c #B5EEF6",
"6X c #C8C8CB",
"7X c #D2D0CC",
"8X c #C7CAD8",
"9X c #C8DAD8",
"0X c #F0CBCF",
"qX c #FBD4DB",
"wX c #CDE4CB",
"eX c #F0EECB",
"rX c #C5D8E7",
"tX c #CBD7E9",
"yX c #C4DBED",
"uX c #C4DFF4",
"iX c #CCDFF2",
"pX c #E1DEEC",
"aX c #F7DBE2",
"sX c #FDD1F5",
"dX c #C7E3EA",
"fX c #D4E6E9",
"gX c #C6E1F4",
"hX c #CCE4F5",
"jX c #CEEAF5",
"kX c #C2E1F8",
"lX c #D2E5F5",
"zX c #D4ECF5",
"xX c #D8EBF6",
"cX c #DEEEF9",
"vX c #C3F9FD",
"bX c #D5F2F5",
"nX c #DAF5F9",
"mX c #DCF4F9",
"MX c #ECEBEA",
"NX c #FBE3E8",
"BX c #E1EBF6",
"VX c #E3F4FA",
"CX c #E7F5F8",
"ZX c #E5FAFA",
"AX c #EBFCFB",
"SX c #F3FCFC",
"DX c #FBFCFB",
/* pixels */
"uXuXuXuXuXuXuXuXuXuXuXuXuXuXuXuXuXuXuXuXuXuXuXuXuXuXuXuXuXuXuXuXuXuXuXuXuXuXuXuXuXuXuXuXuXuXgXuXuXuXuXuXuXuXuXuXuXuXuXuXuXuXuXuX",
"uXuXuXuXuXuXgXuXuXuXuXuXuXuXuXuXuXuXuXuXuXuXuXuXuXuXuXuXuXuXuXuXuXuXuXuXuXuXuXuXuXuXuXuXuXuXuXuXuXuXuXuXuXuXuXuXuXuXuXuXuXuXuXuX",
"uXuXuXuXuXuXuXuXuXuXuXuXuXuXuXuXuXuXuXuXuXuXuXuXuXuXuXuXuXuXuXuXuXuXuXuXuXuXuXuXuXuXuXuXuXuXuXuXuXuXuXuXuXuXuXuXuXuXuXuXuXuXuXuX",
"uXuXuXuXuXuXuXuXuXuXuXuXuXuXuXuXuXuXuXuXuXuXuXuXuXuXuXuXuXuXuXuXuXuXuXuXuXuXuXuXuXuXuXuXuXuXuXuXuXuXuXuXuXuXuXuXuXuXuXuXuXuXuXuX",
"uXuXuXuXuXuXuXuXuXuXuXuXuXuXuXuXuXuXuXuXuXuXuXuXuXuXuXuXuXuXuXuXuXuXuXuXuXuXuXuXuXuXuXuXuXuXuXuXuXuXuXuXuXuXuXuXuXuXuXuXuXuXuXuX",
"uXuXuXuXuXuXuXuXuXuXuXuXuXuXuXuXuXuXuXuXuXuXuXuXuXuXuXuXuXuXuXuXuXuXuXuXuXuXuXuXuXuXuXuXuXuXuXuXuXuXuXuXuXgXuXuXuXuXuXuXuXuXuXuX",
"uXgXuXuXuXuXuXuXuXuXuXuXuXuXuXuXuXuXuXuXuXuXuXuXuXuXuXuXuXuXuXuXuXuXuXuXuXuXuXuXuXuXuXuXuXuXuXuXuXuXuXuXuXlX=XuXuXuXuXuXuXuXuXuX",
"BXgXuXuXuXuXuXuXuXuXuXuXuXuXuXuXuXuXuXuXuXuXuXuXuXuXuXuXuXuXuXkXuXuXuXuXuXuXuXuXuXuXuXuXuXuXuXuXuXuXuXuXjXfXoXgXuXuXuXuXuXuXuXuX",
"ZXgXuXuXcXxXuXuXuXuXuXuXuXuXuXuXuXuXuXuXuXuXuXuXuXuXuXuXuXuXuXuXuXuXuXuXuXuXuXuXuXuXuXuXuXuXuXuXuXuXuXAXdXy.DX5XuXuXuXuXuXuXuXuX",
" XjXZXcXuXuXuXuXuXuXuXuXuXuXuXuXuXuXuXuXuXuXuXuXuXuXuXuXuXuXuXuXuXuXuXuXuXuXuXuXuXuXuXuXuXuXuXuXuXgXBX~.oX(.hX5.uXuXuXuXuXuXuXuX",
"gX=X<.hXVXuXuXuXuXuXuXuXuXuXuXuXuXuXuXuXuXuXuXuXuXuXuXuXuXuXuXuXuXuXuXuXuXuXuXuXuXuXuXuXuXuXuXuXuXhXl.iXxX(.kX&.uXuXuXuXuXuXuXuX",
"uXgXuXyX2.zXjXuXhXuXuXuXuXuXuXuXuXuXuXuXuXuXuXuXuXuXuXuXuXuXuXuXuXuXuXuXuXuXuXuXuXuXuXuXuXuXuXgXdX,XuXyX2. XgXuXuXuXuXuXuXuXuXuX",
"2.rXpXzXpX*X XjXzXkXuXuXuXuXuXuXuXuXuXuXuXuXuXuXuXuXuXuX2XuXuXuXuXuXtXkXV 6XgXuXuXuXuXuXuXcXhX;X:XcXuXy.#.CXuX+.uXuXuXuXuXuXuXuX",
"$.$.rXgXiXuXuX>X,XZXuXuXAXuXuXuXuXuXuXuXuXuXuXuXuXuXuXuXgX8Xf [ 0 d < > t W z gXuXuXuXuXuXgX&X<XuXuXu.,.oXgXuX. uXuXuXuXuXuXuXuX",
"&X`.*.2.yXpXuXuXuX_.=XjXuXuXuXuXuXuXuXuXuXuXuXuXuXuXuXuX^ 0 K k W ! 0 H W ! t [ uXgXgXuXuX:XgXpXBXu.u.BX~.uXhXuXuXuXuXuXuXuXuXuX",
"3.pXuX`.,.`.uXuXuXkXtX^.bXuXuXuXuXuXuXuXuXuXuXuXuXuXuXY.: > ! l 7 h 7 7 v ! l t Y.yXuXxXgXOX<XlX`.~.uX*X=XuXuXuXuXuXuXuXuXuXuXuX",
"y.aX<XkXuX~.,.uXuXuXuXuXuX XxXBXuXuXuXuXuXuXuXuXuXuXuX4 f f ~ J y k W ! ~ u W y z eXuX,XrXuXuXoX^.uXuX^.gXgXuXuXuXuXuXuXuXuXuXuX",
"gX2.NXqXuXuXuX,._.<XuXuXuXaX~.bXgXuXuXuXhXZXAXZXuXlXuX- -.4X! ! W 6 k K t q _ ~ k z rX_.>X>XOX!.yXuXyX2.cXuXuXuXuXuXuXuXuXuXuXuX",
"VX*./.uXuXBXiXuX(.5.rXuXuXlXuXXX:XmXuXkXAXAXZXZXAXSX( n m.t J E l ! / z J T.E.N.! v J wXuX+XA rXgXgX$.u.DXuXuXuXuXuXuXuXuXuXuXuX",
"mX/.#.>.*XuXuXuX<Xj.D L.<X>XyXY.z.(.ZXlXSXZXhXuXuXcX4 - %XW e z ~ [ L _ T.E.E.E.B.^ U.uXDXG.dX_.`.+.;X;XuXuXuXuXuXuXuXuXuXuXuXuX",
"mX,X!.8X2.$.`.uXc.<XkX+X+XeXfXgXuX2XMXnXZXZXuXlX2XY.* -.5Xr K J E I.b R.E.E.J I.V ] 2XgXH.lX,XD !.uX8XDXuXuXuXuXuXuXuXuXuXuXuXuX",
"uXAX,.gXuXuXOXx.Y eXuXuXwXG.hXdXhX2XeX}.xXZXgXcXgXY.* e ~ ! E P.O ] N.E.E.E.P.O @ h.wXMXwX6XH.z.uXuX3.xXuXuXuXuXuXuXuXuXuXuXuXuX",
"uXSXi._.uXuXiXuXG.Q.G.:XuXuXG.2XeXyX<XgXK.xXgXgXgXyXa 4 ! Q ) M %.X X E.E.E.X   MX@ y.1.J.uX9XOXuX2.mXmXuXuXuXuXuXuXuXuXuXuXuXuX",
"kXxXCXzXu.`.rXlX_.wXuXuXJ.H.+X1.-X1.G.=XyXF.mXjXgX2Xg B Q _ ) eX1.o 6.E.E.E.f.o E.P ZX=XuX4XU.&X:XSXuXuXuXuXuXuXuXuXuXuXuXuXuXuX",
"uXuXuXjXcXjXi.3XoX_.9XuXhXgX1.nXnXZXZXjX=X}.<.CXgXZ.2 5 ~ ) ] E.h.+ + E.E.E.U I E.n.ZX/.gX:X>.oXcXuXuXuXuXuXuXuXuXuXuXuXuXuXuXuX",
"uXuXuXuXuXuXkXZX;X>.2.uXeXgXz.zXZXZXZXZXZXZXSX<.ZXc.& 3 ! ) E.E.E.E.E.R.E.R.E.E.E.U nX&XG.&XVXuXuXuXuXuXuXuXuXuXuXuXuXuXuXuXuXuX",
"lXjXuXgXhXuXuXuXuXmXbX/.mXoXgXu.nXZXZXZXZXZXZXmX2.C.s l < Q _ I.E.E.E.P ] m.E.n.k.SX5.5.,XuXuXuXuXjXhXAXuXuXuXuXuXuXuXuXuXuXuXuX",
"AXZXZXZXmXxXuXuXCXuXuXuXzXdX}.5..XnXZXZXZXZXAXZXnXc.h z * ~ 2 m ` E.E.E.Q.E._ P.ZXy.:XxX2XuXhXgX/. XAXnXuXuXuXuXuXuXuXuXuXuXuXuX",
"gXVXAX<.!.l.,.i.zXZXgXgXgXyXgXxXbX2.!.nXZXZXZXmXZX=Xg z %  . .* t n 3 3 3 a E ~ :XVXuXuXAXmX2.`.uX>.SXgXuXuXuXuXuXuXuXuXuXuXuXuX",
"uXVXmXSX2.!.&X<XyX~./.rXZXxXdXdXlXhXnX;X2XjXCXZXnXCXg ; 5 ; 8 8 g.!.{.7XsXr }.| gXgXjX,X/.uXrX^.+.CXuXuXuXuXuXuXuXuXuXuXuXuXuXgX",
"uXuXuXgXZXy.).&XOX_.`.tX*X).oXnXZXjXgXgXjXdX:X4XbX7X= = u ; - R n.r.gXW.-XU.Y.uXQ.mX+X6XD ].tX*XxXhXuXuXuXuXuXuXuXuXuXuXuXuXuXuX",
"uXuXuXuXuXAX~.0XuXuXuX3.} F H.Q.U.J.SXZXcXgXkXgXZXZ 6 - q q W.P.T.r.4XdXXX3XW.CX}.9XH.uXuX[.uX3.jXuXuXuXuXuXuXuXuXuXuXuXuXuXuXuX",
"uXuXuXuXuXuXZXy. X`.*Xx.9XwXgXfX+XG.oX}.=XbXbXhX_.; e - s m E.E.B.y.d.G.Y.XX1XwXK. XD.H.z.DX3.:XuXuXuXuXuXuXuXuXuXuXuXuXuXuXuXuX",
"uXuXuXgXgXuXuXAXu.pXNXOXz.+X+X*XU.z.bXZXxXnXjXnX- r : > x ` E.m ) d.&.#Xz.P.8.@Xx.].uX6X8X2Xu.cXuXuXuXuXuXuXuXuXuXuXuXuXuXuXuXuX",
"uXuXuXuXuXuXuXuXmX~.uXkXuX[.G.iX4XgX}.2XzXW.DX2 j : r : b.{ T._ U 6.$X#X,.-.X.S :.0Xc.jXkX;X2XuXuXuXuXuXuXuXuXuXuXuXuXuXuXuXuXuX",
"uXuXuXuXuXuXuXuXkXCX^.;X*X:XyXiX).L.U.;X-X:Xj B j 6 > e b.aXA.F 7.;.8.6.8.S |.|.C.aX0X8XOXoXgXmXuXuXuXuXuXuXuXuXuXuXuXuXuXuXuXuX",
"uXuXuXuXVXuXuXuXlXuXlXZXiXlXiXlXjXgXuXuXgXuXB x > l 8 r v.qXA.N d.7.7.&.@X8.7.@X=X7XS.aXhXhXuXuXuXuXuXuXuXuXuXuXuXuXuXuXuXuXuXuX",
"uXuXuXuXuXuXuXuXuXuX7.uXuXuXuXuX<XgXuXuXgXm.w ' J : l > qXNXZ w 8.#X@X;.6.4.;.S @X-.aXNXqX&.uXgXuXuXuXuXuXuXuXuXuXuXuXuXuXuXuXuX",
"uXuXuXuXuXuXuXuXuXuX-XuXuXuXuXuXkX<XuX8Xt V w ; n., 0 G 0XA.= 5 ;.s.nX1X%X-Xd.4Xp.m.aX{.S.y.uXuXuXuXuXuXuXuXuXuXuXuXuXuXuXuXuXuX",
"uXuXuXuXuXuXuXuXuXuX;XuXuXuXuXuXgXgXgXgXhXg b z ].7 7 L SXv.7 ,.t.3X%X3Xr.5XvX3X%X3.0XV.T.O uXuXuXuXuXuXuXuXuXgXuXuXuXuXuXuXuXuX",
"uXuXuXuXuXuXuXuXuXuXO.iXuXuXuXuXgXuXuXuXuXq e K ; 6 e E.{.& f.r.3X3X3X3X%X5Xf.f.w.n.v.eXE.I.uXgXuXuXuXuXuXgXuXuXuXuXuXuXuXuXuXuX",
"uXuXuXuXuXuXuXuXuXuX!.uXuXuXuXuXuXuXuXuXuXU.E L = 6 8 qXA.y.p.5Xr.0.nX1Xr.f.a.f.=.U ) I.E.E.M yXuXuXuXuXuXuXuXuXuXuXuXuXuXuXuXuX",
"uXuXuXuXuXuXuXuXuXuXuXuXuXuXuXuXuXuXuXuXuXuX9 2 ; > ' qXb.Z.$.r.w.9.p.%X-Xo.m U #._ m ` E.E.n.uXuXuXuXuXuXuXuXuXuXuXuXuXuXuXuXuX",
"uXuXuXuXuXuXuXuXuXuXuXuXuXuXuXuXuXuXuXuXrX` 9 [ k e M.0Xb.).9.0.9.a.a...T.R.R.E.E.M 0.T T.E.n.uXuXuXuXuXuXuXuXuXuXuXuXuXuXuXuXuX",
"uXuXuXuXuXuXuXuXuXuXuXuXuXuXuXuXuXuXuXZ.n.4 b E m.z qXS.w 1 q.t.a.+._ j.c.M._ E.E.B.%.m _ E.E.g.uXuXuXuXuXuXuXuXuXuXuXuXuXuXuXuX",
"uXuXuXuXuXuXuXuXuXuXuXuXuXuXuXuXuXuXuXuX6X5 E 6X, ' qX{ w ).a.@.w.@.U _ ` m ) E.E.E.c.gX_ E.E.=XuXuXuXuXuXuXuXuXuXuXuXuXuXuXuXuX",
"uXuXuXuXuXuXuXuXuXuXuXuXuXuXuXuXuXuXuXuXtXC.7Xc qXqX' t y s ..9.M @.N _ T N P ) E.E.U hXgX( Y.g.uXuXuXuXuXuXuXuXuXuXuXuXuXuXuXuX",
"uXuXuXuXuXuXuXuXuXuXuXuXuXuXuXuXuXuXiX8XC.iXA.V.A.A.E H K i q.0.@.9.9.%.%.e.# _ ` E.E.h.gX>Xn.c.uXuXuXuXuXuXuXuXuXuXuXuXuXuXuXuX",
"uXuXuXuXuXuXuXuXuXuXuXuXuXuXuXuXuXuXuXuXuXuXuXuX7Xi ` [ K 7 o.m.1.+.+...$.O _.8X) E.E.T.rXyXM Z.uXuXuXuXuXuXuXuXuXuXuXuXuXuXuXuX",
"uXuXuXuXuXuXuXuXuXuXuXuXuXuXuXuXuXuXuXuXuXuXuX7X].0 h x ! - g W 6 ; V k j h Z.uXOXT T.E.m iXM U.c.uXuXuXuXuXuXuXuXuXuXuXuXuXuXuX",
"uXuXuXuXuXuXuXuXuXuXuXuXuXuXuXuXuXuXuXuXuXuXuXC.v.Z.N > K - C [ r G E l k { s ( V 8XU n.E.g.P N.0X<XuXuXuXuXuXuXuXuXuXuXuXuXuXuX",
"uXuXuXuXuXuXuXuXuXuXuXuXuXuXuXuXuXuXuXuXuXuXuXuXhXuXrX= 6Xp ; h 6 : $ k ; C.uX8XuXuX2XI _ OXc.N.i.<XuXuXuXuXuXuXuXuXuXuXuXuXuXuX",
"uXuXuXuXuXuXuXuXuXuXuXuXuXuXuXuXuXuXuXuXuXuXkX- ].( f - tX* 0 a V - 4 v f uXuXuXuXuXuXuXuXoX).N.E.XXgXgXgXuXuXuXuXuXuXuXuXuXuXuX",
"uXuXuXuXuXuXuXuXuXuXuXuXuXgXuXuXuXuXuXuXuXuXuXuXp V E B.uX% B d q - c ~ h h.uXuXuXuXuXuXuXrXZ.g.W.e.kX2XuXuXuXuXuXuXuXuXuXuXuXuX",
"uXuXuXuXuXuXuXuXuXuXuXuXuXuXuXuXuXuXuXuXuXuXuXuXuXrX` c.uXz ' 1 / v > M.m.B uXuXuXuXuXuXuX+Xn.R.i.6XW.gXuXuXuXuXuXuXuXuXuXuXuXuX",
"uXuXuXuXuXuXuXuXuXuXuXuXuXuXuXuXuXuXuXuXuXuXuXuXuXuXgX^ ^ { <X& v hXE { ` C.uXuXuXuXuXuXgXkXP n.!.'.R.gXuXuXuXuXuXuXuXuXuXuXuXuX",
"uXuXuXuXuXuXuXuXuXuXuXuXuXuXuXuXuXuXuXuXuXuXuXuXuXuXuXuXuXuX8Xf Q kXh.h.uXuXuXuXuXuXuXgXgXuXuXU ] &Xm.uXuXuXuXuXuXuXuXuXuXuXuXuX",
"uXuXuXuXuXuXuXuXuXuXuXuXuXuXuXuXuXuXuXuXuXuXuXuXuXuXuXuXuXuXuXN 6 J 9 uXuXuXuXuXuXuXgX<XuXuXuXuXU _ E.uXuXuXuXuXuXuXuXuXuXuXuXuX",
"uXuXuXuXuXuXuXuXuXuXuXuXuXuXuXuXuXuXuXuXuXuXuXuXuXuXuXuXuXuXuXuXkX( iXuXuXuXuXuXuXuXuXuXuXuXuXuXuXuXuXuXuXuXuXuXuXuXuXuXuXuXuXgX",
"uXuXuXuXuXuXuXuXuXuXuXuXuXuXuXuXuXuXuXuXuXuXuXuXuXuXuXuXuXuXuXuXuXuXuXuXuXuXuXuXuXuXuXuXuXuXuXuXuXuXuXuXuXuXuXuXuXuXuXuXuXgXkX<X",
"uXuXuXuXuXuXuXuXuXuXuXuXuXuXuXuXuXuXuXuXuXuXuXuXuXuXuXuXuXuXuXuXuXuXuXuXuXuXuXuXuXuXuXuXuXuXuXuXuXuXuXuXuXuXuXuXuXuXuXuXuXuXuXuX",
"uXuXuXuXuXuXuXuXuXuXuXuXuXuXuXuXuXuXuXuXuXuXuXuXuXuXuXuXuXuXuXuXuXuXuXuXuXuXuXuXuXuXuXuXuXuXuXuXuXuXuXuXuXuXuXuXuXuXuXuXuXuXuXuX",
"uXuXuXuXuXuXuXuXuXuXuXuXuXuXuXuXuXuXuXuXuXuXuXuXuXuXuXuXuXuXuXuXuXuXuXuXuXuXuXuXuXuXuXuXuXuXuXuXuXuXuXuXuXuXuXuXuXuXuXuXuXuXuXuX",
"uXuXuXuXuXuXuXuXuXuXuXuXuXuXuXuXuXuXuXuXuXuXuXuXuXuXuXuXuXuXuXuXuXuXuXuXuXuXuXuXuXuXuXuXuXuXuXuXuXuXuXuXuXuXuXuXuXuXuXuXuXuXuXuX"
};
