/* XPM */
static char *result[] = {
/* columns rows colors chars-per-pixel */
"64 64 248 2 ",
"   c #001C31",
".  c #043A4C",
"X  c #02465A",
"o  c #155C6A",
"O  c #6A5946",
"+  c #4F645E",
"@  c #606262",
"#  c #901702",
"$  c #9B2102",
"%  c #AB2503",
"&  c #B52803",
"*  c #BA360B",
"=  c #A73718",
"-  c #BB3D13",
";  c #C62D02",
":  c #C53104",
">  c #C73608",
",  c #CD3A0B",
"<  c #DA3905",
"1  c #D13C09",
"2  c #93431C",
"3  c #B74212",
"4  c #90582E",
"5  c #AB4A2D",
"6  c #B26533",
"7  c #D3430D",
"8  c #DB430E",
"9  c #C94D14",
"0  c #D64D15",
"q  c #DA5718",
"w  c #E8480E",
"e  c #E44B12",
"r  c #EA5518",
"t  c #F25618",
"y  c #F25A1A",
"u  c #DB631F",
"i  c #E8661C",
"p  c #F3621E",
"a  c #F5761C",
"s  c #D95A28",
"d  c #C85230",
"f  c #ED5B24",
"g  c #DA6A2A",
"h  c #CE6534",
"j  c #D87736",
"k  c #E86827",
"l  c #F36727",
"z  c #E97928",
"x  c #F47529",
"c  c #F5782A",
"v  c #EB6832",
"b  c #E77933",
"n  c #F47439",
"m  c #AE5F42",
"M  c #8D6248",
"N  c #A9774F",
"B  c #B47549",
"V  c #8F7B6B",
"C  c #B7786E",
"Z  c #D37751",
"A  c #EB7947",
"S  c #EA7651",
"D  c #DC7969",
"F  c #76BA36",
"G  c #288F7D",
"H  c #679D6A",
"J  c #F78A2D",
"K  c #E68D3E",
"L  c #F68A36",
"P  c #FB9639",
"I  c #FDA339",
"U  c #B88359",
"Y  c #9B826C",
"T  c #8A8176",
"R  c #B08A72",
"E  c #AC917A",
"W  c #C3865A",
"Q  c #D39251",
"!  c #F88646",
"~  c #F69746",
"^  c #ED8C52",
"/  c #FAA947",
"(  c #F7B24E",
")  c #FCB34C",
"_  c #FFB94E",
"`  c #FAA556",
"'  c #F1AC55",
"]  c #C88B67",
"[  c #CD8F6D",
"{  c #D59568",
"}  c #D7986A",
"|  c #DA9874",
" . c #E6866A",
".. c #FE9E61",
"X. c #DAA16D",
"o. c #DAA47A",
"O. c #E8A767",
"+. c #FCA465",
"@. c #F2B26D",
"#. c #96C75E",
"$. c #FFC158",
"%. c #FDD179",
"&. c #FBE67B",
"*. c #0D5A9B",
"=. c #175D9B",
"-. c #156498",
";. c #33768E",
":. c #146DAA",
">. c #1776B7",
",. c #2D7CA7",
"<. c #2C73A9",
"1. c #4D7094",
"2. c #0E7BC1",
"3. c #2E9683",
"4. c #3683AF",
"5. c #48998B",
"6. c #718E91",
"7. c #4CA99B",
"8. c #4D8AB1",
"9. c #5796B7",
"0. c #6997BA",
"q. c #7699B9",
"w. c #51B2AB",
"e. c #59A7BA",
"r. c #63B7A6",
"t. c #74A6B4",
"y. c #5CC3A9",
"u. c #6CC6AF",
"i. c #69CEB3",
"p. c #7BD6BC",
"a. c #0289D2",
"s. c #0D92D7",
"d. c #3A94CD",
"f. c #3EA8DF",
"g. c #1B9AE4",
"h. c #56AFCF",
"j. c #56B2CE",
"k. c #5AACDD",
"l. c #6AA7C3",
"z. c #77AAC7",
"x. c #4CACE2",
"c. c #59B3E8",
"v. c #7DC9D3",
"b. c #67C1EF",
"n. c #74CBE4",
"m. c #96968A",
"M. c #B88D89",
"N. c #A5978B",
"B. c #B49D89",
"V. c #97AFAF",
"C. c #B2AEA8",
"Z. c #ACB4B7",
"A. c #D3938D",
"S. c #EA9297",
"D. c #D6AB83",
"F. c #D2B08D",
"G. c #C7A796",
"H. c #D7A898",
"J. c #EBAE88",
"K. c #E6B48B",
"L. c #E7BC94",
"P. c #E79EA7",
"I. c #C7A5A4",
"U. c #CBB3A8",
"Y. c #D1B1B2",
"T. c #EDA4AD",
"R. c #F2B2B6",
"E. c #87CFBA",
"W. c #B3C9AF",
"Q. c #B6C8B9",
"!. c #F0C685",
"~. c #EEC299",
"^. c #F5C899",
"/. c #CCCCAF",
"(. c #DCC5A7",
"). c #E8C8A7",
"_. c #F4CDA6",
"`. c #F3D1AC",
"'. c #F8D3AC",
"]. c #EAD3B8",
"[. c #F4F4BE",
"{. c #84AAC6",
"}. c #96AAC6",
"|. c #87B5C9",
" X c #8EBAD4",
".X c #B2B9CD",
"XX c #86BDE4",
"oX c #CBBDCC",
"OX c #EFBCCD",
"+X c #F7BBC4",
"@X c #88D2C9",
"#X c #93D9C7",
"$X c #97C5D9",
"%X c #A8C8DA",
"&X c #B8CAD9",
"*X c #B0D0D3",
"=X c #BAD5D8",
"-X c #98E3CA",
";X c #ADE5D8",
":X c #8DD9EB",
">X c #A4CBE1",
",X c #ADCCE5",
"<X c #B8CDE3",
"1X c #ACD3E3",
"2X c #A9D6EA",
"3X c #B0D3E5",
"4X c #B4D4EB",
"5X c #BBD7E8",
"6X c #BDDAF0",
"7X c #8EE5F5",
"8X c #9CE1F5",
"9X c #BDE3EA",
"0X c #A4E4F5",
"qX c #ACECFD",
"wX c #B3EBF7",
"eX c #AEF1FA",
"rX c #CAC7CB",
"tX c #D3CEC6",
"yX c #C8C9D6",
"uX c #CCD5D9",
"iX c #EECECA",
"pX c #F5D5D9",
"aX c #FED4DC",
"sX c #CCE0D0",
"dX c #E7EDC7",
"fX c #F7ECD2",
"gX c #C4D2E5",
"hX c #C7D8E8",
"jX c #C3DAED",
"kX c #C4DFF4",
"lX c #C8DFF2",
"zX c #D0DBF0",
"xX c #FCDCE3",
"cX c #C7E7ED",
"vX c #C6E1F4",
"bX c #CCE4F5",
"nX c #CBE8F5",
"mX c #D6ECF7",
"MX c #C0F7FD",
"NX c #D8F2F5",
"BX c #DCF3FA",
"VX c #E9E5EB",
"CX c #F8EFEB",
"ZX c #E1EEF7",
"AX c #E7F4FA",
"SX c #E4FAFA",
"DX c #EBFCFC",
"FX c #FDFCFB",
/* pixels */
"kXkXkXkXkXkXkXkXkXkXkXkXkXkXkXkXkXkXkXkXkXkXkXkXkXkXkXkXkXkXkXkXkXkXkXkXkXkXkXkXkXkXkXkXkXkXkXkXkXkXkXkXkXkXkXkXkXkXkXkXkXkXkXkX",
"kXkXkXkXkXkXkXkXkXkXkXkXkXkXkXkXkXkXkXkXkXkXkXkXkXkXkXkXkXkXkXkXkXkXkXkXkXkXkXkXkXkXkXkXkXkXkXkXkXkXkXkXkXkXkXkXkXkXkXkXkXkXkXkX",
"kXkXkXkXkXkXkXkXkXkXkXkXkXkXkXkXkXkXkXkXkXkXkXkXkXkXkXkXkXkXkXkXkXkXkXkXkXkXkXkXkXkXkXkXkXkXkXkXkXkXkXkXkXkXkXkXkXkXkXkXkXkXkXkX",
"kXkXkXkXkXkXkXkXkXkXkXkXkXkXkXkXkXkXkXkXkXkXkXkXkXkXkXkXkXkXkXkXkXkXkXkXkXkXkXkXkXkXkXkXkXkXkXkXkXkXkXkXkXkXkXkXkXkXkXkXkXkXkXkX",
"kXkXkXkXkXkXkXkXkXkXkXkXkXkXkXkXkXkXkXkXkXkXkXkXkXkXkXkXkXkXkXkXkXkXkXkXkXkXkXkXkXkXkXkXkXkXkXkXkXkXkXkXkXkXkXkXkXkXkXkXkXkXkXkX",
"kXkXkXkXkXkXkXkXkXkXkXkXkXkXkXkXkXkXkXkXkXkXkXkXkXkXkXkXkXkXkXkXkXkXkXkXkXkXkXkXkXkXkXkXkXkXkXkXkXkXkXkXkXkXkXkXkXkXkXkXkXkXkXkX",
"kXkXkXkXkXkXkXkXkXbXkXkXkXkXkXkXkXkXkXkXkXkXmXkXkXkXkXkXkXkXkXkXkXkXkXkXkXkXkXkXkXkXkXkXkXkXkXkXkXkXkXkXkXkXkXkXkXkXkXkXkXkXkXkX",
"kXkXkXkXkXkXkXkXkXmXz.BXkXkXkXkXkXkXkXkXkXkXAX3XkXkXkXkXkXkXkXkXkXkXkXkXkXkXkXkXkXkXkXkXkXkXkXkXkXkXkXkXkXkXkXkXkXkXkXkXkXkXkXkX",
"kXkXkXkXkXkXkXkXkX;Xl.nXSXvXvXkXvX6XvXkXkXkX4Xl.AXkXkXkXkXkXkXkXkXkXkXkXkXkXkXkXkXkXkXkXkXkXkXkXkXkXkXkXkXkXkXkXkXkXkXkXkXkXkXkX",
"kXkXkXkXkXkXkXkXkX@XDX0.|.mXnXkXvXvXvXkXkXkXvX X{.kXkXkXvXkXkXkXkXkXkXkXkXkXkXkXkXkXkXkXkXkXkXkXkXkXkXkXkXkXkXkXkXkXkXkXkXkXkXkX",
"kXkXkXkXkXkXkXkXkX0.BX{.vX%X$XnXvX6XkXkXkXkXnX>X6X2XvXvXkXkXkXkXkXkXkXkXkXkXkXkXkXkXkXkXkXkXkXkXkXkXkXkXkXkXkXkXkXkXkXkXkXkXkXkX",
"kXkXkXkXkXkXkXkX>X8.BXz.6XvXbXz.SXkXkXkXkXkXkX$XkX4X6XkXkXkXkXvXkXkXkXkXkXkXkXkXkXkXkXkXkXkXkXkXkXkXkXkXkXkXkXkXkXkXkXkXkXkXkXkX",
"kXkXkXkXkXkXkXkX4Xq.kX$X,.vXvX6X.XmXvXkXkXkXkXmX9.mX<XkX6XvXvX6XkXkXgX6XA rXkXkXkXkXkXkXkXkXkXkXkXkXkXkXkXkXkXkXkXkXkXkXkXkXkXkX",
"kXkXkXkXkXkXkXkXvXkXkXBX,.,.kXBXkX5X9XkXkXkXkXkX9.lX,XkXvX=Xf +.0 d 5 1 e / c vXkXkXkXkXkXkXkXkXkXkXkXkXkXkXkXkXkXkXkXkXkXkXkXkX",
"kXkXkXkXkXkXkXkXkXkXkXAX0.}.8.4XvXkXAX1XvXkXkXkXlXz.kXbX~ q P l ( ) 0 K ) ) t +.kXvXvXkXkXkXkXkXkXkXkXkXkXkXkXkXkXkXkXkXkXkXkXkX",
"kXkXkXkXkXkXkXkXkXkXkXkX9.lX4X8.5XZXjX6X,XbXkXkX}.{.zX/.: < _ z 1 v 8 8 z _ z r (.bX9XkXkXkXkXkXkXkXkXkXkXkXkXkXkXkXkXkXkXkXkXkX",
"kXkXkXkXkXkXkXkXkXkXkXkX1XvXVXkX8.jXkXkXkX>XbXvX XgX X5 r v _ L l y / / ) g I p x dXkXkXkXkXkXkXkXkXkXkXkXkXkXkXkXkXkXkXkXkXkXkX",
"kXkXkXkXkXkXkXkXkXkXkXkXDXq.VXkXlX8.xXlXkXZX4XbX|.kXzX% 6.wX_ _ P 7 x P t 0 X._ v x jXkXkXkXkXkXkXkXkXkXkXkXkXkXkXkXkXkXkXkXkXkX",
"kXkXkXkXkXkXkXkXkXkXkXkXDX4.<XkXkXlX0.zXZXvX5X5X$XjX] M G.t J ! b _ / n L ^.'.L.) b P kXkXkXkXkXkXkXkXkXkXkXkXkXkXkXkXkXkXkXkXkX",
"kXkXkXkXkXkXkXkXkXkXkXkXbXz.,.,XkXkXoXF jXjXjXV.nX|.5 3 :X/ e c _ ` / } '.'.'.'.L.' (.kXkXkXkXkXkXkXkXkXkXkXvXkXkXkXkXkXkXkXkXkX",
"kXkXkXkXkXkXkXkXkXkXkXkXvX%XjX9.q.cXQ.6XW.vXfXvXQ.[.$ 6.MXe P L ~ ~.n '.'.'.L ^.A D.kXkXkXkXkXkXkXkXkXkXkXkXkXkXkXkXkXkXkXkXkXkX",
"kXkXkXkXkXkXkXkXkXkXkXkXkXvXgXkX&XW.#.vXhXW.CXvX[.F.$ e ) ) ^ %.O D.K.'.'.'.~.O O B.kXkXkXkXkXkXkXkXkXkXkXkXkXkXkXkXkXkXkXkXkXkX",
"kXkXkXkXkXkXkXkXkXkXkXkXkXSX%XkXvXrX6XW.[.cXdX9X[./.9 5 _ ( { T 1.X X '.'.'..   VXE kXkXkXkXkXkXkXkXkXkXkXkXkXkXkXkXkXkXkXkXkXkX",
"kXkXkXkXkXkXkXkXkXkXkXkXkXBXSXl.3XkXW.vXuXW.V.e.r.sXg Z ( { } fXt.o j.'.'.'.n.o '.W kXkXkXkXkXkXkXkXkXkXkXkXkXkXkXkXkXkXkXkXkXkX",
"kXkXkXkXkXkXkXkXkXkXkXkXkXkXvXBX>X0.gXkXvXvX1XDXDXF.- B ( } o.'.E + + '.'.'.E Y '.o.6XkXkXkXkXkXkXkXkXkXkXkXkXkXkXkXkXkXkXkXkXkX",
"kXkXkXkXkXkXkXkXkXkXkXkXkXkXkXkXkXSXl.0.vXvXz.SXSXF.% 6 ( { '.'.'.'.'.`.'.'.'.'.'.N.vXkXkXkXkXkXkXkXkXkXkXkXkXkXkXkXkXkXkXkXkXkX",
"kXkXkXkXkXkXkXkXkXkXkXkXmXbXkXkXkX9XvXNXz.1XV.DXDXR s z 2 ( } ).'.`.'.U F.F.'.o.N.kXvXvXkXkXkXkXkXkXkXkXkXkXkXkXkXkXkXkXkXkXkXkX",
"kXkXkXkXkXkXkXkXkXkXkXkXbXSXAXBXBXvXvXvXnX9X$X9.DXX.s u % $.3 6 X.`.'.'.'.'.[ !.kXkXkX6XkXkXkXkXkXkXkXkXkXkXkXkXkXkXkXkXkXkXkXkX",
"kXkXkXkXkXkXkXkXkXkXkXkXFXDX>XV.0.$XDXkXkXkXvXBX8.U.v 7 & &.&.> t M 4 4 4 { tX_ vXvX6XvXkXkXkXkXkXkXkXkXkXkXkXkXkXkXkXkXkXkXkXkX",
"kXkXkXkXkXkXkXkXkXkXkXkXkXkXDX9. XkX.XNXnXbXjXvXAXM.0 & g ; 9 i m.}.OXtXxX+.9X!.vX6XvXvXkXkXkXkXkXkXkXkXkXkXkXkXkXkXkXkXkXkXkXkX",
"kXkXkXkXkXkXkXkXkXkXkXkXkXkXvXBXq.,XoX.XjX}.9XNXvX- 1 - : ; 2 U D.h.vX`.2X/.(.vXdXvXkXkXkXkXkXkXkXkXkXkXkXkXkXkXkXkXkXkXkXkXkXkX",
"kXkXkXkXkXkXkXkXkXkXkXkXkXkXvXkX4X6XxXjX#.H DX/.Q., e q : * `.%.'.e.0XcX*XqXiXvXkXkXkXkXkXkXkXkXkXkXkXkXkXkXkXkXkXkXkXkXkXkXkXkX",
"kXkXkXkXkXkXkXkXkXkXkXkXkXkXkXkXmXq.hX<XQ.uXzX*X& 8 % ^ 1 B '.'.L.l.p.W.(.*X8XFXC.kXkXkXkXkXkXkXkXkXkXkXkXkXkXkXkXkXkXkXkXkXkXkX",
"kXkXkXkXkXkXkXkXkXkXkXkXkXkXkXkXvXBX}.gX*XQ.=X6 f 1 7 U.r } '.U } *XG -X].~.y.-XE.oXkXkXkXkXkXkXkXkXkXkXkXkXkXkXkXkXkXkXkXkXkXkX",
"kXkXkXkXkXkXkXkXkXkXkXkXkXvXkXkXkXkX1XkXU.U.O.s , , : r S.X._.Y.F.y.#X9X9.6.-.G 5.+XlXkXkXkXkXkXkXkXkXkXkXkXkXkXkXkXkXkXkXkXkXkX",
"kXkXkXkXkXkXkXkXkXkXkXkXkXkXkXkXkXkXBX.X<X|  .y 0 e w r S.xXOXH i.7.v.y.p.3.E.#XY.pXOXhXkXkXkXkXkXkXkXkXkXkXkXkXkXkXkXkXkXkXkXkX",
"kXkXkXkXkXkXkXkXkXkXkXkXkXkXkXkXkXkXkXbXiXS b ; J > k x S.aXP.3X;Xi.p.3.p.r.u.-X1XVXY.FXlXkXkXkXkXkXkXkXkXkXkXkXkXkXkXkXkXkXkXkX",
"kXkXkXkXkXkXkXkXkXkXkXkXkXkXkXkXkXkXkXr.D.< j I < r , r iXxXD w w.E.-X7.7.w.5.3.#X6.xXaXaXkXkXkXkXkXkXkXkXkXkXkXkXkXkXkXkXkXkXkX",
"kXkXkXkXkXkXkXkXkXkXkXkXkXkXkXkXkXkXlX[ H.w < jX, k J 1 pXT.t 6 7.n.SX8XqXwXn.eXk.G.CXOXT.vXkXkXkXkXkXkXkXkXkXkXkXkXkXkXkXkXkXkX",
"kXkXkXkXkXkXkXkXkXkXkXkXkXkXkXkXkXlX4X,.q ! J Z e 7 J k FXA.S h.j.0X:X8Xh.qXSXqX:XV.+XP.).Y kXkXkXkXkXkXkXkXkXkXkXkXkXkXkXkXkXkX",
"kXkXkXkXkXkXkXkXkXkXkXkXkXkXkXkXkXkXkXtX0 v c ; 7 l > R.R.8 eXj.8X8XeXeXwXeXn.b.c.[ A.fX'.L.kXlXkXkXkXkXkXkXkXkXkXkXkXkXkXkXkXkX",
"kXkXkXkXkXkXkXkXkXkXkXkXkXkXkXkXkXkXkXkX(.g I ; , 9 u CXT.t.n.qXj.s.DX8Xj.7Xf.b.<.[ } ).'.'.V lXkXkXkXkXkXkXkXkXkXkXkXkXkXkXkXkX",
"kXkXkXkXkXkXkXkXkXkXkXkXkXkXkXkXkXkXkXkXA.Q z > t k Z xXS.6X4.h.c.s.7Xn.2X<.N G.:.} B | '.'.F.kXkXkXkXkXkXkXkXkXkXkXkXkXkXkXkXkX",
"kXkXkXkXkXkXkXkXkXkXkXkXkXkXkXkXkXkX..kXj i ` x p r J.+XS.,Xa.s.s.x.c.=._.'.`.'.'.T g.W _.'.D.kXkXkXkXkXkXkXkXkXkXkXkXkXkXkXkXkX",
"kXkXkXkXkXkXkXkXkXkXkXkXkXkXkXkXvX6XM.Z 9 L J > c q pXR.gX,Xd.x.x.=.{ V.C.L.| '.'.~.;.N | '.'.N.kXkXkXkXkXkXkXkXkXkXkXkXkXkXkXkX",
"kXkXkXkXkXkXkXkXkXvXkXkXkXkXkXkXvX6X6XY.d f L > J d aXL.= ,Xb.>.c.f.R } o.B } '.'.`.C.vX| '.'.4XkXkXkXkXkXkXkXkXkXkXkXkXkXkXkXkX",
"kXkXkXkXkXkXkXkX6XvXkXkXkXkXvXvXvX6XkX .lXA.< +.pXpX .c - s *.2.V :.R } ] N R [ '.'.] vXvX] ].m.kXkXkXkXkXkXkXkXkXkXkXkXkXkXkXkX",
"kXkXkXkXkXkXkXkXvXkXkXkXkXkX6XvXvXvXH.kXlXkX+XT.T.pX~ J % u d.f.2.a.a.6.1.8.@ | X.'.'.B.vX5Xo.C.kXkXkXkXkXkXkXkXkXkXkXkXkXkXkXkX",
"kXkXkXkXkXkXkXkXkXkXkXkXkXkXkXkXkXkXkXkXkXI.gXuXuX5 ` : a / =.R .X>.<.*.0.z.4X&X{ '.'._.gXkXV Y.kXkXkXkXkXkXkXkXkXkXkXkXkXkXkXkX",
"kXkXkXkXkXkXkXkXkXkXkXkXkXkXkXkXkXkXkXkXkX{ oXw rX> +.* A %.q 0 = i k ' z gXyXkX&X] _.'.N cXT /.Z.kXkXkXkXkXkXkXkXkXkXkXkXkXkXkX",
"kXkXkXkXkXkXkXkXkXkXkXkXkXkXkXkXkXkXkXkXkXlXlXkX.X& a 9 e ^ 7 z h A q L oXh | lXlX&XR D.'.N.U K.iXkXkXkXkXkXkXkXkXkXkXkXkXkXkXkX",
"kXkXkXkXkXkXkXkXkXkXkXkXkXkXkXkXkXkXkXkXkXC kXkX~ b L.Q & ! v & $ y * ! kXkXkXkXkXkX9XY [ =XZ.L.z.6XkXkXkXkXkXkXkXkXkXkXkXkXkXkX",
"kXkXkXkXkXkXkXkXkXkXkXkXkXkXkXkXkXkXkXkXkX} G.> f j Y.m l yXq Q @.j : vXkXkXkXkXkXkXkXkXkX%XZ.L.'.&XkXkXkXkXkXkXkXkXkXkXkXkXkXkX",
"kXkXkXkXkXkXkXkXkXkXkXkXkXkXkXkXkXkXkXkXkXvXL ! ) tXkX- jXz q h w ).r A.kXkXkXkXkXkXkXkXkX5XY.N._.d.kXkXkXkXkXkXkXkXkXkXkXkXkXkX",
"kXkXkXkXkXkXkXkXkXkXkXkXvXvXkXkXkXkXkXkXkXkXkXkXoXt r a vX# %.L.% P =Xd kXkXkXkXkXkXkXkXkX<Xo.'.{.yX].vXkXkXkXkXkXkXkXkXkXkXkXkX",
"kXkXkXkXkXkXkXkXkXkXkXkXkX6XvXkXkXkXkXkXkXkXkXkXlXkXkXkXkX> K (.M.^ O.kXkXkXkXkXkXkXkXkXkXvXU D.{.XX'.vXkXkXkXkXkXkXkXkXkXkXkXkX",
"kXkXkXkXkXkXkXkXkXkXkXkXkXkXkXkXkXkXkXkXkXkXkXkXkXkXkXkXkX, _ kXH.kXkXkXkXkXkXkXkXkXkXkXkXkXkXE o.,XD.kXkXkXkXkXkXkXkXkXkXkXkXkX",
"kXkXkXkXkXkXkXkXkXkXkXkXkXkXkXkXkXkXkXkXkXkXkXkXkXkXkXkXkX5XI.> I.kXkXkXkXkXkXkXkXkXkXkXkXkXkXkXE } '.kXkXkXkXkXkXkXkXkXkXkXkXkX",
"kXkXkXkXkXkXkXkXkXkXkXkXkXkXkXkXkXkXkXkXkXkXkXkXkXkXkXkXkXkXkXkXvXkXkXkXkXkXkXkXkXkXkXkXkXkXkXkX6XvXkXkXkXkXkXkXkXkXkXkXkXkXkXkX",
"kXkXkXkXkXkXkXkXkXkXkXkXkXkXkXkXkXkXkXkXkXkXkXkXkXkXkXkXkXkXkXkXkXkXkXkXkXkXkXkXkXkXkXkXkXkXkXkXkXkXkXkXkXkXkXkXkXkXkXkXkXkXkXkX",
"kXkXkXkXkXkXkXkXkXkXvXvXkXkXkXkXkXkXkXkXkXkXkXkXkXkXkXkXkXkXkXkXkXkXkXkXkXkXkXkXkXkXkXkXkXkXkXkXkXkXkXkXkXkXkXkXkXkXkXkXkXkXkXkX",
"kXkXkXkXkXkXkXkXkXkXkX6XkXkXkXkXkXkXkXkXkXkXkXkXkXkXkXkXvXkXkXkXkXkXkXkXkXkXkXkXkXkXkXkXkXkXkXkXkXkXkXkXkXkXvXkXkXkXkXkXkXkXkXkX",
"vXvXkXkXkXkXkXkXkXkXkXvXkXkXkXkXkXkXkXkXkXkXkXkXkXkXkXkXkXkXkXkXkXkXkXkXkXkXkXkXkXkXkXkXkXkXkXkXkXkXkXkXkXkXkXkXkXkXkXkXkXkXkXkX",
"kX6XvXkXkXkXkXkXkXkXkXkXkXkXkXkXkXkXkXkXkXkXkXkXkXkXkXkXkXkXkXkXkXkXkXkXkXkXkXkXkXkXkXkXkXkXkXkXkXkXkXkXkXkXkXkXkXkXkXkXkXkXkXkX"
};
