/* XPM */
static char *result[] = {
/* columns rows colors chars-per-pixel */
"64 64 242 2 ",
"   c #001C31",
".  c #043A4C",
"X  c #02465A",
"o  c #155C6A",
"O  c #6E5649",
"+  c #4F645E",
"@  c #606262",
"#  c #8B1301",
"$  c #991E03",
"%  c #AC1801",
"&  c #9A2305",
"*  c #BB2902",
"=  c #AB340D",
"-  c #B33809",
";  c #C32B02",
":  c #C63003",
">  c #C93607",
",  c #DA3905",
"<  c #D33C09",
"1  c #CA3F12",
"2  c #98431D",
"3  c #AF4816",
"4  c #B94A19",
"5  c #94582D",
"6  c #AD4F30",
"7  c #BD6D34",
"8  c #D4420C",
"9  c #DC430D",
"0  c #C54710",
"q  c #C74616",
"w  c #D74C16",
"e  c #DA5617",
"r  c #E9450A",
"t  c #E44C12",
"y  c #EB4D12",
"u  c #E85517",
"i  c #F25618",
"p  c #F35D1C",
"a  c #DD641D",
"s  c #E6641E",
"d  c #F16F1D",
"f  c #C75826",
"g  c #D75629",
"h  c #C75635",
"j  c #D4692D",
"k  c #D66738",
"l  c #E66229",
"z  c #F56927",
"x  c #E87728",
"c  c #F47727",
"v  c #E56732",
"b  c #F36E34",
"n  c #E67935",
"m  c #F3753A",
"M  c #8D6248",
"N  c #A9774F",
"B  c #B47549",
"V  c #8F7B6B",
"C  c #A9746F",
"Z  c #CF7556",
"A  c #E77747",
"S  c #EF7849",
"D  c #CC7467",
"F  c #76BA36",
"G  c #29907E",
"H  c #6B9F6D",
"J  c #F48227",
"K  c #EA8D38",
"L  c #F88A37",
"P  c #FB983A",
"I  c #FFA53A",
"U  c #B88359",
"Y  c #9B826C",
"T  c #8A8176",
"R  c #B48D6E",
"E  c #A48A75",
"W  c #AC917A",
"Q  c #C3865B",
"!  c #C39C50",
"~  c #F98249",
"^  c #EF9051",
"/  c #FBAA46",
"(  c #F7B24E",
")  c #FCB34C",
"_  c #FFB94E",
"`  c #F1AA53",
"'  c #F9A659",
"]  c #CE8E6C",
"[  c #D59568",
"{  c #D6996A",
"}  c #D99A74",
"|  c #E88965",
" . c #FB8F61",
".. c #DAA479",
"X. c #FCA767",
"o. c #EBAE75",
"O. c #96C95E",
"+. c #FBC470",
"@. c #FBE67B",
"#. c #0F5B9C",
"$. c #176399",
"%. c #1867A4",
"&. c #1271B0",
"*. c #2978AA",
"=. c #2D78B0",
"-. c #486F96",
";. c #127EC4",
":. c #329987",
">. c #3180AD",
",. c #708C92",
"<. c #45A799",
"1. c #65AC9C",
"2. c #4E8CB0",
"3. c #5796B7",
"4. c #6A92AB",
"5. c #6A96B8",
"6. c #7699B9",
"7. c #4EABB5",
"8. c #59A7BA",
"9. c #71ACB1",
"0. c #5CC3A9",
"q. c #69CEB3",
"w. c #72CEB5",
"e. c #76CCB4",
"r. c #068CD5",
"t. c #0E92D7",
"y. c #3394D1",
"u. c #32A5E2",
"i. c #4799CE",
"p. c #56B2CE",
"a. c #53AFD3",
"s. c #6AA4C3",
"d. c #77A9C5",
"f. c #7EB2CD",
"g. c #66BDD7",
"h. c #54B2E4",
"j. c #5AD7D7",
"k. c #7DCDD1",
"l. c #74CBEC",
"z. c #96968A",
"x. c #A6978B",
"c. c #B89A91",
"v. c #92AA91",
"b. c #ACAA90",
"n. c #899CBC",
"m. c #91ADB9",
"M. c #B5AEAD",
"N. c #ADB5B8",
"B. c #D1928E",
"V. c #EA9297",
"C. c #D7A984",
"Z. c #D4A79A",
"A. c #D0B190",
"S. c #E2AA84",
"D. c #F6AC8D",
"F. c #E6B58B",
"G. c #E8BB94",
"H. c #E79FA8",
"J. c #CEAEAD",
"K. c #D1BAB5",
"L. c #EBA4AD",
"P. c #F0AEB5",
"I. c #88CAB8",
"U. c #B3C8AF",
"Y. c #B5CABA",
"T. c #F2C88F",
"R. c #EEC299",
"E. c #DCC7AA",
"W. c #C8D4A5",
"Q. c #CCCCB3",
"!. c #D3C7B6",
"~. c #EDC7A7",
"^. c #F4CDA6",
"/. c #F3D1AC",
"(. c #F8D3AC",
"). c #E6DABA",
"_. c #F4D0B5",
"`. c #EAEFBB",
"'. c #F9F4BC",
"]. c #84A9C6",
"[. c #96ABC8",
"{. c #87B5C9",
"}. c #95BCD5",
"|. c #ABB8CE",
" X c #86BDE4",
".X c #C4BDC8",
"XX c #D6BDCF",
"oX c #EFBACF",
"OX c #88DBC5",
"+X c #8FD0CD",
"@X c #96C3D8",
"#X c #B7CACA",
"$X c #A7CADA",
"%X c #B8CADA",
"&X c #BAD4DA",
"*X c #99E4CB",
"=X c #9FEBD3",
"-X c #A8EBD9",
";X c #8CD7E9",
":X c #AACBE2",
">X c #B9CEE2",
",X c #A9D4E6",
"<X c #B8D6E9",
"1X c #BDDAF0",
"2X c #9CE1F5",
"3X c #BDE3EB",
"4X c #A8E9FA",
"5X c #B1EBF6",
"6X c #B8F3FD",
"7X c #C9C7CB",
"8X c #C8CAD7",
"9X c #D1CFD1",
"0X c #F3CACC",
"qX c #E8D4DD",
"wX c #F7D3D8",
"eX c #FFD4DD",
"rX c #D0E6CF",
"tX c #F1EAC8",
"yX c #C5D3E4",
"uX c #C9D3E8",
"iX c #C4DBED",
"pX c #C8D9E8",
"aX c #D9DCEC",
"sX c #C4DFF4",
"dX c #C9DDF1",
"fX c #E6D9E6",
"gX c #FBDCE2",
"hX c #FDD1F5",
"jX c #CAE4EC",
"kX c #C6E2F5",
"lX c #C9E7F6",
"zX c #CCE5F5",
"xX c #D5EBF7",
"cX c #D3ECF5",
"vX c #C3F9FD",
"bX c #D7F4F8",
"nX c #DDF3FA",
"mX c #F2E7ED",
"MX c #E9F6F9",
"NX c #E5FBFA",
"BX c #EBFCFD",
"VX c #F7FDFC",
/* pixels */
"sXsXsXsXsXsXsXsXsXsXsXsXsXsXsXsXsXsXsXsXsXsXsXsXsXsXsXsXsXsXsXsXsXsXsXsXsXsXsXsXsXsXsXsXsXkXsXsXsXsXsXsXsXsXsXsXsXsXsXsXsXsXsXsX",
"sXsXsXsXsXsXsXsXsXsXsXsXsXsXsXsXsXsXsXsXsXsXsXsXsXsXsXsXsXsXsXsXsXsXsXsXsXsXsXsXsXsXsXsXsXsXsXsXsXsXsXsXsXsXsXsXsXsXsXsXsXsXsXsX",
"sXsXsXsXsXsXsXsXsXsXsXsXsXsXsXsXsXsXsXsXsXsXsXsXsXsXsXsXsXsXsXsXsXsXsXsXsXsXsXsXsXsXsXsXsXsXsXsXsXsXsXsXsXsXsXsXsXsXsXsXsXsXsXsX",
"sXsXsXsXsXsXsXsXsXsXsXsXsXsXsXsXsXsXsXsXsXsXsXsXsXsXsXsXsXsXsXsXsXsXsXsXsXsXsXsXsXsXsXsXsXsXsXsXsXsXsXsXsXsXsXsXsXsXsXsXsXsXsXsX",
"sXsXsXsXsXsXsXsXsXsXzXsXsXsXsXsXsXsXsXsXsXsXkXxXxXkXsXsXsXsXsXsXsXsXsXsXsXsXsXsXsXsXsXsXsXsXsXsXsXsXsXsXsXsXsXsXsXsXsXsXsXsXsXsX",
"sXsXsXsXsXsXsXsXsXsXxXd.nXsXsXsXsXsXsXsXsXsXsXsX<XsXsXsXsXsXsXsXsXsXsXsXsXsXsXsXsXsXsXsXsXsXsXsXsXsXsXsXsXsXsXsXsXsXsXsXsXsXsXsX",
"sXsXsXsXsXsXsXsXsXsX-Xs.jXNXkXsXsXsXsXsXsXsXsX,Xs.MXsXsXsXsXsXsXsXsXsXsXsXsXsXsXsXsXsXsXsXsXsXsXsXsXsXsXsXsXsXsXsXsXsXsXsXsXsXsX",
"sXsXsXsXsXsXsXsXsXsX+XBX5.{.bXzXsXsXsXsXsXsXsXsX}.].sXsXsXsXsXsXsXsXsXsXsXsXsXsXsXsXsXsXsXsXsXsXsXsXsXsXsXsXsXsXsXsXsXsXsXsXsXsX",
"sXsXsXsXsXsXsXsXsXsX3.nX].dX:X XxXkX1XsXsXsXsXsX$XfX,XsXsXsXsXsXsXsXsXsXsXsXsXsXsXsXsXsXsXsXsXsXsXsXsXsXsXsXsXsXsXsXsXsXsXsXsXsX",
"sXsXsXsXsXsXsXsXsX:X2.nXd.sXwXpXf.NXkXkXsXsXsXsX@XsX<X1XsXsXsXsXsXsXsXsXsXsXsXsXsXsXsXsXsXsXsXsXsXsXsXsXsXsXsXsXsXsXsXsXsXsXsXsX",
"sXsXsXsXsXsXsXsXsX<X6.sX@X*.kXsXsX|.xXsXsXsXsXsXVX3.aX<XsXsXkXsXsXsXsXpXsXA 7XsXsXsXsXsXsXsXsXsXsXsXsXsXsXsXsXsXsXsXsXsXsXsXsXsX",
"sXsXsXsXsXsXsXsXsXsXsXsXNX*.*.sXaXsX1X1XsXsXsXsXdX3.sX,XkXsX8Xu X.w h 2 < y / c sXsXsXsXsXsXsXsXsXsXsXsXsXsXsXsXsXsXsXsXsXsXsXsX",
"sXsXsXsXsXsXsXsXsXsXsXsXNX5.[.2.iXsXdXwX,XkXsXkXsXyXd.sXjX` w P p ` / w K ( ) i X.iXsXsXsXsXsXsXsXsXsXsXsXsXsXsXsXsXsXsXsXsXsXsX",
"sXsXsXsXsXsXsXsXsXsXsXsXkX3.1X>X2.<XaXsXiX$XzXkXsX[.].xXQ.: 8 _ c 9 v t 8 x ) x p E.sXsXsXsXsXsXsXsXsXsXsXsXsXsXsXsXsXsXsXsXsXsX",
"sXsXsXsXsXsXsXsXsXsXsXsX3X<XkXfXsX2.1XkXaX1X$XzXsX}.qX}.6 y l _ L p p / ) _ a I p c tX3XsXsXsXsXsXsXsXsXsXsXsXsXsXsXsXsXsXsXsXsX",
"sXsXsXsXsXsXsXsXsXsXsXsXkXBX6.fXsXaX2.gXkXkXuX<XsX{.dXdX= ,.5X_ _ / q z P i w .._ b c pXsXsXsXsXsXsXsXsXsXsXsXsXsXsXsXsXsXsXsXsX",
"sXsXsXsXsXsXsXsXsXsXsXsXsXBX>.>XkXkXsX5.sXuXsX>X3X@X&X] M Z.i L ~ n ) ' c P ^.(.F.( n L sXsXsXsXsXsXsXsXsXsXsXsXsXsXsXsXsXsXsXsX",
"sXsXsXsXsXsXsXsXsXsXsXsXsXsXd.=.>XsXkX9XF iXiXtXm.bXf.6 - ;X/ t c _ ' ) [ ^.(.(.(.R.` !.sXsXsXsXsXsXsXsXsXsXsXsXsXsXsXsXsXsXsXsX",
"sXsXsXsXsXsXsXsXsXsXsXsXsXsXiXiX3.6.sXQ.jXU.kXjXlXY.).& ,.vXt I L / T.m (.(.(.m R.A ..3XsXsXsXsXsXsXsXsXsXsXsXsXsXsXsXsXsXsXsXsX",
"sXsXsXsXsXsXsXsXsXsXsXsXsXsXcXuXsXyXv.O.jXpXY.'.3XtXA.& y ) )  .T.O ..S.(.(.(.T.O O c.sXsXsXsXsXsXsXsXsXsXsXsXsXsXsXsXsXsXsXsXsX",
"sXsXsXsXsXsXsXsXsXsXsXsXsXsXNX].sXsX9XjXU.'.jXW.iX'.W.7 2 ) ( [ @ -.X . (.(.(.X   mXW lXsXsXsXsXsXsXsXsXsXsXsXsXsXsXkXsXsXsXsXsX",
"sXsXsXsXsXsXsXsXsXsXsXsXsXsXnXNXd.8XdXN.rXyXW.m.8.m.Q.j Z ( [ [ tXm.o p.(.(.(.l.o (.U kXsXsXsXsXsXsXsXsXsXsXsXsXsXsXsXsXsXsXsXsX",
"sXsXsXsXsXsXsXsXsXsXsXsXsXsXsXkXnX:X5.yXjXsX3X,XBXBXb.0 B _ [ ..(.W + + (.(.(.W Y /...lXsXsXsXsXsXsXsXsXsXsXsXsXsXsXsXsXsXsXsXsX",
"sXsXsXsXsXsXsXsXsXsXsXsXsXsXsXsXsXsXnXs.s.sXjX{.BXBXqX% 5 _ [ (.(./././.(.(.(.(.(./.W 3XsXsXsXsXsXsXsXsXsXsXsXsXsXsXsXsXsXsXsXsX",
"sXsXsXsXsXsXsXsXsXsXsXsXsXxXzXsXsXsXsXsXcX9.$X{.BXNXQ.g x 2 ( [ ^.(.(.(.U A.C.(.C.x.3XsXsXsXsXsXsXsXsXsXsXsXsXsXsXsXsXsXsXsXsXsX",
"sXsXsXsXsXsXsXsXsXsXsXsXsXzXNXNXnXnXsXsXkXcXkXm.5.VXtXg J & _ 3 N ..(._.(.(./.{ T.kXsXsXsXsXsXsXsXsXsXsXsXsXsXsXsXsXsXsXsXsXsXsX",
"sXsXsXsXsXsXsXsXsXsXsXsXsXsXNX:Xn.5.}.NXkXiXkXkXnX2.NXj x & @.@.& i 5 5 5 5 f c ) sXsXsXsXsXsXsXsXsXsXsXsXsXsXsXsXsXsXsXsXsXsXsX",
"sXsXsXsXsXsXsXsXsXsXsXsXsXsXsXNX3.@XkX|.$XcXlXkXkXnX%Xg - j : 0 4 z.].oX7XhXu pXT.sXsXsXsXsXsXsXsXsXsXsXsXsXsXsXsXsXsXsXsXsXsXsX",
"sXsXsXsXsXsXsXsXsXsXsXsXsXsXsXkXMX6.:XXX|.<X[.jXNXsX.X* % s : 2 ! F.p.3X_.,X!.~.3X`.3XsXsXsXsXsXsXsXsXsXsXsXsXsXsXsXsXsXsXsXsXsX",
"sXsXsXsXsXsXsXsXsXsXsXsXsXsXsXsXsX,X<XgX1XO.H `.U.jX6 8 - e w (.+.(.8.5XjXY.4X).jXjXsXsXsXsXsXsXsXsXsXsXsXsXsXsXsXsXsXsXsXsXsXsX",
"sXsXsXsXsXsXsXsXsXkXsXsXsXsXsXsXsXxXs.8X%X#XrXsX#Xv.; t * w N (.(.R.8.k.U.!.&X4X&XN.sXsXsXsXsXsXsXsXsXsXsXsXsXsXsXsXsXsXsXsXsXsX",
"sXsXsXsXsXsXsXsXsXsXsXsXsXsXsXsXsXsXMX[.qX|.U.$X`.= u > 8 S { (.U { k.G *Xb.G.e.*XI.XXsXsXsXsXsXsXsXsXsXsXsXsXsXsXsXsXsXsXsXsXsX",
"sXsXsXsXsXsXsXsXsXsXsXsXsXsXsXsXsXsXkX@XsXkXB.yX4 j : u ; D.} (.{ b.0.-X=X9.,.$.G 1.0X1XkXkXsXsXsXsXsXsXsXsXsXsXsXsXsXsXsXsXsXsX",
"sXsXsXsXsXsXsXsXsXsXsXsXsXsXsXsXsXsXsXnX}.&X<Xv ] l 8 < r H.gXP.H q.<.OX0.w.:.w.OXL.wX0XiXsXsXsXsXsXsXsXsXsXsXsXsXsXsXsXsXsXsXsX",
"sXsXsXsXsXsXsXsXsXsXsXsXsXsXsXsXsXsXsXsXxXnXlXk v > l 0 u B.eXH.C k.q.q.:.*Xw.e.*X$XaXP.gXdXsXsXsXsXsXsXsXsXsXsXsXsXsXsXsXsXsXsX",
"sXsXsXsXsXsXsXsXsXsXsXsXsXsXsXsXsXsXsX3X9.sXZ.9  .L , v , eXgXD , e.*XOX<.9.7.:.G OX,.eXmXgXsXsXsXsXsXsXsXsXsXsXsXsXsXsXsXsXsXsX",
"sXsXsXsXsXsXsXsXsXsXsXsXsXsXsXsXsXsXsXsX].i A 9 ; ..< u c eXL.* 7 <.l.bX2X;X2Xk.6Xg.Z.mXP.P.sXsXsXsXsXsXsXsXsXsXsXsXsXsXsXsXsXsX",
"sXsXsXsXsXsXsXsXsXsXsXsXsXsXsXsXsXsXsX<X%.sXx m c .X9 9 I VXB.9 2.p.4X;X2Xp.6XvX4X;Xn.0XH.^.V kXsXsXsXsXsXsXsXsXsXsXsXsXsXsXsXsX",
"sXsXsXsXsXsXsXsXsXsXsXsXsXsXsXsXsXsXsXsXsXsXe u I : 8 t _.P.& l.p.4X4X5X4Xl.6Xl.l.u.C.B.tX(.R.kXsXsXsXsXsXsXsXsXsXsXsXsXsXsXsXsX",
"sXsXsXsXsXsXsXsXsXsXsXsXsXsXsXsXsXsXsXsXsXdX!.~ I * 8 q gXL.9.g.6Xp.t.vX4Xa.l.a.l.=.] [ R.(.(.V sXsXsXsXsXsXsXsXsXsXsXsXsXsXsXsX",
"sXsXsXsXsXsXsXsXsXsXsXsXsXsXsXsXsXsXsXsXsXsXsX4 4 * , | eXV.J.>.p.u.r.j.;X,X%.N R *.[ B } (.(.A.sXsXsXsXsXsXsXsXsXsXsXsXsXsXsXsX",
"sXsXsXsXsXsXsXsXsXsXsXsXsXsXsXsXsXsXsXsXsXpX} q X.z 9 D.oXV.|.r.t.r.a.h.$.^.(.(.^.^.T r.Q R.(.C.sXsXsXsXsXsXsXsXsXsXsXsXsXsXsXsX",
"sXsXsXsXsXsXsXsXsXsXsXsXsXsXsXsXsXsXsXsXJ.C.h K ~ F.x wXP.y 3 y.h.h.%.[ ,.M.R.} (.(.G.-.U [ (.(.x.sXsXsXsXsXsXsXsXsXsXsXsXsXsXsX",
"sXsXsXsXsXsXsXsXsXsXsXsXsXsXsXsXsXsXsXsXsX7X6 ^ 7X> | eXo.y |.h.&.y.&.R [ ..B { (././.M.kX} (.(.<XsXsXsXsXsXsXsXsXsXsXsXsXsXsXsX",
"sXsXsXsXsXsXsXsXsXsXsXsXsXsXsXsXsXsXsXsXsXyXJ.8XS eXgX| i i e #.;.T %.R ] Q C U [ (.(.Q kXkX[ !.x.sXsXsXsXsXsXsXsXsXsXsXsXsXsXsX",
"sXsXsXsXsXsXsXsXsXsXsXsXsXsXsXsXsXsXsXsXuXK.dXL.H.L.L.~ K P l y.t.&.r.r.,.-.y.+ [ ..(.(.c.kX>Xo.M.sXsXsXsXsXsXsXsXsXsXsXsXsXsXsX",
"sXsXsXsXsXsXsXsXsXsXsXsXsXsXsXsXsXsXsXsXsXsXsXsXkX9Xs } X.P 9 $.J.4.%.%.#.=.O #X&X[ (.(.R.<X3XV N.iXsXsXsXsXsXsXsXsXsXsXsXsXsXsX",
"sXsXsXsXsXsXsXsXsXsXsXsXsXsXsXsXsXsXsXsXsXsXsXsX7X.Xw j v ) * 7 / 8 : A z a k K.sX%XQ (.(.U sXT !.N.sXsXsXsXsXsXsXsXsXsXsXsXsXsX",
"sXsXsXsXsXsXsXsXsXsXsXsXsXsXsXsXsXsXsXsXsXsXsXsXK.B.!.C 9 P = S ` u m S x d } g ] m %XE S._.x.U F.0XkXkXsXsXsXsXsXsXsXsXsXsXsXsX",
"sXsXsXsXsXsXsXsXsXsXsXsXsXsXsXsXsXsXsXsXsXsXsXsXkXsXdX>X* 9Xd : Z 8 > # z ; E.sX8XsXkX1XY ] %XM.F.].<XkXsXsXsXsXsXsXsXsXsXsXsXsX",
"sXsXsXsXsXsXsXsXsXsXsXsXsXsXsXsXsXsXsXsXsXsXsXsX- |.] g - pX& w 4 m 1 2 n e 1XsXsXsXkXkXkX3X$XN.G.(.$XkXsXsXsXsXsXsXsXsXsXsXsXsX",
"sXsXsXsXsXsXsXsXsXsXsXsXsXsXsXsXsXsXsXsXsXsXsXsXjXd A ~ G.sX$ Z h g = b _ k J.sXsXsX1XkXkXkX<XK.x.~.i.sXsXsXsXsXsXsXsXsXsXsXsXsX",
"sXsXsXsXsXsXsXsXsXsXsXsXsXsXsXsXsXsXsXsXsXsXsXsXdXiXpX} M.zXJ | 3 ' n < D.S.D kXsXsXsXsXsXsX8Xo./.f.%X).sXsXsXsXsXsXsXsXsXsXsXsX",
"sXsXsXsXsXsXsXsXsXsXsXsXsXsXsXsXsXsXsXsXsXsXsXsXsXkXsXsX^ ' o.sX% n <X^ o.B.J.1XsXsXsXsXsXsXkXY C.].@X/.sXsXsXsXsXsXsXsXsXsXsXsX",
"sXsXsXsXsXsXsXsXsXsXsXsXsXsXsXsXsXsXsXsXsXsXsXsXsXsXsXsXkXsXsXyXe ( sXc.B.5XsXsXsXsXsXsXsXsXsXsXW ..<XC.sXsXsXsXsXsXsXsXsXsXsXsX",
"sXsXsXsXsXsXsXsXsXsXsXsXsXsXsXsXsXsXsXsXsXsXsXsXsXsXsXsX3XkXsXsXC 8 ~ q sXsXsXsXsXsXsXsXsXsXsXsXkXE [ (.sXsXsXsXsXsXsXsXsXsXsXsX",
"sXsXsXsXsXsXsXsXsXsXsXsXsXsXsXsXsXsXsXsXsXsXsXsXsXsXsXsXsXsXsXsXkXkX| 1XsXsXsXsXsXsXsXsXsXsXsXsXsXsXsXsXsXsXsXsXsXsXsXsXsXsXsXsX",
"sXsXsXsXsXsXsXsXsXsXsXsXsXsXsXsXsXsXsXsXsXsXsXsXsXsXsXsXsXsXsXsXsXsXsXsXsXsXsXsXsXsXsXsXsXsXsXsXsXsXsXsXsXsXsXsXsXsXsXsXsXsXsXsX",
"sXsXsXsXsXsXsXsXsXsXsXsXsXsXsXsXsXsXsXsXsXsXsXsXsXsXsXsXsXsXsXsXsXsXsXsXsXsXsXsXsXsXsXsXsXsXsXsXsXsXsXsXsXsXsXsXsXsXsXsXsXsXsXsX",
"sXsXsXsXsXsXsXsXsXsXsXsXsXsXsXsXsXsXsXsXsXsXsXsXsXsXsXsXsXsXsXsXsXsXsXsXsXsXsXsXsXsXsXsXsXsXsXsXsXsXsXsXsXsXsXsXsXsXsXsXsXsXsXsX",
"sXsXsXsXsXsXsXsXsXsXsXsXsXsXsXsXsXsXsXsXsXsXsXsXsXsXsXsXsXsXsXsXsXsXsXsXsXsXsXsXsXsXsXsXsXsXsXsXsXsXsXsXsXsXsXsXsXsXsXsXsXsXsXsX",
"sXsXsXsXsXsXsXsXsXsXsXsXsXsXsXsXsXsXsXsXsXsXsXsXsXsXsXsXsXsXsXsXsXsXsXsXsXsXsXsXsXsXsXsXsXsXsXsXsXsXsXsXsXsXsXsXsXsXsXsXsXsXsXsX",
"sXsXsXsXsXsXsXsXsXsXsXsXsXsXsXsXsXsXsXsXsXsXsXsXsXsXsXsXsXsXsXsXsXsXsXsXsXsXsXsXsXsXsXsXsXsXsXsXsXsXsXsXsXsXsXsXsXsXsXsXsXsXsXsX",
"sXsXsXsXsXsXsXsXsXsXsXsXsXsXsXsXsXsXsXsXsXsXsXsXsXsXsXsXsXsXsXsXsXsXsXsXsXsXsXsXsXsXsXsXsXsXsXsXsXsXsXsXsXsXsXsXsXsXsXsXsXsXsXsX"
};
