/* XPM */
static char *result[] = {
/* columns rows colors chars-per-pixel */
"64 64 99 2 ",
"   c #5D1F39",
".  c #641D3A",
"X  c #6A1B3C",
"o  c #552238",
"O  c #5A2A46",
"+  c #5F3A4F",
"@  c #73415C",
"#  c #454E7E",
"$  c #60607D",
"%  c #736877",
"&  c #863257",
"*  c #893056",
"=  c #9E426B",
"-  c #935374",
";  c #A0416B",
":  c #464D8C",
">  c #4C5189",
",  c #545684",
"<  c #575884",
"1  c #5A5B82",
"2  c #555A8E",
"3  c #63668D",
"4  c #7B769A",
"5  c #6373AC",
"6  c #7974A0",
"7  c #837EB5",
"8  c #C86594",
"9  c #D679A7",
"0  c #DB7AAB",
"q  c #EE6EAA",
"w  c #F56AA7",
"e  c #F36CA9",
"r  c #E574A9",
"t  c #EB72AB",
"y  c #E479AF",
"u  c #E57CB2",
"i  c #ED7DB5",
"p  c #F477B2",
"a  c #F179B2",
"s  c #F67FB8",
"d  c #7E8CB1",
"f  c #748BBD",
"g  c #738CC0",
"h  c #948DA1",
"j  c #8495B1",
"k  c #8999BC",
"l  c #95A7B5",
"z  c #C182AE",
"x  c #C184B1",
"c  c #C68BB7",
"v  c #DC8DBF",
"b  c #E684B9",
"n  c #E688BC",
"m  c #F281B7",
"M  c #F382B9",
"N  c #9DB1CB",
"B  c #A7B0C5",
"V  c #A8B0C6",
"C  c #A1B7E2",
"Z  c #BCB4E2",
"A  c #B3BCE7",
"S  c #B3BDE9",
"D  c #DC92C4",
"F  c #DB97C9",
"G  c #D69ACB",
"H  c #D899CA",
"J  c #E38BC0",
"K  c #F78BC2",
"L  c #E195C9",
"P  c #E998CB",
"I  c #F990C7",
"U  c #FC96CC",
"Y  c #F59DCE",
"T  c #FB9ACF",
"R  c #F99DD0",
"E  c #CCA4D4",
"W  c #C1AEDD",
"Q  c #C0B0DF",
"!  c #F6A1D2",
"~  c #F8A0D2",
"^  c #FBADDC",
"/  c #FAB1DF",
"(  c #C3B1E1",
")  c #FBB6E3",
"_  c #F6B8E5",
"`  c #FAB9E5",
"'  c #F4BBE8",
"]  c #FDBDE8",
"[  c #B4CBE3",
"{  c #B8CBE0",
"}  c #B4C7EF",
"|  c #BDD6ED",
" . c #A6C7F2",
".. c #ABC6F0",
"X. c #A2C9F2",
"o. c #C4DFF4",
"O. c #FDCDEE",
"+. c #FDD2EF",
"@. c #FEFAFD",
/* pixels */
"o.o.o.o.o.o.o.o.o.o.o.o.o.o.o.o.o.o.o.o.o.o.o.o.o.o.o.o.o.o.o.o.o.o.o.o.o.o.o.o.o.o.o.o.o.o.o.o.o.o.o.o.o.o.o.o.o.o.o.o.o.o.o.o.",
"o.o.o.o.o.o.o.o.o.o.o.o.o.o.o.o.o.o.o.o.o.o.o.o.o.o.o.o.o.o.o.o.o.o.o.o.o.o.o.o.o.o.o.o.o.o.o.o.o.o.o.o.o.o.o.o.o.o.o.o.o.o.o.o.",
"o.o.o.o.o.o.o.o.o.o.o.o.o.o.o.o.o.o.o.o.o.o.o.o.o.o.o.o.o.o.o.o.o.o.o.o.o.o.o.o.o.o.o.o.o.o.o.o.o.o.o.o.o.o.o.o.o.o.o.o.o.o.o.o.",
"o.o.o.o.o.o.o.o.o.o.o.o.o.o.o.o.o.o.o.o.o.o.o.o.o.o.o.o.o.o.o.o.o.o.o.o.o.o.o.o.o.o.o.o.o.o.o.o.o.o.o.o.o.o.o.o.o.o.o.o.o.o.o.o.",
"o.o.o.o.o.o.o.o.o.o.o.o.o.o.o.o.o.o.o.o.o.o.o.o.o.o.o.o.o.o.o.o.o.o.o.o.o.o.o.o.o.o.o.o.o.o.o.o.o.o.o.o.o.o.o.o.o.o.o.o.o.o.o.o.",
"o.o.o.o.o.o.o.o.o.o.o.o.o.o.o.o.o.o.o.o.o.o.o.o.o.o.o.o.o.o.o.o.o.o.o.o.o.o.o.o.o.o.o.o.o.o.o.o.o.o.o.o.o.o.o.o.o.o.o.o.o.o.o.o.",
"o.o.o.o.o.o.o.o.o.o.o.o.o.o.o.o.o.o.o.o.o.o.o.o.o.o.o.o.o.o.o.o.o.o.o.o.o.o.o.o.o.o.o.o.o.o.o.o.o.o.o.o.o.o.o.o.o.o.o.o.o.o.o.o.",
"o.o.o.o.o.o.o.o.o.o.o.o.o.o.o.o.o.o.o.o.o.o.o.o.o.o.o.o.o.o.o.o.o.o.o.o.o.o.o.o.o.o.o.o.o.o.o.o.o.o.o.o.o.o.o.o.o.o.o.o.o.o.o.o.",
"o.o.o.o.o.o.o.o.o.o.o.o.o.o.o.o.o.o.o.o.o.o.o.o.o.o.o.o.o.o.o.o.o.o.o.o.o.o.o.o.o.o.o.o.o.o.o.o.o.o.o.o.o.o.o.o.o.o.o.o.o.o.o.o.",
"o.o.o.o.o.o.o.o.o.o.o.o.o.o.o.o.o.o.o.o.o.o.o.o.o.o.o.o.o.o.o.o.o.o.o.o.o.o.o.o.o.o.o.o.o.o.o.o.o.o.o.o.o.o.o.o.o.o.o.o.o.o.o.o.",
"o.o.o.o.o.o.o.o.o.o.o.o.o.o.o.o.o.o.o.o.o.o.o.o.o.o.o.o.o.o.o.o.o.o.o.o.o.o.o.o.o.o.o.o.o.o.o.o.o.o.o.o.o.o.o.o.o.o.o.o.o.o.o.o.",
"o.o.o.o.o.o.o.o.o.o.o.o.o.o.o.o.o.o.o.o.o.o.o.o.o.o.o.o.o.o.o.o.o.o.o.o.o.o.o.o.o.o.o.o.o.o.o.o.o.o.o.o.o.o.o.o.o.o.o.o.o.o.o.o.",
"o.o.o.o.o.o.o.o.o.o.o.o.o.o.o.o.o.o.o.o.o.o.o.o.o.o.o.o.o.o.o.o.o.o.o.o.o.o.o.o.o.o.o.o.o.o.o.o.o.o.o.o.o.o.o.o.o.o.o.o.o.o.o.o.",
"o.o.o.o.o.o.o.o.o.o.o.o.o.o.o.o.o.o.o.o.o.o.o.o.o.o.o.o.o.o.o.o.o.o.o.o.o.o.o.o.o.o.o.o.o.o.o.o.o.o.o.o.o.o.o.o.o.o.o.o.o.o.o.o.",
"o.o.o.o.o.o.o.o.o.o.o.o.o.o.o.o.o.o.o.o.o.o.o.o.o.o.o.o.o.o.o.o.o.o.o.o.o.o.o.o.o.o.o.o.o.o.o.o.o.o.o.o.o.o.o.o.o.o.o.o.o.o.o.o.",
"o.o.o.o.o.o.o.o.o.o.o.o.o.o.o.o.o.o.o.o.o.o.o.o.o.o.o.o.o.o.o.o.o.o.o.o.o.o.o.o.o.o.o.o.o.o.o.o.o.o.o.o.o.o.o.o.o.o.o.o.o.o.o.o.",
"o.o.o.o.o.o.o.o.o.o.o.o.o.o.o.o.o.o.o.o.o.o.o.o.o.o.o.o.o.o.o.o.o.o.o.o.o.o.o.o.o.o.o.o.o.o.o.o.o.o.o.o.o.o.o.o.o.o.o.o.o.o.o.o.",
"o.o.o.o.o.o.o.o.o.o.o.o.o.o.o.o.o.o.o.o.o.o.o.o.o.o.o.o.o.o.o.o.o.o.o.o.o.o.o.o.o.o.o.o.o.o.o.o.o.o.o.o.o.o.o.o.o.o.o.o.o.o.o.o.",
"o.o.o.o.o.o.o.o.o.o.o.o.o.o.o.o.o.o.o.o.o.o.o.o.o.o.o.o.o.o.o.o.o.o.o.o.o.o.o.o.o.o.o.o.o.o.o.o.o.o.o.o.o.o.o.o.o.o.o.o.o.o.o.o.",
"o.o.o.o.o.o.o.o.o.o.o.o.o.o.o.o.o.o.o.o.o.o.      X   o.o.o.o.o.o.o.o.o.o.X X X . $ o.o.o.o.o.o.o.o.o.o.o.o.o.o.o.o.o.o.o.o.o.o.",
"o.o.o.o.o.o.o.o.o.o.o.o.o.o.o.o.o.o.o.o.  . q e e q P X O o.o.o.o.o.o.X X t e q e F 1 > o.o.o.o.o.o.o.o.o.o.o.o.o.o.o.o.o.o.o.o.",
"o.o.o.o.o.o.o.o.o.o.o.o.o.o.o.o.o.o.{ & i a ! ! ! Y U i b @ B o.o.V * p p T U T p e w D 3 [ o.o.o.o.o.o.o.o.o.o.o.o.o.o.o.o.o.o.",
"o.o.o.o.o.o.o.o.o.o.o.o.o.o.o.o.o.o.- ! ^ / ] ) _ ^ ^ U I u x % 7 8 I U U ^ ^ ! R I q e Q d o.o.o.o.o.o.o.o.o.o.o.o.o.o.o.o.o.o.",
"o.o.o.o.o.o.o.o.o.o.o.o.o.o.o.o.o.o.= T ) ) +.] ] ) ) ) R U u z ; U ~ ` ) ` ) ) R Y q w 9 7 o.o.o.o.o.o.o.o.o.o.o.o.o.o.o.o.o.o.",
"o.o.o.o.o.o.o.o.o.o.o.o.o.o.o.o.o.  m ^ ) ] @.@.@.` ) ) ) U U e M ^ / ` ] ] ` ) T T U w t A # o.o.o.o.o.o.o.o.o.o.o.o.o.o.o.o.o.",
"o.o.o.o.o.o.o.o.o.o.o.o.o.o.o.o.o.. M ^ ] @.@.@.@.' ) ` ) ) T I M / / ) @.O.` ) R T U w r A : o.o.o.o.o.o.o.o.o.o.o.o.o.o.o.o.o.",
"o.o.o.o.o.o.o.o.o.o.o.o.o.o.o.o.o.X M ) ] @.@.@.@.` ) ) ) ) ) R ~ / / O.] ) ` ) R R U w r A : o.o.o.o.o.o.o.o.o.o.o.o.o.o.o.o.o.",
"o.o.o.o.o.o.o.o.o.o.o.o.o.o.o.o.o.X s ) ] @.@.@.) ) ) ) ) ) ) ` / O.) ) ) ) ) ` R T U w t A : o.o.o.o.o.o.o.o.o.o.o.o.o.o.o.o.o.",
"o.o.o.o.o.o.o.o.o.o.o.o.o.o.o.o.o.X M ^ ) ` ] ) ) ) ) ) ) ) ) ) ` ) ) ) ) ) ) / R T K w r A : o.o.o.o.o.o.o.o.o.o.o.o.o.o.o.o.o.",
"o.o.o.o.o.o.o.o.o.o.o.o.o.o.o.o.o.X M U ) ` ] @.) ) ) ) ` ) ) ) ) ` ) ) ) ) ) ! R R w w r A : o.o.o.o.o.o.o.o.o.o.o.o.o.o.o.o.o.",
"o.o.o.o.o.o.o.o.o.o.o.o.o.o.o.o.o.o.= ^ ) ) ) _ ) ) ) ) ) ) ) ` ) ` ` ) ) ) / T U t e e W g o.o.o.o.o.o.o.o.o.o.o.o.o.o.o.o.o.o.",
"o.o.o.o.o.o.o.o.o.o.o.o.o.o.o.o.o.o.; ) ) ) ) ) ) ) ) ` ) ) ) ) ) ) ) ) ) ) Y T R e e t Q g o.o.o.o.o.o.o.o.o.o.o.o.o.o.o.o.o.o.",
"o.o.o.o.o.o.o.o.o.o.o.o.o.o.o.o.o.o.= U / ) ) ) ) ) ) ) ) ) ) ) ` ) ) ) ) R R T q e e H Q f o.o.o.o.o.o.o.o.o.o.o.o.o.o.o.o.o.o.",
"o.o.o.o.o.o.o.o.o.o.o.o.o.o.o.o.o.o.h r U ) ) ) ) ) ) ) ) ) ) ) ) ) ) / R R R t e e q Q ..k o.o.o.o.o.o.o.o.o.o.o.o.o.o.o.o.o.o.",
"o.o.o.o.o.o.o.o.o.o.o.o.o.o.o.o.o.o.h 9 U R ) / ` ) ) ) ` ) ) ` ) ) / R T T K w e y E Z } j o.o.o.o.o.o.o.o.o.o.o.o.o.o.o.o.o.o.",
"o.o.o.o.o.o.o.o.o.o.o.o.o.o.o.o.o.o.o.o t M T T ^ ^ ` ) ) ` ` ) ^ ^ R T U s w w b G ( X.< o.o.o.o.o.o.o.o.o.o.o.o.o.o.o.o.o.o.o.",
"o.o.o.o.o.o.o.o.o.o.o.o.o.o.o.o.o.o.o.o.X e r R T R Y ! ) ) ) R R R R e q e e J H Q  .> o.o.o.o.o.o.o.o.o.o.o.o.o.o.o.o.o.o.o.o.",
"o.o.o.o.o.o.o.o.o.o.o.o.o.o.o.o.o.o.o.o.o.  D q r R R R R R T R T R q w w w u F Z X.< o.o.o.o.o.o.o.o.o.o.o.o.o.o.o.o.o.o.o.o.o.",
"o.o.o.o.o.o.o.o.o.o.o.o.o.o.o.o.o.o.o.o.o.o.  D e e U R R R R U i e e e e r F E X.< o.o.o.o.o.o.o.o.o.o.o.o.o.o.o.o.o.o.o.o.o.o.",
"o.o.o.o.o.o.o.o.o.o.o.o.o.o.o.o.o.o.o.o.o.o.o.  L e e e U U U e w w e e q F Q  .> o.o.o.o.o.o.o.o.o.o.o.o.o.o.o.o.o.o.o.o.o.o.o.",
"o.o.o.o.o.o.o.o.o.o.o.o.o.o.o.o.o.o.o.o.o.o.o.o.O H r t w w w e w e q G G Z X.2 o.o.o.o.o.o.o.o.o.o.o.o.o.o.o.o.o.o.o.o.o.o.o.o.",
"o.o.o.o.o.o.o.o.o.o.o.o.o.o.o.o.o.o.o.o.o.o.o.o.o.+ c H u 0 e e e u G Z Z C 3 | o.o.o.o.o.o.o.o.o.o.o.o.o.o.o.o.o.o.o.o.o.o.o.o.",
"o.o.o.o.o.o.o.o.o.o.o.o.o.o.o.o.o.o.o.o.o.o.o.o.o.o.l 4 6 } v n G S S 5 5 N o.o.o.o.o.o.o.o.o.o.o.o.o.o.o.o.o.o.o.o.o.o.o.o.o.o.",
"o.o.o.o.o.o.o.o.o.o.o.o.o.o.o.o.o.o.o.o.o.o.o.o.o.o.o.o.o.: ,  .X.: : o.o.o.o.o.o.o.o.o.o.o.o.o.o.o.o.o.o.o.o.o.o.o.o.o.o.o.o.o.",
"o.o.o.o.o.o.o.o.o.o.o.o.o.o.o.o.o.o.o.o.o.o.o.o.o.o.o.o.o.o.o.: : | o.o.o.o.o.o.o.o.o.o.o.o.o.o.o.o.o.o.o.o.o.o.o.o.o.o.o.o.o.o.",
"o.o.o.o.o.o.o.o.o.o.o.o.o.o.o.o.o.o.o.o.o.o.o.o.o.o.o.o.o.o.o.o.o.o.o.o.o.o.o.o.o.o.o.o.o.o.o.o.o.o.o.o.o.o.o.o.o.o.o.o.o.o.o.o.",
"o.o.o.o.o.o.o.o.o.o.o.o.o.o.o.o.o.o.o.o.o.o.o.o.o.o.o.o.o.o.o.o.o.o.o.o.o.o.o.o.o.o.o.o.o.o.o.o.o.o.o.o.o.o.o.o.o.o.o.o.o.o.o.o.",
"o.o.o.o.o.o.o.o.o.o.o.o.o.o.o.o.o.o.o.o.o.o.o.o.o.o.o.o.o.o.o.o.o.o.o.o.o.o.o.o.o.o.o.o.o.o.o.o.o.o.o.o.o.o.o.o.o.o.o.o.o.o.o.o.",
"o.o.o.o.o.o.o.o.o.o.o.o.o.o.o.o.o.o.o.o.o.o.o.o.o.o.o.o.o.o.o.o.o.o.o.o.o.o.o.o.o.o.o.o.o.o.o.o.o.o.o.o.o.o.o.o.o.o.o.o.o.o.o.o.",
"o.o.o.o.o.o.o.o.o.o.o.o.o.o.o.o.o.o.o.o.o.o.o.o.o.o.o.o.o.o.o.o.o.o.o.o.o.o.o.o.o.o.o.o.o.o.o.o.o.o.o.o.o.o.o.o.o.o.o.o.o.o.o.o.",
"o.o.o.o.o.o.o.o.o.o.o.o.o.o.o.o.o.o.o.o.o.o.o.o.o.o.o.o.o.o.o.o.o.o.o.o.o.o.o.o.o.o.o.o.o.o.o.o.o.o.o.o.o.o.o.o.o.o.o.o.o.o.o.o.",
"o.o.o.o.o.o.o.o.o.o.o.o.o.o.o.o.o.o.o.o.o.o.o.o.o.o.o.o.o.o.o.o.o.o.o.o.o.o.o.o.o.o.o.o.o.o.o.o.o.o.o.o.o.o.o.o.o.o.o.o.o.o.o.o.",
"o.o.o.o.o.o.o.o.o.o.o.o.o.o.o.o.o.o.o.o.o.o.o.o.o.o.o.o.o.o.o.o.o.o.o.o.o.o.o.o.o.o.o.o.o.o.o.o.o.o.o.o.o.o.o.o.o.o.o.o.o.o.o.o.",
"o.o.o.o.o.o.o.o.o.o.o.o.o.o.o.o.o.o.o.o.o.o.o.o.o.o.o.o.o.o.o.o.o.o.o.o.o.o.o.o.o.o.o.o.o.o.o.o.o.o.o.o.o.o.o.o.o.o.o.o.o.o.o.o.",
"o.o.o.o.o.o.o.o.o.o.o.o.o.o.o.o.o.o.o.o.o.o.o.o.o.o.o.o.o.o.o.o.o.o.o.o.o.o.o.o.o.o.o.o.o.o.o.o.o.o.o.o.o.o.o.o.o.o.o.o.o.o.o.o.",
"o.o.o.o.o.o.o.o.o.o.o.o.o.o.o.o.o.o.o.o.o.o.o.o.o.o.o.o.o.o.o.o.o.o.o.o.o.o.o.o.o.o.o.o.o.o.o.o.o.o.o.o.o.o.o.o.o.o.o.o.o.o.o.o.",
"o.o.o.o.o.o.o.o.o.o.o.o.o.o.o.o.o.o.o.o.o.o.o.o.o.o.o.o.o.o.o.o.o.o.o.o.o.o.o.o.o.o.o.o.o.o.o.o.o.o.o.o.o.o.o.o.o.o.o.o.o.o.o.o.",
"o.o.o.o.o.o.o.o.o.o.o.o.o.o.o.o.o.o.o.o.o.o.o.o.o.o.o.o.o.o.o.o.o.o.o.o.o.o.o.o.o.o.o.o.o.o.o.o.o.o.o.o.o.o.o.o.o.o.o.o.o.o.o.o.",
"o.o.o.o.o.o.o.o.o.o.o.o.o.o.o.o.o.o.o.o.o.o.o.o.o.o.o.o.o.o.o.o.o.o.o.o.o.o.o.o.o.o.o.o.o.o.o.o.o.o.o.o.o.o.o.o.o.o.o.o.o.o.o.o.",
"o.o.o.o.o.o.o.o.o.o.o.o.o.o.o.o.o.o.o.o.o.o.o.o.o.o.o.o.o.o.o.o.o.o.o.o.o.o.o.o.o.o.o.o.o.o.o.o.o.o.o.o.o.o.o.o.o.o.o.o.o.o.o.o.",
"o.o.o.o.o.o.o.o.o.o.o.o.o.o.o.o.o.o.o.o.o.o.o.o.o.o.o.o.o.o.o.o.o.o.o.o.o.o.o.o.o.o.o.o.o.o.o.o.o.o.o.o.o.o.o.o.o.o.o.o.o.o.o.o.",
"o.o.o.o.o.o.o.o.o.o.o.o.o.o.o.o.o.o.o.o.o.o.o.o.o.o.o.o.o.o.o.o.o.o.o.o.o.o.o.o.o.o.o.o.o.o.o.o.o.o.o.o.o.o.o.o.o.o.o.o.o.o.o.o.",
"o.o.o.o.o.o.o.o.o.o.o.o.o.o.o.o.o.o.o.o.o.o.o.o.o.o.o.o.o.o.o.o.o.o.o.o.o.o.o.o.o.o.o.o.o.o.o.o.o.o.o.o.o.o.o.o.o.o.o.o.o.o.o.o.",
"o.o.o.o.o.o.o.o.o.o.o.o.o.o.o.o.o.o.o.o.o.o.o.o.o.o.o.o.o.o.o.o.o.o.o.o.o.o.o.o.o.o.o.o.o.o.o.o.o.o.o.o.o.o.o.o.o.o.o.o.o.o.o.o."
};
