/* XPM */
static char *result[] = {
/* columns rows colors chars-per-pixel */
"64 64 239 2 ",
"   c #631F3E",
".  c #4E2737",
"X  c #482836",
"o  c #482639",
"O  c #4D2739",
"+  c #502537",
"@  c #502637",
"#  c #50253A",
"$  c #52253E",
"%  c #59213A",
"&  c #671F42",
"*  c #5B3E4F",
"=  c #5E3E51",
"-  c #3E4144",
";  c #565460",
":  c #664861",
">  c #625B69",
",  c #675E6D",
"<  c #695A6B",
"1  c #685F6E",
"2  c #735268",
"3  c #77516E",
"4  c #5B6369",
"5  c #69606E",
"6  c #656572",
"7  c #6B6F7C",
"8  c #766D77",
"9  c #86355D",
"0  c #8B3D65",
"q  c #84647E",
"w  c #777785",
"e  c #757987",
"r  c #8A6F86",
"t  c #8B728A",
"y  c #8B748A",
"u  c #817A8C",
"i  c #987689",
"p  c #897790",
"a  c #937897",
"s  c #B8608D",
"d  c #BE7CAA",
"f  c #C7669C",
"g  c #CC76A7",
"h  c #C97BAD",
"j  c #DE76B0",
"k  c #DE77B1",
"l  c #D77FB0",
"z  c #DE78B2",
"x  c #DE7BB2",
"c  c #D77EB8",
"v  c #EF6FA8",
"b  c #EF6EA9",
"n  c #EF6FA9",
"m  c #EE6FAA",
"M  c #EE6FAB",
"N  c #EF6DAC",
"B  c #F36CA6",
"V  c #F26CA7",
"C  c #F26DA7",
"Z  c #F46CA5",
"A  c #F56CA5",
"S  c #F46CA6",
"D  c #F16CA8",
"F  c #F16CA9",
"G  c #F26CA9",
"H  c #F06CAA",
"J  c #F16CAA",
"K  c #F06CAC",
"L  c #F06DAD",
"P  c #E474AE",
"I  c #E476AF",
"U  c #E576AF",
"Y  c #E971AA",
"T  c #ED71AA",
"R  c #EC71AB",
"E  c #ED71AB",
"W  c #EA72AC",
"Q  c #EA73AC",
"!  c #E971AE",
"~  c #EC70AC",
"^  c #E472B0",
"/  c #E976B0",
"(  c #E579B2",
")  c #E579B4",
"_  c #EF7BB3",
"`  c #F277B4",
"'  c #F07AB3",
"]  c #8692A2",
"[  c #9192A7",
"{  c #CB87B8",
"}  c #CA88B9",
"|  c #CE8CBD",
" . c #D180B5",
".. c #D581B6",
"X. c #ED83BA",
"o. c #EF85BB",
"O. c #F080B8",
"+. c #F082BB",
"@. c #A8AFC8",
"#. c #BFA3C8",
"$. c #A7B1C6",
"%. c #A6B8CB",
"&. c #A9BDCF",
"*. c #BBB6CF",
"=. c #AABDD0",
"-. c #ABBED1",
";. c #CB9FCB",
":. c #D490C0",
">. c #DC97C1",
",. c #F089C0",
"<. c #E492C6",
"1. c #EC95C8",
"2. c #EA99CA",
"3. c #EB9ACB",
"4. c #F591C7",
"5. c #F691C7",
"6. c #F692C7",
"7. c #F890C7",
"8. c #F393C8",
"9. c #F791C8",
"0. c #F692C8",
"q. c #F195C9",
"w. c #F895CA",
"e. c #F896CB",
"r. c #F996CB",
"t. c #F995CC",
"y. c #F996CC",
"u. c #F997CC",
"i. c #F997CD",
"p. c #FA97CC",
"a. c #FA96CD",
"s. c #FA97CD",
"d. c #FA97CE",
"f. c #F798CD",
"g. c #F998CC",
"h. c #FB98CD",
"j. c #FA98CE",
"k. c #FB98CE",
"l. c #FB98CF",
"z. c #FA99CF",
"x. c #FB99CF",
"c. c #FA9ACF",
"v. c #FB9ACF",
"b. c #FB98D0",
"n. c #FB99D0",
"m. c #FA9AD0",
"M. c #FB9AD0",
"N. c #FA9BD0",
"B. c #FA9BD1",
"V. c #FB9BD1",
"C. c #FA9CD1",
"Z. c #FB9CD1",
"A. c #F89ED2",
"S. c #F99ED2",
"D. c #C7ADCF",
"F. c #CBAAD4",
"G. c #C0B5D1",
"H. c #CAB0D7",
"J. c #D2B0D7",
"K. c #F7A0D3",
"L. c #F7A1D3",
"P. c #F6A2D3",
"I. c #F7A3D3",
"U. c #F6A3D4",
"Y. c #F8A0D3",
"T. c #FBA0D4",
"R. c #F8A2D4",
"E. c #F9A2D5",
"W. c #FBA2D6",
"Q. c #F8A5D6",
"!. c #FAA5D7",
"~. c #FBA5D8",
"^. c #FBA8D8",
"/. c #F8AAD9",
"(. c #F9ABDA",
"). c #FCAADA",
"_. c #FCABDB",
"`. c #F9AEDC",
"'. c #FBAFDD",
"]. c #FBAFDE",
"[. c #FCADDC",
"{. c #FCAEDE",
"}. c #FBB0DE",
"|. c #FCB1DF",
" X c #F7B7E2",
".X c #FBB2E0",
"XX c #FCB1E0",
"oX c #FDB3E1",
"OX c #FBB4E2",
"+X c #FBB5E2",
"@X c #FBB5E3",
"#X c #FAB6E3",
"$X c #FBB6E3",
"%X c #FAB7E3",
"&X c #FCB4E2",
"*X c #FCB5E2",
"=X c #FCB5E3",
"-X c #FCB6E3",
";X c #FBB7E4",
":X c #F9B8E3",
">X c #F9B9E4",
",X c #FBB8E4",
"<X c #F8BAE4",
"1X c #F9BBE5",
"2X c #FCB8E4",
"3X c #FCB8E5",
"4X c #F8BCE5",
"5X c #F8BDE6",
"6X c #FCBDE7",
"7X c #B5C7DB",
"8X c #BCCBDE",
"9X c #BCCCDF",
"0X c #C1C2DC",
"qX c #C3C3DC",
"wX c #C5C1E1",
"eX c #C4DFF4",
"rX c #F9C1E9",
"tX c #FBC0EA",
"yX c #F9C3EA",
"uX c #F8C5EB",
"iX c #F9C8EC",
"pX c #FAC8ED",
"aX c #FACAEE",
"sX c #FACAEF",
"dX c #FACCEF",
"fX c #FACDF0",
"gX c #FACEF0",
"hX c #FAD0F1",
"jX c #FAD1F2",
"kX c #FBE0F6",
"lX c #F8F5F7",
"zX c #FAF4F8",
"xX c #FCF4FA",
"cX c #FCF5FB",
"vX c #FDF5FB",
"bX c #FDF5FC",
"nX c #FDF7FC",
"mX c #FEF7FD",
"MX c #FEF9FE",
/* pixels */
"eXeXeXeXeXeXeXeXeXeXeXeXeXeXeXeXeXeXeXeXeXeXeXeXeXeXeXeXeXeXeXeXeXeXeXeXeXeXeXeXeXeXeXeXeXeXeXeXeXeXeXeXeXeXeXeXeXeXeXeXeXeXeXeX",
"eXeXeXeXeXeXeXeXeXeXeXeXeXeXeXeXeXeXeXeXeXeXeXeXeXeXeXeXeXeXeXeXeXeXeXeXeXeXeXeXeXeXeXeXeXeXeXeXeXeXeXeXeXeXeXeXeXeXeXeXeXeXeXeX",
"eXeXeXeXeXeXeXeXeXeXeXeXeXeXeXeXeXeXeXeXeXeXeXeXeXeXeXeXeXeXeXeXeXeXeXeXeXeXeXeXeXeXeXeXeXeXeXeXeXeXeXeXeXeXeXeXeXeXeXeXeXeXeXeX",
"eXeXeXeXeXeXeXeXeXeXeXeXeXeXeXeXeXeXeXeXeXeXeXeXeXeXeXeXeXeXeXeXeXeXeXeXeXeXeXeXeXeXeXeXeXeXeXeXeXeXeXeXeXeXeXeXeXeXeXeXeXeXeXeX",
"eXeXeXeXeXeXeXeXeXeXeXeXeXeXeXeXeXeXeXeXeXeXeXeXeXeXeXeXeXeXeXeXeXeXeXeXeXeXeXeXeXeXeXeXeXeXeXeXeXeXeXeXeXeXeXeXeXeXeXeXeXeXeXeX",
"eXeXeXeXeXeXeXeXeXeXeXeXeXeXeXeXeXeXeXeXeXeXeXeXeXeXeXeXeXeXeXeXeXeXeXeXeXeXeXeXeXeXeXeXeXeXeXeXeXeXeXeXeXeXeXeXeXeXeXeXeXeXeXeX",
"eXeXeXeXeXeXeXeXeXeXeXeXeXeXeXeXeXeXeXeXeXeXeXeXeXeXeXeXeXeXeXeXeXeXeXeXeXeXeXeXeXeXeXeXeXeXeXeXeXeXeXeXeXeXeXeXeXeXeXeXeXeXeXeX",
"eXeXeXeXeXeXeXeXeXeXeXeXeXeXeXeXeXeXeXeXeXeXeXeXeXeXeXeXeXeXeXeXeXeXeXeXeXeXeXeXeXeXeXeXeXeXeXeXeXeXeXeXeXeXeXeXeXeXeXeXeXeXeXeX",
"eXeXeXeXeXeXeXeXeXeXeXeXeXeXeXeXeXeXeXeXeXeXeXeXeXeXeXeXeXeXeXeXeXeXeXeXeXeXeXeXeXeXeXeXeXeXeXeXeXeXeXeXeXeXeXeXeXeXeXeXeXeXeXeX",
"eXeXeXeXeXeXeXeXeXeXeXeXeXeXeXeXeXeXeXeXeXeXeXeXeXeXeXeXeXeXeXeXeXeXeXeXeXeXeXeXeXeXeXeXeXeXeXeXeXeXeXeXeXeXeXeXeXeXeXeXeXeXeXeX",
"eXeXeXeXeXeXeXeXeXeXeXeXeXeXeXeXeXeXeXeXeXeXeXeXeXeXeXeXeXeXeXeXeXeXeXeXeXeXeXeXeXeXeXeXeXeXeXeXeXeXeXeXeXeXeXeXeXeXeXeXeXeXeXeX",
"eXeXeXeXeXeXeXeXeXeXeXeXeXeXeXeXeXeXeXeXeXeXeXeXeXeXeXeXeXeXeXeXeXeXeXeXeXeXeXeXeXeXeXeXeXeXeXeXeXeXeXeXeXeXeXeXeXeXeXeXeXeXeXeX",
"eXeXeXeXeXeXeXeXeXeXeXeXeXeXeXeXeXeXeXeXeXeXeXeXeXeXeXeXeXeXeXeXeXeXeXeXeXeXeXeXeXeXeXeXeXeXeXeXeXeXeXeXeXeXeXeXeXeXeXeXeXeXeXeX",
"eXeXeXeXeXeXeXeXeXeXeXeXeXeXeXeXeXeXeXeXeXeXeXeXeXeXeXeXeXeXeXeXeXeXeXeXeXeXeXeXeXeXeXeXeXeXeXeXeXeXeXeXeXeXeXeXeXeXeXeXeXeXeXeX",
"eXeXeXeXeXeXeXeXeXeXeXeXeXeXeXeXeXeXeXeXeXeXeXeXeXeXeXeXeXeXeXeXeXeXeXeXeXeXeXeXeXeXeXeXeXeXeXeXeXeXeXeXeXeXeXeXeXeXeXeXeXeXeXeX",
"eXeXeXeXeXeXeXeXeXeXeXeXeXeXeXeXeXeXeXeXeXeXeXeXeXeXeXeXeXeXeXeXeXeXeXeXeXeXeXeXeXeXeXeXeXeXeXeXeXeXeXeXeXeXeXeXeXeXeXeXeXeXeXeX",
"eXeXeXeXeXeXeXeXeXeXeXeXeXeXeXeXeXeXeXeXeXeXeXeXeXeXeXeXeXeXeXeXeXeXeXeXeXeXeXeXeXeXeXeXeXeXeXeXeXeXeXeXeXeXeXeXeXeXeXeXeXeXeXeX",
"eXeXeXeXeXeXeXeXeXeXeXeXeXeXeXeXeXeXeXeXeXeXeXeXeXeXeXeXeXeXeXeXeXeXeXeXeXeXeXeXeXeXeXeXeXeXeXeXeXeXeXeXeXeXeXeXeXeXeXeXeXeXeXeX",
"eXeXeXeXeXeXeXeXeXeXeXeXeXeXeXeXeXeXeXeXeXeXeXeXeXeXeXeXeXeXeXeXeXeXeXeXeXeXeXeXeXeXeXeXeXeXeXeXeXeXeXeXeXeXeXeXeXeXeXeXeXeXeXeX",
"eXeXeXeXeXeXeXeXeXeXeXeXeXeXeXeXeXeXeXeXeXeXeXeX1 & & . eXeXeXeXeXeXeXt & & & & eXeXeXeXeXeXeXeXeXeXeXeXeXeXeXeXeXeXeXeXeXeXeXeX",
"eXeXeXeXeXeXeXeXeXeXeXeXeXeXeXeXeXeXeXeXeXeXw , I n m Q & eXeXeXeXeX  s u.M L Z & = eXeXeXeXeXeXeXeXeXeXeXeXeXeXeXeXeXeXeXeXeXeX",
"eXeXeXeXeXeXeXeXeXeXeXeXeXeXeXeXeXeXeXeXeX=.h _ T.E.Q.r.' 9 @.eX$.0 e.R.W.p.l.` W d [ eXeXeXeXeXeXeXeXeXeXeXeXeXeXeXeXeXeXeXeXeX",
"eXeXeXeXeXeXeXeXeXeXeXeXeXeXeXeXeXeXeXeXeXp 3.iXpXdXXX^.A.5.f : l f. XaXtX).x.h.7.c 3 eXeXeXeXeXeXeXeXeXeXeXeXeXeXeXeXeXeXeXeXeX",
"eXeXeXeXeXeXeXeXeXeXeXeXeXeXeXeXeXeXeXeXeXr yXvXzXbXgXXXL.M.6.& Y.[.hXkX4X-XS.n.e.x 0X# eXeXeXeXeXeXeXeXeXeXeXeXeXeXeXeXeXeXeXeX",
"eXeXeXeXeXeXeXeXeXeXeXeXeXeXeXeXeXeXeXeX, L.rXmXlXnXjX$X~.h.& q.=X>XjXxX5X;XV.B.t.( qX$ eXeXeXeXeXeXeXeXeXeXeXeXeXeXeXeXeXeXeXeX",
"eXeXeXeXeXeXeXeXeXeXeXeXeXeXeXeXeXeXeXeX, g.rXcXMXsX#X*X'.V.& OX,X<XjXuX3X$XK.b.v.S G.O eXeXeXeXeXeXeXeXeXeXeXeXeXeXeXeXeXeXeXeX",
"eXeXeXeXeXeXeXeXeXeXeXeXeXeXeXeXeXeXeXeX, m.].hXjX:X%X%X@X6X+X1X=X#X:X;X3X,Xm.n.V.Z G.O eXeXeXeXeXeXeXeXeXeXeXeXeXeXeXeXeXeXeXeX",
"eXeXeXeXeXeXeXeXeXeXeXeXeXeXeXeXeXeXeXeX, L.}.%X%XjXfX%X,X;X%X;X;X;X;X$X$X,XM.x.v.S wX+ eXeXeXeXeXeXeXeXeXeXeXeXeXeXeXeXeXeXeXeX",
"eXeXeXeXeXeXeXeXeXeXeXeXeXeXeXeXeXeXeXeX8 8..X$X-X%X,X%X%X;X;X;X;X;X;X;X;X`.V.x.c.S wX+ eXeXeXeXeXeXeXeXeXeXeXeXeXeXeXeXeXeXeXeX",
"eXeXeXeXeXeXeXeXeXeXeXeXeXeXeXeXeXeXeXeX8 O.@X-X=X;X;X;X;X;X;X;X;X%X;X$X;XU.b.V.E S wX+ eXeXeXeXeXeXeXeXeXeXeXeXeXeXeXeXeXeXeXeX",
"eXeXeXeXeXeXeXeXeXeXeXeXeXeXeXeXeXeXeXeXeXy ,X%X%X;X;X;X;X;X;X;X;X$X,X%XQ.V.z.m.N / 0X+ eXeXeXeXeXeXeXeXeXeXeXeXeXeXeXeXeXeXeXeX",
"eXeXeXeXeXeXeXeXeXeXeXeXeXeXeXeXeXeXeXeXeXi I.2X%X;X;X;X;X;X;X;X;X$X;X_.i.V.u.K H ) 0X@ eXeXeXeXeXeXeXeXeXeXeXeXeXeXeXeXeXeXeXeX",
"eXeXeXeXeXeXeXeXeXeXeXeXeXeXeXeXeXeXeXeXeXq 9.Y.*X;X;X;X;X;X%X;X;X;X*XM.n.C.0.Z G z 2 eXeXeXeXeXeXeXeXeXeXeXeXeXeXeXeXeXeXeXeXeX",
"eXeXeXeXeXeXeXeXeXeXeXeXeXeXeXeXeXeXeXeXeX&.>.j.&X$X;X$X;X;X;X;X;X;X|.n.s.y.J S ~ H.< eXeXeXeXeXeXeXeXeXeXeXeXeXeXeXeXeXeXeXeXeX",
"eXeXeXeXeXeXeXeXeXeXeXeXeXeXeXeXeXeXeXeXeX-.g w.b.oX2X@X@X-X;X;X@X{.k.n.p.T Z A Y H.4 eXeXeXeXeXeXeXeXeXeXeXeXeXeXeXeXeXeXeXeXeX",
"eXeXeXeXeXeXeXeXeXeXeXeXeXeXeXeXeXeXeXeXeXeXa +.k.Z./.(.$X;X%X;X!.x.l.M.X.Z Z Z | u 7XeXeXeXeXeXeXeXeXeXeXeXeXeXeXeXeXeXeXeXeXeX",
"eXeXeXeXeXeXeXeXeXeXeXeXeXeXeXeXeXeXeXeXeXeX7 P j j.b.m.[.$X@XP.l.k.h.o.B A F 1.9X* eXeXeXeXeXeXeXeXeXeXeXeXeXeXeXeXeXeXeXeXeXeX",
"eXeXeXeXeXeXeXeXeXeXeXeXeXeXeXeXeXeXeXeXeXeXeX5 R u.i.C.V.S.U.M.b.c.u.Z B b :.J.o eXeXeXeXeXeXeXeXeXeXeXeXeXeXeXeXeXeXeXeXeXeXeX",
"eXeXeXeXeXeXeXeXeXeXeXeXeXeXeXeXeXeXeXeXeXeXeXeX, C e.d.r.h.h.c.M.w.Z B Z 2.9X% eXeXeXeXeXeXeXeXeXeXeXeXeXeXeXeXeXeXeXeXeXeXeXeX",
"eXeXeXeXeXeXeXeXeXeXeXeXeXeXeXeXeXeXeXeXeXeXeXeX, U Z R p.M.N.p.a.F Z A F.9X$ eXeXeXeXeXeXeXeXeXeXeXeXeXeXeXeXeXeXeXeXeXeXeXeXeX",
"eXeXeXeXeXeXeXeXeXeXeXeXeXeXeXeXeXeXeXeXeXeXeXeXeX, ^ ! B 4.r.D F B D  .9XX eXeXeXeXeXeXeXeXeXeXeXeXeXeXeXeXeXeXeXeXeXeXeXeXeXeX",
"eXeXeXeXeXeXeXeXeXeXeXeXeXeXeXeXeXeXeXeXeXeXeXeXeXeX6 #.} k n v Z V { *.- eXeXeXeXeXeXeXeXeXeXeXeXeXeXeXeXeXeXeXeXeXeXeXeXeXeXeX",
"eXeXeXeXeXeXeXeXeXeXeXeXeXeXeXeXeXeXeXeXeXeXeXeXeXeXeX%.e ;.D...,.<.8X] eXeXeXeXeXeXeXeXeXeXeXeXeXeXeXeXeXeXeXeXeXeXeXeXeXeXeXeX",
"eXeXeXeXeXeXeXeXeXeXeXeXeXeXeXeXeXeXeXeXeXeXeXeXeXeXeXeXeX; ; 9X9X> ; eXeXeXeXeXeXeXeXeXeXeXeXeXeXeXeXeXeXeXeXeXeXeXeXeXeXeXeXeX",
"eXeXeXeXeXeXeXeXeXeXeXeXeXeXeXeXeXeXeXeXeXeXeXeXeXeXeXeXeXeXeX; ; eXeXeXeXeXeXeXeXeXeXeXeXeXeXeXeXeXeXeXeXeXeXeXeXeXeXeXeXeXeXeX",
"eXeXeXeXeXeXeXeXeXeXeXeXeXeXeXeXeXeXeXeXeXeXeXeXeXeXeXeXeXeXeXeXeXeXeXeXeXeXeXeXeXeXeXeXeXeXeXeXeXeXeXeXeXeXeXeXeXeXeXeXeXeXeXeX",
"eXeXeXeXeXeXeXeXeXeXeXeXeXeXeXeXeXeXeXeXeXeXeXeXeXeXeXeXeXeXeXeXeXeXeXeXeXeXeXeXeXeXeXeXeXeXeXeXeXeXeXeXeXeXeXeXeXeXeXeXeXeXeXeX",
"eXeXeXeXeXeXeXeXeXeXeXeXeXeXeXeXeXeXeXeXeXeXeXeXeXeXeXeXeXeXeXeXeXeXeXeXeXeXeXeXeXeXeXeXeXeXeXeXeXeXeXeXeXeXeXeXeXeXeXeXeXeXeXeX",
"eXeXeXeXeXeXeXeXeXeXeXeXeXeXeXeXeXeXeXeXeXeXeXeXeXeXeXeXeXeXeXeXeXeXeXeXeXeXeXeXeXeXeXeXeXeXeXeXeXeXeXeXeXeXeXeXeXeXeXeXeXeXeXeX",
"eXeXeXeXeXeXeXeXeXeXeXeXeXeXeXeXeXeXeXeXeXeXeXeXeXeXeXeXeXeXeXeXeXeXeXeXeXeXeXeXeXeXeXeXeXeXeXeXeXeXeXeXeXeXeXeXeXeXeXeXeXeXeXeX",
"eXeXeXeXeXeXeXeXeXeXeXeXeXeXeXeXeXeXeXeXeXeXeXeXeXeXeXeXeXeXeXeXeXeXeXeXeXeXeXeXeXeXeXeXeXeXeXeXeXeXeXeXeXeXeXeXeXeXeXeXeXeXeXeX",
"eXeXeXeXeXeXeXeXeXeXeXeXeXeXeXeXeXeXeXeXeXeXeXeXeXeXeXeXeXeXeXeXeXeXeXeXeXeXeXeXeXeXeXeXeXeXeXeXeXeXeXeXeXeXeXeXeXeXeXeXeXeXeXeX",
"eXeXeXeXeXeXeXeXeXeXeXeXeXeXeXeXeXeXeXeXeXeXeXeXeXeXeXeXeXeXeXeXeXeXeXeXeXeXeXeXeXeXeXeXeXeXeXeXeXeXeXeXeXeXeXeXeXeXeXeXeXeXeXeX",
"eXeXeXeXeXeXeXeXeXeXeXeXeXeXeXeXeXeXeXeXeXeXeXeXeXeXeXeXeXeXeXeXeXeXeXeXeXeXeXeXeXeXeXeXeXeXeXeXeXeXeXeXeXeXeXeXeXeXeXeXeXeXeXeX",
"eXeXeXeXeXeXeXeXeXeXeXeXeXeXeXeXeXeXeXeXeXeXeXeXeXeXeXeXeXeXeXeXeXeXeXeXeXeXeXeXeXeXeXeXeXeXeXeXeXeXeXeXeXeXeXeXeXeXeXeXeXeXeXeX",
"eXeXeXeXeXeXeXeXeXeXeXeXeXeXeXeXeXeXeXeXeXeXeXeXeXeXeXeXeXeXeXeXeXeXeXeXeXeXeXeXeXeXeXeXeXeXeXeXeXeXeXeXeXeXeXeXeXeXeXeXeXeXeXeX",
"eXeXeXeXeXeXeXeXeXeXeXeXeXeXeXeXeXeXeXeXeXeXeXeXeXeXeXeXeXeXeXeXeXeXeXeXeXeXeXeXeXeXeXeXeXeXeXeXeXeXeXeXeXeXeXeXeXeXeXeXeXeXeXeX",
"eXeXeXeXeXeXeXeXeXeXeXeXeXeXeXeXeXeXeXeXeXeXeXeXeXeXeXeXeXeXeXeXeXeXeXeXeXeXeXeXeXeXeXeXeXeXeXeXeXeXeXeXeXeXeXeXeXeXeXeXeXeXeXeX",
"eXeXeXeXeXeXeXeXeXeXeXeXeXeXeXeXeXeXeXeXeXeXeXeXeXeXeXeXeXeXeXeXeXeXeXeXeXeXeXeXeXeXeXeXeXeXeXeXeXeXeXeXeXeXeXeXeXeXeXeXeXeXeXeX",
"eXeXeXeXeXeXeXeXeXeXeXeXeXeXeXeXeXeXeXeXeXeXeXeXeXeXeXeXeXeXeXeXeXeXeXeXeXeXeXeXeXeXeXeXeXeXeXeXeXeXeXeXeXeXeXeXeXeXeXeXeXeXeXeX",
"eXeXeXeXeXeXeXeXeXeXeXeXeXeXeXeXeXeXeXeXeXeXeXeXeXeXeXeXeXeXeXeXeXeXeXeXeXeXeXeXeXeXeXeXeXeXeXeXeXeXeXeXeXeXeXeXeXeXeXeXeXeXeXeX",
"eXeXeXeXeXeXeXeXeXeXeXeXeXeXeXeXeXeXeXeXeXeXeXeXeXeXeXeXeXeXeXeXeXeXeXeXeXeXeXeXeXeXeXeXeXeXeXeXeXeXeXeXeXeXeXeXeXeXeXeXeXeXeXeX",
"eXeXeXeXeXeXeXeXeXeXeXeXeXeXeXeXeXeXeXeXeXeXeXeXeXeXeXeXeXeXeXeXeXeXeXeXeXeXeXeXeXeXeXeXeXeXeXeXeXeXeXeXeXeXeXeXeXeXeXeXeXeXeXeX",
"eXeXeXeXeXeXeXeXeXeXeXeXeXeXeXeXeXeXeXeXeXeXeXeXeXeXeXeXeXeXeXeXeXeXeXeXeXeXeXeXeXeXeXeXeXeXeXeXeXeXeXeXeXeXeXeXeXeXeXeXeXeXeXeX"
};
