/* XPM */
static char *af32a06042354642a2e2e66f59242a60x2UXGUbDDIJ2JXv7[] = {
/* columns rows colors chars-per-pixel */
"64 64 180 2 ",
"   c None",
".  c black",
"X  c #030101",
"o  c #1F1107",
"O  c #29170B",
"+  c #492A15",
"@  c #512E17",
"#  c #583319",
"$  c #744220",
"%  c #754220",
"&  c #774321",
"*  c #784421",
"=  c #794521",
"-  c #7A4621",
";  c #7C4720",
":  c #C6800C",
">  c #C7810C",
",  c #C7810D",
"<  c #C7820D",
"1  c #C8820D",
"2  c #C8830D",
"3  c #C9840E",
"4  c #CA840E",
"5  c #CA850E",
"6  c #CA850F",
"7  c #CB860E",
"8  c #CB870E",
"9  c #CB860F",
"0  c #CB870F",
"q  c #CC870F",
"w  c #CD870F",
"e  c #CE890D",
"r  c #CC880F",
"t  c #CD880F",
"y  c #CD890F",
"u  c #CF8B0E",
"i  c #D5920C",
"p  c #D6920C",
"a  c #D7930C",
"s  c #D6920D",
"d  c #D6930D",
"f  c #D7930D",
"g  c #D6930E",
"h  c #D7940E",
"j  c #D7940F",
"k  c #D8950E",
"l  c #D8950F",
"z  c #D8960E",
"x  c #D9960E",
"c  c #D8960F",
"v  c #D9960F",
"b  c #CD8910",
"n  c #CE8910",
"m  c #CE8A10",
"M  c #CE8B10",
"N  c #CF8B10",
"B  c #CF8C10",
"V  c #D08C11",
"C  c #D08D11",
"Z  c #D18D11",
"A  c #D18E11",
"S  c #D28E11",
"D  c #D28F11",
"F  c #D08D12",
"G  c #D28E12",
"H  c #D28F12",
"J  c #D29012",
"K  c #D39012",
"L  c #D39113",
"P  c #D49112",
"I  c #D49113",
"U  c #D49213",
"Y  c #D59213",
"T  c #D59313",
"R  c #D69414",
"E  c #D79514",
"W  c #D79614",
"Q  c #D89614",
"!  c #D89615",
"~  c #D89715",
"^  c #D99715",
"/  c #DA9810",
"(  c #DC9A13",
")  c #DD9C12",
"_  c #DE9D12",
"`  c #DF9D13",
"'  c #D99815",
"]  c #DA9815",
"[  c #DA9916",
"{  c #DB9A16",
"}  c #DB9B16",
"|  c #DC9B16",
" . c #DC9B17",
".. c #DC9C17",
"X. c #DD9C17",
"o. c #DD9D17",
"O. c #DE9E17",
"+. c #DE9E18",
"@. c #DE9F18",
"#. c #DF9F18",
"$. c #E0A013",
"%. c #E4A416",
"&. c #E0A018",
"*. c #E1A119",
"=. c #E1A219",
"-. c #E2A319",
";. c #E2A21A",
":. c #E3A41A",
">. c #E3A51A",
",. c #E6A718",
"<. c #E4A51A",
"1. c #E5A61B",
"2. c #E5A71B",
"3. c #E7A819",
"4. c #E6A81B",
"5. c #E6A81C",
"6. c #E7A81C",
"7. c #E7A91C",
"8. c #E7AA1C",
"9. c #E8AA19",
"0. c #EAAC1A",
"q. c #EAAD1A",
"w. c #E8AB1C",
"e. c #E9AB1D",
"r. c #E9AC1D",
"t. c #EAAD1D",
"y. c #EBAE1E",
"u. c #EBAF1E",
"i. c #ECAF1E",
"p. c #ECB01E",
"a. c #EDB01E",
"s. c #ECB01F",
"d. c #EEB11F",
"f. c #EEB21F",
"g. c #EFB320",
"h. c #EFB420",
"j. c #F0B420",
"k. c #F0B520",
"l. c #F1B621",
"z. c #F2B721",
"x. c #F3B721",
"c. c #F2B821",
"v. c #F3B821",
"b. c #F3B822",
"n. c #F3B922",
"m. c #F4B922",
"M. c #F4BA22",
"N. c #F5BA22",
"B. c #F5BB22",
"V. c #F5BB23",
"C. c #F7BD22",
"Z. c #F6BC23",
"A. c #F7BD23",
"S. c #F6BC24",
"D. c #F7BD24",
"F. c #F7BE24",
"G. c #F8BE22",
"H. c #F9BF23",
"J. c #F8BD24",
"K. c #F8BE24",
"L. c #F8BF24",
"P. c #F9BF24",
"I. c #F8BE25",
"U. c #F9C025",
"Y. c #F9C125",
"T. c #FAC125",
"R. c #FAC225",
"E. c #FBC225",
"W. c #FBC325",
"Q. c #FAC226",
"!. c #FBC226",
"~. c #FBC326",
"^. c #FCC326",
"/. c #FCC426",
"(. c #FDC426",
"). c #FDC526",
"_. c #FCC427",
"`. c #FDC527",
"'. c #FEC527",
"]. c #FEC627",
/* pixels */
"                                        . * * * * + * . * * * ; ; * * * . * + * * * * .                                         ",
"                                      . . * * * * + + . . * * * * * * . . + + * * * * . .                                       ",
"                                  @ O . * * * * * + + + # . * * * * . # + + + * * * * * . O                                     ",
"                  . . . . . . . . . . . * * * * * * + + # * * * * * * # + + * * * * * * . . . . . . . . . . .                   ",
"              . . . + + + + + + + + # . * * * * * * * * # * * * * * * # * * * * * * * * . # + + + + + + + + . . .               ",
"            . . + + + * * * * * * * * . * * * * * * * * * * * * * * * * * * * * * * * * . * * * * * * * * + + + . .             ",
"            . + + * * * * * * * * * * . # * * * * * * * * * * * * * * * * * * * * * * # . * * * * * * * * * * + + .             ",
"            . + + * * * * * * * * * * + + * * * * * * * * * * * * * * * * * * * * * * + + * * * * * * * * * * + + .             ",
"            . . + + * * * * * * * * * * * + + + * * * * * * * * * * * * * * * * + + + * * * * * * * * * * * + + . .             ",
"              . . # + + * * * * * * * * * * * + + + + * * * * * * * * * * + + + + * * * * * * * * * * * + + # . .               ",
"                . . . # + + + + * * * * * * * * * * + + + + * * * * + + + + * * * * * * * * * * + + + + # . . .                 ",
"                    . . . # # + + * * * * * * * * * * * * * * * * * * * * * * * * * * * * * * + + # # . . .                     ",
"                        . . . . + + + + + * * * * * * * * * * * * * * * * * * * * * * + + + + + . . . .                         ",
"                              . . . # # + + + + + * * * * * * * * * * * * * * + + + + + # # . . .                               ",
"                              : K ].. . . . # # + + + * * * * * * * * * * + + + # # . . . . ].T :                               ",
"                              : K ].].].].].].. # # + + + + $ * * * + + + + # # . ].].].].].].K :                               ",
"                              : A ].].].].].].].. . . O + + + + + + + + o . . . ].].].].].].].A :                               ",
"                              : A ].].].].].].].].].. . . . . . . . . . . . ].].].].].].].].].A :                               ",
"                              : r ].].].].].].].].].].].].Q.].].].].].].].].].].].].].].].].].b :                               ",
"                                : ].].].].].].].].].].].].].].].].].].].].].].].].].].].].].].:                                 ",
"                                1 p.].].].].].].].].].].].].].].].].].].].].].].].].].].].].p.1                                 ",
"                                6 6 ].].].].].].].].].].].].].: : ].].].].].].].].].].].].Q.w 6                                 ",
"                                  1 2.].].].].].].].].].].].Q.: : Q.].].].].].].].].].].].2.1                                   ",
"                                  A b ].].].].].].].].].].Q.b : : b Q.].].].].].].].].].].r A                                   ",
"                                    1 v.].].].].].].].].m.b : : : : w m.].].].].].].].].v.1                                     ",
"                                    1 T ].].].].].].I.E : : A ].].A : : E I.].].].].].].T 1                                     ",
"                                      1 >.].].].Q...w 1 : ;.].].].].;.1 1 w  .Q.].].].>.1                                       ",
"                                        : 9 v.v.B 9 6 A 4.].].].].].].2.A 1 w A m.m.6 :                                         ",
"                                          r 9 9 5.K p.I.2.].].].].].].2.D.p.K 4.b 6 0                                           ",
"                                          b A y.].].].O.O.].].].].].].O.+.].].].y.A b                                           ",
"                                        1 A T ].].].h.[ I.].].].].].].Q.[ j.].].].T A :                                         ",
"                                        K O.2.].].].A j.].].].].].].].].g.A ].].].4.@.K                                         ",
"                                      A j.E Q.].].;. .].].].].].].].].].]. .;.].].I.^ j.A                                       ",
"                                  : B Q.;.2.].].Z.u E.].].].].].].].].].].Q.u Z.].].2.;.Q.B :                                   ",
"                            r 0 6 A I.D.T H.].].@.w.].].].].].].].].].].].].5.;.].].H.T Z.I.A 6 0 b                             ",
"            6 6 b A A A K K A E v.].].[ 4.].].m.^ Q.].].].].].].].].].].].].Q.E v.].].2.[ ].].v.E A A K A A A b b 6             ",
"          b T g.V.D.Z.Q./.5.A Z.].].j.A ].].].+.w.].].].].].].].].].].].].].].w.+.].].].A p.].].Z.A 5.Q.Q.Z.Z.m.h.T b           ",
"      } w w ].].].].].].j.E I.].].Q.^ j.].].Q.T Q.].].].].].].].].].].].].].].Q.E Q.].].j.[ Q.].].I.^ j.].].].].].].r 0 [       ",
"    K B w.V ].].].].].].[ y.].].].y.[ ].].].m.^ ].].].].].].].].].].].].].].].].^ Z.].].]. .y.].].].p.[ ].].].].].].A 4.B K     ",
"  6 b D.].E p.].].].].Z.E ].].].Q.^ m.].].].Z.E ].].].].].].].].].].].].].].].].[ m.].].].m.E ].].].Q.E H.].].].].p.E ].D.0 w   ",
"  r T m.].i.[ ].].].].y.+.].].].p. .].].].].m.^ ].].].].].].].].].].].].].].].].Q m.].].].].[ p.].].].O.y.].].].].[ y.].m.T 6   ",
"A [ 2.} ].].[ O.Q.].].Z.Z.].].].^ g.].].].].Q.p.].].].].].].].].].].].].].].].].p.E.].].].].f.^ ].].].Z.H.].].Q. .O.].].O.2.^ A ",
"r j.].K y.].Q.;.^ p.].].].].].m.E ].].].].].].].].].].].].].].].].].].].].].].].].].].].].].].E m.].].].].Q.p.^ ;.E.].y.K ].j.B ",
"B ].].Z.^ 5.E.].j.[ ^ m.].].].>.>.].].].].].].].].].].].].].].].].].].].].].].].].].].].].].].>.>.].].].v.^ [ k.].Q.4.^ Z.].].b ",
"B Q.].].Z.O.E ;.4.p.y.m.].].].A m.].].].].].].].].].].].].].].].].].].].].].].].].].].].].].].m.K ].].].m.y.p.w.;.[ O.Z.].].E.b ",
": p.].].].].m.w.;.^ A r T v.].Q.].].].].].].].].].].].].].].].].].].].].].].].].].].].].].].].].Q.].j.K w A [ ;.w.m.].].].].p.1 ",
"6 T E E [ O.O.[ T ^ ;.w.j.E.].].].].].].].].].].].].].].].].].].].].].].].].].].].].].].].].].].].].].j.w.;.Q T [ O.O.[ Q T T 1 ",
": ].Q.Z.v.j.j.j.Q.].].].].].].].].].].].].].].].].].].].].].].].].].].].].].].].].].].].].].].].].].].].].].].Q.v.p.k.j.Z.Q.].6 ",
"6 ].].].].].].].].].].].].].].].].].].].].].].].].].].].].].].].].].].].].].].].].].].].].].].].].].].].].].].].].].].].].].].6 ",
"w ].].].].].].].].].].].].].].].].].].].].].].].].].].].].].].].].].].].].].].].].].].].].].].].].].].].].].].].].].].].].].].w ",
"0 ].].].].].].].].].].].].].].].].].].].].].].].].].].].].].].].].].].].].].].].].].].].].].].].].].].].].].].].].].].].].].].r ",
"r ].].].].].].].].].].].].].].].].].].].].].].].].].].].].].].].].].].].].].].].].].].].].].].].].].].].].].].].].].].].].].].r ",
"r ].].].].].].].].].].].].].].].].].].].].].].].].].].].].].].].].].].].].].].].].].].].].].].].].].].].].].].].].].].].].].].r ",
"0 ].].].].].].].].].].].].].].].].].].].].].].].].].].].].].].].].].].].].].].].].].].].].].].].].].].].].].].].].].].].].].].6 ",
"6 ].].].].].].].].].].].].].].].].].].].].].].].].].].].].].].].].].].].H.].].].].].].].].].].].].].].].].].].].].].].].].].].6 ",
"> ].].].].].].].].].].].].].].].].].].].].].].].].].].h i _ Q.].].H.v i a Q.].].].].].].].].].].].].].].].].].].].].].].].].].: ",
": >.].].].].].].].].].].].].].].].].].].].].].].].].].].Z._ v ].].a h m.].].].].].].].].].].].].].].].].].].].].].].].].].].;.: ",
"> 6 j.].].].].].].].].].].].].].].].].].].].].].].].].].].].v 9.4.h ].].].].].].].].].].].].].].].].].].].].].].].].].].].v.6 > ",
"  6 K ].].].].].].].].].].].].].].].].].].].].].].].].].].].0./ / 0.].].].].].].].].].].].].].].].].].].].].].].].].].].].K 6   ",
"    w T I.].].].].].].].].].].].].].].].].].].].].].].].].].E.i i Q.].].].].].].].].].].].].].].].].].].].].].].].].].H.K r     ",
"      T A D.].].].].].].].].].].].].].].].].].].].].].].].].Z.i v Z.].].].].].].].].].].].].].].].].].].].].].].].].D.A T       ",
"        r : j.].].].].].].].].].].].].].].].].].].].].].Z.$.x _ _ v _ Z.].].].].].].].].].].].].].].].].].].].].].j.: w         ",
"          6 6 s 2.Q.].].].].].].].].].].].].].].].].3.v h ( p.].].f.h a h %.].].].].].].].].].].].].].].].].Q.2.K 6 6           ",
"              6 6 6 u E O.Q r 6 w A T Q [ ;.2.2.O.[ T K r 6 C ' ' K e u K K [ O.2.4.>.[ E K A 0 w r E O.^ r 6 r 6               "
};