/* XPM */
static char *result[] = {
/* columns rows colors chars-per-pixel */
"64 64 19 1 ",
"  c #81BA44",
". c #7CB53D",
"X c #5D9414",
"o c #77AF37",
"O c #80B943",
"+ c #7CB53E",
"@ c #77B037",
"# c #76AF36",
"$ c #5E9515",
"% c #7CB43D",
"& c #81BA45",
"* c #5E9415",
"= c #7DB53E",
"- c #80B942",
"; c #81BA43",
": c #78B138",
"> c #61981A",
", c #61991A",
"< c white",
/* pixels */
"                  .XoO+O          .XoO+O          .XoO+O        ",
"                   @X#$%           @X#$%           @X#$%        ",
"                  &.*#*%          &.*#*%          &.*#*%        ",
"                   O=-=O           O=-=O           O=-=O        ",
"                                                                ",
"                                                                ",
"                                                                ",
"                             ;+O             ;+O             ;+O",
"                          O=O:>+          O=O:>+          O=O:,.",
"                          %*#Xo           %*#Xo           %*#X@;",
"                          %*#*.&          %*#*.&          %*#*.&",
"                          O=-=O           O=-=O           O=-=O ",
"                                                                ",
"                                                                ",
"                                                                ",
"                  O+;                                           ",
"                  +>:O=O                                        ",
"                   oX#*%                                        ",
"                  &.*#*%                                        ",
"                   O=-=O                                        ",
"                                                                ",
"                                                                ",
"                                                                ",
"                             ;+O                                ",
"                          O=O:>+                                ",
"                          %*#Xo                                 ",
"                          %*#*.&                                ",
"                          O=-=O                                 ",
"                                                                ",
"                                                                ",
"                                                                ",
"  O+;             O+;             O+;                           ",
"  +>:O=O          +>:O=O          +>:O=O                        ",
"   oX#*%           oX#*%           oX#*%                        ",
"  &.*#*%          &.*#*%          &.*#*%                        ",
"   O=-=O           O=-=O           O=-=O                        ",
"                                                                ",
"                                                                ",
"                                                                ",
"             ;+O             ;+O             ;+O                ",
"          O=O:>+          O=O:>+          O=O:>+                ",
"          %*#Xo           %*#Xo           %*#Xo                 ",
"          %*#*.&          %*#*.&          %*#*.&                ",
"          O=-=O           O=-=O           O=-=O                 ",
"                                                                ",
"                                                                ",
"                                                                ",
"  O+;             O+;                             O+;           ",
"  +>:O=O          +>:O=O                          +>:O=O        ",
"   oX#*%           oX#*%                           oX#*%        ",
"  &.*#*%          &.*#*%                          &.*#*%        ",
"   O=-=O           O=-=O                           O=-=O        ",
"                                                                ",
"                                                                ",
"                                                                ",
"             ;+O             ;+O                             ;+O",
"          O=O:>+          O=O:>+                          O=O:,.",
"          %*#Xo           %*#Xo                           %*#X@;",
"          %*#*.&          %*#*.&                          %*#*.&",
"          O=-=O           O=-=O                           O=-=O ",
"                                                                ",
"                                                                ",
"                                                                ",
"                                                                "
};
