/* XPM */
static char *db1f874a8a9f4e99bea3bbb2ab660bfb[] = {
/* columns rows colors chars-per-pixel */
"64 64 107 2 ",
"   c #656565",
".  c #6C6C6C",
"X  c #6F7070",
"o  c #747474",
"O  c #777877",
"+  c #7F757E",
"@  c #777878",
"#  c #797979",
"$  c #80767F",
"%  c #893582",
"&  c #A43D9C",
"*  c #A83E9F",
"=  c #A93FA0",
"-  c #8D4586",
";  c #8E4688",
":  c #91478A",
">  c #A7439E",
",  c #A44C9C",
"<  c #A6529E",
"1  c #817780",
"2  c #847A83",
"3  c #897E87",
"4  c #A94DA0",
"5  c #B542AA",
"6  c #B549AA",
"7  c #BA4FAF",
"8  c #AF5DA8",
"9  c #BA51AE",
"0  c #BF45B2",
"q  c #C546B7",
"w  c #C847BA",
"e  c #CA48BB",
"r  c #C05DB6",
"t  c #CE66BE",
"y  c #C170B2",
"u  c #D54BC5",
"i  c #CF59C1",
"p  c #D753C6",
"a  c #D857C6",
"s  c #D95DC7",
"d  c #DA5FC8",
"f  c #D960C7",
"g  c #D46CC3",
"h  c #DB64C9",
"j  c #DC6BCA",
"k  c #D57EC5",
"l  c #DE77CB",
"z  c #DF78CC",
"x  c #DF65D0",
"c  c #E06BCF",
"v  c #E079CD",
"b  c #E16ED1",
"n  c #E272D1",
"m  c #868486",
"M  c #8E848D",
"N  c #949594",
"B  c #979897",
"V  c #979898",
"C  c #9B9B9B",
"Z  c #A3A4A3",
"A  c #A7A8A7",
"S  c #A9AAA9",
"D  c #B4ABB4",
"F  c #B8ABB7",
"G  c #BAAFB9",
"H  c #BBAFBA",
"J  c #B9AFB8",
"K  c #B6B4B6",
"L  c #B9B0B8",
"P  c #BAB0B8",
"I  c #BAB0B9",
"U  c #BDB0BB",
"Y  c #B8B6B8",
"T  c #BEB2BC",
"R  c #BFB4BE",
"E  c #BDBCBD",
"W  c #D780C8",
"Q  c #DF85D4",
"!  c #DC91D1",
"~  c #DE93D3",
"^  c #E880D8",
"/  c #E881D9",
"(  c #E882D9",
")  c #E68CD9",
"_  c #E68CDA",
"`  c #E78FDA",
"'  c #EA8AD9",
"]  c #E39AD8",
"[  c #E39BD8",
"{  c #E49BD8",
"}  c #E59CD9",
"|  c #E59CDA",
" . c #E69DDA",
".. c #E69DDB",
"X. c #E79EDB",
"o. c #EF91E0",
"O. c #F097E2",
"+. c #F197E2",
"@. c #F198E2",
"#. c #F49EE7",
"$. c #F6A2E9",
"%. c #F6A3E9",
"&. c #F7A3EA",
"*. c #F6A4E9",
"=. c #F7A4EA",
"-. c #F7A5EA",
";. c #F7A6EB",
/* pixels */
"C C N B B B N N N B B B B V C C C C C C C C C C C C C C C C C C B B B C C C C C C C C C C C C C C C C C C C C Z Z Z Z Z Z Z Z . ",
"C m 2 3 M M M M M M M M M M M M M M M M M M M M M M M M M M M M M M M M M M M M M M M M M M M M M M M M M M M M M M M M 2 M Y . ",
"B + y W {  . . . . . . . . . . . . . . . . . . . . . . . . . . . . . . . . . . . . . . . . . . . . . . . . . . . . . .! 4 < H X ",
"C $ k ' +.+.+.+.+.+.+.+.+.+.+.+.+.+.+.+.+.+.+.+.+.+.+.+.+.+.+.+.+.+.+.+.+.+.+.+.@.+.+.+.+.+.+.+.+.+.+.+.+.+.+.+.+.+._ z > , H o ",
"C 2 [ +.z l l l z z z z z z z z z z z z z z z z z z z z z z z z z z z z z z z z z z z z z z z z z z z z z z z z v z 9 & % ; H O ",
"Z 2 { @.l l l l l l l l l l l l l l l l l l l l l l l l l l l l l l l l l l l l l l l l l l l l l l l l l l l l g t 6 & % - P O ",
"Z 2 [ @.z l l z z z z z z z z z z z z z z z z z z z z z z z z z z z z z z z z z z z z z z z z z z z z z z z z l 9 = = & % - P O ",
"Z 2 [ @.z l z l j j j j j j j j j j j j j j j j j j j j j j j j j j j j j j j j j j j j j j j j j j j j j j h f 6 * = & % - H o ",
"Z 2 [ @.z l z j s s s s s s s s s s s s s s s s s s s s s s s s s s s s s s s s s s s s s s s s s s s s s d p u 5 * = & % - H o ",
"Z 2 { @.z l z j s s d n ( ( ( ( ( ( ( ( ( ( ( ( ( ( ( ( ( ( ( ( ( ( ( ( ( ( ( ( ( ( ( ( ( ( ( ( ( ( ( ( c p p u 5 * = & % - H o ",
"Z 2 { @.z l z j s d f o.-.-.-.-.-.-.-.-.-.-.-.-.-.-.-.-.-.-.-.-.-.-.-.-.-.-.-.-.-.-.-.-.-.-.-.-.-.-.-.-.n u u u 5 * = & % - H o ",
"Z 2 { @.z l z j s n o.#.-.-.-.-.-.-.-.-.-.-.-.-.-.-.-.-.-.-.-.-.-.-.-.-.-.-.-.-.-.-.-.-.-.-.-.-.-.-._ r 7 5 q u 5 * = & % - H o ",
"Z 2 { @.z l z j s ( -.-.%.%.%.%.%.%.%.%.%.%.%.%.%.%.%.%.%.%.%.%.%.%.%.%.%.%.%.%.%.%.%.%.%.%.%.%.%.%.Q = & & 0 u 5 * = & % - H o ",
"Z 2 { @.z l z j s ( -.-.%.( n n n n n n n n n n n n n n n n n n n n n n n n n n n n n n n n n n b x i = * * 0 u 5 * = & % - H o ",
"Z 2 [ @.z l z j s ( -.-.%.n s s s s s s s s s s s s s s s s s s s s s s s s s s s s s s s s s s p u w = * * 0 u 5 * = & % - H o ",
"Z 2 [ @.z l z j s ( -.-.%.n s d d d d d d d d d d d d d d d d d d d d d d d d d d d d d d d s u u u w = * * 0 u 5 * = & % - H o ",
"A 2 [ @.z l z j s ( -.-.%.n s d d d d d d d d d d d d d d d d d d d d d d d d d d d d d s s s u u u w = * * 0 u 5 * = & % - H o ",
"A 2 [ @.z l z j s ( -.-.%.n s d d d d d d d d d d d d d d d d d d d d d d d d d d d d d s u u u u u w = * * 0 u 5 * = & % - H o ",
"A 2 [ @.z l z j s ( -.-.%.n s d d d d d d d d d d d d d d d d d d d d d d d d d d d s s a u u u u u w = * * 0 u 5 * = & % - H o ",
"Z 2 [ @.z l z j s ( -.-.%.n s d d d d d d d d d d d d d d d d d d d d d d d d d d d s p u u u u u u w = * * 0 u 5 * = & % - H o ",
"Z 2 [ @.z l z j s ( -.-.%.n s d d d d d d d d d d d d d d d d d d d d d d d d d s s s u u u u u u u w = * * 0 u 5 * = & % - H o ",
"Z 2 [ @.z l z j s ( -.-.%.n s d d d d d d d d d d d d d d d d d d d d d d d d d s p u u u u u u u u w = * * 0 u 5 * = & % - H o ",
"Z 2 [ @.z l z j s ( -.-.%.n s d d d d d d d d d d d d d d d d d d d d d d d d s p u u u u u u u u u w = * * 0 u 5 * = & % - H o ",
"A 2 [ @.z l z j s ( -.-.%.n s d d d d d d d d d d d d d d d d d d d d d d d d p u u u u u u u u u u w = * * 0 u 5 * = & % - H o ",
"Z 2 [ @.z l z j s ( -.-.%.n s d d d d d d d d d d d d d d d d d d d d d d s p p u u u u u u u u u u w = * * 0 u 5 * = & % - H o ",
"Z 2 { @.z l z j s ( -.-.%.n s d d d d d d d d d d d d d d d d d d d d s s p u u u u u u u u u u u u w = * * 0 u 5 * = & % - H o ",
"Z 2 [ @.z l z j s ( -.-.%.n s d d d d d d d d d d d d d d d d d d d d s p u u u u u u u u u u u u u w = * * 0 u 5 * = & % - H o ",
"Z 2 [ @.z l z j s ( -.-.%.n s d d d d d d d d d d d d d d d d d d s s s u u u u u u u u u u u u u u w = * * 0 u 5 * = & % - H o ",
"A 2 [ @.z l z j s ( -.-.%.n s d d d d d d d d d d d d d d d d d d s p u u u u u u u u u u u u u u u w = * * 0 u 5 * = & % - H o ",
"A 2 [ @.z l z j s ( -.-.%.n s d d d d d d d d d d d d d d d d s s a u u u u u u u u u u u u u u u u w = * * 0 u 5 * = & % - H o ",
"A 2 [ @.z l z j s ( -.-.%.n s d d d d d d d d d d d d d d d d s u u u u u u u u u u u u u u u u u u w = * * 0 u 5 * = & % - H o ",
"A 2 [ @.z l z j s ( -.-.%.n s d d d d d d d d d d d d d d s s s u u u u u u u u u u u u u u u u u u w = * * 0 u 5 * = & % - H o ",
"A 2 [ @.z l z j s ( -.-.%.n s d d d d d d d d d d d d d d s u u u u u u u u u u u u u u u u u u u u w = * * 0 u 5 * = & % - H o ",
"A 2 [ @.z l z j s ( -.-.%.n s d d d d d d d d d d d d s s a u u u u u u u u u u u u u u u u u u u u w = * * 0 u 5 * = & % - H o ",
"A 2 [ @.z l z j s ( -.-.%.n s d d d d d d d d d d d d s p u u u u u u u u u u u u u u u u u u u u u w = * * 0 u 5 * = & % - H o ",
"A 2 [ @.z l z j s ( -.-.%.n s d d d d d d d d d d s s s u u u u u u u u u u u u u u u u u u u u u u w = * * 0 u 5 * = & % - H o ",
"A 2  .@.z l z j s ( -.-.%.n s d d d d d d d d d d s p u u u u u u u u u u u u u u u u u u u u u u u w = * * 0 u 5 * = & % - H o ",
"A 2 { @.z l z j s ( -.-.%.n s d d d d d d d d d s p u u u u u u u u u u u u u u u u u u u u u u u u w = * * 0 u 5 * = & % - H o ",
"A 2 [ @.z l z j s ( -.-.%.n s d d d d d d d d d p u u u u u u u u u u u u u u u u u u u u u u u u u w = * * 0 u 5 * = & % - H o ",
"A 2 [ @.z l z j s ( -.-.%.n s d d d d d d d s p p u u u u u u u u u u u u u u u u u u u u u u u u u w = * * 0 u 5 * = & % - H o ",
"A 2 [ @.z l z j s ( -.-.%.n s d d d d d s s p u u u u u u u u u u u u u u u u u u u u u u u u u u u w = * * 0 u 5 * = & % - H o ",
"A 2 [ @.z l z j s ( -.-.%.n s d d d d d s p u u u u u u u u u u u u u u u u u u u u u u u u u u u u w = * * 0 u 5 * = & % - H o ",
"Z 2 { @.z l z j s ( -.-.%.n s d d d s s s u u u u u u u u u u u u u u u u u u u u u u u u u u u u u w = * * 0 u 5 * = & % - H o ",
"Z 2 { @.z l z j s ( -.-.%.n s d d d s p u u u u u u u u u u u u u u u u u u u u u u u u u u u u u u w = * * 0 u 5 * = & % - H o ",
"Z 2 { @.z l z j s ( -.-.%.n s d s s a u u u u u u u u u u u u u u u u u u u u u u u u u u u u u u u w = * * 0 u 5 * = & % - H o ",
"C 2 { @.z l z j s ( -.-.%.n s d s u u u u u u u u u u u u u u u u u u u u u u u u u u u u u u u u u w = * * 0 u 5 * = & % - H o ",
"C 2 { @.z l z j s ( -.-.%.n s s s u u u u u u u u u u u u u u u u u u u u u u u u u u u u u u u u u w = * * 0 u 5 * = & % - H o ",
"C $ { @.z l z j s ( -.-.%.n s u u u u u u u u u u u u u u u u u u u u u u u u u u u u u u u u u u u w = * * 0 u 5 * = & % - H O ",
"C $ { @.z l z j s ( -.-.%.b p u u u u u u u u u u u u u u u u u u u u u u u u u u u u u u u u u u u w = * * 0 u 5 * = & % - P O ",
"C + { @.z l z j s ( -.-.%.x u u u u u u u u u u u u u u u u u u u u u u u u u u u u u u u u u u u u w = * * 0 u 5 * = & % - P O ",
"C + { @.z l z j s ( -._ Q i w w w w w w w w w w w w w w w w w w w w w w w w w w w w w w w w w w w w 0 = * * 0 u 5 * = & % - P O ",
"C + { @.z l z j s ( -.r = = = = = = = = = = = = = = = = = = = = = = = = = = = = = = = = = = = = = = = = * & 0 u 5 * = & % - P O ",
"C + { @.z l z j s c n 7 & * * * * * * * * * * * * * * * * * * * * * * * * * * * * * * * * * * * * * * * 5 0 e u 5 * = & % - P O ",
"C $ { @.z l z j d p u 5 & * * * * * * * * * * * * * * * * * * * * * * * * * * * * * * * * * * * * * * & 0 u u u 5 * = & % - P O ",
"C $ { @.z l z h p p u q 0 0 0 0 0 0 0 0 0 0 0 0 0 0 0 0 0 0 0 0 0 0 0 0 0 0 0 0 0 0 0 0 0 0 0 0 0 0 0 0 e u u u 5 * = & % - P O ",
"C $ { @.z l l f u u u u u u u u u u u u u u u u u u u u u u u u u u u u u u u u u u u u u u u u u u u u u u u u 5 * = & % - P O ",
"C $ { @.v g 9 6 5 5 5 5 5 5 5 5 5 5 5 5 5 5 5 5 5 5 5 5 5 5 5 5 5 5 5 5 5 5 5 5 5 5 5 5 5 5 5 5 5 5 5 5 5 5 5 5 = * = & % - P O ",
"Z $ { +.z t = * * * * * * * * * * * * * * * * * * * * * * * * * * * * * * * * * * * * * * * * * * * * * * * * * * = = & % - P O ",
"Z 2  ._ 9 6 = = = = = = = = = = = = = = = = = = = = = = = = = = = = = = = = = = = = = = = = = = = = = = = = = = = = = & % - H O ",
"Z 1 ! z & & & & & & & & & & & & & & & & & & & & & & & & & & & & & & & & & & & & & & & & & & & & & & & & & & & & & & & & % : H O ",
"Z + , > % % % % % % % % % % % % % % % % % % % % % % % % % % % % % % % % % % % % % % % % % % % % % % % % % % % % % % % % & 4 U O ",
"A 2 , , - - - - - - - - - - - - - - - - - - - - - - - - - - - - - - - - - - - - - - - - - - - - - - - - - - - - - - - : 4 8 T O ",
"S E R H D D D D D D D D D D D D D D D D D D D D D D D D D D D D D D D D D D D D D D D D D D D D D D D D D D D D D D D D F H K O ",
"O # # # # # # # # # # # # # # # # # # # # # # # # # # # # # # # # # # # # # # # # # # # # # # # # # # # # # # # # O O O @ O O   "
};
